<svg xmlns:rdf="http://www.w3.org/1999/02/22-rdf-syntax-ns#" xmlns="http://www.w3.org/2000/svg" height="99.583mm" width="178.37mm" version="1.1" xmlns:cc="http://creativecommons.org/ns#" xmlns:dc="http://purl.org/dc/elements/1.1/" viewBox="0 0 632.00231 352.85328">
 <path style="stroke:#5e6b7d;stroke-width:2;fill:none" d="m360.97 287.79s-2.5184-35.447-11.464-40.651"/>
 <path style="stroke:#000;stroke-width:2;fill:none" d="m349.61 246.97-2.9834 2.5175"/>
 <path style="stroke:#000;stroke-width:2;fill:none" d="m350.16 247.46-4.3786-3.522"/>
 <text style="letter-spacing:0px;font-weight:100;font-size:252.99px;word-spacing:0px;font-family:&apos;AR CENA&apos;;line-height:125%;fill:#5e6b7d" y="376.43802" x="248.4201" xml:space="preserve"><tspan y="376.43802" x="248.4201">+</tspan></text>
 <path style="stroke:#5e6b7d;stroke-width:2;fill:#ffa200;fill-rule:evenodd" d="m301.56 337.46s-.2579 11.609-2.0632 12.125"/>
 <path style="stroke:#5e6b7d;stroke-width:2;fill-rule:evenodd" d="m293.41 349.86s1.0132-.973 6.5251-1.2568c0 0 .48634 1.7028-.16215 1.9055-.64846.20271-6.2009 1.6217-6.6062 1.2974-.40528-.32433-.77002-1.5.24318-1.946z"/>
 <path style="stroke:#5e6b7d;stroke-width:2;fill:#ffa200;fill-rule:evenodd" d="m314.65 337.2s.2579 11.609 2.0632 12.125"/>
 <path style="stroke:#5e6b7d;stroke-width:2;fill-rule:evenodd" d="m322.8 349.6s-1.0132-.973-6.5251-1.2568c0 0-.48634 1.7028.16216 1.9055.64846.20272 6.2009 1.6217 6.6062 1.2974.40527-.32433.77001-1.5-.24319-1.946z"/>
 <path style="stroke:#5e6b7d;stroke-width:2;fill:none" d="m256.46 289.68s-7.7384-31.433.29457-41.354"/>
 <path style="stroke:#000;stroke-width:2;fill:none" d="m256.88 248.54 3.4046.0242"/>
 <path style="stroke:#000;stroke-width:2;fill:none" d="m256.42 249.23 3.3182-4.9004"/>
 <path style="stroke:#000;stroke-width:2;fill:none" d="m349.73 246.86-1.2424-5.8384"/>
 <path style="stroke:#f2f2f2;stroke-width:.5;fill:#f2f2f2;fill-rule:evenodd" d="m305.23 255.8s6.3716-5.7242 10.155.58945c0 0-5.018-1.0718-10.155-.58945z"/>
 <ellipse style="stroke-linejoin:bevel;color-rendering:auto;fill-rule:evenodd;color:#000000;isolation:auto;mix-blend-mode:normal;shape-rendering:auto;solid-color:#000000;stroke:#f2f2f2;stroke-linecap:square;image-rendering:auto;stroke-width:.5;fill:#f2f2f2" rx="1.9347" ry="2.0356" cy="244.13" cx="306.49"/>
 <ellipse style="stroke-linejoin:bevel;color-rendering:auto;fill-rule:evenodd;color:#000000;isolation:auto;mix-blend-mode:normal;shape-rendering:auto;solid-color:#000000;stroke:#f2f2f2;stroke-linecap:square;image-rendering:auto;stroke-width:.5;fill:#f2f2f2" rx="1.9347" ry="2.0356" cy="244.13" cx="314.74"/>
 <ellipse style="color-rendering:auto;fill-rule:evenodd;color:#000000;isolation:auto;mix-blend-mode:normal;shape-rendering:auto;solid-color:#000000;image-rendering:auto;fill:#1a1a1a" rx="1.2653" ry="1.3521" cy="244.88" cx="314.74"/>
 <ellipse style="color-rendering:auto;fill-rule:evenodd;color:#000000;isolation:auto;mix-blend-mode:normal;shape-rendering:auto;solid-color:#000000;image-rendering:auto;fill:#1a1a1a" rx="1.2653" ry="1.3521" cy="244.56" cx="306.48"/>
 <path style="stroke:#000;stroke-width:0.3;fill:none" d="m304 241.45s1.9702-.79828 4.433-.50526"/>
 <path style="stroke:#000;stroke-width:0.3;fill:none" d="m316.31 241.31s-1.8077-.9043-3.6721-.50524"/>
 <path style="stroke:#000;stroke-width:2;fill:none" d="m256.74 248.53-.25809-4.6373"/>
 <path style="color-rendering:auto;fill-rule:evenodd;color:#000000;isolation:auto;mix-blend-mode:normal;shape-rendering:auto;solid-color:#000000;image-rendering:auto;fill:#5e6b7d" d="m336.11 207.25h77.148v23.546h-73.294l-14.861 16.825 11.008-19.162z"/>
 <text style="letter-spacing:0px;font-weight:100;font-size:22.218px;word-spacing:0px;font-family:&apos;AR CENA&apos;;line-height:125%;fill:#ffffff" y="226.15399" x="343.10471" xml:space="preserve"><tspan y="226.15399" x="343.10471">No way!</tspan></text>
 <g transform="translate(-153.82 -126.26)">
  <g transform="translate(-3.0334e-6,-5.7431)">
   <path d="m173.2 229.04s-.35862 16.143-2.8689 16.861" style="stroke:#ffa200;stroke-width:2;fill:#ffa200;fill-rule:evenodd"/>
   <path d="m161.86 246.28s1.4089-1.353 9.0735-1.7477c0 0 .67629 2.3678-.22548 2.6497-.90172.28188-8.6227 2.255-9.1862 1.804-.56356-.451-1.0708-2.0859.33816-2.706z" style="stroke:#ffa200;stroke-width:2;fill-rule:evenodd"/>
   <path d="m191.06 228.68s.35863 16.143 2.8689 16.861" style="stroke:#ffa200;stroke-width:2;fill:#ffa200;fill-rule:evenodd"/>
   <path d="m202.39 245.92s-1.4089-1.353-9.0735-1.7477c0 0-.67628 2.3678.22549 2.6497.90172.28189 8.6227 2.255 9.1862 1.804.56355-.451 1.0708-2.0859-.33816-2.706z" style="stroke:#ffa200;stroke-width:2;fill-rule:evenodd"/>
   <path d="m205.21 191.32s33.226.49605 35.953-11.162" style="stroke:#f70;stroke-width:2;fill:none"/>
   <path d="m241.36 180.33-3.1526-4.3605" style="stroke:#000;stroke-width:2;fill:none"/>
   <path d="m241.02 181.02 2.2663-5.5974" style="stroke:#000;stroke-width:2;fill:none"/>
   <path d="m241.49 180.49 5.2651-1.0503" style="stroke:#000;stroke-width:2;fill:none"/>
   <path d="m194.08 191.32s-33.226.49605-35.954-11.162" style="stroke:#f70;stroke-width:2;fill:none"/>
   <text style="letter-spacing:0px;font-weight:100;font-size:157.71px;word-spacing:0px;font-family:&apos;AR CENA&apos;;line-height:125%;fill:#f5933e" transform="scale(.99984 1.0002)" y="234.8685" x="160.14732" xml:space="preserve"><tspan y="234.8685" x="160.14732">2</tspan></text>
   <text style="letter-spacing:0px;font-weight:100;font-size:157.71px;word-spacing:0px;font-family:&apos;AR CENA&apos;;line-height:125%;fill:#ff7700" transform="scale(.99984 1.0002)" y="234.8685" x="155.59044" xml:space="preserve"><tspan y="234.8685" x="155.59044">2</tspan></text>
   <path d="m158.39 180.09 2.5432-3.8334" style="stroke:#000;stroke-width:2;fill:none"/>
   <path d="m158.67 180.78-1.8283-5.0256" style="stroke:#000;stroke-width:2;fill:none"/>
   <path d="m158.29 180.23-4.2473-.92331" style="stroke:#000;stroke-width:2;fill:none"/>
   <path d="m213 165.29s7.9057 2.0606 10.591-3.5324c0 0-2.9243 3.4796-10.591 3.5324z" style="stroke:#f2f2f2;stroke-width:.5;fill:#f2f2f2;fill-rule:evenodd"/>
   <ellipse style="stroke-linejoin:bevel;color-rendering:auto;fill-rule:evenodd;color:#000000;isolation:auto;mix-blend-mode:normal;shape-rendering:auto;solid-color:#000000;stroke:#f2f2f2;stroke-linecap:square;image-rendering:auto;stroke-width:.5;fill:#f2f2f2" rx="2.1373" ry="2.2487" cy="148.95" cx="214.12"/>
   <ellipse style="stroke-linejoin:bevel;color-rendering:auto;fill-rule:evenodd;color:#000000;isolation:auto;mix-blend-mode:normal;shape-rendering:auto;solid-color:#000000;stroke:#f2f2f2;stroke-linecap:square;image-rendering:auto;stroke-width:.5;fill:#f2f2f2" rx="2.1373" ry="2.2487" cy="148.95" cx="223.23"/>
   <ellipse style="color-rendering:auto;fill-rule:evenodd;color:#000000;isolation:auto;mix-blend-mode:normal;shape-rendering:auto;solid-color:#000000;image-rendering:auto;fill:#1a1a1a" rx=".90685" ry=".96909" cy="147.13" cx="223.24"/>
   <ellipse style="color-rendering:auto;fill-rule:evenodd;color:#000000;isolation:auto;mix-blend-mode:normal;shape-rendering:auto;solid-color:#000000;image-rendering:auto;fill:#1a1a1a" rx=".90685" ry=".96909" cy="150.72" cx="214.16"/>
   <path d="m211.37 145.98s2.2936-2.1703 4.8971-.55816" style="stroke:#000;stroke-width:0.3;fill:none"/>
   <path d="m225.8 144.06s-2.2936-2.1703-4.8971-.55814" style="stroke:#000;stroke-width:0.3;fill:none"/>
  </g>
  <g transform="translate(11.075,-4.4177)">
   <g transform="translate(0,-2.2485)">
    <text style="letter-spacing:0px;font-weight:100;font-size:141.9px;word-spacing:0px;font-family:&apos;AR CENA&apos;;line-height:125%;fill:#a6d41d" transform="scale(.99976 1.0002)" y="226.25903" x="428.37695" xml:space="preserve"><tspan y="226.25903" x="428.37695">4</tspan></text>
    <path d="m482.43 169.49s42.566-4.6357 12.723-24.551" style="stroke:#b4e913;stroke-width:2;fill:none"/>
    <text style="letter-spacing:0px;font-weight:100;font-size:141.9px;word-spacing:0px;font-family:&apos;AR CENA&apos;;line-height:125%;fill:#b4e913" transform="scale(.99976 1.0002)" y="226.25903" x="423.64706" xml:space="preserve"><tspan y="226.25903" x="423.64706">4</tspan></text>
    <path d="m495.34 144.29 1.3655-5.2174" style="stroke:#000;stroke-width:2;fill:none"/>
    <path d="m475.95 160.2s6.8758 3.7479 10.001-.18001c0 0-3.2618 1.395-10.001.18001z" style="stroke:#f2f2f2;stroke-width:.5;fill:#f2f2f2;fill-rule:evenodd"/>
    <ellipse style="stroke-linejoin:bevel;color-rendering:auto;fill-rule:evenodd;color:#000000;isolation:auto;mix-blend-mode:normal;shape-rendering:auto;solid-color:#000000;stroke:#f2f2f2;stroke-linecap:square;image-rendering:auto;stroke-width:.5;fill:#f2f2f2" rx="1.9228" ry="2.0234" cy="149.29" cx="476.2"/>
    <path d="m495.62 144.19-3.3858-3.8832" style="stroke:#000;stroke-width:2;fill:none"/>
    <ellipse style="stroke-linejoin:bevel;color-rendering:auto;fill-rule:evenodd;color:#000000;isolation:auto;mix-blend-mode:normal;shape-rendering:auto;solid-color:#000000;stroke:#f2f2f2;stroke-linecap:square;image-rendering:auto;stroke-width:.5;fill:#f2f2f2" rx="1.9228" ry="2.0234" cy="149.29" cx="484.4"/>
    <path d="m495.27 144.49-4.7806.77497" style="stroke:#000;stroke-width:2;fill:none"/>
    <ellipse style="color-rendering:auto;fill-rule:evenodd;color:#000000;isolation:auto;mix-blend-mode:normal;shape-rendering:auto;solid-color:#000000;image-rendering:auto;fill:#1a1a1a" rx=".81586" ry=".87199" cy="149.78" cx="485.75"/>
    <ellipse style="color-rendering:auto;fill-rule:evenodd;color:#000000;isolation:auto;mix-blend-mode:normal;shape-rendering:auto;solid-color:#000000;image-rendering:auto;fill:#1a1a1a" rx=".81586" ry=".87199" cy="150.11" cx="477.35"/>
    <path d="m479.47 144.74s-2.7021 1.9529-5.7693.50222" style="stroke:#000;stroke-width:0.3;fill:none"/>
    <path d="m483.58 143.45s2.7021 1.9529 5.7693.50223" style="stroke:#000;stroke-width:0.3;fill:none"/>
    <path d="m471.25 223.74s-.32265 22.231-2.5811 23.219" style="stroke:#b4e913;stroke-width:2;fill:#ffa200;fill-rule:evenodd"/>
    <path d="m461.05 247.48s1.2676-1.8633 8.1631-2.4067c0 0 .60842 3.2607-.20287 3.6489-.81124.38818-7.7575 3.1054-8.2645 2.4844-.50702-.62107-.96332-2.8725.30422-3.7265z" style="stroke:#b4e913;stroke-width:2;fill-rule:evenodd"/>
    <path d="m479.11 223.67s.32264 22.231 2.5811 23.219" style="stroke:#b4e913;stroke-width:2;fill:#ffa200;fill-rule:evenodd"/>
    <path d="m489.31 247.41s-1.2676-1.8632-8.1631-2.4067c0 0-.60843 3.2607.20286 3.6489.81125.38816 7.7575 3.1054 8.2645 2.4844.50701-.62107.96332-2.8725-.30423-3.7265z" style="stroke:#b4e913;stroke-width:2;fill-rule:evenodd"/>
    <path d="m448.03 166.58s-55.48 2.9228-16.583 15.479" style="stroke:#b4e913;stroke-width:2;fill:none"/>
    <path d="m431.35 182.42-1.3655 4.6455" style="stroke:#000;stroke-width:2;fill:none"/>
    <path d="m430.48 182.08 3.961 3.8935" style="stroke:#000;stroke-width:2;fill:none"/>
    <path d="m431.41 182.24 4.7806-.69002" style="stroke:#000;stroke-width:2;fill:none"/>
   </g>
  </g>
  <g transform="translate(-.26204 -12.14)">
   <path d="m317.2 235.04s-.35862 16.143-2.8689 16.861" style="stroke:#f92d2d;stroke-width:2;fill:#ffa200;fill-rule:evenodd"/>
   <path d="m305.86 252.28s1.4089-1.353 9.0735-1.7477c0 0 .67629 2.3678-.22548 2.6497-.90172.28188-8.6227 2.255-9.1862 1.804-.56356-.451-1.0708-2.0859.33816-2.706z" style="stroke:#f92d2d;stroke-width:2;fill-rule:evenodd"/>
   <path d="m327.06 234.68s.35863 16.143 2.8689 16.861" style="stroke:#f92d2d;stroke-width:2;fill:#ffa200;fill-rule:evenodd"/>
   <path d="m338.39 251.92s-1.4089-1.353-9.0735-1.7477c0 0-.67628 2.3678.22549 2.6497.90172.28189 8.6227 2.255 9.1862 1.804.56355-.451 1.0708-2.0859-.33816-2.706z" style="stroke:#f92d2d;stroke-width:2;fill-rule:evenodd"/>
   <path d="m342.13 180.47s-32.627 6.2992-32.917 18.268" style="stroke:#f92d2d;stroke-width:2;fill:none"/>
   <path d="m309.5 198.76 3.2724 3.2333" style="stroke:#000;stroke-width:2;fill:none"/>
   <path d="m309.62 198.02-.76351 5.293" style="stroke:#000;stroke-width:2;fill:none"/>
   <text style="letter-spacing:0px;font-weight:100;font-size:147.98px;word-spacing:0px;font-family:&apos;AR CENA&apos;;line-height:125%;fill:#f92d2d" y="243.25966" x="305.36276" xml:space="preserve"><tspan y="243.25966" x="305.36276">?</tspan></text>
   <path d="m343.84 176.15s18.609 27.53 10.348 36.196" style="stroke:#f92d2d;stroke-width:2;fill:none"/>
   <path d="m354.42 212.41-5.375-.25008" style="stroke:#000;stroke-width:2;fill:none"/>
   <path d="m354.82 211.75-3.4426 4.9615" style="stroke:#000;stroke-width:2;fill:none"/>
   <path d="m354.64 212.43 2.0043 4.9806" style="stroke:#000;stroke-width:2;fill:none"/>
   <path d="m353.8 168.16s8.0347-4.658 13.626 1.6451c0 0-6.4825-2.3158-13.626-1.6451z" style="stroke:#f2f2f2;stroke-width:.5;fill:#f2f2f2;fill-rule:evenodd"/>
   <ellipse style="stroke-linejoin:bevel;color-rendering:auto;fill-rule:evenodd;color:#000000;isolation:auto;mix-blend-mode:normal;shape-rendering:auto;solid-color:#000000;stroke:#f2f2f2;stroke-linecap:square;image-rendering:auto;stroke-width:.5;fill:#f2f2f2" rx="2.6904" ry="2.8306" cy="154.24" cx="355.06"/>
   <ellipse style="stroke-linejoin:bevel;color-rendering:auto;fill-rule:evenodd;color:#000000;isolation:auto;mix-blend-mode:normal;shape-rendering:auto;solid-color:#000000;stroke:#f2f2f2;stroke-linecap:square;image-rendering:auto;stroke-width:.5;fill:#f2f2f2" rx="2.6904" ry="2.8306" cy="154.24" cx="366.53"/>
   <ellipse style="color-rendering:auto;fill-rule:evenodd;color:#000000;isolation:auto;mix-blend-mode:normal;shape-rendering:auto;solid-color:#000000;image-rendering:auto;fill:#1a1a1a" rx="1.1415" ry="1.2199" cy="155.28" cx="366.53"/>
   <ellipse style="color-rendering:auto;fill-rule:evenodd;color:#000000;isolation:auto;mix-blend-mode:normal;shape-rendering:auto;solid-color:#000000;image-rendering:auto;fill:#1a1a1a" rx="1.1415" ry="1.2199" cy="154.83" cx="355.2"/>
   <path d="m351.59 150.51s2.7397-1.1101 6.1644-.7026" style="stroke:#000;stroke-width:0.3;fill:none"/>
   <path d="m368.71 150.32s-2.5137-1.2575-5.1062-.70257" style="stroke:#000;stroke-width:0.3;fill:none"/>
   <path d="m309.36 198.64-3.9693 1.7712" style="stroke:#000;stroke-width:2;fill:none"/>
  </g>
  <text style="letter-spacing:0px;font-weight:100;font-size:108px;word-spacing:0px;font-family:&apos;AR CENA&apos;;line-height:125%;fill:#333333" y="210.78487" x="574.34796" xml:space="preserve"><tspan y="210.78487" x="574.34796">=</tspan></text>
  <g transform="matrix(2.3644,0,0,2.3655,161.19,-1138.9)">
   <text style="font-size:60px;fill-opacity:.99685;letter-spacing:0px;word-spacing:0px;font-family:sans-serif;line-height:125%;fill:#36b5e0" y="578.44434" x="227.69229" xml:space="preserve"><tspan y="578.44434" x="227.69229" style="font-weight:100;fill:#36b5e0;font-family:&apos;AR CENA&apos;;fill-opacity:.99685">6</tspan></text>
   <path d="m233.15 557.77s-23.465 1.6821-7.0136 8.9088" style="stroke:#00beff;stroke-width:.42284;fill:none"/>
   <path d="m239.53 575.66s-.13646 9.3979-1.0916 9.8156" style="stroke:#00beff;stroke-width:.42284px;fill:#ffa200;fill-rule:evenodd"/>
   <path d="m235.21 585.69s.5361-.78767 3.4525-1.0174c0 0 .25733 1.3784-.0858 1.5425-.34311.1641-3.281 1.3128-3.4954 1.0502-.21444-.26255-.40743-1.2143.12867-1.5754z" style="stroke:#00beff;stroke-width:.42284px;fill-rule:evenodd"/>
   <path d="m246.32 576.69s.13646 9.3979 1.0916 9.8155" style="stroke:#00beff;stroke-width:.42284px;fill:#ffa200;fill-rule:evenodd"/>
   <path d="m250.63 586.73s-.5361-.78767-3.4525-1.0174c0 0-.25733 1.3784.0858 1.5425.34311.16409 3.281 1.3128 3.4954 1.0502.21444-.26255.40743-1.2143-.12867-1.5754z" style="stroke:#00beff;stroke-width:.42284px;fill-rule:evenodd"/>
   <path d="m251.11 558.47s23.465 1.6821 7.0136 8.9088" style="stroke:#00beff;stroke-width:.42284;fill:none"/>
   <text style="font-size:60px;letter-spacing:0px;word-spacing:0px;font-family:sans-serif;line-height:125%;fill:#00beff" y="578.44434" x="225.69229" xml:space="preserve"><tspan y="578.44434" x="225.69229" style="font-weight:100;font-family:&apos;AR CENA&apos;;fill:#00beff">6</tspan></text>
   <ellipse style="stroke-linejoin:bevel;color-rendering:auto;fill-rule:evenodd;color:#000000;isolation:auto;mix-blend-mode:normal;shape-rendering:auto;solid-color:#000000;stroke:#f2f2f2;stroke-linecap:square;image-rendering:auto;stroke-width:.21142;fill:#f2f2f2" rx=".81325" ry=".85536" cy="543.85" cx="240.1"/>
   <ellipse style="stroke-linejoin:bevel;color-rendering:auto;fill-rule:evenodd;color:#000000;isolation:auto;mix-blend-mode:normal;shape-rendering:auto;solid-color:#000000;stroke:#f2f2f2;stroke-linecap:square;image-rendering:auto;stroke-width:.21142;fill:#f2f2f2" rx=".81325" ry=".85536" cy="543.73" cx="244.09"/>
   <ellipse style="color-rendering:auto;fill-rule:evenodd;color:#000000;isolation:auto;mix-blend-mode:normal;shape-rendering:auto;solid-color:#000000;image-rendering:auto;fill:#1a1a1a" rx=".34506" ry=".36863" cy="543.85" cx="244.05"/>
   <ellipse style="color-rendering:auto;fill-rule:evenodd;color:#000000;isolation:auto;mix-blend-mode:normal;shape-rendering:auto;solid-color:#000000;image-rendering:auto;fill:#1a1a1a" rx=".34506" ry=".36863" cy="543.93" cx="240.07"/>
   <path d="m242.96 542.5s1.1428-.82555 2.4401-.21231" style="stroke:#000;stroke-width:.12685;fill:none"/>
   <path d="m241.65 542.74s-1.1428-.82555-2.4401-.21231" style="stroke:#000;stroke-width:.12685;fill:none"/>
   <path d="m238.26 546.91s3.2675 2.2535 4.2892.12604c0 0-2.1977 1.1749-4.2892-.12604z" style="stroke:#f2f2f2;stroke-width:.21142;fill:#f2f2f2;fill-rule:evenodd"/>
   <path d="m226.09 566.89-.57753 2.6736" style="stroke:#000;stroke-width:.42284px;fill:none"/>
   <path d="m225.73 566.7 1.6753 2.2408" style="stroke:#000;stroke-width:.42284px;fill:none"/>
   <path d="m226.12 566.79 2.0219-.39713" style="stroke:#000;stroke-width:.42284px;fill:none"/>
   <path d="m258.17 567.59.57753 2.6736" style="stroke:#000;stroke-width:.42284px;fill:none"/>
   <path d="m258.53 567.4-1.6753 2.2408" style="stroke:#000;stroke-width:.42284px;fill:none"/>
   <path d="m258.14 567.49-2.0219-.39713" style="stroke:#000;stroke-width:.42284px;fill:none"/>
  </g>
 </g>
</svg>
