<svg xmlns:rdf="http://www.w3.org/1999/02/22-rdf-syntax-ns#" xmlns="http://www.w3.org/2000/svg" height="112.89mm" width="127mm" version="1.1" xmlns:cc="http://creativecommons.org/ns#" xmlns:dc="http://purl.org/dc/elements/1.1/" viewBox="0 0 450 400.00201">
 <g transform="translate(-195 -329.5)">
  <path style="fill:#455a64" d="m202.88 329.51h434.24c4.37 0 7.88 2.8764 7.88 6.4492v387.1c0 3.5729-3.5134 6.4492-7.8778 6.4492h-434.24c-4.3665 0-7.88-2.88-7.88-6.45v-387.1c0-3.5736 3.5135-6.45 7.8777-6.45z"/>
  <g style="fill:#aef">
   <path style="" d="m291.7 423.01h-23.95v-36.353h23.95v4.2969h-19.116v9.9609h19.116v4.2969h-19.116v13.501h19.116v4.2969z"/>
   <path style="" d="m365.26 404.87q0 4.956-2.1728 8.9844-2.1484 4.0283-5.7373 6.25-2.4902 1.5381-5.5664 2.2217-3.0518.6836-8.0566.6836h-9.1797v-36.353h9.082q5.3223 0 8.4473.78125 3.1494.75683 5.3223 2.0996 3.7109 2.3193 5.7861 6.1768 2.0752 3.8574 2.0752 9.1553zm-5.0537-.0733q0-4.2725-1.4893-7.2021-1.4892-2.9297-4.4434-4.6143-2.1484-1.2207-4.5654-1.6846-2.417-.48828-5.7861-.48828h-4.541v28.052h4.541q3.4912 0 6.0791-.51269 2.6123-.5127 4.7852-1.9043 2.71-1.7334 4.0527-4.5654 1.3672-2.832 1.3672-7.0801z"/>
   <path style="" d="m436.36 420.37q-1.3428.58593-2.4414 1.0986-1.0742.51269-2.832 1.0742-1.4892.46387-3.2471.78125-1.7334.34179-3.833.34179-3.9551 0-7.2022-1.0986-3.2227-1.123-5.6152-3.4912-2.3438-2.3193-3.6621-5.8838-1.3184-3.5889-1.3184-8.3252 0-4.4922 1.2695-8.0322t3.6621-5.9814q2.3193-2.3682 5.5908-3.6133 3.2959-1.2451 7.2998-1.2451 2.9297 0 5.835.708 2.9297.70801 6.4941 2.4902v5.7373h-.36621q-3.0029-2.5146-5.957-3.6621t-6.3232-1.1475q-2.7588 0-4.9805.90332-2.1973.87891-3.9307 2.7588-1.6846 1.8311-2.6367 4.6387-.92774 2.7832-.92774 6.4453 0 3.833 1.0254 6.5918 1.0498 2.7588 2.6856 4.4922 1.709 1.8066 3.9795 2.6856 2.2949.85449 4.834.85449 3.4912 0 6.543-1.1963t5.7129-3.5889h.3418v5.6641z"/>
   <path style="" d="m505.82 411.83q0 2.71-1.0254 4.7852t-2.7588 3.418q-2.0508 1.6113-4.5166 2.2949-2.4414.6836-6.2256.6836h-12.891v-36.353h10.767q3.9795 0 5.957.29296 1.9775.29297 3.7842 1.2207 2.002 1.0498 2.9053 2.71.90332 1.6357.90332 3.9307 0 2.5879-1.3184 4.419-1.3184 1.8066-3.5156 2.9053v.19531q3.6865.75684 5.8106 3.2471 2.124 2.4658 2.124 6.25zm-8.1299-16.382q0-1.3184-.43946-2.2217-.43945-.90332-1.416-1.4648-1.1475-.65918-2.7832-.80567-1.6357-.1709-4.0527-.1709h-5.7617v10.498h6.25q2.2705 0 3.6133-.21973 1.3428-.24414 2.4902-.97656 1.1475-.73242 1.6113-1.8799.48828-1.1719.48828-2.7588zm3.1006 16.577q0-2.1973-.65918-3.4912-.65918-1.294-2.3926-2.1973-1.1719-.61035-2.8564-.78125-1.6602-.19531-4.0527-.19531h-7.5928v13.525h6.3965q3.1738 0 5.2002-.31738 2.0264-.3418 3.3203-1.2207 1.3672-.95215 2.002-2.1728.63476-1.2207.63476-3.1494z"/>
   <path style="" d="m576.49 423.01h-5.1514l-3.5644-10.132h-15.723l-3.5644 10.132h-4.9072l13.232-36.353h6.4453l13.232 36.353zm-10.205-14.282-6.3721-17.847-6.3965 17.847h12.769z"/>
   <path style="" d="m298.47 467.37q0 4.956-2.1728 8.9844-2.1484 4.0283-5.7373 6.25-2.4902 1.5381-5.5664 2.2217-3.0518.6836-8.0566.6836h-9.1797v-36.353h9.082q5.3223 0 8.4473.78125 3.1494.75683 5.3223 2.0996 3.7109 2.3193 5.7861 6.1768 2.0752 3.8574 2.0752 9.1553zm-5.0537-.0733q0-4.2725-1.4893-7.2021-1.4893-2.9297-4.4434-4.6143-2.1484-1.2207-4.5654-1.6846-2.417-.48828-5.7861-.48828h-4.541v28.052h4.541q3.4912 0 6.0791-.51269 2.6123-.5127 4.7852-1.9043 2.71-1.7334 4.0527-4.5654 1.3672-2.832 1.3672-7.0801z"/>
   <path style="" d="m369.56 482.87q-1.3428.58593-2.4414 1.0986-1.0742.51269-2.832 1.0742-1.4893.46387-3.2471.78125-1.7334.34179-3.833.34179-3.9551 0-7.2022-1.0986-3.2226-1.123-5.6152-3.4912-2.3438-2.3193-3.6621-5.8838-1.3184-3.5889-1.3184-8.3252 0-4.4922 1.2695-8.0322t3.6621-5.9814q2.3193-2.3682 5.5908-3.6133 3.2959-1.2451 7.2998-1.2451 2.9297 0 5.835.708 2.9297.70801 6.4941 2.4902v5.7373h-.36621q-3.0029-2.5146-5.957-3.6621t-6.3232-1.1475q-2.7588 0-4.9805.90332-2.1973.87891-3.9307 2.7588-1.6846 1.8311-2.6367 4.6387-.92773 2.7832-.92773 6.4453 0 3.833 1.0254 6.5918 1.0498 2.7588 2.6855 4.4922 1.709 1.8066 3.9795 2.6856 2.2949.85449 4.834.85449 3.4912 0 6.543-1.1963t5.7129-3.5889h.3418v5.6641z"/>
   <path style="" d="m439.02 474.33q0 2.71-1.0254 4.7852t-2.7588 3.418q-2.0508 1.6113-4.5166 2.2949-2.4414.6836-6.2256.6836h-12.891v-36.353h10.767q3.9795 0 5.957.29296 1.9775.29297 3.7842 1.2207 2.002 1.0498 2.9053 2.71.90332 1.6357.90332 3.9307 0 2.5879-1.3184 4.419-1.3184 1.8066-3.5156 2.9053v.19531q3.6865.75684 5.8106 3.2471 2.124 2.4658 2.124 6.25zm-8.1299-16.382q0-1.3184-.43945-2.2217-.43945-.90332-1.416-1.4648-1.1475-.65918-2.7832-.80567-1.6357-.1709-4.0527-.1709h-5.7617v10.498h6.25q2.2705 0 3.6133-.21973 1.3428-.24414 2.4902-.97656 1.1475-.73242 1.6113-1.8799.48828-1.1719.48828-2.7588zm3.1006 16.577q0-2.1973-.65918-3.4912-.65918-1.294-2.3926-2.1973-1.1719-.61035-2.8564-.78125-1.6602-.19531-4.0527-.19531h-7.5928v13.525h6.3965q3.1738 0 5.2002-.31738 2.0264-.3418 3.3203-1.2207 1.3672-.95215 2.002-2.1728.63477-1.2207.63477-3.1494z"/>
   <path style="" d="m509.7 485.51h-5.1514l-3.5644-10.132h-15.723l-3.5644 10.132h-4.9072l13.232-36.353h6.4453l13.232 36.353zm-10.205-14.282-6.3721-17.847-6.3965 17.847h12.769z"/>
   <path style="" d="m295.83 545.37q-1.3428.58593-2.4414 1.0986-1.0742.51269-2.832 1.0742-1.4893.46387-3.2471.78125-1.7334.34179-3.833.34179-3.9551 0-7.2022-1.0986-3.2226-1.123-5.6152-3.4912-2.3438-2.3193-3.6621-5.8838-1.3184-3.5889-1.3184-8.3252 0-4.4922 1.2695-8.0322t3.6621-5.9814q2.3193-2.3682 5.5908-3.6133 3.2959-1.2451 7.2998-1.2451 2.9297 0 5.835.708 2.9297.70801 6.4941 2.4902v5.7373h-.36621q-3.0029-2.5146-5.957-3.6621t-6.3232-1.1475q-2.7588 0-4.9805.90332-2.1973.87891-3.9307 2.7588-1.6846 1.8311-2.6367 4.6387-.92773 2.7832-.92773 6.4453 0 3.833 1.0254 6.5918 1.0498 2.7588 2.6856 4.4922 1.709 1.8066 3.9795 2.6856 2.2949.85449 4.834.85449 3.4912 0 6.543-1.1963t5.7129-3.5889h.3418v5.6641z"/>
   <path style="" d="m365.29 536.83q0 2.71-1.0254 4.7852t-2.7588 3.418q-2.0508 1.6113-4.5166 2.2949-2.4414.6836-6.2256.6836h-12.891v-36.353h10.767q3.9795 0 5.957.29296 1.9775.29297 3.7842 1.2207 2.002 1.0498 2.9053 2.71.90332 1.6357.90332 3.9307 0 2.5879-1.3184 4.419-1.3184 1.8066-3.5156 2.9053v.19531q3.6865.75684 5.8105 3.2471 2.124 2.4658 2.124 6.25zm-8.1299-16.382q0-1.3184-.43945-2.2217-.43945-.90332-1.416-1.4648-1.1475-.65918-2.7832-.80567-1.6357-.1709-4.0527-.1709h-5.7617v10.498h6.25q2.2705 0 3.6133-.21973 1.3428-.24414 2.4902-.97656 1.1475-.73242 1.6113-1.8799.48828-1.1719.48828-2.7588zm3.1006 16.577q0-2.1973-.65918-3.4912-.65918-1.294-2.3926-2.1973-1.1719-.61035-2.8564-.78125-1.6602-.19531-4.0527-.19531h-7.5928v13.525h6.3965q3.1738 0 5.2002-.31738 2.0264-.3418 3.3203-1.2207 1.3672-.95215 2.002-2.1728.63477-1.2207.63477-3.1494z"/>
   <path style="" d="m435.97 548.01h-5.1514l-3.5644-10.132h-15.723l-3.5644 10.132h-4.9072l13.232-36.353h6.4453l13.232 36.353zm-10.205-14.282-6.3721-17.847-6.3965 17.847h12.769z"/>
   <path style="" d="m295.17 599.33q0 2.71-1.0254 4.7852t-2.7588 3.418q-2.0508 1.6113-4.5166 2.2949-2.4414.6836-6.2256.6836h-12.891v-36.353h10.767q3.9795 0 5.957.29296 1.9775.29297 3.7842 1.2207 2.002 1.0498 2.9053 2.71.90332 1.6357.90332 3.9307 0 2.5879-1.3184 4.419-1.3184 1.8066-3.5156 2.9053v.19531q3.6865.75684 5.8105 3.2471 2.124 2.4658 2.124 6.25zm-8.1299-16.382q0-1.3184-.43946-2.2217-.43945-.90332-1.416-1.4648-1.1475-.65918-2.7832-.80567-1.6357-.1709-4.0527-.1709h-5.7617v10.498h6.25q2.2705 0 3.6133-.21973 1.3428-.24414 2.4902-.97656 1.1475-.73242 1.6113-1.8799.48829-1.1719.48829-2.7588zm3.1006 16.577q0-2.1973-.65918-3.4912-.65918-1.294-2.3926-2.1973-1.1719-.61035-2.8564-.78125-1.6602-.19531-4.0527-.19531h-7.5928v13.525h6.3965q3.1738 0 5.2002-.31738 2.0264-.3418 3.3203-1.2207 1.3672-.95215 2.002-2.1728.63476-1.2207.63476-3.1494z"/>
   <path style="" d="m365.85 610.51h-5.1514l-3.5644-10.132h-15.723l-3.5644 10.132h-4.9072l13.232-36.353h6.4453l13.232 36.353zm-10.205-14.282-6.3721-17.847-6.3965 17.847h12.769z"/>
   <path style="" d="m296.42 673.01h-5.1514l-3.5644-10.132h-15.723l-3.5644 10.132h-4.9072l13.232-36.353h6.4453l13.232 36.353zm-10.205-14.282-6.3721-17.847-6.3965 17.847h12.769z"/>
  </g>
 </g>
</svg>
