<svg xmlns="http://www.w3.org/2000/svg" height="100%" width="100%" viewBox="0 0 1683.2793 503.59046"><path d="m843.13 251.8c.00002 111.45-114.05 201.8-223.38 201.8-109.33.00002-197.95-90.349-197.95-201.8s88.627-201.8 197.95-201.8c109.33 0 223.38 90.349 223.38 201.8z" style="stroke-linejoin:round;color-rendering:auto;color:#000000;isolation:auto;mix-blend-mode:normal;shape-rendering:auto;solid-color:#000000;stroke:#fcd34b;stroke-linecap:round;image-rendering:auto;stroke-width:100;fill:none"/><path d="m844.14 251.8c0 111.45 112.05 201.8 221.38 201.8 109.33.00002 197.95-90.349 197.95-201.8s-88.627-201.8-197.95-201.8c-109.33 0-221.38 90.349-221.38 201.8z" style="stroke-linejoin:round;color-rendering:auto;color:#000000;isolation:auto;mix-blend-mode:normal;shape-rendering:auto;solid-color:#000000;stroke:#bafc4b;stroke-linecap:round;image-rendering:auto;stroke-width:100;fill:none"/><g style="fill:#bafc4b"><path style="fill:#bafc4b" d="m85.019 89.913v305.44h172.33q20.611 0 31.489 10.019 11.164 10.019 11.164 25.191 0 15.458-10.878 25.191-10.878 9.4466-31.775 9.4466h-205.25q-27.767 0-40.076-12.309-12.024-12.31-12.024-39.79v-323.19q0-25.763 11.45-38.645 11.737-12.882 30.63-12.882 19.179 0 30.916 12.882 12.023 12.595 12.023 38.645z"/></g><g style="fill:#fcd34b"><path style="fill:#fcd34b" d="m1536 291.91h-72.987v111.36q0 23.882-11.27 36.225t-28.444 12.343q-17.978 0-28.98-12.075-11.002-12.343-11.002-35.957v-303.22q0-26.297 12.075-37.567t38.372-11.27h102.24q45.349 0 69.767 6.9767 24.15 6.7084 41.592 22.272 17.71 15.563 26.834 38.104 9.1233 22.54 9.1233 50.715 0 60.107-37.03 91.234-37.03 30.859-110.29 30.859zm-19.32-180.32h-53.667v120.21h53.667q28.175 0 46.959-5.9034 19.052-5.9034 28.98-19.32 9.9284-13.417 9.9284-35.152 0-26.028-15.295-42.397-17.173-17.442-70.572-17.442z"/></g><g><path d="m1251 239.06h-.2808q-.8703-.25268-2.2741-.50537-1.4038-.28076-2.4707-.28076-3.3972 0-4.9414 1.5161-1.5161 1.488-1.5161 5.4187v1.0669h9.5178v4.436h-9.3494v26.925h-5.2783v-26.925h-3.5657v-4.436h3.5657v-1.0388q0-5.5872 2.7795-8.5632 2.7796-3.0042 8.0298-3.0042 1.7688 0 3.1726.16845 1.4319.16846 2.6111.39307v4.8291z"/><path d="m1281 261.97q0 7.6648-3.9307 12.101-3.9306 4.436-10.528 4.436-6.6541 0-10.585-4.436-3.9025-4.436-3.9025-12.101 0-7.6648 3.9025-12.101 3.9307-4.4641 10.585-4.4641 6.5979 0 10.528 4.4641 3.9307 4.436 3.9307 12.101zm-5.4468 0q0-6.0925-2.3865-9.0405-2.3864-2.9761-6.6259-2.9761-4.2957 0-6.6822 2.9761-2.3584 2.948-2.3584 9.0405 0 5.896 2.3865 8.9563 2.3865 3.0322 6.6541 3.0322 4.2114 0 6.5979-3.0042 2.4145-3.0322 2.4145-8.9844z"/><path d="m1308.8 252.03h-.2807q-1.1792-.28076-2.3023-.39306-1.095-.14038-2.6111-.14038-2.4426 0-4.7168 1.095-2.2741 1.0669-4.3799 2.7795v22.264h-5.2783v-31.361h5.2783v4.6326q3.1446-2.5269 5.5311-3.5657 2.4145-1.0669 4.9133-1.0669 1.3757 0 1.9934.0842.6177.0562 1.853.25268v5.4187z"/></g><g><path style="" d="m558.95 70.358h-4.3398v-2.7008q-1.8698 1.6159-3.9012 2.5162-2.0314.90028-4.409.90028-4.6168 0-7.3407-3.5549-2.7008-3.5549-2.7008-9.8569 0-3.2779.92336-5.8402.94644-2.5623 2.5392-4.3629 1.5697-1.7544 3.6473-2.6777 2.1006-.92336 4.3398-.92336 2.0314 0 3.6011.43860 1.5697.41551 3.301 1.3158v-11.173h4.3398v35.919zm-4.3398-6.3481v-14.797q-1.7544-.78486-3.1394-1.0849-1.385-.30009-3.024-.30009-3.6473 0-5.6787 2.5392t-2.0314 7.2022q0 4.5937 1.5697 6.9944 1.5697 2.3777 5.0323 2.3777 1.8467 0 3.7396-.80794 1.8929-.83102 3.5318-2.1237z"/><path style="" d="m589.46 57.477q0 6.3019-3.2318 9.9492t-8.6565 3.6473q-5.4709 0-8.7027-3.6473-3.2087-3.6473-3.2087-9.9492t3.2087-9.9492q3.2318-3.6704 8.7027-3.6704 5.4247 0 8.6565 3.6704 3.2318 3.6473 3.2318 9.9492zm-4.4783 0q0-5.0092-1.9621-7.433-1.9621-2.4469-5.4478-2.4469-3.5318 0-5.494 2.4469-1.939 2.4238-1.939 7.433 0 4.8476 1.9621 7.3638 1.9621 2.4931 5.4709 2.4931 3.4626 0 5.4247-2.47 1.9852-2.4931 1.9852-7.3869z"/><path style="" d="m645.26 44.573-6.7174 25.785h-4.0166l-6.6251-19.875-6.5789 19.875h-3.9935l-6.7867-25.785h4.5245l4.7322 19.968 6.4404-19.968h3.578l6.602 19.968 4.4783-19.968h4.3629z"/><path style="" d="m673.07 70.358h-4.3398v-14.681q0-1.7775-.20775-3.3241-.20776-1.5697-.76177-2.4469-.5771-.96953-1.662-1.4312-1.085-.48476-2.8162-.48476-1.7775 0-3.7165.87719t-3.7165 2.2391v19.252h-4.3398v-35.919h4.3398v12.996q2.0314-1.6851 4.2013-2.6316 2.1699-.94644 4.4552-.94644 4.1782 0 6.3712 2.5162t2.193 7.2484v16.736z"/><path style="" d="m686.09 40.256h-4.8938v-4.5014h4.8938v4.5014zm-.27701 30.102h-4.3398v-25.785h4.3398v25.785z"/><path style="" d="m698.65 70.358h-4.3398v-35.919h4.3398v35.919z"/><path style="" d="m728.68 57.915h-18.998q0 2.3776.7156 4.1551.71561 1.7544 1.9621 2.8855 1.2004 1.108 2.8393 1.662 1.662.55402 3.6473.55402 2.6316 0 5.2862-1.0388 2.6777-1.0619 3.8088-2.0776h.23084v4.7322q-2.193.92336-4.4783 1.5466-2.2853.62327-4.8015.62327-6.4174 0-10.018-3.4626-3.6011-3.4857-3.6011-9.8799 0-6.325 3.4395-10.042 3.4626-3.7165 9.0951-3.7165 5.217 0 8.0332 3.0471 2.8393 3.0471 2.8393 8.6565v2.3546zm-4.2244-3.3241q-.0231-3.4164-1.7313-5.2862-1.6851-1.8698-5.1477-1.8698-3.4857 0-5.5632 2.0545-2.0545 2.0545-2.3315 5.1016h14.774z"/></g><g><path style="" d="m1028.1 43.087-7.1044 27.271h-4.2481l-7.0068-21.021-6.958 21.021h-4.2237l-7.1777-27.271h4.7852l5.0048 21.118 6.8116-21.118h3.7841l6.9825 21.118 4.7363-21.118h4.6142z"/><path style="" d="m1057.5 70.358h-4.5899v-15.527q0-1.8799-.2197-3.5156-.2197-1.6602-.8056-2.5879-.6104-1.0254-1.7579-1.5137-1.1474-.51270-2.9785-.51270-1.8799 0-3.9306.92773-2.0508.92774-3.9307 2.3682v20.361h-4.5898v-37.988h4.5898v13.745q2.1484-1.7822 4.4434-2.7832 2.2949-1.001 4.7119-1.001 4.4189 0 6.7383 2.6611 2.3193 2.6611 2.3193 7.666v17.7z"/><path style="" d="m1071.2 38.522h-5.1758v-4.7607h5.1758v4.7607zm-.2929 31.836h-4.5899v-27.271h4.5899v27.271z"/><path style="" d="m1084.5 70.358h-4.5899v-37.988h4.5899v37.988z"/><path style="" d="m1116.3 57.198h-20.093q0 2.5146.7568 4.3945.7569 1.8555 2.0752 3.0518 1.2696 1.1719 3.003 1.7578 1.7578.58594 3.8574.58594 2.7832 0 5.5908-1.0986 2.832-1.123 4.0283-2.1973h.2442v5.0049q-2.3194.97656-4.7364 1.6357-2.417.65918-5.0781.65918-6.7871 0-10.596-3.6621-3.8086-3.6865-3.8086-10.449 0-6.6895 3.6377-10.62 3.6621-3.9307 9.6191-3.9307 5.5176 0 8.4961 3.2227 3.003 3.2227 3.003 9.1553v2.4902zm-4.4678-3.5156q-.024-3.6133-1.8311-5.5908-1.7822-1.9775-5.4443-1.9775-3.6865 0-5.8838 2.1729-2.1728 2.1729-2.4658 5.3955h15.625z"/></g><g><path d="m536.36 450.06h-4.1766v-14.129q0-1.7106-.19994-3.1991-.19994-1.5107-.73312-2.3549-.5554-.93306-1.5995-1.3774-1.0441-.46653-2.7103-.46653-1.7106 0-3.5768.8442-1.8661.8442-3.5768 2.1549v18.528h-4.1766v-24.815h4.1766v2.7548q1.955-1.6218 4.0433-2.5326 2.0883-.91084 4.2877-.91084 4.0211 0 6.1316 2.4215t2.1105 6.9758v16.106z"/><path d="m565.18 438.08h-18.284q0 2.2882.68869 3.9988.68869 1.6884 1.8883 2.777 1.1552 1.0664 2.7326 1.5995 1.5995.53318 3.5101.53318 2.5326 0 5.0874-.99971 2.577-1.0219 3.6656-1.9994h.22216v4.5542q-2.1105.88863-4.3099 1.4885-2.1994.59983-4.6209.59983-6.176 0-9.6417-3.3324-3.4657-3.3546-3.4657-9.5084 0-6.0871 3.3102-9.6639 3.3324-3.5767 8.753-3.5767 5.0208 0 7.7311 2.9325 2.7326 2.9325 2.7326 8.3309v2.266zm-4.0655-3.1991q-.0222-3.2879-1.6662-5.0874-1.6218-1.7995-4.9541-1.7995-3.3546 0-5.354 1.9772-1.9772 1.9772-2.2438 4.9097h14.218z"/><path d="m589.24 442.9q0 3.399-2.8214 5.5762-2.7992 2.1772-7.6645 2.1772-2.7548 0-5.0652-.64425-2.2882-.66648-3.8433-1.444v-4.6875h.22216q1.9772 1.4885 4.3987 2.3771 2.4215.86642 4.6431.86642 2.7548 0 4.3099-.88863 1.5551-.88864 1.5551-2.7992 0-1.4662-.8442-2.2216-.8442-.75534-3.2435-1.2885-.88863-.19994-2.3327-.46653-1.4218-.26659-2.5992-.57761-3.2657-.86642-4.6431-2.5326-1.3552-1.6884-1.3552-4.1322 0-1.5329.62204-2.888.64426-1.3552 1.9328-2.4215 1.2441-1.0441 3.1546-1.644 1.9328-.62204 4.3099-.62204 2.2216 0 4.4876.55539 2.2882.53318 3.7989 1.3107v4.4654h-.22216q-1.5995-1.1774-3.8878-1.9772-2.2882-.82199-4.4876-.82199-2.2882 0-3.8656.88864-1.5773.86641-1.5773 2.5992 0 1.5329.95528 2.3104.93307.77756 3.0214 1.2663 1.1552.26658 2.577.53317 1.444.26659 2.3993.48875 2.9103.66648 4.4876 2.2882 1.5773 1.644 1.5773 4.3543z"/><path d="m608.12 449.83q-1.1774.31102-2.577.51096-1.3774.19995-2.466.19995-3.7989 0-5.7761-2.0439t-1.9772-6.5537v-13.196h-2.8214v-3.5101h2.8214v-7.1313h4.1766v7.1313h8.6197v3.5101h-8.6197v11.308q0 1.955.0889 3.0658.0889 1.0886.62204 2.0439.48875.88863 1.333 1.3107.86642.39989 2.6215.39989 1.0219 0 2.1327-.28881 1.1108-.31102 1.5995-.51096h.22216v3.7545z"/><path d="m633.96 438.08h-18.284q0 2.2882.68869 3.9988.68869 1.6884 1.8883 2.777 1.1552 1.0664 2.7326 1.5995 1.5995.53318 3.5101.53318 2.5326 0 5.0874-.99971 2.577-1.0219 3.6656-1.9994h.22216v4.5542q-2.1105.88863-4.3099 1.4885-2.1994.59983-4.6209.59983-6.176 0-9.6417-3.3324-3.4657-3.3546-3.4657-9.5084 0-6.0871 3.3102-9.6639 3.3324-3.5767 8.753-3.5767 5.0208 0 7.7311 2.9325 2.7326 2.9325 2.7326 8.3309v2.266zm-4.0655-3.1991q-.0222-3.2879-1.6662-5.0874-1.6218-1.7995-4.9541-1.7995-3.3546 0-5.354 1.9772-1.9772 1.9772-2.2438 4.9097h14.218z"/><path d="m660.42 450.06h-4.1766v-2.5992q-1.7995 1.5551-3.7545 2.4215-1.955.86642-4.2432.86642-4.4432 0-7.0646-3.4212-2.5992-3.4212-2.5992-9.4862 0-3.1546.88863-5.6206.91085-2.466 2.4437-4.1988 1.5107-1.6884 3.5101-2.577 2.0216-.88863 4.1766-.88863 1.955 0 3.4657.4221 1.5107.39988 3.1769 1.2663v-10.752h4.1766v34.568zm-4.1766-6.1094v-14.24q-1.6884-.75534-3.0214-1.0442-1.333-.2888-2.9103-.2888-3.5101 0-5.4651 2.4437t-1.955 6.9313q0 4.421 1.5107 6.7314 1.5107 2.2882 4.843 2.2882 1.7773 0 3.599-.77756 1.8217-.79977 3.399-2.0438z"/><path d="m697.98 419.53h-.22216q-.68869-.19994-1.7995-.39989-1.1108-.22215-1.955-.22215-2.6881 0-3.91 1.1996-1.1996 1.1774-1.1996 4.2876v.84421h7.5312v3.5101h-7.3979v21.305h-4.1766v-21.305h-2.8214v-3.5101h2.8214v-.82199q0-4.421 2.1994-6.7758 2.1994-2.3771 6.3537-2.3771 1.3996 0 2.5104.1333 1.133.13329 2.0661.31102v3.8211z"/><path d="m721.78 437.66q0 6.0649-3.1102 9.575t-8.3309 3.5101q-5.2651 0-8.3754-3.5101-3.088-3.5101-3.088-9.575t3.088-9.575q3.1102-3.5323 8.3754-3.5323 5.2207 0 8.3309 3.5323 3.1102 3.5101 3.1102 9.575zm-4.3099 0q0-4.8208-1.8883-7.1535-1.8884-2.3549-5.2429-2.3549-3.399 0-5.2874 2.3549-1.8661 2.3327-1.8661 7.1535 0 4.6653 1.8884 7.0868 1.8883 2.3993 5.2651 2.3993 3.3324 0 5.2207-2.3771 1.9106-2.3993 1.9106-7.1091z"/><path d="m743.75 429.8h-.22216q-.93306-.22216-1.8217-.31102-.86641-.11108-2.0661-.11108-1.9328 0-3.7323.86642-1.7995.8442-3.4657 2.1994v17.617h-4.1766v-24.815h4.1766v3.6656q2.4882-1.9994 4.3765-2.8214 1.9106-.8442 3.8878-.8442 1.0886 0 1.5773.0666.48875.0444 1.4662.19995v4.2876z"/></g><g><path d="m934.3 449.95h-4.1766v-14.129q0-1.7106-.19994-3.1991-.19994-1.5107-.73312-2.3549-.5554-.93307-1.5995-1.3774-1.0442-.46654-2.7103-.46654-1.7106 0-3.5768.8442-1.8661.84421-3.5768 2.1549v18.528h-4.1766v-24.815h4.1766v2.7548q1.955-1.6218 4.0433-2.5326 2.0883-.91085 4.2877-.91085 4.0211 0 6.1316 2.4215t2.1105 6.9758v16.106z"/><path d="m963.11 437.97h-18.284q0 2.2882.68869 3.9988.6887 1.6884 1.8884 2.777 1.1552 1.0664 2.7326 1.5995 1.5995.53318 3.5101.53318 2.5326 0 5.0874-.99971 2.577-1.0219 3.6656-1.9994h.22216v4.5542q-2.1105.88863-4.3099 1.4885-2.1994.59982-4.6209.59982-6.176 0-9.6417-3.3324-3.4657-3.3546-3.4657-9.5084 0-6.0871 3.3102-9.6639 3.3324-3.5768 8.753-3.5768 5.0208 0 7.7311 2.9325 2.7325 2.9325 2.7325 8.3309v2.266zm-4.0655-3.1991q-.0222-3.2879-1.6662-5.0874-1.6218-1.7995-4.9541-1.7995-3.3546 0-5.354 1.9772-1.9772 1.9772-2.2438 4.9097h14.218z"/><path d="m987.17 442.79q0 3.399-2.8214 5.5762-2.7992 2.1772-7.6645 2.1772-2.7548 0-5.0652-.64426-2.2882-.66647-3.8433-1.444v-4.6875h.22215q1.9772 1.4885 4.3987 2.3771 2.4215.86642 4.6431.86642 2.7548 0 4.3099-.88864 1.5551-.88863 1.5551-2.7992 0-1.4662-.8442-2.2216-.8442-.75534-3.2435-1.2885-.88863-.19994-2.3327-.46653-1.4218-.26659-2.5992-.57761-3.2657-.86642-4.6431-2.5326-1.3552-1.6884-1.3552-4.1321 0-1.5329.62204-2.8881.64426-1.3552 1.9328-2.4215 1.2441-1.0442 3.1546-1.644 1.9328-.62205 4.3099-.62205 2.2216 0 4.4876.5554 2.2882.53318 3.7989 1.3107v4.4654h-.22216q-1.5995-1.1774-3.8878-1.9772-2.2882-.82199-4.4876-.82199-2.2882 0-3.8656.88863-1.5773.86642-1.5773 2.5992 0 1.5329.95528 2.3104.93307.77755 3.0214 1.2663 1.1552.26659 2.577.53318 1.444.26659 2.3993.48875 2.9103.66647 4.4876 2.2882 1.5773 1.644 1.5773 4.3543z"/><path d="m1006.1 449.72q-1.1775.31102-2.5771.51096-1.3773.19994-2.4659.19994-3.7989 0-5.7761-2.0438-1.9772-2.0439-1.9772-6.5537v-13.196h-2.8214v-3.5101h2.8214v-7.1313h4.1766v7.1313h8.6198v3.5101h-8.6198v11.308q0 1.955.0889 3.0658.0889 1.0886.62205 2.0438.48875.88864 1.333 1.3107.8664.39988 2.6215.39988 1.0219 0 2.1327-.2888 1.1108-.31103 1.5995-.51097h.2222v3.7545z"/><path d="m1031.9 437.97h-18.284q0 2.2882.6886 3.9988.6887 1.6884 1.8884 2.777 1.1552 1.0664 2.7325 1.5995 1.5996.53318 3.5101.53318 2.5326 0 5.0875-.99971 2.577-1.0219 3.6656-1.9994h.2221v4.5542q-2.1105.88863-4.3098 1.4885-2.1994.59982-4.6209.59982-6.176 0-9.6417-3.3324-3.4657-3.3546-3.4657-9.5084 0-6.0871 3.3102-9.6639 3.3324-3.5768 8.753-3.5768 5.0208 0 7.7311 2.9325 2.7326 2.9325 2.7326 8.3309v2.266zm-4.0655-3.1991q-.022-3.2879-1.6662-5.0874-1.6218-1.7995-4.9541-1.7995-3.3546 0-5.354 1.9772-1.9773 1.9772-2.2438 4.9097h14.218z"/><path d="m1058.4 449.95h-4.1766v-2.5992q-1.7994 1.5551-3.7544 2.4215-1.955.86641-4.2433.86641-4.4431 0-7.0646-3.4212-2.5992-3.4212-2.5992-9.4862 0-3.1546.8886-5.6206.9108-2.466 2.4437-4.1988 1.5107-1.6884 3.5101-2.577 2.0217-.88863 4.1766-.88863 1.955 0 3.4657.4221 1.5107.39989 3.1768 1.2663v-10.752h4.1766v34.568zm-4.1766-6.1094v-14.24q-1.6884-.75534-3.0213-1.0441-1.333-.28881-2.9103-.28881-3.5101 0-5.4651 2.4437t-1.955 6.9313q0 4.421 1.5107 6.7314 1.5107 2.2882 4.8431 2.2882 1.7772 0 3.5989-.77755 1.8217-.79977 3.399-2.0439z"/><path d="m1113.8 425.13-6.4648 24.815h-3.8656l-6.3759-19.128-6.3315 19.128h-3.8434l-6.5314-24.815h4.3543l4.5542 19.217 6.1982-19.217h3.4435l6.3537 19.217 4.3099-19.217h4.1988z"/><path d="m1140.5 449.95h-4.1766v-14.129q0-1.7106-.2-3.1991-.1999-1.5107-.7331-2.3549-.5554-.93307-1.5995-1.3774-1.0442-.46654-2.7104-.46654-1.7106 0-3.5767.8442-1.8661.84421-3.5767 2.1549v18.528h-4.1766v-34.568h4.1766v12.508q1.9549-1.6218 4.0432-2.5326 2.0883-.91085 4.2877-.91085 4.021 0 6.1316 2.4215 2.1105 2.4215 2.1105 6.9758v16.106z"/><path d="m1153.1 420.98h-4.7098v-4.3321h4.7098v4.3321zm-.2666 28.969h-4.1766v-24.815h4.1766v24.815z"/><path d="m1165.2 449.95h-4.1766v-34.568h4.1766v34.568z"/><path d="m1194.1 437.97h-18.284q0 2.2882.6887 3.9988.6887 1.6884 1.8884 2.777 1.1552 1.0664 2.7325 1.5995 1.5996.53318 3.5101.53318 2.5326 0 5.0874-.99971 2.5771-1.0219 3.6657-1.9994h.2221v4.5542q-2.1105.88863-4.3099 1.4885-2.1993.59982-4.6208.59982-6.176 0-9.6417-3.3324-3.4657-3.3546-3.4657-9.5084 0-6.0871 3.3102-9.6639 3.3324-3.5768 8.753-3.5768 5.0208 0 7.7311 2.9325 2.7326 2.9325 2.7326 8.3309v2.266zm-4.0655-3.1991q-.022-3.2879-1.6662-5.0874-1.6218-1.7995-4.9541-1.7995-3.3546 0-5.3541 1.9772-1.9772 1.9772-2.2438 4.9097h14.218z"/></g></svg>