<svg xmlns:rdf="http://www.w3.org/1999/02/22-rdf-syntax-ns#" xmlns="http://www.w3.org/2000/svg" height="99.031mm" width="163.98mm" version="1.1" xmlns:cc="http://creativecommons.org/ns#" xmlns:dc="http://purl.org/dc/elements/1.1/" viewBox="0 0 581.02315 350.89744">
 <path style="stroke:#5e6b7d;stroke-width:2;fill:none" d="m312.6 302.27s35.81-26.235 29.331-40.863"/>
 <path d="m261.67 290.06s-43.579 8.4181-43.966 24.413" style="stroke:#5e6b7d;stroke-width:2;fill:none"/>
 <path style="stroke:#5e6b7d;stroke-width:2;fill:#ffa200;fill-rule:evenodd" d="m282.36 330.66s-.34447 15.514-2.7557 16.204"/>
 <text style="letter-spacing:0px;font-weight:100;font-size:279.24px;word-spacing:0px;font-family:&apos;AR CENA&apos;;line-height:125%;fill:#5e6b7d" transform="scale(1.5146 .66022)" y="513.66968" x="144.46008" xml:space="preserve"><tspan y="513.66968" x="144.46008">-</tspan></text>
 <path style="stroke:#5e6b7d;stroke-width:2;fill-rule:evenodd" d="m271.48 347.23s1.3533-1.3003 8.7153-1.6796c0 0 .64959 2.2756-.21658 2.5465-.86612.2709-8.2823 2.1672-8.8236 1.7338-.54132-.43343-1.0285-2.0046.3248-2.6006z"/>
 <path style="stroke:#5e6b7d;stroke-width:2;fill:#ffa200;fill-rule:evenodd" d="m289.16 330.31s.34447 15.514 2.7557 16.204"/>
 <path style="stroke:#5e6b7d;stroke-width:2;fill-rule:evenodd" d="m300.05 346.88s-1.3533-1.3003-8.7153-1.6796c0 0-.64959 2.2756.21659 2.5465.86612.27091 8.2823 2.1672 8.8236 1.7338.54131-.43343 1.0285-2.0046-.32482-2.6006z"/>
 <ellipse style="stroke-linejoin:round;color-rendering:auto;color:#000000;shape-rendering:auto;solid-color:#000000;stroke:#5e6b7d;stroke-linecap:round;stroke-width:4;fill:#5e6b7d;fill-rule:evenodd;mix-blend-mode:normal;image-rendering:auto;isolation:auto" rx="10.017" ry="10.023" cy="264.37" cx="285.97"/>
 <path style="stroke:#f2f2f2;stroke-width:.5;fill:#f2f2f2;fill-rule:evenodd" d="m282.03 272.45s4.3219-3.2728 6.8882.33702c0 0-3.4037-.6128-6.8882-.33702z"/>
 <ellipse style="stroke-linejoin:bevel;color-rendering:auto;fill-rule:evenodd;color:#000000;isolation:auto;mix-blend-mode:normal;shape-rendering:auto;solid-color:#000000;stroke:#f2f2f2;stroke-linecap:square;image-rendering:auto;stroke-width:.5;fill:#f2f2f2" rx="2.5841" ry="2.7203" cy="262.17" cx="279.77"/>
 <ellipse style="stroke-linejoin:bevel;color-rendering:auto;fill-rule:evenodd;color:#000000;isolation:auto;mix-blend-mode:normal;shape-rendering:auto;solid-color:#000000;stroke:#f2f2f2;stroke-linecap:square;image-rendering:auto;stroke-width:.5;fill:#f2f2f2" rx="2.5841" ry="2.7203" cy="262.17" cx="290.79"/>
 <ellipse style="color-rendering:auto;fill-rule:evenodd;color:#000000;isolation:auto;mix-blend-mode:normal;shape-rendering:auto;solid-color:#000000;image-rendering:auto;fill:#1a1a1a" rx="1.69" ry="1.8069" cy="263.18" cx="290.79"/>
 <ellipse style="color-rendering:auto;fill-rule:evenodd;color:#000000;isolation:auto;mix-blend-mode:normal;shape-rendering:auto;solid-color:#000000;image-rendering:auto;fill:#1a1a1a" rx="1.69" ry="1.8069" cy="262.75" cx="279.76"/>
 <path style="stroke:#000;stroke-width:0.3;fill:none" d="m276.44 258.59s2.6315-1.0668 5.921-.67522"/>
 <path style="stroke:#000;stroke-width:0.3;fill:none" d="m292.88 258.4s-2.4145-1.2085-4.9047-.67519"/>
 <path style="color-rendering:auto;fill-rule:evenodd;color:#000000;isolation:auto;mix-blend-mode:normal;shape-rendering:auto;solid-color:#000000;image-rendering:auto;fill:#5e6b7d" d="m296.21 220.93h93.472v23.546h-88.803l-18.006 16.825 13.337-19.162z"/>
 <text style="letter-spacing:0px;font-weight:100;font-size:22.218px;word-spacing:0px;font-family:&apos;AR CENA&apos;;line-height:125%;fill:#ffffff" y="239.58159" x="303.87088" xml:space="preserve"><tspan y="239.58159" x="303.87088">ahhhhhhh!</tspan></text>
 <g transform="translate(-8.9989 1.2149)">
  <path style="stroke:#f92d2d;stroke-width:2;fill:#ffa200;fill-rule:evenodd" d="m163.1 96.651s-.35862 16.143-2.8689 16.861"/>
  <path style="stroke:#f92d2d;stroke-width:2;fill-rule:evenodd" d="m151.76 113.89s1.4089-1.353 9.0735-1.7477c0 0 .67629 2.3678-.22548 2.6497-.90172.28188-8.6227 2.255-9.1862 1.804-.56356-.451-1.0708-2.0859.33816-2.706z"/>
  <path style="stroke:#f92d2d;stroke-width:2;fill:#ffa200;fill-rule:evenodd" d="m172.96 96.291s.35863 16.143 2.8689 16.861"/>
  <path style="stroke:#f92d2d;stroke-width:2;fill-rule:evenodd" d="m184.29 113.53s-1.4089-1.353-9.0735-1.7477c0 0-.67628 2.3678.22549 2.6497.90172.28189 8.6227 2.255 9.1862 1.804.56355-.451 1.0708-2.0859-.33816-2.706z"/>
  <path style="stroke:#f92d2d;stroke-width:2;fill:none" d="m188.03 42.081s-32.627 6.2992-32.917 18.268"/>
  <path style="stroke:#000;stroke-width:2;fill:none" d="m155.4 60.371 3.2724 3.2333"/>
  <path style="stroke:#000;stroke-width:2;fill:none" d="m155.52 59.631-.76351 5.293"/>
  <text style="letter-spacing:0px;font-weight:100;font-size:147.98px;word-spacing:0px;font-family:&apos;AR CENA&apos;;line-height:125%;fill:#f92d2d" y="104.87045" x="151.26166" xml:space="preserve"><tspan y="104.87045" x="151.26166">?</tspan></text>
  <path style="stroke:#f92d2d;stroke-width:2;fill:none" d="m189.74 37.761s18.609 27.53 10.348 36.196"/>
  <path style="stroke:#000;stroke-width:2;fill:none" d="m200.32 74.021-5.375-.25008"/>
  <path style="stroke:#000;stroke-width:2;fill:none" d="m200.72 73.361-3.4426 4.9615"/>
  <path style="stroke:#000;stroke-width:2;fill:none" d="m200.54 74.041 2.0043 4.9806"/>
  <path style="stroke:#f2f2f2;stroke-width:.5;fill:#f2f2f2;fill-rule:evenodd" d="m199.7 29.771s8.0347-4.658 13.626 1.6451c0 0-6.4825-2.3158-13.626-1.6451z"/>
  <ellipse style="stroke-linejoin:bevel;color-rendering:auto;fill-rule:evenodd;color:#000000;isolation:auto;mix-blend-mode:normal;shape-rendering:auto;solid-color:#000000;stroke:#f2f2f2;stroke-linecap:square;image-rendering:auto;stroke-width:.5;fill:#f2f2f2" rx="2.6904" ry="2.8306" cy="15.851" cx="200.96"/>
  <ellipse style="stroke-linejoin:bevel;color-rendering:auto;fill-rule:evenodd;color:#000000;isolation:auto;mix-blend-mode:normal;shape-rendering:auto;solid-color:#000000;stroke:#f2f2f2;stroke-linecap:square;image-rendering:auto;stroke-width:.5;fill:#f2f2f2" rx="2.6904" ry="2.8306" cy="15.851" cx="212.43"/>
  <ellipse style="color-rendering:auto;fill-rule:evenodd;color:#000000;isolation:auto;mix-blend-mode:normal;shape-rendering:auto;solid-color:#000000;image-rendering:auto;fill:#1a1a1a" rx="1.1415" ry="1.2199" cy="16.891" cx="212.43"/>
  <ellipse style="color-rendering:auto;fill-rule:evenodd;color:#000000;isolation:auto;mix-blend-mode:normal;shape-rendering:auto;solid-color:#000000;image-rendering:auto;fill:#1a1a1a" rx="1.1415" ry="1.2199" cy="16.441" cx="201.1"/>
  <path style="stroke:#000;stroke-width:0.3;fill:none" d="m197.49 12.121s2.7397-1.1101 6.1644-.7026"/>
  <path style="stroke:#000;stroke-width:0.3;fill:none" d="m214.61 11.931s-2.5137-1.2575-5.1062-.70257"/>
  <path style="stroke:#000;stroke-width:2;fill:none" d="m155.26 60.251-3.9693 1.7712"/>
 </g>
 <text style="letter-spacing:0px;font-weight:100;font-size:108px;word-spacing:0px;font-family:&apos;AR CENA&apos;;line-height:125%;fill:#333333" y="87.734825" x="387.90768" xml:space="preserve"><tspan y="87.734825" x="387.90768">=</tspan></text>
 <path style="stroke:#000;stroke-width:2;fill:none" d="m218.09 314.5 4.3708 4.3209"/>
 <path style="stroke:#000;stroke-width:2;fill:none" d="m218.25 313.51-1.0198 7.0735"/>
 <path style="stroke:#000;stroke-width:2;fill:none" d="m342.25 263.43-6.8705-2.1103"/>
 <path style="stroke:#000;stroke-width:2;fill:none" d="m342.46 264.44-2.091-7.7943"/>
 <path style="stroke:#000;stroke-width:2;fill:none" d="m342.54 263.51 4.7657-5.361"/>
 <path style="stroke:#000;stroke-width:2;fill:none" d="m217.9 314.34-5.3016 2.367"/>
 <path d="m218.09 314.5 4.3708 4.3209" style="stroke:#000;stroke-width:2;fill:none"/>
 <path d="m218.25 313.51-1.0198 7.0735" style="stroke:#000;stroke-width:2;fill:none"/>
 <path d="m342.25 263.43-6.8705-2.1103" style="stroke:#000;stroke-width:2;fill:none"/>
 <path d="m342.46 264.44-2.091-7.7943" style="stroke:#000;stroke-width:2;fill:none"/>
 <path d="m342.54 263.51 4.7657-5.361" style="stroke:#000;stroke-width:2;fill:none"/>
 <path d="m217.9 314.34-5.3016 2.367" style="stroke:#000;stroke-width:2;fill:none"/>
 <text style="letter-spacing:0px;font-size:17.5px;word-spacing:0px;font-family:sans-serif;line-height:125%;fill:#000000" xml:space="preserve" y="321.53101" x="140.77245"><tspan x="140.77245" y="321.53101"/></text>
 <ellipse style="stroke-linejoin:round;color-rendering:auto;color:#000000;shape-rendering:auto;solid-color:#000000;stroke:#5e6b7d;stroke-linecap:round;stroke-width:4;fill:#5e6b7d;fill-rule:evenodd;mix-blend-mode:normal;image-rendering:auto;isolation:auto" rx="10.017" ry="10.023" cy="320.5" cx="285.97"/>
 <g transform="matrix(2.3644 0 0 2.3655 -838.42 -1281.3)">
  <path d="m367.35 563.12s-11.895-4.2862-11.301-8.8015" style="fill-opacity:0;stroke:#ff0029;stroke-width:.42284px"/>
  <path style="fill-opacity:0;stroke:#ff0029;stroke-width:.42284px" d="m377.53 562.87s12.643-.18869 13.681 4.2457"/>
  <text style="font-size:60px;font-weight:100;letter-spacing:0px;line-height:125%;word-spacing:0px;font-family:&apos;AR CENA&apos;;fill:#e6193a" xml:space="preserve" y="581.19354" x="361.12311"><tspan x="361.12311" y="581.19354">8</tspan></text>
  <text style="font-size:60px;font-weight:100;letter-spacing:0px;line-height:125%;word-spacing:0px;font-family:&apos;AR CENA&apos;;fill:#ff0029" y="581.19354" x="359.12311" xml:space="preserve"><tspan y="581.19354" x="359.12311">8</tspan></text>
  <path style="stroke:#000;stroke-width:.42284px;fill:none" d="m391.1 567.14-.96769 1.4582"/>
  <ellipse style="stroke-linejoin:bevel;color-rendering:auto;color:#000000;shape-rendering:auto;solid-color:#000000;stroke:#f2f2f2;stroke-linecap:square;stroke-width:.21142;fill:#f2f2f2;fill-rule:evenodd;mix-blend-mode:normal;image-rendering:auto;isolation:auto" rx=".81325" ry=".85536" cy="547.84" cx="383.36"/>
  <ellipse style="stroke-linejoin:bevel;color-rendering:auto;color:#000000;shape-rendering:auto;solid-color:#000000;stroke:#f2f2f2;stroke-linecap:square;stroke-width:.21142;fill:#f2f2f2;fill-rule:evenodd;mix-blend-mode:normal;image-rendering:auto;isolation:auto" rx=".81325" ry=".85536" cy="547.78" cx="388.11"/>
  <ellipse style="color-rendering:auto;color:#000000;isolation:auto;mix-blend-mode:normal;fill-rule:evenodd;shape-rendering:auto;solid-color:#000000;image-rendering:auto;fill:#1a1a1a" rx=".34506" ry=".36863" cy="547.9" cx="388.08"/>
  <ellipse style="color-rendering:auto;color:#000000;isolation:auto;mix-blend-mode:normal;fill-rule:evenodd;shape-rendering:auto;solid-color:#000000;image-rendering:auto;fill:#1a1a1a" rx=".34506" ry=".36863" cy="547.92" cx="383.33"/>
  <path style="stroke:#000;stroke-width:.12685;fill:none" d="m386.99 546.52s1.1428-1.9232 2.4401-.49459"/>
  <path d="m384.92 546.7s-1.1428-1.7236-2.4401-.44327" style="stroke:#000;stroke-width:.12685;fill:none"/>
  <path style="fill-rule:evenodd;stroke:#f2f2f2;stroke-width:.21142;fill:#f2f2f2" d="m382.84 552.95s3.7449.58134 4.5965-.88273c0 0-2.3093 1.167-4.5965.88273z"/>
  <path d="m391 566.88.69567 1.9116" style="stroke:#000;stroke-width:.42284px;fill:none"/>
  <path d="m356.16 554.32 1.4201-1.0227" style="stroke:#000;stroke-width:.42284px;fill:none"/>
  <path style="stroke:#000;stroke-width:.42284px;fill:none" d="m391.14 567.09 1.6161.35121"/>
  <path style="stroke:#000;stroke-width:.42284px;fill:none" d="m356.16 554.61.0239-2.0342"/>
  <path d="m356.1 554.36-1.3881-.89907" style="stroke:#000;stroke-width:.42284px;fill:none"/>
  <path style="fill-rule:evenodd;stroke:#ff3e00;stroke-width:.42284px;fill:#ffa200" d="m369.51 580.04s-.13646 9.3979-1.0916 9.8156"/>
  <path style="fill-rule:evenodd;stroke:#ff3e00;stroke-width:.42284px" d="m365.2 590.08s.5361-.78767 3.4525-1.0174c0 0 .25733 1.3784-.0858 1.5425-.34311.1641-3.281 1.3128-3.4954 1.0502-.21444-.26255-.40743-1.2143.12867-1.5754z"/>
  <path d="m376.84 580.01s.13646 9.3979 1.0916 9.8155" style="fill-rule:evenodd;stroke:#ff3e00;stroke-width:.42284px;fill:#ffa200"/>
  <path d="m381.15 590.05s-.5361-.78767-3.4525-1.0174c0 0-.25733 1.3784.0858 1.5425.34311.16409 3.281 1.3128 3.4954 1.0502.21444-.26255.40743-1.2143-.12867-1.5754z" style="fill-rule:evenodd;stroke:#ff3e00;stroke-width:.42284px"/>
 </g>
 <g transform="matrix(2.3644 0 0 2.3655 -384.56 -1101.1)">
  <path style="fill-rule:evenodd;stroke:#ffa200;stroke-width:.42284px;fill:#ffa200" d="m279.07 507.9s-.13646 6.1406-1.0916 6.4135"/>
  <path style="fill-rule:evenodd;stroke:#ffa200;stroke-width:.42284px" d="m274.76 514.46s.5361-.51466 3.4525-.66478c0 0 .25733.90067-.0858 1.0079-.34311.10722-3.281.85776-3.4954.68622-.21444-.17155-.40743-.79344.12867-1.0293z"/>
  <path d="m285.87 507.76s.13646 6.1406 1.0916 6.4135" style="fill-rule:evenodd;stroke:#ffa200;stroke-width:.42284px;fill:#ffa200"/>
  <path d="m290.18 514.32s-.5361-.51466-3.4525-.66478c0 0-.25733.90067.0858 1.0079.34311.10722 3.281.85776 3.4954.68622.21444-.17155.40743-.79344-.12867-1.0293z" style="fill-rule:evenodd;stroke:#ffa200;stroke-width:.42284px"/>
  <path d="m291.25 493.55s12.643.18869 13.681-4.2457" style="stroke:#f70;stroke-width:.42284px;fill:none"/>
  <path d="m305.01 489.37-1.1996-1.6587" style="stroke:#000;stroke-width:.42284px;fill:none"/>
  <path style="stroke:#000;stroke-width:.42284px;fill:none" d="m304.88 489.63.86236-2.1292"/>
  <path d="m305.06 489.43 2.0034-.39951" style="stroke:#000;stroke-width:.42284px;fill:none"/>
  <path style="stroke:#f70;stroke-width:.42284px;fill:none" d="m287.02 493.55s-12.643.18869-13.681-4.2457"/>
  <text style="font-size:60px;font-weight:100;letter-spacing:0px;line-height:125%;word-spacing:0px;font-family:&apos;AR CENA&apos;;fill:#f5933e" xml:space="preserve" y="510.13275" x="274.09631"><tspan x="274.09631" y="510.13275">2</tspan></text>
  <text style="font-size:60px;font-weight:100;letter-spacing:0px;line-height:125%;word-spacing:0px;font-family:&apos;AR CENA&apos;;fill:#ff7700" y="510.13275" x="272.36267" xml:space="preserve"><tspan y="510.13275" x="272.36267">2</tspan></text>
  <path style="stroke:#000;stroke-width:.42284px;fill:none" d="m273.44 489.28.96769-1.4582"/>
  <path d="m273.54 489.55-.69567-1.9116" style="stroke:#000;stroke-width:.42284px;fill:none"/>
  <path style="stroke:#000;stroke-width:.42284px;fill:none" d="m273.4 489.34-1.6161-.35121"/>
  <path d="m294.22 483.65s3.0082.7838 4.0298-1.3437c0 0-1.1127 1.3236-4.0298 1.3437z" style="fill-rule:evenodd;stroke:#f2f2f2;stroke-width:.21142;fill:#f2f2f2"/>
  <ellipse style="stroke-linejoin:bevel;color-rendering:auto;color:#000000;shape-rendering:auto;solid-color:#000000;stroke:#f2f2f2;stroke-linecap:square;stroke-width:.21142;fill:#f2f2f2;fill-rule:evenodd;mix-blend-mode:normal;image-rendering:auto;isolation:auto" rx=".81325" ry=".85536" cy="477.44" cx="294.64"/>
  <ellipse style="stroke-linejoin:bevel;color-rendering:auto;color:#000000;shape-rendering:auto;solid-color:#000000;stroke:#f2f2f2;stroke-linecap:square;stroke-width:.21142;fill:#f2f2f2;fill-rule:evenodd;mix-blend-mode:normal;image-rendering:auto;isolation:auto" rx=".81325" ry=".85536" cy="477.44" cx="298.11"/>
  <ellipse style="color-rendering:auto;color:#000000;isolation:auto;mix-blend-mode:normal;fill-rule:evenodd;shape-rendering:auto;solid-color:#000000;image-rendering:auto;fill:#1a1a1a" rx=".34506" ry=".36863" cy="476.75" cx="298.11"/>
  <ellipse style="color-rendering:auto;color:#000000;isolation:auto;mix-blend-mode:normal;fill-rule:evenodd;shape-rendering:auto;solid-color:#000000;image-rendering:auto;fill:#1a1a1a" rx=".34506" ry=".36863" cy="478.11" cx="294.66"/>
  <path style="stroke:#000;stroke-width:.12685;fill:none" d="m293.6 476.31s.87273-.82555 1.8634-.21231"/>
  <path d="m299.09 475.58s-.87273-.82555-1.8634-.21231" style="stroke:#000;stroke-width:.12685;fill:none"/>
 </g>
 <g transform="matrix(2.3644 0 0 2.3655 -405.75 -1101.1)">
  <text style="font-size:60px;font-weight:100;letter-spacing:0px;line-height:125%;word-spacing:0px;font-family:&apos;AR CENA&apos;;fill:#a6d41d" xml:space="preserve" y="504.95038" x="382.79102"><tspan x="382.79102" y="504.95038">4</tspan></text>
  <path d="m405.7 480.93s18.003-1.9597 5.381-10.379" style="stroke:#b4e913;stroke-width:.42284px;fill:none"/>
  <text style="font-size:60px;font-weight:100;letter-spacing:0px;line-height:125%;word-spacing:0px;font-family:&apos;AR CENA&apos;;fill:#b4e913" y="504.95038" x="380.79102" xml:space="preserve"><tspan y="504.95038" x="380.79102">4</tspan></text>
  <path d="m411.15 470.28.57753-2.2056" style="stroke:#000;stroke-width:.42284px;fill:none"/>
  <path d="m402.96 477s2.9081 1.5844 4.2299-.0761c0 0-1.3796.58971-4.2299.0761z" style="fill-rule:evenodd;stroke:#f2f2f2;stroke-width:.21142;fill:#f2f2f2"/>
  <ellipse style="stroke-linejoin:bevel;color-rendering:auto;color:#000000;shape-rendering:auto;solid-color:#000000;stroke:#f2f2f2;stroke-linecap:square;stroke-width:.21142;fill:#f2f2f2;fill-rule:evenodd;mix-blend-mode:normal;image-rendering:auto;isolation:auto" rx=".81325" ry=".85536" cy="472.39" cx="403.06"/>
  <path style="stroke:#000;stroke-width:.42284px;fill:none" d="m411.28 470.23-1.44-1.64"/>
  <ellipse style="stroke-linejoin:bevel;color-rendering:auto;color:#000000;shape-rendering:auto;solid-color:#000000;stroke:#f2f2f2;stroke-linecap:square;stroke-width:.21142;fill:#f2f2f2;fill-rule:evenodd;mix-blend-mode:normal;image-rendering:auto;isolation:auto" rx=".81325" ry=".85536" cy="472.39" cx="406.53"/>
  <path d="m411.13 470.36-2.0219.32761" style="stroke:#000;stroke-width:.42284px;fill:none"/>
  <ellipse style="color-rendering:auto;color:#000000;isolation:auto;mix-blend-mode:normal;fill-rule:evenodd;shape-rendering:auto;solid-color:#000000;image-rendering:auto;fill:#1a1a1a" rx=".34506" ry=".36863" cy="472.6" cx="407.1"/>
  <ellipse style="color-rendering:auto;color:#000000;isolation:auto;mix-blend-mode:normal;fill-rule:evenodd;shape-rendering:auto;solid-color:#000000;image-rendering:auto;fill:#1a1a1a" rx=".34506" ry=".36863" cy="472.73" cx="403.55"/>
  <path style="stroke:#000;stroke-width:.12685;fill:none" d="m404.44 470.47s-1.1428.82555-2.4401.21231"/>
  <path d="m406.18 469.92s1.1428.82555 2.4401.21231" style="stroke:#000;stroke-width:.12685;fill:none"/>
  <path style="fill-rule:evenodd;stroke:#b4e913;stroke-width:.42284px;fill:#ffa200" d="m400.97 503.86s-.13646 9.3979-1.0916 9.8156"/>
  <path style="fill-rule:evenodd;stroke:#b4e913;stroke-width:.42284px" d="m396.65 513.9s.5361-.78767 3.4525-1.0174c0 0 .25733 1.3784-.0858 1.5425-.34311.1641-3.281 1.3128-3.4954 1.0502-.21444-.26255-.40743-1.2143.12867-1.5754z"/>
  <path d="m404.29 503.83s.13646 9.3979 1.0916 9.8155" style="fill-rule:evenodd;stroke:#b4e913;stroke-width:.42284px;fill:#ffa200"/>
  <path d="m408.61 513.87s-.5361-.78767-3.4525-1.0174c0 0-.25733 1.3784.0858 1.5425.34311.16409 3.281 1.3128 3.4954 1.0502.21444-.26255.40743-1.2143-.12867-1.5754z" style="fill-rule:evenodd;stroke:#b4e913;stroke-width:.42284px"/>
  <path style="stroke:#b4e913;stroke-width:.42284px;fill:none" d="m391.15 479.7s-23.465 1.2356-7.0136 6.5438"/>
  <path d="m384.09 486.4-.57753 1.9638" style="stroke:#000;stroke-width:.42284px;fill:none"/>
  <path style="stroke:#000;stroke-width:.42284px;fill:none" d="m383.73 486.25 1.6753 1.646"/>
  <path d="m384.12 486.32 2.0219-.2917" style="stroke:#000;stroke-width:.42284px;fill:none"/>
 </g>
</svg>
