<svg style="" xmlns="http://www.w3.org/2000/svg" height="861.02mm" width="344.37mm" viewBox="0 0 1220.2237 3050.8519"><style>.gp path{stroke:#ff6c00;marker-end:url(#n);fill:none}svg{font-family:sans-serif;}.fa{font-size:45px;;fill:#ff6c00}.fb{font-size:17.419px;fill:#686868}.fd{stroke:#ff6c00;stroke-width:2;fill:none}.fe{opacity:.97;stroke:#ff6c00;fill:none}.fg{font-size:22.5px;fill:#4a97bd}.fo{fill:#ff6c00}.fs{stroke:#ff6c00}.fsf{stroke:#fff;fill:#fff}.fnt{font-size:11.89px;fill:#4a97bd}.ftn{font-size:22.5px;fill:#c72222}.fnn{font-size:11.89px;fill:#4a97bd}</style><defs><marker id="n" style="overflow:visible" orient="auto"><path style="stroke:#4a97bd;stroke-width:1pt;fill:#4a97bd" transform="matrix(-.8 0 0 -.8 -10 0)" d="m0 0 5-5-17.5 5 17.5 5-5-5z"/></marker></defs><rect class="fd" rx="16.162" ry="16.162" height="301.96" width="220.14" y="8.6359" x="178.08"/><path class="fsf" d="m316.14.49767 64.23 6.2271c21.34 2.0686 23.79 21.241 23.79 21.241l2.2132 48.625"/><path style="stroke:#ff6c00;stroke-width:2;fill:#ff6c00" d="m398.87 70.319h-53.203c-20.464 0-20.551-1.6136-20.478-20.472l.16-41.802"/><text y="109.91705" x="190.90791" style="font-size:17.419px;" transform="scale(1.0002 .99984)"><tspan y="109.91705" x="190.90791" class="fb">#include&lt;stdio.h&gt;</tspan><tspan y="144.75496" x="190.90791" class="fb">int main()</tspan><tspan y="179.59291" x="190.90791" style="font-size:17.419px;fill:#fb5353">{</tspan><tspan y="214.43083" x="190.90791" class="fb">printf(<tspan style="opacity:.98;font-size:17.419px;fill:#686868">&quot;</tspan>super power&quot;);  </tspan><tspan y="249.26878" x="190.90791" class="fb">return 0;</tspan><tspan y="284.10672" x="190.90791" style="font-size:17.419px;fill:#40b76b">}</tspan></text><text y="170.47916" x="496.48193" class="fa"><tspan y="170.47916" x="496.48193" class="fa">.C Files</tspan></text><path class="fd" d="m425.2 446.56-265.94 127.88v335.68l265.94-111.89v-351.67z"/><g class="fs" transform="translate(-247.77 379.53)"><path class="fe" d="m530.02 226.84v14.926a57.946 57.877 0 0 0 -23.283 9.6989l-10.614-10.601-14.106 14.089 10.584 10.572a57.946 57.877 0 0 0 -9.629 23.284h-14.996v19.927h14.946a57.946 57.877 0 0 0 9.7083 23.255l-10.614 10.601 14.109 14.089 10.584-10.572a57.946 57.877 0 0 0 23.31 9.6175v14.978h19.951v-14.926a57.946 57.877 0 0 0 23.285 -9.6966l10.611 10.599 14.109-14.089-10.584-10.572a57.946 57.877 0 0 0 9.629 -23.284h14.996v-19.927h-14.946a57.946 57.877 0 0 0 -9.7082 -23.255l10.614-10.601-14.109-14.089-10.584 10.572a57.946 57.877 0 0 0 -23.312 -9.6198v-14.976h-19.951z"/><g class="fs" transform="matrix(1.6004 0 0 1.5985 -356.54 -178.81)"><path class="fe" d="m577.48 310.22a18.859 18.753 0 0 1 -16.954 11.781 18.859 18.753 0 0 1 -17.623 -10.765"/><g class="fs" transform="translate(2.0473)"><path class="fe" d="m547.65 292.73a3.5 3.5 0 0 1 -3.4987 3.5 3.5 3.5 0 0 1 -3.5013 -3.4974 3.5 3.5 0 0 1 3.4962 -3.5026 3.5 3.5 0 0 1 3.5038 3.4949"/><path class="fe" d="m575.65 292.73a3.5 3.5 0 0 1 -3.4987 3.5 3.5 3.5 0 0 1 -3.5013 -3.4974 3.5 3.5 0 0 1 3.4962 -3.5026 3.5 3.5 0 0 1 3.5038 3.4949"/></g></g></g><text y="682.19012" x="516.8385" class="fa"><tspan y="682.19012" x="516.8385" class="fa">Compiler</tspan></text><rect class="fe" rx="16.162" ry="16.162" height="207.67" width="151.32" y="1154.1" x="215.11"/><path class="fsf" d="m308.75 1148.3 41.893 4.5067c14.056 1.512 15.695 13.791 15.695 13.791l1.4597 32.034"/><path class="fo" d="m366.87 1196.6h-36.57c-14.067 0-14.126-1.1097-14.076-14.08l.10998-28.749"/><text y="1222.5734" x="232.78238" class="fg" transform="scale(.99989 1.0001)"><tspan y="1222.5734" x="232.78238" class="fg">00010101</tspan><tspan y="1249.5734" x="232.78238" style="font-size:22.5px;fill:#c72222">Lib. Refer</tspan><tspan y="1276.5734" x="232.78238" class="fg">00000011</tspan><tspan y="1303.5734" x="232.78238" style="font-size:22.5px;fill:#c72222">Lib. Refer</tspan><tspan y="1330.5734" x="232.78238" class="fg">01101110</tspan></text><path class="fd" d="m422.53 1046.3-264.61 115.43v302.99l264.61-101v-317.42z"/><text y="1253.1394" x="535.50909" class="fa"><tspan y="1253.1394" x="535.50909" class="fa">.obj Files</tspan></text><text y="1732.5588" x="949.01526" class="fa"><tspan y="1732.5588" x="949.01526" class="fa">Library Files</tspan></text><path style="opacity:.96;stroke:#ff6c00;stroke-width:1px;fill:none" d="m939.81 1540.2-264.61 115.43v302.99l264.61-101v-317.42z"/><rect class="fe" rx="16.162" ry="16.162" height="100.27" width="87.524" y="1643.3" x="808.09"/><path class="fsf" d="m863.41 1640.9 24.045 2.1563c8.0673.7234 9.0084 6.5984 9.0084 6.5984l.83781 15.327"/><path class="fo" d="m895.87 1663.8h-21.152c-8.1362 0-8.1705-.5358-8.1418-6.7978l.0636-13.881"/><text y="1834.6388" x="748.77472" class="fnt" transform="scale(1.0944 .91375)"><tspan y="1834.6388" x="748.77472" class="fnn">00010101</tspan><tspan y="1848.907" x="748.77472" style="font-size:11.89px;fill:#c72222">01010100</tspan><tspan y="1863.1752" x="748.77472" class="fnn">00000011</tspan><tspan y="1877.4434" x="748.77472" class="fnn">11111100</tspan><tspan y="1891.7115" x="748.77472" class="fnn">01101110</tspan></text><text y="1834.1527" x="661.86224" class="fnt" transform="scale(1.0944 .91375)"><tspan y="1834.1527" x="661.86224" class="fnn">00010101</tspan><tspan y="1848.4209" x="661.86224" class="fnn">01010100</tspan><tspan y="1862.6891" x="661.86224" class="fnn">00000011</tspan><tspan y="1876.9573" x="661.86224" style="font-size:11.89px;fill:#c72222">11111100</tspan><tspan y="1891.2255" x="661.86224" class="fnn">01101110</tspan></text><text y="1959.2188" x="661.86224" class="fnt" transform="scale(1.0944 .91375)"><tspan y="1959.2188" x="661.86224" class="fnn">00010101</tspan><tspan y="1973.4869" x="661.86224" class="fnn">01010100</tspan><tspan y="1987.7551" x="661.86224" class="fnn">00000011</tspan><tspan y="2002.0233" x="661.86224" class="fnn">11111100</tspan><tspan y="2016.2915" x="661.86224" class="fnn">01101110</tspan></text><text y="1959.2188" x="754.80383" class="fnt" transform="scale(1.0944 .91375)"><tspan y="1959.2188" x="754.80383" class="fnn">00010101</tspan><tspan y="1973.4869" x="754.80383" class="fnn">01010100</tspan><tspan y="1987.7551" x="754.80383" class="fnn">00000011</tspan><tspan y="2002.0233" x="754.80383" class="fnn">11111100</tspan><tspan y="2016.2915" x="754.80383" class="fnn">01101110</tspan></text><rect class="fe" rx="16.162" ry="16.162" height="100.86" width="87.468" y="1641.9" x="712.9"/><path style="fill:#fff" d="m768.19 1639.4 24.029 2.169c8.0621.7278 9.0026 6.6377 9.0026 6.6377l.83727 15.418"/><path class="fo" d="m800.63 1662.5h-21.139c-8.131 0-8.1652-.539-8.1366-6.8383l.0636-13.963"/><rect class="fe" rx="16.162" ry="16.162" height="100.86" width="87.468" y="1758.5" x="712.9"/><path style="fill:#fff" d="m768.19 1756.1 24.029 2.169c8.0621.7278 9.0026 6.6377 9.0026 6.6377l.83727 15.418"/><path class="fo" d="m800.63 1779.1h-21.139c-8.131 0-8.1652-.539-8.1366-6.8383l.0636-13.963"/><rect class="fe" rx="16.162" ry="16.162" height="100.86" width="87.468" y="1758.5" x="812.95"/><path style="fill:#fff" d="m868.24 1756.1 24.029 2.169c8.0621.7278 9.0026 6.6377 9.0026 6.6377l.83727 15.418"/><path class="fo" d="m900.68 1779.1h-21.139c-8.131 0-8.1652-.539-8.1366-6.8383l.0636-13.963"/><path style="opacity:.96;stroke:#ff6c00;stroke-width:2;fill:none" d="m424.53 2155.5-264.61 115.43v302.99l264.61-101v-317.42z"/><rect class="fe" rx="16.162" ry="16.162" height="207.67" width="151.32" y="2263.3" x="215.11"/><path class="fsf" d="m310.75 2258.3 41.571 4.466c13.948 1.4984 15.575 13.667 15.575 13.667l1.4485 31.744"/><path class="fo" d="m366.87 2305.7h-36.57c-14.067 0-14.126-1.1097-14.076-14.08l.10998-28.749"/><text y="2331.5979" x="234.78261" class="fg" transform="scale(.99989 1.0001)"><tspan y="2331.5979" x="234.78261" class="fg">00010101</tspan><tspan y="2358.5979" x="234.78261" style="font-size:22.5px;fill:#c72222">01010100</tspan><tspan y="2385.5979" x="234.78261" class="fg">00000011</tspan><tspan y="2412.5979" x="234.78261" style="font-size:22.5px;fill:#c72222">11111100</tspan><tspan y="2439.5979" x="234.78261" class="fg">01101110</tspan></text><path class="fd" d="m424.53 1600.9-264.61 115.43v302.99l264.61-101v-317.42z"/><path style="opacity:.96;fill:#ff6c00" d="m337.42 1748.5c-1.7297-1.7098-4.5004-1.6943-6.2126.035l-35.836 36.19 6.2458 6.1742 28.224-28.503c1.7123-1.7292 4.483-1.7447 6.2127-.035l17.602 17.4c1.7297 1.7098 1.7438 4.4782.0315 6.2074l-46.003 46.458c-1.7122 1.7292-4.4829 1.7446-6.2126.035l-4.7682-4.7135-7.612 7.6873 11.014 10.887c1.7297 1.7098 4.5009 1.6949 6.2132-.034l61.227-61.832c1.7122-1.7292 1.6976-4.4981-.0321-6.2079l-30.093-29.748zm-48.328 86.935-6.2458-6.1742-28.224 28.503c-1.7122 1.7292-4.4829 1.7447-6.2126.035l-17.602-17.4c-1.7297-1.7098-1.7438-4.4782-.0316-6.2073l46.003-46.458c1.7122-1.7291 4.483-1.7446 6.2126-.035l4.7682 4.7135 7.612-7.6873-11.014-10.888c-1.7297-1.7098-4.5004-1.6943-6.2126.035l-61.227 61.832c-1.7122 1.7292-1.6981 4.4975.0316 6.2074l30.093 29.748c1.7297 1.7099 4.5009 1.6949 6.2132-.034l35.836-36.19zm-1.3319-43.023-17.779 17.955c-1.7122 1.7292-1.6981 4.4975.0316 6.2074l12.834 12.686 7.612-7.6873-6.5878-6.5122c-1.7297-1.7098-1.7438-4.4782-.0316-6.2074l10.167-10.268-6.2458-6.1742zm6.2458 6.1742 6.5878 6.5122c1.7297 1.7099 1.7438 4.4782.0315 6.2074l-10.167 10.268 6.2458 6.1742 17.779-17.955c1.7122-1.7292 1.6976-4.4981-.0321-6.2079l-12.833-12.686-7.612 7.6873z"/><text y="1863.5289" x="-4.3945313" class="fa"><tspan y="1863.5289" x="-4.3945313" class="fa">Linker</tspan></text><g class="gp"><path d="m276.45 312.75v200"/><path d="m276.45 865.61v242.86"/><path d="m276.45 1419.6v238.57"/><path style="stroke:#4a97bd;marker-end:url(#n);fill:none" d="m424.41 1775.3h250.61"/><path d="m675.02 1775.3h-250.61"/><path d="m276.45 2530.8v200"/></g><rect ry="0" class="fd" rx="0" transform="rotate(-45)" height="197.14" width="206.95" y="2138.1" x="-1953.6"/><rect ry="0" class="fd" rx="0" transform="rotate(-45)" height="168.56" width="176.95" y="2152.4" x="-1938.6"/><path class="fd" d="m145.34 2915.8-28.284 28.284"/><path class="fd" d="m180.69 2951.1-28.284 28.284"/><path class="fd" d="m187.77 3014.8 28.284-28.284"/><path class="fd" d="m251.4 3021.9-28.284 28.284"/><path class="fd" d="m327.77 2733.4-28.284 28.284"/><path class="fd" d="m363.13 2768.7-28.284 28.284"/><path class="fd" d="m370.2 2832.4 28.284-28.284"/><path class="fd" d="m433.84 2839.4-28.284 28.284"/><path class="fd" d="m299.49 3021.9 28.284 28.284"/><path class="fd" d="m334.84 2986.5 28.284 28.284"/><path class="fd" d="m398.48 2979.4-28.284-28.284"/><path class="fd" d="m405.55 2915.8 28.284 28.284"/><path class="fd" d="m117.05 2839.4 28.284 28.284"/><path class="fd" d="m152.41 2804.1 28.284 28.284"/><path class="fd" d="m216.05 2797-28.284-28.284"/><path class="fd" d="m223.12 2733.4 28.284 28.284"/><text y="2889.7668" x="492.46051" class="fa"><tspan y="2889.7668" x="492.46051" class="fa">Micro Processor</tspan></text><text y="2341.3313" x="456.43939" class="fa"><tspan y="2341.3313" x="456.43939" class="fa">.exe Files</tspan></text><path style="stroke:#ff6c00;marker-end:url(#i);fill:none" d="m276.45 1975.6v238.57"/></svg>