<svg xmlns:rdf="http://www.w3.org/1999/02/22-rdf-syntax-ns#" xmlns="http://www.w3.org/2000/svg" height="213.58mm" width="554.32mm" version="1.1" xmlns:cc="http://creativecommons.org/ns#" xmlns:xlink="http://www.w3.org/1999/xlink" viewBox="0 0 1964.1253 756.78749" xmlns:dc="http://purl.org/dc/elements/1.1/">
 <g id="c" transform="matrix(6.0917 0 0 6.0947 -1238.9 -2877.9)">
  <text style="letter-spacing:0px;font-weight:100;font-size:59.676px;word-spacing:0px;font-family:&apos;AR CENA&apos;;line-height:125%;fill:#eabe72" transform="scale(1.1452 .87324)" y="584.24396" x="204.19795" xml:space="preserve"><tspan y="584.24396" x="204.19795">1</tspan></text>
  <path d="m238.9 509.76s-.16133 7.2402-1.2907 7.5619" style="stroke:#ffa200;stroke-width:.16412;fill:#ffa200;fill-rule:evenodd"/>
  <path d="m233.8 517.49s.63384-.60682 4.082-.78382c0 0 .30424 1.062-.10144 1.1884-.40566.12642-3.8791 1.0114-4.1327.8091-.25354-.20227-.48171-.93552.15213-1.2137z" style="stroke:#ffa200;stroke-width:.16412;fill-rule:evenodd"/>
  <path d="m242.21 509.6s.16134 7.2402 1.2907 7.5619" style="stroke:#ffa200;stroke-width:.16412;fill:#ffa200;fill-rule:evenodd"/>
  <path d="m247.3 517.33s-.63384-.60682-4.082-.78383c0 0-.30424 1.062.10144 1.1884.40566.12642 3.8791 1.0114 4.1327.8091.25353-.20227.48171-.93552-.15213-1.2136z" style="stroke:#ffa200;stroke-width:.16412;fill-rule:evenodd"/>
  <path d="m237.61 491.74c-4.2752 1.6997-12.164 3.7332-1.452 7.0792" style="stroke:#ffa200;stroke-width:.16412;fill:none"/>
  <path d="m242.42 491.74c4.2752 1.6997 12.164 3.7332 1.452 7.0792" style="stroke:#ffa200;stroke-width:.16412;fill:none"/>
  <text style="letter-spacing:0px;font-weight:100;font-size:59.676px;word-spacing:0px;font-family:&apos;AR CENA&apos;;line-height:125%;fill:#ffa200" transform="scale(1.1452 .87324)" y="584.24396" x="202.95805" xml:space="preserve"><tspan y="584.24396" x="202.95805">1</tspan></text>
  <path d="m244.07 498.75s-.88733.1609-.484 1.2871" style="stroke:#000;stroke-width:.16412;fill:none"/>
  <ellipse style="stroke-linejoin:bevel;color-rendering:auto;fill-rule:evenodd;color:#000000;isolation:auto;mix-blend-mode:normal;shape-rendering:auto;solid-color:#000000;stroke:#f2f2f2;stroke-linecap:square;image-rendering:auto;stroke-width:.16412;fill:#f2f2f2" rx=".96152" ry="1.0085" cy="480.92" cx="239.42"/>
  <ellipse style="stroke-linejoin:bevel;color-rendering:auto;fill-rule:evenodd;color:#000000;isolation:auto;mix-blend-mode:normal;shape-rendering:auto;solid-color:#000000;stroke:#f2f2f2;stroke-linecap:square;image-rendering:auto;stroke-width:.16412;fill:#f2f2f2" rx=".96152" ry="1.0085" cy="480.92" cx="243.52"/>
  <ellipse style="color-rendering:auto;fill-rule:evenodd;color:#000000;isolation:auto;mix-blend-mode:normal;shape-rendering:auto;solid-color:#000000;image-rendering:auto;fill:#1a1a1a" rx=".40797" ry=".43464" cy="480.99" cx="244.42"/>
  <path d="m239.44 487.63s3.5566.92415 4.7645-1.5843c0 0-1.3156 1.5606-4.7645 1.5843z" style="stroke:#f2f2f2;stroke-width:.16412;fill:#f2f2f2;fill-rule:evenodd"/>
  <path d="m235.96 498.75s.88733.1609.484 1.2871" style="stroke:#000;stroke-width:.16412;fill:none"/>
  <path d="m236.02 498.91 1.2186-1.1538" style="stroke:#000;stroke-width:.16412;fill:none"/>
  <path d="m235.94 498.76 1.6765.11343" style="stroke:#000;stroke-width:.16412;fill:none"/>
  <path d="m244.01 498.91-1.2186-1.1538" style="stroke:#000;stroke-width:.16412;fill:none"/>
  <path d="m244.08 498.76-1.6765.11343" style="stroke:#000;stroke-width:.16412;fill:none"/>
  <ellipse style="color-rendering:auto;fill-rule:evenodd;color:#000000;isolation:auto;mix-blend-mode:normal;shape-rendering:auto;solid-color:#000000;image-rendering:auto;fill:#1a1a1a" rx=".40797" ry=".43464" cy="480.97" cx="240.31"/>
  <path d="m238.21 479.5s1.0318-.97338 2.2031-.25033" style="stroke:#000;stroke-width:.082059;fill:none"/>
  <path d="m244.63 478.72s-1.0318-.97339-2.2031-.25033" style="stroke:#000;stroke-width:.082059;fill:none"/>
 </g>
 <g id="h" transform="matrix(6.0917 0 0 6.0947 -1284.3 -2855.3)">
  <path d="m279.07 507.9s-.13646 6.1406-1.0916 6.4135" style="stroke:#ffa200;stroke-width:.16412px;fill:#ffa200;fill-rule:evenodd"/>
  <path d="m274.76 514.46s.5361-.51466 3.4525-.66478c0 0 .25733.90067-.0858 1.0079-.34311.10722-3.281.85776-3.4954.68622-.21444-.17155-.40743-.79344.12867-1.0293z" style="stroke:#ffa200;stroke-width:.16412px;fill-rule:evenodd"/>
  <path d="m285.87 507.76s.13646 6.1406 1.0916 6.4135" style="stroke:#ffa200;stroke-width:.16412px;fill:#ffa200;fill-rule:evenodd"/>
  <path d="m290.18 514.32s-.5361-.51466-3.4525-.66478c0 0-.25733.90067.0858 1.0079.34311.10722 3.281.85776 3.4954.68622.21444-.17155.40743-.79344-.12867-1.0293z" style="stroke:#ffa200;stroke-width:.16412px;fill-rule:evenodd"/>
  <path d="m291.25 493.55s12.643.18869 13.681-4.2457" style="stroke:#f70;stroke-width:.16412px;fill:none"/>
  <path d="m305.01 489.37-1.1996-1.6587" style="stroke:#000;stroke-width:.16412px;fill:none"/>
  <path d="m304.88 489.63.86236-2.1292" style="stroke:#000;stroke-width:.16412px;fill:none"/>
  <path d="m305.06 489.43 2.0034-.39951" style="stroke:#000;stroke-width:.16412px;fill:none"/>
  <path d="m287.02 493.55s-12.643.18869-13.681-4.2457" style="stroke:#f70;stroke-width:.16412px;fill:none"/>
  <text style="letter-spacing:0px;font-weight:100;font-size:60px;word-spacing:0px;font-family:&apos;AR CENA&apos;;line-height:125%;fill:#f5933e" y="510.13275" x="274.09631" xml:space="preserve"><tspan y="510.13275" x="274.09631">2</tspan></text>
  <text style="letter-spacing:0px;font-weight:100;font-size:60px;word-spacing:0px;font-family:&apos;AR CENA&apos;;line-height:125%;fill:#ff7700" y="510.13275" x="272.36267" xml:space="preserve"><tspan y="510.13275" x="272.36267">2</tspan></text>
  <path d="m273.44 489.28.96769-1.4582" style="stroke:#000;stroke-width:.16412px;fill:none"/>
  <path d="m273.54 489.55-.69567-1.9116" style="stroke:#000;stroke-width:.16412px;fill:none"/>
  <path d="m273.4 489.34-1.6161-.35121" style="stroke:#000;stroke-width:.16412px;fill:none"/>
  <path d="m294.22 483.65s3.0082.7838 4.0298-1.3437c0 0-1.1127 1.3236-4.0298 1.3437z" style="stroke:#f2f2f2;stroke-width:.082059;fill:#f2f2f2;fill-rule:evenodd"/>
  <ellipse style="stroke-linejoin:bevel;color-rendering:auto;fill-rule:evenodd;color:#000000;isolation:auto;mix-blend-mode:normal;shape-rendering:auto;solid-color:#000000;stroke:#f2f2f2;stroke-linecap:square;image-rendering:auto;stroke-width:.082059;fill:#f2f2f2" rx=".81325" ry=".85536" cy="477.44" cx="294.64"/>
  <ellipse style="stroke-linejoin:bevel;color-rendering:auto;fill-rule:evenodd;color:#000000;isolation:auto;mix-blend-mode:normal;shape-rendering:auto;solid-color:#000000;stroke:#f2f2f2;stroke-linecap:square;image-rendering:auto;stroke-width:.082059;fill:#f2f2f2" rx=".81325" ry=".85536" cy="477.44" cx="298.11"/>
  <ellipse style="color-rendering:auto;fill-rule:evenodd;color:#000000;isolation:auto;mix-blend-mode:normal;shape-rendering:auto;solid-color:#000000;image-rendering:auto;fill:#1a1a1a" rx=".34506" ry=".36863" cy="476.75" cx="298.11"/>
  <ellipse style="color-rendering:auto;fill-rule:evenodd;color:#000000;isolation:auto;mix-blend-mode:normal;shape-rendering:auto;solid-color:#000000;image-rendering:auto;fill:#1a1a1a" rx=".34506" ry=".36863" cy="478.11" cx="294.66"/>
  <path d="m293.6 476.31s.87273-.82555 1.8634-.21231" style="stroke:#000;stroke-width:.049235;fill:none"/>
  <path d="m299.09 475.58s-.87273-.82555-1.8634-.21231" style="stroke:#000;stroke-width:.049235;fill:none"/>
 </g>
 <g id="l" transform="matrix(6.0917 0 0 6.0947 -1279.8 -2837.3)">
  <text style="letter-spacing:0px;font-weight:100;fill-opacity:.73502;font-size:60px;word-spacing:0px;font-family:&apos;AR CENA&apos;;line-height:125%;fill:#ffcf00" y="504.18466" x="328.10071" xml:space="preserve"><tspan y="504.18466" x="328.10071">3</tspan></text>
  <path d="m339.07 503.86s-.13646 9.3979-1.0916 9.8156" style="stroke:#ffcf00;stroke-width:.16412px;fill:#ffa200;fill-rule:evenodd"/>
  <path d="m334.76 513.9s.5361-.78767 3.4525-1.0174c0 0 .25733 1.3784-.0858 1.5425-.34311.1641-3.281 1.3128-3.4954 1.0502-.21444-.26255-.40743-1.2143.12867-1.5754z" style="stroke:#ffcf00;stroke-width:.16412px;fill-rule:evenodd"/>
  <path d="m345.87 502.9s.13646 9.3979 1.0916 9.8155" style="stroke:#ffcf00;stroke-width:.16412px;fill:#ffa200;fill-rule:evenodd"/>
  <path d="m350.18 512.94s-.5361-.78767-3.4525-1.0174c0 0-.25733 1.3784.0858 1.5425.34311.16409 3.281 1.3128 3.4954 1.0502.21444-.26255.40743-1.2143-.12867-1.5754z" style="stroke:#ffcf00;stroke-width:.16412px;fill-rule:evenodd"/>
  <path d="m349.7 486.59s18.003 1.7449 5.381 9.2411" style="stroke:#ffcf00;stroke-width:.16412px;fill:none"/>
  <path d="m336.47 486.59s-12.643.18869-13.681-4.2457" style="stroke:#ffcf00;stroke-width:.16412px;fill:none"/>
  <path d="m355.15 496.08.57753 1.9638" style="stroke:#000;stroke-width:.16412px;fill:none"/>
  <text style="letter-spacing:0px;font-weight:100;font-size:60px;word-spacing:0px;font-family:&apos;AR CENA&apos;;line-height:125%;fill:#ffcf00" y="504.18466" x="326.10071" xml:space="preserve"><tspan y="504.18466" x="326.10071">3</tspan></text>
  <path d="m350.58 478.62s3.0082.7838 4.0298-1.3437c0 0-1.1127 1.3236-4.0298 1.3437z" style="stroke:#f2f2f2;stroke-width:.082059;fill:#f2f2f2;fill-rule:evenodd"/>
  <path d="m322.89 482.31.96769-1.4582" style="stroke:#000;stroke-width:.16412px;fill:none"/>
  <path d="m322.99 482.58-.69567-1.9116" style="stroke:#000;stroke-width:.16412px;fill:none"/>
  <path d="m322.85 482.37-1.6161-.35121" style="stroke:#000;stroke-width:.16412px;fill:none"/>
  <path d="m355.58 495.93-1.7361 1.646" style="stroke:#000;stroke-width:.16412px;fill:none"/>
  <path d="m355.13 496-2.0219-.2917" style="stroke:#000;stroke-width:.16412px;fill:none"/>
  <ellipse style="stroke-linejoin:bevel;color-rendering:auto;fill-rule:evenodd;color:#000000;isolation:auto;mix-blend-mode:normal;shape-rendering:auto;solid-color:#000000;stroke:#f2f2f2;stroke-linecap:square;image-rendering:auto;stroke-width:.082059;fill:#f2f2f2" rx=".81325" ry=".85536" cy="472.84" cx="350.68"/>
  <ellipse style="stroke-linejoin:bevel;color-rendering:auto;fill-rule:evenodd;color:#000000;isolation:auto;mix-blend-mode:normal;shape-rendering:auto;solid-color:#000000;stroke:#f2f2f2;stroke-linecap:square;image-rendering:auto;stroke-width:.082059;fill:#f2f2f2" rx=".81325" ry=".85536" cy="472.84" cx="354.15"/>
  <ellipse style="color-rendering:auto;fill-rule:evenodd;color:#000000;isolation:auto;mix-blend-mode:normal;shape-rendering:auto;solid-color:#000000;image-rendering:auto;fill:#1a1a1a" rx=".34506" ry=".36863" cy="473.05" cx="354.72"/>
  <ellipse style="color-rendering:auto;fill-rule:evenodd;color:#000000;isolation:auto;mix-blend-mode:normal;shape-rendering:auto;solid-color:#000000;image-rendering:auto;fill:#1a1a1a" rx=".34506" ry=".36863" cy="473.19" cx="351.17"/>
  <path d="m349.83 471.46s.87273-.82555 1.8634-.21231" style="stroke:#000;stroke-width:.049235;fill:none"/>
  <path d="m355.65 471.44s-.87273-.82555-1.8634-.21231" style="stroke:#000;stroke-width:.049235;fill:none"/>
 </g>
 <g id="m" transform="matrix(6.0917 0 0 6.0947 -1301 -2836.9)">
  <text style="letter-spacing:0px;font-weight:100;font-size:60px;word-spacing:0px;font-family:&apos;AR CENA&apos;;line-height:125%;fill:#a6d41d" y="504.95038" x="382.79102" xml:space="preserve"><tspan y="504.95038" x="382.79102">4</tspan></text>
  <path d="m405.7 480.93s18.003-1.9597 5.381-10.379" style="stroke:#b4e913;stroke-width:.16412px;fill:none"/>
  <text style="letter-spacing:0px;font-weight:100;font-size:60px;word-spacing:0px;font-family:&apos;AR CENA&apos;;line-height:125%;fill:#b4e913" y="504.95038" x="380.79102" xml:space="preserve"><tspan y="504.95038" x="380.79102">4</tspan></text>
  <path d="m411.15 470.28.57753-2.2056" style="stroke:#000;stroke-width:.16412px;fill:none"/>
  <path d="m402.96 477s2.9081 1.5844 4.2299-.0761c0 0-1.3796.58971-4.2299.0761z" style="stroke:#f2f2f2;stroke-width:.082059;fill:#f2f2f2;fill-rule:evenodd"/>
  <ellipse style="stroke-linejoin:bevel;color-rendering:auto;fill-rule:evenodd;color:#000000;isolation:auto;mix-blend-mode:normal;shape-rendering:auto;solid-color:#000000;stroke:#f2f2f2;stroke-linecap:square;image-rendering:auto;stroke-width:.082059;fill:#f2f2f2" rx=".81325" ry=".85536" cy="472.39" cx="403.06"/>
  <path d="m411.28 470.23-1.44-1.64" style="stroke:#000;stroke-width:.16412px;fill:none"/>
  <ellipse style="stroke-linejoin:bevel;color-rendering:auto;fill-rule:evenodd;color:#000000;isolation:auto;mix-blend-mode:normal;shape-rendering:auto;solid-color:#000000;stroke:#f2f2f2;stroke-linecap:square;image-rendering:auto;stroke-width:.082059;fill:#f2f2f2" rx=".81325" ry=".85536" cy="472.39" cx="406.53"/>
  <path d="m411.13 470.36-2.0219.32761" style="stroke:#000;stroke-width:.16412px;fill:none"/>
  <ellipse style="color-rendering:auto;fill-rule:evenodd;color:#000000;isolation:auto;mix-blend-mode:normal;shape-rendering:auto;solid-color:#000000;image-rendering:auto;fill:#1a1a1a" rx=".34506" ry=".36863" cy="472.6" cx="407.1"/>
  <ellipse style="color-rendering:auto;fill-rule:evenodd;color:#000000;isolation:auto;mix-blend-mode:normal;shape-rendering:auto;solid-color:#000000;image-rendering:auto;fill:#1a1a1a" rx=".34506" ry=".36863" cy="472.73" cx="403.55"/>
  <path d="m404.44 470.47s-1.1428.82555-2.4401.21231" style="stroke:#000;stroke-width:.049235;fill:none"/>
  <path d="m406.18 469.92s1.1428.82555 2.4401.21231" style="stroke:#000;stroke-width:.049235;fill:none"/>
  <path d="m400.97 503.86s-.13646 9.3979-1.0916 9.8156" style="stroke:#b4e913;stroke-width:.16412px;fill:#ffa200;fill-rule:evenodd"/>
  <path d="m396.65 513.9s.5361-.78767 3.4525-1.0174c0 0 .25733 1.3784-.0858 1.5425-.34311.1641-3.281 1.3128-3.4954 1.0502-.21444-.26255-.40743-1.2143.12867-1.5754z" style="stroke:#b4e913;stroke-width:.16412px;fill-rule:evenodd"/>
  <path d="m404.29 503.83s.13646 9.3979 1.0916 9.8155" style="stroke:#b4e913;stroke-width:.16412px;fill:#ffa200;fill-rule:evenodd"/>
  <path d="m408.61 513.87s-.5361-.78767-3.4525-1.0174c0 0-.25733 1.3784.0858 1.5425.34311.16409 3.281 1.3128 3.4954 1.0502.21444-.26255.40743-1.2143-.12867-1.5754z" style="stroke:#b4e913;stroke-width:.16412px;fill-rule:evenodd"/>
  <path d="m391.15 479.7s-23.465 1.2356-7.0136 6.5438" style="stroke:#b4e913;stroke-width:.16412px;fill:none"/>
  <path d="m384.09 486.4-.57753 1.9638" style="stroke:#000;stroke-width:.16412px;fill:none"/>
  <path d="m383.73 486.25 1.6753 1.646" style="stroke:#000;stroke-width:.16412px;fill:none"/>
  <path d="m384.12 486.32 2.0219-.2917" style="stroke:#000;stroke-width:.16412px;fill:none"/>
 </g>
 <g id="n" transform="matrix(6.0917 0 0 6.0947 -1307.2 -2849.1)">
  <text style="letter-spacing:0px;font-weight:100;font-size:60px;word-spacing:0px;font-family:&apos;AR CENA&apos;;line-height:125%;fill:#ee6033" y="508.04236" x="446.76059" xml:space="preserve"><tspan y="508.04236" x="446.76059">5</tspan></text>
  <text style="letter-spacing:0px;font-weight:100;font-size:60px;word-spacing:0px;font-family:&apos;AR CENA&apos;;line-height:125%;fill:#ff3e00" y="508.04236" x="444.76059" xml:space="preserve"><tspan y="508.04236" x="444.76059">5</tspan></text>
  <path d="m456.97 503.86s-.13646 9.3979-1.0916 9.8156" style="stroke:#ff3e00;stroke-width:.16412px;fill:#ffa200;fill-rule:evenodd"/>
  <path d="m452.65 513.9s.5361-.78767 3.4525-1.0174c0 0 .25733 1.3784-.0858 1.5425-.34311.1641-3.281 1.3128-3.4954 1.0502-.21444-.26255-.40743-1.2143.12867-1.5754z" style="stroke:#ff3e00;stroke-width:.16412px;fill-rule:evenodd"/>
  <path d="m460.29 503.83s.13646 9.3979 1.0916 9.8155" style="stroke:#ff3e00;stroke-width:.16412px;fill:#ffa200;fill-rule:evenodd"/>
  <path d="m464.61 513.87s-.5361-.78767-3.4525-1.0174c0 0-.25733 1.3784.0858 1.5425.34311.16409 3.281 1.3128 3.4954 1.0502.21444-.26255.40743-1.2143-.12867-1.5754z" style="stroke:#ff3e00;stroke-width:.16412px;fill-rule:evenodd"/>
  <path d="m469.28 490.71s18.003-1.9597 5.381-10.379" style="stroke:#ff3e00;stroke-width:.16412px;fill:none"/>
  <path d="m448.47 488.52s-12.643.18869-13.681-4.2457" style="stroke:#ff3e00;stroke-width:.16412px;fill:none"/>
  <path d="m434.89 484.24.96769-1.4582" style="stroke:#000;stroke-width:.16412px;fill:none"/>
  <path d="m434.99 484.51-.69567-1.9116" style="stroke:#000;stroke-width:.16412px;fill:none"/>
  <ellipse style="stroke-linejoin:bevel;color-rendering:auto;fill-rule:evenodd;color:#000000;isolation:auto;mix-blend-mode:normal;shape-rendering:auto;solid-color:#000000;stroke:#f2f2f2;stroke-linecap:square;image-rendering:auto;stroke-width:.082059;fill:#f2f2f2" rx=".81325" ry=".85536" cy="475.81" cx="451.42"/>
  <ellipse style="stroke-linejoin:bevel;color-rendering:auto;fill-rule:evenodd;color:#000000;isolation:auto;mix-blend-mode:normal;shape-rendering:auto;solid-color:#000000;stroke:#f2f2f2;stroke-linecap:square;image-rendering:auto;stroke-width:.082059;fill:#f2f2f2" rx=".81325" ry=".85536" cy="475.69" cx="455.98"/>
  <ellipse style="color-rendering:auto;fill-rule:evenodd;color:#000000;isolation:auto;mix-blend-mode:normal;shape-rendering:auto;solid-color:#000000;image-rendering:auto;fill:#1a1a1a" rx=".34506" ry=".36863" cy="475.81" cx="455.95"/>
  <ellipse style="color-rendering:auto;fill-rule:evenodd;color:#000000;isolation:auto;mix-blend-mode:normal;shape-rendering:auto;solid-color:#000000;image-rendering:auto;fill:#1a1a1a" rx=".34506" ry=".36863" cy="475.9" cx="451.39"/>
  <path d="m454.86 474.47s1.1428-.82555 2.4401-.21231" style="stroke:#000;stroke-width:.049235;fill:none"/>
  <path d="m452.97 474.69s-1.1428-1.39-2.4401-.35747" style="stroke:#000;stroke-width:.049235;fill:none"/>
  <path d="m450.32 478.87s3.2675 2.2535 4.2892.12604c0 0-1.3721-.14615-4.2892-.12604z" style="stroke:#f2f2f2;stroke-width:.082059;fill:#f2f2f2;fill-rule:evenodd"/>
  <path d="m434.85 484.3-1.6161-.35121" style="stroke:#000;stroke-width:.16412px;fill:none"/>
  <path d="m474.99 480.49.48334-1.682" style="stroke:#000;stroke-width:.16412px;fill:none"/>
  <path d="m475.17 480.71-1.2394-1.6132" style="stroke:#000;stroke-width:.16412px;fill:none"/>
  <path d="m474.97 480.55-1.6468.15208" style="stroke:#000;stroke-width:.16412px;fill:none"/>
 </g>
 <g transform="matrix(6.0917 0 0 6.0947 298.68 -2877.9)">
  <text style="letter-spacing:0px;font-weight:100;font-size:59.676px;word-spacing:0px;font-family:&apos;AR CENA&apos;;line-height:125%;fill:#eabe72" transform="scale(1.1452 .87324)" y="584.24396" x="204.19795" xml:space="preserve"><tspan y="584.24396" x="204.19795">1</tspan></text>
  <path d="m238.9 509.76s-.16133 7.2402-1.2907 7.5619" style="stroke:#ffa200;stroke-width:.16412;fill:#ffa200;fill-rule:evenodd"/>
  <path d="m233.8 517.49s.63384-.60682 4.082-.78382c0 0 .30424 1.062-.10144 1.1884-.40566.12642-3.8791 1.0114-4.1327.8091-.25354-.20227-.48171-.93552.15213-1.2137z" style="stroke:#ffa200;stroke-width:.16412;fill-rule:evenodd"/>
  <path d="m242.21 509.6s.16134 7.2402 1.2907 7.5619" style="stroke:#ffa200;stroke-width:.16412;fill:#ffa200;fill-rule:evenodd"/>
  <path d="m247.3 517.33s-.63384-.60682-4.082-.78383c0 0-.30424 1.062.10144 1.1884.40566.12642 3.8791 1.0114 4.1327.8091.25353-.20227.48171-.93552-.15213-1.2136z" style="stroke:#ffa200;stroke-width:.16412;fill-rule:evenodd"/>
  <path d="m237.61 491.74c-4.2752 1.6997-12.164 3.7332-1.452 7.0792" style="stroke:#ffa200;stroke-width:.16412;fill:none"/>
  <path d="m242.42 491.74c4.2752 1.6997 12.164 3.7332 1.452 7.0792" style="stroke:#ffa200;stroke-width:.16412;fill:none"/>
  <text style="letter-spacing:0px;font-weight:100;font-size:59.676px;word-spacing:0px;font-family:&apos;AR CENA&apos;;line-height:125%;fill:#ffa200" transform="scale(1.1452 .87324)" y="584.24396" x="202.95805" xml:space="preserve"><tspan y="584.24396" x="202.95805">1</tspan></text>
  <path d="m244.07 498.75s-.88733.1609-.484 1.2871" style="stroke:#000;stroke-width:.16412;fill:none"/>
  <ellipse style="stroke-linejoin:bevel;color-rendering:auto;fill-rule:evenodd;color:#000000;isolation:auto;mix-blend-mode:normal;shape-rendering:auto;solid-color:#000000;stroke:#f2f2f2;stroke-linecap:square;image-rendering:auto;stroke-width:.16412;fill:#f2f2f2" rx=".96152" ry="1.0085" cy="480.92" cx="239.42"/>
  <ellipse style="stroke-linejoin:bevel;color-rendering:auto;fill-rule:evenodd;color:#000000;isolation:auto;mix-blend-mode:normal;shape-rendering:auto;solid-color:#000000;stroke:#f2f2f2;stroke-linecap:square;image-rendering:auto;stroke-width:.16412;fill:#f2f2f2" rx=".96152" ry="1.0085" cy="480.92" cx="243.52"/>
  <ellipse style="color-rendering:auto;fill-rule:evenodd;color:#000000;isolation:auto;mix-blend-mode:normal;shape-rendering:auto;solid-color:#000000;image-rendering:auto;fill:#1a1a1a" rx=".40797" ry=".43464" cy="480.99" cx="244.42"/>
  <path d="m239.44 487.63s3.5566.92415 4.7645-1.5843c0 0-1.3156 1.5606-4.7645 1.5843z" style="stroke:#f2f2f2;stroke-width:.16412;fill:#f2f2f2;fill-rule:evenodd"/>
  <path d="m235.96 498.75s.88733.1609.484 1.2871" style="stroke:#000;stroke-width:.16412;fill:none"/>
  <path d="m236.02 498.91 1.2186-1.1538" style="stroke:#000;stroke-width:.16412;fill:none"/>
  <path d="m235.94 498.76 1.6765.11343" style="stroke:#000;stroke-width:.16412;fill:none"/>
  <path d="m244.01 498.91-1.2186-1.1538" style="stroke:#000;stroke-width:.16412;fill:none"/>
  <path d="m244.08 498.76-1.6765.11343" style="stroke:#000;stroke-width:.16412;fill:none"/>
  <ellipse style="color-rendering:auto;fill-rule:evenodd;color:#000000;isolation:auto;mix-blend-mode:normal;shape-rendering:auto;solid-color:#000000;image-rendering:auto;fill:#1a1a1a" rx=".40797" ry=".43464" cy="480.97" cx="240.31"/>
  <path d="m238.21 479.5s1.0318-.97338 2.2031-.25033" style="stroke:#000;stroke-width:.082059;fill:none"/>
  <path d="m244.63 478.72s-1.0318-.97339-2.2031-.25033" style="stroke:#000;stroke-width:.082059;fill:none"/>
 </g>
 <text id="s" style="letter-spacing:0px;font-weight:100;font-size:355.32px;word-spacing:0px;font-family:&apos;AR CENA&apos;;line-height:125%;fill:#ff7e7e" y="233.62285" x="-38.024185" xml:space="preserve"><tspan y="233.62285" x="-38.024185">[</tspan></text>
 <g id="o" transform="matrix(2.467 0 0 2.4671 -518.76 -674.22)">
  <path d="m342.37 390.9-.75696 6.6882a.24954 .10018 71.166 0 0 .2472 .28732c0-.0417-.24919-.0624-.54047-.0385a.11833 .13214 35.501 0 0 -.0275 -.24695c-.29164.10838-.62386.26358-.7656.476.19108-.14401.53352-.20962.8205-.2321l-.0274-.24695c.29128-.10723.54047-.16987.54047-.21154l.2472.28732 1.2514-6.6135z" style="fill-rule:evenodd"/>
  <path d="m337.93 390.9-.74413 6.5748c-.0934.0315-.20992.0693-.33355.11529-.29164.10838-.62385.26358-.7656.476.19109-.14401.53353-.20962.8205-.2321.29088-.0228.53729-.0010.53399.0406l.22623-.2118 1.2514-6.6135z" style="fill-rule:evenodd"/>
  <path d="m338.26 377.39-3.1539-2.5531-1.5859-4.4873 1.1342 4.7078a.26557 .12279 33.17 0 0 .0709 .11336l2.8594 2.9569z" style="fill-rule:evenodd"/>
  <path d="m346.34 379.6 3.0443-3.4352a.12696 .26707 55.266 0 0 .0637 -.11099l1.2204-5.5159-1.6797 5.3118-3.3598 3.0474z" style="fill-rule:evenodd"/>
  <g style="fill:#ffa809" transform="scale(.99978 1.0002)">
   <path d="m337.27 380.45v-9.9993h9.9993v9.9993q0 5.5118-1.9511 8.8774-1.9511 3.4144-6.1947 5.2679l-2.4389-3.7558q2.7803-1.2194 4.0973-3.6095 1.317-2.3413 1.4633-6.78h-4.9753z"/>
  </g>
  <path d="m340.98 373.83a1.4347 1.4354 0 0 1 -1.4347 1.4354 1.4347 1.4354 0 0 1 -1.4347 -1.4354 1.4347 1.4354 0 0 1 1.4347 -1.4354 1.4347 1.4354 0 0 1 1.4347 1.4354z" style="color-rendering:auto;fill-rule:evenodd;color:#000000;isolation:auto;mix-blend-mode:normal;shape-rendering:auto;solid-color:#000000;image-rendering:auto;fill:#f9f9f9"/>
  <path d="m340.85 373.83a.67385 .67415 0 0 1 -.67385 .67415 .67385 .67415 0 0 1 -.67384 -.67415 .67385 .67415 0 0 1 .67384 -.67415 .67385 .67415 0 0 1 .67385 .67415z" style="color-rendering:auto;fill-rule:evenodd;color:#000000;isolation:auto;mix-blend-mode:normal;shape-rendering:auto;solid-color:#000000;image-rendering:auto"/>
  <path d="m346.08 373.83a1.4347 1.4354 0 0 1 -1.4347 1.4354 1.4347 1.4354 0 0 1 -1.4347 -1.4354 1.4347 1.4354 0 0 1 1.4347 -1.4354 1.4347 1.4354 0 0 1 1.4347 1.4354z" style="color-rendering:auto;fill-rule:evenodd;color:#000000;isolation:auto;mix-blend-mode:normal;shape-rendering:auto;solid-color:#000000;image-rendering:auto;fill:#f9f9f9"/>
  <path d="m345.95 373.78a.67385 .67415 0 0 1 -.67385 .67415 .67385 .67415 0 0 1 -.67385 -.67415 .67385 .67415 0 0 1 .67385 -.67416 .67385 .67415 0 0 1 .67385 .67416z" style="color-rendering:auto;fill-rule:evenodd;color:#000000;isolation:auto;mix-blend-mode:normal;shape-rendering:auto;solid-color:#000000;image-rendering:auto"/>
  <path d="m337.99 372.55s1.8033-1.1796 2.8436-.41632" style="stroke:#000;stroke-width:.16213;fill:none"/>
  <path d="m346.4 371.93s-1.8033-1.1796-2.8436-.41633" style="stroke:#000;stroke-width:.16213;fill:none"/>
  <path d="m338.86 377.96c-.047.0491-.0628.12818-.0484.22977.26938.18986 1.0239.73616 2.0881 1.023 1.3201.35587 3.0808.30353 4.9653-1.2528-1.9306 1.497-3.6715 1.444-4.9007 1.037-1.0009-.33146-1.6856-.90483-1.888-1.1175-.0962.007-.16935.0314-.21635.0805z" style="fill-rule:evenodd"/>
  <path d="m341.95 376.27c-.0253-.0389-.0527-.0764-.0821-.11261-.0464.0477-.25397.19124-.44927.38638-.0975.0974-.19289.21033-.22718.31561-.0179.0551-.023.11995.0124.17782.0343.0562.0946.0855.16265.10075.25129.0554.68387.0414.99624-.0285.15668-.035.28867-.0854.35211-.15133.0326-.0339.0467-.0715.0368-.1107-.01-.0376-.0409-.0754-.0951-.11473.0517.0448.0749.0846.0776.11778.003.0316-.0134.0581-.0433.0814-.0618.0484-.18559.0849-.34108.10765-.31041.0454-.72803.0322-.94646-.039-.0504-.0168-.0593-.0351-.0592-.0404-.000010.00091.002-.0155.0135-.0373.0292-.0572.10119-.1346.20551-.22204.1825-.15298.41572-.29631.45805-.311-.0222-.0409-.0458-.0809-.0711-.11984z" style="fill-rule:evenodd"/>
  <path d="m333.07 370.75.57435.2028.27028-.60841" style="stroke:#000;stroke-width:.081069;fill:none"/>
  <path d="m333.61 370.92-.30407-.69556" style="stroke:#000;stroke-width:.081069;fill:none"/>
  <path d="m351.16 370.62-.57435.2028-.27028-.60841" style="stroke:#000;stroke-width:.081069;fill:none"/>
  <path d="m350.62 370.78.30407-.69556" style="stroke:#000;stroke-width:.081069;fill:none"/>
 </g>
 <g id="p" transform="matrix(2.467 0 0 2.4671 -219.96 -674.22)">
  <path d="m342.37 390.9-.75696 6.6882a.24954 .10018 71.166 0 0 .2472 .28732c0-.0417-.24919-.0624-.54047-.0385a.11833 .13214 35.501 0 0 -.0275 -.24695c-.29164.10838-.62386.26358-.7656.476.19108-.14401.53352-.20962.8205-.2321l-.0274-.24695c.29128-.10723.54047-.16987.54047-.21154l.2472.28732 1.2514-6.6135z" style="fill-rule:evenodd"/>
  <path d="m337.93 390.9-.74413 6.5748c-.0934.0315-.20992.0693-.33355.11529-.29164.10838-.62385.26358-.7656.476.19109-.14401.53353-.20962.8205-.2321.29088-.0228.53729-.0010.53399.0406l.22623-.2118 1.2514-6.6135z" style="fill-rule:evenodd"/>
  <path d="m338.26 377.39-3.1539-2.5531-1.5859-4.4873 1.1342 4.7078a.26557 .12279 33.17 0 0 .0709 .11336l2.8594 2.9569z" style="fill-rule:evenodd"/>
  <path d="m346.34 379.6 3.0443-3.4352a.12696 .26707 55.266 0 0 .0637 -.11099l1.2204-5.5159-1.6797 5.3118-3.3598 3.0474z" style="fill-rule:evenodd"/>
  <g style="fill:#ffa809" transform="scale(.99978 1.0002)">
   <path d="m337.27 380.45v-9.9993h9.9993v9.9993q0 5.5118-1.9511 8.8774-1.9511 3.4144-6.1947 5.2679l-2.4389-3.7558q2.7803-1.2194 4.0973-3.6095 1.317-2.3413 1.4633-6.78h-4.9753z"/>
  </g>
  <path d="m340.98 373.83a1.4347 1.4354 0 0 1 -1.4347 1.4354 1.4347 1.4354 0 0 1 -1.4347 -1.4354 1.4347 1.4354 0 0 1 1.4347 -1.4354 1.4347 1.4354 0 0 1 1.4347 1.4354z" style="color-rendering:auto;fill-rule:evenodd;color:#000000;isolation:auto;mix-blend-mode:normal;shape-rendering:auto;solid-color:#000000;image-rendering:auto;fill:#f9f9f9"/>
  <path d="m340.85 373.83a.67385 .67415 0 0 1 -.67385 .67415 .67385 .67415 0 0 1 -.67384 -.67415 .67385 .67415 0 0 1 .67384 -.67415 .67385 .67415 0 0 1 .67385 .67415z" style="color-rendering:auto;fill-rule:evenodd;color:#000000;isolation:auto;mix-blend-mode:normal;shape-rendering:auto;solid-color:#000000;image-rendering:auto"/>
  <path d="m346.08 373.83a1.4347 1.4354 0 0 1 -1.4347 1.4354 1.4347 1.4354 0 0 1 -1.4347 -1.4354 1.4347 1.4354 0 0 1 1.4347 -1.4354 1.4347 1.4354 0 0 1 1.4347 1.4354z" style="color-rendering:auto;fill-rule:evenodd;color:#000000;isolation:auto;mix-blend-mode:normal;shape-rendering:auto;solid-color:#000000;image-rendering:auto;fill:#f9f9f9"/>
  <path d="m345.95 373.78a.67385 .67415 0 0 1 -.67385 .67415 .67385 .67415 0 0 1 -.67385 -.67415 .67385 .67415 0 0 1 .67385 -.67416 .67385 .67415 0 0 1 .67385 .67416z" style="color-rendering:auto;fill-rule:evenodd;color:#000000;isolation:auto;mix-blend-mode:normal;shape-rendering:auto;solid-color:#000000;image-rendering:auto"/>
  <path d="m337.99 372.55s1.8033-1.1796 2.8436-.41632" style="stroke:#000;stroke-width:.16213;fill:none"/>
  <path d="m346.4 371.93s-1.8033-1.1796-2.8436-.41633" style="stroke:#000;stroke-width:.16213;fill:none"/>
  <path d="m338.86 377.96c-.047.0491-.0628.12818-.0484.22977.26938.18986 1.0239.73616 2.0881 1.023 1.3201.35587 3.0808.30353 4.9653-1.2528-1.9306 1.497-3.6715 1.444-4.9007 1.037-1.0009-.33146-1.6856-.90483-1.888-1.1175-.0962.007-.16935.0314-.21635.0805z" style="fill-rule:evenodd"/>
  <path d="m341.95 376.27c-.0253-.0389-.0527-.0764-.0821-.11261-.0464.0477-.25397.19124-.44927.38638-.0975.0974-.19289.21033-.22718.31561-.0179.0551-.023.11995.0124.17782.0343.0562.0946.0855.16265.10075.25129.0554.68387.0414.99624-.0285.15668-.035.28867-.0854.35211-.15133.0326-.0339.0467-.0715.0368-.1107-.01-.0376-.0409-.0754-.0951-.11473.0517.0448.0749.0846.0776.11778.003.0316-.0134.0581-.0433.0814-.0618.0484-.18559.0849-.34108.10765-.31041.0454-.72803.0322-.94646-.039-.0504-.0168-.0593-.0351-.0592-.0404-.000010.00091.002-.0155.0135-.0373.0292-.0572.10119-.1346.20551-.22204.1825-.15298.41572-.29631.45805-.311-.0222-.0409-.0458-.0809-.0711-.11984z" style="fill-rule:evenodd"/>
  <path d="m333.07 370.75.57435.2028.27028-.60841" style="stroke:#000;stroke-width:.081069;fill:none"/>
  <path d="m333.61 370.92-.30407-.69556" style="stroke:#000;stroke-width:.081069;fill:none"/>
  <path d="m351.16 370.62-.57435.2028-.27028-.60841" style="stroke:#000;stroke-width:.081069;fill:none"/>
  <path d="m350.62 370.78.30407-.69556" style="stroke:#000;stroke-width:.081069;fill:none"/>
 </g>
 <g id="q" transform="matrix(2.467 0 0 2.4671 140.77 -674.22)">
  <path d="m342.37 390.9-.75696 6.6882a.24954 .10018 71.166 0 0 .2472 .28732c0-.0417-.24919-.0624-.54047-.0385a.11833 .13214 35.501 0 0 -.0275 -.24695c-.29164.10838-.62386.26358-.7656.476.19108-.14401.53352-.20962.8205-.2321l-.0274-.24695c.29128-.10723.54047-.16987.54047-.21154l.2472.28732 1.2514-6.6135z" style="fill-rule:evenodd"/>
  <path d="m337.93 390.9-.74413 6.5748c-.0934.0315-.20992.0693-.33355.11529-.29164.10838-.62385.26358-.7656.476.19109-.14401.53353-.20962.8205-.2321.29088-.0228.53729-.0010.53399.0406l.22623-.2118 1.2514-6.6135z" style="fill-rule:evenodd"/>
  <path d="m338.26 377.39-3.1539-2.5531-1.5859-4.4873 1.1342 4.7078a.26557 .12279 33.17 0 0 .0709 .11336l2.8594 2.9569z" style="fill-rule:evenodd"/>
  <path d="m346.34 379.6 3.0443-3.4352a.12696 .26707 55.266 0 0 .0637 -.11099l1.2204-5.5159-1.6797 5.3118-3.3598 3.0474z" style="fill-rule:evenodd"/>
  <g style="fill:#ffa809" transform="scale(.99978 1.0002)">
   <path d="m337.27 380.45v-9.9993h9.9993v9.9993q0 5.5118-1.9511 8.8774-1.9511 3.4144-6.1947 5.2679l-2.4389-3.7558q2.7803-1.2194 4.0973-3.6095 1.317-2.3413 1.4633-6.78h-4.9753z"/>
  </g>
  <path d="m340.98 373.83a1.4347 1.4354 0 0 1 -1.4347 1.4354 1.4347 1.4354 0 0 1 -1.4347 -1.4354 1.4347 1.4354 0 0 1 1.4347 -1.4354 1.4347 1.4354 0 0 1 1.4347 1.4354z" style="color-rendering:auto;fill-rule:evenodd;color:#000000;isolation:auto;mix-blend-mode:normal;shape-rendering:auto;solid-color:#000000;image-rendering:auto;fill:#f9f9f9"/>
  <path d="m340.85 373.83a.67385 .67415 0 0 1 -.67385 .67415 .67385 .67415 0 0 1 -.67384 -.67415 .67385 .67415 0 0 1 .67384 -.67415 .67385 .67415 0 0 1 .67385 .67415z" style="color-rendering:auto;fill-rule:evenodd;color:#000000;isolation:auto;mix-blend-mode:normal;shape-rendering:auto;solid-color:#000000;image-rendering:auto"/>
  <path d="m346.08 373.83a1.4347 1.4354 0 0 1 -1.4347 1.4354 1.4347 1.4354 0 0 1 -1.4347 -1.4354 1.4347 1.4354 0 0 1 1.4347 -1.4354 1.4347 1.4354 0 0 1 1.4347 1.4354z" style="color-rendering:auto;fill-rule:evenodd;color:#000000;isolation:auto;mix-blend-mode:normal;shape-rendering:auto;solid-color:#000000;image-rendering:auto;fill:#f9f9f9"/>
  <path d="m345.95 373.78a.67385 .67415 0 0 1 -.67385 .67415 .67385 .67415 0 0 1 -.67385 -.67415 .67385 .67415 0 0 1 .67385 -.67416 .67385 .67415 0 0 1 .67385 .67416z" style="color-rendering:auto;fill-rule:evenodd;color:#000000;isolation:auto;mix-blend-mode:normal;shape-rendering:auto;solid-color:#000000;image-rendering:auto"/>
  <path d="m337.99 372.55s1.8033-1.1796 2.8436-.41632" style="stroke:#000;stroke-width:.16213;fill:none"/>
  <path d="m346.4 371.93s-1.8033-1.1796-2.8436-.41633" style="stroke:#000;stroke-width:.16213;fill:none"/>
  <path d="m338.86 377.96c-.047.0491-.0628.12818-.0484.22977.26938.18986 1.0239.73616 2.0881 1.023 1.3201.35587 3.0808.30353 4.9653-1.2528-1.9306 1.497-3.6715 1.444-4.9007 1.037-1.0009-.33146-1.6856-.90483-1.888-1.1175-.0962.007-.16935.0314-.21635.0805z" style="fill-rule:evenodd"/>
  <path d="m341.95 376.27c-.0253-.0389-.0527-.0764-.0821-.11261-.0464.0477-.25397.19124-.44927.38638-.0975.0974-.19289.21033-.22718.31561-.0179.0551-.023.11995.0124.17782.0343.0562.0946.0855.16265.10075.25129.0554.68387.0414.99624-.0285.15668-.035.28867-.0854.35211-.15133.0326-.0339.0467-.0715.0368-.1107-.01-.0376-.0409-.0754-.0951-.11473.0517.0448.0749.0846.0776.11778.003.0316-.0134.0581-.0433.0814-.0618.0484-.18559.0849-.34108.10765-.31041.0454-.72803.0322-.94646-.039-.0504-.0168-.0593-.0351-.0592-.0404-.000010.00091.002-.0155.0135-.0373.0292-.0572.10119-.1346.20551-.22204.1825-.15298.41572-.29631.45805-.311-.0222-.0409-.0458-.0809-.0711-.11984z" style="fill-rule:evenodd"/>
  <path d="m333.07 370.75.57435.2028.27028-.60841" style="stroke:#000;stroke-width:.081069;fill:none"/>
  <path d="m333.61 370.92-.30407-.69556" style="stroke:#000;stroke-width:.081069;fill:none"/>
  <path d="m351.16 370.62-.57435.2028-.27028-.60841" style="stroke:#000;stroke-width:.081069;fill:none"/>
  <path d="m350.62 370.78.30407-.69556" style="stroke:#000;stroke-width:.081069;fill:none"/>
 </g>
 <g id="r" transform="matrix(2.467 0 0 2.4671 449.94 -674.22)">
  <path d="m342.37 390.9-.75696 6.6882a.24954 .10018 71.166 0 0 .2472 .28732c0-.0417-.24919-.0624-.54047-.0385a.11833 .13214 35.501 0 0 -.0275 -.24695c-.29164.10838-.62386.26358-.7656.476.19108-.14401.53352-.20962.8205-.2321l-.0274-.24695c.29128-.10723.54047-.16987.54047-.21154l.2472.28732 1.2514-6.6135z" style="fill-rule:evenodd"/>
  <path d="m337.93 390.9-.74413 6.5748c-.0934.0315-.20992.0693-.33355.11529-.29164.10838-.62385.26358-.7656.476.19109-.14401.53353-.20962.8205-.2321.29088-.0228.53729-.0010.53399.0406l.22623-.2118 1.2514-6.6135z" style="fill-rule:evenodd"/>
  <path d="m338.26 377.39-3.1539-2.5531-1.5859-4.4873 1.1342 4.7078a.26557 .12279 33.17 0 0 .0709 .11336l2.8594 2.9569z" style="fill-rule:evenodd"/>
  <path d="m346.34 379.6 3.0443-3.4352a.12696 .26707 55.266 0 0 .0637 -.11099l1.2204-5.5159-1.6797 5.3118-3.3598 3.0474z" style="fill-rule:evenodd"/>
  <g style="fill:#ffa809" transform="scale(.99978 1.0002)">
   <path d="m337.27 380.45v-9.9993h9.9993v9.9993q0 5.5118-1.9511 8.8774-1.9511 3.4144-6.1947 5.2679l-2.4389-3.7558q2.7803-1.2194 4.0973-3.6095 1.317-2.3413 1.4633-6.78h-4.9753z"/>
  </g>
  <path d="m340.98 373.83a1.4347 1.4354 0 0 1 -1.4347 1.4354 1.4347 1.4354 0 0 1 -1.4347 -1.4354 1.4347 1.4354 0 0 1 1.4347 -1.4354 1.4347 1.4354 0 0 1 1.4347 1.4354z" style="color-rendering:auto;fill-rule:evenodd;color:#000000;isolation:auto;mix-blend-mode:normal;shape-rendering:auto;solid-color:#000000;image-rendering:auto;fill:#f9f9f9"/>
  <path d="m340.85 373.83a.67385 .67415 0 0 1 -.67385 .67415 .67385 .67415 0 0 1 -.67384 -.67415 .67385 .67415 0 0 1 .67384 -.67415 .67385 .67415 0 0 1 .67385 .67415z" style="color-rendering:auto;fill-rule:evenodd;color:#000000;isolation:auto;mix-blend-mode:normal;shape-rendering:auto;solid-color:#000000;image-rendering:auto"/>
  <path d="m346.08 373.83a1.4347 1.4354 0 0 1 -1.4347 1.4354 1.4347 1.4354 0 0 1 -1.4347 -1.4354 1.4347 1.4354 0 0 1 1.4347 -1.4354 1.4347 1.4354 0 0 1 1.4347 1.4354z" style="color-rendering:auto;fill-rule:evenodd;color:#000000;isolation:auto;mix-blend-mode:normal;shape-rendering:auto;solid-color:#000000;image-rendering:auto;fill:#f9f9f9"/>
  <path d="m345.95 373.78a.67385 .67415 0 0 1 -.67385 .67415 .67385 .67415 0 0 1 -.67385 -.67415 .67385 .67415 0 0 1 .67385 -.67416 .67385 .67415 0 0 1 .67385 .67416z" style="color-rendering:auto;fill-rule:evenodd;color:#000000;isolation:auto;mix-blend-mode:normal;shape-rendering:auto;solid-color:#000000;image-rendering:auto"/>
  <path d="m337.99 372.55s1.8033-1.1796 2.8436-.41632" style="stroke:#000;stroke-width:.16213;fill:none"/>
  <path d="m346.4 371.93s-1.8033-1.1796-2.8436-.41633" style="stroke:#000;stroke-width:.16213;fill:none"/>
  <path d="m338.86 377.96c-.047.0491-.0628.12818-.0484.22977.26938.18986 1.0239.73616 2.0881 1.023 1.3201.35587 3.0808.30353 4.9653-1.2528-1.9306 1.497-3.6715 1.444-4.9007 1.037-1.0009-.33146-1.6856-.90483-1.888-1.1175-.0962.007-.16935.0314-.21635.0805z" style="fill-rule:evenodd"/>
  <path d="m341.95 376.27c-.0253-.0389-.0527-.0764-.0821-.11261-.0464.0477-.25397.19124-.44927.38638-.0975.0974-.19289.21033-.22718.31561-.0179.0551-.023.11995.0124.17782.0343.0562.0946.0855.16265.10075.25129.0554.68387.0414.99624-.0285.15668-.035.28867-.0854.35211-.15133.0326-.0339.0467-.0715.0368-.1107-.01-.0376-.0409-.0754-.0951-.11473.0517.0448.0749.0846.0776.11778.003.0316-.0134.0581-.0433.0814-.0618.0484-.18559.0849-.34108.10765-.31041.0454-.72803.0322-.94646-.039-.0504-.0168-.0593-.0351-.0592-.0404-.000010.00091.002-.0155.0135-.0373.0292-.0572.10119-.1346.20551-.22204.1825-.15298.41572-.29631.45805-.311-.0222-.0409-.0458-.0809-.0711-.11984z" style="fill-rule:evenodd"/>
  <path d="m333.07 370.75.57435.2028.27028-.60841" style="stroke:#000;stroke-width:.081069;fill:none"/>
  <path d="m333.61 370.92-.30407-.69556" style="stroke:#000;stroke-width:.081069;fill:none"/>
  <path d="m351.16 370.62-.57435.2028-.27028-.60841" style="stroke:#000;stroke-width:.081069;fill:none"/>
  <path d="m350.62 370.78.30407-.69556" style="stroke:#000;stroke-width:.081069;fill:none"/>
 </g>
 <g transform="matrix(2.467 0 0 2.4671 810.65 -674.22)">
  <path d="m342.37 390.9-.75696 6.6882a.24954 .10018 71.166 0 0 .2472 .28732c0-.0417-.24919-.0624-.54047-.0385a.11833 .13214 35.501 0 0 -.0275 -.24695c-.29164.10838-.62386.26358-.7656.476.19108-.14401.53352-.20962.8205-.2321l-.0274-.24695c.29128-.10723.54047-.16987.54047-.21154l.2472.28732 1.2514-6.6135z" style="fill-rule:evenodd"/>
  <path d="m337.93 390.9-.74413 6.5748c-.0934.0315-.20992.0693-.33355.11529-.29164.10838-.62385.26358-.7656.476.19109-.14401.53353-.20962.8205-.2321.29088-.0228.53729-.0010.53399.0406l.22623-.2118 1.2514-6.6135z" style="fill-rule:evenodd"/>
  <path d="m338.26 377.39-3.1539-2.5531-1.5859-4.4873 1.1342 4.7078a.26557 .12279 33.17 0 0 .0709 .11336l2.8594 2.9569z" style="fill-rule:evenodd"/>
  <path d="m346.34 379.6 3.0443-3.4352a.12696 .26707 55.266 0 0 .0637 -.11099l1.2204-5.5159-1.6797 5.3118-3.3598 3.0474z" style="fill-rule:evenodd"/>
  <g style="fill:#ffa809" transform="scale(.99978 1.0002)">
   <path d="m337.27 380.45v-9.9993h9.9993v9.9993q0 5.5118-1.9511 8.8774-1.9511 3.4144-6.1947 5.2679l-2.4389-3.7558q2.7803-1.2194 4.0973-3.6095 1.317-2.3413 1.4633-6.78h-4.9753z"/>
  </g>
  <path d="m340.98 373.83a1.4347 1.4354 0 0 1 -1.4347 1.4354 1.4347 1.4354 0 0 1 -1.4347 -1.4354 1.4347 1.4354 0 0 1 1.4347 -1.4354 1.4347 1.4354 0 0 1 1.4347 1.4354z" style="color-rendering:auto;fill-rule:evenodd;color:#000000;isolation:auto;mix-blend-mode:normal;shape-rendering:auto;solid-color:#000000;image-rendering:auto;fill:#f9f9f9"/>
  <path d="m340.85 373.83a.67385 .67415 0 0 1 -.67385 .67415 .67385 .67415 0 0 1 -.67384 -.67415 .67385 .67415 0 0 1 .67384 -.67415 .67385 .67415 0 0 1 .67385 .67415z" style="color-rendering:auto;fill-rule:evenodd;color:#000000;isolation:auto;mix-blend-mode:normal;shape-rendering:auto;solid-color:#000000;image-rendering:auto"/>
  <path d="m346.08 373.83a1.4347 1.4354 0 0 1 -1.4347 1.4354 1.4347 1.4354 0 0 1 -1.4347 -1.4354 1.4347 1.4354 0 0 1 1.4347 -1.4354 1.4347 1.4354 0 0 1 1.4347 1.4354z" style="color-rendering:auto;fill-rule:evenodd;color:#000000;isolation:auto;mix-blend-mode:normal;shape-rendering:auto;solid-color:#000000;image-rendering:auto;fill:#f9f9f9"/>
  <path d="m345.95 373.78a.67385 .67415 0 0 1 -.67385 .67415 .67385 .67415 0 0 1 -.67385 -.67415 .67385 .67415 0 0 1 .67385 -.67416 .67385 .67415 0 0 1 .67385 .67416z" style="color-rendering:auto;fill-rule:evenodd;color:#000000;isolation:auto;mix-blend-mode:normal;shape-rendering:auto;solid-color:#000000;image-rendering:auto"/>
  <path d="m337.99 372.55s1.8033-1.1796 2.8436-.41632" style="stroke:#000;stroke-width:.16213;fill:none"/>
  <path d="m346.4 371.93s-1.8033-1.1796-2.8436-.41633" style="stroke:#000;stroke-width:.16213;fill:none"/>
  <path d="m338.86 377.96c-.047.0491-.0628.12818-.0484.22977.26938.18986 1.0239.73616 2.0881 1.023 1.3201.35587 3.0808.30353 4.9653-1.2528-1.9306 1.497-3.6715 1.444-4.9007 1.037-1.0009-.33146-1.6856-.90483-1.888-1.1175-.0962.007-.16935.0314-.21635.0805z" style="fill-rule:evenodd"/>
  <path d="m341.95 376.27c-.0253-.0389-.0527-.0764-.0821-.11261-.0464.0477-.25397.19124-.44927.38638-.0975.0974-.19289.21033-.22718.31561-.0179.0551-.023.11995.0124.17782.0343.0562.0946.0855.16265.10075.25129.0554.68387.0414.99624-.0285.15668-.035.28867-.0854.35211-.15133.0326-.0339.0467-.0715.0368-.1107-.01-.0376-.0409-.0754-.0951-.11473.0517.0448.0749.0846.0776.11778.003.0316-.0134.0581-.0433.0814-.0618.0484-.18559.0849-.34108.10765-.31041.0454-.72803.0322-.94646-.039-.0504-.0168-.0593-.0351-.0592-.0404-.000010.00091.002-.0155.0135-.0373.0292-.0572.10119-.1346.20551-.22204.1825-.15298.41572-.29631.45805-.311-.0222-.0409-.0458-.0809-.0711-.11984z" style="fill-rule:evenodd"/>
  <path d="m333.07 370.75.57435.2028.27028-.60841" style="stroke:#000;stroke-width:.081069;fill:none"/>
  <path d="m333.61 370.92-.30407-.69556" style="stroke:#000;stroke-width:.081069;fill:none"/>
  <path d="m351.16 370.62-.57435.2028-.27028-.60841" style="stroke:#000;stroke-width:.081069;fill:none"/>
  <path d="m350.62 370.78.30407-.69556" style="stroke:#000;stroke-width:.081069;fill:none"/>
 </g>
 <text id="t" style="letter-spacing:0px;font-weight:100;font-size:355.32px;word-spacing:0px;font-family:&apos;AR CENA&apos;;line-height:125%;fill:#5bec8f" transform="scale(-1)" y="-72.661995" x="-2002.1403" xml:space="preserve"><tspan y="-72.661995" x="-2002.1403">[</tspan></text>
 <use xlink:href="#c" transform="translate(-8.8507 448.94)" height="100%" width="100%" y="0" x="0"/>
 <use xlink:href="#h" transform="translate(41.698 448.94)" height="100%" width="100%" y="0" x="0"/>
 <use xlink:href="#l" transform="translate(92.904 448.94)" height="100%" width="100%" y="0" x="0"/>
 <use xlink:href="#m" transform="translate(142.92 448.94)" height="100%" width="100%" y="0" x="0"/>
 <use xlink:href="#n" transform="translate(194.29 448.94)" height="100%" width="100%" y="0" x="0"/>
 <use xlink:href="#s" transform="translate(0,448.94)" height="100%" width="100%" y="0" x="0"/>
 <use xlink:href="#o" transform="translate(16.809 448.94)" height="100%" width="100%" y="0" x="0"/>
 <use xlink:href="#p" transform="translate(74.948 448.94)" height="100%" width="100%" y="0" x="0"/>
 <use xlink:href="#q" transform="translate(90.181 448.94)" height="100%" width="100%" y="0" x="0"/>
 <use xlink:href="#r" transform="translate(161.31 448.94)" height="100%" width="100%" y="0" x="0"/>
 <use xlink:href="#t" transform="translate(-.00023773 448.94)" height="100%" width="100%" y="0" x="0"/>
</svg>
