<svg xmlns:rdf="http://www.w3.org/1999/02/22-rdf-syntax-ns#" xmlns="http://www.w3.org/2000/svg" height="84.761mm" width="67.301mm" version="1.1" xmlns:cc="http://creativecommons.org/ns#" xmlns:dc="http://purl.org/dc/elements/1.1/" viewBox="0 0 238.46782 300.33409">
 <g transform="translate(336.7 397.5)">
  <path style="stroke-linejoin:round;stroke:#3980fb;stroke-linecap:round;stroke-width:1.5;fill:none" d="m-249.38-387.66v110.63s.18286 3.8847-7.7269 3.8847h-71.1s-7.8646.14247-7.7402-3.9678v-116s-.13183-3.6444 7.8227-3.6444h71.002s7.9034-.0716 7.9034 3.6769v2.9554"/>
  <path style="stroke-linejoin:round;stroke:#3980fb;stroke-linecap:round;stroke-width:2;fill:none" d="m-319.95-358.15h20.7"/>
  <path style="stroke-linejoin:round;stroke:#3980fb;stroke-linecap:round;stroke-width:2;fill:none" d="m-319.88-342.68h35.335"/>
  <path style="stroke-linejoin:round;stroke:#3980fb;stroke-linecap:round;stroke-width:2;fill:none" d="m-319.88-327.21h48.136"/>
  <path style="stroke-linejoin:round;stroke:#3980fb;stroke-linecap:round;stroke-width:2;fill:none" d="m-319.88-311.73h41.124"/>
  <path style="stroke-linejoin:round;stroke:#3980fb;stroke-linecap:round;stroke-width:2;fill:none" d="m-294.13-358.15h23.126"/>
  <path style="stroke:#3980fb;stroke-width:1.5;fill:none" d="m-335.61-362.97 26.857-33.648"/>
  <text style="letter-spacing:0px;font-size:6.7418px;word-spacing:0px;font-family:sans-serif;line-height:125%;fill:#3980fb" xml:space="preserve" transform="matrix(.70418 -.71005 .70418 .71005 0 0)" y="-501.96445" x="29.882532"><tspan x="29.882532" y="-501.96445">.docx</tspan></text>
  <path d="m-99.145-387.66v110.63s.18286 3.8847-7.7269 3.8847h-71.1s-7.8646.14247-7.7402-3.9678v-116s-.13184-3.6444 7.8227-3.6444h71.002s7.9034-.0716 7.9034 3.6769v2.9554" style="stroke-linejoin:round;stroke:#029d54;stroke-linecap:round;stroke-width:1.5;fill:none"/>
  <path style="stroke:#029d54;stroke-width:1.5;fill:none" d="m-185.37-362.97 26.857-33.648"/>
  <text style="letter-spacing:0px;font-size:6.7418px;word-spacing:0px;font-family:sans-serif;line-height:125%;fill:#029d54" transform="matrix(.70418 -.71005 .70418 .71005 0 0)" xml:space="preserve" y="-395.28809" x="136.55881"><tspan y="-395.28809" x="136.55881">.xlsx</tspan></text>
  <path style="stroke-linejoin:round;stroke:#029d54;stroke-linecap:round;stroke-width:1.5;fill:none" d="m-171.71-357.46h58.805v45.023h-58.888z"/>
  <path style="stroke:#029d54;stroke-width:1.5;fill:none" d="m-159.6-357.51v44.736"/>
  <path d="m-112.55-348.3h-59.7" style="stroke:#029d54;stroke-width:1.5;fill:none"/>
  <path style="stroke:#029d54;stroke-width:1.5;fill:none" d="m-112.55-338.99h-59.7"/>
  <path d="m-112.55-329.67h-59.7" style="stroke:#029d54;stroke-width:1.5;fill:none"/>
  <path style="stroke:#029d54;stroke-width:1.5;fill:none" d="m-112.55-320.36h-59.7"/>
  <path style="stroke-linejoin:round;stroke:#fb395c;stroke-linecap:round;stroke-width:1.5;fill:none" d="m-174.26-212.44v110.63s.18287 3.8847-7.7269 3.8847h-71.1s-7.8645.14247-7.7402-3.9678v-116s-.13183-3.6444 7.8227-3.6444h71.002s7.9034-.0716 7.9034 3.6769v2.9554"/>
  <path style="stroke:#fb395c;stroke-width:1.5;fill:none" d="m-260.49-187.75 26.857-33.648"/>
  <text style="letter-spacing:0px;font-size:6.7418px;word-spacing:0px;font-family:sans-serif;line-height:125%;fill:#fb395c" xml:space="preserve" transform="matrix(.70418 -.71005 .70418 .71005 0 0)" y="-325.24066" x="-40.165001"><tspan x="-40.165001" y="-325.24066">.mp3</tspan></text>
  <g transform="translate(-.000024618 2.5031)">
   <rect style="stroke-linejoin:round;color-rendering:auto;color:#000000;shape-rendering:auto;solid-color:#000000;stroke:#fb395c;stroke-linecap:round;stroke-width:1.5;fill:#fb395c;fill-rule:evenodd;mix-blend-mode:normal;image-rendering:auto;isolation:auto" height="16.236" width="5.4138" y="-167.84" x="-244.64"/>
   <path d="m-235.4-167.37 22.516-15.833v41.952l-22.516-11.068z" style="stroke-linejoin:round;color-rendering:auto;color:#000000;shape-rendering:auto;solid-color:#000000;stroke:#fb395c;stroke-linecap:round;stroke-width:1.5;fill:#fb395c;fill-rule:evenodd;mix-blend-mode:normal;image-rendering:auto;isolation:auto"/>
   <path d="m-209.11-168.97a8.7676 9.2485 0 0 1 8.7676 9.2485 8.7676 9.2485 0 0 1 -8.7676 9.2485" style="stroke-linejoin:round;color-rendering:auto;color:#000000;shape-rendering:auto;solid-color:#000000;stroke:#fb395c;stroke-linecap:round;stroke-width:1.5;fill:none;mix-blend-mode:normal;image-rendering:auto;isolation:auto"/>
   <path style="stroke-linejoin:round;color-rendering:auto;color:#000000;shape-rendering:auto;solid-color:#000000;stroke:#fb395c;stroke-linecap:round;stroke-width:1.5;fill:none;mix-blend-mode:normal;image-rendering:auto;isolation:auto" d="m-206.58-176.17a16.292 16.448 0 0 1 16.292 16.448 16.292 16.448 0 0 1 -16.292 16.448"/>
  </g>
  <path style="stroke-linejoin:round;stroke:#3980fb;stroke-linecap:round;stroke-width:2;fill:none" d="m-281.51-342.68h8.6663"/>
 </g>
</svg>
