<svg xmlns:rdf="http://www.w3.org/1999/02/22-rdf-syntax-ns#" xmlns="http://www.w3.org/2000/svg" height="57.945mm" width="62.6mm" version="1.1" xmlns:cc="http://creativecommons.org/ns#" xmlns:dc="http://purl.org/dc/elements/1.1/" viewBox="0 0 221.80983 205.31636">
 <path style="stroke-linejoin:round;stroke:#848484;stroke-linecap:round;stroke-width:5;fill:none" d="m212.91 33.767h-210.41v163.05h210.81v-150.6"/>
 <g style="fill:#4d4d4d">
  <path style="" d="m128.06 141.42q3.3691 0 5.7861-1.9775 2.4536-1.9775 2.4536-5.6762 0-2.8198-1.9409-4.8339-1.9409-2.0508-5.2368-2.0508-2.2338 0-3.6987.62255-1.4282.62255-2.2705 1.6479-.84227 1.0254-1.6113 2.6367-.73242 1.6113-1.355 3.0395-.3662.76903-1.3183 1.2085-.95213.43945-2.1972.43945-1.4648 0-2.7099-1.1719-1.2085-1.2085-1.2085-3.186 0-1.9043 1.1352-3.9916 1.1719-2.124 3.3691-4.0283 2.2338-1.9043 5.5297-3.0395 3.2958-1.1719 7.3607-1.1719 3.5522 0 6.4818.98876 2.9296.95214 5.0903 2.7832 2.1606 1.831 3.2592 4.248t1.0986 5.2001q0 3.6621-1.6113 6.2988-1.5747 2.6001-4.541 5.0903 2.8564 1.5381 4.7973 3.5156 1.9775 1.9775 2.9663 4.3945.98876 2.3803.98876 5.1635 0 3.3325-1.355 6.4452-1.3183 3.1128-3.9184 5.5663-2.6001 2.417-6.1889 3.8085-3.5522 1.355-7.8734 1.355-4.3945 0-7.8734-1.5747-3.479-1.5747-5.7494-3.9184-2.2339-2.3803-3.4057-4.9072-1.1352-2.5268-1.1352-4.1748 0-2.124 1.355-3.4057 1.3916-1.3183 3.4423-1.3183 1.0254 0 1.9775.62255.95213.58593 1.2451 1.4282 1.9043 5.0903 4.0649 7.5805 2.1972 2.4536 6.1523 2.4536 2.2705 0 4.3578-1.0986 2.124-1.1352 3.479-3.3325 1.3916-2.1972 1.3916-5.0903 0-4.2846-2.3437-6.7016-2.3437-2.4536-6.5185-2.4536-.73241 0-2.2705.14649-1.5381.14648-1.9775.14648-2.0141 0-3.1128-.98876-1.0986-1.0254-1.0986-2.8198 0-1.7578 1.3183-2.8198 1.3184-1.0986 3.9184-1.0986h1.5014zm-48.339 23.767h19.116q2.8564 0 4.3578 1.1719t1.5014 3.186q0 1.7944-1.2085 3.0395-1.1719 1.2451-3.5888 1.2451h-26.953q-2.7465 0-4.2846-1.5014-1.5381-1.5381-1.5381-3.5888 0-1.3183.98876-3.479.98876-2.1972 2.1606-3.4423 4.8705-5.0536 8.7889-8.6425 3.9184-3.6254 5.603-4.7607 3.0029-2.124 4.9804-4.248 2.0141-2.1606 3.0395-4.3945 1.062-2.2705 1.062-4.4311 0-2.3437-1.1352-4.1748-1.0986-1.8676-3.0395-2.893-1.9043-1.0254-4.1747-1.0254-4.7973 0-7.5438 4.2114-.36621.54931-1.2451 3.0029-.84227 2.4536-1.9409 3.7719-1.062 1.3183-3.1494 1.3183-1.831 0-3.0395-1.2085t-1.2085-3.2958q0-2.5268 1.1352-5.2734t3.3691-4.9804q2.2705-2.2339 5.7128-3.5888 3.479-1.3916 8.1298-1.3916 5.603 0 9.558 1.7578 2.5634 1.1719 4.5043 3.2226 1.9409 2.0508 3.0029 4.7607 1.0986 2.6733 1.0986 5.5663 0 4.541-2.2705 8.2762-2.2339 3.6987-4.5776 5.8227-2.3437 2.0874-7.8734 6.5917-5.4931 4.5043-7.5438 6.9945-.87889.98876-1.7944 2.3803zm111.92-88.791v4.1748q0 1.5198-.71411 2.2888-.71412.75073-1.8128.75073-1.0803 0-1.7761-.76904t-.6958-2.2705v-13.916q0-3.3691 2.4353-3.3691 1.2451 0 1.7944.78735.54932.78735.60425 2.3254.89722-1.5381 1.8311-2.3254.95214-.78735 2.5268-.78735t3.0579.78735 1.4832 2.0874q0 .91553-.64087 1.5198-.62256.58594-1.355.58594-.27466 0-1.3367-.32959-1.0437-.34790-1.8494-.34790-1.0986 0-1.7944.58594-.6958.56763-1.0803 1.7029-.38452 1.1353-.53101 2.71-.14648 1.5564-.14648 3.8086zm-13.275-1.7212h-9.7778q.0183 1.7029.67749 3.0029.67749 1.3 1.7761 1.9592 1.1169.65918 2.4536.65918.89722 0 1.6296-.20142.75074-.21973 1.4465-.65918.6958-.45776 1.2817-.97046.58594-.51270 1.5198-1.3916.38452-.32959 1.0986-.32959.76905 0 1.2451.42114.47607.42114.47607 1.1902 0 .67749-.531 1.593-.53101.89722-1.6113 1.7395-1.062.82397-2.6916 1.3733-1.6113.54932-3.717.54932-4.8157 0-7.489-2.7466t-2.6733-7.4524q0-2.2156.65917-4.1016.65918-1.9043 1.9226-3.2593t3.1128-2.0691q1.8494-.73242 4.1016-.73242 2.9297 0 5.0171 1.2451 2.1057 1.2268 3.1494 3.186t1.0437 3.9917q0 1.886-1.0803 2.4536-1.0803.54932-3.0396.54932zm-9.7778-2.8381h9.0637q-.18311-2.5635-1.3916-3.8269-1.1902-1.2817-3.1494-1.2817-1.8677 0-3.0762 1.3-1.1902 1.2817-1.4465 3.8086zm-22.998-13.129v7.6355q1.4099-1.4648 2.8748-2.2339 1.4648-.78735 3.6255-.78735 2.4902 0 4.3579 1.1902 1.886 1.1719 2.9114 3.4241 1.0437 2.2339 1.0437 5.3101 0 2.2705-.58593 4.1748-.56763 1.886-1.6663 3.2776-1.0986 1.3916-2.6733 2.1606-1.5564.75073-3.4424.75073-1.1536 0-2.179-.27466-1.0071-.27466-1.7212-.71411-.71411-.45776-1.2268-.93384-.49438-.47608-1.3184-1.4282v.49438q0 1.4099-.67749 2.1423-.67749.71411-1.7212.71411-1.062 0-1.7029-.71411-.62256-.73242-.62256-2.1423v-21.826q0-1.5198.60425-2.2888.62256-.78735 1.7212-.78735 1.1536 0 1.7761.75073.62256.73242.62256 2.1057zm.23804 14.85q0 2.9846 1.355 4.5959 1.3733 1.593 3.5889 1.593 1.886 0 3.241-1.6296 1.3733-1.6479 1.3733-4.7058 0-1.9775-.56762-3.4058-.56763-1.4282-1.6113-2.1973-1.0437-.78735-2.4353-.78735-1.4282 0-2.5452.78735-1.1169.76904-1.7578 2.2522-.64087 1.4648-.64087 3.4973zm-21.405.25635v6.6467q0 1.5747-.71411 2.3621-.71411.78735-1.886.78735-1.1352 0-1.8494-.78735-.6958-.78735-.6958-2.3621v-7.9651q0-1.886-.12818-2.9297-.12817-1.0437-.6958-1.7029-.56763-.67749-1.7944-.67749-2.4536 0-3.241 1.6846-.76904 1.6846-.76904 4.834v6.7566q0 1.5564-.71411 2.3621-.6958.78735-1.8494.78735-1.1352 0-1.8677-.78735-.71411-.80566-.71411-2.3621v-14.301q0-1.4099.64087-2.1423.65918-.73242 1.7212-.73242 1.0254 0 1.7029.69580.69581.67749.69581 1.886v.47607q1.3-1.5564 2.7832-2.2888 1.4832-.73242 3.2959-.73242 1.886 0 3.241.75073t2.2339 2.2705q1.2634-1.5381 2.71-2.2705 1.4465-.75073 3.2044-.75073 2.0508 0 3.5339.80566 1.4832.80566 2.2156 2.3071.64087 1.355.64087 4.2664v9.7595q0 1.5747-.71411 2.3621-.71411.78735-1.886.78735-1.1352 0-1.8677-.78735-.71411-.80566-.71411-2.3621v-8.4045q0-1.6113-.14648-2.5818-.12817-.97046-.73242-1.6296-.60425-.65918-1.8311-.65918-.98877 0-1.886.58594-.87891.58594-1.3733 1.5747-.54932 1.2634-.54932 4.4678zm-24.976.86060h-9.7778q.01831 1.7029.67749 3.0029.67749 1.3 1.7761 1.9592 1.1169.65918 2.4536.65918.89722 0 1.6296-.20142.75073-.21973 1.4465-.65918.69580-.45776 1.2817-.97046.58594-.51270 1.5198-1.3916.38452-.32959 1.0986-.32959.76904 0 1.2451.42114.47608.42114.47608 1.1902 0 .67749-.53101 1.593-.531.89722-1.6113 1.7395-1.062.82397-2.6916 1.3733-1.6113.54932-3.717.54932-4.8157 0-7.489-2.7466t-2.6733-7.4524q0-2.2156.65918-4.1016.65918-1.9043 1.9226-3.2593t3.1128-2.0691q1.8494-.73242 4.1016-.73242 2.9297 0 5.0171 1.2451 2.1057 1.2268 3.1494 3.186t1.0437 3.9917q0 1.886-1.0803 2.4536-1.0803.54932-3.0395.54932zm-9.7778-2.8381h9.0637q-.18311-2.5635-1.3916-3.8269-1.1902-1.2817-3.1494-1.2817-1.8677 0-3.0762 1.3-1.1902 1.2817-1.4465 3.8086zm-20.48-5.446 4.047 11.353 4.358-11.847q.51270-1.4282 1.0071-2.0142.49438-.60425 1.5015-.60425.95215 0 1.6113.64087.67749.64087.67749 1.4832 0 .32959-.12817.76904-.10986.43945-.27466.82398-.14648.38452-.3479.87891l-4.7974 11.902q-.20142.51270-0.531 1.3-.31128.78735-.71411 1.355-.38452.54932-.97046.86060-.56763.31128-1.3916.31128-1.062 0-1.7029-.47607-.62256-.49438-.93384-1.062-.29297-.58594-1.0071-2.2888l-4.762-11.774q-.16480-.43945-.34790-.87891-.16480-.43945-.29297-.89722-.10986-.45776-.10986-.78735 0-.51270.31128-1.0071.31128-.51270.86060-.82397.54932-.32959 1.1902-.32959 1.2451 0 1.7029.71411.47607.71411 1.0437 2.3987zm-6.9763 7.0496q0 2.2339-.69580 4.1199t-2.0142 3.241-3.1494 2.0874q-1.8311.71411-4.1199.71411-2.2705 0-4.0833-.73242-1.8127-.73242-3.1494-2.0874-1.3184-1.3733-2.0142-3.2227-.67749-1.8677-.67749-4.1199 0-2.2705.69580-4.1565t1.9958-3.2227 3.1494-2.0508q1.8494-.73242 4.0833-.73242 2.2705 0 4.1199.73242t3.1677 2.0874q1.3184 1.355 1.9958 3.2227.69580 1.8677.69580 4.1199zm-5.0171 0q0-3.0579-1.355-4.7607-1.3367-1.7029-3.6072-1.7029-1.4648 0-2.5818.76904-1.1169.75073-1.7212 2.2339-.60425 1.4832-.60425 3.4607 0 1.9592.58594 3.4241.60425 1.4648 1.7029 2.2522 1.1169.76904 2.6184.76904 2.2705 0 3.6072-1.7029 1.355-1.7212 1.355-4.7424zm-34.753-14.337l10.455 15.82v-15.967q0-1.5564.65918-2.3254.67749-.78735 1.8127-.78735 1.1719 0 1.8494.78735.67749.76904.67749 2.3254v21.112q0 3.5339-2.9297 3.5339-.73242 0-1.3184-.21973-.58594-.20142-1.0986-.65918-.51270-.45776-.95215-1.062-.43945-.62256-.87891-1.2634l-10.199-15.637v15.729q0 1.5381-.71411 2.3254-.71411.78735-1.8311.78735-1.1536 0-1.8494-.78735-.69580-.80566-.69580-2.3254v-20.709q0-1.3184.29297-2.0691.3479-.82398 1.1536-1.3367.80566-.53101 1.7395-.53101.73242 0 1.2451.23804 0.531.23804.91553.64087.40283.40283.80566 1.0437.42114.64087.86060 1.3367z"/>
 </g>
 <path style="stroke-linejoin:round;fill-rule:evenodd;stroke:#848484;stroke-linecap:round;stroke-width:5;fill:#afc" d="m2.899 33.778h210.41v-31.278h-210.81v21.602"/>
 <ellipse style="stroke-linejoin:round;color-rendering:auto;color:#000000;isolation:auto;mix-blend-mode:normal;shape-rendering:auto;solid-color:#000000;stroke:#848484;stroke-linecap:round;image-rendering:auto;stroke-width:5;fill:none" rx="5.1989" ry="4.9294" cy="16.924" cx="36.174"/>
 <ellipse style="stroke-linejoin:round;color-rendering:auto;color:#000000;isolation:auto;mix-blend-mode:normal;shape-rendering:auto;solid-color:#000000;stroke:#848484;stroke-linecap:round;image-rendering:auto;stroke-width:5;fill:none" rx="5.1989" ry="4.9294" cy="16.924" cx="179.64"/>
 <path style="stroke-linejoin:round;stroke:#f2f2f2;stroke-linecap:round;stroke-width:5;fill:none" d="m136.5 202.82h82.811v-82.605"/>
</svg>
