<svg  xmlns="http://www.w3.org/2000/svg" height="100%" width="100%" xmlns:xlink="http://www.w3.org/1999/xlink" viewBox="0 0 756.6302 1252.9764" ><style>svg{font-family:sans-serif}</style><defs><marker id="f" refY="0" refX="0" style="overflow:visible" orient="auto"><path d="m8.7186 4.0337-10.926-4.0177 10.926-4.0177c-1.7455 2.3721-1.7354 5.6175-6e-7 8.0354z" style="stroke-linejoin:round;stroke-opacity:.96078;stroke:#696969;stroke-width:.625;fill:#f7df79" transform="matrix(-1.1,0,0,-1.1,-1.1,0)"/></marker><marker id="g" refY="0" refX="0" style="overflow:visible" orient="auto"><path d="m8.7186 4.0337-10.926-4.0177 10.926-4.0177c-1.7455 2.3721-1.7354 5.6175-6e-7 8.0354z" style="stroke-linejoin:round;stroke-opacity:.96078;stroke:#696969;stroke-width:.625;fill:#f7df79" transform="matrix(-1.1,0,0,-1.1,-1.1,0)"/></marker><marker id="i" refY="0" refX="0" style="overflow:visible" orient="auto"><path style="stroke-linejoin:round;stroke-opacity:.96078;stroke:#696969;stroke-width:.625;fill:#f7df79" transform="matrix(-1.1,0,0,-1.1,-1.1,0)" d="m8.7186 4.0337-10.926-4.0177 10.926-4.0177c-1.7455 2.3721-1.7354 5.6175-6e-7 8.0354z"/></marker><marker id="h" refY="0" refX="0" style="overflow:visible" orient="auto"><path d="m8.7186 4.0337-10.926-4.0177 10.926-4.0177c-1.7455 2.3721-1.7354 5.6175-6e-7 8.0354z" style="stroke-linejoin:round;stroke-opacity:.96078;stroke:#696969;stroke-width:.625;fill:#f7df79" transform="matrix(-1.1,0,0,-1.1,-1.1,0)"/></marker></defs><g transform="translate(180.41 -164.45)"><rect style="stroke-linejoin:round;color:#000000;solid-color:#000000;stroke:#696969;stroke-linecap:round;stroke-width:3.0924;fill:#fff987" transform="matrix(.81797 .57526 -.81797 .57526 0 0)" rx="0" ry="0" height="133.86" width="133.86" y="521.24" x="625.16"/><rect style="stroke-linejoin:round;color:#000000;solid-color:#000000;stroke:#696969;stroke-linecap:round;stroke-width:2.9999;fill:#ffa27b" rx="23.963" ry="31.995" height="63.99" width="194.6" y="1351.9" x="-11.794"/><rect style="stroke-linejoin:round;color:#000000;solid-color:#000000;stroke:#696969;stroke-linecap:round;stroke-width:2.9999;fill:#e0ff87" rx="23.963" ry="31.995" height="63.99" width="194.6" y="165.95" x="-12.296"/><text style="font-size:17.5px;fill:#000000" y="210.66704" x="27.72057"><tspan y="210.66704" x="27.72057" style="font-size:34.999px">START</tspan></text><text style="font-size:17.5px;fill:#000000" y="1396.6532" x="38.202763"><tspan y="1396.6532" x="38.202763" style="font-size:34.999px">STOP</tspan></text><path style="marker-end:url(#f);stroke-opacity:.96078;stroke:#696969;stroke-width:2;fill:#f7df79" d="m84.982 232.48v96.49"/><path style="marker-end:url(#g);stroke-opacity:.96078;stroke:#696969;stroke-width:2;fill:#f7df79" d="m85.002 814.48v70.358"/><text style="font-size:17.5px;fill:#000000" y="599.64832" x="-128.23271"><tspan y="599.64832" x="-128.23271"/></text><text style="font-size:17.5px;fill:#000000" y="745.78766" x="26.12886"><tspan style="font-size:25px">Condition</tspan></text><path style="marker-end:url(#i);stroke-opacity:.96078;stroke:#696969;stroke-width:2;fill:#f7df79" d="m84.982 1244.5v98.49"/><path style="marker-end:url(#h);stroke-opacity:.96078;stroke:#696969;stroke-width:2;fill:#f7df79" d="m396.22 1220.6h-190.48"/><use xlink:href="#e" transform="translate(-1.0746 553.99)" height="100%" width="100%" y="0" x="0"/><text style="font-size:17.5px;fill:#000000" y="927.38489" x="83.380798"><tspan y="927.38489" x="83.380798" style="font-size:24.999px;text-anchor:middle;text-align:center">Body of Loop</tspan></text><text style="font-size:17.5px;fill:#ff5353" y="727.38977" x="281.37595"><tspan y="727.38977" x="281.37595" style="font-size:24.999px;text-align:center;text-anchor:middle;fill:#ff5353">FALSE</tspan></text><text style="font-size:17.5px;fill:#39cb63" y="850.25342" x="141.37939"><tspan y="850.25342" x="141.37939" style="font-size:24.999px;text-align:center;text-anchor:middle;fill:#39cb63">TRUE</tspan></text><use xlink:href="#e" transform="translate(-.0000020722 690)" height="100%" width="100%" y="0" x="0"/><use xlink:href="#e" transform="translate(.0000029267 850)" height="100%" width="100%" y="0" x="0"/><path style="stroke:#696969;stroke-width:2;stroke-opacity:.96078;fill:none" d="m395.73 1016.7v204.25m-202.14-485.15h202.08l.0623 299.25"/><rect id="e" style="stroke-linejoin:round;color:#000000;solid-color:#000000;stroke:#696969;stroke-linecap:round;stroke-width:2.9999;fill:#c4e4ff" rx="0" ry="0" height="53.762" width="220.33" y="339.47" x="-25.15"/><text style="font-size:17.5px;fill:#000000" y="375.41125" x="84.717804"><tspan y="375.41125" x="84.717804" style="font-size:24.999px;text-anchor:middle;text-align:center">Statements</tspan></text><path style="marker-end:url(#f);stroke-opacity:.96078;stroke:#696969;stroke-width:2;fill:#f7df79" d="m84.982 392.48v96.49"/><use xlink:href="#e" transform="translate(7.581e-7 160)" height="100%" width="100%" y="0" x="0"/><text style="font-size:17.5px;fill:#000000" y="535.6554" x="85.261002"><tspan y="535.6554" x="85.261002" style="font-size:24.999px;text-anchor:middle;text-align:center">Initialization</tspan></text><path style="marker-end:url(#f);stroke-opacity:.96078;stroke:#696969;stroke-width:2;fill:#f7df79" d="m84.982 552.48v96.49"/><text style="font-size:17.5px;fill:#000000" y="1065.277" x="84.443146"><tspan y="1065.277" x="84.443146" style="font-size:24.999px;text-anchor:middle;text-align:center">Increment</tspan></text><path style="marker-end:url(#g);stroke-opacity:.96078;stroke:#696969;stroke-width:2;fill:#f7df79" d="m85.002 948.48v70.358"/><path style="marker-end:url(#h);stroke-opacity:.96078;stroke:#696969;stroke-width:2;fill:#f7df79" d="m-179.91 736.37h144.48"/><path style="stroke:#696969;stroke-width:2;stroke-opacity:.96078;fill:none" d="m-179.41 871.91v-133.43m152.14 318.75h-152.08l-.0623-197.43"/><text style="font-size:17.5px;fill:#000000" y="1225.4114" x="84.717804"><tspan y="1225.4114" x="84.717804" style="font-size:24.999px;text-anchor:middle;text-align:center">Statements</tspan></text><text style="font-size:17.5px;fill:#000000" y="1001.1581" x="428.90472"><tspan y="1001.1581" x="428.90472" style="font-size:25px">End of Loop</tspan></text></g></svg>