<svg xmlns:rdf="http://www.w3.org/1999/02/22-rdf-syntax-ns#" xmlns="http://www.w3.org/2000/svg" height="119.05mm" width="339.44mm" version="1.1" xmlns:cc="http://creativecommons.org/ns#" xmlns:xlink="http://www.w3.org/1999/xlink" viewBox="0 0 1202.7471 421.84355" xmlns:dc="http://purl.org/dc/elements/1.1/">
 <defs>
  <linearGradient id="f" x1="849.74" gradientUnits="userSpaceOnUse" y1="278.44" gradientTransform="translate(-.0011682 .0031840)" x2="849.74" y2="306.41">
   <stop style="stop-color:#c1c2c4" offset="0"/>
   <stop style="stop-color:#d8dadb" offset=".2488"/>
   <stop style="stop-color:#fafafa" offset=".90022"/>
   <stop style="stop-color:#88888c;stop-opacity:.74132" offset="1"/>
  </linearGradient>
  <linearGradient id="e" x1="725.42" gradientUnits="userSpaceOnUse" y1="269.59" gradientTransform="translate(-.0011682 .0031840)" x2="1177.2" y2="174.31">
   <stop style="stop-color:#e9e9e9" offset="0"/>
   <stop style="stop-color:#e8e8e8" offset=".65186"/>
   <stop style="stop-color:#aeaeae" offset="1"/>
  </linearGradient>
  <linearGradient id="g" x1="403.61" gradientUnits="userSpaceOnUse" y1="356.73" gradientTransform="translate(-.0011682 .0031840)" x2="837.52" y2="488.58">
   <stop style="stop-color:#c9cacc" offset="0"/>
   <stop style="stop-color:#c9cacc;stop-opacity:0" offset="1"/>
  </linearGradient>
  <linearGradient id="d" y2="409.01" gradientUnits="userSpaceOnUse" x2="1205.4" gradientTransform="translate(.0000017758 -.0000060449)" y1="2.734" x1="8.2029">
   <stop style="stop-color:#eaeaea" offset="0"/>
   <stop style="stop-color:#fff" offset=".41279"/>
   <stop style="stop-color:#f8f4f4" offset=".83153"/>
   <stop style="stop-color:#fff" offset="1"/>
  </linearGradient>
 </defs>
 <text style="letter-spacing:0px;font-size:27.5px;word-spacing:0px;font-family:sans-serif;line-height:125%;fill:#000000" xml:space="preserve" y="240.27676" x="84.796028"><tspan x="84.796028" y="240.27676"/></text>
 <rect style="color-rendering:auto;fill-rule:evenodd;color:#000000;isolation:auto;mix-blend-mode:normal;shape-rendering:auto;solid-color:#000000;image-rendering:auto;fill:url(#d)" height="417.68" width="1202.8" y="5.6843e-14" x="-.000049591"/>
 <rect style="color-rendering:auto;color:#000000;isolation:auto;mix-blend-mode:normal;fill-rule:evenodd;shape-rendering:auto;solid-color:#000000;image-rendering:auto;fill:#ffca00" height="51.611" width="4.6919" y="238.31" x="1011.1"/>
 <rect style="color-rendering:auto;fill-rule:evenodd;color:#000000;isolation:auto;mix-blend-mode:normal;shape-rendering:auto;solid-color:#000000;image-rendering:auto;fill:#ffb05f" transform="matrix(.99242 .12287 -.11548 .99331 0 0)" height="61.578" width="21.412" y="8.5892" x="323.81"/>
 <text style="font-size:6.4854px;letter-spacing:0px;word-spacing:0px;font-family:sans-serif;line-height:125%;fill:#333333" transform="matrix(1.0136 .12550 -.11307 .97255 0 0)" y="21.763369" x="325.57245" xml:space="preserve"><tspan y="21.763369" x="325.57245" style="fill:#333333">s</tspan><tspan y="29.870211" x="325.57245" style="fill:#333333">t</tspan><tspan y="37.97707" x="325.57245" style="fill:#333333">r</tspan><tspan y="46.083897" x="325.57245" style="fill:#333333">l</tspan><tspan y="54.190739" x="325.57245" style="fill:#333333">e</tspan><tspan y="62.297581" x="325.57245" style="fill:#333333">n</tspan></text>
 <rect style="color-rendering:auto;fill-rule:evenodd;color:#000000;isolation:auto;mix-blend-mode:normal;shape-rendering:auto;solid-color:#000000;image-rendering:auto;fill:#fff" transform="matrix(.99242 .12287 -.11548 .99331 0 0)" height="1.5073" width="20.756" y="12.468" x="324.13"/>
 <rect style="color-rendering:auto;fill-rule:evenodd;color:#000000;isolation:auto;mix-blend-mode:normal;shape-rendering:auto;solid-color:#000000;image-rendering:auto;fill:#666" rx="0" ry="0" height="19.728" width="285.36" y="113.04" x="63.928"/>
 <rect style="color-rendering:auto;fill-rule:evenodd;color:#000000;isolation:auto;mix-blend-mode:normal;shape-rendering:auto;solid-color:#000000;image-rendering:auto;fill:#666" transform="rotate(90)" rx="0" ry="0" height="7.1155" width="89.996" y="-210.17" x="29.194"/>
 <rect style="color-rendering:auto;fill-rule:evenodd;color:#000000;isolation:auto;mix-blend-mode:normal;shape-rendering:auto;solid-color:#000000;image-rendering:auto;fill:#f54848" height="66.257" width="21.402" y="46.584" x="76.614"/>
 <text style="font-size:6.7259px;letter-spacing:0px;word-spacing:0px;font-family:sans-serif;line-height:125%;fill:#ffffff" transform="scale(.98440 1.0158)" y="58.330402" x="86.626007" xml:space="preserve"><tspan y="58.330402" x="86.626007">s</tspan><tspan y="66.737755" x="86.626007">t</tspan><tspan y="75.145073" x="86.626007">r</tspan><tspan y="83.552391" x="86.626007">t</tspan><tspan y="91.959724" x="86.626007">o</tspan><tspan y="100.36706" x="86.626007">k</tspan></text>
 <rect style="color-rendering:auto;fill-rule:evenodd;color:#000000;isolation:auto;mix-blend-mode:normal;shape-rendering:auto;solid-color:#000000;image-rendering:auto;fill:#fff" height="1.6218" width="20.747" y="50.758" x="76.941"/>
 <rect style="color-rendering:auto;fill-rule:evenodd;color:#000000;isolation:auto;mix-blend-mode:normal;shape-rendering:auto;solid-color:#000000;image-rendering:auto;fill:#fff" height="1.6218" width="20.747" y="109.06" x="76.941"/>
 <rect style="color-rendering:auto;fill-rule:evenodd;color:#000000;isolation:auto;mix-blend-mode:normal;shape-rendering:auto;solid-color:#000000;image-rendering:auto;fill:#fff15f" height="72.42" width="21.402" y="40.422" x="99.567"/>
 <text style="font-size:7.0318px;letter-spacing:0px;word-spacing:0px;font-family:sans-serif;line-height:125%;fill:#666666" transform="scale(.94157 1.0621)" y="51.09985" x="114.94293" xml:space="preserve"><tspan y="51.09985" x="114.94293">s</tspan><tspan y="59.889584" x="114.94293">t</tspan><tspan y="68.679337" x="114.94293">r</tspan><tspan y="77.46907" x="114.94293">c</tspan><tspan y="86.25882" x="114.94293">p</tspan><tspan y="95.048569" x="114.94293">y</tspan></text>
 <rect style="color-rendering:auto;fill-rule:evenodd;color:#000000;isolation:auto;mix-blend-mode:normal;shape-rendering:auto;solid-color:#000000;image-rendering:auto;fill:#fff" height="1.7728" width="20.747" y="44.983" x="99.893"/>
 <rect style="color-rendering:auto;fill-rule:evenodd;color:#000000;isolation:auto;mix-blend-mode:normal;shape-rendering:auto;solid-color:#000000;image-rendering:auto;fill:#fff" height="1.7728" width="20.747" y="108.71" x="99.893"/>
 <rect style="color-rendering:auto;fill-rule:evenodd;color:#000000;isolation:auto;mix-blend-mode:normal;shape-rendering:auto;solid-color:#000000;image-rendering:auto;fill:#bffa5a" height="59.77" width="21.402" y="53.072" x="122.52"/>
 <text style="font-size:6.3882px;letter-spacing:0px;word-spacing:0px;font-family:sans-serif;line-height:125%;fill:#666666" transform="scale(1.0365 .96482)" y="66.853508" x="126.57047" xml:space="preserve"><tspan y="66.853508" x="126.57047">s</tspan><tspan y="74.838707" x="126.57047">t</tspan><tspan y="82.823936" x="126.57047">r</tspan><tspan y="90.809166" x="126.57047">c</tspan><tspan y="98.794395" x="126.57047">h</tspan><tspan y="106.77962" x="126.57047">r</tspan></text>
 <rect style="color-rendering:auto;fill-rule:evenodd;color:#000000;isolation:auto;mix-blend-mode:normal;shape-rendering:auto;solid-color:#000000;image-rendering:auto;fill:#fff" height="1.4631" width="20.747" y="56.837" x="122.85"/>
 <rect style="color-rendering:auto;fill-rule:evenodd;color:#000000;isolation:auto;mix-blend-mode:normal;shape-rendering:auto;solid-color:#000000;image-rendering:auto;fill:#fff" height="1.4631" width="20.747" y="109.43" x="122.85"/>
 <rect style="color-rendering:auto;fill-rule:evenodd;color:#000000;isolation:auto;mix-blend-mode:normal;shape-rendering:auto;solid-color:#000000;image-rendering:auto;fill:#79c4ff" height="61.605" width="21.402" y="51.237" x="179.02"/>
 <text style="font-size:6.4855px;letter-spacing:0px;word-spacing:0px;font-family:sans-serif;line-height:125%;fill:#ffffff" transform="scale(1.0209 .97952)" y="65.298798" x="183.89064" xml:space="preserve"><tspan y="65.298798" x="183.89064">s</tspan><tspan y="73.40567" x="183.89064">t</tspan><tspan y="81.512543" x="183.89064">r</tspan><tspan y="89.6194" x="183.89064">s</tspan><tspan y="97.726273" x="183.89064">p</tspan><tspan y="105.83316" x="183.89064">n</tspan></text>
 <rect style="color-rendering:auto;fill-rule:evenodd;color:#000000;isolation:auto;mix-blend-mode:normal;shape-rendering:auto;solid-color:#000000;image-rendering:auto;fill:#fff" height="1.508" width="20.747" y="55.117" x="179.34"/>
 <rect style="color-rendering:auto;fill-rule:evenodd;color:#000000;isolation:auto;mix-blend-mode:normal;shape-rendering:auto;solid-color:#000000;image-rendering:auto;fill:#fff" height="1.508" width="20.747" y="109.33" x="179.34"/>
 <rect style="color-rendering:auto;fill-rule:evenodd;color:#000000;isolation:auto;mix-blend-mode:normal;shape-rendering:auto;solid-color:#000000;image-rendering:auto;fill:#ffd25f" height="61.605" width="21.402" y="51.237" x="212.56"/>
 <text style="font-size:6.4855px;letter-spacing:0px;word-spacing:0px;font-family:sans-serif;line-height:125%;fill:#ffffff" transform="scale(1.0209 .97952)" y="65.298798" x="216.75044" xml:space="preserve"><tspan y="65.298798" x="216.75044">s</tspan><tspan y="73.40567" x="216.75044">t</tspan><tspan y="81.512543" x="216.75044">r</tspan><tspan y="89.6194" x="216.75044">s</tspan><tspan y="97.726273" x="216.75044">p</tspan><tspan y="105.83316" x="216.75044">n</tspan></text>
 <rect style="color-rendering:auto;fill-rule:evenodd;color:#000000;isolation:auto;mix-blend-mode:normal;shape-rendering:auto;solid-color:#000000;image-rendering:auto;fill:#fff" height="1.508" width="20.747" y="55.117" x="212.89"/>
 <rect style="color-rendering:auto;fill-rule:evenodd;color:#000000;isolation:auto;mix-blend-mode:normal;shape-rendering:auto;solid-color:#000000;image-rendering:auto;fill:#fff" height="1.508" width="20.747" y="109.33" x="212.89"/>
 <rect style="color-rendering:auto;fill-rule:evenodd;color:#000000;isolation:auto;mix-blend-mode:normal;shape-rendering:auto;solid-color:#000000;image-rendering:auto;fill:#5fcdff" height="61.605" width="21.402" y="51.237" x="239.05"/>
 <text style="font-size:6.4855px;letter-spacing:0px;word-spacing:0px;font-family:sans-serif;line-height:125%;fill:#ffffff" transform="scale(1.0209 .97952)" y="65.298798" x="242.69246" xml:space="preserve"><tspan y="65.298798" x="242.69246">s</tspan><tspan y="73.40567" x="242.69246">t</tspan><tspan y="81.512543" x="242.69246">r</tspan><tspan y="89.6194" x="242.69246">u</tspan><tspan y="97.726273" x="242.69246">p</tspan><tspan y="105.83316" x="242.69246">r</tspan></text>
 <rect style="color-rendering:auto;fill-rule:evenodd;color:#000000;isolation:auto;mix-blend-mode:normal;shape-rendering:auto;solid-color:#000000;image-rendering:auto;fill:#fff" height="1.508" width="20.747" y="55.117" x="239.37"/>
 <rect style="color-rendering:auto;fill-rule:evenodd;color:#000000;isolation:auto;mix-blend-mode:normal;shape-rendering:auto;solid-color:#000000;image-rendering:auto;fill:#fff" height="1.508" width="20.747" y="109.33" x="239.37"/>
 <rect style="color-rendering:auto;fill-rule:evenodd;color:#000000;isolation:auto;mix-blend-mode:normal;shape-rendering:auto;solid-color:#000000;image-rendering:auto;fill:#fff" transform="matrix(.99242 .12287 -.11548 .99331 0 0)" height="1.5073" width="20.756" y="66.654" x="324.13"/>
 <rect style="color-rendering:auto;fill-rule:evenodd;color:#000000;isolation:auto;mix-blend-mode:normal;shape-rendering:auto;solid-color:#000000;image-rendering:auto;fill:#98939a" transform="matrix(.99242 .12287 -.11548 .99331 0 0)" height="61.578" width="21.412" y="11.409" x="301.01"/>
 <text style="font-size:6.4854px;letter-spacing:0px;word-spacing:0px;font-family:sans-serif;line-height:125%;fill:#ffffff" transform="matrix(1.0136 .12550 -.11307 .97255 0 0)" y="24.643862" x="303.24963" xml:space="preserve"><tspan y="24.643862" x="303.24963">s</tspan><tspan y="32.75069" x="303.24963">t</tspan><tspan y="40.857548" x="303.24963">r</tspan><tspan y="48.96439" x="303.24963">l</tspan><tspan y="57.071232" x="303.24963">w</tspan><tspan y="65.178055" x="303.24963">r</tspan></text>
 <rect style="color-rendering:auto;fill-rule:evenodd;color:#000000;isolation:auto;mix-blend-mode:normal;shape-rendering:auto;solid-color:#000000;image-rendering:auto;fill:#fff" transform="matrix(.99242 .12287 -.11548 .99331 0 0)" height="1.5073" width="20.756" y="15.288" x="301.34"/>
 <rect style="color-rendering:auto;fill-rule:evenodd;color:#000000;isolation:auto;mix-blend-mode:normal;shape-rendering:auto;solid-color:#000000;image-rendering:auto;fill:#fff" transform="matrix(.99242 .12287 -.11548 .99331 0 0)" height="1.5073" width="20.756" y="69.475" x="301.34"/>
 <rect style="color-rendering:auto;fill-rule:evenodd;color:#000000;isolation:auto;mix-blend-mode:normal;shape-rendering:auto;solid-color:#000000;image-rendering:auto;fill:#ffb05f" transform="matrix(1 .0023996 -.0022533 1 0 0)" height="61.605" width="21.402" y="178.43" x="317.12"/>
 <rect style="color-rendering:auto;fill-rule:evenodd;color:#000000;isolation:auto;mix-blend-mode:normal;shape-rendering:auto;solid-color:#000000;image-rendering:auto;fill:#fff" transform="matrix(1 .0023996 -.0022533 1 0 0)" height="1.508" width="20.747" y="182.31" x="317.45"/>
 <rect style="color-rendering:auto;fill-rule:evenodd;color:#000000;isolation:auto;mix-blend-mode:normal;shape-rendering:auto;solid-color:#000000;image-rendering:auto;fill:#79c4ff" transform="matrix(.99562 .093440 -.087790 .99614 0 0)" height="61.59" width="21.408" y="160.14" x="196.68"/>
 <rect style="color-rendering:auto;fill-rule:evenodd;color:#000000;isolation:auto;mix-blend-mode:normal;shape-rendering:auto;solid-color:#000000;image-rendering:auto;fill:#98939a" transform="matrix(1 .0023996 -.0022533 1 0 0)" height="61.605" width="21.402" y="177.86" x="294.33"/>
 <rect style="color-rendering:auto;fill-rule:evenodd;color:#000000;isolation:auto;mix-blend-mode:normal;shape-rendering:auto;solid-color:#000000;image-rendering:auto;fill:#666" rx="0" ry="0" height="19.728" width="285.36" y="240.58" x="63.928"/>
 <rect ry="0" style="color-rendering:auto;fill-rule:evenodd;color:#000000;isolation:auto;mix-blend-mode:normal;shape-rendering:auto;solid-color:#000000;image-rendering:auto;fill:#666" rx="0" transform="rotate(90)" height="7.1155" width="89.996" y="-210.17" x="156.73"/>
 <rect style="color-rendering:auto;fill-rule:evenodd;color:#000000;isolation:auto;mix-blend-mode:normal;shape-rendering:auto;solid-color:#000000;image-rendering:auto;fill:#f54848" height="66.257" width="21.402" y="174.12" x="129.58"/>
 <rect style="color-rendering:auto;fill-rule:evenodd;color:#000000;isolation:auto;mix-blend-mode:normal;shape-rendering:auto;solid-color:#000000;image-rendering:auto;fill:#fff" height="1.6218" width="20.747" y="178.3" x="129.91"/>
 <rect style="color-rendering:auto;fill-rule:evenodd;color:#000000;isolation:auto;mix-blend-mode:normal;shape-rendering:auto;solid-color:#000000;image-rendering:auto;fill:#fff" height="1.6218" width="20.747" y="236.6" x="129.91"/>
 <rect style="color-rendering:auto;fill-rule:evenodd;color:#000000;isolation:auto;mix-blend-mode:normal;shape-rendering:auto;solid-color:#000000;image-rendering:auto;fill:#fff" transform="matrix(.99562 .093440 -.087790 .99614 0 0)" height="1.5076" width="20.752" y="164.02" x="197.01"/>
 <rect style="color-rendering:auto;fill-rule:evenodd;color:#000000;isolation:auto;mix-blend-mode:normal;shape-rendering:auto;solid-color:#000000;image-rendering:auto;fill:#fff" transform="matrix(.99562 .093440 -.087790 .99614 0 0)" height="1.5076" width="20.752" y="218.22" x="197.01"/>
 <rect style="color-rendering:auto;fill-rule:evenodd;color:#000000;isolation:auto;mix-blend-mode:normal;shape-rendering:auto;solid-color:#000000;image-rendering:auto;fill:#ffd25f" height="61.605" width="21.402" y="178.78" x="212.56"/>
 <rect style="color-rendering:auto;fill-rule:evenodd;color:#000000;isolation:auto;mix-blend-mode:normal;shape-rendering:auto;solid-color:#000000;image-rendering:auto;fill:#fff" height="1.508" width="20.747" y="182.66" x="212.89"/>
 <rect style="color-rendering:auto;fill-rule:evenodd;color:#000000;isolation:auto;mix-blend-mode:normal;shape-rendering:auto;solid-color:#000000;image-rendering:auto;fill:#fff" height="1.508" width="20.747" y="236.87" x="212.89"/>
 <rect style="color-rendering:auto;fill-rule:evenodd;color:#000000;isolation:auto;mix-blend-mode:normal;shape-rendering:auto;solid-color:#000000;image-rendering:auto;fill:#5fcdff" height="61.605" width="21.402" y="178.78" x="239.05"/>
 <rect style="color-rendering:auto;fill-rule:evenodd;color:#000000;isolation:auto;mix-blend-mode:normal;shape-rendering:auto;solid-color:#000000;image-rendering:auto;fill:#fff" height="1.508" width="20.747" y="182.66" x="239.37"/>
 <rect style="color-rendering:auto;fill-rule:evenodd;color:#000000;isolation:auto;mix-blend-mode:normal;shape-rendering:auto;solid-color:#000000;image-rendering:auto;fill:#fff" height="1.508" width="20.747" y="236.87" x="239.37"/>
 <rect style="color-rendering:auto;fill-rule:evenodd;color:#000000;isolation:auto;mix-blend-mode:normal;shape-rendering:auto;solid-color:#000000;image-rendering:auto;fill:#fff" transform="matrix(1 .0023996 -.0022533 1 0 0)" height="1.508" width="20.747" y="236.52" x="317.45"/>
 <rect style="color-rendering:auto;fill-rule:evenodd;color:#000000;isolation:auto;mix-blend-mode:normal;shape-rendering:auto;solid-color:#000000;image-rendering:auto;fill:#fff" transform="matrix(1 .0023996 -.0022533 1 0 0)" height="1.508" width="20.747" y="181.74" x="294.66"/>
 <rect style="color-rendering:auto;fill-rule:evenodd;color:#000000;isolation:auto;mix-blend-mode:normal;shape-rendering:auto;solid-color:#000000;image-rendering:auto;fill:#fff" transform="matrix(1 .0023996 -.0022533 1 0 0)" height="1.508" width="20.747" y="235.95" x="294.66"/>
 <rect style="color-rendering:auto;fill-rule:evenodd;color:#000000;isolation:auto;mix-blend-mode:normal;shape-rendering:auto;solid-color:#000000;image-rendering:auto;fill:#fff15f" height="72.42" width="21.402" y="168.42" x="150.82"/>
 <rect style="color-rendering:auto;fill-rule:evenodd;color:#000000;isolation:auto;mix-blend-mode:normal;shape-rendering:auto;solid-color:#000000;image-rendering:auto;fill:#fff" height="1.7728" width="20.747" y="172.98" x="151.15"/>
 <rect style="color-rendering:auto;fill-rule:evenodd;color:#000000;isolation:auto;mix-blend-mode:normal;shape-rendering:auto;solid-color:#000000;image-rendering:auto;fill:#79c4ff" height="61.605" width="21.402" y="178.78" x="108.39"/>
 <rect style="color-rendering:auto;fill-rule:evenodd;color:#000000;isolation:auto;mix-blend-mode:normal;shape-rendering:auto;solid-color:#000000;image-rendering:auto;fill:#fff" height="1.508" width="20.747" y="182.66" x="108.72"/>
 <rect style="color-rendering:auto;fill-rule:evenodd;color:#000000;isolation:auto;mix-blend-mode:normal;shape-rendering:auto;solid-color:#000000;image-rendering:auto;fill:#fff" height="1.508" width="20.747" y="236.87" x="108.72"/>
 <rect style="color-rendering:auto;fill-rule:evenodd;color:#000000;isolation:auto;mix-blend-mode:normal;shape-rendering:auto;solid-color:#000000;image-rendering:auto;fill:#f54848" height="66.257" width="21.402" y="174.12" x="270.83"/>
 <rect style="color-rendering:auto;fill-rule:evenodd;color:#000000;isolation:auto;mix-blend-mode:normal;shape-rendering:auto;solid-color:#000000;image-rendering:auto;fill:#fff" height="1.6218" width="20.747" y="178.3" x="271.16"/>
 <rect style="color-rendering:auto;fill-rule:evenodd;color:#000000;isolation:auto;mix-blend-mode:normal;shape-rendering:auto;solid-color:#000000;image-rendering:auto;fill:#fff" height="1.6218" width="20.747" y="236.6" x="271.16"/>
 <rect style="color-rendering:auto;fill-rule:evenodd;color:#000000;isolation:auto;mix-blend-mode:normal;shape-rendering:auto;solid-color:#000000;image-rendering:auto;fill:#bffa5a" height="59.77" width="21.402" y="180.61" x="85.442"/>
 <rect style="color-rendering:auto;fill-rule:evenodd;color:#000000;isolation:auto;mix-blend-mode:normal;shape-rendering:auto;solid-color:#000000;image-rendering:auto;fill:#fff" height="1.4631" width="20.747" y="184.38" x="85.768"/>
 <rect style="color-rendering:auto;fill-rule:evenodd;color:#000000;isolation:auto;mix-blend-mode:normal;shape-rendering:auto;solid-color:#000000;image-rendering:auto;fill:#fff" height="1.4631" width="20.747" y="236.97" x="85.768"/>
 <text style="letter-spacing:0px;font-size:9.7784px;word-spacing:0px;font-family:sans-serif;line-height:125%;fill:#666666" xml:space="preserve" transform="scale(.98440 1.0158)" y="191.5571" x="94.91391"><tspan x="94.91391" y="191.5571">s</tspan><tspan x="94.91391" y="203.78004">q</tspan><tspan x="94.91391" y="216.00299">r</tspan><tspan x="94.91391" y="228.22594">t</tspan></text>
 <text style="letter-spacing:0px;font-size:9.7784px;word-spacing:0px;font-family:sans-serif;line-height:125%;fill:#ffffff" transform="scale(.98440 1.0158)" y="196.82756" x="116.98141" xml:space="preserve"><tspan y="196.82756" x="116.98141">p</tspan><tspan y="209.05051" x="116.98141">o</tspan><tspan y="221.27345" x="116.98141">w</tspan></text>
 <text style="letter-spacing:0px;font-size:9.7783px;word-spacing:0px;font-family:sans-serif;line-height:125%;fill:#ffffff" xml:space="preserve" transform="scale(.98440 1.0158)" y="188.41434" x="139.58176"><tspan x="139.58176" y="188.41434">c</tspan><tspan x="139.58176" y="200.63719">e</tspan><tspan x="139.58176" y="212.86005">i</tspan><tspan x="139.58176" y="225.08292">l</tspan></text>
 <text style="letter-spacing:0px;font-size:9.7783px;word-spacing:0px;font-family:sans-serif;line-height:125%;fill:#666666" xml:space="preserve" transform="scale(.98440 1.0158)" y="180.73219" x="161.20352"><tspan x="161.20352" y="180.73219">f</tspan><tspan x="161.20352" y="192.95505">l</tspan><tspan x="161.20352" y="205.1779">o</tspan><tspan x="161.20352" y="217.40077">o</tspan><tspan x="161.20352" y="229.62363">r</tspan></text>
 <text style="letter-spacing:0px;font-size:9.7783px;word-spacing:0px;font-family:sans-serif;line-height:125%;fill:#ffffff" xml:space="preserve" transform="scale(.98440 1.0158)" y="190.70665" x="189.806"><tspan x="189.806" y="190.70665">a</tspan><tspan x="189.806" y="202.9295">s</tspan><tspan x="189.806" y="215.15236">i</tspan><tspan x="189.806" y="227.37523">n</tspan></text>
 <text style="letter-spacing:0px;font-size:9.7783px;word-spacing:0px;font-family:sans-serif;line-height:125%;fill:#666666" xml:space="preserve" transform="scale(.98440 1.0158)" y="190.64221" x="223.84073"><tspan x="223.84073" y="190.64221">a</tspan><tspan x="223.84073" y="202.86507">c</tspan><tspan x="223.84073" y="215.08792">o</tspan><tspan x="223.84073" y="227.31079">s</tspan></text>
 <text style="letter-spacing:0px;font-size:9.7783px;word-spacing:0px;font-family:sans-serif;line-height:125%;fill:#ffffff" xml:space="preserve" transform="scale(.98440 1.0158)" y="190.70665" x="250.88742"><tspan x="250.88742" y="190.70665">a</tspan><tspan x="250.88742" y="202.9295">t</tspan><tspan x="250.88742" y="215.15236">a</tspan><tspan x="250.88742" y="227.37523">n</tspan></text>
 <text style="letter-spacing:0px;font-size:9.7783px;word-spacing:0px;font-family:sans-serif;line-height:125%;fill:#ffffff" xml:space="preserve" transform="scale(.98440 1.0158)" y="194.46132" x="283.02737"><tspan x="283.02737" y="194.46132">c</tspan><tspan x="283.02737" y="206.68417">o</tspan><tspan x="283.02737" y="218.90703">s</tspan></text>
 <text style="letter-spacing:0px;font-size:9.7783px;word-spacing:0px;font-family:sans-serif;line-height:125%;fill:#ffffff" xml:space="preserve" transform="scale(.98440 1.0158)" y="196.63263" x="306.45291"><tspan x="306.45291" y="196.63263">s</tspan><tspan x="306.45291" y="208.85548">i</tspan><tspan x="306.45291" y="221.07834">n</tspan></text>
 <text style="letter-spacing:0px;font-size:9.7783px;word-spacing:0px;font-family:sans-serif;line-height:125%;fill:#666666" xml:space="preserve" transform="scale(.98440 1.0158)" y="197.95062" x="329.71982"><tspan x="329.71982" y="197.95062">t</tspan><tspan x="329.71982" y="210.17348">a</tspan><tspan x="329.71982" y="222.39633">n</tspan></text>
 <rect style="color-rendering:auto;fill-rule:evenodd;color:#000000;isolation:auto;mix-blend-mode:normal;shape-rendering:auto;solid-color:#000000;image-rendering:auto;fill:#fff" height="1.6218" width="20.747" y="236.21" x="150.96"/>
 <text style="font-size:15px;letter-spacing:0px;line-height:125%;word-spacing:0px;font-family:sans-serif;fill:#ffffff" xml:space="preserve" transform="scale(.98440 1.0158)" y="124.99009" x="148.40018"><tspan x="148.40018" style="font-size:15px;line-height:125%;font-family:sans-serif;fill:#ffffff" y="124.99009">String Functions</tspan></text>
 <text style="font-size:15px;letter-spacing:0px;line-height:125%;word-spacing:0px;font-family:sans-serif;fill:#ffffff" transform="scale(.98440 1.0158)" y="252.12253" x="152.36264" xml:space="preserve"><tspan y="252.12253" x="152.36264" style="font-size:15px;line-height:125%;font-family:sans-serif;fill:#ffffff">Math Functions</tspan></text>
 <rect style="color-rendering:auto;fill-rule:evenodd;color:#000000;isolation:auto;mix-blend-mode:normal;shape-rendering:auto;solid-color:#000000;image-rendering:auto;fill:#ffb05f" transform="matrix(1 .0023996 -.0022533 1 0 0)" height="61.605" width="21.402" y="324.39" x="234.47"/>
 <rect style="color-rendering:auto;fill-rule:evenodd;color:#000000;isolation:auto;mix-blend-mode:normal;shape-rendering:auto;solid-color:#000000;image-rendering:auto;fill:#fff" transform="matrix(1 .0023996 -.0022533 1 0 0)" height="1.508" width="20.747" y="328.27" x="234.8"/>
 <rect style="color-rendering:auto;fill-rule:evenodd;color:#000000;isolation:auto;mix-blend-mode:normal;shape-rendering:auto;solid-color:#000000;image-rendering:auto;fill:#79c4ff" transform="matrix(.99562 .093440 -.087790 .99614 0 0)" height="61.59" width="21.408" y="305.27" x="209.48"/>
 <rect style="color-rendering:auto;fill-rule:evenodd;color:#000000;isolation:auto;mix-blend-mode:normal;shape-rendering:auto;solid-color:#000000;image-rendering:auto;fill:#98939a" transform="matrix(1 .0023996 -.0022533 1 0 0)" height="61.605" width="21.402" y="323.82" x="211.68"/>
 <rect style="color-rendering:auto;fill-rule:evenodd;color:#000000;isolation:auto;mix-blend-mode:normal;shape-rendering:auto;solid-color:#000000;image-rendering:auto;fill:#fff15f" transform="matrix(.98485 -.17343 .16315 .98660 0 0)" height="72.358" width="21.422" y="355.79" x="198.72"/>
 <rect style="color-rendering:auto;fill-rule:evenodd;color:#000000;isolation:auto;mix-blend-mode:normal;shape-rendering:auto;solid-color:#000000;image-rendering:auto;fill:#666" rx="0" ry="0" height="19.728" width="285.36" y="386.34" x="63.928"/>
 <rect style="color-rendering:auto;fill-rule:evenodd;color:#000000;isolation:auto;mix-blend-mode:normal;shape-rendering:auto;solid-color:#000000;image-rendering:auto;fill:#666" transform="rotate(90)" rx="0" ry="0" height="7.1155" width="89.996" y="-210.17" x="302.49"/>
 <rect style="color-rendering:auto;fill-rule:evenodd;color:#000000;isolation:auto;mix-blend-mode:normal;shape-rendering:auto;solid-color:#000000;image-rendering:auto;fill:#f54848" transform="matrix(.98916 .14685 -.13807 .99042 0 0)" height="66.217" width="21.417" y="291.6" x="203.21"/>
 <rect style="color-rendering:auto;fill-rule:evenodd;color:#000000;isolation:auto;mix-blend-mode:normal;shape-rendering:auto;solid-color:#000000;image-rendering:auto;fill:#fff" transform="matrix(.98916 .14685 -.13807 .99042 0 0)" height="1.6208" width="20.76" y="295.77" x="203.54"/>
 <rect style="color-rendering:auto;fill-rule:evenodd;color:#000000;isolation:auto;mix-blend-mode:normal;shape-rendering:auto;solid-color:#000000;image-rendering:auto;fill:#fff" transform="matrix(.98916 .14685 -.13807 .99042 0 0)" height="1.6208" width="20.76" y="354.04" x="203.54"/>
 <rect style="color-rendering:auto;fill-rule:evenodd;color:#000000;isolation:auto;mix-blend-mode:normal;shape-rendering:auto;solid-color:#000000;image-rendering:auto;fill:#fff" transform="matrix(.99562 .093440 -.087790 .99614 0 0)" height="1.5076" width="20.752" y="309.15" x="209.81"/>
 <rect style="color-rendering:auto;fill-rule:evenodd;color:#000000;isolation:auto;mix-blend-mode:normal;shape-rendering:auto;solid-color:#000000;image-rendering:auto;fill:#fff" transform="matrix(.99562 .093440 -.087790 .99614 0 0)" height="1.5076" width="20.752" y="363.34" x="209.81"/>
 <rect style="color-rendering:auto;fill-rule:evenodd;color:#000000;isolation:auto;mix-blend-mode:normal;shape-rendering:auto;solid-color:#000000;image-rendering:auto;fill:#fff" transform="matrix(1 .0023996 -.0022533 1 0 0)" height="1.508" width="20.747" y="382.48" x="234.8"/>
 <rect style="color-rendering:auto;fill-rule:evenodd;color:#000000;isolation:auto;mix-blend-mode:normal;shape-rendering:auto;solid-color:#000000;image-rendering:auto;fill:#fff" transform="matrix(1 .0023996 -.0022533 1 0 0)" height="1.508" width="20.747" y="327.7" x="212"/>
 <rect style="color-rendering:auto;fill-rule:evenodd;color:#000000;isolation:auto;mix-blend-mode:normal;shape-rendering:auto;solid-color:#000000;image-rendering:auto;fill:#fff" transform="matrix(1 .0023996 -.0022533 1 0 0)" height="1.508" width="20.747" y="381.91" x="212"/>
 <rect style="color-rendering:auto;fill-rule:evenodd;color:#000000;isolation:auto;mix-blend-mode:normal;shape-rendering:auto;solid-color:#000000;image-rendering:auto;fill:#fff" transform="matrix(.98485 -.17343 .16315 .98660 0 0)" height="1.7713" width="20.766" y="360.34" x="199.05"/>
 <text style="letter-spacing:0px;font-size:9.7783px;word-spacing:0px;font-family:sans-serif;line-height:125%;fill:#ffffff" transform="matrix(.97437 .14465 -.14018 1.0055 0 0)" y="304.23825" x="214.30522" xml:space="preserve"><tspan y="304.23825" x="214.30522">a</tspan><tspan y="316.46112" x="214.30522">t</tspan><tspan y="328.68396" x="214.30522">o</tspan><tspan y="340.90683" x="214.30522">i</tspan></text>
 <text style="letter-spacing:0px;font-size:9.7783px;word-spacing:0px;font-family:sans-serif;line-height:125%;fill:#666666" transform="matrix(.97037 -.17088 .16559 1.0014 0 0)" y="364.51511" x="210.46657" xml:space="preserve"><tspan y="364.51511" x="210.46657">a</tspan><tspan y="376.73795" x="210.46657">b</tspan><tspan y="388.96082" x="210.46657">o</tspan><tspan y="401.18365" x="210.46657">r</tspan><tspan y="413.40652" x="210.46657">t</tspan></text>
 <text style="font-size:7.8469px;letter-spacing:0px;line-height:125%;word-spacing:0px;font-family:sans-serif;fill:#ffffff" transform="scale(.98440 1.0158)" y="332.31107" x="190.38272" xml:space="preserve"><tspan y="332.31107" x="190.38272">s</tspan><tspan y="342.11969" x="190.38272">r</tspan><tspan y="351.92831" x="190.38272">a</tspan><tspan y="361.73694" x="190.38272">n</tspan><tspan y="371.54556" x="190.38272">d</tspan></text>
 <text style="letter-spacing:0px;font-size:9.7783px;word-spacing:0px;font-family:sans-serif;line-height:125%;fill:#ffffff" transform="scale(.98440 1.0158)" y="340.05441" x="222.05215" xml:space="preserve"><tspan y="340.05441" x="222.05215">a</tspan><tspan y="352.27728" x="222.05215">b</tspan><tspan y="364.50012" x="222.05215">s</tspan></text>
 <text style="letter-spacing:0px;font-size:9.7783px;word-spacing:0px;font-family:sans-serif;line-height:125%;fill:#666666" transform="scale(.98440 1.0158)" y="334.48511" x="245.3215" xml:space="preserve"><tspan y="334.48511" x="245.3215">r</tspan><tspan y="346.70798" x="245.3215">a</tspan><tspan y="358.93082" x="245.3215">n</tspan><tspan y="371.15369" x="245.3215">d</tspan></text>
 <rect style="color-rendering:auto;fill-rule:evenodd;color:#000000;isolation:auto;mix-blend-mode:normal;shape-rendering:auto;solid-color:#000000;image-rendering:auto;fill:#fff" transform="matrix(.98485 -.17343 .16315 .98660 0 0)" height="1.6204" width="20.766" y="423.52" x="198.86"/>
 <text style="font-size:15px;letter-spacing:0px;line-height:125%;word-spacing:0px;font-family:sans-serif;fill:#ffffff" xml:space="preserve" transform="scale(.98440 1.0158)" y="395.60873" x="149.64529"><tspan x="149.64529" style="font-size:15px;line-height:125%;font-family:sans-serif;fill:#ffffff" y="395.60873">Stdlib Functions</tspan></text>
 <path style="fill:url(#f);fill-rule:evenodd" d="m817.61 273.48c15.364 0 15.949-24.339 15.949-24.339h34.568s.61031 23.884 15.646 24.384z"/>
 <path style="color-rendering:auto;color:#000000;isolation:auto;mix-blend-mode:normal;shape-rendering:auto;solid-color:#000000;image-rendering:auto;fill:#030302" d="m764.08 143.43h173.55c3.3296 0 6.0101 3.3731 6.0101 7.5626v126.68c0 7.5324-.28993 7.5626-6.0101 7.5626h-173.55c-6.2514 0-6.0101-.0307-6.0101-7.5626v-126.68c0-4.1899 2.6805-7.5626 6.0101-7.5626z"/>
 <path style="color-rendering:auto;color:#000000;isolation:auto;mix-blend-mode:normal;shape-rendering:auto;solid-color:#000000;image-rendering:auto;fill:url(#e)" d="m757.82 260.15v17.734c0 7.6203-.24178 7.6504 6.0266 7.6504h174.02c5.6783 0 6.0184-.0549 6.0246-7.4496v-17.733c-24.467 0-162.14-.20221-186.07-.20221z"/>
 <rect style="color-rendering:auto;color:#000000;isolation:auto;mix-blend-mode:normal;shape-rendering:auto;solid-color:#000000;image-rendering:auto;fill:#646464" rx="0" ry="0" height="100.39" width="167.56" y="151.76" x="767.07"/>
 <rect style="opacity:0.942;color-rendering:auto;fill-rule:evenodd;color:#000000;isolation:auto;mix-blend-mode:normal;shape-rendering:auto;solid-color:#000000;image-rendering:auto;fill:url(#g)" rx="1.9593" ry="1.9593" height="1.7332" width="66.242" y="273.34" x="817.66"/>
 <rect style="color-rendering:auto;fill-rule:evenodd;color:#000000;isolation:auto;mix-blend-mode:normal;shape-rendering:auto;solid-color:#000000;image-rendering:auto;fill:#e6e6e6" height="3.4925" width="166.77" y="151.54" x="767.35"/>
 <circle r="1.0335" cy="153.11" cx="770.85" style="color-rendering:auto;fill-rule:evenodd;color:#000000;isolation:auto;mix-blend-mode:normal;shape-rendering:auto;solid-color:#000000;image-rendering:auto;fill:#f61d1d"/>
 <circle cx="774.99" style="color-rendering:auto;fill-rule:evenodd;color:#000000;isolation:auto;mix-blend-mode:normal;shape-rendering:auto;solid-color:#000000;image-rendering:auto;fill:#fafb02" r="1.0335" cy="153.11"/>
 <circle r="1.0335" cy="153.11" cx="779.12" style="color-rendering:auto;fill-rule:evenodd;color:#000000;isolation:auto;mix-blend-mode:normal;shape-rendering:auto;solid-color:#000000;image-rendering:auto;fill:#62c74e"/>
 <text style="font-size:7.8463px;letter-spacing:0px;word-spacing:0px;font-family:sans-serif;line-height:150%;fill:#b2faff" xml:space="preserve" y="166.72736" x="769.78748"><tspan y="166.72736" x="769.78748" style="font-size:7.8463px;letter-spacing:.31385px;word-spacing:.31385px;font-family:monospace;line-height:150%;fill:#baffd8">#include&lt;stdio.h&gt;</tspan><tspan y="178.49678" x="769.78748" style="font-size:7.8463px;letter-spacing:.31385px;word-spacing:.31385px;font-family:monospace;line-height:150%;fill:#baffd8">int main()</tspan><tspan y="190.2662" x="769.78748" style="font-size:7.8463px;letter-spacing:.31385px;word-spacing:.31385px;font-family:monospace;line-height:150%;fill:#baffd8">{</tspan><tspan y="202.03564" x="769.78748" style="font-size:7.8463px;letter-spacing:.31385px;word-spacing:.31385px;font-family:monospace;line-height:150%;fill:#baffd8">printf (&quot; Hello World ! &quot;);</tspan><tspan y="213.80505" x="769.78748" style="font-size:7.8463px;letter-spacing:.31385px;word-spacing:.31385px;font-family:monospace;line-height:150%;fill:#baffd8">printf (&quot; Make it Great &quot;);</tspan><tspan y="225.57449" x="769.78748" style="font-size:7.8463px;letter-spacing:.31385px;word-spacing:.31385px;font-family:monospace;line-height:150%;fill:#baffd8">return 0;</tspan><tspan y="237.34393" x="769.78748" style="font-size:7.8463px;letter-spacing:.31385px;word-spacing:.31385px;font-family:monospace;line-height:150%;fill:#baffd8">}</tspan></text>
 <rect style="color-rendering:auto;fill-rule:evenodd;color:#000000;isolation:auto;mix-blend-mode:normal;shape-rendering:auto;solid-color:#000000;image-rendering:auto;fill:#fdd883" rx="1.9593" ry="1.9593" height="7.567" width="405.13" y="310.61" x="648.29"/>
 <path style="color-rendering:auto;fill-rule:evenodd;color:#000000;isolation:auto;mix-blend-mode:normal;shape-rendering:auto;solid-color:#000000;image-rendering:auto;fill:#696464" d="m1019.1 279.22h8.5738c.1228 0 .2217.72237.2217 1.6197v9.2982c0 .8973-.099 1.6197-.2217 1.6197h-8.5738c-.1228 0-.2216-.72236-.2216-1.6197v-9.2982c0-.8973.099-1.6197.2216-1.6197zm-.9415-2.7862h10.457c.7517 0 1.357 1.8614 1.357 4.1737v9.7627c0 2.3122-.6052 4.1737-1.357 4.1737h-10.457c-.7519 0-1.3572-1.8614-1.3572-4.1737v-9.7627c0-2.3122.6053-4.1737 1.3572-4.1737z"/>
 <rect style="stroke-linejoin:bevel;color-rendering:auto;color:#000000;shape-rendering:auto;solid-color:#000000;stroke:#bebebe;stroke-linecap:square;stroke-width:0.2;fill:#f00;fill-rule:evenodd;mix-blend-mode:normal;image-rendering:auto;isolation:auto" height="51.611" width="4.6919" y="238.31" x="989.05"/>
 <path style="color-rendering:auto;fill-rule:evenodd;color:#000000;isolation:auto;mix-blend-mode:normal;shape-rendering:auto;solid-color:#000000;image-rendering:auto;fill:#696464" d="m983.06 267.4h37.794l.047.0919v38.26c0 2.6162-.5485 4.7223-1.2298 4.7223h-35.375c-.68129 0-1.2298-2.1062-1.2298-4.7223v-38.26z"/>
 <rect style="color-rendering:auto;fill-rule:evenodd;color:#000000;isolation:auto;mix-blend-mode:normal;shape-rendering:auto;solid-color:#000000;image-rendering:auto;fill:#bc6d35" rx="1.9593" ry="1.9593" height="18.702" width="405.13" y="310.61" x="648.29"/>
 <rect style="color-rendering:auto;fill-rule:evenodd;color:#000000;isolation:auto;mix-blend-mode:normal;shape-rendering:auto;solid-color:#000000;image-rendering:auto;fill:#bc6d35" rx="0" ry="0" height="103.7" width="10.264" y="317.97" x="674.02"/>
 <rect style="color-rendering:auto;fill-rule:evenodd;color:#000000;isolation:auto;mix-blend-mode:normal;shape-rendering:auto;solid-color:#000000;image-rendering:auto;fill:#bc6d35" rx="0" ry="0" height="103.7" width="11.695" y="317.97" x="1016.7"/>
 <path style="stroke:#edebeb;stroke-width:1px;fill:none" d="m991.9 296.84v-7.4006"/>
 <path style="stroke:#edebeb;stroke-width:1px;fill:none" d="m996.92 298.81v-11.347"/>
 <path style="stroke:#edebeb;stroke-width:1px;fill:none" d="m1014.5 302.26v-18.254"/>
 <rect style="stroke-linejoin:bevel;color-rendering:auto;color:#000000;shape-rendering:auto;solid-color:#000000;stroke:#bebebe;stroke-linecap:square;stroke-width:0.2;fill:#ff5800;fill-rule:evenodd;mix-blend-mode:normal;image-rendering:auto;isolation:auto" height="7.507" width="4.6919" y="227.35" x="989.05"/>
 <path style="fill:#fdd568;fill-rule:evenodd" d="m1011.2 238.06 2.2122-7.0986 2.2123 7.0986z"/>
 <path d="m838.19 241.11s-.38478 11.145-4.2321 14.792c0 0 13.917 19.277 21.16 18.872 0 0 8.9747-5.0659 20.324-20.263 0 0-4.5503.37787-5.5121-2.2564-.96181-2.6342-.76946-11.348-.76946-11.348s-19.044 6.8896-30.971.2029z" style="fill:#e9ad95;fill-rule:evenodd"/>
 <path d="m820.57 209.09 8.192 26.559c5.9614 10.486 19.105 9.981 25.2 9.2334 7.5131-1.0809 18.386.28951 22.314-6.7327 1.9236-4.6166 9.3297-26.113 9.3297-29.575l-4.4725.38478s2.4527-5.2419 3.0298-11.397c0 0 1.9442-19.806 1.264-22.662 0 0-3.8249-7.8008-13.346-7.5287 0 0-41.928 2.4321-44.375.79979 0 0-6.2244.56053-6.2244 13.347l3.2976 27.35z" style="fill:#f6bea3;fill-rule:evenodd"/>
 <path d="m799.24 422.26s83.322.57332 103.83-.62608l2.0602-10.643c4.9373-6.941 1.6838-29.086.11621-36.837 0 0-.93233-6.9894-.93233-21.076v-34.747s3.4087-31.525 15.106-50.307c0 0-33.188-15.652-45.974-15.965-16.138 6.8266-28.858 6.8181-40.232 0 0 0-42.132 8.6724-50.565 14.933 0 0 14.962 33.809 14.418 45.391 0 0 1.6322 13.148-.5441 17.217 1.2523 16.813-5.9626 75.801-1.9043 79.513 0 0 4.5308 7.2 2.0826 8.4522 0 0 .0938 5.0086 2.5422 4.6956z" style="fill:#4171a2;fill-rule:evenodd"/>
 <path d="m904.57 307.84s.80819-9.498 3.6575-19.034c2.6157-8.7538 7.1151-17.44 10.761-20.957 0 0 12.786 12.514 13.058 34.821 0 0-.27189 14.962 1.0882 21.219-4.093 7.2401-21.411 10.362-21.411 10.362-3.139-11.97-1.7901-19.504-7.1541-26.412z" style="stroke:#000;stroke-width:0.2;fill:#234b6b;fill-rule:evenodd"/>
 <path d="m797.23 307.08s.71855-3.7513-.54383-8.7658c-2.5693-10.206-8.7669-26.298-13.874-31.224 0 0-16.795 34.164-17.067 56.471-5.9387-11.02 19.054 21.281 24.332 9.9304 3.139-11.97 1.7901-19.504 7.1541-26.412z" style="fill:#234b6b;fill-rule:evenodd"/>
 <path d="m818.26 211.32c-5.5068-15.242-5.1568-12.659-6.422-25.992-.68011-8.0252.95216-34.821 13.194-45.703 0 0-2.0258 5.2324-.87158 7.3484s19.168-18.29 34.434-21.929c0 0 0 2.8854-1.9236 8.0792 0 0-.38482 1.8275 1.058 1.7312 1.4427-.0961 12.215-4.9052 13.37-4.4243 1.1542.48093-1.2504 3.4625-.67327 4.232.57708.76945.19218 2.8855 1.7312 2.4045 1.5389-.48093 6.8289-4.3281 8.9449-2.9816 0 0-2.6931 3.6549-1.2504 6.1556s2.4046 5.3861 4.1358 5.1937c1.7312-.19217 8.8488 3.8472 9.2335 11.926 0 0 2.5008 26.545-.57709 38.472-5.3074 13.332-12.385 39.393-21.069 43.159 0 0-35.466 1.8085-37.642-.36783-8.7714-10.445-8.2-11.219-15.672-27.304z" style="fill:#6c3e07;fill-rule:evenodd"/>
 <path style="fill-rule:evenodd;stroke:#834d0d;stroke-width:1px;fill:#834d0d" d="m874.77 174.69s3.6821-12.793 12.662-21.231c0 0-7.6918 8.97-12.662 21.231z"/>
 <rect style="color-rendering:auto;fill-rule:evenodd;color:#000000;isolation:auto;mix-blend-mode:normal;shape-rendering:auto;solid-color:#000000;image-rendering:auto;fill:#a95f2e" rx="1.9593" ry="1.9593" height="5.5425" width="405.13" y="323.77" x="648.29"/>
 <rect style="color-rendering:auto;color:#000000;isolation:auto;mix-blend-mode:normal;fill-rule:evenodd;shape-rendering:auto;solid-color:#000000;image-rendering:auto;fill:#464e51" rx="18.493" ry="18.485" height="102.56" width="175.69" y="293.69" x="765.65"/>
 <rect style="stroke-linejoin:bevel;color-rendering:auto;color:#000000;shape-rendering:auto;solid-color:#000000;stroke:#b3b3b3;stroke-linecap:square;stroke-width:2;fill:#666;fill-rule:evenodd;mix-blend-mode:normal;image-rendering:auto;isolation:auto" rx="8.4719" ry="8.4719" height="62.547" width="115.88" y="313.69" x="795.56"/>
 <rect style="color-rendering:auto;color:#000000;isolation:auto;mix-blend-mode:normal;fill-rule:evenodd;shape-rendering:auto;solid-color:#000000;image-rendering:auto;fill:#333" rx="18.493" ry="2.4849" height="85.985" width="14" y="336.69" x="846.49"/>
 <rect style="color-rendering:auto;color:#000000;isolation:auto;mix-blend-mode:normal;fill-rule:evenodd;shape-rendering:auto;solid-color:#000000;image-rendering:auto;fill:#a95f2e" rx="1.9594" ry="1.9594" height="93.062" width="77.302" y="328.78" x="684.3"/>
 <path style="stroke:#bc6d35;stroke-width:3;fill:none" d="m682.87 362.72h78.018"/>
 <path d="m682.87 394.72h78.018" style="stroke:#bc6d35;stroke-width:3;fill:none"/>
 <path style="stroke:#fff;stroke-width:5;fill:none" d="m711.5 349.12h24.336"/>
 <path d="m711.5 383.12h24.336" style="stroke:#fff;stroke-width:5;fill:none"/>
 <path style="color-rendering:auto;color:#000000;isolation:auto;mix-blend-mode:normal;fill-rule:evenodd;shape-rendering:auto;solid-color:#000000;image-rendering:auto;fill:#c8e45c" d="m903.71 51.459h161.61c5.654 0 10.206 3.7931 10.206 8.5048v63.174c0 4.7116-4.5517 8.5048-10.206 8.5048h-161.61c-2.4837 0-39.689 27.814-39.689 27.814s29.483-33.677 29.483-36.319v-63.174c0-4.7116 4.5518-8.5048 10.206-8.5048z"/>
 <text style="letter-spacing:0px;font-size:13.865px;word-spacing:0px;font-family:sans-serif;line-height:125%;fill:#1a1a1a" xml:space="preserve" y="78.160156" x="909.76636"><tspan x="909.76636" y="78.160156">void DoThis{</tspan><tspan x="909.76636" y="95.491074">printf(&quot;Say Hello!!!&quot;);</tspan><tspan x="909.76636" y="112.82199">}</tspan></text>
</svg>
