<svg xmlns="http://www.w3.org/2000/svg" height="100%" width="100%"  viewBox="0 0 2156.7734 1797.8918"><g transform="translate(1267 558.01)"><rect style="solid-color:#000000;fill:#FAFAFA" rx="0" ry="0" height="1797.9" width="2156.8" y="-558.01" x="-1267"/><g transform="translate(-2757.5 315.73)"><rect style="stroke-linejoin:round;csolid-color:#000000;stroke:#454545;stroke-linecap:round;stroke-width:12;fill:#f9f9f9;" rx="84.203" ry="88.156" height="1078.8" width="532.43" y="-441.28" x="2302.8"/><rect style="solid-color:#000000;fill:#181818" height="801.78" width="464.74" y="-302.75" x="2336.6"/><rect style="solid-color:#000000;fill:#ececec" rx="10.474" ry="8.9051" height="20.976" width="133.31" y="-357.4" x="2502.3"/><circle cx="2569" cy="-389.11" r="7.8354" style="solid-color:#000000;fill:#ececec"/><circle r="45.616" style="solid-color:#000000;fill:#e6e6e6" cx="2569" cy="560.54"/><g transform="translate(0 .76245)"><circle cx="2348.8" cy="-287.46" r="6.2623" style="solid-color:#000000;fill:#fff"/><circle r="6.2623" style="solid-color:#000000;fill:#fff" cx="2366.9" cy="-287.46"/><circle cx="2385" cy="-287.46" r="6.2623" style="solid-color:#000000;fill:#fff"/><circle r="6.2623" style="solid-color:#000000;fill:#fff" cx="2403.1" cy="-287.46"/><circle cx="2421.2" cy="-287.46" r="6.2623" style="solid-color:#000000;fill:#fff"/></g><g style="fill:#fff"><path d="m2709.7-283.52q0 1.8638-1.4582 3.1-1.4486 1.2361-3.6504 1.2361-2.3371 0-3.7277-1.2072-1.381-1.2072-1.381-3.0903 0-1.1975.6953-2.1632.6954-.97538 1.9604-1.5452v-.0579q-1.1588-.61807-1.7189-1.352-.5505-.73395-.5505-1.8349 0-1.6224 1.3327-2.704t3.3897-1.0816q2.1535 0 3.4379 1.0333t1.2844 2.6268q0 .97537-.6084 1.9218-.6084.93675-1.7865 1.4679v.058q1.352.57943 2.0666 1.4293.7146.84984.7146 2.1632zm-2.2887-7.0208q0-1.0333-.8016-1.6417-.7919-.61807-2.028-.61807-1.2168 0-1.999.57944-.7726.57943-.7726 1.5645 0 .69532.3863 1.2072.3959.50218 1.1878.89812.3573.17383 1.0237.45389.676.28006 1.3134.46355.956-.63738 1.323-1.323.367-.68566.367-1.5838zm.2993 7.2043q0-.88846-.3959-1.4196-.3863-.5408-1.5258-1.0816-.4539-.21246-.9947-.39595-.5408-.18348-1.4389-.51183-.8692.4732-1.4003 1.2844-.5215.8112-.5215 1.8349 0 1.3037.8981 2.1536.8981.84984 2.2791.84984 1.4099 0 2.2501-.72429.8498-.72429.8498-1.9894z"/><path d="m2720.9-286.44q.4635.41526.7629 1.043.2994.62772.2994 1.6224 0 .98503-.3573 1.8059-.3573.82086-1.0044 1.4293-.7243.67601-1.7093 1.0044-.9754.31869-2.1439.31869-1.1975 0-2.3564-.28972-1.1588-.28006-1.9024-.61806v-2.0184h.1448q.8209.5408 1.9315.89812 1.1106.35731 2.1439.35731.6084 0 1.294-.2028.6857-.2028 1.1106-.59875.4443-.42491.6567-.93674.2221-.51184.2221-1.2941 0-.77258-.2511-1.2748-.2414-.51183-.676-.80155-.4345-.29937-1.0526-.4056-.6181-.11589-1.3327-.11589h-.8691v-1.6031h.676q1.4679 0 2.337-.60841.8788-.61806.8788-1.7962 0-.52148-.2221-.90777-.2221-.39595-.6181-.64704-.4152-.25108-.8884-.34765-.4732-.0966-1.072-.0966-.9174 0-1.9507.32835-1.0334.32834-1.9508.92709h-.097v-2.0184q.6857-.338 1.8252-.61806 1.1493-.28971 2.2212-.28971 1.0526 0 1.8542.19314.8015.19315 1.4486.61806.6953.46355 1.0526 1.1202.3573.65669.3573 1.5355 0 1.1975-.8498 2.0956-.8402.88846-1.9894 1.1202v.1352q.4635.0773 1.0623.32835.5987.24143 1.014.6084z"/><path d="m2732-289.9q0 2.1632-.9174 3.2158-.9078 1.0526-2.6268 1.0526-1.7576 0-2.6557-1.0526-.8982-1.0526-.8982-3.2062 0-2.1632.9175-3.2158.9174-1.0526 2.6364-1.0526 1.7479 0 2.6461 1.0623.8981 1.0623.8981 3.1965zm6.6731-3.9884-7.5326 14.38h-1.5934l7.5326-14.38h1.5934zm4.6355 10.391q0 2.1632-.9175 3.2158-.9174 1.0526-2.6364 1.0526-1.7479 0-2.6461-1.0623-.8981-1.0623-.8981-3.1965 0-2.1632.9078-3.2158.9174-1.0526 2.6364-1.0526 1.7576 0 2.6557 1.0526.8982 1.0526.8982 3.2062zm-13.028-6.4027q0-1.661-.4346-2.3177-.4249-.65669-1.3906-.65669-.985 0-1.41.65669-.4249.65669-.4249 2.3274t.4249 2.3274q.425.64703 1.41.64703.9657 0 1.3906-.64703.4346-.65669.4346-2.337zm11.309 6.4027q0-1.661-.4346-2.3177-.4249-.65669-1.3906-.65669-.9851 0-1.41.65669t-.4249 2.3274.4249 2.3274q.4249.64704 1.41.64704.9657 0 1.3906-.64704.4346-.65669.4346-2.337z"/></g><rect style="stroke-linejoin:round;csolid-color:#000000;stroke:#fff;stroke-linecap:round;fill:none;" height="15.843" width="40.738" y="-295.03" x="2752.1"/><rect style="stroke-linejoin:round;csolid-color:#000000;stroke:#fff;stroke-linecap:round;fill:#fff;" height="13.087" width="25.72" y="-293.65" x="2753.6"/><path d="m2794.3-291.23a5.7577 4.3955 0 0 1 3.7962 4.1288 5.7577 4.3955 0 0 1 -3.7962 4.1264v-8.2552z" style="solid-color:#000000;fill:#fff"/><g style="fill:#fff"><path d="m2549.1-279.51h-7.7837v-1.4679h2.9938v-9.6379h-2.9938v-1.3134q.6084 0 1.3038-.0966.6953-.10623 1.0526-.29937.4442-.24143.6953-.60841.2608-.37663.2994-1.0044h1.4969v12.96h2.9357v1.4679z"/><path d="m2562.5-279.51h-9.7345v-2.0184q1.014-.86915 2.0281-1.7383 1.0236-.86915 1.9024-1.7286 1.8542-1.7962 2.5399-2.8489.6856-1.0623.6856-2.2888 0-1.1202-.7436-1.748-.7339-.63738-2.057-.63738-.8788 0-1.9024.30903-1.0237.30903-1.9991.94641h-.097v-2.028q.6856-.33801 1.8252-.61806 1.1492-.28006 2.2211-.28006 2.2115 0 3.467 1.072 1.2554 1.0623 1.2554 2.8875 0 .82086-.2125 1.5355-.2028.70497-.6084 1.3424-.3766.59874-.8884 1.1782-.5022.57943-1.2265 1.2844-1.0333 1.014-2.1342 1.9701-1.101.94641-2.057 1.7576h7.7354v1.6514z"/><path d="m2569.4-287.55h-2.3081v-2.7523h2.3081v2.7523zm0 8.0348h-2.3081v-2.7523h2.3081v2.7523z"/><path d="m2582.8-286.44q.4636.41526.7629 1.043.2994.62772.2994 1.6224 0 .98503-.3573 1.8059-.3573.82086-1.0044 1.4293-.7243.67601-1.7093 1.0044-.9754.31869-2.1439.31869-1.1975 0-2.3563-.28972-1.1589-.28006-1.9025-.61806v-2.0184h.1448q.8209.5408 1.9315.89812 1.1106.35731 2.1439.35731.6084 0 1.2941-.2028.6856-.2028 1.1105-.59875.4443-.42491.6567-.93674.2221-.51184.2221-1.2941 0-.77258-.2511-1.2748-.2414-.51183-.676-.80155-.4345-.29937-1.0526-.4056-.6181-.11589-1.3327-.11589h-.8691v-1.6031h.676q1.4679 0 2.337-.60841.8788-.61806.8788-1.7962 0-.52148-.2221-.90777-.2221-.39595-.6181-.64704-.4152-.25108-.8884-.34765-.4732-.0966-1.072-.0966-.9174 0-1.9507.32835-1.0333.32834-1.9508.92709h-.097v-2.0184q.6857-.338 1.8253-.61806 1.1492-.28971 2.2211-.28971 1.0527 0 1.8542.19314.8015.19315 1.4486.61806.6953.46355 1.0526 1.1202.3573.65669.3573 1.5355 0 1.1975-.8498 2.0956-.8402.88846-1.9894 1.1202v.1352q.4636.0773 1.0623.32835.5988.24143 1.014.6084z"/><path d="m2596.7-286.71q0 3.8725-1.2168 5.6881-1.2072 1.8059-3.7567 1.8059-2.5881 0-3.7856-1.8349-1.1878-1.8349-1.1878-5.6398 0-3.8339 1.2071-5.6591 1.2072-1.8349 3.7663-1.8349 2.5882 0 3.776 1.8638 1.1975 1.8542 1.1975 5.6108zm-2.5399 4.3844q.338-.78223.4539-1.8349.1256-1.0623.1256-2.5495 0-1.4679-.1256-2.5495-.1159-1.0816-.4635-1.8349-.338-.74361-.9271-1.1202-.5794-.37663-1.4969-.37663-.9078 0-1.5065.37663-.5891.37663-.9367 1.1396-.3284.71464-.4539 1.8638-.1159 1.1492-.1159 2.5205 0 1.5065.1062 2.5205t.4539 1.8156q.3187.75326.8981 1.1492.5891.39595 1.5548.39595.9078 0 1.5065-.37663.5988-.37663.9271-1.1396z"/></g><g style="fill:#fff"><path d="m2545.9-125.56q0 10.752-5.5775 16.33-2.2425 2.2425-5.5775 3.335-3.2775 1.0925-8.28 1.0925h-14.375v-41.4h14.778q4.715 0 7.9925 1.035 3.2775.9775 5.8075 3.5075 2.3575 2.3575 3.795 6.785t1.4375 9.315zm-3.91 0q0-4.715-1.0925-8.1075-1.0925-3.45-3.22-5.52-2.07-2.1275-4.83-2.875-2.76-.805-7.3025-.805h-9.545v34.73h10.12q4.025 0 6.8425-.92 2.8175-.9775 4.6-2.76 2.3-2.3 3.335-5.75 1.0925-3.5075 1.0925-7.9925z"/><path d="m2586.4-104.8h-4.025l-4.7725-12.995h-18.86l-4.8875 12.995h-4.025l16.272-41.4h4.4275l15.87 41.4zm-10.12-16.33-8.1075-21.735-8.1075 21.735h16.215z"/><path d="m2625.9-125.56q0 10.752-5.5775 16.33-2.2425 2.2425-5.5775 3.335-3.2775 1.0925-8.28 1.0925h-14.375v-41.4h14.778q4.715 0 7.9925 1.035 3.2775.9775 5.8075 3.5075 2.3575 2.3575 3.795 6.785t1.4375 9.315zm-3.91 0q0-4.715-1.0925-8.1075-1.0925-3.45-3.22-5.52-2.07-2.1275-4.83-2.875-2.76-.805-7.3025-.805h-9.545v34.73h10.12q4.025 0 6.8425-.92 2.8175-.9775 4.6-2.76 2.3-2.3 3.335-5.75 1.0925-3.5075 1.0925-7.9925z"/></g><circle r="45.616" style="solid-color:#000000;fill:#4cd964" cx="2713.1" cy="360.54"/><path d="m2738.1 220.57c0 11.239-11.165 20.35-24.937 20.35-3.9796 0-7.7413-.76072-11.079-2.1137-.8955-.36302-8.6742 7.2239-9.5047 6.7788-.9842-.52747 4.9937-9.1028 4.113-9.7355-5.1909-3.7292-8.4663-9.1925-8.4663-15.28 0-11.239 11.165-20.35 24.937-20.35 13.772.00001 24.937 9.1112 24.937 20.35z" style="solid-color:#000000;fill:#fff"/><path style="fill:#fff;fill-rule:evenodd" d="m2726.6 383.28s-24.296-9.054-35.049-35.225c-1.0616-2.5839 4.532-8.7501 9.3899-10.258l5.0578 8.9022s-2.5571 3.2546-2.2198 5.0676c1.5373 8.2641 9.571 15.965 17.747 17.915 1.8894.45074 5.528-1.8427 5.528-1.8427l7.7559 3.7356s-1.4974 9.7072-8.2105 11.705z"/><g transform="translate(4.1657 -.0000011901)"><circle r="45.616" style="solid-color:#000000;fill:#ff3b30" cx="2429" cy="360.54"/><path style="fill:#fff;fill-rule:evenodd" d="m2403.6 355.87s23.582-10.778 49.691.12444c2.5778 1.0764 2.9826 9.3919.6137 13.893l-9.8712-2.7184s-.4932-4.1094-2.0137-5.153c-6.9306-4.7566-18.056-4.5209-25.217-.11846-1.6547 1.0173-2.6059 5.2118-2.6059 5.2118l-8.1258 2.8428s-5.8052-7.9229-2.4707-14.082z"/></g><g transform="translate(4.1657 -14)"><g transform="translate(-2.34375e-5,-60)"><circle r="18.828" style="solid-color:#000000;fill:#fff" cx="2429" cy="300.54"/><g transform="translate(-.0000018126)"><rect style="stroke-linejoin:round;csolid-color:#000000;stroke:#fff;stroke-linecap:round;stroke-width:3;fill:#fff;" transform="matrix(-.86603 -.5 -.5 .86603 0 0)" height="8.0503" width=".94710" y="-936.79" x="-2252.8"/><rect style="stroke-linejoin:round;csolid-color:#000000;stroke:#fff;stroke-linecap:round;stroke-width:3;fill:#fff;" transform="rotate(-30)" height="8.0503" width=".94710" y="1492.2" x="1954.3"/></g><path d="m2424.1 276.29a14.994 10.805 60 0 0 -13.732 -3.4868 14.994 10.805 60 0 0 -3.8419 13.633l17.574-10.147z" style="solid-color:#000000;fill:#fff"/><path style="solid-color:#000000;fill:#fff" d="m2433.9 276.29a10.805 14.994 30 0 1 13.732 -3.4868 10.805 14.994 30 0 1 3.8419 13.633l-17.574-10.147z"/></g></g><g style="fill:#fff"><path d="m2684.4 455.03h-2.1l-2.49-6.78h-9.84l-2.55 6.78h-2.1l8.49-21.6h2.31l8.28 21.6zm-5.28-8.52-4.23-11.34-4.23 11.34h8.46z" style="fill:#fff"/><path d="m2700.1 449.66q-.57 3.03-2.49 4.5-1.68 1.29-4.14 1.29-3.69 0-5.55-2.43-1.65-2.16-1.65-5.73 0-3.39 1.77-5.67 1.98-2.55 5.4-2.55 2.73 0 4.35 1.29 1.65 1.29 2.07 4.02h-1.83q-.51-1.89-1.74-2.79-1.2-.9-2.85-.9-2.52 0-3.9 1.89-1.35 1.89-1.35 4.71t1.23 4.56q1.41 1.98 4.05 1.98 1.95 0 3.18-1.11t1.53-3.06h1.92z" style="fill:#fff"/><path d="m2716.8 449.66q-.57 3.03-2.49 4.5-1.68 1.29-4.14 1.29-3.69 0-5.55-2.43-1.65-2.16-1.65-5.73 0-3.39 1.77-5.67 1.98-2.55 5.4-2.55 2.73 0 4.35 1.29 1.65 1.29 2.07 4.02h-1.83q-.51-1.89-1.74-2.79-1.2-.9-2.85-.9-2.52 0-3.9 1.89-1.35 1.89-1.35 4.71t1.23 4.56q1.41 1.98 4.05 1.98 1.95 0 3.18-1.11t1.53-3.06h1.92z" style="fill:#fff"/><path d="m2733.6 447.68h-12.06q0 2.79 1.41 4.47t3.84 1.68q1.65 0 2.88-.84 1.38-.96 1.8-2.73h2.01q-.72 2.4-2.16 3.66-1.71 1.53-4.5 1.53-3.78 0-5.64-2.52-1.56-2.13-1.56-5.55 0-3.54 1.86-5.85 1.98-2.46 5.28-2.46 3.39 0 5.16 2.37 1.68 2.25 1.68 6.24zm-1.92-1.5q0-2.31-1.14-3.78-1.32-1.71-3.78-1.71-2.01 0-3.36 1.32-1.5 1.44-1.86 4.17h10.14z" style="fill:#fff"/><path d="m2751.6 447.32q0 3.42-1.68 5.64-1.89 2.49-5.25 2.49-1.62 0-3.18-.75-1.53-.75-2.37-2.16v8.61h-1.8v-21.66h1.8v2.73q.63-1.23 2.19-2.19t3.24-.96q3.3 0 5.1 1.95 1.95 2.1 1.95 6.3zm-1.92-.18q0-1.83-.42-2.97-.39-1.17-1.2-1.98t-1.74-1.14q-.9-.36-1.89-.36-2.64 0-4.05 2.01-1.26 1.77-1.26 4.59 0 2.94 1.5 4.74t3.78 1.8q2.43 0 3.84-1.77 1.44-1.8 1.44-4.92z" style="fill:#fff"/><path d="m2761 455.09q-.3.09-.99.21-.66.15-1.08.15-1.5 0-2.13-.75t-.63-2.31v-11.4h-2.19v-1.5h2.19v-4.32h1.8v4.32h2.91v1.5h-2.91v10.89q0 1.17.3 1.56t1.29.39q.81 0 1.44-.24v1.5z" style="fill:#fff"/></g><g style="fill:#fff"><path d="m2401.8 444.2q0 5.61-2.91 8.52-1.17 1.17-2.91 1.74-1.71.57-4.32.57h-7.5v-21.6h7.71q2.46 0 4.17.54 1.71.51 3.03 1.83 1.23 1.23 1.98 3.54t.75 4.86zm-2.04 0q0-2.46-.57-4.23-.57-1.8-1.68-2.88-1.08-1.11-2.52-1.5-1.44-.42-3.81-.42h-4.98v18.12h5.28q2.1 0 3.57-.48 1.47-.51 2.4-1.44 1.2-1.2 1.74-3 .57-1.83.57-4.17z" style="fill:#fff"/><path d="m2418.7 447.68h-12.06q0 2.79 1.41 4.47t3.84 1.68q1.65 0 2.88-.84 1.38-.96 1.8-2.73h2.01q-.72 2.4-2.16 3.66-1.71 1.53-4.5 1.53-3.78 0-5.64-2.52-1.56-2.13-1.56-5.55 0-3.54 1.86-5.85 1.98-2.46 5.28-2.46 3.39 0 5.16 2.37 1.68 2.25 1.68 6.24zm-1.92-1.5q0-2.31-1.14-3.78-1.32-1.71-3.78-1.71-2.01 0-3.36 1.32-1.5 1.44-1.86 4.17h10.14z" style="fill:#fff"/><path d="m2435.3 449.66q-.57 3.03-2.49 4.5-1.68 1.29-4.14 1.29-3.69 0-5.55-2.43-1.65-2.16-1.65-5.73 0-3.39 1.77-5.67 1.98-2.55 5.4-2.55 2.73 0 4.35 1.29 1.65 1.29 2.07 4.02h-1.83q-.51-1.89-1.74-2.79-1.2-.9-2.85-.9-2.52 0-3.9 1.89-1.35 1.89-1.35 4.71t1.23 4.56q1.41 1.98 4.05 1.98 1.95 0 3.18-1.11t1.53-3.06h1.92z" style="fill:#fff"/><path d="m2441 455.03h-1.8v-21.6h1.8v21.6z" style="fill:#fff"/><path d="m2447.8 436.1h-1.98v-2.67h1.98v2.67zm-.09 18.93h-1.8v-15.54h1.8v15.54z" style="fill:#fff"/><path d="m2464.6 455.03h-1.8v-10.2q0-4.14-3.96-4.14-2.88 0-4.14 2.49-.63 1.26-.63 3.09v8.76h-1.8v-15.54h1.8v2.16q1.2-1.29 2.37-1.92 1.2-.66 2.64-.66 1.23 0 2.28.36 1.08.33 1.86 1.14.78.78 1.08 1.71t.3 2.34v10.41z" style="fill:#fff"/><path d="m2482.2 447.68h-12.06q0 2.79 1.41 4.47t3.84 1.68q1.65 0 2.88-.84 1.38-.96 1.8-2.73h2.01q-.72 2.4-2.16 3.66-1.71 1.53-4.5 1.53-3.78 0-5.64-2.52-1.56-2.13-1.56-5.55 0-3.54 1.86-5.85 1.98-2.46 5.28-2.46 3.39 0 5.16 2.37 1.68 2.25 1.68 6.24zm-1.92-1.5q0-2.31-1.14-3.78-1.32-1.71-3.78-1.71-2.01 0-3.36 1.32-1.5 1.44-1.86 4.17h10.14z" style="fill:#fff"/></g><g style="fill:#fff"><path d="m2389 290.2h-1.6875q-.27-.495-.4275-1.5075-.135-1.0125-.135-2.07 0-1.935-.405-2.6325-.675-1.1475-2.8125-1.1475h-4.9725v7.3575h-1.53v-16.2h6.345q2.6775 0 4.0275.945 1.485 1.0575 1.485 3.3075 0 1.62-.675 2.5425-.585.81-1.9575 1.4175 1.125.405 1.5975 1.4175.4725.99.4725 2.9025 0 1.4175.135 2.34t.54 1.17v.1575zm-1.6425-11.88q0-1.3725-.765-2.0925-.9675-.9225-3.1275-.9225h-4.905v6.2325h4.8375q1.8225 0 2.88-.8325 1.08-.855 1.08-2.385z" style="fill:#fff"/><path d="m2401.7 284.69h-9.045q0 2.0925 1.0575 3.3525t2.88 1.26q1.2375 0 2.16-.63 1.035-.72 1.35-2.0475h1.5075q-.54 1.8-1.62 2.745-1.2825 1.1475-3.375 1.1475-2.835 0-4.23-1.89-1.17-1.5975-1.17-4.1625 0-2.655 1.395-4.3875 1.485-1.845 3.96-1.845 2.5425 0 3.87 1.7775 1.26 1.6875 1.26 4.68zm-1.44-1.125q0-1.7325-.855-2.835-.99-1.2825-2.835-1.2825-1.5075 0-2.52.99-1.125 1.08-1.395 3.1275h7.605z" style="fill:#fff"/><path d="m2420 290.2h-1.35v-8.0775q0-1.35-.585-2.0025-.5625-.675-1.89-.675-.945 0-1.7325.495-.7875.4725-1.17 1.2375-.225.45-.3825 1.1925-.135.72-.135 1.44v6.39h-1.35v-8.0775q0-1.4175-.63-2.0475-.6075-.63-1.8-.63-1.08 0-1.9125.5625-.675.45-1.0125 1.125-.2025.4275-.3825 1.1925-.1575.7425-.1575 1.485v6.39h-1.35v-11.655h1.35v1.7775q.5175-.9675 1.485-1.53.99-.5625 2.2275-.5625 1.3275 0 2.115.5625.81.54 1.2375 1.6875.54-1.1025 1.5525-1.665 1.035-.585 2.2275-.585 1.845 0 2.745 1.0575.9 1.035.9 3.42v7.4925z" style="fill:#fff"/><path d="m2424.7 276h-1.485v-2.0025h1.485v2.0025zm-.068 14.198h-1.35v-11.655h1.35v11.655z" style="fill:#fff"/><path d="m2437.4 290.2h-1.35v-7.65q0-3.105-2.97-3.105-2.16 0-3.105 1.8675-.4725.945-.4725 2.3175v6.57h-1.35v-11.655h1.35v1.62q.9-.9675 1.7775-1.44.9-.495 1.98-.495.9225 0 1.71.27.81.2475 1.395.855.585.585.81 1.2825t.225 1.755v7.8075z" style="fill:#fff"/><path d="m2451 290.2h-1.35v-2.0475q-.585 1.1025-1.7775 1.7325-1.17.63-2.34.63-2.475 0-3.825-1.53-1.4175-1.5975-1.4175-4.5675 0-2.565 1.1925-4.23 1.395-1.9575 4.05-1.9575 1.305 0 2.43.63 1.1475.6075 1.6875 1.5525v-6.4125h1.35v16.2zm-1.35-5.85q0-2.1825-1.125-3.5325-1.125-1.3725-2.835-1.3725-1.89 0-2.925 1.3725t-1.035 3.645q0 1.26.2925 2.1825.315.9.99 1.5975.495.495 1.1475.7875.6525.27 1.485.27 2.0025 0 3.06-1.53.945-1.35.945-3.42z" style="fill:#fff"/><path d="m2476 290.2h-1.53v-14.445l-5.355 14.445h-1.44l-5.3325-14.445-.045 14.445h-1.53v-16.2h2.34l5.31 14.288 5.265-14.288h2.3175v16.2z" style="fill:#fff"/><path d="m2489.3 284.69h-9.045q0 2.0925 1.0575 3.3525t2.88 1.26q1.2375 0 2.16-.63 1.035-.72 1.35-2.0475h1.5075q-.54 1.8-1.62 2.745-1.2825 1.1475-3.375 1.1475-2.835 0-4.23-1.89-1.17-1.5975-1.17-4.1625 0-2.655 1.395-4.3875 1.485-1.845 3.96-1.845 2.5425 0 3.87 1.7775 1.26 1.6875 1.26 4.68zm-1.44-1.125q0-1.7325-.855-2.835-.99-1.2825-2.835-1.2825-1.5075 0-2.52.99-1.125 1.08-1.395 3.1275h7.605z" style="fill:#fff"/></g><g style="fill:#fff"><path d="m2683.5 285.98h-1.53v-14.445l-5.355 14.445h-1.44l-5.3325-14.445-.045 14.445h-1.53v-16.2h2.34l5.31 14.288 5.265-14.288h2.3175v16.2z" style="fill:#fff"/><path d="m2696.7 280.47h-9.045q0 2.0925 1.0575 3.3525t2.88 1.26q1.2375 0 2.16-.63 1.035-.72 1.35-2.0475h1.5075q-.54 1.8-1.62 2.745-1.2825 1.1475-3.375 1.1475-2.835 0-4.23-1.89-1.17-1.5975-1.17-4.1625 0-2.655 1.395-4.3875 1.485-1.845 3.96-1.845 2.5425 0 3.87 1.7775 1.26 1.6875 1.26 4.68zm-1.44-1.125q0-1.7325-.855-2.835-.99-1.2825-2.835-1.2825-1.5075 0-2.52.99-1.125 1.08-1.395 3.1275h7.605z" style="fill:#fff"/><path d="m2708 282.9q0 1.62-1.2825 2.52-1.2825.8775-3.42.8775-1.9125 0-3.15-1.0125-1.3275-1.08-1.3275-2.9475h1.3725q.315 1.4625 1.1025 2.115.81.63 2.3625.63 1.4175 0 2.205-.675.6975-.585.6975-1.4625 0-1.395-1.935-1.9575-1.8-.45-3.6-.9-1.935-.7875-1.935-2.79 0-1.4625 1.1025-2.3625 1.125-.9225 2.9925-.9225 1.9575 0 3.105.8775 1.1475.855 1.395 2.79h-1.3725q-.3375-2.4525-3.15-2.4525-1.215 0-1.935.54-.6975.5175-.6975 1.44 0 1.2825 1.935 1.89 1.8.5175 3.6 1.035 1.935.855 1.935 2.7675z" style="fill:#fff"/><path d="m2719.2 282.9q0 1.62-1.2825 2.52-1.2825.8775-3.42.8775-1.9125 0-3.15-1.0125-1.3275-1.08-1.3275-2.9475h1.3725q.315 1.4625 1.1025 2.115.81.63 2.3625.63 1.4175 0 2.205-.675.6975-.585.6975-1.4625 0-1.395-1.935-1.9575-1.8-.45-3.6-.9-1.935-.7875-1.935-2.79 0-1.4625 1.1025-2.3625 1.125-.9225 2.9925-.9225 1.9575 0 3.105.8775 1.1475.855 1.395 2.79h-1.3725q-.3375-2.4525-3.15-2.4525-1.215 0-1.935.54-.6975.5175-.6975 1.44 0 1.2825 1.935 1.89 1.8.5175 3.6 1.035 1.935.855 1.935 2.7675z" style="fill:#fff"/><path d="m2732.3 285.93q-.3825.135-.585.18-.18.045-.4725.045-.8775 0-1.2375-.3375-.45-.405-.45-1.4625-.9 1.0125-2.115 1.5075-1.0575.4275-2.2275.4275-1.665 0-2.745-.855-1.1475-.9225-1.1475-2.4975 0-1.5525 1.1475-2.4525 1.035-.81 2.925-1.0575l1.6875-.225q.495-.0675 1.0125-.135.855-.135 1.1475-.4275t.2925-1.035q0-1.125-.72-1.755-.6975-.63-2.16-.63-1.665 0-2.4525.63t-.9675 2.0025h-1.3725q0-1.6875 1.17-2.7225 1.2825-1.125 3.6225-1.125 1.8675 0 2.925.7425 1.305.9225 1.305 2.925v6.3q0 1.08.6075 1.08.3375 0 .81-.18v1.0575zm-2.7675-4.2525v-1.8225q-.99.405-2.3625.54-2.52.27-3.195.6075-1.215.6075-1.215 1.9575 0 .9675.72 1.5525.7425.5625 1.8675.5625 1.6425 0 2.8125-.7875 1.3725-.9225 1.3725-2.61z" style="fill:#fff"/><path d="m2744.8 284.99q0 3.1725-1.6425 4.59-1.35 1.17-3.825 1.17-1.9575 0-3.285-.8325-1.44-.9-1.6425-2.52h1.44q.4725 2.1375 3.3975 2.1375 1.44 0 2.295-.4725.8775-.45 1.3725-1.44.315-.6075.4275-1.395t.1125-2.115q-.495.8775-1.5525 1.485-1.215.6975-2.565.6975-2.475 0-3.87-1.6875-1.3725-1.71-1.3725-4.5 0-2.9925 1.395-4.545t3.8925-1.5525q1.35 0 2.52.7425 1.08.675 1.5075 1.62l.045-2.0475h1.35v10.665zm-1.35-4.86q0-2.16-1.0125-3.4875-1.08-1.4175-2.97-1.4175-.8775 0-1.53.2925t-1.1925.8325q-1.215 1.215-1.215 3.735 0 2.3625 1.0575 3.69 1.08 1.305 2.925 1.305 1.755 0 2.835-1.3725 1.1025-1.395 1.1025-3.5775z" style="fill:#fff"/><path d="m2758 280.47h-9.045q0 2.0925 1.0575 3.3525t2.88 1.26q1.2375 0 2.16-.63 1.035-.72 1.35-2.0475h1.5075q-.54 1.8-1.62 2.745-1.2825 1.1475-3.375 1.1475-2.835 0-4.23-1.89-1.17-1.5975-1.17-4.1625 0-2.655 1.395-4.3875 1.485-1.845 3.96-1.845 2.5425 0 3.87 1.7775 1.26 1.6875 1.26 4.68zm-1.44-1.125q0-1.7325-.855-2.835-.99-1.2825-2.835-1.2825-1.5075 0-2.52.99-1.125 1.08-1.395 3.1275h7.605z" style="fill:#fff"/></g><g transform="translate(-.000018409 -1280)"><path d="m2489.6 731.18h-3.48v-7.38q-2.4 4.2-6.36 6.36-3.9 2.16-9.6 2.16-9.42 0-14.46-6.6-4.62-6.06-4.62-16.32 0-10.32 5.1-16.32 5.34-6.24 14.76-6.24 7.14 0 11.94 3.48 4.86 3.42 6.24 10.2h-4.2q-1.08-4.8-4.92-7.5-3.78-2.7-8.7-2.7-8.1 0-12.24 5.64-3.9 5.28-3.9 14.88 0 7.62 4.14 12.66 4.38 5.34 11.52 5.34 6.3 0 10.38-3.96 2.16-2.16 3.3-5.28 1.2-3.12 1.2-7.26h-14.58v-3.48h18.48v22.32z"/><path d="m2526.7 731.18h-27.24v-43.2h4.08v39.72h23.16v3.48z"/><path d="m2571.4 709.64q0 9.42-4.68 15.54-5.46 7.14-15.48 7.14-9.24 0-14.7-6.18-5.4-6.24-5.4-16.68 0-9.66 4.98-15.84 5.46-6.78 15-6.78 9.66 0 15.12 6.6 5.16 6.18 5.16 16.2zm-4.08-.06q0-8.82-4.26-14.04t-11.88-5.22q-7.68 0-12 5.76-3.96 5.28-3.96 13.44 0 8.34 3.66 13.44 4.26 5.88 12.48 5.88 8.04 0 12.3-6 3.66-5.16 3.66-13.26z"/><path d="m2611.2 718.82q0 6.3-3.6 9.36-3.54 3-10.44 3h-17.7v-43.2h15.48q7.32 0 10.8 2.82 3.48 2.76 3.48 8.04 0 3.84-1.8 6.24t-5.1 3.06q3.66.6 6 2.94 2.88 2.88 2.88 7.74zm-6.06-19.98q0-4.02-2.7-5.7-2.64-1.68-9.6-1.68h-9.3v15.6h10.32q6.3 0 9-2.34 2.28-1.98 2.28-5.88zm1.98 20.22q0-4.68-2.94-6.6t-9.54-1.92h-11.1v17.16h11.1q7.14 0 9.78-1.86 2.7-1.92 2.7-6.78z"/><path d="m2653.7 731.18h-4.2l-4.98-13.56h-19.68l-5.1 13.56h-4.2l16.98-43.2h4.62l16.56 43.2zm-10.56-17.04-8.46-22.68-8.46 22.68h16.92z"/><path d="m2686.8 731.18h-27.24v-43.2h4.08v39.72h23.16v3.48z"/></g></g></g></svg>