<svg xmlns="http://www.w3.org/2000/svg" height="100%" width="100%" xmlns:xlink="http://www.w3.org/1999/xlink" viewBox="0 0 424.45122 892.97645">
<style>svg{font-family:sans-serif;}</style>
<defs>
<marker id="b" refY="0" refX="0" style="overflow:visible" orient="auto">
<path d="m8.7186 4.0337-10.926-4.0177 10.926-4.0177c-1.7455 2.3721-1.7354 5.6175-6e-7 8.0354z" style="stroke-linejoin:round;stroke-opacity:.96078;stroke:#696969;stroke-width:.625;fill:#f7df79" transform="matrix(-1.1,0,0,-1.1,-1.1,0)"/>
</marker>
<marker id="c" refY="0" refX="0" style="overflow:visible" orient="auto">
<path style="stroke-linejoin:round;stroke-opacity:.96078;stroke:#696969;stroke-width:.625;fill:#f7df79" transform="matrix(-1.1,0,0,-1.1,-1.1,0)" d="m8.7186 4.0337-10.926-4.0177 10.926-4.0177c-1.7455 2.3721-1.7354 5.6175-6e-7 8.0354z"/>
</marker>
<marker id="d" refY="0" refX="0" style="overflow:visible" orient="auto">
<path d="m8.7186 4.0337-10.926-4.0177 10.926-4.0177c-1.7455 2.3721-1.7354 5.6175-6e-7 8.0354z" style="stroke-linejoin:round;stroke-opacity:.96078;stroke:#696969;stroke-width:.625;fill:#f7df79" transform="matrix(-1.1,0,0,-1.1,-1.1,0)"/>
</marker>
</defs>
<g transform="translate(382.77 608.41)">
<rect style="stroke-linejoin:round;color-rendering:auto;color:#000000;solid-color:#000000;stroke:#696969;stroke-linecap:round;stroke-width:2.9999;fill:#ffa27b" rx="23.963" ry="31.995" height="63.99" width="194.6" y="219.07" x="-366.84"/>
<rect style="stroke-linejoin:round;color-rendering:auto;color:#000000;solid-color:#000000;stroke:#696969;stroke-linecap:round;stroke-width:2.9999;fill:#e0ff87" rx="23.963" ry="31.995" height="63.99" width="194.6" y="-606.91" x="-367.34"/>
<text style="font-size:17.5px;fill:#000000" y="-562.19012" x="-327.32639"><tspan y="-562.19012" x="-327.32639" style="font-size:34.999px">START</tspan></text>
<text style="font-size:17.5px;fill:#000000" y="263.79602" x="-316.84418"><tspan y="263.79602" x="-316.84418" style="font-size:34.999px">STOP</tspan></text>
<path style="marker-end:url(#b);stroke-opacity:.96078;stroke:#696969;stroke-width:2;fill:#f7df79" d="m-270.07-540.37v96.49"/>
<text style="font-size:17.5px;fill:#000000" y="-173.20886" x="-483.27966"><tspan y="-173.20886" x="-483.27966"/></text>
<path style="marker-end:url(#c);stroke-opacity:.96078;stroke:#696969;stroke-width:2;fill:#f7df79" d="m-270.07 111.62v98.49"/>
<path style="marker-end:url(#d);stroke-opacity:.96078;stroke:#696969;stroke-width:2;fill:#f7df79" d="m41.177 89.778h-190.48"/>
<use xlink:href="#a" transform="translate(-1.0746 493.99)" height="100%" width="100%" y="0" x="0"/>
<text style="font-size:17.5px;fill:#000000" y="94.52771" x="-271.66614"><tspan y="94.52771" x="-271.66614" style="font-size:24.999px;text-anchor:middle;text-align:center">Label Block</tspan></text>
<use xlink:href="#a" transform="translate(.0000029267 318)" height="100%" width="100%" y="0" x="0"/>
<path style="stroke:#696969;stroke-width:2;stroke-opacity:.96078;fill:none" d="m-161.46-247.03h202.08l.0623 337.25"/>
<rect id="a" style="stroke-linejoin:round;color-rendering:auto;color:#000000;solid-color:#000000;stroke:#696969;stroke-linecap:round;stroke-width:2.9999;fill:#c4e4ff" rx="0" ry="0" height="53.762" width="220.33" y="-433.39" x="-380.2"/>
<text style="font-size:17.5px;fill:#000000" y="-397.44592" x="-270.32913"><tspan y="-397.44592" x="-270.32913" style="font-size:24.999px;text-anchor:middle;text-align:center">Statements</tspan></text>
<path style="marker-end:url(#b);stroke-opacity:.96078;stroke:#696969;stroke-width:2;fill:#f7df79" d="m-270.07-380.37v96.49"/>
<use xlink:href="#a" transform="translate(7.581e-7 160)" height="100%" width="100%" y="0" x="0"/>
<text style="font-size:17.5px;fill:#000000" y="-237.20178" x="-269.78595"><tspan y="-237.20178" x="-269.78595" style="font-size:24.999px;text-anchor:middle;text-align:center">goto label</tspan></text>
<text style="font-size:17.5px;fill:#000000" y="-79.201668" x="-271.17139"><tspan y="-79.201668" x="-271.17139" style="font-size:24.999px;text-anchor:middle;text-align:center">Missed Block</tspan></text>
</g>
</svg>