<svg xmlns:rdf="http://www.w3.org/1999/02/22-rdf-syntax-ns#" xmlns="http://www.w3.org/2000/svg" height="332.18mm" width="860.77mm" version="1.1" xmlns:cc="http://creativecommons.org/ns#" xmlns:xlink="http://www.w3.org/1999/xlink" viewBox="0 0 3049.9725 1177.0034" xmlns:dc="http://purl.org/dc/elements/1.1/">
 <defs>
  <linearGradient id="a" y2="2024.7" gradientUnits="userSpaceOnUse" x2="3139.1" gradientTransform="translate(.00010859 .000012461)" y1="381.83" x1="1187.2">
   <stop style="stop-color:#f3f3f3" offset="0"/>
   <stop style="stop-color:#f3f3f3;stop-opacity:0" offset="1"/>
  </linearGradient>
 </defs>
 <g transform="translate(1716.4 296.14)">
  <rect style="opacity:.972;color-rendering:auto;color:#000000;isolation:auto;mix-blend-mode:normal;fill-rule:evenodd;shape-rendering:auto;solid-color:#000000;image-rendering:auto;fill:url(#a)" height="1177" width="3050" y="-296.14" x="-1716.4"/>
  <path style="fill:#8b8b8b;fill-rule:evenodd" d="m-1572.9 208.43c0-8 10-8 10-.077v301.91c.3859 32.141 45.333 32.141 45.333.3063v-174.08c0-7.7816 10.099-7.8055 10.099.1727l.1768 174.04c1.53 31.71 46.021 31.71 46.021.072v-302.7c0-7.6407 8.9567-7.6407 8.9567.4761v111.13c0 19.079 34.46 19.079 34.413.09-.117-46.582.3401-94.013-.2614-140.58 0-18.974-16.262-36.552-34.547-38.857-18.735-2.4709-37.777-.6992-56.651-1.2342-20.589.2608-41.241-.5335-61.789.419-19.925 2.1817-36.343 20.698-36.343 40.123-.068 46.078-.015 93.57-.029 139.65-.01 19.471 34.528 19.471 34.528.4756-.01-39.117.097-77.444.092-111.33zm98.871-119.54a38.655 38.655 0 0 1 -38.655 38.655 38.655 38.655 0 0 1 -38.655 -38.655 38.655 38.655 0 0 1 38.655 -38.655 38.655 38.655 0 0 1 38.655 38.655z"/>
  <path style="fill:#ffd64b;fill-rule:evenodd" d="m-1132.5 208.43c0-8 10-8 10-.077v301.91c.3859 32.141 45.333 32.141 45.333.3063v-174.08c0-7.7816 10.099-7.8055 10.099.1727l.1768 174.04c1.53 31.71 46.021 31.71 46.021.072v-302.7c0-7.6407 8.9567-7.6407 8.9567.4761v111.13c0 19.079 34.46 19.079 34.413.09-.117-46.582.3401-94.013-.2614-140.58 0-18.974-16.262-36.552-34.547-38.857-18.735-2.4709-37.777-.6992-56.651-1.2342-20.589.2608-41.241-.5335-61.789.419-19.925 2.1817-36.343 20.698-36.343 40.123-.068 46.078-.015 93.57-.029 139.65-.01 19.471 34.528 19.471 34.528.4756-.01-39.117.097-77.444.092-111.33zm98.871-119.54a38.655 38.655 0 0 1 -38.655 38.655 38.655 38.655 0 0 1 -38.655 -38.655 38.655 38.655 0 0 1 38.655 -38.655 38.655 38.655 0 0 1 38.655 38.655z"/>
  <path style="fill:#ff6868;fill-rule:evenodd" d="m-692.08 208.43c0-8 10-8 10-.077v301.91c.3859 32.141 45.333 32.141 45.333.3063v-174.08c0-7.7816 10.099-7.8055 10.099.1727l.1768 174.04c1.53 31.71 46.021 31.71 46.021.072v-302.7c0-7.6407 8.9567-7.6407 8.9567.4761v111.13c0 19.079 34.46 19.079 34.413.09-.117-46.582.3401-94.013-.2614-140.58 0-18.974-16.262-36.552-34.547-38.857-18.735-2.4709-37.777-.6992-56.651-1.2342-20.589.2608-41.241-.5335-61.789.419-19.925 2.1817-36.343 20.698-36.343 40.123-.068 46.078-.015 93.57-.029 139.65-.01 19.471 34.528 19.471 34.528.4756-.01-39.117.097-77.444.092-111.33zm98.871-119.54a38.655 38.655 0 0 1 -38.655 38.655 38.655 38.655 0 0 1 -38.655 -38.655 38.655 38.655 0 0 1 38.655 -38.655 38.655 38.655 0 0 1 38.655 38.655z"/>
  <path style="fill:#98c1ff;fill-rule:evenodd" d="m-251.64 208.43c0-8 10-8 10-.077v301.91c.3859 32.141 45.333 32.141 45.333.3063v-174.08c0-7.7816 10.099-7.8055 10.099.1727l.1768 174.04c1.53 31.71 46.021 31.71 46.021.072v-302.7c0-7.6407 8.9567-7.6407 8.9567.4761v111.13c0 19.079 34.46 19.079 34.413.09-.117-46.582.3401-94.013-.2614-140.58 0-18.974-16.262-36.552-34.547-38.857-18.735-2.4709-37.777-.6992-56.651-1.2342-20.589.2608-41.241-.5335-61.789.419-19.925 2.1817-36.343 20.698-36.343 40.123-.068 46.078-.015 93.57-.029 139.65-.01 19.471 34.528 19.471 34.528.4756-.01-39.117.097-77.444.092-111.33zm98.871-119.54a38.655 38.655 0 0 1 -38.655 38.655 38.655 38.655 0 0 1 -38.655 -38.655 38.655 38.655 0 0 1 38.655 -38.655 38.655 38.655 0 0 1 38.655 38.655z"/>
  <path style="fill:#70ddb0;fill-rule:evenodd" d="m188.79 208.43c0-8 10-8 10-.077v301.91c.3859 32.141 45.333 32.141 45.333.3063v-174.08c0-7.7816 10.099-7.8055 10.099.1727l.1768 174.04c1.53 31.71 46.021 31.71 46.021.072v-302.7c0-7.6407 8.9567-7.6407 8.9567.4761v111.13c0 19.079 34.46 19.079 34.413.09-.117-46.582.3401-94.013-.2614-140.58 0-18.974-16.262-36.552-34.547-38.857-18.735-2.4709-37.777-.6992-56.651-1.2342-20.589.2608-41.241-.5335-61.789.419-19.925 2.1817-36.343 20.698-36.343 40.123-.068 46.078-.015 93.57-.029 139.65-.01 19.471 34.528 19.471 34.528.4756-.01-39.117.097-77.444.092-111.33zm98.87-119.54a38.655 38.655 0 0 1 -38.66 38.658 38.655 38.655 0 0 1 -38.65 -38.658 38.655 38.655 0 0 1 38.65 -38.655 38.655 38.655 0 0 1 38.66 38.655z"/>
  <path style="fill:#b7f572;fill-rule:evenodd" d="m629.22 208.43c0-8 10-8 10-.077v301.91c.3859 32.141 45.333 32.141 45.333.3063v-174.08c0-7.7816 10.099-7.8055 10.099.1727l.1768 174.04c1.53 31.71 46.021 31.71 46.021.072v-302.7c0-7.6407 8.9567-7.6407 8.9567.4761v111.13c0 19.079 34.46 19.079 34.413.09-.117-46.582.3401-94.013-.2614-140.58 0-18.974-16.262-36.552-34.547-38.857-18.735-2.4709-37.777-.6992-56.651-1.2342-20.589.2608-41.241-.5335-61.789.419-19.925 2.1817-36.343 20.698-36.343 40.123-.068 46.078-.015 93.57-.029 139.65-.01 19.471 34.528 19.471 34.528.4756-.01-39.117.097-77.444.092-111.33zm98.87-119.54a38.655 38.655 0 0 1 -38.655 38.655 38.655 38.655 0 0 1 -38.655 -38.655 38.655 38.655 0 0 1 38.655 -38.655 38.655 38.655 0 0 1 38.655 38.655z"/>
  <path style="fill:#d791fb;fill-rule:evenodd" d="m1069.7 208.43c0-8 10-8 10-.077v301.91c.3859 32.141 45.333 32.141 45.333.3063v-174.08c0-7.7816 10.099-7.8055 10.099.1727l.1768 174.04c1.53 31.71 46.021 31.71 46.021.072v-302.7c0-7.6407 8.9567-7.6407 8.9567.4761v111.13c0 19.079 34.46 19.079 34.413.09-.117-46.582.3401-94.013-.2614-140.58 0-18.974-16.262-36.552-34.547-38.857-18.735-2.4709-37.777-.6992-56.651-1.2342-20.589.2608-41.241-.5335-61.789.419-19.925 2.1817-36.343 20.698-36.343 40.123-.068 46.078-.015 93.57-.029 139.65-.01 19.471 34.528 19.471 34.528.4756-.01-39.117.097-77.444.092-111.33zm98.871-119.54a38.655 38.655 0 0 1 -38.655 38.655 38.655 38.655 0 0 1 -38.655 -38.655 38.655 38.655 0 0 1 38.655 -38.655 38.655 38.655 0 0 1 38.655 38.655z"/>
  <text style="font-size:50px;letter-spacing:0px;line-height:125%;word-spacing:0px;font-family:sans-serif;fill:#000000" xml:space="preserve" y="-39.400452" x="-1569.306"><tspan x="-1569.306" y="-39.400452">John</tspan></text>
  <text style="letter-spacing:0px;font-size:50px;word-spacing:0px;font-family:sans-serif;line-height:125%;fill:#000000" xml:space="preserve" y="-48.970757" x="208.14729"><tspan x="208.14729" y="-48.970757">Jiju</tspan></text>
  <text style="letter-spacing:0px;font-size:50px;word-spacing:0px;font-family:sans-serif;line-height:125%;fill:#000000" y="-39.278381" x="-278.67203" xml:space="preserve"><tspan y="-39.278381" x="-278.67203">Mellvin</tspan></text>
  <text style="letter-spacing:0px;font-size:50px;word-spacing:0px;font-family:sans-serif;line-height:125%;fill:#000000" xml:space="preserve" y="-39.400452" x="-687.78149"><tspan x="-687.78149" y="-39.400452">Sam</tspan></text>
  <text style="letter-spacing:0px;font-size:50px;word-spacing:0px;font-family:sans-serif;line-height:125%;fill:#000000" y="-39.400452" x="-1126.9202" xml:space="preserve"><tspan y="-39.400452" x="-1126.9202">Jack</tspan></text>
  <text style="letter-spacing:0px;font-size:50px;word-spacing:0px;font-family:sans-serif;line-height:125%;fill:#000000" xml:space="preserve" y="-48.970757" x="618.86798"><tspan x="618.86798" y="-48.970757">Singh</tspan></text>
  <text style="letter-spacing:0px;font-size:50px;word-spacing:0px;font-family:sans-serif;line-height:125%;fill:#000000" xml:space="preserve" y="-39.400452" x="1058.3973"><tspan x="1058.3973" y="-39.400452">David</tspan></text>
  <text style="font-size:90px;letter-spacing:0px;line-height:125%;word-spacing:0px;font-family:sans-serif;fill:#000000" xml:space="preserve" y="798.86493" x="-606.33813"><tspan x="-606.33813" y="798.86493">IDENTIFIERS IN C</tspan></text>
 </g>
</svg>
