<svg xmlns:rdf="http://www.w3.org/1999/02/22-rdf-syntax-ns#" xmlns="http://www.w3.org/2000/svg" viewBox="0 0 2233.5594 615.08354" height="173.59mm" width="630.36mm" version="1.1" xmlns:cc="http://creativecommons.org/ns#" xmlns:xlink="http://www.w3.org/1999/xlink" xmlns:dc="http://purl.org/dc/elements/1.1/">
 <defs>
  <pattern id="d" xlink:href="#a" patternTransform="matrix(10 0 0 10 -71.221 89.112)"/>
  <pattern id="e" xlink:href="#b" patternTransform="matrix(10 0 0 10 -71.221 89.112)"/>
  <pattern id="f" xlink:href="#a" patternTransform="matrix(10 0 0 10 -1149.9 863.79)"/>
  <pattern id="g" xlink:href="#b" patternTransform="matrix(10 0 0 -10 -1149.9 1440.3)"/>
  <pattern id="a" xlink:href="#c" patternTransform="matrix(10 0 0 10 -71.221 61.787)"/>
  <pattern id="b" xlink:href="#c" patternTransform="matrix(10 0 0 10 -71.221 61.787)"/>
  <pattern id="c" xlink:href="#i" patternTransform="scale(10)"/>
  <pattern id="i" height="1" width="2" patternUnits="userSpaceOnUse" patternTransform="translate(0) scale(10)">
   <rect height="2" width="1" y="-.5" x="0"/>
  </pattern>
  <filter id="h" style="color-interpolation-filters:sRGB" height="1.0699" width="1.998" y="-.034931" x="-.49902">
   <feGaussianBlur stdDeviation="8.66898"/>
  </filter>
 </defs>
 <g transform="translate(71.221 -89.112)">
  <path d="m-29.882 314.93c0-9.5507 11.938-9.5507 11.938-.0919v360.43c.46069 38.371 54.12 38.371 54.12.36569v-207.82c0-9.2899 12.057-9.3185 12.057.20617l.21106 207.78c1.8266 37.857 54.942 37.857 54.942.0859v-361.37c0-9.1217 10.693-9.1217 10.693.56838v132.67c0 22.777 41.14 22.777 41.083.10748-.13962-55.611.40602-112.24-.31207-167.83 0-22.652-19.414-43.637-41.243-46.389-22.367-2.9498-45.1-.83473-67.632-1.4734-24.58.31135-49.235-.63691-73.766.50022-23.787 2.6046-43.388 24.71-43.388 47.9-.0812 55.01-.018 111.71-.0347 166.72-.012 23.245 41.221 23.245 41.221.56779-.012-46.699.11581-92.455.10984-132.91zm118.04-142.71a46.148 46.148 0 0 1 -46.148 46.15 46.148 46.148 0 0 1 -46.148 -46.15 46.148 46.148 0 0 1 46.148 -46.15 46.148 46.148 0 0 1 46.148 46.15z" style="fill:#f5728e;fill-rule:evenodd"/>
  <path style="color-rendering:auto;color:#000000;isolation:auto;mix-blend-mode:normal;fill-rule:evenodd;shape-rendering:auto;solid-color:#000000;image-rendering:auto;fill:#92dbce" d="m558.57 217.84a39.246 31.666 0 0 0 -39.247 31.665 39.246 31.666 0 0 0 .0983 2.23h78.257a39.246 31.666 0 0 0 .13797 -2.23 39.246 31.666 0 0 0 -39.247 -31.665z"/>
  <rect style="opacity:.972;color-rendering:auto;color:#000000;isolation:auto;mix-blend-mode:normal;fill-rule:evenodd;shape-rendering:auto;solid-color:#000000;image-rendering:auto;fill:#92dbce" ry="0" height="101.94" width="157.21" y="249.95" x="479.97"/>
  <rect style="opacity:.972;color-rendering:auto;fill-opacity:.97255;color:#000000;isolation:auto;mix-blend-mode:normal;fill-rule:evenodd;shape-rendering:auto;solid-color:#000000;image-rendering:auto;fill:#92dbce" ry="0" height="141.19" width="222.45" y="359.53" x="447.34"/>
  <rect style="opacity:.972;color-rendering:auto;color:#000000;isolation:auto;mix-blend-mode:normal;fill-rule:evenodd;shape-rendering:auto;solid-color:#000000;image-rendering:auto;fill:#92dbce" ry="0" height="141.45" width="27.83" y="505.57" x="478.65"/>
  <rect style="opacity:.972;color-rendering:auto;color:#000000;isolation:auto;mix-blend-mode:normal;fill-rule:evenodd;shape-rendering:auto;solid-color:#000000;image-rendering:auto;fill:#92dbce" ry="0" height="141.45" width="27.83" y="505.57" x="610.66"/>
  <path d="m432.31 512.46s-91.069-56.202 0-124.8" style="stroke:url(#e);stroke-width:20;fill:none"/>
  <rect style="color-rendering:auto;color:#000000;isolation:auto;mix-blend-mode:normal;fill-rule:evenodd;shape-rendering:auto;solid-color:#000000;image-rendering:auto;fill:#68b2a5" rx="7.1429" ry="7.1429" height="44.598" width="11.718" y="368.2" x="430.7"/>
  <path style="stroke:url(#d);stroke-width:20;fill:none" d="m684.81 390.63s91.069 56.202 0 124.8"/>
  <rect style="color-rendering:auto;color:#000000;isolation:auto;mix-blend-mode:normal;fill-rule:evenodd;shape-rendering:auto;solid-color:#000000;image-rendering:auto;fill:#68b2a5" rx="7.1429" ry="7.1429" height="44.598" width="11.718" y="368.2" x="674.72"/>
  <rect style="opacity:.972;color-rendering:auto;color:#000000;isolation:auto;mix-blend-mode:normal;fill-rule:evenodd;shape-rendering:auto;solid-color:#000000;image-rendering:auto;fill:#fff" height="19.114" width="31.856" y="271.61" x="497.81"/>
  <rect style="opacity:.972;color-rendering:auto;color:#000000;isolation:auto;mix-blend-mode:normal;fill-rule:evenodd;shape-rendering:auto;solid-color:#000000;image-rendering:auto;fill:#fff" height="19.114" width="31.856" y="271.61" x="587.48"/>
  <circle r="11.596" style="color-rendering:auto;color:#000000;isolation:auto;mix-blend-mode:normal;fill-rule:evenodd;shape-rendering:auto;solid-color:#000000;image-rendering:auto;fill:#68b2a5" cx="429.55" cy="510.79"/>
  <circle r="11.596" cy="510.79" cx="692.03" style="color-rendering:auto;color:#000000;isolation:auto;mix-blend-mode:normal;fill-rule:evenodd;shape-rendering:auto;solid-color:#000000;image-rendering:auto;fill:#68b2a5"/>
  <path style="color-rendering:auto;color:#000000;isolation:auto;mix-blend-mode:normal;fill-rule:evenodd;shape-rendering:auto;solid-color:#000000;image-rendering:auto;fill:#66aea2" d="m492.56 639.95a22.299 14.467 0 0 0 -22.299 14.468 22.299 14.467 0 0 0 .40242 2.6782h43.797a22.299 14.467 0 0 0 .39894 -2.6782 22.299 14.467 0 0 0 -22.299 -14.468z"/>
  <path d="m624.58 639.95a22.299 14.467 0 0 0 -22.299 14.468 22.299 14.467 0 0 0 .40243 2.6782h43.797a22.299 14.467 0 0 0 .39895 -2.6782 22.299 14.467 0 0 0 -22.299 -14.468z" style="color-rendering:auto;color:#000000;isolation:auto;mix-blend-mode:normal;fill-rule:evenodd;shape-rendering:auto;solid-color:#000000;image-rendering:auto;fill:#66aea2"/>
  <path style="fill:#fff;fill-rule:evenodd" d="m524.22 320.55s37.166 18.207 68.702 0v10.692s-31.709 17.578-68.702 0z"/>
  <path style="stroke:#92dbce;stroke-width:10;fill:none" d="m558.57 232.09v-44.88"/>
  <rect style="color-rendering:auto;color:#000000;isolation:auto;mix-blend-mode:normal;fill-rule:evenodd;shape-rendering:auto;solid-color:#000000;image-rendering:auto;fill:#66aea2" rx="23.555" ry="6.4239" height="24.094" width="45.84" y="568.71" x="601.66"/>
  <rect style="color-rendering:auto;color:#000000;isolation:auto;mix-blend-mode:normal;fill-rule:evenodd;shape-rendering:auto;solid-color:#000000;image-rendering:auto;fill:#66aea2" rx="23.555" ry="6.4239" height="24.094" width="45.84" y="568.71" x="469.64"/>
  <circle r="8.4737" cy="184.22" cx="558.57" style="stroke-linejoin:round;color-rendering:auto;color:#000000;shape-rendering:auto;solid-color:#000000;stroke:#92dbce;stroke-width:2;fill:#f51f2e;fill-rule:evenodd;mix-blend-mode:normal;image-rendering:auto;stroke-opacity:.97255;isolation:auto"/>
  <text style="letter-spacing:0px;font-size:44.598px;word-spacing:0px;font-family:sans-serif;line-height:125%;fill:#66aea2" xml:space="preserve" y="459.3118" x="529.85162"><tspan x="529.85162" style="font-size:80.277px;fill:#66aea2" y="459.3118">C</tspan></text>
  <text style="letter-spacing:0px;font-size:30.171px;word-spacing:0px;font-family:sans-serif;line-height:125%;fill:#000000" xml:space="preserve" transform="scale(1.0035 .99646)" y="141.94469" x="115.13725"><tspan x="115.13725" y="141.94469">int n = 4;</tspan></text>
  <path style="stroke-linejoin:round;color-rendering:auto;color:#000000;shape-rendering:auto;solid-color:#000000;stroke:#000;stroke-width:2;fill:none;mix-blend-mode:normal;image-rendering:auto;stroke-opacity:.97255;isolation:auto" d="m115.91 104.79h146.07c3.6902 0 6.6611 2.0557 6.6611 4.6091v45.713c0 2.5534-2.9708 4.6091-6.6611 4.6091h-137.04l-22.948 11.313c-3.0054 1.4816 7.2666-13.369 7.2666-15.922v-45.713c0-2.5534 2.9708-4.6091 6.6611-4.6091z"/>
  <text style="letter-spacing:0px;font-size:30.171px;word-spacing:0px;font-family:sans-serif;line-height:125%;fill:#000000" transform="scale(1.0035 .99646)" xml:space="preserve" y="282.44159" x="663.19189"><tspan y="282.44159" x="663.19189">Executed!</tspan></text>
  <path d="m662.68 244.79h153.87c3.8875 0 7.0171 2.0557 7.0171 4.6091v45.713c0 2.5534-3.1296 4.6091-7.0171 4.6091h-148.58l-19.961 11.313c-3.0308 1.7178 7.655-13.369 7.655-15.922v-45.713c0-2.5534 3.1296-4.6091 7.0171-4.6091z" style="stroke-linejoin:round;color-rendering:auto;color:#000000;shape-rendering:auto;solid-color:#000000;stroke:#000;stroke-width:2;fill:none;mix-blend-mode:normal;image-rendering:auto;stroke-opacity:.97255;isolation:auto"/>
  <path style="fill:#f5728e;fill-rule:evenodd" d="m1048.8 300.25c0-9.5507 11.938-9.5507 11.938-.092v360.43c.4607 38.371 54.12 38.371 54.12.3657v-207.82c0-9.2899 12.057-9.3184 12.057.2062l.2111 207.78c1.8265 37.856 54.942 37.856 54.942.086v-361.37c0-9.1217 10.693-9.1217 10.693.5684v132.67c0 22.777 41.14 22.777 41.084.1075-.1396-55.611.406-112.24-.3121-167.83 0-22.652-19.414-43.637-41.243-46.389-22.366-2.9498-45.1-.83473-67.632-1.4734-24.58.31135-49.235-.63691-73.766.50022-23.787 2.6046-43.388 24.71-43.388 47.9-.081 55.01-.018 111.71-.035 166.72-.012 23.245 41.221 23.245 41.221.5678-.012-46.699.1158-92.455.1099-132.91zm118.1-142.71a46.148 46.148 0 0 1 -46.148 46.148 46.148 46.148 0 0 1 -46.148 -46.148 46.148 46.148 0 0 1 46.148 -46.148 46.148 46.148 0 0 1 46.148 46.148z"/>
  <path d="m1637.3 203.17a39.246 31.666 0 0 0 -39.247 31.665 39.246 31.666 0 0 0 .098 2.23h78.257a39.246 31.666 0 0 0 .138 -2.23 39.246 31.666 0 0 0 -39.247 -31.665z" style="color-rendering:auto;color:#000000;isolation:auto;mix-blend-mode:normal;fill-rule:evenodd;shape-rendering:auto;solid-color:#000000;image-rendering:auto;fill:#92dbce"/>
  <rect style="opacity:.972;color-rendering:auto;color:#000000;isolation:auto;mix-blend-mode:normal;fill-rule:evenodd;shape-rendering:auto;solid-color:#000000;image-rendering:auto;fill:#92dbce" ry="0" height="101.94" width="157.21" y="235.28" x="1558.7"/>
  <rect style="opacity:.972;color-rendering:auto;fill-opacity:.97255;color:#000000;isolation:auto;mix-blend-mode:normal;fill-rule:evenodd;shape-rendering:auto;solid-color:#000000;image-rendering:auto;fill:#92dbce" ry="0" height="141.19" width="222.45" y="344.86" x="1526"/>
  <rect style="opacity:.972;color-rendering:auto;color:#000000;isolation:auto;mix-blend-mode:normal;fill-rule:evenodd;shape-rendering:auto;solid-color:#000000;image-rendering:auto;fill:#92dbce" ry="0" height="141.45" width="27.83" y="490.89" x="1557.3"/>
  <rect style="opacity:.972;color-rendering:auto;color:#000000;isolation:auto;mix-blend-mode:normal;fill-rule:evenodd;shape-rendering:auto;solid-color:#000000;image-rendering:auto;fill:#92dbce" ry="0" height="141.45" width="27.83" y="490.89" x="1689.4"/>
  <g transform="matrix(1 0 0 -1 1078.7 1529.4)">
   <path d="m432.31 1272.5s-91.069-56.202 0-124.8" style="stroke:url(#g);stroke-width:20;fill:none"/>
   <circle r="11.596" style="color-rendering:auto;color:#000000;isolation:auto;mix-blend-mode:normal;fill-rule:evenodd;shape-rendering:auto;solid-color:#000000;image-rendering:auto;fill:#68b2a5" cx="429.55" cy="1270.8"/>
  </g>
  <rect style="color-rendering:auto;color:#000000;isolation:auto;mix-blend-mode:normal;fill-rule:evenodd;shape-rendering:auto;solid-color:#000000;image-rendering:auto;fill:#68b2a5" rx="7.1429" ry="7.1429" height="44.598" width="11.718" y="353.53" x="1509.4"/>
  <rect style="color-rendering:auto;color:#000000;isolation:auto;mix-blend-mode:normal;fill-rule:evenodd;shape-rendering:auto;solid-color:#000000;image-rendering:auto;fill:#68b2a5" rx="7.1429" ry="7.1429" height="44.598" width="11.718" y="353.53" x="1753.4"/>
  <rect style="opacity:.972;color-rendering:auto;color:#000000;isolation:auto;mix-blend-mode:normal;fill-rule:evenodd;shape-rendering:auto;solid-color:#000000;image-rendering:auto;fill:#fff" height="19.114" width="31.856" y="256.94" x="1576.5"/>
  <rect style="opacity:.972;color-rendering:auto;color:#000000;isolation:auto;mix-blend-mode:normal;fill-rule:evenodd;shape-rendering:auto;solid-color:#000000;image-rendering:auto;fill:#fff" height="19.114" width="31.856" y="256.94" x="1666.2"/>
  <g transform="translate(1078.7 -774.68)">
   <path style="stroke:url(#f);stroke-width:20;fill:none" d="m684.81 1150.6s91.069 56.202 0 124.8"/>
   <circle r="11.596" cy="1270.8" cx="692.03" style="color-rendering:auto;color:#000000;isolation:auto;mix-blend-mode:normal;fill-rule:evenodd;shape-rendering:auto;solid-color:#000000;image-rendering:auto;fill:#68b2a5"/>
  </g>
  <path d="m1571.3 625.27a22.299 14.467 0 0 0 -22.299 14.468 22.299 14.467 0 0 0 .4025 2.6782h43.797a22.299 14.467 0 0 0 .3989 -2.6782 22.299 14.467 0 0 0 -22.299 -14.468z" style="color-rendering:auto;color:#000000;isolation:auto;mix-blend-mode:normal;fill-rule:evenodd;shape-rendering:auto;solid-color:#000000;image-rendering:auto;fill:#66aea2"/>
  <path style="color-rendering:auto;color:#000000;isolation:auto;mix-blend-mode:normal;fill-rule:evenodd;shape-rendering:auto;solid-color:#000000;image-rendering:auto;fill:#66aea2" d="m1703.3 625.27a22.299 14.467 0 0 0 -22.299 14.468 22.299 14.467 0 0 0 .4025 2.6782h43.797a22.299 14.467 0 0 0 .3989 -2.6782 22.299 14.467 0 0 0 -22.299 -14.468z"/>
  <path d="m1671.6 324.37s-37.166-18.207-68.702 0v-10.692s31.709-17.578 68.702 0z" style="fill:#fff;fill-rule:evenodd"/>
  <path d="m1637.3 217.41v-44.88" style="stroke:#92dbce;stroke-width:10;fill:none"/>
  <rect style="color-rendering:auto;color:#000000;isolation:auto;mix-blend-mode:normal;fill-rule:evenodd;shape-rendering:auto;solid-color:#000000;image-rendering:auto;fill:#66aea2" rx="23.555" ry="6.4239" height="24.094" width="45.84" y="554.04" x="1680.4"/>
  <rect style="color-rendering:auto;color:#000000;isolation:auto;mix-blend-mode:normal;fill-rule:evenodd;shape-rendering:auto;solid-color:#000000;image-rendering:auto;fill:#66aea2" rx="23.555" ry="6.4239" height="24.094" width="45.84" y="554.04" x="1548.3"/>
  <circle cx="1637.3" style="stroke-linejoin:round;color-rendering:auto;color:#000000;shape-rendering:auto;solid-color:#000000;stroke:#92dbce;stroke-width:2;fill:#f51f2e;fill-rule:evenodd;mix-blend-mode:normal;image-rendering:auto;stroke-opacity:.97255;isolation:auto" r="8.4737" cy="169.54"/>
  <text style="letter-spacing:0px;font-size:44.598px;word-spacing:0px;font-family:sans-serif;line-height:125%;fill:#66aea2" y="444.63544" x="1608.5497" xml:space="preserve"><tspan y="444.63544" x="1608.5497" style="font-size:80.277px;fill:#66aea2">C</tspan></text>
  <text style="letter-spacing:0px;font-size:30.171px;word-spacing:0px;font-family:sans-serif;line-height:125%;fill:#000000" transform="scale(1.0035 .99646)" xml:space="preserve" y="127.21614" x="1195.9987"><tspan y="127.21614" x="1195.9987">number n = 4;</tspan></text>
  <path d="m1202 90.112h220.19c5.5631 0 10.042 2.0557 10.042 4.6091v45.713c0 2.5534-4.4785 4.6091-10.042 4.6091h-214.59l-26.594 11.313c-4.3864 1.866 10.954-13.369 10.954-15.922v-45.713c0-2.5534 4.4786-4.6091 10.042-4.6091z" style="stroke-linejoin:round;color-rendering:auto;color:#000000;shape-rendering:auto;solid-color:#000000;stroke:#000;stroke-width:2;fill:none;mix-blend-mode:normal;image-rendering:auto;stroke-opacity:.97255;isolation:auto"/>
  <text style="letter-spacing:0px;font-size:30.171px;word-spacing:0px;font-family:sans-serif;line-height:125%;fill:#000000" xml:space="preserve" transform="scale(1.0035 .99646)" y="267.71307" x="1750.0321"><tspan x="1750.0321" y="267.71307">Sorry!  I dont Understand</tspan></text>
  <path style="stroke-linejoin:round;color-rendering:auto;color:#000000;shape-rendering:auto;solid-color:#000000;stroke:#000;stroke-width:2;fill:none;mix-blend-mode:normal;image-rendering:auto;stroke-opacity:.97255;isolation:auto" d="m1763.8 230.11h380.19c9.6053 0 17.338 2.0557 17.338 4.6091v45.713c0 2.5535-7.7328 4.6091-17.338 4.6091h-380.71l-35.732 11.313c-7.5906 2.4033 18.914-13.369 18.914-15.922v-45.713c0-2.5534 7.7327-4.6091 17.338-4.6091z"/>
  <rect style="color-rendering:auto;fill-opacity:.84858;color:#000000;isolation:auto;mix-blend-mode:normal;fill-rule:evenodd;shape-rendering:auto;solid-color:#000000;image-rendering:auto;filter:url(#h);fill:#f2f2f2" transform="matrix(.47937 0 0 1 473.68 6)" rx="0" ry="0" height="595.62" width="41.693" y="99.645" x="886.87"/>
  <rect style="color-rendering:auto;fill-opacity:.97255;color:#000000;isolation:auto;mix-blend-mode:normal;fill-rule:evenodd;shape-rendering:auto;solid-color:#000000;image-rendering:auto;fill:#9caea7" rx="0" ry="0" height="595.62" width="26.952" y="99.645" x="881.61"/>
 </g>
</svg>
