<svg xmlns:rdf="http://www.w3.org/1999/02/22-rdf-syntax-ns#" xmlns="http://www.w3.org/2000/svg" height="393.88mm" width="1139.4mm" version="1.1" xmlns:cc="http://creativecommons.org/ns#" xmlns:xlink="http://www.w3.org/1999/xlink" viewBox="0 0 4037.2161 1395.6322" xmlns:dc="http://purl.org/dc/elements/1.1/">
 <defs>
  <linearGradient id="a" y2="577.87" gradientUnits="userSpaceOnUse" x2="1569.8" gradientTransform="translate(-1264 -438.92)" y1="58.572" x1="69.197">
   <stop style="stop-color:#ececec" offset="0"/>
   <stop style="stop-color:#f9f9f9" offset="1"/>
  </linearGradient>
 </defs>
 <g transform="translate(1196.8 380.71)">
  <rect style="stroke-linejoin:bevel;color-rendering:auto;color:#000000;shape-rendering:auto;solid-color:#000000;stroke:#ffc400;stroke-linecap:square;stroke-width:4;fill:url(#a);fill-rule:evenodd;mix-blend-mode:normal;image-rendering:auto;isolation:auto" height="1391.6" width="4033.2" y="-378.71" x="-1194.8"/>
  <rect style="color-rendering:auto;fill-rule:evenodd;color:#000000;isolation:auto;mix-blend-mode:normal;shape-rendering:auto;solid-color:#000000;image-rendering:auto;fill:#ffb05f" transform="matrix(.99240 .12306 -.11530 .99333 0 0)" height="308.26" width="107.02" y="442.38" x="406.73"/>
  <text style="font-size:32.441px;letter-spacing:0px;word-spacing:0px;font-family:sans-serif;line-height:125%;fill:#333333" transform="matrix(1.0128 .12560 -.11298 .97333 0 0)" y="516.45941" x="441.24478" xml:space="preserve"><tspan y="516.45941" x="441.24478" style="fill:#333333">s</tspan><tspan y="557.01013" x="441.24478" style="fill:#333333">t</tspan><tspan y="597.56097" x="441.24478" style="fill:#333333">r</tspan><tspan y="638.11157" x="441.24478" style="fill:#333333">l</tspan><tspan y="678.66241" x="441.24478" style="fill:#333333">e</tspan><tspan y="719.2132" x="441.24478" style="fill:#333333">n</tspan></text>
  <rect style="color-rendering:auto;fill-rule:evenodd;color:#000000;isolation:auto;mix-blend-mode:normal;shape-rendering:auto;solid-color:#000000;image-rendering:auto;fill:#fff" transform="matrix(.99240 .12306 -.11530 .99333 0 0)" height="7.5455" width="103.74" y="461.8" x="408.36"/>
  <rect style="color-rendering:auto;fill-rule:evenodd;color:#000000;isolation:auto;mix-blend-mode:normal;shape-rendering:auto;solid-color:#000000;image-rendering:auto;fill:#666" rx="0" ry="0" height="98.761" width="1426.3" y="813.49" x="-929.04"/>
  <rect style="color-rendering:auto;fill-rule:evenodd;color:#000000;isolation:auto;mix-blend-mode:normal;shape-rendering:auto;solid-color:#000000;image-rendering:auto;fill:#666" transform="rotate(90)" rx="0" ry="0" height="35.564" width="450.52" y="198.11" x="393.75"/>
  <rect style="color-rendering:auto;fill-rule:evenodd;color:#000000;isolation:auto;mix-blend-mode:normal;shape-rendering:auto;solid-color:#000000;image-rendering:auto;fill:#f54848" height="331.69" width="106.97" y="480.81" x="-865.64"/>
  <text style="font-size:33.643px;letter-spacing:0px;word-spacing:0px;font-family:sans-serif;line-height:125%;fill:#ffffff" transform="scale(.98362 1.0167)" y="535.32288" x="-836.04456" xml:space="preserve"><tspan y="535.32288" x="-836.04456">s</tspan><tspan y="577.37677" x="-836.04456">t</tspan><tspan y="619.43048" x="-836.04456">r</tspan><tspan y="661.48419" x="-836.04456">t</tspan><tspan y="703.53809" x="-836.04456">o</tspan><tspan y="745.59192" x="-836.04456">k</tspan></text>
  <rect style="color-rendering:auto;fill-rule:evenodd;color:#000000;isolation:auto;mix-blend-mode:normal;shape-rendering:auto;solid-color:#000000;image-rendering:auto;fill:#fff" height="8.1189" width="103.69" y="501.7" x="-864"/>
  <rect style="color-rendering:auto;fill-rule:evenodd;color:#000000;isolation:auto;mix-blend-mode:normal;shape-rendering:auto;solid-color:#000000;image-rendering:auto;fill:#fff" height="8.1189" width="103.69" y="793.57" x="-864"/>
  <rect style="color-rendering:auto;fill-rule:evenodd;color:#000000;isolation:auto;mix-blend-mode:normal;shape-rendering:auto;solid-color:#000000;image-rendering:auto;fill:#fff15f" height="362.54" width="106.97" y="449.96" x="-750.92"/>
  <text style="font-size:35.174px;letter-spacing:0px;word-spacing:0px;font-family:sans-serif;line-height:125%;fill:#666666" transform="scale(.94082 1.0629)" y="488.55835" x="-752.14392" xml:space="preserve"><tspan y="488.55835" x="-752.14392">s</tspan><tspan y="532.52496" x="-752.14392">t</tspan><tspan y="576.4917" x="-752.14392">r</tspan><tspan y="620.45831" x="-752.14392">c</tspan><tspan y="664.42487" x="-752.14392">p</tspan><tspan y="708.39166" x="-752.14392">y</tspan></text>
  <rect style="color-rendering:auto;fill-rule:evenodd;color:#000000;isolation:auto;mix-blend-mode:normal;shape-rendering:auto;solid-color:#000000;image-rendering:auto;fill:#fff" height="8.8746" width="103.69" y="472.79" x="-749.29"/>
  <rect style="color-rendering:auto;fill-rule:evenodd;color:#000000;isolation:auto;mix-blend-mode:normal;shape-rendering:auto;solid-color:#000000;image-rendering:auto;fill:#fff" height="8.8746" width="103.69" y="791.81" x="-749.29"/>
  <rect style="color-rendering:auto;fill-rule:evenodd;color:#000000;isolation:auto;mix-blend-mode:normal;shape-rendering:auto;solid-color:#000000;image-rendering:auto;fill:#bffa5a" height="299.21" width="106.97" y="513.28" x="-636.2"/>
  <text style="font-size:31.954px;letter-spacing:0px;word-spacing:0px;font-family:sans-serif;line-height:125%;fill:#666666" transform="scale(1.0356 .96558)" y="590.83679" x="-572.47986" xml:space="preserve"><tspan y="590.83679" x="-572.47986">s</tspan><tspan y="630.77899" x="-572.47986">t</tspan><tspan y="670.72144" x="-572.47986">r</tspan><tspan y="710.66382" x="-572.47986">c</tspan><tspan y="750.6062" x="-572.47986">h</tspan><tspan y="790.54865" x="-572.47986">r</tspan></text>
  <rect style="color-rendering:auto;fill-rule:evenodd;color:#000000;isolation:auto;mix-blend-mode:normal;shape-rendering:auto;solid-color:#000000;image-rendering:auto;fill:#fff" height="7.3241" width="103.69" y="532.13" x="-634.57"/>
  <rect style="color-rendering:auto;fill-rule:evenodd;color:#000000;isolation:auto;mix-blend-mode:normal;shape-rendering:auto;solid-color:#000000;image-rendering:auto;fill:#fff" height="7.3241" width="103.69" y="795.42" x="-634.57"/>
  <rect style="color-rendering:auto;fill-rule:evenodd;color:#000000;isolation:auto;mix-blend-mode:normal;shape-rendering:auto;solid-color:#000000;image-rendering:auto;fill:#79c4ff" height="308.4" width="106.97" y="504.1" x="-353.81"/>
  <text style="font-size:32.441px;letter-spacing:0px;word-spacing:0px;font-family:sans-serif;line-height:125%;fill:#ffffff" transform="scale(1.0201 .98030)" y="579.21191" x="-304.1293" xml:space="preserve"><tspan y="579.21191" x="-304.1293">s</tspan><tspan y="619.76282" x="-304.1293">t</tspan><tspan y="660.31372" x="-304.1293">r</tspan><tspan y="700.86456" x="-304.1293">s</tspan><tspan y="741.41541" x="-304.1293">p</tspan><tspan y="781.96631" x="-304.1293">n</tspan></text>
  <rect style="color-rendering:auto;fill-rule:evenodd;color:#000000;isolation:auto;mix-blend-mode:normal;shape-rendering:auto;solid-color:#000000;image-rendering:auto;fill:#fff" height="7.5489" width="103.69" y="523.52" x="-352.18"/>
  <rect style="color-rendering:auto;fill-rule:evenodd;color:#000000;isolation:auto;mix-blend-mode:normal;shape-rendering:auto;solid-color:#000000;image-rendering:auto;fill:#fff" height="7.5489" width="103.69" y="794.9" x="-352.18"/>
  <rect style="color-rendering:auto;fill-rule:evenodd;color:#000000;isolation:auto;mix-blend-mode:normal;shape-rendering:auto;solid-color:#000000;image-rendering:auto;fill:#ffd25f" height="308.4" width="106.97" y="504.1" x="-186.15"/>
  <text style="font-size:32.441px;letter-spacing:0px;word-spacing:0px;font-family:sans-serif;line-height:125%;fill:#ffffff" transform="scale(1.0201 .98030)" y="579.21191" x="-139.76335" xml:space="preserve"><tspan y="579.21191" x="-139.76335">s</tspan><tspan y="619.76282" x="-139.76335">t</tspan><tspan y="660.31372" x="-139.76335">r</tspan><tspan y="700.86456" x="-139.76335">s</tspan><tspan y="741.41541" x="-139.76335">p</tspan><tspan y="781.96631" x="-139.76335">n</tspan></text>
  <rect style="color-rendering:auto;fill-rule:evenodd;color:#000000;isolation:auto;mix-blend-mode:normal;shape-rendering:auto;solid-color:#000000;image-rendering:auto;fill:#fff" height="7.5489" width="103.69" y="523.52" x="-184.52"/>
  <rect style="color-rendering:auto;fill-rule:evenodd;color:#000000;isolation:auto;mix-blend-mode:normal;shape-rendering:auto;solid-color:#000000;image-rendering:auto;fill:#fff" height="7.5489" width="103.69" y="794.9" x="-184.52"/>
  <rect style="color-rendering:auto;fill-rule:evenodd;color:#000000;isolation:auto;mix-blend-mode:normal;shape-rendering:auto;solid-color:#000000;image-rendering:auto;fill:#5fcdff" height="308.4" width="106.97" y="504.1" x="-53.78"/>
  <text style="font-size:32.441px;letter-spacing:0px;word-spacing:0px;font-family:sans-serif;line-height:125%;fill:#ffffff" transform="scale(1.0201 .98030)" y="579.21191" x="-10.000368" xml:space="preserve"><tspan y="579.21191" x="-10.000368">s</tspan><tspan y="619.76282" x="-10.000368">t</tspan><tspan y="660.31372" x="-10.000368">r</tspan><tspan y="700.86456" x="-10.000368">u</tspan><tspan y="741.41541" x="-10.000368">p</tspan><tspan y="781.96631" x="-10.000368">r</tspan></text>
  <rect style="color-rendering:auto;fill-rule:evenodd;color:#000000;isolation:auto;mix-blend-mode:normal;shape-rendering:auto;solid-color:#000000;image-rendering:auto;fill:#fff" height="7.5489" width="103.69" y="523.52" x="-52.148"/>
  <rect style="color-rendering:auto;fill-rule:evenodd;color:#000000;isolation:auto;mix-blend-mode:normal;shape-rendering:auto;solid-color:#000000;image-rendering:auto;fill:#fff" height="7.5489" width="103.69" y="794.9" x="-52.148"/>
  <rect style="color-rendering:auto;fill-rule:evenodd;color:#000000;isolation:auto;mix-blend-mode:normal;shape-rendering:auto;solid-color:#000000;image-rendering:auto;fill:#fff" transform="matrix(.99240 .12306 -.11530 .99333 0 0)" height="7.5455" width="103.74" y="733.05" x="408.36"/>
  <rect style="color-rendering:auto;fill-rule:evenodd;color:#000000;isolation:auto;mix-blend-mode:normal;shape-rendering:auto;solid-color:#000000;image-rendering:auto;fill:#98939a" transform="matrix(.99240 .12306 -.11530 .99333 0 0)" height="308.26" width="107.02" y="456.5" x="292.79"/>
  <text style="font-size:32.441px;letter-spacing:0px;word-spacing:0px;font-family:sans-serif;line-height:125%;fill:#ffffff" transform="matrix(1.0128 .12560 -.11298 .97333 0 0)" y="530.86774" x="329.58524" xml:space="preserve"><tspan y="530.86774" x="329.58524">s</tspan><tspan y="571.41846" x="329.58524">t</tspan><tspan y="611.9693" x="329.58524">r</tspan><tspan y="652.52002" x="329.58524">l</tspan><tspan y="693.07074" x="329.58524">w</tspan><tspan y="733.62134" x="329.58524">r</tspan></text>
  <rect style="color-rendering:auto;fill-rule:evenodd;color:#000000;isolation:auto;mix-blend-mode:normal;shape-rendering:auto;solid-color:#000000;image-rendering:auto;fill:#fff" transform="matrix(.99240 .12306 -.11530 .99333 0 0)" height="7.5455" width="103.74" y="475.92" x="294.43"/>
  <rect style="color-rendering:auto;fill-rule:evenodd;color:#000000;isolation:auto;mix-blend-mode:normal;shape-rendering:auto;solid-color:#000000;image-rendering:auto;fill:#fff" transform="matrix(.99240 .12306 -.11530 .99333 0 0)" height="7.5455" width="103.74" y="747.17" x="294.43"/>
  <text style="font-size:75.032px;letter-spacing:0px;line-height:125%;word-spacing:0px;font-family:sans-serif;fill:#ffffff" xml:space="preserve" transform="scale(.98362 1.0167)" y="868.7572" x="-363.3577"><tspan x="-363.3577" style="font-size:75.032px;line-height:125%;font-family:sans-serif;fill:#ffffff" y="868.7572">string.h</tspan></text>
  <rect style="color-rendering:auto;fill-rule:evenodd;color:#000000;isolation:auto;mix-blend-mode:normal;shape-rendering:auto;solid-color:#000000;image-rendering:auto;fill:#ffb05f" transform="matrix(1 .0024034 -.0022498 1 0 0)" height="308.39" width="106.97" y="-172.64" x="334.04"/>
  <rect style="color-rendering:auto;fill-rule:evenodd;color:#000000;isolation:auto;mix-blend-mode:normal;shape-rendering:auto;solid-color:#000000;image-rendering:auto;fill:#fff" transform="matrix(1 .0024034 -.0022498 1 0 0)" height="7.5489" width="103.69" y="-153.21" x="335.68"/>
  <rect style="color-rendering:auto;fill-rule:evenodd;color:#000000;isolation:auto;mix-blend-mode:normal;shape-rendering:auto;solid-color:#000000;image-rendering:auto;fill:#79c4ff" transform="matrix(.99561 .093587 -.087652 .99615 0 0)" height="308.31" width="107" y="-145.66" x="-354.4"/>
  <rect style="color-rendering:auto;fill-rule:evenodd;color:#000000;isolation:auto;mix-blend-mode:normal;shape-rendering:auto;solid-color:#000000;image-rendering:auto;fill:#98939a" transform="matrix(1 .0024034 -.0022498 1 0 0)" height="308.39" width="106.97" y="-175.49" x="220.12"/>
  <rect style="color-rendering:auto;fill-rule:evenodd;color:#000000;isolation:auto;mix-blend-mode:normal;shape-rendering:auto;solid-color:#000000;image-rendering:auto;fill:#666" rx="0" ry="0" height="98.761" width="1426.3" y="135.5" x="-929.04"/>
  <rect ry="0" style="color-rendering:auto;fill-rule:evenodd;color:#000000;isolation:auto;mix-blend-mode:normal;shape-rendering:auto;solid-color:#000000;image-rendering:auto;fill:#666" rx="0" transform="rotate(90)" height="35.564" width="450.52" y="198.11" x="-284.24"/>
  <rect style="color-rendering:auto;fill-rule:evenodd;color:#000000;isolation:auto;mix-blend-mode:normal;shape-rendering:auto;solid-color:#000000;image-rendering:auto;fill:#f54848" height="331.69" width="106.97" y="-197.18" x="-600.9"/>
  <rect style="color-rendering:auto;fill-rule:evenodd;color:#000000;isolation:auto;mix-blend-mode:normal;shape-rendering:auto;solid-color:#000000;image-rendering:auto;fill:#fff" height="8.1189" width="103.69" y="-176.29" x="-599.27"/>
  <rect style="color-rendering:auto;fill-rule:evenodd;color:#000000;isolation:auto;mix-blend-mode:normal;shape-rendering:auto;solid-color:#000000;image-rendering:auto;fill:#fff" height="8.1189" width="103.69" y="115.58" x="-599.27"/>
  <rect style="color-rendering:auto;fill-rule:evenodd;color:#000000;isolation:auto;mix-blend-mode:normal;shape-rendering:auto;solid-color:#000000;image-rendering:auto;fill:#fff" transform="matrix(.99561 .093587 -.087652 .99615 0 0)" height="7.5469" width="103.72" y="-126.24" x="-352.77"/>
  <rect style="color-rendering:auto;fill-rule:evenodd;color:#000000;isolation:auto;mix-blend-mode:normal;shape-rendering:auto;solid-color:#000000;image-rendering:auto;fill:#fff" transform="matrix(.99561 .093587 -.087652 .99615 0 0)" height="7.5469" width="103.72" y="145.06" x="-352.77"/>
  <rect style="color-rendering:auto;fill-rule:evenodd;color:#000000;isolation:auto;mix-blend-mode:normal;shape-rendering:auto;solid-color:#000000;image-rendering:auto;fill:#ffd25f" height="308.4" width="106.97" y="-173.89" x="-186.15"/>
  <rect style="color-rendering:auto;fill-rule:evenodd;color:#000000;isolation:auto;mix-blend-mode:normal;shape-rendering:auto;solid-color:#000000;image-rendering:auto;fill:#fff" height="7.5489" width="103.69" y="-154.47" x="-184.52"/>
  <rect style="color-rendering:auto;fill-rule:evenodd;color:#000000;isolation:auto;mix-blend-mode:normal;shape-rendering:auto;solid-color:#000000;image-rendering:auto;fill:#fff" height="7.5489" width="103.69" y="116.9" x="-184.52"/>
  <rect style="color-rendering:auto;fill-rule:evenodd;color:#000000;isolation:auto;mix-blend-mode:normal;shape-rendering:auto;solid-color:#000000;image-rendering:auto;fill:#5fcdff" height="308.4" width="106.97" y="-173.89" x="-53.78"/>
  <rect style="color-rendering:auto;fill-rule:evenodd;color:#000000;isolation:auto;mix-blend-mode:normal;shape-rendering:auto;solid-color:#000000;image-rendering:auto;fill:#fff" height="7.5489" width="103.69" y="-154.47" x="-52.148"/>
  <rect style="color-rendering:auto;fill-rule:evenodd;color:#000000;isolation:auto;mix-blend-mode:normal;shape-rendering:auto;solid-color:#000000;image-rendering:auto;fill:#fff" height="7.5489" width="103.69" y="116.9" x="-52.148"/>
  <rect style="color-rendering:auto;fill-rule:evenodd;color:#000000;isolation:auto;mix-blend-mode:normal;shape-rendering:auto;solid-color:#000000;image-rendering:auto;fill:#fff" transform="matrix(1 .0024034 -.0022498 1 0 0)" height="7.5489" width="103.69" y="118.17" x="335.68"/>
  <rect style="color-rendering:auto;fill-rule:evenodd;color:#000000;isolation:auto;mix-blend-mode:normal;shape-rendering:auto;solid-color:#000000;image-rendering:auto;fill:#fff" transform="matrix(1 .0024034 -.0022498 1 0 0)" height="7.5489" width="103.69" y="-156.07" x="221.76"/>
  <rect style="color-rendering:auto;fill-rule:evenodd;color:#000000;isolation:auto;mix-blend-mode:normal;shape-rendering:auto;solid-color:#000000;image-rendering:auto;fill:#fff" transform="matrix(1 .0024034 -.0022498 1 0 0)" height="7.5489" width="103.69" y="115.31" x="221.76"/>
  <rect style="color-rendering:auto;fill-rule:evenodd;color:#000000;isolation:auto;mix-blend-mode:normal;shape-rendering:auto;solid-color:#000000;image-rendering:auto;fill:#fff15f" height="362.54" width="106.97" y="-225.73" x="-494.75"/>
  <rect style="color-rendering:auto;fill-rule:evenodd;color:#000000;isolation:auto;mix-blend-mode:normal;shape-rendering:auto;solid-color:#000000;image-rendering:auto;fill:#fff" height="8.8746" width="103.69" y="-202.9" x="-493.12"/>
  <rect style="color-rendering:auto;fill-rule:evenodd;color:#000000;isolation:auto;mix-blend-mode:normal;shape-rendering:auto;solid-color:#000000;image-rendering:auto;fill:#79c4ff" height="308.4" width="106.97" y="-173.89" x="-706.8"/>
  <rect style="color-rendering:auto;fill-rule:evenodd;color:#000000;isolation:auto;mix-blend-mode:normal;shape-rendering:auto;solid-color:#000000;image-rendering:auto;fill:#fff" height="7.5489" width="103.69" y="-154.47" x="-705.17"/>
  <rect style="color-rendering:auto;fill-rule:evenodd;color:#000000;isolation:auto;mix-blend-mode:normal;shape-rendering:auto;solid-color:#000000;image-rendering:auto;fill:#fff" height="7.5489" width="103.69" y="116.9" x="-705.17"/>
  <rect style="color-rendering:auto;fill-rule:evenodd;color:#000000;isolation:auto;mix-blend-mode:normal;shape-rendering:auto;solid-color:#000000;image-rendering:auto;fill:#f54848" height="331.69" width="106.97" y="-197.18" x="105.07"/>
  <rect style="color-rendering:auto;fill-rule:evenodd;color:#000000;isolation:auto;mix-blend-mode:normal;shape-rendering:auto;solid-color:#000000;image-rendering:auto;fill:#fff" height="8.1189" width="103.69" y="-176.29" x="106.7"/>
  <rect style="color-rendering:auto;fill-rule:evenodd;color:#000000;isolation:auto;mix-blend-mode:normal;shape-rendering:auto;solid-color:#000000;image-rendering:auto;fill:#fff" height="8.1189" width="103.69" y="115.58" x="106.7"/>
  <rect style="color-rendering:auto;fill-rule:evenodd;color:#000000;isolation:auto;mix-blend-mode:normal;shape-rendering:auto;solid-color:#000000;image-rendering:auto;fill:#bffa5a" height="299.21" width="106.97" y="-164.71" x="-821.52"/>
  <rect style="color-rendering:auto;fill-rule:evenodd;color:#000000;isolation:auto;mix-blend-mode:normal;shape-rendering:auto;solid-color:#000000;image-rendering:auto;fill:#fff" height="7.3241" width="103.69" y="-145.86" x="-819.88"/>
  <rect style="color-rendering:auto;fill-rule:evenodd;color:#000000;isolation:auto;mix-blend-mode:normal;shape-rendering:auto;solid-color:#000000;image-rendering:auto;fill:#fff" height="7.3241" width="103.69" y="117.43" x="-819.88"/>
  <text style="letter-spacing:0px;font-size:48.912px;word-spacing:0px;font-family:sans-serif;line-height:125%;fill:#666666" xml:space="preserve" transform="scale(.98362 1.0167)" y="-93.167938" x="-794.58813"><tspan x="-794.58813" y="-93.167938">s</tspan><tspan x="-794.58813" y="-44.665699">q</tspan><tspan x="-794.58813" y="3.8365421">r</tspan><tspan x="-794.58813" y="52.338783">t</tspan></text>
  <text style="letter-spacing:0px;font-size:48.912px;word-spacing:0px;font-family:sans-serif;line-height:125%;fill:#ffffff" transform="scale(.98362 1.0167)" y="-66.804703" x="-684.20563" xml:space="preserve"><tspan y="-66.804703" x="-684.20563">p</tspan><tspan y="-18.302464" x="-684.20563">o</tspan><tspan y="30.199778" x="-684.20563">w</tspan></text>
  <text style="letter-spacing:0px;font-size:48.912px;word-spacing:0px;font-family:sans-serif;line-height:125%;fill:#ffffff" xml:space="preserve" transform="scale(.98362 1.0167)" y="-108.88807" x="-571.15778"><tspan x="-571.15778" y="-108.88807">c</tspan><tspan x="-571.15778" y="-60.386173">e</tspan><tspan x="-571.15778" y="-11.884275">i</tspan><tspan x="-571.15778" y="36.617622">l</tspan></text>
  <text style="letter-spacing:0px;font-size:48.912px;word-spacing:0px;font-family:sans-serif;line-height:125%;fill:#666666" xml:space="preserve" transform="scale(.98362 1.0167)" y="-147.31451" x="-463.00494"><tspan x="-463.00494" y="-147.31451">f</tspan><tspan x="-463.00494" y="-98.812614">l</tspan><tspan x="-463.00494" y="-50.310719">o</tspan><tspan x="-463.00494" y="-1.8088236">o</tspan><tspan x="-463.00494" y="46.693073">r</tspan></text>
  <text style="letter-spacing:0px;font-size:48.912px;word-spacing:0px;font-family:sans-serif;line-height:125%;fill:#ffffff" xml:space="preserve" transform="scale(.98362 1.0167)" y="-97.421799" x="-319.9342"><tspan x="-319.9342" y="-97.421799">a</tspan><tspan x="-319.9342" y="-48.919903">s</tspan><tspan x="-319.9342" y="-0.41800499">i</tspan><tspan x="-319.9342" y="48.083893">n</tspan></text>
  <text style="letter-spacing:0px;font-size:48.912px;word-spacing:0px;font-family:sans-serif;line-height:125%;fill:#666666" xml:space="preserve" transform="scale(.98362 1.0167)" y="-97.744087" x="-149.69118"><tspan x="-149.69118" y="-97.744087">a</tspan><tspan x="-149.69118" y="-49.242191">c</tspan><tspan x="-149.69118" y="-0.7402935">o</tspan><tspan x="-149.69118" y="47.761604">s</tspan></text>
  <text style="letter-spacing:0px;font-size:48.912px;word-spacing:0px;font-family:sans-serif;line-height:125%;fill:#ffffff" xml:space="preserve" transform="scale(.98362 1.0167)" y="-97.421799" x="-14.402495"><tspan x="-14.402495" y="-97.421799">a</tspan><tspan x="-14.402495" y="-48.919903">t</tspan><tspan x="-14.402495" y="-0.41800499">a</tspan><tspan x="-14.402495" y="48.083893">n</tspan></text>
  <text style="letter-spacing:0px;font-size:48.912px;word-spacing:0px;font-family:sans-serif;line-height:125%;fill:#ffffff" xml:space="preserve" transform="scale(.98362 1.0167)" y="-78.64093" x="146.36278"><tspan x="146.36278" y="-78.64093">c</tspan><tspan x="146.36278" y="-30.139032">o</tspan><tspan x="146.36278" y="18.362864">s</tspan></text>
  <text style="letter-spacing:0px;font-size:48.912px;word-spacing:0px;font-family:sans-serif;line-height:125%;fill:#ffffff" xml:space="preserve" transform="scale(.98362 1.0167)" y="-67.7799" x="263.53812"><tspan x="263.53812" y="-67.7799">s</tspan><tspan x="263.53812" y="-19.278002">i</tspan><tspan x="263.53812" y="29.223894">n</tspan></text>
  <text style="letter-spacing:0px;font-size:48.912px;word-spacing:0px;font-family:sans-serif;line-height:125%;fill:#666666" xml:space="preserve" transform="scale(.98362 1.0167)" y="-61.187183" x="379.92017"><tspan x="379.92017" y="-61.187183">t</tspan><tspan x="379.92017" y="-12.685287">a</tspan><tspan x="379.92017" y="35.816612">n</tspan></text>
  <rect style="color-rendering:auto;fill-rule:evenodd;color:#000000;isolation:auto;mix-blend-mode:normal;shape-rendering:auto;solid-color:#000000;image-rendering:auto;fill:#fff" height="8.1189" width="103.69" y="113.61" x="-494.06"/>
  <text style="font-size:75.032px;letter-spacing:0px;line-height:125%;word-spacing:0px;font-family:sans-serif;fill:#ffffff" transform="scale(.98362 1.0167)" y="209.7832" x="-354.61987" xml:space="preserve"><tspan y="209.7832" x="-354.61987" style="font-size:75.032px;line-height:125%;font-family:sans-serif;fill:#ffffff">math.h</tspan></text>
  <rect style="color-rendering:auto;fill-rule:evenodd;color:#000000;isolation:auto;mix-blend-mode:normal;shape-rendering:auto;solid-color:#000000;image-rendering:auto;fill:#ffb05f" transform="matrix(1 .0024034 -.0022498 1 0 0)" height="308.39" width="106.97" y="-176.6" x="1983.5"/>
  <rect style="color-rendering:auto;fill-rule:evenodd;color:#000000;isolation:auto;mix-blend-mode:normal;shape-rendering:auto;solid-color:#000000;image-rendering:auto;fill:#fff" transform="matrix(1 .0024034 -.0022498 1 0 0)" height="7.5489" width="103.69" y="-157.17" x="1985.2"/>
  <rect style="color-rendering:auto;fill-rule:evenodd;color:#000000;isolation:auto;mix-blend-mode:normal;shape-rendering:auto;solid-color:#000000;image-rendering:auto;fill:#79c4ff" transform="matrix(.99561 .093587 -.087652 .99615 0 0)" height="308.31" width="107" y="-338.85" x="1701.9"/>
  <rect style="color-rendering:auto;fill-rule:evenodd;color:#000000;isolation:auto;mix-blend-mode:normal;shape-rendering:auto;solid-color:#000000;image-rendering:auto;fill:#98939a" transform="matrix(1 .0024034 -.0022498 1 0 0)" height="308.39" width="106.97" y="-179.46" x="1869.6"/>
  <rect style="color-rendering:auto;fill-rule:evenodd;color:#000000;isolation:auto;mix-blend-mode:normal;shape-rendering:auto;solid-color:#000000;image-rendering:auto;fill:#fff15f" transform="matrix(.98480 -.17370 .16290 .98664 0 0)" height="362.21" width="107.07" y="151.4" x="2091.1"/>
  <rect style="color-rendering:auto;fill-rule:evenodd;color:#000000;isolation:auto;mix-blend-mode:normal;shape-rendering:auto;solid-color:#000000;image-rendering:auto;fill:#666" rx="0" ry="0" height="98.761" width="1426.3" y="135.5" x="1135.2"/>
  <rect style="color-rendering:auto;fill-rule:evenodd;color:#000000;isolation:auto;mix-blend-mode:normal;shape-rendering:auto;solid-color:#000000;image-rendering:auto;fill:#666" transform="rotate(90)" rx="0" ry="0" height="35.564" width="450.52" y="-1866.2" x="-284.24"/>
  <rect style="color-rendering:auto;fill-rule:evenodd;color:#000000;isolation:auto;mix-blend-mode:normal;shape-rendering:auto;solid-color:#000000;image-rendering:auto;fill:#f54848" transform="matrix(.98912 .14708 -.13786 .99045 0 0)" height="331.47" width="107.04" y="-439.31" x="1575.7"/>
  <rect style="color-rendering:auto;fill-rule:evenodd;color:#000000;isolation:auto;mix-blend-mode:normal;shape-rendering:auto;solid-color:#000000;image-rendering:auto;fill:#fff" transform="matrix(.98912 .14708 -.13786 .99045 0 0)" height="8.1137" width="103.76" y="-418.43" x="1577.3"/>
  <rect style="color-rendering:auto;fill-rule:evenodd;color:#000000;isolation:auto;mix-blend-mode:normal;shape-rendering:auto;solid-color:#000000;image-rendering:auto;fill:#fff" transform="matrix(.98912 .14708 -.13786 .99045 0 0)" height="8.1137" width="103.76" y="-126.75" x="1577.3"/>
  <rect style="color-rendering:auto;fill-rule:evenodd;color:#000000;isolation:auto;mix-blend-mode:normal;shape-rendering:auto;solid-color:#000000;image-rendering:auto;fill:#fff" transform="matrix(.99561 .093587 -.087652 .99615 0 0)" height="7.5469" width="103.72" y="-319.43" x="1703.6"/>
  <rect style="color-rendering:auto;fill-rule:evenodd;color:#000000;isolation:auto;mix-blend-mode:normal;shape-rendering:auto;solid-color:#000000;image-rendering:auto;fill:#fff" transform="matrix(.99561 .093587 -.087652 .99615 0 0)" height="7.5469" width="103.72" y="-48.131" x="1703.6"/>
  <rect style="color-rendering:auto;fill-rule:evenodd;color:#000000;isolation:auto;mix-blend-mode:normal;shape-rendering:auto;solid-color:#000000;image-rendering:auto;fill:#fff" transform="matrix(1 .0024034 -.0022498 1 0 0)" height="7.5489" width="103.69" y="114.2" x="1985.2"/>
  <rect style="color-rendering:auto;fill-rule:evenodd;color:#000000;isolation:auto;mix-blend-mode:normal;shape-rendering:auto;solid-color:#000000;image-rendering:auto;fill:#fff" transform="matrix(1 .0024034 -.0022498 1 0 0)" height="7.5489" width="103.69" y="-160.03" x="1871.3"/>
  <rect style="color-rendering:auto;fill-rule:evenodd;color:#000000;isolation:auto;mix-blend-mode:normal;shape-rendering:auto;solid-color:#000000;image-rendering:auto;fill:#fff" transform="matrix(1 .0024034 -.0022498 1 0 0)" height="7.5489" width="103.69" y="111.34" x="1871.3"/>
  <rect style="color-rendering:auto;fill-rule:evenodd;color:#000000;isolation:auto;mix-blend-mode:normal;shape-rendering:auto;solid-color:#000000;image-rendering:auto;fill:#fff" transform="matrix(.98480 -.17370 .16290 .98664 0 0)" height="8.8666" width="103.79" y="174.21" x="2092.8"/>
  <text style="letter-spacing:0px;font-size:48.912px;word-spacing:0px;font-family:sans-serif;line-height:125%;fill:#ffffff" transform="matrix(.97360 .14477 -.14007 1.0063 0 0)" y="-347.31592" x="1640.8846" xml:space="preserve"><tspan y="-347.31592" x="1640.8846">a</tspan><tspan y="-298.81403" x="1640.8846">t</tspan><tspan y="-250.31212" x="1640.8846">o</tspan><tspan y="-201.81023" x="1640.8846">i</tspan></text>
  <text style="letter-spacing:0px;font-size:48.912px;word-spacing:0px;font-family:sans-serif;line-height:125%;fill:#666666" transform="matrix(.96960 -.17102 .16546 1.0022 0 0)" y="218.96143" x="2167.8167" xml:space="preserve"><tspan y="218.96143" x="2167.8167">a</tspan><tspan y="267.46332" x="2167.8167">b</tspan><tspan y="315.96521" x="2167.8167">o</tspan><tspan y="364.4671" x="2167.8167">r</tspan><tspan y="412.96902" x="2167.8167">t</tspan></text>
  <text style="font-size:39.251px;letter-spacing:0px;line-height:125%;word-spacing:0px;font-family:sans-serif;fill:#ffffff" transform="scale(.98362 1.0167)" y="-106.8343" x="1781.585" xml:space="preserve"><tspan y="-106.8343" x="1781.585">s</tspan><tspan y="-67.912384" x="1781.585">r</tspan><tspan y="-28.990475" x="1781.585">a</tspan><tspan y="9.9314375" x="1781.585">n</tspan><tspan y="48.853348" x="1781.585">d</tspan></text>
  <text style="letter-spacing:0px;font-size:48.912px;word-spacing:0px;font-family:sans-serif;line-height:125%;fill:#ffffff" transform="scale(.98362 1.0167)" y="-68.101799" x="1939.9969" xml:space="preserve"><tspan y="-68.101799" x="1939.9969">a</tspan><tspan y="-19.599901" x="1939.9969">b</tspan><tspan y="28.901995" x="1939.9969">s</tspan></text>
  <text style="letter-spacing:0px;font-size:48.912px;word-spacing:0px;font-family:sans-serif;line-height:125%;fill:#666666" transform="scale(.98362 1.0167)" y="-95.959763" x="2056.3909" xml:space="preserve"><tspan y="-95.959763" x="2056.3909">r</tspan><tspan y="-47.457867" x="2056.3909">a</tspan><tspan y="1.0440311" x="2056.3909">n</tspan><tspan y="49.545929" x="2056.3909">d</tspan></text>
  <rect style="color-rendering:auto;fill-rule:evenodd;color:#000000;isolation:auto;mix-blend-mode:normal;shape-rendering:auto;solid-color:#000000;image-rendering:auto;fill:#fff" transform="matrix(.98480 -.17370 .16290 .98664 0 0)" height="8.1116" width="103.79" y="490.44" x="2091.8"/>
  <text style="font-size:75.032px;letter-spacing:0px;line-height:125%;word-spacing:0px;font-family:sans-serif;fill:#ffffff" xml:space="preserve" transform="scale(.98362 1.0167)" y="209.78305" x="1741.8713"><tspan x="1741.8713" style="font-size:75.032px;line-height:125%;font-family:sans-serif;fill:#ffffff" y="209.78305">stdlib.h</tspan></text>
  <rect style="color-rendering:auto;fill-rule:evenodd;color:#000000;isolation:auto;mix-blend-mode:normal;shape-rendering:auto;solid-color:#000000;image-rendering:auto;fill:#ffb05f" transform="matrix(1 .0024034 -.0022498 1 0 0)" height="308.39" width="106.97" y="500.39" x="2399.8"/>
  <rect style="color-rendering:auto;fill-rule:evenodd;color:#000000;isolation:auto;mix-blend-mode:normal;shape-rendering:auto;solid-color:#000000;image-rendering:auto;fill:#fff" transform="matrix(1 .0024034 -.0022498 1 0 0)" height="7.5489" width="103.69" y="519.82" x="2401.5"/>
  <rect style="color-rendering:auto;fill-rule:evenodd;color:#000000;isolation:auto;mix-blend-mode:normal;shape-rendering:auto;solid-color:#000000;image-rendering:auto;fill:#79c4ff" transform="matrix(.99561 .093587 -.087652 .99615 0 0)" height="308.31" width="107" y="336.18" x="1761.4"/>
  <rect style="color-rendering:auto;fill-rule:evenodd;color:#000000;isolation:auto;mix-blend-mode:normal;shape-rendering:auto;solid-color:#000000;image-rendering:auto;fill:#98939a" transform="matrix(1 .0024034 -.0022498 1 0 0)" height="308.39" width="106.97" y="497.54" x="2285.9"/>
  <rect style="color-rendering:auto;fill-rule:evenodd;color:#000000;isolation:auto;mix-blend-mode:normal;shape-rendering:auto;solid-color:#000000;image-rendering:auto;fill:#666" rx="0" ry="0" height="98.761" width="1426.3" y="813.49" x="1135.2"/>
  <rect style="color-rendering:auto;fill-rule:evenodd;color:#000000;isolation:auto;mix-blend-mode:normal;shape-rendering:auto;solid-color:#000000;image-rendering:auto;fill:#666" transform="rotate(90)" rx="0" ry="0" height="35.564" width="450.52" y="-1866.2" x="393.75"/>
  <rect style="color-rendering:auto;fill-rule:evenodd;color:#000000;isolation:auto;mix-blend-mode:normal;shape-rendering:auto;solid-color:#000000;image-rendering:auto;fill:#f54848" height="331.69" width="106.97" y="480.81" x="1463.4"/>
  <rect style="color-rendering:auto;fill-rule:evenodd;color:#000000;isolation:auto;mix-blend-mode:normal;shape-rendering:auto;solid-color:#000000;image-rendering:auto;fill:#fff" height="8.1189" width="103.69" y="501.7" x="1465"/>
  <rect style="color-rendering:auto;fill-rule:evenodd;color:#000000;isolation:auto;mix-blend-mode:normal;shape-rendering:auto;solid-color:#000000;image-rendering:auto;fill:#fff" height="8.1189" width="103.69" y="793.57" x="1465"/>
  <rect style="color-rendering:auto;fill-rule:evenodd;color:#000000;isolation:auto;mix-blend-mode:normal;shape-rendering:auto;solid-color:#000000;image-rendering:auto;fill:#fff" transform="matrix(.99561 .093587 -.087652 .99615 0 0)" height="7.5469" width="103.72" y="355.6" x="1763"/>
  <rect style="color-rendering:auto;fill-rule:evenodd;color:#000000;isolation:auto;mix-blend-mode:normal;shape-rendering:auto;solid-color:#000000;image-rendering:auto;fill:#fff" transform="matrix(.99561 .093587 -.087652 .99615 0 0)" height="7.5469" width="103.72" y="626.9" x="1763"/>
  <rect style="color-rendering:auto;fill-rule:evenodd;color:#000000;isolation:auto;mix-blend-mode:normal;shape-rendering:auto;solid-color:#000000;image-rendering:auto;fill:#ffd25f" height="308.4" width="106.97" y="504.1" x="1878.1"/>
  <rect style="color-rendering:auto;fill-rule:evenodd;color:#000000;isolation:auto;mix-blend-mode:normal;shape-rendering:auto;solid-color:#000000;image-rendering:auto;fill:#fff" height="7.5489" width="103.69" y="523.52" x="1879.7"/>
  <rect style="color-rendering:auto;fill-rule:evenodd;color:#000000;isolation:auto;mix-blend-mode:normal;shape-rendering:auto;solid-color:#000000;image-rendering:auto;fill:#fff" height="7.5489" width="103.69" y="794.9" x="1879.7"/>
  <rect style="color-rendering:auto;fill-rule:evenodd;color:#000000;isolation:auto;mix-blend-mode:normal;shape-rendering:auto;solid-color:#000000;image-rendering:auto;fill:#5fcdff" height="308.4" width="106.97" y="504.1" x="2010.5"/>
  <rect style="color-rendering:auto;fill-rule:evenodd;color:#000000;isolation:auto;mix-blend-mode:normal;shape-rendering:auto;solid-color:#000000;image-rendering:auto;fill:#fff" height="7.5489" width="103.69" y="523.52" x="2012.1"/>
  <rect style="color-rendering:auto;fill-rule:evenodd;color:#000000;isolation:auto;mix-blend-mode:normal;shape-rendering:auto;solid-color:#000000;image-rendering:auto;fill:#fff" height="7.5489" width="103.69" y="794.9" x="2012.1"/>
  <rect style="color-rendering:auto;fill-rule:evenodd;color:#000000;isolation:auto;mix-blend-mode:normal;shape-rendering:auto;solid-color:#000000;image-rendering:auto;fill:#fff" transform="matrix(1 .0024034 -.0022498 1 0 0)" height="7.5489" width="103.69" y="791.2" x="2401.5"/>
  <rect style="color-rendering:auto;fill-rule:evenodd;color:#000000;isolation:auto;mix-blend-mode:normal;shape-rendering:auto;solid-color:#000000;image-rendering:auto;fill:#fff" transform="matrix(1 .0024034 -.0022498 1 0 0)" height="7.5489" width="103.69" y="516.96" x="2287.5"/>
  <rect style="color-rendering:auto;fill-rule:evenodd;color:#000000;isolation:auto;mix-blend-mode:normal;shape-rendering:auto;solid-color:#000000;image-rendering:auto;fill:#fff" transform="matrix(1 .0024034 -.0022498 1 0 0)" height="7.5489" width="103.69" y="788.34" x="2287.5"/>
  <rect style="color-rendering:auto;fill-rule:evenodd;color:#000000;isolation:auto;mix-blend-mode:normal;shape-rendering:auto;solid-color:#000000;image-rendering:auto;fill:#fff15f" height="362.54" width="106.97" y="452.26" x="1569.5"/>
  <rect style="color-rendering:auto;fill-rule:evenodd;color:#000000;isolation:auto;mix-blend-mode:normal;shape-rendering:auto;solid-color:#000000;image-rendering:auto;fill:#fff" height="8.8746" width="103.69" y="475.09" x="1571.1"/>
  <rect style="color-rendering:auto;fill-rule:evenodd;color:#000000;isolation:auto;mix-blend-mode:normal;shape-rendering:auto;solid-color:#000000;image-rendering:auto;fill:#79c4ff" height="308.4" width="106.97" y="504.1" x="1357.5"/>
  <rect style="color-rendering:auto;fill-rule:evenodd;color:#000000;isolation:auto;mix-blend-mode:normal;shape-rendering:auto;solid-color:#000000;image-rendering:auto;fill:#fff" height="7.5489" width="103.69" y="523.52" x="1359.1"/>
  <rect style="color-rendering:auto;fill-rule:evenodd;color:#000000;isolation:auto;mix-blend-mode:normal;shape-rendering:auto;solid-color:#000000;image-rendering:auto;fill:#fff" height="7.5489" width="103.69" y="794.9" x="1359.1"/>
  <rect style="color-rendering:auto;fill-rule:evenodd;color:#000000;isolation:auto;mix-blend-mode:normal;shape-rendering:auto;solid-color:#000000;image-rendering:auto;fill:#f54848" height="331.69" width="106.97" y="480.81" x="2169.3"/>
  <rect style="color-rendering:auto;fill-rule:evenodd;color:#000000;isolation:auto;mix-blend-mode:normal;shape-rendering:auto;solid-color:#000000;image-rendering:auto;fill:#fff" height="8.1189" width="103.69" y="501.7" x="2171"/>
  <rect style="color-rendering:auto;fill-rule:evenodd;color:#000000;isolation:auto;mix-blend-mode:normal;shape-rendering:auto;solid-color:#000000;image-rendering:auto;fill:#fff" height="8.1189" width="103.69" y="793.57" x="2171"/>
  <rect style="color-rendering:auto;fill-rule:evenodd;color:#000000;isolation:auto;mix-blend-mode:normal;shape-rendering:auto;solid-color:#000000;image-rendering:auto;fill:#bffa5a" height="299.21" width="106.97" y="513.28" x="1242.7"/>
  <rect style="color-rendering:auto;fill-rule:evenodd;color:#000000;isolation:auto;mix-blend-mode:normal;shape-rendering:auto;solid-color:#000000;image-rendering:auto;fill:#fff" height="7.3241" width="103.69" y="532.13" x="1244.4"/>
  <rect style="color-rendering:auto;fill-rule:evenodd;color:#000000;isolation:auto;mix-blend-mode:normal;shape-rendering:auto;solid-color:#000000;image-rendering:auto;fill:#fff" height="7.3241" width="103.69" y="795.42" x="1244.4"/>
  <rect style="color-rendering:auto;fill-rule:evenodd;color:#000000;isolation:auto;mix-blend-mode:normal;shape-rendering:auto;solid-color:#000000;image-rendering:auto;fill:#fff" height="8.1189" width="103.69" y="791.6" x="1570.2"/>
  <text style="font-size:75.032px;letter-spacing:0px;line-height:125%;word-spacing:0px;font-family:sans-serif;fill:#ffffff" xml:space="preserve" transform="scale(.98362 1.0167)" y="876.67096" x="1759.4568"><tspan x="1759.4568" style="font-size:75.032px;line-height:125%;font-family:sans-serif;fill:#ffffff" y="876.67096">others</tspan></text>
 </g>
</svg>
