<svg xmlns="http://www.w3.org/2000/svg" height="100%" width="100%" version="1.1" xmlns:xlink="http://www.w3.org/1999/xlink" viewBox="0 0 2156.7735 1797.8918"><g transform="translate(1312.4 -330.06)"><rect style="color-rendering:auto;color:#000000;isolation:auto;mix-blend-mode:normal;fill-rule:evenodd;shape-rendering:auto;solid-color:#000000;image-rendering:auto;fill:#f8f8f8" rx="0" ry="0" height="1797.9" width="2156.8" y="330.06" x="-1312.4"/><g transform="matrix(.91911 0 0 .91911 -1683.9 1148.2)"><rect style="solid-color:#000000;fill:#666" height="105.56" width="86.303" y="-216.53" x="1427.3"/><rect style="solid-color:#000000;fill:#454545" height="105.56" width="77.778" y="-216.53" x="1661.7"/><rect style="solid-color:#000000;fill:#454545" height="105.56" width="60.555" y="-36.527" x="1318.9"/><rect style="solid-color:#000000;fill:#454545" height="105.56" width="60.555" y="83.473" x="1318.9"/><rect style="solid-color:#000000;fill:#808080" rx="32.154" ry="47.597" height="328.98" width="64.308" y="-88.423" x="1342.9"/><rect style="solid-color:#000000;fill:#454545" transform="scale(-1,1)" height="51.98" width="49.84" y="-9.7387" x="-1822.5"/><rect style="solid-color:#000000;fill:#454545" rx="27.499" ry="29.907" height="931.38" width="451.76" y="-134.37" x="1359.2"/><rect style="solid-color:#000000;fill:#666" rx="30.542" ry="30.524" height="123.88" width="501.76" y="673.13" x="1334.2"/><rect style="solid-color:#000000;fill:#808080" rx="20.059" ry="17.095" height="368.33" width="329.54" y="263.69" x="1420.3"/><rect style="solid-color:#000000;fill:#84e0ff" rx="20.059" ry="9.0191" height="107.22" width="329.54" y="128.13" x="1420.3"/><rect style="solid-color:#000000;fill:#808080" rx="0" ry="0" height="162.77" width="329.54" y="-62.976" x="1420.3"/><rect id="c" style="solid-color:#000000;fill:#454545" rx="16.001" ry=".82938" height="25.829" width="262.87" y="294.94" x="1453.7"/><use id="a" xlink:href="#c" transform="translate(0,56)" height="100%" width="100%" y="0" x="0"/><use xlink:href="#a" transform="translate(0,56)" height="100%" width="100%" y="0" x="0"/><rect id="b" style="solid-color:#000000;fill:#454545" rx="16.001" ry=".82938" height="25.829" width="262.87" y="462.94" x="1453.7"/><use xlink:href="#b" transform="translate(0,56)" height="100%" width="100%" y="0" x="0"/><rect style="solid-color:#000000;fill:#454545" rx="16.001" ry=".82938" height="25.829" width="262.87" y="574.94" x="1453.7"/><use xlink:href="#a" transform="translate(-.000030518 -401.44)" height="100%" width="100%" y="0" x="0"/><rect style="solid-color:#000000;fill:#454545" rx="16.001" ry=".82938" height="25.829" width="262.87" y="5.4951" x="1453.7"/><use xlink:href="#b" transform="translate(-.000030518 -401.44)" height="100%" width="100%" y="0" x="0"/><rect style="solid-color:#000000;fill:#454545" height="363.89" width="38.889" y="-554.86" x="1681.1"/><rect style="solid-color:#000000;fill:#454545" ry="8.3333" height="275" width="16.667" y="-745.97" x="1692.2"/><g transform="translate(-18)"><use xlink:href="#a" transform="matrix(0 .25875 -.24560 0 1547.8 -583.38)" height="100%" width="100%" y="0" x="0"/><use xlink:href="#a" transform="matrix(0 .25875 -.24560 0 1567.8 -583.38)" height="100%" width="100%" y="0" x="0"/><use xlink:href="#a" transform="matrix(0 .25875 -.24560 0 1587.8 -583.38)" height="100%" width="100%" y="0" x="0"/><use xlink:href="#a" transform="matrix(0 .25875 -.24560 0 1607.8 -583.38)" height="100%" width="100%" y="0" x="0"/></g><g transform="translate(-6.0595 -9.1689)"><circle cx="1411.2" cy="744.25" r="13.778" style="solid-color:#000000;fill:#454545"/><circle r="13.778" style="solid-color:#000000;fill:#454545" cx="1501.2" cy="744.25"/><circle cx="1681.2" cy="744.25" r="13.778" style="solid-color:#000000;fill:#454545"/><circle r="13.778" style="solid-color:#000000;fill:#454545" cx="1591.2" cy="744.25"/><circle cx="1771.2" cy="744.25" r="13.778" style="solid-color:#000000;fill:#454545"/></g></g><g transform="translate(-1811.5 1325.6)"><path d="m1509.3 731.18h-27.24v-43.2h4.08v39.72h23.16v3.48z"/><path d="m1554.1 709.64q0 9.42-4.68 15.54-5.46 7.14-15.48 7.14-9.24 0-14.7-6.18-5.4-6.24-5.4-16.68 0-9.66 4.98-15.84 5.46-6.78 15-6.78 9.66 0 15.12 6.6 5.16 6.18 5.16 16.2zm-4.08-.06q0-8.82-4.26-14.04t-11.88-5.22q-7.68 0-12 5.76-3.96 5.28-3.96 13.44 0 8.34 3.66 13.44 4.26 5.88 12.48 5.88 8.04 0 12.3-6 3.66-5.16 3.66-13.26z"/><path d="m1597.5 716.96q-3.6 15.36-18.72 15.36-9.72 0-14.58-7.14-4.02-5.94-4.02-15.48 0-12.12 6-17.94 5.1-4.92 14.04-4.92 6.12 0 10.38 2.82 5.22 3.48 6.42 10.86h-4.2q-1.2-5.64-4.98-8.1-3.18-2.1-8.52-2.1-7.44 0-11.46 5.7-3.6 5.16-3.6 13.5 0 8.16 3.18 13.14 3.96 6.18 12.18 6.18 4.62 0 7.98-2.52 4.08-3.06 5.64-9.36h4.26z"/><path d="m1639.7 731.18h-4.2l-4.98-13.56h-19.68l-5.1 13.56h-4.2l16.98-43.2h4.62l16.56 43.2zm-10.56-17.04-8.46-22.68-8.46 22.68h16.92z"/><path d="m1672.8 731.18h-27.24v-43.2h4.08v39.72h23.16v3.48z"/></g></g></svg>