<svg xmlns:rdf="http://www.w3.org/1999/02/22-rdf-syntax-ns#" xmlns="http://www.w3.org/2000/svg" height="157.2mm" width="297.35mm" version="1.1" xmlns:cc="http://creativecommons.org/ns#" xmlns:dc="http://purl.org/dc/elements/1.1/" viewBox="0 0 1053.6345 556.97437">
 <defs>
  <filter id="d" style="color-interpolation-filters:sRGB">
   <feFlood flood-color="rgb(0,0,0)" result="flood" flood-opacity=".26274"/>
   <feComposite operator="in" result="composite1" in2="SourceGraphic" in="flood"/>
   <feGaussianBlur stdDeviation="8.9" result="blur" in="composite1"/>
   <feOffset result="offset" dx="0" dy="0"/>
   <feComposite operator="over" result="composite2" in2="offset" in="SourceGraphic"/>
  </filter>
  <filter id="b" style="color-interpolation-filters:sRGB" height="1.1038" width="1.1643" y="-.051884" x="-.082150">
   <feGaussianBlur stdDeviation="0.018152758"/>
  </filter>
  <filter id="c" style="color-interpolation-filters:sRGB" height="1.085" width="1.1041" y="-.042514" x="-.052048">
   <feGaussianBlur stdDeviation="0.016500179"/>
  </filter>
 </defs>
 <g transform="translate(-127.47 -109.06)">
  <rect ry="6.2306" style="stroke-linejoin:round;solid-color:#000000;color-rendering:auto;fill-opacity:.99216;color:#000000;isolation:auto;mix-blend-mode:normal;fill-rule:evenodd;stroke-dashoffset:5.1;shape-rendering:auto;filter:url(#d);stroke:#fcc24b;stroke-linecap:round;image-rendering:auto;stroke-width:2.7793;fill:#353f4e" rx="5" transform="matrix(1.5645,0,0,1.324,531.35,-32.094)" height="313.49" width="561.22" y="137.95" x="-202.03"/>
  <rect style="color-rendering:auto;fill-rule:evenodd;color:#000000;isolation:auto;mix-blend-mode:normal;shape-rendering:auto;solid-color:#000000;image-rendering:auto;fill:#6b6d6f" rx="0" ry="0" height="12.64" width="915.58" y="557.2" x="196.48"/>
  <rect style="color-rendering:auto;fill-rule:evenodd;color:#000000;isolation:auto;mix-blend-mode:normal;fill-opacity:.52050;shape-rendering:auto;solid-color:#000000;image-rendering:auto;fill:#6b6d6f" rx="0" ry="0" height="21.448" width="68.838" y="533.94" x="799.12"/>
  <rect style="color-rendering:auto;fill-rule:evenodd;color:#000000;isolation:auto;mix-blend-mode:normal;shape-rendering:auto;solid-color:#000000;image-rendering:auto;fill:#fff" rx="0" ry="0" height="3.2997" width="68.838" y="552.91" x="799.12"/>
  <rect style="color-rendering:auto;fill-rule:evenodd;color:#000000;isolation:auto;mix-blend-mode:normal;shape-rendering:auto;solid-color:#000000;image-rendering:auto;fill:#fff" rx="1.6481" ry="1.7379" height="5.6174" width="37.289" y="551.58" x="617.57"/>
  <rect style="color-rendering:auto;fill-rule:evenodd;color:#000000;isolation:auto;mix-blend-mode:normal;shape-rendering:auto;solid-color:#000000;image-rendering:auto;fill:#ff6b00" rx="1.6481" ry="1.7379" height="5.6174" width="37.289" y="551.58" x="523.7"/>
  <rect style="color-rendering:auto;fill-rule:evenodd;color:#000000;isolation:auto;mix-blend-mode:normal;shape-rendering:auto;solid-color:#000000;image-rendering:auto;fill:#00ff65" rx="1.6481" ry="1.7379" height="5.6174" width="37.289" y="551.58" x="335.94"/>
  <text style="letter-spacing:0px;font-weight:100;font-size:44.181px;word-spacing:0px;font-family:&apos;AR CENA&apos;;line-height:125%;fill:#000000" xml:space="preserve" transform="scale(.9738 1.0269)" y="274.46948" x="388.74213"><tspan y="274.46948" x="388.74213" style="font-weight:100;font-family:&apos;AR CENA&apos;"/></text>
  <text style="letter-spacing:0px;font-weight:100;font-size:27.5px;word-spacing:0px;font-family:&apos;AR CENA&apos;;line-height:125%;fill:#ffffff" y="188.215" x="554.23633" xml:space="preserve"><tspan y="188.215" x="554.23633" style="font-size:37.5px;font-weight:100;font-family:&apos;AR CENA&apos;">Matrix Addition</tspan></text>
  <text style="letter-spacing:0px;font-weight:100;font-size:29.77px;word-spacing:0px;font-family:&apos;AR CENA&apos;;line-height:125%;fill:#ffffff" xml:space="preserve" transform="scale(.97875 1.0217)" y="283.22919" x="489.54895"><tspan y="283.22919" x="489.54895" style="font-weight:100;font-family:&apos;AR CENA&apos;">1  2  3</tspan><tspan y="320.44244" x="489.54895" style="font-weight:100;font-family:&apos;AR CENA&apos;">4  5  6</tspan><tspan y="357.65567" x="489.54895" style="font-weight:100;font-family:&apos;AR CENA&apos;">7  8  9</tspan></text>
  <path style="stroke:#fff;stroke-width:2;fill:none" d="m477.52 253.7s-21.191-5.4436-21.191 4.4244v118.42c0 9.8681 21.191 4.4244 21.191 4.4244"/>
  <path style="stroke:#fff;stroke-width:2;fill:none" d="m558.55 253.7s21.191-5.4436 21.191 4.4244v118.42c0 9.8681-21.191 4.4244-21.191 4.4244"/>
  <text style="letter-spacing:0px;font-weight:100;font-size:35px;word-spacing:0px;font-family:&apos;AR CENA&apos;;line-height:125%;fill:#ffffff" y="328.9213" x="347.02383" xml:space="preserve"><tspan y="328.9213" x="347.02383" style="font-weight:100;font-family:&apos;AR CENA&apos;">A    =</tspan></text>
  <text style="letter-spacing:0px;font-weight:100;font-size:29.77px;word-spacing:0px;font-family:&apos;AR CENA&apos;;line-height:125%;fill:#ffffff" xml:space="preserve" transform="scale(.97875 1.0217)" y="284.65625" x="878.44354"><tspan y="284.65625" x="878.44354" style="font-weight:100;font-family:&apos;AR CENA&apos;">1  4  7</tspan><tspan y="321.86948" x="878.44354" style="font-weight:100;font-family:&apos;AR CENA&apos;">2  5  8</tspan><tspan y="359.0827" x="878.44354" style="font-weight:100;font-family:&apos;AR CENA&apos;">3  6  9</tspan></text>
  <path style="stroke:#fff;stroke-width:2;fill:none" d="m857.52 255.18s-21.191-5.4436-21.191 4.4244v118.42c0 9.8681 21.191 4.4244 21.191 4.4244"/>
  <path style="stroke:#fff;stroke-width:2;fill:none" d="m938.55 255.18s21.191-5.4436 21.191 4.4244v118.42c0 9.8681-21.191 4.4244-21.191 4.4244"/>
  <text style="letter-spacing:0px;font-weight:100;font-size:35px;word-spacing:0px;font-family:&apos;AR CENA&apos;;line-height:125%;fill:#ffffff" y="337.52301" x="727.0238" xml:space="preserve"><tspan y="337.52301" x="727.0238" style="font-weight:100;font-family:&apos;AR CENA&apos;">B   =</tspan></text>
  <text style="letter-spacing:0px;font-weight:100;font-size:180px;word-spacing:0px;font-family:&apos;AR CENA&apos;;line-height:125%;fill:#ffffff" y="469.69159" x="594.30444" xml:space="preserve"><tspan y="469.69159" x="594.30444" style="font-size:35px;font-weight:100;font-family:&apos;AR CENA&apos;;fill:#ffffff">C = A + B</tspan></text>
 </g>
 <g transform="translate(657.1 -639.36)">
  <path d="m-514.01 1196.1h19.315s6.3364-48.648 4.8096-58.284c0 0-10.993 3.264-21.529 2.0206 0 0-1.0342 15.096-.27844 16.415 0 0-3.1229 38.155-2.3172 39.849z" style="fill:#f3857b;fill-rule:evenodd"/>
  <path d="m-538.03 1137.9 2.1593 12.956s1.5115 6.4779.3239 9.6088c0 0-3.6708 17.49-1.7274 22.888 0 0-.86371 12.632-.53982 12.956h21.809l3.4549-55.602s-24.4-.6478-25.48-2.8071z" style="fill:#f3857b;fill-rule:evenodd"/>
  <path style="fill:#b94847;fill-rule:evenodd" d="m-511.6 1195.8s-.22614-37.187.37692-39.652c0 0 .67846-11.711.30153-12.533-.37691-.8218.37693-3.2873.37693-3.2873l-.90461.6164s-1.0554 2.6709-.82922 6.369c0 0-.97998 47.254-.82921 48.076.15082.8218 1.5077.4109 1.5077.4109z"/>
  <path d="m-508.93 1195.8s-.62287-37.187 1.0381-39.652c0 0 1.8686-11.711.83049-12.533-1.0381-.8218 1.0381-3.2873 1.0381-3.2873-3.6965.571-5.0997 4.5954-4.7753 6.9854 0 0-2.6991 47.254-2.2839 48.076.41524.8218 4.1525.4109 4.1525.4109z" style="fill:#dc615a;fill-rule:evenodd"/>
  <path d="m-478 1122.1-2.1593 15.223s-50.18 11.464-79.343-7.3166c0 0 4.1988-11.146 3.5881-14.123l4.8859 1.2978-.30537 4.9622 3.3591-3.4354s30.567 12.569 69.974 3.3923z" style="fill:#fbf4e8;fill-rule:evenodd"/>
  <path d="m-555.44 1116.4-5.5075-67.598c-1.8639-22.877 87.493-1.4538 87.493-1.4538l-4.2167 74.549s-42.804 10.535-77.769-5.4966z" style="fill:#ffc535;fill-rule:evenodd"/>
  <path d="m-588.21 991.02s-9.6191-5.802-6.5654-12.52l20.918-66.418 1.0093-3.9138 10.633-8.5181s4.2106 4.4265 10.796-.43186l.464-.11439s8.497 21.167 13.679 28.941c0 0 13.604 24.832 6.2619 54.63l-10.095 19.164-5.884-4.4806s11.66-12.308 7.1256-32.173c0 0-8.8192-18.571-12.524-26.991-.99239-2.2554.86372-7.3416.86372-7.3416l-22.673 42.97s-12.906 9.565-14.011 17.198z" style="fill:#f1a102;fill-rule:evenodd"/>
  <path d="m-573.25 976.59c1.1035.0546 2.1376-1.1452 3.2064-.83978 0 0 2.901.91612 1.9849 4.8859-4.8128 3.9271-12.434 15.623-15.65 15.879-.34354-.34355-.64891-2.3666-1.6032-2.2521-.95429.11461-2.8247-.80159-2.672-2.2521 0 0 4.0843-13.856 12.367-16.299 0 0 1.5262.83627 2.3666.87794z" style="fill:none"/>
  <path d="m-482.55 948.42s11.604-9.1611 5.802-24.43c0 0 2.443-10.383 1.3742-18.628 0 0-9.4664-11.451-12.826-11.757 0 0-7.7237-2.3783-12.474 6.6907l-6.5858 13.172s-11.118 4.7351-23.642-4.3339c0 0 7.5822 10.502 11.035 24.469 6.4085 25.922 15.911 49.323-13.844 46.504 0 0-8.0973 20.92-8.2053 22.324l-11.012 9.1769-8.0137 37.854c29.225-1.6516 58.533-1.3865 87.799-1.3865 0 0-6.5064-44.383-9.5601-50.796 0 0-7.0235-18.933-8.8557-29.315 0 0-3.0982-11.313 9.0084-19.544z" style="fill:#ffc535;fill-rule:evenodd"/>
  <path d="m-486.43 950.93s8.2053 21.377 14.899 20.081c0 0-16.087 4.2106-17.922 7.8814 0 0-9.6088-20.405 3.023-27.963z" style="fill:#fbb917;fill-rule:evenodd"/>
  <path d="m-485.61 952.92s2.0598-1.6794 3.2813-.83968c0 0 1.0503-4.9748 3.1115-4.3831 2.0612.59166 3.1104 2.131 3.2249 2.3601 0 0 4.9241 12.978 9.8482 15.65 0 0 1.4505.26719.41988 2.2139 0 0-.0764 1.2597-2.3666.45806 0 0-.72525 3.8934-3.5499 2.3666 0 0-5.5838.47934-8.5528-6.8622 0 0-5.72-9.8039-5.4164-10.964z" style="fill-opacity:0"/>
  <path d="m-476.71 948.34s35.736-23.86 39.731-27.963c0 0 4.4265-3.7788 5.5062-5.2902 1.5175-6.5311 16.349-2.6299 15.333-4.3232l.32147 1.4081s-1.4035-9.6088-.97168-10.688c0 0 1.2733-4.396 3.3657.54334 0 0 2.2485 6.6903 2.1405 10.685 0 0 3.5628.10797 5.0743-3.7788.003-3.932-2.2351-9.0347-.94301-11.709.42148-.8725 1.6494-.47522 1.6494-.47522s2.2039.14202 2.1558 9.6652c0 0 2.752-2.5008 2.536-5.6318-.086-3.258.0786-5.4046 1.7274-5.3442 1.6488.0603 2.5911 7.4495 2.1053 10.796-.89173 9.219-12.848 16.056-19.922 16.61l-7.5579 1.7559c-12.21 7.9414-28.456 36.605-41.779 40.798 0 0-10.257-7.6655-10.473-17.058z" style="fill:#f8c591;fill-rule:evenodd"/>
  <path d="m-552.2 931.13s11.954 13.455 11.954 15.511c0 0 6.7534 0 8.5151.58724 4.2682 14.825-2.523 6.3557-4.4044 10.57 1.9139 8.6465 3.5022 17.308 2.6426 25.252 20.221-.17931 3.5439 4.3789-2.0554 3.2299l-6.1661 15.856s-9.5435 70.424-12.48 71.598l-6.7429-26.03s11.637-60.139 21.278-67.59c0 0 2.0554-16.737-4.698-24.958 0 0-9.433-19.468-9.433-20.348z" style="fill:#e58d05;fill-rule:evenodd"/>
  <ellipse style="color-rendering:auto;color:#000000;isolation:auto;mix-blend-mode:normal;fill-rule:evenodd;shape-rendering:auto;solid-color:#000000;image-rendering:auto;fill:#cc3231" rx="3.8592" transform="matrix(.71209 .70209 -.71209 .70209 0 0)" ry="6.2443" cy="964.23" cx="263.38"/>
  <path d="m-532.94 863.3s-7.7106-4.6569-6.6418-12.444c1.0688-7.7869-.23502-7.1394 1.0627-8.9716 1.2978-1.8322 4.9073-9.5664 8.8008-11.78 6.2252-4.5636 15.372-13.501 22.006-14.3 0 0 1.9849-.43186-1.7559 3.3853 0 0 .95767 3.42 9.4316-10.169 0 0 2.9218-.16782 7.5642 12.356 0 0 2.8071 7.2336 1.1876 9.6088 0 0-.97168 5.938.75575 13.172 0 0-.53982 9.6088-14.035 21.377 0 0-7.9894 9.7168-16.842 4.8584z" style="fill:#f4c793;fill-rule:evenodd"/>
  <ellipse style="color-rendering:auto;color:#000000;isolation:auto;mix-blend-mode:normal;fill-rule:evenodd;shape-rendering:auto;solid-color:#000000;image-rendering:auto;fill:#922221" rx="2.1002" ry="3.3982" transform="matrix(.71209 .70209 -.71209 .70209 0 0)" cy="963.92" cx="263.38"/>
  <path d="m-547.26 885.83-.86371-3.023s-11.379-5.6904-5.8826-15.768c0 0 1.618-1.6147-3.9961-5.7713 0 0-3.3469-7.5035-3.3469-13.118 0 0 .47222-16.992-.4439-17.755 0 0-.45805-41.53 35.27-44.584 0 0 9.0073 2.527 14.621.25977 0 0 14.007 1.8778 21.183 14.932 0 0 6.3364 11.146 6.4128 16.948.77739 10.2 4.6461 23.074 1.8323 30.537 0 0-11.451 20.002-10.917 22.521-3.0175 9.798 4.8967 16.688 9.5428 8.8557 0 0-.83978 4.7332-4.8096 5.4966 0 0 5.852 5.8666 5.0963 11.211 0 0-.32389 3.7248-.37788 4.2646 0 0 .70177-8.5292-11.012-10.796 0 0-4.7504-6.1-9.5009-4.5885 0 0 4.2106-6.208-5.7221-11.174 0 0-5.0868-4.1732 4.738-9.3555 7.3575.4453 14.182-.94781 9.0815-8.1347 0 0 4.7504-8.961 4.6425-11.552.10797-.64778-2.3752-10.041.10797-17.166-.86648-6.0694-6.5055-23.066-9.2849-17.598 0 0-6.9097 10.796-10.257 10.365 7.3018-9.5722-3.4827 1.4243-6.5858 3.131-12.731 6.0948-13.301 6.6792-20.495 18.232-1.9876 11.853.10746 12.401 5.479 21.417 0 0-.56964 3.8817-.87501 9.8364 0 0-2.2555 1.0666-2.8662 3.3568 0 0-3.1648 1.1474-2.7068 2.3689z" style="fill:#4e1f09;fill-rule:evenodd"/>
  <path d="m-528.82 831.31s6.0692-2.4811 9.3138-.45805l5.7257 2.5956s2.5193-.30537 0-1.9849l-7.8633-2.4811s-5.4966-.26719-7.1762 2.3284z" style="fill:#481c00;fill-rule:evenodd"/>
  <path d="m-504.31 832.38s9.7718-4.7714 11.222-1.9086m-11.222 1.9086s-.57258 1.0688-.61075 1.565c-.0382.49623 1.7559 0 1.7559 0s4.8478-3.2064 5.2676-3.1682c0 0 3.8171-.68708 4.0843.19086 0 0 .91612.0763.72526-.49623" style="fill:#481c00;fill-rule:evenodd"/>
  <path d="m-565.15 903.89s5.6058-2.4915 11.004 8.5126c0 0 6.2287 6.8516 10.796 7.6821 0 0 25.538-.20762 26.161-1.0381l-37.372-24.5s-10.796 6.8516-10.589 9.3431z" style="fill:#e58d05;fill-rule:evenodd"/>
  <path d="m-550.72 890.39c-11.458 8.788-16.475-9.1798-5.8852-3.9685 0 0 .11262-1.7586-1.453-2.5793-11.857-.10598-9.7115 12.114-3.0412 16.579 0 0 4.5674 3.0695 9.9496-1.1675 0 0 .40145-6.4667.42975-8.8636z" style="fill:#461e0c;fill-rule:evenodd"/>
  <path d="m-502.65 903.89s3.1144 10.174.41525 16.61c0 0-7.4745 24.292 2.4915 23.461l5.6058-25.538s1.0381-17.648-3.1144-22.423c0 0-5.6058 5.3982-5.3982 7.8897z" style="fill:#e58d05;fill-rule:evenodd"/>
  <path d="m-533.5 874.46.3239-14.739c6.714 5.3196 12.194 10.846 22.457 8.836l.84296 12.297s-10.668 10.115-23.623-6.3945z" style="fill:#f5c187;fill-rule:evenodd"/>
  <path d="m-533.8 983.41 8.1923.0595s10.661-.0885 13.673-9.9893c2.487-8.1753-.29537-16.341-2.4524-27.953 0 0-2.9186-11.985-5.2056-17.69-2.0964-5.2302-7.7501-15.023-7.7501-15.023l6.6938 3.5628s11.224 5.3929 15.041-6.2111c0 0 5.344-11.528 6.9472-12.749 0 0 1.3742-3.5881 3.2827 5.7257 0 0 3.9698 11.68-.76343 21.834 0 0-4.1225 15.497-3.5117 18.551 0 0 .45806 2.7483 9.4664 2.5193l7.3289-.61075s1.3996-30.894-1.0836-42.231c0 0-.64779-2.5372-.32389-3.5088 0 0 .79679-6.8603-10.807-9.7613 0 0-2.443-6.8708-8.0923-5.6493 0 0 2.5956-5.9547-7.4815-10.077 0 0-.50205 3.4631.41564 5.0286 0 0-5.992 6.5858-15.709 1.0796 0 0-7.2278-4.7341-7.5332-6.948l-3.7408.91611s-2.2139 3.13-1.4505 4.8859c0 0-1.2215 1.0688-8.245 4.8096 0 0-2.5956 2.901-2.901 5.1149 0 0-4.2003 5.6887.22626 14.758 0 0 30.703 59.786 15.783 79.557z" style="fill:#d84232;fill-rule:evenodd"/>
  <path d="m-514.77 840.01s-5.2676-6.1837-12.215-1.6795c2.901 5.2676 12.215 1.6795 12.215 1.6795z" style="fill:#fff;fill-rule:evenodd"/>
  <path d="m-503.62 839.63s4.3515-5.344 8.7794-1.6032c0 0-4.8859 5.8784-8.7794 1.6032z" style="fill:#fff;fill-rule:evenodd"/>
  <circle style="color-rendering:auto;color:#000000;isolation:auto;mix-blend-mode:normal;fill-rule:evenodd;shape-rendering:auto;solid-color:#000000;image-rendering:auto;fill:#00060c" cx="-499.99" transform="scale(1,-1)" cy="-839.21" r="2.1288"/>
  <circle cx="-525.77" cy="1017.3" r="4.8793" style="color-rendering:auto;color:#000000;isolation:auto;mix-blend-mode:normal;fill-rule:evenodd;shape-rendering:auto;solid-color:#000000;image-rendering:auto;fill:#333"/>
  <path d="m-581.72 995.83 14.123-15.039s32.064 26.338 33.438 26.033c0 0 17.024 9.0847 18.017 8.7793 0 0 2.3666-4.7332-.30537-6.8708 0 0 4.1225-.6107 5.802 5.8784l.38171 1.3741c1.1018-5.6228 1.5706-8.6206-4.4622-9.2014 0 0-.62013-1.6967.83033-2.0784l4.3952 1.737s2.2997 0 2.7577 3.8935c.45805 3.8935 1.2215 5.1243-.30538 7.4146 4.5529-1.545 3.8669-7.1513 1.0829-8.9471 0 0-.80973-1.5115.70177-1.8894 3.7442.4323 5.0831 5.1858 4.8584 8.6911 0 0-3.187 8.0033-6.7478 9.6628-5.1416 2.3963-12.092.9177-16.95-1.5115-19.565-8.6948-39.358-15.646-57.617-27.926z" style="fill:#f8c591;fill-rule:evenodd"/>
  <path d="m-503.64 839.37s4.6301-5.026 8.5393-1.2824c0 0-.19678-1.2326.7208-1.1225" style="stroke:#000;stroke-width:0.2;fill:none"/>
  <ellipse style="color-rendering:auto;color:#000000;isolation:auto;mix-blend-mode:normal;fill-rule:evenodd;shape-rendering:auto;solid-color:#000000;image-rendering:auto;filter:url(#b);fill:#f2f7f9" rx=".26517" transform="matrix(1.661 0 0 1.661 -595.38 785.81)" ry=".41984" cy="31.744" cx="58.311"/>
  <path d="m-543.97 847.21s-.20762-21.593 20.14-29.275c0 0 13.288-2.6991 14.118-16.195 0 0-6.0211 8.0973-9.3431 7.2668 0 0 1.4534-9.3431-.20763-9.3431 0 0-2.2839 4.1525-8.305 6.644-12.172 7.2362-22.278 13.4-21.697 28.548 0 0 4.5677-10.07 7.8897-12.146 0 0 17.233-10.381 18.894-13.599 0 0-5.3982 8.5126-13.288 13.392 0 0-11.004 9.3431-8.2011 24.707z" style="fill:#592d15;fill-rule:evenodd"/>
  <path d="m-498.92 793.37c5.5854 3.7264 7.3825 9.57 8.0747 16.076-2.4958-10.277-12.846-16.076-12.846-16.076s4.331.22022 5.5054 2.1288z" style="fill:#683821;fill-rule:evenodd"/>
  <path d="m-503.9 800.29s-2.6991-8.9278-7.6821-12.873" style="stroke:#3c1705;stroke-width:1px;fill:none"/>
  <path d="m-521.6 789.56s-18.425-1.6149-25.325 10.35c0 0 15.342-7.2672 17.764-6.1661 0 0-15.562 12.112-16.957 15.489 0 0-1.3213-3.5969 3.2299-7.4874 0 0-7.6342 2.4958-12.552 11.598 0 0-2.7894-7.414 6.2395-15.489 0 0 18.792-17.03 27.601-8.2949z" style="fill:#512815;fill-rule:evenodd"/>
  <path d="m-555.08 836.52s.20763 16.921 5.2944 20.139c0 0-3.0624-1.2976-5.0868-5.5539 0 0 4.5158 9.914 7.0592 10.796-4.9453-5.3497-8.8866-9.3737-10.433-16.766 0 0-2.1281-10.07-.93431-11.264 0 0 2.18 8.2011 2.1282 11.679 0 0 1.09-8.9278 1.9724-9.0316z" style="fill:#774828;fill-rule:evenodd"/>
  <path d="m-553.16 866.34s1.9086 7.047 11.011 10.13c0 0-11.305-.73406-12.626-4.5512 0 0-.88088-5.2852 1.6149-5.5789z" style="fill:#2d110b;fill-rule:evenodd"/>
  <path d="m-490.77 805.12s3.5235 18.939-.44043 24.224c0 0-2.2022 1.7618-.88087 19.82 0 0-2.6426 4.2576-3.0831 5.432 0 0 8.6619-9.8364 8.8087-23.637z" style="fill:#331507;fill-rule:evenodd"/>
  <path d="m-499.28 868.98s-.73406 12.626 8.0747 17.177c-7.3823-2.6829-14.577-10.036-8.0747-17.177z" style="fill:#331507;fill-rule:evenodd"/>
  <path d="m-537.74 1193.3s1.661-29.483 3.7372-30.728c0 0 2.8623-4.5361.0729-11.143 0 0-1.6149-7.1938-.73406-8.0746.88087-.8809 5.5789-4.2576 5.5789-4.2576l-7.4874-.1468s0 7.9278.29363 12.332c0 0 2.2022 7.7811-.58726 12.332z" style="fill:#d76058;fill-rule:evenodd"/>
  <path d="m-512.64 953.1s11.451-.88088 14.975 2.9362c0 0-12.626.29365-14.975-2.9362z" style="fill:#e58d05;fill-rule:evenodd"/>
  <path d="m-498.71 950.19s6.2287 1.8686 10.381 2.2839c0 0-8.9278.62287-10.381-2.2839z" style="fill:#e58d05;fill-rule:evenodd"/>
  <path d="m-490.78 957.61s-2.0762 15.572 7.2668 17.233l-5.6058 3.322s-7.2668-18.271-1.661-20.555z" style="fill:#e58d05;fill-rule:evenodd"/>
  <path d="m-500.37 1035.5s10.796 2.0762 12.873 6.6439c0 0-11.835-2.6991-12.873-6.6439z" style="fill:#e69820;fill-rule:evenodd"/>
  <path d="m-528.4 949.15s.62287-15.987-7.8897-25.953c0 0-12.457-22.423-12.042-24.5 0 0 2.2839 15.676 8.0973 22.216 0 0 12.457 26.68 11.835 28.237z" style="fill:#891d1c;fill-rule:evenodd"/>
  <path d="m-526.88 924.18s15.511 29.746 7.2062 53.207" style="fill:none"/>
  <path d="m-550.1 888.94s2.0762-4.0487 3.0106-3.841c.9343.20762 8.0973 9.2393 10.693 11.523 0 0 11.835 9.6545 14.222 9.3431 0 0-24.396-12.976-27.925-17.025z" style="fill:#852113;fill-rule:evenodd"/>
  <path d="m-531.41 907.11s9.9659 4.1525 14.118 3.0106c0 0 6.8516-1.9724 7.3706 3.2182 0 0-.31144 7.0592-9.4469 3.4258 0 0-11.315-4.7754-12.042-9.6545z" style="fill:#a3221c;fill-rule:evenodd"/>
  <path d="m-501.51 900.36s-16.506 8.6164-20.762 5.502c0 0-7.0592.93431-7.7859 0-.72668-.93431 5.502 4.6715 11.523 3.1144 6.0211-1.5572 17.025-8.6164 17.025-8.6164z" style="fill:#891d1c;fill-rule:evenodd"/>
  <path d="m-516.77 899.12s-13.392 1.4534-21.593-9.9659c0 0 5.6058 14.222 21.8 10.277" style="fill:#af302a;fill-rule:evenodd"/>
  <path d="m-519.69 890.78s13.874-4.1107 13.433-10.35c0 0-2.716-.95428-3.083-1.4681-.36703-.51384-1.4681-3.9639-1.4681-3.9639s-.22023-2.1288 3.3767.51384c0 0 6.4597 3.8905 4.331 8.0013 0 0-12.039 9.5428-16.59 7.2672z" style="fill:#b22624;fill-rule:evenodd"/>
  <path d="m-506.62 878.74s-5.432 9.763-18.792 6.5331c0 0 10.57 6.9736 18.792-6.5331z" style="fill:#dc3834;fill-rule:evenodd"/>
  <path d="m-492.09 915.23s1.1745-12.332 1.7617-12.626c0 0 4.5512-1.3213 4.8448 8.0747 0 0-.58724 11.305-.29361 12.185 0 0 4.1107 22.169-2.9362 22.609 0 0-8.9556 3.9639-5.5789-13.654 0 0 2.349-15.562 2.2022-16.59z" style="fill:#e9393b;fill-rule:evenodd"/>
  <path d="m-517.78 834.77s-6.1661-2.6426-7.9279 1.4681c0 0-3.5235 1.6149-2.9362-.44043 0 0 4.2575-6.9002 10.864-1.0277z" style="fill-opacity:.92744;fill:#efbd82;fill-rule:evenodd"/>
  <path d="m-526.1 837.23c-2.0253.0783-1.775-.72422-2.7725-1.1597" style="stroke:#000;stroke-width:0.2;fill:none"/>
  <path d="m-515.11 839.32s-1.8167-3.0624-10.174-2.2839c0 0-2.2839.20763-2.2839-1.2457" style="stroke:#000;stroke-width:0.3;fill:none"/>
  <path d="m-501.49 835.8s3.083-2.7894 5.2852-.58725c0 0-2.349-5.8725-5.2852.58725z" style="fill-opacity:.92744;fill:#efbd82;fill-rule:evenodd"/>
  <path d="m-508.9 859.8c-2.4224 5.7991-7.8544 2.6426-7.8544 2.6426-.14684-3.3767-2.6426-4.2576-2.6426-4.2576s5.7991-.58725 6.1661-1.1745c0 0 1.3213-1.3947 2.7894.51384 0 0 1.3947-2.1288 3.3767-.29362z" style="fill:#da3b28;fill-rule:evenodd"/>
  <path d="m-517.71 858.78s8.1481-.0734 8.6619.14681c.51385.22022-1.4681.66065-1.982.51384-.51383-.14681-1.6149-.29362-1.9085-.29362-.29364 0-3.3767.51384-3.9639.14681-.58724-.36703-.80746-.51384-.80746-.51384z" style="fill:#f4c9c0;fill-rule:evenodd"/>
  <path d="m-514.49 860.08 3.7891.20762s-2.5434-.15572-2.9586.0519c-.41525.20762-.83049-.25953-.83049-.25953z" style="stroke:#444;stroke-width:0.1;fill:none"/>
  <path d="m-508.47 839.74s-1.2457 3.9448.72669 9.3431c0 0 1.2457 1.661-.51906 2.5953l-1.8686 1.661" style="stroke:#d59c67;stroke-width:.5;fill:none"/>
  <ellipse style="color-rendering:auto;color:#000000;isolation:auto;mix-blend-mode:normal;fill-rule:evenodd;shape-rendering:auto;solid-color:#000000;image-rendering:auto;fill:#be814b" rx=".80009" ry=".41525" cy="852.28" cx="-513.64"/>
  <circle style="color-rendering:auto;color:#000000;isolation:auto;mix-blend-mode:normal;fill-rule:evenodd;shape-rendering:auto;solid-color:#000000;image-rendering:auto;fill:#00060c" transform="scale(1,-1)" cy="-838.96" cx="-522.19" r="2.1288"/>
  <ellipse style="color-rendering:auto;color:#000000;isolation:auto;mix-blend-mode:normal;fill-rule:evenodd;shape-rendering:auto;solid-color:#000000;image-rendering:auto;filter:url(#b);fill:#f2f7f9" rx=".26517" transform="matrix(1.661 0 0 1.661 -595.38 785.81)" ry=".41984" cy="31.589" cx="44.947"/>
  <ellipse style="color-rendering:auto;color:#000000;isolation:auto;mix-blend-mode:normal;fill-rule:evenodd;shape-rendering:auto;solid-color:#000000;image-rendering:auto;filter:url(#c);fill:#f2f7f9" rx=".32112" transform="matrix(1.4214 -.85943 .85943 1.4214 -646.68 765.14)" ry=".50844" cy="76.815" cx="40.317"/>
  <ellipse style="color-rendering:auto;color:#000000;isolation:auto;mix-blend-mode:normal;fill-rule:evenodd;shape-rendering:auto;solid-color:#000000;image-rendering:auto;filter:url(#c);fill:#f2f7f9" rx=".32112" ry=".50844" transform="matrix(1.4214 -.85943 .85943 1.4214 -624.49 765.4)" cy="76.815" cx="40.317"/>
  <path d="m-482.14 911.39s.84808 4.4827 1.6962 4.4827c.84808 0 3.2712 3.8769 3.15 4.8462" style="fill-rule:evenodd;stroke:#daa656;stroke-width:.5;fill:#e58d05"/>
  <path d="m-415.43 911.25s9.3808-3.5497 9.502-3.1862c.12108.36346.2423 5.3913-1.2116 5.8154-1.4538.42404-8.9654.7875-9.5106-.54519-.54519-1.3327 1.2201-2.084 1.2201-2.084z" style="fill:#f7c087;fill-rule:evenodd"/>
  <path d="m-409.77 910.01s-3.0296-10.894-1.8847-11.394c2.5892-1.1317 4.9688 10.109 4.9688 10.109z" style="fill:#f7c087;fill-rule:evenodd"/>
  <path d="m-415.76 904.28s1.8028.11077 2.1517-.44306" style="stroke:#e79e50;stroke-width:0.1;fill:none"/>
  <path style="stroke:#e79e50;stroke-width:0.1;fill:none" d="m-415.16 908.03s1.8608.10123 2.221-.40498"/>
  <path style="stroke:#e79e50;stroke-width:0.1;fill:none" d="m-411.03 901.85s1.2086.0688 1.4425-.27505"/>
  <path d="m-410.05 906.41s1.555.0818 1.856-.32738" style="stroke:#e79e50;stroke-width:0.1;fill:none"/>
  <rect ry="1.2067" style="color-rendering:auto;color:#000000;isolation:auto;mix-blend-mode:normal;fill-rule:evenodd;shape-rendering:auto;solid-color:#000000;image-rendering:auto;fill:#fff" rx="3.7765" transform="matrix(.70232 .71186 -.72553 .68819 0 0)" height="23.213" width="11.599" y="1092.3" x="310.74"/>
  <rect style="color-rendering:auto;color:#000000;isolation:auto;mix-blend-mode:normal;fill-rule:evenodd;shape-rendering:auto;solid-color:#000000;image-rendering:auto;fill:#fff" transform="matrix(.80774 -.58954 .57355 .81917 0 0)" rx="3.7765" ry="1.2067" height="23.213" width="11.599" y="483.61" x="-946.51"/>
 </g>
</svg>
