<svg xmlns="http://www.w3.org/2000/svg" height="155.7mm" width="292.74mm" viewBox="0 0 1037.2801 551.6956"><style>.f{stroke:#bc8b00;stroke-width:1.5;fill:none}svg{font-family:sans-serif}.t{font-size:30px;fill:#ecca5b}.pf{marker-end:url(#e);stroke:#ff5d00;stroke-dasharray:4, 4;fill:none}.pe{marker-end:url(#b);stroke:#000;fill:none}.te{font-size:50px;fill:#ff5e00}</style><defs><marker id="f" refY="0" refX="0" style="overflow:visible" orient="auto"><path style="fill-rule:evenodd;stroke:#000;stroke-width:1pt" transform="matrix(-.8 0 0 -.8 -10 0)" d="m0 0 5-5-17.5 5 17.5 5-5-5z"/></marker><marker id="e" refY="0" refX="0" style="overflow:visible" orient="auto"><path d="m0 0 5-5-17.5 5 17.5 5-5-5z" style="fill-rule:evenodd;stroke:#ff5d00;stroke-width:1pt;fill:#ff5d00" transform="matrix(-.8 0 0 -.8 -10 0)"/></marker><marker id="b" refY="0" refX="0" style="overflow:visible" orient="auto"><path d="m0 0 5-5-17.5 5 17.5 5-5-5z" style="fill-rule:evenodd;stroke:#000;stroke-width:1pt" transform="matrix(-.8 0 0 -.8 -10 0)"/></marker></defs><g transform="translate(148.31 -194.59)"><text style="font-size:35px;fill:#ff5e00" y="221.1842" x="259.55951"><tspan x="259.55951" style="font-size:35px;fill:#ff5e00" y="221.1842">memchr(str, chr, 4)</tspan></text><text style="font-size:35px;fill:#de6a26" y="220.98767" x="140.03125"><tspan x="140.03125" style="font-size:35px;" y="220.98767">res =</tspan></text><rect style="opacity:.86694" height="29.303" width="41.227" y="519.7" x="-130.58"/><text style="font-size:30px;fill:#ecca5b" y="536.43469" x="-115.4194"><tspan x="-115.4194" y="536.43469">.</tspan></text><text class="te" y="365.93851" x="-150.86862"><tspan x="-150.86862" y="365.93851">chr</tspan></text><rect style="opacity:.86694" height="343.82" width="182.74" y="400.82" x="225.88"/><path class="f" d="m408.68 435.54h-182.86"/><path class="f" d="m408.68 474.4h-182.86"/><path class="f" d="m408.68 513.25h-182.86"/><path class="f" d="m408.68 552.11h-182.86"/><path class="f" d="m408.68 590.97h-182.86"/><path class="f" d="m408.68 629.82h-182.86"/><path class="f" d="m408.68 668.68h-182.86"/><path class="f" d="m408.68 707.54h-182.86"/><path class="f" d="m408.68 401.54h-182.86"/><path class="f" d="m408.68 745.54h-182.86"/><text class="t" y="429.42407" x="306.97284"><tspan x="306.97284" y="429.42407">A</tspan></text><text class="t" y="466.31024" x="306.77753"><tspan x="306.77753" y="466.31024">S</tspan></text><text class="t" y="505.19641" x="307.29022"><tspan x="307.29022" y="505.19641">P</tspan></text><text class="t" y="538.02887" x="310.96844"><tspan x="310.96844" y="538.02887">.</tspan></text><text class="t" y="582.2558" x="305.31268"><tspan x="305.31268" y="582.2558">N</tspan></text><text class="t" y="622.48285" x="307.20477"><tspan x="307.20477" y="622.48285">E</tspan><tspan x="307.20477" y="659.98285"/></text><text class="t" y="660.70978" x="308.65741"><tspan x="308.65741" y="660.70978">T</tspan></text><text class="t" y="696.02887" x="310.96844"><tspan x="310.96844" y="696.02887">.</tspan></text><text class="t" y="734.79376" x="299.49765"><tspan x="299.49765" y="734.79376">/0</tspan></text><text class="te" y="361.45853" x="262.50018"><tspan x="262.50018" y="361.45853">str[]</tspan></text><rect style="opacity:.86694" height="343.82" width="182.74" y="395.9" x="706.18"/><path class="f" d="m888.98 430.62h-182.86"/><path class="f" d="m888.98 469.48h-182.86"/><path class="f" d="m888.98 508.33h-182.86"/><path class="f" d="m888.98 547.19h-182.86"/><path class="f" d="m888.98 586.05h-182.86"/><path class="f" d="m888.98 624.9h-182.86"/><path class="f" d="m888.98 663.76h-182.86"/><path class="f" d="m888.98 702.62h-182.86"/><path class="f" d="m888.98 396.62h-182.86"/><path class="f" d="m888.98 740.62h-182.86"/><g transform="translate(-150.19)"><text class="t" y="417.10983" x="944.05469"><tspan y="417.10983" x="944.05469">.</tspan></text><text class="t" y="461.33682" x="938.39893"><tspan y="461.33682" x="938.39893">N</tspan></text><text class="t" y="501.56381" x="940.29102"><tspan y="501.56381" x="940.29102">E</tspan><tspan y="539.06384" x="940.29102"/></text><text class="t" y="539.79077" x="941.74365"><tspan y="539.79077" x="941.74365">T</tspan></text><text class="t" y="575.10986" x="944.05469"><tspan y="575.10986" x="944.05469">.</tspan></text><text class="t" y="613.87476" x="932.58386"><tspan y="613.87476" x="932.58386">/0</tspan></text></g><text class="te" y="360.93362" x="757.70276"><tspan x="757.70276" y="360.93362">res</tspan></text><path style="marker-end:url(#f);stroke:#000;stroke-width:1px;fill:none" d="m-89.568 534.29h309.18"/><path class="pf" d="m-89.403 534.95 305.08-41.08"/><path class="pf" d="m-90.025 535.26 304.04-77.52"/><path class="pf" d="m-91.488 535.06 309.53-116.9"/><path class="pe" d="m409.69 535.07 292.4-119.77"/><path class="pe" d="m406.54 727.06 292.41-115.5"/></g></svg>