<svg xmlns="http://www.w3.org/2000/svg" height="101.11mm" width="356.5mm" viewBox="0 0 1263.1981 358.26713"><style>svg{font-family:sans-serif}.f{font-size:30px;font-family:sans-serif;fill:#ecca5b}.p{stroke:#bc8b00;stroke-width:1.5;fill:none}.e{font-size:50px;fill:#ff5e00}</style><g transform="translate(860.72 -41.875)"><text style="font-size:35px;fill:#ff5e00" y="68.466919" x="-454.8049"><tspan x="-454.8049" y="68.466919">memcmp(str1, str2, 2)</tspan></text><text style="font-size:35px;fill:#de6a26" y="68.270386" x="-574.33319"><tspan x="-574.33319" y="68.270386">res =</tspan></text><text style="font-size:50px;fill:#ff5e00" y="333.22119" x="-865.23297"><tspan x="-865.23297" y="333.22119">res = </tspan></text><rect style="opacity:.86694" height="151.89" width="182.74" y="248.1" x="-488.48"/><path class="p" d="m-305.69 282.82h-182.86"/><path class="p" d="m-305.69 321.68h-182.86"/><path class="p" d="m-305.69 360.54h-182.86"/><path class="p" d="m-305.69 399.39h-182.86"/><path class="p" d="m-305.69 248.82h-182.86"/><text class="f" y="276.70679" x="-407.3696"><tspan x="-407.3696" y="276.70679">A</tspan></text><text class="f" y="313.59296" x="-408.27048"><tspan x="-408.27048" y="313.59296">B</tspan></text><text class="f" y="352.47913" x="-407.84567"><tspan x="-407.84567" y="352.47913">C</tspan></text><text class="f" y="390.31158" x="-413.00192"><tspan x="-413.00192" y="390.31158">\0</tspan></text><text class="e" y="208.74124" x="-441.86423"><tspan x="-441.86423" y="208.74124">str1</tspan></text><text class="e" y="208.21634" x="43.33839"><tspan x="43.33839" y="208.21634">str2</tspan></text><text class="e" y="351.22119" x="294.76697"><tspan x="294.76697" y="351.22119">= -1</tspan></text><rect style="opacity:.86694" height="151.89" width="182.74" y="248.1" x="-6.4846"/><path class="p" d="m176.31 282.82h-182.86"/><path class="p" d="m176.31 321.68h-182.86"/><path class="p" d="m176.31 360.54h-182.86"/><text class="f" y="390.31158" x="68.998055"><tspan x="68.998055" y="390.31158">\0</tspan></text><path class="p" d="m176.31 399.39h-182.86"/><path class="p" d="m176.31 248.82h-182.86"/><text class="f" y="276.70679" x="74.630379"><tspan x="74.630379" y="276.70679">A</tspan></text><text class="f" y="313.59296" x="74.974617"><tspan x="74.974617" y="313.59296">b</tspan></text><text class="f" y="352.47913" x="76.710457"><tspan x="76.710457" y="352.47913">c</tspan></text></g></svg>