<svg xmlns:rdf="http://www.w3.org/1999/02/22-rdf-syntax-ns#" xmlns="http://www.w3.org/2000/svg" height="97.893mm" width="178.36mm" version="1.1" xmlns:cc="http://creativecommons.org/ns#" xmlns:dc="http://purl.org/dc/elements/1.1/" viewBox="0 0 631.98333 346.86432">
 <path style="stroke:#5e6b7d;stroke-width:2;fill:none" d="m308.43 294.14s26.81 19.632 21.96 30.578"/>
 <path style="stroke:#f92d2d;stroke-width:2;fill:none" d="m294.03 294.08s-32.627 6.2992-32.917 18.268"/>
 <path d="m294.03 294.08s-32.627 6.2992-32.917 18.268" style="stroke:#5e6b7d;stroke-width:2;fill:none"/>
 <path style="stroke:#5e6b7d;stroke-width:2;fill:#ffa200;fill-rule:evenodd" d="m285.54 331.47s-.2579 11.609-2.0632 12.125"/>
 <text style="letter-spacing:0px;font-weight:100;font-size:150.82px;word-spacing:0px;font-family:&apos;AR CENA&apos;;line-height:125%;fill:#5e6b7d" y="330.74451" x="276.48978" xml:space="preserve"><tspan y="330.74451" x="276.48978">x</tspan></text>
 <path style="stroke:#5e6b7d;stroke-width:2;fill-rule:evenodd" d="m277.39 343.87s1.0132-.973 6.5251-1.2568c0 0 .48634 1.7028-.16215 1.9055-.64846.20271-6.2009 1.6217-6.6062 1.2974-.40528-.32433-.77002-1.5.24318-1.946z"/>
 <path style="stroke:#5e6b7d;stroke-width:2;fill:#ffa200;fill-rule:evenodd" d="m318.63 327.21s.2579 11.609 2.0632 12.125"/>
 <path style="stroke:#5e6b7d;stroke-width:2;fill-rule:evenodd" d="m326.78 339.61s-1.0132-.973-6.5251-1.2568c0 0-.48634 1.7028.16216 1.9055.64846.20272 6.2009 1.6217 6.6062 1.2974.40527-.32433.77001-1.5-.24319-1.946z"/>
 <path style="stroke:#f2f2f2;stroke-width:.5;fill:#f2f2f2;fill-rule:evenodd" d="m286.84 282.39s6.3716-5.7242 10.155.58945c0 0-5.018-1.0718-10.155-.58945z"/>
 <ellipse style="stroke-linejoin:bevel;color-rendering:auto;fill-rule:evenodd;color:#000000;isolation:auto;mix-blend-mode:normal;shape-rendering:auto;solid-color:#000000;stroke:#f2f2f2;stroke-linecap:square;image-rendering:auto;stroke-width:.5;fill:#f2f2f2" rx="1.9347" ry="2.0356" cy="270.72" cx="283.1"/>
 <ellipse style="stroke-linejoin:bevel;color-rendering:auto;fill-rule:evenodd;color:#000000;isolation:auto;mix-blend-mode:normal;shape-rendering:auto;solid-color:#000000;stroke:#f2f2f2;stroke-linecap:square;image-rendering:auto;stroke-width:.5;fill:#f2f2f2" rx="1.9347" ry="2.0356" cy="270.72" cx="291.35"/>
 <ellipse style="color-rendering:auto;fill-rule:evenodd;color:#000000;isolation:auto;mix-blend-mode:normal;shape-rendering:auto;solid-color:#000000;image-rendering:auto;fill:#1a1a1a" rx="1.2653" ry="1.3521" cy="271.47" cx="291.35"/>
 <ellipse style="color-rendering:auto;fill-rule:evenodd;color:#000000;isolation:auto;mix-blend-mode:normal;shape-rendering:auto;solid-color:#000000;image-rendering:auto;fill:#1a1a1a" rx="1.2653" ry="1.3521" cy="271.15" cx="283.09"/>
 <path style="stroke:#000;stroke-width:0.3;fill:none" d="m280.61 268.04s1.9702-.79828 4.433-.50526"/>
 <path style="stroke:#000;stroke-width:0.3;fill:none" d="m292.92 267.9s-1.8077-.9043-3.6721-.50524"/>
 <path style="color-rendering:auto;fill-rule:evenodd;color:#000000;isolation:auto;mix-blend-mode:normal;shape-rendering:auto;solid-color:#000000;image-rendering:auto;fill:#5e6b7d" d="m310.43 219.26h93.472v23.546h-88.803l-18.006 16.825 13.337-19.162z"/>
 <text style="letter-spacing:0px;font-weight:100;font-size:22.218px;word-spacing:0px;font-family:&apos;AR CENA&apos;;line-height:125%;fill:#ffffff" y="238.16478" x="315.08963" xml:space="preserve"><tspan y="238.16478" x="315.08963">Impossible!</tspan></text>
 <g transform="translate(5.6659)">
  <path style="stroke:#f92d2d;stroke-width:2;fill:#ffa200;fill-rule:evenodd" d="m163.1 96.651s-.35862 16.143-2.8689 16.861"/>
  <path style="stroke:#f92d2d;stroke-width:2;fill-rule:evenodd" d="m151.76 113.89s1.4089-1.353 9.0735-1.7477c0 0 .67629 2.3678-.22548 2.6497-.90172.28188-8.6227 2.255-9.1862 1.804-.56356-.451-1.0708-2.0859.33816-2.706z"/>
  <path style="stroke:#f92d2d;stroke-width:2;fill:#ffa200;fill-rule:evenodd" d="m172.96 96.291s.35863 16.143 2.8689 16.861"/>
  <path style="stroke:#f92d2d;stroke-width:2;fill-rule:evenodd" d="m184.29 113.53s-1.4089-1.353-9.0735-1.7477c0 0-.67628 2.3678.22549 2.6497.90172.28189 8.6227 2.255 9.1862 1.804.56355-.451 1.0708-2.0859-.33816-2.706z"/>
  <path style="stroke:#f92d2d;stroke-width:2;fill:none" d="m188.03 42.081s-32.627 6.2992-32.917 18.268"/>
  <path style="stroke:#000;stroke-width:2;fill:none" d="m155.4 60.371 3.2724 3.2333"/>
  <path style="stroke:#000;stroke-width:2;fill:none" d="m155.52 59.631-.76351 5.293"/>
  <text style="letter-spacing:0px;font-weight:100;font-size:147.98px;word-spacing:0px;font-family:&apos;AR CENA&apos;;line-height:125%;fill:#f92d2d" y="104.87045" x="151.26166" xml:space="preserve"><tspan y="104.87045" x="151.26166">?</tspan></text>
  <path style="stroke:#f92d2d;stroke-width:2;fill:none" d="m189.74 37.761s18.609 27.53 10.348 36.196"/>
  <path style="stroke:#000;stroke-width:2;fill:none" d="m200.32 74.021-5.375-.25008"/>
  <path style="stroke:#000;stroke-width:2;fill:none" d="m200.72 73.361-3.4426 4.9615"/>
  <path style="stroke:#000;stroke-width:2;fill:none" d="m200.54 74.041 2.0043 4.9806"/>
  <path style="stroke:#f2f2f2;stroke-width:.5;fill:#f2f2f2;fill-rule:evenodd" d="m199.7 29.771s8.0347-4.658 13.626 1.6451c0 0-6.4825-2.3158-13.626-1.6451z"/>
  <ellipse style="stroke-linejoin:bevel;color-rendering:auto;fill-rule:evenodd;color:#000000;isolation:auto;mix-blend-mode:normal;shape-rendering:auto;solid-color:#000000;stroke:#f2f2f2;stroke-linecap:square;image-rendering:auto;stroke-width:.5;fill:#f2f2f2" rx="2.6904" ry="2.8306" cy="15.851" cx="200.96"/>
  <ellipse style="stroke-linejoin:bevel;color-rendering:auto;fill-rule:evenodd;color:#000000;isolation:auto;mix-blend-mode:normal;shape-rendering:auto;solid-color:#000000;stroke:#f2f2f2;stroke-linecap:square;image-rendering:auto;stroke-width:.5;fill:#f2f2f2" rx="2.6904" ry="2.8306" cy="15.851" cx="212.43"/>
  <ellipse style="color-rendering:auto;fill-rule:evenodd;color:#000000;isolation:auto;mix-blend-mode:normal;shape-rendering:auto;solid-color:#000000;image-rendering:auto;fill:#1a1a1a" rx="1.1415" ry="1.2199" cy="16.891" cx="212.43"/>
  <ellipse style="color-rendering:auto;fill-rule:evenodd;color:#000000;isolation:auto;mix-blend-mode:normal;shape-rendering:auto;solid-color:#000000;image-rendering:auto;fill:#1a1a1a" rx="1.1415" ry="1.2199" cy="16.441" cx="201.1"/>
  <path style="stroke:#000;stroke-width:0.3;fill:none" d="m197.49 12.121s2.7397-1.1101 6.1644-.7026"/>
  <path style="stroke:#000;stroke-width:0.3;fill:none" d="m214.61 11.931s-2.5137-1.2575-5.1062-.70257"/>
  <path style="stroke:#000;stroke-width:2;fill:none" d="m155.26 60.251-3.9693 1.7712"/>
 </g>
 <text style="letter-spacing:0px;font-weight:100;font-size:108px;word-spacing:0px;font-family:&apos;AR CENA&apos;;line-height:125%;fill:#333333" y="84.535652" x="417.23367" xml:space="preserve"><tspan y="84.535652" x="417.23367">=</tspan></text>
 <path style="stroke:#000;stroke-width:2;fill:none" d="m261.4 312.37 3.2724 3.2333"/>
 <path style="stroke:#000;stroke-width:2;fill:none" d="m261.52 311.63-.76351 5.293"/>
 <path style="stroke:#000;stroke-width:2;fill:none" d="m330.63 324.7-5.1439 1.5792"/>
 <path style="stroke:#000;stroke-width:2;fill:none" d="m330.79 323.95-1.5655 5.8324"/>
 <path style="stroke:#000;stroke-width:2;fill:none" d="m330.85 324.65 3.568 4.0116"/>
 <path style="stroke:#000;stroke-width:2;fill:none" d="m261.26 312.25-3.9693 1.7712"/>
 <path d="m261.4 312.37 3.2724 3.2333" style="stroke:#000;stroke-width:2;fill:none"/>
 <path d="m261.52 311.63-.76351 5.293" style="stroke:#000;stroke-width:2;fill:none"/>
 <path d="m330.63 324.7-5.1439 1.5792" style="stroke:#000;stroke-width:2;fill:none"/>
 <path d="m330.79 323.95-1.5655 5.8324" style="stroke:#000;stroke-width:2;fill:none"/>
 <path d="m330.85 324.65 3.568 4.0116" style="stroke:#000;stroke-width:2;fill:none"/>
 <path d="m261.26 312.25-3.9693 1.7712" style="stroke:#000;stroke-width:2;fill:none"/>
 <g transform="matrix(2.3644 0 0 2.3655 -748.48 -1100.9)">
  <text style="font-size:60px;font-weight:100;fill-opacity:.73502;letter-spacing:0px;line-height:125%;word-spacing:0px;font-family:&apos;AR CENA&apos;;fill:#ffcf00" xml:space="preserve" y="504.18466" x="328.10071"><tspan x="328.10071" y="504.18466">3</tspan></text>
  <path d="m339.07 503.86s-.13646 9.3979-1.0916 9.8156" style="fill-rule:evenodd;stroke:#ffcf00;stroke-width:.42284px;fill:#ffa200"/>
  <path d="m334.76 513.9s.5361-.78767 3.4525-1.0174c0 0 .25733 1.3784-.0858 1.5425-.34311.1641-3.281 1.3128-3.4954 1.0502-.21444-.26255-.40743-1.2143.12867-1.5754z" style="fill-rule:evenodd;stroke:#ffcf00;stroke-width:.42284px"/>
  <path style="fill-rule:evenodd;stroke:#ffcf00;stroke-width:.42284px;fill:#ffa200" d="m345.87 502.9s.13646 9.3979 1.0916 9.8155"/>
  <path style="fill-rule:evenodd;stroke:#ffcf00;stroke-width:.42284px" d="m350.18 512.94s-.5361-.78767-3.4525-1.0174c0 0-.25733 1.3784.0858 1.5425.34311.16409 3.281 1.3128 3.4954 1.0502.21444-.26255.40743-1.2143-.12867-1.5754z"/>
  <path style="stroke:#ffcf00;stroke-width:.42284px;fill:none" d="m349.7 486.59s18.003 1.7449 5.381 9.2411"/>
  <path d="m336.47 486.59s-12.643.18869-13.681-4.2457" style="stroke:#ffcf00;stroke-width:.42284px;fill:none"/>
  <path style="stroke:#000;stroke-width:.42284px;fill:none" d="m355.15 496.08.57753 1.9638"/>
  <text style="font-size:60px;font-weight:100;letter-spacing:0px;line-height:125%;word-spacing:0px;font-family:&apos;AR CENA&apos;;fill:#ffcf00" y="504.18466" x="326.10071" xml:space="preserve"><tspan y="504.18466" x="326.10071">3</tspan></text>
  <path style="fill-rule:evenodd;stroke:#f2f2f2;stroke-width:.21142;fill:#f2f2f2" d="m350.58 478.62s3.0082.7838 4.0298-1.3437c0 0-1.1127 1.3236-4.0298 1.3437z"/>
  <path d="m322.89 482.31.96769-1.4582" style="stroke:#000;stroke-width:.42284px;fill:none"/>
  <path style="stroke:#000;stroke-width:.42284px;fill:none" d="m322.99 482.58-.69567-1.9116"/>
  <path d="m322.85 482.37-1.6161-.35121" style="stroke:#000;stroke-width:.42284px;fill:none"/>
  <path d="m355.58 495.93-1.7361 1.646" style="stroke:#000;stroke-width:.42284px;fill:none"/>
  <path style="stroke:#000;stroke-width:.42284px;fill:none" d="m355.13 496-2.0219-.2917"/>
  <ellipse style="stroke-linejoin:bevel;color-rendering:auto;color:#000000;shape-rendering:auto;solid-color:#000000;stroke:#f2f2f2;stroke-linecap:square;stroke-width:.21142;fill:#f2f2f2;fill-rule:evenodd;mix-blend-mode:normal;image-rendering:auto;isolation:auto" rx=".81325" ry=".85536" cy="472.84" cx="350.68"/>
  <ellipse style="stroke-linejoin:bevel;color-rendering:auto;color:#000000;shape-rendering:auto;solid-color:#000000;stroke:#f2f2f2;stroke-linecap:square;stroke-width:.21142;fill:#f2f2f2;fill-rule:evenodd;mix-blend-mode:normal;image-rendering:auto;isolation:auto" rx=".81325" ry=".85536" cy="472.84" cx="354.15"/>
  <ellipse style="color-rendering:auto;color:#000000;isolation:auto;mix-blend-mode:normal;fill-rule:evenodd;shape-rendering:auto;solid-color:#000000;image-rendering:auto;fill:#1a1a1a" rx=".34506" ry=".36863" cy="473.05" cx="354.72"/>
  <ellipse style="color-rendering:auto;color:#000000;isolation:auto;mix-blend-mode:normal;fill-rule:evenodd;shape-rendering:auto;solid-color:#000000;image-rendering:auto;fill:#1a1a1a" rx=".34506" ry=".36863" cy="473.19" cx="351.17"/>
  <path d="m349.83 471.46s.87273-.82555 1.8634-.21231" style="stroke:#000;stroke-width:.12685;fill:none"/>
  <path style="stroke:#000;stroke-width:.12685;fill:none" d="m355.65 471.44s-.87273-.82555-1.8634-.21231"/>
 </g>
 <g transform="matrix(2.3644 0 0 2.3655 -483.3 -1100.9)">
  <text style="font-size:60px;font-weight:100;fill-opacity:.73502;letter-spacing:0px;line-height:125%;word-spacing:0px;font-family:&apos;AR CENA&apos;;fill:#ffcf00" y="504.18466" x="328.10071" xml:space="preserve"><tspan y="504.18466" x="328.10071">3</tspan></text>
  <path style="fill-rule:evenodd;stroke:#ffcf00;stroke-width:.42284px;fill:#ffa200" d="m339.07 503.86s-.13646 9.3979-1.0916 9.8156"/>
  <path style="fill-rule:evenodd;stroke:#ffcf00;stroke-width:.42284px" d="m334.76 513.9s.5361-.78767 3.4525-1.0174c0 0 .25733 1.3784-.0858 1.5425-.34311.1641-3.281 1.3128-3.4954 1.0502-.21444-.26255-.40743-1.2143.12867-1.5754z"/>
  <path d="m345.87 502.9s.13646 9.3979 1.0916 9.8155" style="fill-rule:evenodd;stroke:#ffcf00;stroke-width:.42284px;fill:#ffa200"/>
  <path d="m350.18 512.94s-.5361-.78767-3.4525-1.0174c0 0-.25733 1.3784.0858 1.5425.34311.16409 3.281 1.3128 3.4954 1.0502.21444-.26255.40743-1.2143-.12867-1.5754z" style="fill-rule:evenodd;stroke:#ffcf00;stroke-width:.42284px"/>
  <path d="m349.7 486.59s18.003 1.7449 5.381 9.2411" style="stroke:#ffcf00;stroke-width:.42284px;fill:none"/>
  <path style="stroke:#ffcf00;stroke-width:.42284px;fill:none" d="m336.47 486.59s-12.643.18869-13.681-4.2457"/>
  <path d="m355.15 496.08.57753 1.9638" style="stroke:#000;stroke-width:.42284px;fill:none"/>
  <text style="font-size:60px;font-weight:100;letter-spacing:0px;line-height:125%;word-spacing:0px;font-family:&apos;AR CENA&apos;;fill:#ffcf00" xml:space="preserve" y="504.18466" x="326.10071"><tspan x="326.10071" y="504.18466">3</tspan></text>
  <path d="m350.58 478.62s3.0082.7838 4.0298-1.3437c0 0-1.1127 1.3236-4.0298 1.3437z" style="fill-rule:evenodd;stroke:#f2f2f2;stroke-width:.21142;fill:#f2f2f2"/>
  <path style="stroke:#000;stroke-width:.42284px;fill:none" d="m322.89 482.31.96769-1.4582"/>
  <path d="m322.99 482.58-.69567-1.9116" style="stroke:#000;stroke-width:.42284px;fill:none"/>
  <path style="stroke:#000;stroke-width:.42284px;fill:none" d="m322.85 482.37-1.6161-.35121"/>
  <path style="stroke:#000;stroke-width:.42284px;fill:none" d="m355.58 495.93-1.7361 1.646"/>
  <path d="m355.13 496-2.0219-.2917" style="stroke:#000;stroke-width:.42284px;fill:none"/>
  <ellipse style="stroke-linejoin:bevel;color-rendering:auto;color:#000000;shape-rendering:auto;solid-color:#000000;stroke:#f2f2f2;stroke-linecap:square;stroke-width:.21142;fill:#f2f2f2;fill-rule:evenodd;mix-blend-mode:normal;image-rendering:auto;isolation:auto" rx=".81325" ry=".85536" cy="472.84" cx="350.68"/>
  <ellipse style="stroke-linejoin:bevel;color-rendering:auto;color:#000000;shape-rendering:auto;solid-color:#000000;stroke:#f2f2f2;stroke-linecap:square;stroke-width:.21142;fill:#f2f2f2;fill-rule:evenodd;mix-blend-mode:normal;image-rendering:auto;isolation:auto" rx=".81325" ry=".85536" cy="472.84" cx="354.15"/>
  <ellipse style="color-rendering:auto;color:#000000;isolation:auto;mix-blend-mode:normal;fill-rule:evenodd;shape-rendering:auto;solid-color:#000000;image-rendering:auto;fill:#1a1a1a" rx=".34506" ry=".36863" cy="473.05" cx="354.72"/>
  <ellipse style="color-rendering:auto;color:#000000;isolation:auto;mix-blend-mode:normal;fill-rule:evenodd;shape-rendering:auto;solid-color:#000000;image-rendering:auto;fill:#1a1a1a" rx=".34506" ry=".36863" cy="473.19" cx="351.17"/>
  <path style="stroke:#000;stroke-width:.12685;fill:none" d="m349.83 471.46s.87273-.82555 1.8634-.21231"/>
  <path d="m355.65 471.44s-.87273-.82555-1.8634-.21231" style="stroke:#000;stroke-width:.12685;fill:none"/>
 </g>
 <g transform="matrix(2.3644 0 0 2.3655 -490.46 -1279)">
  <path style="fill-rule:evenodd;stroke:#d750ed;stroke-width:.42284px;fill:#ffa200" d="m456.35 579.57s-.13646 9.3979-1.0916 9.8156"/>
  <path style="fill-rule:evenodd;stroke:#d750ed;stroke-width:.42284px" d="m452.04 589.6s.5361-.78767 3.4525-1.0174c0 0 .25733 1.3784-.0858 1.5425-.34311.1641-3.281 1.3128-3.4954 1.0502-.21444-.26255-.40743-1.2143.12867-1.5754z"/>
  <path d="m460.29 579.54s.13646 9.3979 1.0916 9.8155" style="fill-rule:evenodd;stroke:#d750ed;stroke-width:.42284px;fill:#ffa200"/>
  <path d="m464.61 589.57s-.5361-.78767-3.4525-1.0174c0 0-.25733 1.3784.0858 1.5425.34311.16409 3.281 1.3128 3.4954 1.0502.21444-.26255.40743-1.2143-.12867-1.5754z" style="fill-rule:evenodd;stroke:#d750ed;stroke-width:.42284px"/>
  <text style="font-size:60px;font-weight:100;letter-spacing:0px;line-height:125%;word-spacing:0px;font-family:&apos;AR CENA&apos;;fill:#d38dde" xml:space="preserve" y="581.49023" x="435.45172"><tspan x="435.45172" y="581.49023">9</tspan></text>
  <text style="font-size:60px;font-weight:100;letter-spacing:0px;line-height:125%;word-spacing:0px;font-family:&apos;AR CENA&apos;;fill:#d750ed" y="581.49023" x="433.45172" xml:space="preserve"><tspan y="581.49023" x="433.45172">9</tspan></text>
  <path d="m461.43 562.94s11.173-7.3012 6.2902-12.999" style="fill-opacity:0;stroke:#d750ed;stroke-width:.42284px"/>
  <path d="m467.64 550.01-1.7471-.10183" style="stroke:#000;stroke-width:.42284px;fill:none"/>
  <ellipse style="stroke-linejoin:bevel;color-rendering:auto;color:#000000;shape-rendering:auto;solid-color:#000000;stroke:#f2f2f2;stroke-linecap:square;stroke-width:.21142;fill:#f2f2f2;fill-rule:evenodd;mix-blend-mode:normal;image-rendering:auto;isolation:auto" rx=".81325" ry=".85536" cy="549.22" cx="457.51"/>
  <ellipse style="stroke-linejoin:bevel;color-rendering:auto;color:#000000;shape-rendering:auto;solid-color:#000000;stroke:#f2f2f2;stroke-linecap:square;stroke-width:.21142;fill:#f2f2f2;fill-rule:evenodd;mix-blend-mode:normal;image-rendering:auto;isolation:auto" rx=".81325" ry=".85536" cy="549.16" cx="462.26"/>
  <ellipse style="color-rendering:auto;color:#000000;isolation:auto;mix-blend-mode:normal;fill-rule:evenodd;shape-rendering:auto;solid-color:#000000;image-rendering:auto;fill:#1a1a1a" rx=".34506" ry=".36863" cy="549.28" cx="462.23"/>
  <ellipse style="color-rendering:auto;color:#000000;isolation:auto;mix-blend-mode:normal;fill-rule:evenodd;shape-rendering:auto;solid-color:#000000;image-rendering:auto;fill:#1a1a1a" rx=".34506" ry=".36863" cy="549.31" cx="457.48"/>
  <path d="m463.74 548.34s-1.1428-1.9232-2.4401-.49459" style="stroke:#000;stroke-width:.12685;fill:none"/>
  <path style="stroke:#000;stroke-width:.12685;fill:none" d="m456.22 548.46s1.1428-1.7236 2.4401-.44327"/>
  <path d="m457.54 553.54s2.8261 1.2551 4.3515.40352c0 0-2.0643-.1193-4.3515-.40352z" style="fill-rule:evenodd;stroke:#f2f2f2;stroke-width:.21142;fill:#f2f2f2"/>
  <path style="stroke:#000;stroke-width:.42284px;fill:none" d="m467.79 550.25-1.1108-1.7042"/>
  <path d="m467.71 550.01.68965-1.5032" style="stroke:#000;stroke-width:.42284px;fill:none"/>
  <path style="fill-opacity:0;stroke:#d750ed;stroke-width:.42284px" d="m437.24 564.43s-10.133-7.5634-8.2496-11.71"/>
  <path style="stroke:#000;stroke-width:.42284px;fill:none" d="m429.09 552.76 1.6563-.56502"/>
  <path d="m429.01 553.04.61501-1.9391" style="stroke:#000;stroke-width:.42284px;fill:none"/>
  <path style="stroke:#000;stroke-width:.42284px;fill:none" d="m429.02 552.78-1.0663-1.2642"/>
 </g>
</svg>
