<svg xmlns:rdf="http://www.w3.org/1999/02/22-rdf-syntax-ns#" xmlns="http://www.w3.org/2000/svg" height="314.11mm" width="429.57mm" version="1.1" xmlns:cc="http://creativecommons.org/ns#" xmlns:dc="http://purl.org/dc/elements/1.1/" viewBox="0 0 1522.1045 1112.992">
 <defs>
  <marker id="b" refY="0" refX="0" style="overflow:visible" orient="auto">
   <path d="m8.7186 4.0337-10.926-4.0177 10.926-4.0177c-1.7455 2.3721-1.7354 5.6175-6e-7 8.0354z" style="stroke-linejoin:round;stroke-opacity:.96078;fill-rule:evenodd;stroke:#696969;stroke-width:.625;fill:#f7df79" transform="matrix(-1.1,0,0,-1.1,-1.1,0)"/>
  </marker>
  <marker id="c" refY="0" refX="0" style="overflow:visible" orient="auto">
   <path style="stroke-linejoin:round;stroke-opacity:.96078;fill-rule:evenodd;stroke:#696969;stroke-width:.625;fill:#f7df79" transform="matrix(-1.1,0,0,-1.1,-1.1,0)" d="m8.7186 4.0337-10.926-4.0177 10.926-4.0177c-1.7455 2.3721-1.7354 5.6175-6e-7 8.0354z"/>
  </marker>
  <marker id="d" refY="0" refX="0" style="overflow:visible" orient="auto">
   <path style="stroke-linejoin:round;stroke-opacity:.96078;fill-rule:evenodd;stroke:#696969;stroke-width:.625;fill:#f7df79" transform="matrix(-1.1,0,0,-1.1,-1.1,0)" d="m8.7186 4.0337-10.926-4.0177 10.926-4.0177c-1.7455 2.3721-1.7354 5.6175-6e-7 8.0354z"/>
  </marker>
  <marker id="e" refY="0" refX="0" style="overflow:visible" orient="auto">
   <path style="stroke-linejoin:round;stroke-opacity:.96078;fill-rule:evenodd;stroke:#696969;stroke-width:.625;fill:#f7df79" transform="matrix(-1.1,0,0,-1.1,-1.1,0)" d="m8.7186 4.0337-10.926-4.0177 10.926-4.0177c-1.7455 2.3721-1.7354 5.6175-6e-7 8.0354z"/>
  </marker>
  <marker id="f" refY="0" refX="0" style="overflow:visible" orient="auto">
   <path d="m8.7186 4.0337-10.926-4.0177 10.926-4.0177c-1.7455 2.3721-1.7354 5.6175-6e-7 8.0354z" style="stroke-linejoin:round;stroke-opacity:.96078;fill-rule:evenodd;stroke:#696969;stroke-width:.625;fill:#f7df79" transform="matrix(-1.1,0,0,-1.1,-1.1,0)"/>
  </marker>
  <marker id="g" refY="0" refX="0" style="overflow:visible" orient="auto">
   <path style="stroke-linejoin:round;stroke-opacity:.96078;fill-rule:evenodd;stroke:#696969;stroke-width:.625;fill:#f7df79" transform="matrix(-1.1,0,0,-1.1,-1.1,0)" d="m8.7186 4.0337-10.926-4.0177 10.926-4.0177c-1.7455 2.3721-1.7354 5.6175-6e-7 8.0354z"/>
  </marker>
  <marker id="h" refY="0" refX="0" style="overflow:visible" orient="auto">
   <path d="m8.7186 4.0337-10.926-4.0177 10.926-4.0177c-1.7455 2.3721-1.7354 5.6175-6e-7 8.0354z" style="stroke-linejoin:round;stroke-opacity:.96078;fill-rule:evenodd;stroke:#696969;stroke-width:.625;fill:#f7df79" transform="matrix(-1.1,0,0,-1.1,-1.1,0)"/>
  </marker>
  <marker id="i" refY="0" refX="0" style="overflow:visible" orient="auto">
   <path style="stroke-linejoin:round;stroke-opacity:.96078;fill-rule:evenodd;stroke:#696969;stroke-width:.625;fill:#f7df79" transform="matrix(-1.1,0,0,-1.1,-1.1,0)" d="m8.7186 4.0337-10.926-4.0177 10.926-4.0177c-1.7455 2.3721-1.7354 5.6175-6e-7 8.0354z"/>
  </marker>
  <marker id="j" refY="0" refX="0" style="overflow:visible" orient="auto">
   <path d="m8.7186 4.0337-10.926-4.0177 10.926-4.0177c-1.7455 2.3721-1.7354 5.6175-6e-7 8.0354z" style="stroke-linejoin:round;stroke-opacity:.96078;fill-rule:evenodd;stroke:#696969;stroke-width:.625;fill:#f7df79" transform="matrix(-1.1,0,0,-1.1,-1.1,0)"/>
  </marker>
  <marker id="a" refY="0" refX="0" style="overflow:visible" orient="auto">
   <path style="stroke-linejoin:round;stroke-opacity:.96078;fill-rule:evenodd;stroke:#696969;stroke-width:.625;fill:#f7df79" transform="matrix(-1.1,0,0,-1.1,-1.1,0)" d="m8.7186 4.0337-10.926-4.0177 10.926-4.0177c-1.7455 2.3721-1.7354 5.6175-6e-7 8.0354z"/>
  </marker>
  <marker id="k" refY="0" refX="0" style="overflow:visible" orient="auto">
   <path d="m8.7186 4.0337-10.926-4.0177 10.926-4.0177c-1.7455 2.3721-1.7354 5.6175-6e-7 8.0354z" style="stroke-linejoin:round;stroke-opacity:.96078;fill-rule:evenodd;stroke:#696969;stroke-width:.625;fill:#f7df79" transform="matrix(-1.1,0,0,-1.1,-1.1,0)"/>
  </marker>
  <marker id="l" refY="0" refX="0" style="overflow:visible" orient="auto">
   <path style="stroke-linejoin:round;stroke-opacity:.96078;fill-rule:evenodd;stroke:#696969;stroke-width:.625;fill:#f7df79" transform="matrix(-1.1,0,0,-1.1,-1.1,0)" d="m8.7186 4.0337-10.926-4.0177 10.926-4.0177c-1.7455 2.3721-1.7354 5.6175-6e-7 8.0354z"/>
  </marker>
  <marker id="m" refY="0" refX="0" style="overflow:visible" orient="auto">
   <path d="m8.7186 4.0337-10.926-4.0177 10.926-4.0177c-1.7455 2.3721-1.7354 5.6175-6e-7 8.0354z" style="stroke-linejoin:round;stroke-opacity:.96078;fill-rule:evenodd;stroke:#696969;stroke-width:.625;fill:#f7df79" transform="matrix(-1.1,0,0,-1.1,-1.1,0)"/>
  </marker>
  <marker id="n" refY="0" refX="0" style="overflow:visible" orient="auto">
   <path style="stroke-linejoin:round;stroke-opacity:.96078;fill-rule:evenodd;stroke:#696969;stroke-width:.625;fill:#f7df79" transform="matrix(-1.1,0,0,-1.1,-1.1,0)" d="m8.7186 4.0337-10.926-4.0177 10.926-4.0177c-1.7455 2.3721-1.7354 5.6175-6e-7 8.0354z"/>
  </marker>
 </defs>
 <g transform="translate(151.99 47.002)">
  <rect style="stroke-linejoin:round;color-rendering:auto;color:#000000;shape-rendering:auto;solid-color:#000000;stroke:#696969;stroke-linecap:round;stroke-width:3.0925;fill:#fff987;fill-rule:evenodd;mix-blend-mode:normal;image-rendering:auto;isolation:auto" transform="matrix(.81797 .57526 -.81797 .57526 0 0)" rx="0" ry="0" height="133.86" width="133.86" y="-56.52" x="275.61"/>
  <rect style="stroke-linejoin:round;color-rendering:auto;color:#000000;shape-rendering:auto;solid-color:#000000;stroke:#696969;stroke-linecap:round;stroke-width:3;fill:#ffa27b;fill-rule:evenodd;mix-blend-mode:normal;image-rendering:auto;isolation:auto" rx="23.964" ry="31.996" height="63.992" width="194.6" y="1000.5" x="-143.13"/>
  <rect style="stroke-linejoin:round;color-rendering:auto;color:#000000;shape-rendering:auto;solid-color:#000000;stroke:#696969;stroke-linecap:round;stroke-width:3;fill:#e0ff87;fill-rule:evenodd;mix-blend-mode:normal;image-rendering:auto;isolation:auto" rx="23.964" ry="31.996" height="63.992" width="194.6" y="-45.502" x="174.37"/>
  <text style="letter-spacing:0px;font-size:17.5px;word-spacing:0px;font-family:sans-serif;line-height:125%;fill:#ffffff" xml:space="preserve" y="-0.78263688" x="214.39001"><tspan x="214.39001" style="font-size:35px;fill:#ffffff" y="-0.78263688">START</tspan></text>
  <text style="letter-spacing:0px;font-size:17.5px;word-spacing:0px;font-family:sans-serif;line-height:125%;fill:#ffffff" y="1045.2175" x="-93.127533" xml:space="preserve"><tspan y="1045.2175" x="-93.127533" style="font-size:35px;fill:#ffffff">STOP</tspan></text>
  <text style="letter-spacing:0px;font-size:17.5px;word-spacing:0px;font-family:sans-serif;line-height:125%;fill:#000000" xml:space="preserve" y="-0.78263688" x="214.39001"><tspan x="214.39001" style="font-size:35px" y="-0.78263688">START</tspan></text>
  <text style="letter-spacing:0px;font-size:17.5px;word-spacing:0px;font-family:sans-serif;line-height:125%;fill:#000000" y="1045.2175" x="-93.127533" xml:space="preserve"><tspan y="1045.2175" x="-93.127533" style="font-size:35px">STOP</tspan></text>
  <rect style="stroke-linejoin:round;color-rendering:auto;color:#000000;shape-rendering:auto;solid-color:#000000;stroke:#696969;stroke-linecap:round;stroke-width:3;fill:#c4e4ff;fill-rule:evenodd;mix-blend-mode:normal;image-rendering:auto;isolation:auto" rx="0" ry="0" height="53.763" width="220.34" y="488.02" x="161.51"/>
  <path style="marker-end:url(#m);stroke-opacity:.96078;fill-rule:evenodd;stroke:#696969;stroke-width:2;fill:#f7df79" d="m271.66 21.039v96.492"/>
  <text style="letter-spacing:0px;font-size:17.5px;word-spacing:0px;font-family:sans-serif;line-height:125%;fill:#000000" xml:space="preserve" y="388.20822" x="58.432907"><tspan x="58.432907" y="388.20822"/></text>
  <text style="letter-spacing:0px;font-size:17.5px;word-spacing:0px;font-family:sans-serif;line-height:125%;fill:#000000" y="187.98956" x="271.53479" xml:space="preserve"><tspan y="187.98956" x="271.53479" style="font-size:25px;text-anchor:middle;text-align:center">Test</tspan><tspan y="219.23956" x="271.53479" style="font-size:25px;text-anchor:middle;text-align:center">Expression1</tspan></text>
  <path d="m571.65 721.04v111.21" style="marker-end:url(#n);stroke-opacity:.96078;fill-rule:evenodd;stroke:#696969;stroke-width:2;fill:#f7df79"/>
  <text style="letter-spacing:0px;font-size:17.5px;word-spacing:0px;font-family:sans-serif;line-height:125%;fill:#000000" xml:space="preserve" y="521.94495" x="270.05164"><tspan x="270.05164" style="font-size:25px;text-anchor:middle;text-align:center" y="521.94495">Body of if</tspan></text>
  <text style="letter-spacing:0px;font-size:17.5px;word-spacing:0px;font-family:sans-serif;line-height:125%;fill:#ff5353" y="193.94492" x="468.05164" xml:space="preserve"><tspan y="193.94492" x="468.05164" style="text-align:center;font-size:25px;fill:#ff5353;text-anchor:middle">FALSE</tspan></text>
  <rect style="stroke-linejoin:round;color-rendering:auto;color:#000000;shape-rendering:auto;solid-color:#000000;stroke:#696969;stroke-linecap:round;stroke-width:3;fill:#c4e4ff;fill-rule:evenodd;mix-blend-mode:normal;image-rendering:auto;isolation:auto" rx="0" ry="0" height="53.763" width="346.72" y="667.69" x="1021.9"/>
  <text style="letter-spacing:0px;font-size:17.5px;word-spacing:0px;font-family:sans-serif;line-height:125%;fill:#000000" y="703.94489" x="1194.2954" xml:space="preserve"><tspan y="703.94489" x="1194.2954" style="font-size:25px;text-anchor:middle;text-align:center">Default Statement</tspan></text>
  <path d="m163.41 202.54h-202.08" style="stroke:#696969;stroke-width:2;fill:none"/>
  <rect style="stroke-linejoin:round;color-rendering:auto;color:#000000;shape-rendering:auto;solid-color:#000000;stroke:#696969;stroke-linecap:round;stroke-width:3;fill:#c4e4ff;fill-rule:evenodd;mix-blend-mode:normal;image-rendering:auto;isolation:auto" rx="0" ry="0" height="53.763" width="220.34" y="308.02" x="-150.49"/>
  <text style="letter-spacing:0px;font-size:17.5px;word-spacing:0px;font-family:sans-serif;line-height:125%;fill:#000000" y="341.94492" x="-41.948357" xml:space="preserve"><tspan y="341.94492" x="-41.948357" style="font-size:25px;text-anchor:middle;text-align:center">Body of if</tspan></text>
  <path d="m-38.344 201.78v96.492" style="marker-end:url(#l);stroke-opacity:.96078;fill-rule:evenodd;stroke:#696969;stroke-width:2;fill:#f7df79"/>
  <path style="stroke:#696969;stroke-width:2;fill:none" d="m378.17 202.54h202.08"/>
  <path style="marker-end:url(#k);stroke-opacity:.96078;fill-rule:evenodd;stroke:#696969;stroke-width:2;fill:#f7df79" d="m579.92 201.78v96.492"/>
  <rect ry="0" style="stroke-linejoin:round;color-rendering:auto;color:#000000;shape-rendering:auto;solid-color:#000000;stroke:#696969;stroke-linecap:round;stroke-width:3.0925;fill:#fff987;fill-rule:evenodd;mix-blend-mode:normal;image-rendering:auto;isolation:auto" rx="0" transform="matrix(.81797 .57526 -.81797 .57526 0 0)" height="133.86" width="133.86" y="-88.287" x="620.72"/>
  <text style="letter-spacing:0px;font-size:17.5px;word-spacing:0px;font-family:sans-serif;line-height:125%;fill:#000000" xml:space="preserve" y="368.2421" x="579.80762"><tspan x="579.80762" style="font-size:25px;text-anchor:middle;text-align:center" y="368.2421">Test</tspan><tspan x="579.80762" style="font-size:25px;text-anchor:middle;text-align:center" y="399.4921">Expression2</tspan></text>
  <text style="letter-spacing:0px;font-size:17.5px;word-spacing:0px;font-family:sans-serif;line-height:125%;fill:#ff5353" xml:space="preserve" y="374.19745" x="776.32446"><tspan x="776.32446" style="text-align:center;font-size:25px;fill:#ff5353;text-anchor:middle" y="374.19745">FALSE</tspan></text>
  <text style="letter-spacing:0px;font-size:17.5px;word-spacing:0px;font-family:sans-serif;line-height:125%;fill:#39cb63" y="374.00824" x="376.32446" xml:space="preserve"><tspan y="374.00824" x="376.32446" style="text-align:center;font-size:25px;fill:#39cb63;text-anchor:middle">TRUE</tspan></text>
  <path d="m686.44 382.79h202.08" style="stroke:#696969;stroke-width:2;fill:none"/>
  <path d="m888.19 382.03v96.492" style="marker-end:url(#a);stroke-opacity:.96078;fill-rule:evenodd;stroke:#696969;stroke-width:2;fill:#f7df79"/>
  <text style="letter-spacing:0px;font-size:17.5px;word-spacing:0px;font-family:sans-serif;line-height:125%;fill:#39cb63" y="193.75571" x="88.051643" xml:space="preserve"><tspan y="193.75571" x="88.051643" style="text-align:center;font-size:25px;fill:#39cb63;text-anchor:middle">TRUE</tspan></text>
  <path style="stroke:#696969;stroke-width:2;fill:none" d="m473.75 382.79h-202.08"/>
  <path style="marker-end:url(#j);stroke-opacity:.96078;fill-rule:evenodd;stroke:#696969;stroke-width:2;fill:#f7df79" d="m272 382.03v96.492"/>
  <rect style="stroke-linejoin:round;color-rendering:auto;color:#000000;shape-rendering:auto;solid-color:#000000;stroke:#696969;stroke-linecap:round;stroke-width:3;fill:#c4e4ff;fill-rule:evenodd;mix-blend-mode:normal;image-rendering:auto;isolation:auto" rx="0" ry="0" height="53.763" width="220.34" y="668.02" x="469.51"/>
  <text style="letter-spacing:0px;font-size:17.5px;word-spacing:0px;font-family:sans-serif;line-height:125%;fill:#000000" y="701.94495" x="578.05164" xml:space="preserve"><tspan y="701.94495" x="578.05164" style="font-size:25px;text-anchor:middle;text-align:center">Body of if</tspan></text>
  <rect style="stroke-linejoin:round;color-rendering:auto;color:#000000;shape-rendering:auto;solid-color:#000000;stroke:#696969;stroke-linecap:round;stroke-width:3.0925;fill:#fff987;fill-rule:evenodd;mix-blend-mode:normal;image-rendering:auto;isolation:auto" transform="matrix(.81797 .57526 -.81797 .57526 0 0)" rx="0" ry="0" height="133.86" width="133.86" y="-120.11" x="965.44"/>
  <text style="letter-spacing:0px;font-size:17.5px;word-spacing:0px;font-family:sans-serif;line-height:125%;fill:#000000" y="548.24207" x="887.80762" xml:space="preserve"><tspan y="548.24207" x="887.80762" style="font-size:25px;text-anchor:middle;text-align:center">Test</tspan><tspan y="579.49207" x="887.80762" style="font-size:25px;text-anchor:middle;text-align:center">Expression3</tspan></text>
  <text style="letter-spacing:0px;font-size:17.5px;word-spacing:0px;font-family:sans-serif;line-height:125%;fill:#ff5353" y="554.19745" x="1084.3245" xml:space="preserve"><tspan y="554.19745" x="1084.3245" style="text-align:center;font-size:25px;fill:#ff5353;text-anchor:middle">FALSE</tspan></text>
  <text style="letter-spacing:0px;font-size:17.5px;word-spacing:0px;font-family:sans-serif;line-height:125%;fill:#39cb63" xml:space="preserve" y="554.00824" x="684.32446"><tspan x="684.32446" style="text-align:center;font-size:25px;fill:#39cb63;text-anchor:middle" y="554.00824">TRUE</tspan></text>
  <path style="stroke:#696969;stroke-width:2;fill:none" d="m994.44 562.79h202.08"/>
  <path style="marker-end:url(#a);stroke-opacity:.96078;fill-rule:evenodd;stroke:#696969;stroke-width:2;fill:#f7df79" d="m1196.2 562.03v96.492"/>
  <path d="m781.75 562.79h-202.08" style="stroke:#696969;stroke-width:2;fill:none"/>
  <path d="m579.94 561.5v96.492" style="marker-end:url(#i);stroke-opacity:.96078;fill-rule:evenodd;stroke:#696969;stroke-width:2;fill:#f7df79"/>
  <path style="marker-end:url(#h);stroke-opacity:.96078;fill-rule:evenodd;stroke:#696969;stroke-width:2;fill:#f7df79" d="m271.57 541.04v291.09"/>
  <path d="m-40.49 361.04v470.7" style="marker-end:url(#g);stroke-opacity:.96078;fill-rule:evenodd;stroke:#696969;stroke-width:2;fill:#f7df79"/>
  <circle r="24.354" style="stroke-linejoin:round;color-rendering:auto;color:#000000;shape-rendering:auto;solid-color:#000000;stroke:#808080;stroke-linecap:round;stroke-width:2;fill:#4d4d4d;fill-rule:evenodd;mix-blend-mode:normal;image-rendering:auto;isolation:auto" cx="-40.455" cy="865.62"/>
  <circle cx="271.61" cy="865.62" r="24.354" style="stroke-linejoin:round;color-rendering:auto;color:#000000;shape-rendering:auto;solid-color:#000000;stroke:#808080;stroke-linecap:round;stroke-width:2;fill:#4d4d4d;fill-rule:evenodd;mix-blend-mode:normal;image-rendering:auto;isolation:auto"/>
  <circle r="24.354" style="stroke-linejoin:round;color-rendering:auto;color:#000000;shape-rendering:auto;solid-color:#000000;stroke:#808080;stroke-linecap:round;stroke-width:2;fill:#4d4d4d;fill-rule:evenodd;mix-blend-mode:normal;image-rendering:auto;isolation:auto" cx="571.69" cy="865.62"/>
  <path style="marker-end:url(#f);stroke-opacity:.96078;fill-rule:evenodd;stroke:#696969;stroke-width:2;fill:#f7df79" d="m547.26 866.6h-243.5"/>
  <path d="m247.26 866.6h-255.25" style="marker-end:url(#e);stroke-opacity:.96078;fill-rule:evenodd;stroke:#696969;stroke-width:2;fill:#f7df79"/>
  <path d="m-40.404 889.52v102.79" style="marker-end:url(#d);stroke-opacity:.96078;fill-rule:evenodd;stroke:#696969;stroke-width:2;fill:#f7df79"/>
  <circle cx="1195.3" cy="865.62" r="24.354" style="stroke-linejoin:round;color-rendering:auto;color:#000000;shape-rendering:auto;solid-color:#000000;stroke:#808080;stroke-linecap:round;stroke-width:2;fill:#4d4d4d;fill-rule:evenodd;mix-blend-mode:normal;image-rendering:auto;isolation:auto"/>
  <path d="m1169.3 866.6h-565.5" style="marker-end:url(#c);stroke-opacity:.96078;fill-rule:evenodd;stroke:#696969;stroke-width:2;fill:#f7df79"/>
  <path style="marker-end:url(#b);stroke-opacity:.96078;fill-rule:evenodd;stroke:#696969;stroke-width:2;fill:#f7df79" d="m1195.2 721.04v111.21"/>
 </g>
</svg>
