<svg xmlns:rdf="http://www.w3.org/1999/02/22-rdf-syntax-ns#" xmlns="http://www.w3.org/2000/svg" height="121.02mm" width="516.23mm" version="1.1" xmlns:cc="http://creativecommons.org/ns#" xmlns:dc="http://purl.org/dc/elements/1.1/" viewBox="0 0 1829.1465 428.82581">
 <defs>
  <marker id="a" refY="0.0" refX="0.0" style="overflow:visible" orient="auto">
   <path style="fill-rule:evenodd;stroke:#69c18e;stroke-width:1pt;fill:#69c18e" transform="scale(.4) rotate(180) translate(10)" d="m0 0l5-5-17.5 5 17.5 5-5-5z"/>
  </marker>
 </defs>
 <rect style="color-rendering:auto;fill-rule:evenodd;color:#000000;isolation:auto;mix-blend-mode:normal;shape-rendering:auto;solid-color:#000000;image-rendering:auto;fill:#959595" height="16.815" width="1829.1" y="412.01" x=".0000085449"/>
 <rect style="color-rendering:auto;fill-rule:evenodd;color:#000000;isolation:auto;mix-blend-mode:normal;shape-rendering:auto;solid-color:#000000;image-rendering:auto;fill:#959595" height="25.234" width="1829.1" y="312.01" x=".0000085449"/>
 <rect style="color-rendering:auto;fill-rule:evenodd;color:#000000;isolation:auto;mix-blend-mode:normal;shape-rendering:auto;solid-color:#000000;image-rendering:auto;fill:#aaa" height="92.41" width="1829.1" y="321.61" x=".0000085449"/>
 <path d="m.93 367.82h1827.3" style="stroke:#fff;stroke-width:2.9999;stroke-dasharray:35.99920669, 35.99920669;stroke-dashoffset:5.1;fill:none"/>
 <path d="m442.46 250.71c33.906-45.223 32.251-97.064 89.897-98.112h147.14l5.5923-20.87h15.61l12.189 21.112h23.61c22.949 0 26.929 1.7164 63.509 46.393l36.881 51.397z" style="fill:#fbc639;fill-rule:evenodd"/>
 <path d="m642.55 170.35v79.935h163.66s-41.567-78.53-68.563-79.13c-27.168-.82608-67.915-.70269-95.093-.80517z" style="fill:#fff;fill-rule:evenodd"/>
 <path d="m700.76 222.02s.70874-1.9176 1.4975-4.1351c.9897-2.7826 2.1055-6.0374 2.1055-6.5681 0-.95375-5.9345-5.1926-5.1926-8.0539.74181-2.8613 5.1926-9.2196 8.2659-6.5703 3.0732 2.6493 4.6628 5.6166 4.7688 8.4778.10513 2.8613 3.2852 13.247 3.2852 13.247l-4.4508 7.1002z" style="fill:#c4a183;fill-rule:evenodd"/>
 <rect ry="3.182" style="color-rendering:auto;fill-rule:evenodd;color:#000000;isolation:auto;mix-blend-mode:normal;shape-rendering:auto;solid-color:#000000;image-rendering:auto" rx="3.182" transform="rotate(30)" height="52.753" width="10.79" y="-193.21" x="775.75"/>
 <path d="m411.64 250.74h32.936 443.94c19.925 0 22.629 1.1039 44.155 40.292 0 0 16.006 24.285 23.182 51.882 0 0 4.4156 13.799-.5519 22.63-3.8452 6.8359-18.393 6.1248-62.049 5.7903h-47.787l-105.05-.55513h-193.85l-108.16-.26767h-58.88s-19.124-3.8303 6.2445-79.154c0 0 15.286-40.617 25.866-40.617z" style="fill:#fbc639;fill-rule:evenodd"/>
 <path d="m671.53 251.35s7.9696-29.376 27.92-29.856c5.5089.56109 9.7858 2.7076 11.233 3.5575.98376.57774 2.7731 24.184 1.6642 25.6 0 0-24.223.36149-40.817.69776z" style="fill:#94dbb2;fill-rule:evenodd"/>
 <path d="m703.2 226.43c-4.208 0-7.5958 2.0992-7.5958 9.3903.0949 4.8094-.13565 10.347.1765 14.987h14.947c.0746-.7443.0678-1.8315.0678-2.614v-12.373c0-7.2911-3.3877-9.3903-7.5958-9.3903z" style="color-rendering:auto;fill-rule:evenodd;color:#000000;isolation:auto;mix-blend-mode:normal;shape-rendering:auto;solid-color:#000000;image-rendering:auto;fill:#69c18e"/>
 <circle cx="494.32" style="color-rendering:auto;fill-rule:evenodd;color:#000000;isolation:auto;mix-blend-mode:normal;shape-rendering:auto;solid-color:#000000;image-rendering:auto" r="52.562" cy="358.3"/>
 <path d="m871.84 250.76s16.733 41.568 57.003 33.514c-4.7808-8.3026-5.9596-12.855-17.845-27.16-3.4868-4.1962-10.747-6.353-17.276-6.3607-10.633-.0119-21.881.007-21.881.007z" style="fill:#f5dbb2;fill-rule:evenodd"/>
 <path d="m398.25 265.05s18.077 8.4778 10.871 15.26c-7.2061 6.7822-22.714 9.2484-22.714 9.2484l4.2791-9.7797z" style="fill:#ef3324;fill-rule:evenodd"/>
 <path d="m711.39 193.3v-6.2242l11.839-4.2377s2.9927 6.7539 3.9198 9.1376l1.3242 3.708 5.8268 9.0052s.66228 2.5162-1.5891 2.3837c-2.2514-.13242-2.5162 4.8999-2.5162 4.8999l.79454 3.708-15.097.26486s-3.708-4.2377-3.5756-7.8133c.13225-3.5756-.92714-14.832-.92714-14.832z" style="fill:#c4a183;fill-rule:evenodd"/>
 <path d="m701.94 219.42s3.0852-4.6181 2.5233-8.551c0 0-1.0104-5.2813-1.1977-7.1542 0 0 .18702-4.569 2.4713-4.607 0 0 4.5322-.2249 4.7196 3.8953.18719 4.1202.18719 12.548.18719 12.548s3.2841 4.2848 5.3442 4.0975h11.612s3.4581-.53912 3.4581-3.1611v-3.1838h-4.3076l.18736-3.5584 3.2841.17786.31046-1.0744-4.9017.0768s0 5.6282-1.0596 5.7607c0 0-9.9984 1.1919-10.064-3.1783l.13225-17.944s-.52969-2.9796-2.4499-3.2445c-1.9202-.26487 0-1.3905.59599-1.7216.59582-.33108 8.2365-4.648 10.091-4.7142 1.8539-.0661 7.2575-1.841 6.463-2.3706-.79454-.52973-12.713-5.0427-16.024-3.917l-.61058 1.0604s-20.788-2.622-22.661 7.4913c.98054 15.148-.0882 27.895 11.897 33.272z" style="fill:#3b3633;fill-rule:evenodd"/>
 <path d="m719.38 194.44c4.0329-.52025 7.705-.73463 8.157-1.3492-3.9844-1.6698-6.2575.17966-8.157 1.3492z" style="fill:#49371f;fill-rule:evenodd"/>
 <path d="m723.87 196.4 2.4558-.85848s-1.6372-1.1804-2.4558-.75117c-.81862.42923-2.9469.32192-1.4734 1.1804 1.4734.85848 1.4734.42923 1.4734.42923z" style="fill:#664b2d;fill-rule:evenodd"/>
 <path d="m706.98 206.45c-.37879.43072-1.3003.10699-1.5977-.39456-.50019-.84369-.24416-2.4347.53919-2.9598.33013-.22137.92408-.0214 1.1175.34606.26044.49456-.38777 1.0891-.38523 1.66.002.46497.62075 1.0135.32623 1.3484z" style="fill-opacity:.61514;fill:#b4855e;fill-rule:evenodd"/>
 <circle r="29.672" cy="358.3" cx="494.32" style="color-rendering:auto;fill-rule:evenodd;color:#000000;isolation:auto;mix-blend-mode:normal;shape-rendering:auto;solid-color:#000000;image-rendering:auto;fill:#e6e6e6"/>
 <circle r="52.562" cy="358.3" cx="792.74" style="color-rendering:auto;fill-rule:evenodd;color:#000000;isolation:auto;mix-blend-mode:normal;shape-rendering:auto;solid-color:#000000;image-rendering:auto"/>
 <circle cx="792.74" style="color-rendering:auto;fill-rule:evenodd;color:#000000;isolation:auto;mix-blend-mode:normal;shape-rendering:auto;solid-color:#000000;image-rendering:auto;fill:#e6e6e6" r="29.672" cy="358.3"/>
 <path d="m626.36 169.96v80.929h-160.66c44.676-87.888 37.165-82.765 125.29-80.929z" style="fill:#fff;fill-rule:evenodd"/>
 <path d="m753.15 243.84s.74927-4.3462 3.8966-.29974l1.1989 1.199s5.9946.59946 5.0955 2.8475c-.89932 2.248-1.1989 4.0464-1.1989 4.0464l-17.385-.74934s-.74927-2.248 1.4987-3.2971 5.8448-1.199 6.4443-1.9483c.59956-.74933.44967-1.7984.44967-1.7984z" style="fill:#f7b99f;fill-rule:evenodd"/>
 <text style="font-size:46.628px;letter-spacing:0px;word-spacing:0px;font-family:sans-serif;line-height:125%;fill:#000000" y="328.0817" x="585.42163" xml:space="preserve"><tspan y="328.0817" x="585.42163">TAXI</tspan></text>
 <g transform="matrix(.7564 0 0 .7564 1242.5 465.74)">
  <rect style="color-rendering:auto;fill-rule:evenodd;color:#000000;isolation:auto;mix-blend-mode:normal;shape-rendering:auto;solid-color:#000000;image-rendering:auto;fill:#808080" rx="0" ry="0" height="29.479" width="179.82" y="-232.22" x="13.051"/>
  <rect style="color-rendering:auto;color:#000000;isolation:auto;mix-blend-mode:normal;shape-rendering:auto;solid-color:#000000;image-rendering:auto;fill:none" rx="0" ry="0" height="29.479" width="179.82" y="-232.22" x="193.42"/>
  <rect style="color-rendering:auto;fill-rule:evenodd;color:#000000;isolation:auto;mix-blend-mode:normal;shape-rendering:auto;solid-color:#000000;image-rendering:auto;fill:#808080" rx="0" ry="0" height="29.479" width="179.82" y="-232.22" x="373.79"/>
  <rect style="color-rendering:auto;color:#000000;isolation:auto;mix-blend-mode:normal;shape-rendering:auto;solid-color:#000000;image-rendering:auto;fill:none" rx="0" ry="0" height="29.479" width="179.82" y="-232.22" x="554.15"/>
  <rect style="color-rendering:auto;fill-rule:evenodd;color:#000000;isolation:auto;mix-blend-mode:normal;fill-opacity:.091483;shape-rendering:auto;solid-color:#000000;image-rendering:auto;fill:#808080" rx="0" ry="0" height="29.479" width="179.82" y="-232.22" x="193.42"/>
  <rect style="color-rendering:auto;fill-rule:evenodd;color:#000000;isolation:auto;mix-blend-mode:normal;fill-opacity:.091483;shape-rendering:auto;solid-color:#000000;image-rendering:auto;fill:#808080" rx="0" ry="0" height="29.479" width="179.82" y="-232.22" x="551.78"/>
  <rect style="color-rendering:auto;fill-rule:evenodd;color:#000000;isolation:auto;mix-blend-mode:normal;shape-rendering:auto;solid-color:#000000;image-rendering:auto;fill:#c3c3db" rx="4.6447" ry="4.6447" height="4.5712" width="535.72" y="-515.7" x="105.66"/>
  <rect style="color-rendering:auto;fill-rule:evenodd;color:#000000;isolation:auto;mix-blend-mode:normal;shape-rendering:auto;solid-color:#000000;image-rendering:auto;fill:#c5ced6" transform="rotate(90)" rx="16.256" ry="16.256" height="8.338" width="97.137" y="-116.37" x="-613.08"/>
  <rect style="color-rendering:auto;fill-rule:evenodd;color:#000000;isolation:auto;mix-blend-mode:normal;shape-rendering:auto;solid-color:#000000;image-rendering:auto;fill:#c3c3db" height="14.592" width="32.31" y="-538.65" x="110.4"/>
  <rect style="color-rendering:auto;fill-rule:evenodd;color:#000000;isolation:auto;mix-blend-mode:normal;shape-rendering:auto;solid-color:#000000;image-rendering:auto;fill:#c5ced6" transform="rotate(90)" rx="0" ry="0" height="8.338" width="97.137" y="-639" x="-613.08"/>
  <rect style="color-rendering:auto;fill-rule:evenodd;color:#000000;isolation:auto;mix-blend-mode:normal;shape-rendering:auto;solid-color:#000000;image-rendering:auto;fill:#c3c3db" height="14.592" width="32.31" y="-609.85" x="110.4"/>
  <rect style="color-rendering:auto;fill-rule:evenodd;color:#000000;isolation:auto;mix-blend-mode:normal;shape-rendering:auto;solid-color:#000000;image-rendering:auto;fill:#c3c3db" transform="scale(-1)" height="14.592" width="32.31" y="595.25" x="-636.35"/>
  <rect style="color-rendering:auto;fill-rule:evenodd;color:#000000;isolation:auto;mix-blend-mode:normal;shape-rendering:auto;solid-color:#000000;image-rendering:auto;fill:#c3c3db" transform="scale(-1)" height="14.592" width="32.31" y="524.06" x="-636.35"/>
  <rect style="color-rendering:auto;fill-rule:evenodd;color:#000000;isolation:auto;mix-blend-mode:normal;shape-rendering:auto;solid-color:#000000;image-rendering:auto;fill:#fa81b3" height="92.86" width="504.1" y="-611.93" x="121.47"/>
  <rect style="color-rendering:auto;fill-rule:evenodd;color:#000000;isolation:auto;mix-blend-mode:normal;shape-rendering:auto;solid-color:#000000;image-rendering:auto;fill:#98a7b6" height="5.2113" width="31.268" y="-237.61" x="122.67"/>
  <rect style="color-rendering:auto;fill-rule:evenodd;color:#000000;isolation:auto;mix-blend-mode:normal;shape-rendering:auto;solid-color:#000000;image-rendering:auto;fill:#98a7b6" height="5.2113" width="31.268" y="-237.61" x="279.48"/>
  <rect style="color-rendering:auto;fill-rule:evenodd;color:#000000;isolation:auto;mix-blend-mode:normal;shape-rendering:auto;solid-color:#000000;image-rendering:auto;fill:#98a7b6" height="5.2113" width="31.268" y="-237.61" x="593.09"/>
  <rect style="color-rendering:auto;fill-rule:evenodd;color:#000000;isolation:auto;mix-blend-mode:normal;shape-rendering:auto;solid-color:#000000;image-rendering:auto;fill:#98a7b6" height="5.2113" width="31.268" y="-237.61" x="436.29"/>
  <rect style="color-rendering:auto;fill-rule:evenodd;color:#000000;isolation:auto;mix-blend-mode:normal;shape-rendering:auto;solid-color:#000000;image-rendering:auto;fill:#ffb0d3" height="259.42" width="129.71" y="-505.23" x="151.85"/>
  <rect style="color-rendering:auto;fill-rule:evenodd;color:#000000;isolation:auto;mix-blend-mode:normal;shape-rendering:auto;solid-color:#000000;image-rendering:auto;fill:#ffb0d3" height="259.42" width="129.71" y="-505.23" x="308.66"/>
  <rect style="color-rendering:auto;fill-rule:evenodd;color:#000000;isolation:auto;mix-blend-mode:normal;shape-rendering:auto;solid-color:#000000;image-rendering:auto;fill:#ffb0d3" height="259.42" width="129.71" y="-505.23" x="465.47"/>
  <rect style="color-rendering:auto;fill-rule:evenodd;color:#000000;isolation:auto;mix-blend-mode:normal;shape-rendering:auto;solid-color:#000000;image-rendering:auto;fill:#c3c3db" height="14.592" width="32.31" y="-495.93" x="134.13"/>
  <ellipse style="color-rendering:auto;fill-rule:evenodd;color:#000000;isolation:auto;mix-blend-mode:normal;shape-rendering:auto;solid-color:#000000;image-rendering:auto;fill:#fff" rx="2.1387" ry="1.8878" cy="-488.63" cx="158.84"/>
  <rect style="color-rendering:auto;fill-rule:evenodd;color:#000000;isolation:auto;mix-blend-mode:normal;shape-rendering:auto;solid-color:#000000;image-rendering:auto;fill:#c3c3db" height="14.592" width="32.31" y="-282.34" x="134.13"/>
  <ellipse style="color-rendering:auto;fill-rule:evenodd;color:#000000;isolation:auto;mix-blend-mode:normal;shape-rendering:auto;solid-color:#000000;image-rendering:auto;fill:#fff" rx="2.1387" ry="1.8878" cy="-275.04" cx="158.84"/>
  <rect ry="0" style="color-rendering:auto;fill-rule:evenodd;color:#000000;isolation:auto;mix-blend-mode:normal;shape-rendering:auto;solid-color:#000000;image-rendering:auto;fill:#c5ced6" rx="0" transform="rotate(90)" height="8.338" width="280.16" y="-142.47" x="-515.7"/>
  <rect style="color-rendering:auto;fill-rule:evenodd;color:#000000;isolation:auto;mix-blend-mode:normal;shape-rendering:auto;solid-color:#000000;image-rendering:auto;fill:#c3c3db" height="14.592" width="32.31" y="-282.34" x="266.97"/>
  <ellipse style="color-rendering:auto;fill-rule:evenodd;color:#000000;isolation:auto;mix-blend-mode:normal;shape-rendering:auto;solid-color:#000000;image-rendering:auto;fill:#fff" rx="2.1387" ry="1.8878" cy="-275.04" cx="274.57"/>
  <rect style="color-rendering:auto;fill-rule:evenodd;color:#000000;isolation:auto;mix-blend-mode:normal;shape-rendering:auto;solid-color:#000000;image-rendering:auto;fill:#c3c3db" height="14.592" width="32.31" y="-495.93" x="266.97"/>
  <ellipse style="color-rendering:auto;fill-rule:evenodd;color:#000000;isolation:auto;mix-blend-mode:normal;shape-rendering:auto;solid-color:#000000;image-rendering:auto;fill:#fff" rx="2.1387" ry="1.8878" cy="-488.63" cx="274.57"/>
  <rect style="color-rendering:auto;fill-rule:evenodd;color:#000000;isolation:auto;mix-blend-mode:normal;shape-rendering:auto;solid-color:#000000;image-rendering:auto;fill:#c3c3db" height="14.592" width="32.31" y="-495.93" x="290.94"/>
  <ellipse style="color-rendering:auto;fill-rule:evenodd;color:#000000;isolation:auto;mix-blend-mode:normal;shape-rendering:auto;solid-color:#000000;image-rendering:auto;fill:#fff" rx="2.1387" ry="1.8878" cy="-488.63" cx="315.65"/>
  <rect style="color-rendering:auto;fill-rule:evenodd;color:#000000;isolation:auto;mix-blend-mode:normal;shape-rendering:auto;solid-color:#000000;image-rendering:auto;fill:#c3c3db" height="14.592" width="32.31" y="-282.34" x="290.94"/>
  <ellipse style="color-rendering:auto;fill-rule:evenodd;color:#000000;isolation:auto;mix-blend-mode:normal;shape-rendering:auto;solid-color:#000000;image-rendering:auto;fill:#fff" rx="2.1387" ry="1.8878" cy="-275.04" cx="315.65"/>
  <rect style="color-rendering:auto;fill-rule:evenodd;color:#000000;isolation:auto;mix-blend-mode:normal;shape-rendering:auto;solid-color:#000000;image-rendering:auto;fill:#c5ced6" transform="rotate(90)" rx="0" ry="0" height="8.338" width="280.16" y="-299.28" x="-515.7"/>
  <rect style="color-rendering:auto;fill-rule:evenodd;color:#000000;isolation:auto;mix-blend-mode:normal;shape-rendering:auto;solid-color:#000000;image-rendering:auto;fill:#c3c3db" height="14.592" width="32.31" y="-282.34" x="423.78"/>
  <ellipse style="color-rendering:auto;fill-rule:evenodd;color:#000000;isolation:auto;mix-blend-mode:normal;shape-rendering:auto;solid-color:#000000;image-rendering:auto;fill:#fff" rx="2.1387" ry="1.8878" cy="-275.04" cx="431.38"/>
  <rect style="color-rendering:auto;fill-rule:evenodd;color:#000000;isolation:auto;mix-blend-mode:normal;shape-rendering:auto;solid-color:#000000;image-rendering:auto;fill:#c3c3db" height="14.592" width="32.31" y="-495.93" x="423.78"/>
  <ellipse style="color-rendering:auto;fill-rule:evenodd;color:#000000;isolation:auto;mix-blend-mode:normal;shape-rendering:auto;solid-color:#000000;image-rendering:auto;fill:#fff" rx="2.1387" ry="1.8878" cy="-488.63" cx="431.38"/>
  <rect style="color-rendering:auto;fill-rule:evenodd;color:#000000;isolation:auto;mix-blend-mode:normal;shape-rendering:auto;solid-color:#000000;image-rendering:auto;fill:#c3c3db" height="14.592" width="32.31" y="-495.93" x="447.75"/>
  <ellipse style="color-rendering:auto;fill-rule:evenodd;color:#000000;isolation:auto;mix-blend-mode:normal;shape-rendering:auto;solid-color:#000000;image-rendering:auto;fill:#fff" rx="2.1387" ry="1.8878" cy="-488.63" cx="472.46"/>
  <rect style="color-rendering:auto;fill-rule:evenodd;color:#000000;isolation:auto;mix-blend-mode:normal;shape-rendering:auto;solid-color:#000000;image-rendering:auto;fill:#c3c3db" height="14.592" width="32.31" y="-282.34" x="447.75"/>
  <ellipse style="color-rendering:auto;fill-rule:evenodd;color:#000000;isolation:auto;mix-blend-mode:normal;shape-rendering:auto;solid-color:#000000;image-rendering:auto;fill:#fff" rx="2.1387" ry="1.8878" cy="-275.04" cx="472.46"/>
  <rect ry="0" style="color-rendering:auto;fill-rule:evenodd;color:#000000;isolation:auto;mix-blend-mode:normal;shape-rendering:auto;solid-color:#000000;image-rendering:auto;fill:#c5ced6" rx="0" transform="rotate(90)" height="8.338" width="280.16" y="-456.09" x="-515.7"/>
  <rect style="color-rendering:auto;fill-rule:evenodd;color:#000000;isolation:auto;mix-blend-mode:normal;shape-rendering:auto;solid-color:#000000;image-rendering:auto;fill:#c3c3db" height="14.592" width="32.31" y="-282.34" x="580.59"/>
  <ellipse style="color-rendering:auto;fill-rule:evenodd;color:#000000;isolation:auto;mix-blend-mode:normal;shape-rendering:auto;solid-color:#000000;image-rendering:auto;fill:#fff" rx="2.1387" ry="1.8878" cy="-275.04" cx="588.19"/>
  <rect style="color-rendering:auto;fill-rule:evenodd;color:#000000;isolation:auto;mix-blend-mode:normal;shape-rendering:auto;solid-color:#000000;image-rendering:auto;fill:#c3c3db" height="14.592" width="32.31" y="-495.93" x="580.59"/>
  <ellipse style="color-rendering:auto;fill-rule:evenodd;color:#000000;isolation:auto;mix-blend-mode:normal;shape-rendering:auto;solid-color:#000000;image-rendering:auto;fill:#fff" rx="2.1387" ry="1.8878" cy="-488.63" cx="588.19"/>
  <rect style="color-rendering:auto;fill-rule:evenodd;color:#000000;isolation:auto;mix-blend-mode:normal;shape-rendering:auto;solid-color:#000000;image-rendering:auto;fill:#c5ced6" transform="rotate(90)" rx="0" ry="0" height="8.338" width="280.16" y="-612.9" x="-515.7"/>
  <ellipse style="color-rendering:auto;fill-rule:evenodd;color:#000000;isolation:auto;mix-blend-mode:normal;shape-rendering:auto;solid-color:#000000;image-rendering:auto;fill:#fff" rx="2.1387" ry="1.8878" cy="-531.35" cx="135.11"/>
  <ellipse style="color-rendering:auto;fill-rule:evenodd;color:#000000;isolation:auto;mix-blend-mode:normal;shape-rendering:auto;solid-color:#000000;image-rendering:auto;fill:#fff" rx="2.1387" ry="1.8878" cy="-602.55" cx="135.11"/>
  <ellipse style="color-rendering:auto;fill-rule:evenodd;color:#000000;isolation:auto;mix-blend-mode:normal;shape-rendering:auto;solid-color:#000000;image-rendering:auto;fill:#fff" rx="2.1387" ry="1.8878" transform="scale(-1)" cy="602.55" cx="-616.39"/>
  <ellipse style="color-rendering:auto;fill-rule:evenodd;color:#000000;isolation:auto;mix-blend-mode:normal;shape-rendering:auto;solid-color:#000000;image-rendering:auto;fill:#fff" rx="2.1387" transform="scale(-1)" ry="1.8878" cy="531.35" cx="-616.39"/>
 </g>
 <text style="font-size:37.501px;letter-spacing:0px;line-height:125%;word-spacing:0px;font-family:sans-serif;fill:#69c18e" xml:space="preserve" y="109.81023" x="787.74701"><tspan x="787.74701" y="109.81023">Operator</tspan></text>
 <path style="marker-end:url(#a);stroke:#69c18e;stroke-width:2.5001;fill:none" d="m729.99 188.82 60.002-70.002"/>
 <text style="letter-spacing:0px;font-size:27.501px;word-spacing:0px;font-family:sans-serif;line-height:125%;fill:#ffffff" xml:space="preserve" y="43.495415" x="1487.8741"><tspan x="1487.8741" y="43.495415">STOP</tspan></text>
</svg>
