<svg xmlns:rdf="http://www.w3.org/1999/02/22-rdf-syntax-ns#" xmlns="http://www.w3.org/2000/svg" height="142.51mm" width="497.22mm" version="1.1" xmlns:cc="http://creativecommons.org/ns#" xmlns:dc="http://purl.org/dc/elements/1.1/" viewBox="0 0 1761.805 504.94212">
 <g transform="translate(594.13 -49.209)">
  <g style="fill:#454545">
   <path style="fill:#454545" d="m221.9 89.733q1.5552 1.709 2.3755 4.187.83741 2.478.83741 5.6226 0 3.1445-.8545 5.6397-.8374 2.478-2.3584 4.1357-1.5723 1.7261-3.7256 2.5977-2.1362.87158-4.8877.87158-2.6831 0-4.8877-.88867-2.1875-.88868-3.7256-2.5806t-2.3755-4.1528q-.82031-2.4609-.82031-5.6226 0-3.1104.82031-5.5713.82032-2.478 2.3926-4.2383 1.5039-1.6748 3.7256-2.5635 2.2388-.88867 4.8706-.88867 2.7344 0 4.9048.90576 2.1875.88867 3.7085 2.5464zm-.30762 9.8096q0-4.9561-2.2217-7.6392-2.2217-2.7002-6.0669-2.7002-3.8794 0-6.1011 2.7002-2.2046 2.6831-2.2046 7.6392 0 5.0073 2.2559 7.6733 2.2559 2.6489 6.0498 2.6489 3.794 0 6.0327-2.6489 2.2559-2.666 2.2559-7.6733z"/>
   <path style="fill:#454545" d="m247.02 102.48q0 2.3242-.66651 4.2554-.6665 1.9141-1.8799 3.2471-1.1279 1.2646-2.666 1.9653-1.521.68359-3.23.68359-1.4868 0-2.7002-.32471-1.1963-.3247-2.4438-1.0083v7.998h-3.2129v-26.13h3.2129v1.9995q1.2817-1.0767 2.8711-1.7944 1.6064-.73486 3.418-.73486 3.4522 0 5.3662 2.6147 1.9312 2.5977 1.9312 7.229zm-3.3154.0855q0-3.4521-1.1792-5.1611t-3.623-1.709q-1.3843 0-2.7856.59814-1.4014.59814-2.6831 1.5723v10.818q1.3672.61523 2.3413.8374.99121.22217 2.2388.22217 2.6831 0 4.187-1.8115t1.5039-5.3662z"/>
   <path style="fill:#454545" d="m268 103.05h-14.065q0 1.7602.52979 3.0762.52978 1.2988 1.4526 2.1362.88868.82031 2.102 1.2305 1.2305.41015 2.7002.41015 1.9482 0 3.9136-.76904 1.9824-.78613 2.8198-1.5381h.1709v3.5034q-1.6235.6836-3.3154 1.145-1.6919.46143-3.5547.46143-4.751 0-7.417-2.5635-2.666-2.5806-2.666-7.3144 0-4.6826 2.5464-7.4341 2.5635-2.7515 6.7334-2.7515 3.8623 0 5.9473 2.2559 2.102 2.2559 2.102 6.4087v1.7432zm-3.1274-2.4609q-.0171-2.5293-1.2817-3.9136-1.2476-1.3843-3.811-1.3843-2.5806 0-4.1186 1.521-1.521 1.521-1.7261 3.7769h10.938z"/>
   <path style="fill:#454545" d="m284.79 96.672h-.1709q-.71777-.17090-1.4014-.23926-.6665-.08545-1.5894-.08545-1.4868 0-2.8711.66650-1.3843.64942-2.666 1.6919v13.552h-3.2129v-19.089h3.2129v2.8198q1.9141-1.5381 3.3667-2.1704 1.4697-.64941 2.9907-.64941.8374 0 1.2134.05127.37598.03418 1.1279.15381v3.2983z"/>
   <path style="fill:#454545" d="m302.06 112.26h-3.1958v-2.0337q-.42724.29053-1.1621.82031-.71777.5127-1.4014.82032-.80322.39306-1.8457.64941-1.0425.27344-2.4438.27344-2.5806 0-4.375-1.709t-1.7944-4.3579q0-2.1704.92285-3.5034.93994-1.3501 2.666-2.1191 1.7432-.76905 4.187-1.0425 2.4438-.27343 5.2466-.41015v-.49560q0-1.0938-.39306-1.8115-.37598-.71777-1.0938-1.1279-.6836-.39307-1.6406-.52978-.95703-.13672-1.9995-.13672-1.2646 0-2.8198.34180-1.5552.32471-3.2129.95703h-.17089v-3.2642q.93994-.25635 2.7173-.56396 1.7773-.30762 3.5034-.30762 2.0166 0 3.5034.34180 1.5039.32471 2.5976 1.1279 1.0767.78613 1.6406 2.0337.56396 1.2476.56396 3.0933v12.954zm-3.1958-4.6997v-5.315q-1.4697.0854-3.4692.25635-1.9824.1709-3.1445.49561-1.3843.39306-2.2388 1.2305-.85449.82031-.85449 2.273 0 1.6406.99121 2.478.99121.82032 3.0249.82032 1.6919 0 3.0933-.64942 1.4014-.6665 2.5976-1.5894z"/>
   <path style="fill:#454545" d="m318.2 112.09q-.90576.23926-1.9824.39307-1.0596.15381-1.897.15381-2.9224 0-4.4434-1.5723t-1.521-5.0415v-10.151h-2.1704v-2.7002h2.1704v-5.4858h3.2129v5.4858h6.6308v2.7002h-6.6308v8.6987q0 1.5039.0684 2.3584.0684.8374.47852 1.5723.37598.68359 1.0254 1.0083.6665.30762 2.0166.30762.78614 0 1.6406-.22217.85449-.23926 1.2305-.39307h.17089v2.8882z"/>
   <path style="fill:#454545" d="m338.36 102.72q0 4.6655-2.3926 7.3657t-6.4087 2.7002q-4.0503 0-6.4429-2.7002-2.3755-2.7002-2.3755-7.3657t2.3755-7.3657q2.3926-2.7173 6.4429-2.7173 4.0161 0 6.4087 2.7173 2.3926 2.7002 2.3926 7.3657zm-3.3154 0q0-3.7085-1.4526-5.5029-1.4526-1.8115-4.0332-1.8115-2.6148 0-4.0674 1.8115-1.4356 1.7944-1.4356 5.5029 0 3.5889 1.4526 5.4517 1.4526 1.8457 4.0503 1.8457 2.5635 0 4.0161-1.8286 1.4697-1.8457 1.4697-5.4688z"/>
   <path style="fill:#454545" d="m355.26 96.672h-.1709q-.71778-.17090-1.4014-.23926-.6665-.08545-1.5894-.08545-1.4868 0-2.8711.66650-1.3843.64942-2.666 1.6919v13.552h-3.2129v-19.089h3.2129v2.8198q1.9141-1.5381 3.3667-2.1704 1.4697-.64941 2.9907-.64941.8374 0 1.2134.05127.37597.03418 1.1279.15381v3.2983z"/>
   <path style="fill:#454545" d="m371.96 106.75q0 2.6148-2.1704 4.2896-2.1533 1.6748-5.896 1.6748-2.1191 0-3.8965-.49561-1.7602-.51269-2.9565-1.1108v-3.606h.1709q1.521 1.145 3.3838 1.8286 1.8628.6665 3.5718.6665 2.1192 0 3.3154-.68359 1.1963-.68359 1.1963-2.1533 0-1.1279-.64941-1.709-.64941-.58106-2.4951-.99122-.68359-.1538-1.7944-.35888-1.0938-.20508-1.9995-.44434-2.5122-.6665-3.5718-1.9482-1.0425-1.2988-1.0425-3.1787 0-1.1792.47851-2.2217.49561-1.0425 1.4868-1.8628.95703-.80322 2.4268-1.2646 1.4868-.47852 3.3154-.47852 1.709 0 3.4522.42725 1.7602.41016 2.9224 1.0083v3.4351h-.1709q-1.2305-.90576-2.9907-1.521-1.7602-.63232-3.4522-.63232-1.7602 0-2.9736.68359-1.2134.66650-1.2134 1.9995 0 1.1792.73486 1.7773.71778.59814 2.3242.97412.88867.20508 1.9824.41015 1.1108.20508 1.8457.37598 2.2388.5127 3.4521 1.7602 1.2134 1.2646 1.2134 3.3496z"/>
  </g>
  <path style="stroke:#009688;stroke-width:4;fill:none" d="m287.29 155.08v107.14"/>
  <path style="opacity:0.942;stroke-linejoin:round;color-rendering:auto;color:#000000;isolation:auto;mix-blend-mode:normal;shape-rendering:auto;solid-color:#000000;stroke:#009688;image-rendering:auto;stroke-width:4;fill:none" d="m143.72 51.209h286v103.16h-286z"/>
  <path style="stroke:#b3b3b3;stroke-width:4;stroke-opacity:.94510;fill:none" d="m-404.13 263.98v106.81"/>
  <path style="opacity:0.942;stroke-linejoin:round;color-rendering:auto;color:#000000;isolation:auto;mix-blend-mode:normal;shape-rendering:auto;solid-color:#000000;stroke:#b3b3b3;image-rendering:auto;stroke-width:4;fill:none" d="m-592.13 373.21h376v178.94h-376z"/>
  <g style="fill:#454545">
   <path style="fill:#454545" d="m-470.79 412.69h-3.606l-2.4951-7.0923h-11.006l-2.4951 7.0923h-3.4351l9.2627-25.447h4.5117l9.2627 25.447zm-7.1436-9.9976-4.4604-12.493-4.4775 12.493h8.938z"/>
   <path style="fill:#454545" d="m-455.27 397.11h-.1709q-.71778-.1709-1.4014-.23926-.6665-.0854-1.5894-.0854-1.4868 0-2.8711.66651-1.3843.64941-2.666 1.6919v13.552h-3.2129v-19.089h3.2129v2.8198q1.9141-1.5381 3.3667-2.1704 1.4697-.64942 2.9907-.64942.8374 0 1.2134.0513.37597.0342 1.1279.15381v3.2983z"/>
   <path style="fill:#454545" d="m-448.76 390.41h-3.623v-3.3325h3.623v3.3325zm-.20508 22.285h-3.2129v-19.089h3.2129v19.089z"/>
   <path style="fill:#454545" d="m-432.8 412.52q-.90576.23926-1.9824.39307-1.0596.15381-1.897.15381-2.9224 0-4.4434-1.5723t-1.521-5.0415v-10.151h-2.1704v-2.7002h2.1704v-5.4858h3.2129v5.4858h6.6309v2.7002h-6.6309v8.6987q0 1.5039.0684 2.3584.0684.8374.47852 1.5723.37597.6836 1.0254 1.0083.6665.30762 2.0166.30762.78613 0 1.6406-.22217.8545-.23925 1.2305-.39306h.1709v2.8882z"/>
   <path style="fill:#454545" d="m-412.94 412.69h-3.2129v-10.869q0-1.3159-.15381-2.4609-.15381-1.1621-.56396-1.8115-.42725-.71778-1.2305-1.0596-.80323-.35889-2.085-.35889-1.3159 0-2.7515.64941-1.4356.64942-2.7515 1.6577v14.253h-3.2129v-26.592h3.2129v9.6216q1.5039-1.2476 3.1104-1.9482 1.6064-.70068 3.2983-.70068 3.0933 0 4.7168 1.8628t1.6235 5.3662v12.39z"/>
   <path style="fill:#454545" d="m-378.9 412.69h-3.2129v-10.869q0-1.2305-.11963-2.3755-.10254-1.145-.46143-1.8286-.39306-.73487-1.1279-1.1108-.73486-.37598-2.1191-.37598-1.3501 0-2.7002.68359-1.3501.66651-2.7002 1.709.0513.39307.0854.92285.0342.5127.0342 1.0254v12.219h-3.2129v-10.869q0-1.2646-.11963-2.3926-.10254-1.145-.46142-1.8286-.39307-.73487-1.1279-1.0938-.73487-.37598-2.1192-.37598-1.3159 0-2.6489.64941-1.3159.64942-2.6318 1.6577v14.253h-3.2129v-19.089h3.2129v2.1191q1.5039-1.2476 2.9907-1.9482 1.5039-.70068 3.1958-.70068 1.9482 0 3.2983.82031 1.3672.82031 2.0337 2.273 1.9482-1.6406 3.5547-2.3584 1.6064-.73486 3.435-.73486 3.1445 0 4.6314 1.9141 1.5039 1.897 1.5039 5.3149v12.39z"/>
   <path style="fill:#454545" d="m-356.73 403.48h-14.065q0 1.7603.52979 3.0762.52978 1.2988 1.4526 2.1362.88867.82031 2.102 1.2305 1.2305.41016 2.7002.41016 1.9482 0 3.9136-.76904 1.9824-.78614 2.8198-1.5381h.1709v3.5034q-1.6235.68359-3.3154 1.145-1.6919.46143-3.5547.46143-4.751 0-7.417-2.5635-2.666-2.5806-2.666-7.3144 0-4.6826 2.5464-7.4341 2.5635-2.7515 6.7334-2.7515 3.8623 0 5.9473 2.2559 2.1021 2.2559 2.1021 6.4087v1.7432zm-3.1274-2.4609q-.0171-2.5293-1.2817-3.9136-1.2476-1.3843-3.811-1.3843-2.5806 0-4.1186 1.521-1.521 1.521-1.7261 3.7769h10.938z"/>
   <path style="fill:#454545" d="m-341.95 412.52q-.90576.23926-1.9824.39307-1.0596.15381-1.897.15381-2.9224 0-4.4434-1.5723t-1.521-5.0415v-10.151h-2.1704v-2.7002h2.1704v-5.4858h3.2129v5.4858h6.6309v2.7002h-6.6309v8.6987q0 1.5039.0684 2.3584.0684.8374.47852 1.5723.37597.6836 1.0254 1.0083.6665.30762 2.0166.30762.78613 0 1.6406-.22217.8545-.23925 1.2305-.39306h.1709v2.8882z"/>
   <path style="fill:#454545" d="m-334.6 390.41h-3.623v-3.3325h3.623v3.3325zm-.20508 22.285h-3.2129v-19.089h3.2129v19.089z"/>
   <path style="fill:#454545" d="m-314.44 411.5q-1.6064.76904-3.0591 1.1963-1.4356.42725-3.0591.42725-2.0679 0-3.7939-.59815-1.7261-.61523-2.9565-1.8457-1.2476-1.2305-1.9312-3.1104-.68359-1.8799-.68359-4.3921 0-4.6826 2.5635-7.3486 2.5806-2.666 6.8018-2.666 1.6406 0 3.2129.46142 1.5894.46143 2.9053 1.1279v3.5718h-.1709q-1.4697-1.145-3.042-1.7602-1.5552-.61524-3.042-.61524-2.7344 0-4.3237 1.8457-1.5723 1.8286-1.5723 5.3833 0 3.4521 1.5381 5.3149 1.5552 1.8457 4.3579 1.8457.97412 0 1.9824-.25635 1.0083-.25634 1.8115-.6665.70068-.35889 1.3159-.75195.61523-.41016.97412-.70069h.1709v3.5376z"/>
   <path style="fill:#454545" d="m-468.43 433.92q1.5552 1.709 2.3755 4.187.83741 2.478.83741 5.6226 0 3.1445-.8545 5.6396-.8374 2.478-2.3584 4.1358-1.5723 1.7261-3.7256 2.5976-2.1362.87158-4.8877.87158-2.6831 0-4.8877-.88867-2.1875-.88867-3.7256-2.5806t-2.3755-4.1528q-.82032-2.4609-.82032-5.6226 0-3.1104.82032-5.5713.82031-2.478 2.3926-4.2383 1.5039-1.6748 3.7256-2.5635 2.2388-.88867 4.8706-.88867 2.7344 0 4.9048.90576 2.1875.88867 3.7085 2.5464zm-.30762 9.8096q0-4.9561-2.2217-7.6392-2.2217-2.7002-6.0669-2.7002-3.8794 0-6.1011 2.7002-2.2046 2.6831-2.2046 7.6392 0 5.0073 2.2559 7.6733 2.2559 2.6489 6.0498 2.6489t6.0327-2.6489q2.2559-2.666 2.2559-7.6733z"/>
   <path style="fill:#454545" d="m-443.31 446.67q0 2.3242-.66651 4.2554-.6665 1.9141-1.8799 3.2471-1.1279 1.2646-2.666 1.9653-1.521.6836-3.23.6836-1.4868 0-2.7002-.32471-1.1963-.32471-2.4438-1.0083v7.998h-3.2129v-26.13h3.2129v1.9995q1.2817-1.0767 2.8711-1.7944 1.6064-.73486 3.418-.73486 3.4522 0 5.3662 2.6147 1.9312 2.5977 1.9312 7.229zm-3.3154.0854q0-3.4522-1.1792-5.1611-1.1792-1.709-3.623-1.709-1.3843 0-2.7856.59815-1.4014.59814-2.6831 1.5723v10.818q1.3672.61524 2.3413.8374.99121.22217 2.2388.22217 2.6831 0 4.187-1.8115t1.5039-5.3662z"/>
   <path style="fill:#454545" d="m-422.33 447.23h-14.065q0 1.7603.52979 3.0762.52978 1.2988 1.4526 2.1362.88867.82031 2.102 1.2305 1.2305.41016 2.7002.41016 1.9482 0 3.9136-.76904 1.9824-.78614 2.8198-1.5381h.1709v3.5034q-1.6235.68359-3.3154 1.145-1.6919.46143-3.5547.46143-4.751 0-7.417-2.5635-2.666-2.5806-2.666-7.3144 0-4.6826 2.5464-7.4341 2.5635-2.7515 6.7334-2.7515 3.8623 0 5.9473 2.2559 2.102 2.2559 2.102 6.4087v1.7432zm-3.1274-2.4609q-.0171-2.5293-1.2817-3.9136-1.2476-1.3843-3.811-1.3843-2.5806 0-4.1186 1.521-1.521 1.521-1.7261 3.7769h10.938z"/>
   <path style="fill:#454545" d="m-405.54 440.86h-.1709q-.71777-.1709-1.4014-.23926-.66651-.0854-1.5894-.0854-1.4868 0-2.8711.66651-1.3843.64941-2.666 1.6919v13.552h-3.2129v-19.089h3.2129v2.8198q1.9141-1.5381 3.3667-2.1704 1.4697-.64942 2.9907-.64942.83741 0 1.2134.0513.37598.0342 1.1279.15381v3.2983z"/>
   <path style="fill:#454545" d="m-388.27 456.44h-3.1958v-2.0337q-.42724.29053-1.1621.82031-.71777.5127-1.4014.82031-.80323.39307-1.8457.64942-1.0425.27343-2.4438.27343-2.5806 0-4.375-1.709t-1.7944-4.3579q0-2.1704.92285-3.5034.93994-1.3501 2.666-2.1191 1.7432-.76904 4.187-1.0425 2.4438-.27344 5.2466-.41016v-.4956q0-1.0938-.39306-1.8115-.37598-.71778-1.0938-1.1279-.6836-.39307-1.6406-.52979-.95703-.13672-1.9995-.13672-1.2646 0-2.8198.3418-1.5552.32471-3.2129.95703h-.17089v-3.2642q.93994-.25635 2.7173-.56396 1.7774-.30762 3.5034-.30762 2.0166 0 3.5034.34179 1.5039.32471 2.5976 1.1279 1.0767.78614 1.6406 2.0337.56396 1.2476.56396 3.0933v12.954zm-3.1958-4.6997v-5.3149q-1.4697.0854-3.4692.25635-1.9824.1709-3.1445.4956-1.3843.39307-2.2388 1.2305-.85449.82032-.85449 2.273 0 1.6406.99121 2.478.99121.82031 3.0249.82031 1.6919 0 3.0933-.64941 1.4014-.66651 2.5976-1.5894z"/>
   <path style="fill:#454545" d="m-372.13 456.27q-.90577.23926-1.9824.39307-1.0596.15381-1.897.15381-2.9224 0-4.4434-1.5723t-1.521-5.0415v-10.151h-2.1704v-2.7002h2.1704v-5.4858h3.2129v5.4858h6.6309v2.7002h-6.6309v8.6987q0 1.5039.0684 2.3584.0684.8374.47851 1.5723.37598.6836 1.0254 1.0083.66651.30762 2.0166.30762.78614 0 1.6406-.22217.85449-.23925 1.2305-.39306h.1709v2.8882z"/>
   <path style="fill:#454545" d="m-351.97 446.91q0 4.6655-2.3926 7.3657t-6.4087 2.7002q-4.0503 0-6.4429-2.7002-2.3755-2.7002-2.3755-7.3657t2.3755-7.3657q2.3926-2.7173 6.4429-2.7173 4.0161 0 6.4087 2.7173 2.3926 2.7002 2.3926 7.3657zm-3.3154 0q0-3.7085-1.4526-5.5029-1.4526-1.8115-4.0332-1.8115-2.6147 0-4.0674 1.8115-1.4356 1.7944-1.4356 5.5029 0 3.5889 1.4526 5.4517 1.4526 1.8457 4.0503 1.8457 2.5635 0 4.0161-1.8286 1.4697-1.8457 1.4697-5.4688z"/>
   <path style="fill:#454545" d="m-335.07 440.86h-.1709q-.71777-.1709-1.4014-.23926-.6665-.0854-1.5894-.0854-1.4868 0-2.8711.66651-1.3843.64941-2.666 1.6919v13.552h-3.2129v-19.089h3.2129v2.8198q1.9141-1.5381 3.3667-2.1704 1.4697-.64942 2.9907-.64942.8374 0 1.2134.0513.37597.0342 1.1279.15381v3.2983z"/>
   <path style="fill:#454545" d="m-318.37 450.94q0 2.6148-2.1704 4.2896-2.1533 1.6748-5.896 1.6748-2.1191 0-3.8965-.4956-1.7602-.5127-2.9565-1.1108v-3.606h.1709q1.521 1.145 3.3838 1.8286 1.8628.6665 3.5718.6665 2.1191 0 3.3154-.68359 1.1963-.6836 1.1963-2.1533 0-1.1279-.64941-1.709-.64941-.58105-2.4951-.99121-.68359-.15381-1.7944-.35889-1.0938-.20507-1.9995-.44433-2.5122-.66651-3.5718-1.9482-1.0425-1.2988-1.0425-3.1787 0-1.1792.47852-2.2217.4956-1.0425 1.4868-1.8628.95703-.80322 2.4268-1.2646 1.4868-.47851 3.3154-.47851 1.709 0 3.4522.42724 1.7602.41016 2.9224 1.0083v3.4351h-.1709q-1.2305-.90576-2.9907-1.521-1.7602-.63233-3.4522-.63233-1.7602 0-2.9736.6836-1.2134.6665-1.2134 1.9995 0 1.1792.73486 1.7773.71778.59815 2.3242.97412.88867.20508 1.9824.41016 1.1108.20508 1.8457.37598 2.2388.51269 3.4522 1.7602 1.2134 1.2646 1.2134 3.3496z"/>
  </g>
  <g style="fill:#454545">
   <path d="m-507.28 517.02h-11.31v11.31h-3.4448v-11.31h-11.31v-3.3203h11.31v-11.31h3.4448v11.31h11.31v3.3203z"/>
   <path d="m-490.99 522.98-5.852 13.593h-3.0298l3.6108-13.593h5.271z"/>
   <path d="m-456.42 517.25h-12.949v-3.7561h12.949v3.7561z"/>
   <path d="m-441.27 522.98-5.852 13.593h-3.0298l3.6108-13.593h5.271z"/>
   <path d="m-398.91 528.89h-4.9182l-6.5784-8.9026-6.6199 8.9026h-4.5447l9.0479-11.559-8.9648-11.621h4.9182l6.5369 8.7573 6.5576-8.7573h4.5654l-9.1101 11.414 9.1101 11.766z"/>
   <path d="m-385.74 522.98-5.8521 13.593h-3.0298l3.6108-13.593h5.271z"/>
   <path d="m-349.44 496.6-14.879 38.599h-3.5901l14.817-38.599h3.6523z"/>
   <path d="m-336.02 522.98-5.8521 13.593h-3.0298l3.6108-13.593h5.271z"/>
   <path d="m-299.22 506.56q0 4.6484-1.9714 6.9104-1.9507 2.262-5.6445 2.262-3.7768 0-5.7068-2.262-1.9299-2.262-1.9299-6.8896 0-4.6484 1.9714-6.9104t5.6653-2.262q3.7561 0 5.686 2.2827t1.9299 6.8689zm14.34-8.5706-16.187 30.9h-3.4241l16.187-30.9h3.4241zm9.9609 22.329q0 4.6484-1.9714 6.9104t-5.6653 2.262q-3.7561 0-5.686-2.2827t-1.9299-6.8689q0-4.6484 1.9507-6.9104 1.9714-2.262 5.6653-2.262 3.7768 0 5.7068 2.262 1.9299 2.262 1.9299 6.8896zm-28-13.76q0-3.5693-.93384-4.9805-.91308-1.4111-2.9883-1.4111-2.1167 0-3.0298 1.4111-.91309 1.4111-.91309 5.0012t.91309 5.0012q.91308 1.3904 3.0298 1.3904 2.0752 0 2.9883-1.3904.93384-1.4111.93384-5.022zm24.301 13.759q0-3.5693-.93384-4.9805-.91308-1.4111-2.9883-1.4111-2.1167 0-3.0298 1.4111-.91309 1.4111-.91309 5.0012t.91309 5.0012q.91308 1.3904 3.0298 1.3904 2.0752 0 2.9883-1.3904.93384-1.4111.93384-5.022z"/>
  </g>
  <path style="stroke:#2196f3;stroke-width:4;fill:none" d="m56.468 266.51v104.29"/>
  <path style="opacity:0.942;stroke-linejoin:round;color-rendering:auto;color:#000000;isolation:auto;mix-blend-mode:normal;shape-rendering:auto;solid-color:#000000;stroke:#2196f3;image-rendering:auto;stroke-width:4;fill:none" d="m-131.53 373.21h376v178.94h-376z"/>
  <g style="fill:#454545">
   <path style="fill:#454545" d="m-5.4143 412.69h-4.3921l-8.5107-10.117h-4.7681v10.117h-3.3838v-25.447h7.1265q2.3071 0 3.8452.30762 1.5381.29053 2.7686 1.0596 1.3843.87158 2.1533 2.2046.78613 1.3159.78613 3.3496 0 2.7515-1.3843 4.6143-1.3843 1.8457-3.811 2.7856l9.5703 11.125zm-7.9127-18.28q0-1.0938-.39307-1.9312-.37598-.85449-1.2646-1.4355-.73486-.49561-1.7432-.6836-1.0083-.20507-2.3755-.20507h-3.9819v9.6045h3.418q1.6064 0 2.8027-.27344 1.1963-.29053 2.0337-1.0596.76904-.71777 1.1279-1.6406.37598-.93994.37598-2.3755z"/>
   <path style="fill:#454545" d="m12.769 403.48h-14.065q0 1.7603.52979 3.0762.52979 1.2988 1.4526 2.1362.88867.82031 2.1021 1.2305 1.2305.41016 2.7002.41016 1.9482 0 3.9136-.76904 1.9824-.78614 2.8198-1.5381h.17090v3.5034q-1.6235.68359-3.3154 1.145-1.6919.46143-3.5547.46143-4.751 0-7.417-2.5635-2.666-2.5806-2.666-7.3144 0-4.6826 2.5464-7.4341 2.5635-2.7515 6.7334-2.7515 3.8623 0 5.9473 2.2559 2.102 2.2559 2.102 6.4087v1.7432zm-3.1271-2.46q-.01709-2.5293-1.2817-3.9136-1.2476-1.3843-3.811-1.3843-2.5806 0-4.1187 1.521-1.521 1.521-1.7261 3.7769h10.938z"/>
   <path style="fill:#454545" d="m20.887 412.69h-3.2129v-26.592h3.2129v26.592z"/>
   <path style="fill:#454545" d="m41.976 412.69h-3.1958v-2.0337q-.42725.29053-1.1621.82031-.71777.5127-1.4014.82031-.80322.39307-1.8457.64942-1.0425.27343-2.4438.27343-2.5806 0-4.375-1.709t-1.7944-4.3579q0-2.1704.92285-3.5034.93994-1.3501 2.666-2.1191 1.7432-.76904 4.187-1.0425 2.4438-.27344 5.2466-.41016v-.4956q0-1.0938-.39307-1.8115-.37598-.71778-1.0938-1.1279-.68359-.39307-1.6406-.52979-.95703-.13672-1.9995-.13672-1.2646 0-2.8198.3418-1.5552.32471-3.2129.95703h-.17090v-3.2642q.93994-.25635 2.7173-.56396 1.7773-.30762 3.5034-.30762 2.0166 0 3.5034.34179 1.5039.32471 2.5977 1.1279 1.0767.78614 1.6406 2.0337.56396 1.2476.56396 3.0933v12.954zm-3.1958-4.6997v-5.3149q-1.4697.0854-3.4692.25635-1.9824.1709-3.1445.4956-1.3843.39307-2.2388 1.2305-.85449.82032-.85449 2.273 0 1.6406.99121 2.478.99121.82031 3.0249.82031 1.6919 0 3.0933-.64941 1.4014-.66651 2.5977-1.5894z"/>
   <path style="fill:#454545" d="m58.109 412.52q-.90576.23926-1.9824.39307-1.0596.15381-1.897.15381-2.9224 0-4.4434-1.5723t-1.521-5.0415v-10.151h-2.1704v-2.7002h2.1704v-5.4858h3.2129v5.4858h6.6309v2.7002h-6.6309v8.6987q0 1.5039.06836 2.3584.06836.8374.47852 1.5723.37598.6836 1.0254 1.0083.66650.30762 2.0166.30762.78613 0 1.6406-.22217.85449-.23925 1.2305-.39306h.17090v2.8882z"/>
   <path style="fill:#454545" d="m65.457 390.41h-3.623v-3.3325h3.623v3.3325zm-.20508 22.285h-3.2129v-19.089h3.2129v19.089z"/>
   <path style="fill:#454545" d="m87.777 403.16q0 4.6655-2.3926 7.3657t-6.4087 2.7002q-4.0503 0-6.4429-2.7002-2.3755-2.7002-2.3755-7.3657t2.3755-7.3657q2.3926-2.7173 6.4429-2.7173 4.0161 0 6.4087 2.7173 2.3926 2.7002 2.3926 7.3657zm-3.3154 0q0-3.7085-1.4526-5.5029-1.4526-1.8115-4.0332-1.8115-2.6147 0-4.0674 1.8115-1.4355 1.7944-1.4355 5.5029 0 3.5889 1.4526 5.4517 1.4526 1.8457 4.0503 1.8457 2.5635 0 4.0161-1.8286 1.4697-1.8457 1.4697-5.4688z"/>
   <path style="fill:#454545" d="m108.73 412.69h-3.2129v-10.869q0-1.3159-.15381-2.4609-.1538-1.1621-.56396-1.8115-.42725-.71778-1.2305-1.0596-.80322-.35889-2.085-.35889-1.3159 0-2.7515.64941-1.4355.64942-2.7515 1.6577v14.253h-3.2129v-19.089h3.2129v2.1191q1.5039-1.2476 3.1104-1.9482 1.6064-.70068 3.2983-.70068 3.0933 0 4.7168 1.8628t1.6235 5.3662v12.39z"/>
   <path style="fill:#454545" d="m129.75 412.69h-3.1958v-2.0337q-.42724.29053-1.1621.82031-.71777.5127-1.4014.82031-.80322.39307-1.8457.64942-1.0425.27343-2.4438.27343-2.5806 0-4.375-1.709t-1.7944-4.3579q0-2.1704.92285-3.5034.93994-1.3501 2.666-2.1191 1.7432-.76904 4.187-1.0425 2.4438-.27344 5.2466-.41016v-.4956q0-1.0938-.39307-1.8115-.37597-.71778-1.0938-1.1279-.68359-.39307-1.6406-.52979-.95703-.13672-1.9995-.13672-1.2646 0-2.8198.3418-1.5552.32471-3.2129.95703h-.1709v-3.2642q.93995-.25635 2.7173-.56396 1.7773-.30762 3.5034-.30762 2.0166 0 3.5034.34179 1.5039.32471 2.5976 1.1279 1.0767.78614 1.6406 2.0337.56396 1.2476.56396 3.0933v12.954zm-3.1958-4.6997v-5.3149q-1.4697.0854-3.4692.25635-1.9824.1709-3.1445.4956-1.3843.39307-2.2388 1.2305-.85449.82032-.85449 2.273 0 1.6406.99121 2.478.99121.82031 3.0249.82031 1.6919 0 3.0933-.64941 1.4014-.66651 2.5977-1.5894z"/>
   <path style="fill:#454545" d="m139.22 412.69h-3.2129v-26.592h3.2129v26.592z"/>
   <path style="fill:#454545" d="m-8.3537 433.92q1.5552 1.709 2.3755 4.187.83740 2.478.83740 5.6226 0 3.1445-.85449 5.6396-.83740 2.478-2.3584 4.1358-1.5723 1.7261-3.7256 2.5976-2.1362.87158-4.8877.87158-2.6831 0-4.8877-.88867-2.1875-.88867-3.7256-2.5806t-2.3755-4.1528q-.82031-2.4609-.82031-5.6226 0-3.1104.82031-5.5713.82031-2.478 2.3926-4.2383 1.5039-1.6748 3.7256-2.5635 2.2388-.88867 4.8706-.88867 2.7344 0 4.9048.90576 2.1875.88867 3.7085 2.5464zm-.30762 9.8096q0-4.9561-2.2217-7.6392-2.2217-2.7002-6.0669-2.7002-3.8794 0-6.1011 2.7002-2.2046 2.6831-2.2046 7.6392 0 5.0073 2.2559 7.6733 2.2559 2.6489 6.0498 2.6489t6.0327-2.6489q2.2559-2.666 2.2559-7.6733z"/>
   <path style="fill:#454545" d="m16.768 446.67q0 2.3242-.66650 4.2554-.66650 1.9141-1.8799 3.2471-1.1279 1.2646-2.666 1.9653-1.521.6836-3.23.6836-1.4868 0-2.7002-.32471-1.1963-.32471-2.4438-1.0083v7.998h-3.2129v-26.13h3.2129v1.9995q1.2817-1.0767 2.8711-1.7944 1.6064-.73486 3.418-.73486 3.4521 0 5.3662 2.6147 1.9312 2.5977 1.9312 7.229zm-3.3154.0854q0-3.4522-1.1792-5.1611-1.1792-1.709-3.623-1.709-1.3843 0-2.7856.59815-1.4014.59814-2.6831 1.5723v10.818q1.3672.61524 2.3413.8374.99121.22217 2.2388.22217 2.6831 0 4.187-1.8115t1.5039-5.3662z"/>
   <path style="fill:#454545" d="m37.755 447.23h-14.065q0 1.7603.52978 3.0762.52978 1.2988 1.4526 2.1362.88867.82031 2.1021 1.2305 1.2305.41016 2.7002.41016 1.9482 0 3.9136-.76904 1.9824-.78614 2.8198-1.5381h.17090v3.5034q-1.6235.68359-3.3154 1.145-1.6919.46143-3.5547.46143-4.751 0-7.417-2.5635-2.666-2.5806-2.666-7.3144 0-4.6826 2.5464-7.4341 2.5635-2.7515 6.7334-2.7515 3.8623 0 5.9473 2.2559 2.1021 2.2559 2.1021 6.4087v1.7432zm-3.1274-2.4609q-.01709-2.5293-1.2817-3.9136-1.2476-1.3843-3.811-1.3843-2.5806 0-4.1187 1.521-1.521 1.521-1.7261 3.7769h10.938z"/>
   <path style="fill:#454545" d="m54.537 440.86h-.17090q-.71777-.1709-1.4014-.23926-.66650-.0854-1.5894-.0854-1.4868 0-2.8711.66651-1.3843.64941-2.666 1.6919v13.552h-3.2129v-19.089h3.2129v2.8198q1.9141-1.5381 3.3667-2.1704 1.4697-.64942 2.9907-.64942.83740 0 1.2134.0513.37598.0342 1.1279.15381v3.2983z"/>
   <path style="fill:#454545" d="m71.815 456.44h-3.1958v-2.0337q-.42725.29053-1.1621.82031-.71777.5127-1.4014.82031-.80322.39307-1.8457.64942-1.0425.27343-2.4438.27343-2.5806 0-4.375-1.709t-1.7944-4.3579q0-2.1704.92285-3.5034.93994-1.3501 2.666-2.1191 1.7432-.76904 4.187-1.0425 2.4438-.27344 5.2466-.41016v-.4956q0-1.0938-.39307-1.8115-.37598-.71778-1.0938-1.1279-.68359-.39307-1.6406-.52979-.95703-.13672-1.9995-.13672-1.2646 0-2.8198.3418-1.5552.32471-3.2129.95703h-.17090v-3.2642q.93994-.25635 2.7173-.56396 1.7773-.30762 3.5034-.30762 2.0166 0 3.5034.34179 1.5039.32471 2.5977 1.1279 1.0767.78614 1.6406 2.0337.56396 1.2476.56396 3.0933v12.954zm-3.1958-4.6997v-5.3149q-1.4697.0854-3.4692.25635-1.9824.1709-3.1445.4956-1.3843.39307-2.2388 1.2305-.85449.82032-.85449 2.273 0 1.6406.99121 2.478.99121.82031 3.0249.82031 1.6919 0 3.0933-.64941 1.4014-.66651 2.5977-1.5894z"/>
   <path style="fill:#454545" d="m87.948 456.27q-.90576.23926-1.9824.39307-1.0596.15381-1.897.15381-2.9224 0-4.4434-1.5723t-1.521-5.0415v-10.151h-2.1704v-2.7002h2.1704v-5.4858h3.2129v5.4858h6.6309v2.7002h-6.6309v8.6987q0 1.5039.06836 2.3584.06836.8374.47852 1.5723.37598.6836 1.0254 1.0083.66650.30762 2.0166.30762.78613 0 1.6406-.22217.85449-.23925 1.2305-.39306h.17090v2.8882z"/>
   <path style="fill:#454545" d="m108.11 446.91q0 4.6655-2.3926 7.3657t-6.4087 2.7002q-4.0503 0-6.4429-2.7002-2.3755-2.7002-2.3755-7.3657t2.3755-7.3657q2.3926-2.7173 6.4429-2.7173 4.0161 0 6.4087 2.7173 2.3926 2.7002 2.3926 7.3657zm-3.3154 0q0-3.7085-1.4526-5.5029-1.4526-1.8115-4.0332-1.8115-2.6147 0-4.0674 1.8115-1.4355 1.7944-1.4355 5.5029 0 3.5889 1.4526 5.4517 1.4526 1.8457 4.0503 1.8457 2.5635 0 4.0161-1.8286 1.4697-1.8457 1.4697-5.4688z"/>
   <path style="fill:#454545" d="m125.02 440.86h-.1709q-.71778-.1709-1.4014-.23926-.6665-.0854-1.5894-.0854-1.4868 0-2.8711.66651-1.3843.64941-2.666 1.6919v13.552h-3.2129v-19.089h3.2129v2.8198q1.9141-1.5381 3.3667-2.1704 1.4697-.64942 2.9907-.64942.8374 0 1.2134.0513.37597.0342 1.1279.15381v3.2983z"/>
   <path style="fill:#454545" d="m141.71 450.94q0 2.6148-2.1704 4.2896-2.1533 1.6748-5.896 1.6748-2.1191 0-3.8965-.4956-1.7602-.5127-2.9565-1.1108v-3.606h.1709q1.521 1.145 3.3838 1.8286 1.8628.6665 3.5718.6665 2.1191 0 3.3154-.68359 1.1963-.6836 1.1963-2.1533 0-1.1279-.64941-1.709-.64942-.58105-2.4951-.99121-.68359-.15381-1.7944-.35889-1.0938-.20507-1.9995-.44433-2.5122-.66651-3.5718-1.9482-1.0425-1.2988-1.0425-3.1787 0-1.1792.47851-2.2217.49561-1.0425 1.4868-1.8628.95703-.80322 2.4268-1.2646 1.4868-.47851 3.3154-.47851 1.709 0 3.4522.42724 1.7602.41016 2.9224 1.0083v3.4351h-.1709q-1.2305-.90576-2.9907-1.521-1.7603-.63233-3.4522-.63233-1.7602 0-2.9736.6836-1.2134.6665-1.2134 1.9995 0 1.1792.73486 1.7773.71777.59815 2.3242.97412.88867.20508 1.9824.41016 1.1108.20508 1.8457.37598 2.2388.51269 3.4521 1.7602 1.2134 1.2646 1.2134 3.3496z"/>
  </g>
  <g style="fill:#454545">
   <path d="m-97.563 527.29-23.948-10.646v-2.5732l23.948-10.646v3.7354l-18.884 8.197 18.884 8.197v3.7354z"/>
   <path d="m-80.069 522.98-5.8521 13.593h-3.0298l3.6108-13.593h5.271z"/>
   <path d="m-32.112 516.65-23.948 10.646v-3.7354l18.884-8.197-18.884-8.197v-3.7354l23.948 10.646v2.5732z"/>
   <path d="m17.319 527.29-23.948-10.646v-2.5732l23.948-10.646v3.7354l-18.884 8.197 18.884 8.197v3.7354z"/>
   <path d="m52.577 512.66h-24.612v-3.3203h24.612v3.3203zm0 8.7158h-24.612v-3.3203h24.612v3.3203z"/>
   <path d="m69.594 522.98-5.8521 13.593h-3.0298l3.6108-13.593h5.271z"/>
   <path d="m117.55 516.65-23.948 10.646v-3.7354l18.884-8.197-18.884-8.197v-3.7354l23.948 10.646v2.5732z"/>
   <path d="m152.52 512.66h-24.612v-3.3203h24.612v3.3203zm0 8.7158h-24.612v-3.3203h24.612v3.3203z"/>
   <path d="m169.54 522.98-5.852 13.593h-3.0298l3.6108-13.593h5.271z"/>
   <path d="m198.67 497.99-.53955 22.391h-3.5278l-.58105-22.391h4.6484zm-.20752 30.9h-4.2334v-4.3787h4.2334v4.3787z"/>
   <path d="m234.45 512.66h-24.612v-3.3203h24.612v3.3203zm0 8.7158h-24.612v-3.3203h24.612v3.3203z"/>
  </g>
  <path style="stroke:#ff5722;stroke-width:4;stroke-opacity:.94510;fill:none" d="m517.07 263.89v106.9"/>
  <path style="opacity:0.942;stroke-linejoin:round;color-rendering:auto;stroke-opacity:.94510;color:#000000;isolation:auto;mix-blend-mode:normal;shape-rendering:auto;solid-color:#000000;stroke:#ff5722;image-rendering:auto;stroke-width:4;fill:none" d="m329.07 373.21h376v178.94h-376z"/>
  <g style="fill:#454545">
   <path style="fill:#454545" d="m475.9 412.69h-16.099v-25.447h3.3838v22.439h12.715v3.0078z"/>
   <path style="fill:#454545" d="m495.3 403.16q0 4.6655-2.3926 7.3657t-6.4087 2.7002q-4.0503 0-6.4429-2.7002-2.3755-2.7002-2.3755-7.3657t2.3755-7.3657q2.3926-2.7173 6.4429-2.7173 4.0161 0 6.4087 2.7173 2.3926 2.7002 2.3926 7.3657zm-3.3154 0q0-3.7085-1.4526-5.5029-1.4526-1.8115-4.0332-1.8115-2.6147 0-4.0674 1.8115-1.4356 1.7944-1.4356 5.5029 0 3.5889 1.4526 5.4517 1.4526 1.8457 4.0503 1.8457 2.5635 0 4.0161-1.8286 1.4697-1.8457 1.4697-5.4688z"/>
   <path style="fill:#454545" d="m515.77 410.52q0 4.8535-2.2046 7.1265t-6.7847 2.273q-1.521 0-2.9736-.22216-1.4355-.20508-2.8369-.59815v-3.2812h.1709q.78613.30762 2.4951.75195 1.709.46143 3.418.46143 1.6406 0 2.7173-.39307 1.0767-.39306 1.6748-1.0938.59815-.6665.8545-1.6064.25634-.93994.25634-2.102v-1.7432q-1.4526 1.1621-2.7856 1.7432-1.3159.56396-3.3667.56396-3.418 0-5.4346-2.4609-1.9995-2.478-1.9995-6.9726 0-2.4609.68359-4.2383.70068-1.7944 1.897-3.0933 1.1108-1.2134 2.7002-1.8799 1.5894-.68359 3.1616-.68359 1.6577 0 2.7686.3418 1.1279.3247 2.3755 1.0083l.20508-.82032h3.0078v16.919zm-3.2129-3.0762v-10.408q-1.2817-.58105-2.3926-.82031-1.0938-.25635-2.1875-.25635-2.6489 0-4.1699 1.7774-1.521 1.7773-1.521 5.1611 0 3.2129 1.1279 4.8706t3.7427 1.6577q1.4014 0 2.8027-.52979 1.4184-.54687 2.5976-1.4526z"/>
   <path style="fill:#454545" d="m525.55 390.41h-3.623v-3.3325h3.623v3.3325zm-.20507 22.285h-3.2129v-19.089h3.2129v19.089z"/>
   <path style="fill:#454545" d="m545.71 411.5q-1.6064.76904-3.0591 1.1963-1.4356.42725-3.0591.42725-2.0679 0-3.794-.59815-1.7261-.61523-2.9565-1.8457-1.2476-1.2305-1.9312-3.1104t-.6836-4.3921q0-4.6826 2.5635-7.3486 2.5806-2.666 6.8018-2.666 1.6406 0 3.2129.46142 1.5894.46143 2.9053 1.1279v3.5718h-.1709q-1.4697-1.145-3.042-1.7602-1.5552-.61524-3.042-.61524-2.7344 0-4.3237 1.8457-1.5723 1.8286-1.5723 5.3833 0 3.4521 1.5381 5.3149 1.5552 1.8457 4.3579 1.8457.97412 0 1.9824-.25635 1.0083-.25634 1.8115-.6665.70069-.35889 1.3159-.75195.61524-.41016.97412-.70069h.1709v3.5376z"/>
   <path style="fill:#454545" d="m564.68 412.69h-3.1958v-2.0337q-.42725.29053-1.1621.82031-.71778.5127-1.4014.82031-.80322.39307-1.8457.64942-1.0425.27343-2.4438.27343-2.5806 0-4.375-1.709t-1.7944-4.3579q0-2.1704.92285-3.5034.93994-1.3501 2.666-2.1191 1.7432-.76904 4.187-1.0425 2.4438-.27344 5.2466-.41016v-.4956q0-1.0938-.39307-1.8115-.37598-.71778-1.0938-1.1279-.68359-.39307-1.6406-.52979-.95703-.13672-1.9995-.13672-1.2646 0-2.8198.3418-1.5552.32471-3.2129.95703h-.1709v-3.2642q.93994-.25635 2.7173-.56396 1.7774-.30762 3.5034-.30762 2.0166 0 3.5034.34179 1.5039.32471 2.5977 1.1279 1.0767.78614 1.6406 2.0337.56397 1.2476.56397 3.0933v12.954zm-3.1958-4.6997v-5.3149q-1.4697.0854-3.4692.25635-1.9824.1709-3.1445.4956-1.3843.39307-2.2388 1.2305-.8545.82032-.8545 2.273 0 1.6406.99122 2.478.99121.82031 3.0249.82031 1.6919 0 3.0933-.64941 1.4014-.66651 2.5977-1.5894z"/>
   <path style="fill:#454545" d="m574.15 412.69h-3.2129v-26.592h3.2129v26.592z"/>
   <path style="fill:#454545" d="m452.25 433.92q1.5552 1.709 2.3755 4.187.83741 2.478.83741 5.6226 0 3.1445-.8545 5.6396-.8374 2.478-2.3584 4.1358-1.5723 1.7261-3.7256 2.5976-2.1362.87158-4.8877.87158-2.6831 0-4.8877-.88867-2.1875-.88867-3.7256-2.5806t-2.3755-4.1528q-.82031-2.4609-.82031-5.6226 0-3.1104.82031-5.5713.82032-2.478 2.3926-4.2383 1.5039-1.6748 3.7256-2.5635 2.2388-.88867 4.8706-.88867 2.7344 0 4.9048.90576 2.1875.88867 3.7085 2.5464zm-.30761 9.8096q0-4.9561-2.2217-7.6392-2.2217-2.7002-6.0669-2.7002-3.8794 0-6.1011 2.7002-2.2046 2.6831-2.2046 7.6392 0 5.0073 2.2559 7.6733 2.2559 2.6489 6.0498 2.6489 3.794 0 6.0327-2.6489 2.2559-2.666 2.2559-7.6733z"/>
   <path style="fill:#454545" d="m477.37 446.67q0 2.3242-.66651 4.2554-.6665 1.9141-1.8799 3.2471-1.1279 1.2646-2.666 1.9653-1.521.6836-3.23.6836-1.4868 0-2.7002-.32471-1.1963-.32471-2.4438-1.0083v7.998h-3.2129v-26.13h3.2129v1.9995q1.2817-1.0767 2.8711-1.7944 1.6064-.73486 3.418-.73486 3.4522 0 5.3662 2.6147 1.9312 2.5977 1.9312 7.229zm-3.3154.0854q0-3.4522-1.1792-5.1611-1.1792-1.709-3.623-1.709-1.3843 0-2.7856.59815-1.4014.59814-2.6831 1.5723v10.818q1.3672.61524 2.3413.8374.99121.22217 2.2388.22217 2.6831 0 4.187-1.8115t1.5039-5.3662z"/>
   <path style="fill:#454545" d="m498.36 447.23h-14.065q0 1.7603.52979 3.0762.52978 1.2988 1.4526 2.1362.88868.82031 2.102 1.2305 1.2305.41016 2.7002.41016 1.9482 0 3.9136-.76904 1.9824-.78614 2.8198-1.5381h.1709v3.5034q-1.6235.68359-3.3154 1.145-1.6919.46143-3.5547.46143-4.751 0-7.417-2.5635-2.666-2.5806-2.666-7.3144 0-4.6826 2.5464-7.4341 2.5635-2.7515 6.7334-2.7515 3.8623 0 5.9473 2.2559 2.102 2.2559 2.102 6.4087v1.7432zm-3.1274-2.4609q-.0171-2.5293-1.2817-3.9136-1.2476-1.3843-3.811-1.3843-2.5806 0-4.1186 1.521-1.521 1.521-1.7261 3.7769h10.938z"/>
   <path style="fill:#454545" d="m515.14 440.86h-.1709q-.71777-.1709-1.4014-.23926-.6665-.0854-1.5894-.0854-1.4868 0-2.8711.66651-1.3843.64941-2.666 1.6919v13.552h-3.2129v-19.089h3.2129v2.8198q1.9141-1.5381 3.3667-2.1704 1.4697-.64942 2.9907-.64942.8374 0 1.2134.0513.37598.0342 1.1279.15381v3.2983z"/>
   <path style="fill:#454545" d="m532.42 456.44h-3.1958v-2.0337q-.42725.29053-1.1621.82031-.71777.5127-1.4014.82031-.80322.39307-1.8457.64942-1.0425.27343-2.4438.27343-2.5806 0-4.375-1.709t-1.7944-4.3579q0-2.1704.92285-3.5034.93994-1.3501 2.666-2.1191 1.7432-.76904 4.187-1.0425 2.4438-.27344 5.2466-.41016v-.4956q0-1.0938-.39307-1.8115-.37597-.71778-1.0938-1.1279-.68359-.39307-1.6406-.52979-.95703-.13672-1.9995-.13672-1.2646 0-2.8198.3418-1.5552.32471-3.2129.95703h-.1709v-3.2642q.93995-.25635 2.7173-.56396 1.7773-.30762 3.5034-.30762 2.0166 0 3.5034.34179 1.5039.32471 2.5976 1.1279 1.0767.78614 1.6406 2.0337.56396 1.2476.56396 3.0933v12.954zm-3.1958-4.6997v-5.3149q-1.4697.0854-3.4692.25635-1.9824.1709-3.1445.4956-1.3843.39307-2.2388 1.2305-.85449.82032-.85449 2.273 0 1.6406.99121 2.478.99121.82031 3.0249.82031 1.6919 0 3.0933-.64941 1.4014-.66651 2.5977-1.5894z"/>
   <path style="fill:#454545" d="m548.55 456.27q-.90576.23926-1.9824.39307-1.0596.15381-1.897.15381-2.9224 0-4.4434-1.5723t-1.521-5.0415v-10.151h-2.1704v-2.7002h2.1704v-5.4858h3.2129v5.4858h6.6309v2.7002h-6.6309v8.6987q0 1.5039.0684 2.3584.0684.8374.47852 1.5723.37598.6836 1.0254 1.0083.6665.30762 2.0166.30762.78613 0 1.6406-.22217.85449-.23925 1.2305-.39306h.17089v2.8882z"/>
   <path style="fill:#454545" d="m568.72 446.91q0 4.6655-2.3926 7.3657t-6.4087 2.7002q-4.0503 0-6.4429-2.7002-2.3755-2.7002-2.3755-7.3657t2.3755-7.3657q2.3926-2.7173 6.4429-2.7173 4.0161 0 6.4087 2.7173 2.3926 2.7002 2.3926 7.3657zm-3.3154 0q0-3.7085-1.4526-5.5029-1.4526-1.8115-4.0332-1.8115-2.6148 0-4.0674 1.8115-1.4356 1.7944-1.4356 5.5029 0 3.5889 1.4526 5.4517 1.4526 1.8457 4.0503 1.8457 2.5635 0 4.0161-1.8286 1.4697-1.8457 1.4697-5.4688z"/>
   <path style="fill:#454545" d="m585.62 440.86h-.1709q-.71778-.1709-1.4014-.23926-.6665-.0854-1.5894-.0854-1.4868 0-2.8711.66651-1.3843.64941-2.666 1.6919v13.552h-3.2129v-19.089h3.2129v2.8198q1.9141-1.5381 3.3667-2.1704 1.4697-.64942 2.9907-.64942.8374 0 1.2134.0513.37597.0342 1.1279.15381v3.2983z"/>
   <path style="fill:#454545" d="m602.31 450.94q0 2.6148-2.1704 4.2896-2.1533 1.6748-5.896 1.6748-2.1191 0-3.8965-.4956-1.7602-.5127-2.9565-1.1108v-3.606h.1709q1.521 1.145 3.3838 1.8286 1.8628.6665 3.5718.6665 2.1191 0 3.3154-.68359 1.1963-.6836 1.1963-2.1533 0-1.1279-.64941-1.709-.64942-.58105-2.4951-.99121-.68359-.15381-1.7944-.35889-1.0938-.20507-1.9995-.44433-2.5122-.66651-3.5718-1.9482-1.0425-1.2988-1.0425-3.1787 0-1.1792.47851-2.2217.49561-1.0425 1.4868-1.8628.95703-.80322 2.4268-1.2646 1.4868-.47851 3.3154-.47851 1.709 0 3.4522.42724 1.7602.41016 2.9224 1.0083v3.4351h-.1709q-1.2305-.90576-2.9907-1.521-1.7603-.63233-3.4522-.63233-1.7602 0-2.9736.6836-1.2134.6665-1.2134 1.9995 0 1.1792.73486 1.7773.71778.59815 2.3242.97412.88867.20508 1.9824.41016 1.1108.20508 1.8457.37598 2.2388.51269 3.4521 1.7602 1.2134 1.2646 1.2134 3.3496z"/>
  </g>
  <g style="fill:#454545">
   <path d="m446.37 504.18q0-1.9714-1.1829-3.092-1.1621-1.1414-2.9883-1.1414-1.9092 0-3.1128 1.2866-1.2036 1.2659-1.2036 3.1128 0 1.5564.80933 2.76.83007 1.2036 3.5486 2.843 2.0337-.72632 3.0713-2.1167 1.0584-1.4111 1.0584-3.6523zm4.0259 18.179-9.9194-9.6704q-.64331.31128-1.2866.83007-.64331.49805-1.2866 1.3696-.58105.80933-.95459 1.9507-.37353 1.1414-.37353 2.5732 0 3.0298 1.7639 4.8975 1.7847 1.8469 5.0427 1.8469 1.9299 0 3.8184-.93384 1.9092-.95459 3.1958-2.8638zm6.2463-12.327v1.9922q0 1.9922-.5188 4.4824t-1.7639 4.7522l7.8442 7.6367h-5.105l-4.7522-4.6484q-2.3865 2.9468-4.8767 4.1296-2.4902 1.1621-5.1257 1.1621-4.3164 0-7.1802-2.511-2.843-2.5317-2.843-6.6199 0-1.9092.53955-3.2996t1.2659-2.4072q.72631-.97535 1.8054-1.8262 1.0791-.87158 2.179-1.5149-2.2827-1.4941-3.2996-3.009-.99609-1.5149-.99609-3.8184 0-1.3904.53955-2.6355.5603-1.2659 1.6602-2.3035 1.0376-.99609 2.6978-1.6186 1.6809-.62256 3.6938-.62256 3.5901 0 5.8105 1.8262 2.2205 1.8054 2.2205 4.5862 0 .91308-.24902 2.0752-.24902 1.1414-.85083 2.0544-.66406 1.0168-1.8884 1.9507-1.2244.93384-3.175 1.5979l7.699 7.5122q.29052-.83008.43579-1.8262.14526-.9961.16601-2.0752.0415-1.1621.0208-2.594 0-1.4319 0-2.428h4.0466z"/>
   <path d="m477.25 504.18q0-1.9714-1.1829-3.092-1.1621-1.1414-2.9883-1.1414-1.9092 0-3.1128 1.2866-1.2036 1.2659-1.2036 3.1128 0 1.5564.80932 2.76.83008 1.2036 3.5486 2.843 2.0337-.72632 3.0713-2.1167 1.0584-1.4111 1.0584-3.6523zm4.0259 18.179-9.9194-9.6704q-.64331.31128-1.2866.83007-.64331.49805-1.2866 1.3696-.58105.80933-.95459 1.9507t-.37354 2.5732q0 3.0298 1.7639 4.8975 1.7847 1.8469 5.0427 1.8469 1.9299 0 3.8184-.93384 1.9092-.95459 3.1958-2.8638zm6.2463-12.327v1.9922q0 1.9922-.5188 4.4824t-1.7639 4.7522l7.8442 7.6367h-5.105l-4.7522-4.6484q-2.3865 2.9468-4.8767 4.1296-2.4902 1.1621-5.1257 1.1621-4.3164 0-7.1802-2.511-2.843-2.5317-2.843-6.6199 0-1.9092.53955-3.2996.53956-1.3904 1.2659-2.4072.72632-.97535 1.8054-1.8262 1.0791-.87158 2.179-1.5149-2.2827-1.4941-3.2996-3.009-.9961-1.5149-.9961-3.8184 0-1.3904.53956-2.6355.5603-1.2659 1.6602-2.3035 1.0376-.99609 2.6978-1.6186 1.6809-.62256 3.6938-.62256 3.5901 0 5.8106 1.8262 2.2205 1.8054 2.2205 4.5862 0 .91308-.24902 2.0752-.24903 1.1414-.85083 2.0544-.66407 1.0168-1.8884 1.9507-1.2244.93384-3.175 1.5979l7.699 7.5122q.29052-.83008.43579-1.8262.14526-.9961.16601-2.0752.0415-1.1621.0207-2.594 0-1.4319 0-2.428h4.0466z"/>
   <path d="m503.62 522.98-5.852 13.593h-3.0298l3.6108-13.593h5.271z"/>
   <path d="m533.53 537.03h-3.6108v-40.425h3.6108v40.425z"/>
   <path d="m552.87 537.03h-3.6108v-40.425h3.6108v40.425z"/>
   <path d="m572.68 522.98-5.852 13.593h-3.0298l3.6108-13.593h5.271z"/>
   <path d="m601.82 497.99-.53955 22.391h-3.5278l-.58105-22.391h4.6484zm-.20751 30.9h-4.2334v-4.3787h4.2334v4.3787z"/>
  </g>
  <path style="stroke:#ffc107;stroke-width:4;fill:none" d="m977.67 262.51v106.9"/>
  <path style="opacity:0.942;stroke-linejoin:round;color-rendering:auto;stroke-opacity:.74510;color:#000000;isolation:auto;mix-blend-mode:normal;shape-rendering:auto;solid-color:#000000;stroke:#ffc107;image-rendering:auto;stroke-width:4;fill:none" d="m789.67 373.21h376v178.94h-376z"/>
  <g style="fill:#454545">
   <path style="fill:#454545" d="m937.75 404.38q0 1.897-.71777 3.3496-.71778 1.4526-1.9312 2.3926-1.4356 1.1279-3.1616 1.6064-1.709.47852-4.3579.47852h-9.0234v-25.447h7.5366q2.7856 0 4.1699.20508t2.6489.85449q1.4014.73486 2.0337 1.897.63232 1.145.63232 2.7515 0 1.8115-.92285 3.0933-.92285 1.2646-2.4609 2.0337v.13672q2.5806.52979 4.0674 2.273 1.4868 1.7261 1.4868 4.375zm-5.6909-11.467q0-.92286-.30761-1.5552-.30762-.63232-.99121-1.0254-.80323-.46143-1.9482-.56397-1.145-.11963-2.8369-.11963h-4.0332v7.3486h4.375q1.5894 0 2.5293-.15381.93994-.1709 1.7432-.68359.80322-.5127 1.1279-1.3159.34179-.82032.34179-1.9312zm2.1704 11.604q0-1.5381-.46142-2.4438-.46143-.90576-1.6748-1.5381-.82031-.42725-1.9995-.54688-1.1621-.13672-2.8369-.13672h-5.3149v9.4678h4.4775q2.2217 0 3.6401-.22217 1.4185-.23926 2.3242-.8545.95703-.6665 1.4014-1.521.44433-.85449.44433-2.2046z"/>
   <path style="fill:#454545" d="m945.75 389.92h-3.623v-3.3325h3.623v3.3325zm-.20508 22.285h-3.2129v-19.089h3.2129v19.089z"/>
   <path style="fill:#454545" d="m961.71 412.03q-.90576.23926-1.9824.39307-1.0596.15381-1.897.15381-2.9224 0-4.4434-1.5723t-1.521-5.0415v-10.151h-2.1704v-2.7002h2.1704v-5.4858h3.2129v5.4858h6.6309v2.7002h-6.6309v8.6987q0 1.5039.0684 2.3584.0684.8374.47852 1.5723.37597.6836 1.0254 1.0083.6665.30762 2.0166.30762.78613 0 1.6406-.22217.85449-.23925 1.2305-.39306h.1709v2.8882z"/>
   <path style="fill:#454545" d="m989.62 393.12-4.9732 19.089h-2.9736l-4.9048-14.714-4.8706 14.714h-2.9565l-5.0244-19.089h3.3496l3.5034 14.783 4.7681-14.783h2.6489l4.8877 14.783 3.3154-14.783h3.23z"/>
   <path style="fill:#454545" d="m997.7 389.92h-3.623v-3.3325h3.623v3.3325zm-.20507 22.285h-3.2129v-19.089h3.2129v19.089z"/>
   <path style="fill:#454545" d="m1017.4 406.7q0 2.6148-2.1704 4.2896-2.1533 1.6748-5.896 1.6748-2.1192 0-3.8965-.4956-1.7603-.5127-2.9566-1.1108v-3.606h.1709q1.521 1.145 3.3838 1.8286 1.8628.6665 3.5718.6665 2.1192 0 3.3154-.68359 1.1963-.6836 1.1963-2.1533 0-1.1279-.6494-1.709-.6494-.58105-2.4951-.99121-.6836-.15381-1.7944-.35889-1.0938-.20507-1.9995-.44433-2.5123-.66651-3.5718-1.9482-1.0425-1.2988-1.0425-3.1787 0-1.1792.4785-2.2217.4956-1.0425 1.4868-1.8628.9571-.80322 2.4268-1.2646 1.4868-.47851 3.3154-.47851 1.709 0 3.4522.42724 1.7602.41016 2.9223 1.0083v3.4351h-.1709q-1.2304-.90576-2.9907-1.521-1.7602-.63233-3.4521-.63233-1.7603 0-2.9737.6836-1.2134.6665-1.2134 1.9995 0 1.1792.7349 1.7773.7178.59815 2.3242.97412.8887.20508 1.9825.41016 1.1108.20508 1.8457.37598 2.2387.51269 3.4521 1.7602 1.2134 1.2646 1.2134 3.3496z"/>
   <path style="fill:#454545" d="m1038 402.99h-14.065q0 1.7603.5298 3.0762.5298 1.2988 1.4526 2.1362.8887.82031 2.1021 1.2305 1.2304.41016 2.7002.41016 1.9482 0 3.9135-.76904 1.9825-.78614 2.8199-1.5381h.1709v3.5034q-1.6236.68359-3.3155 1.145-1.6919.46142-3.5546.46142-4.751 0-7.417-2.5635-2.6661-2.5806-2.6661-7.3145 0-4.6826 2.5464-7.4341 2.5635-2.7515 6.7334-2.7515 3.8623 0 5.9473 2.2559 2.102 2.2559 2.102 6.4087v1.7432zm-3.1274-2.4609q-.017-2.5293-1.2817-3.9136-1.2476-1.3843-3.8111-1.3843-2.5805 0-4.1186 1.521-1.521 1.521-1.7261 3.7769h10.938z"/>
   <path style="fill:#454545" d="m912.85 433.43q1.5552 1.709 2.3755 4.187.8374 2.478.8374 5.6226 0 3.1445-.85449 5.6396-.8374 2.478-2.3584 4.1358-1.5723 1.7261-3.7256 2.5976-2.1362.87158-4.8877.87158-2.6831 0-4.8877-.88867-2.1875-.88867-3.7256-2.5806t-2.3755-4.1528q-.82031-2.4609-.82031-5.6226 0-3.1104.82031-5.5713.82031-2.478 2.3926-4.2383 1.5039-1.6748 3.7256-2.5635 2.2388-.88867 4.8706-.88867 2.7344 0 4.9048.90576 2.1875.88867 3.7085 2.5464zm-.30762 9.8096q0-4.956-2.2217-7.6392-2.2217-2.7002-6.0669-2.7002-3.8794 0-6.1011 2.7002-2.2046 2.6831-2.2046 7.6392 0 5.0073 2.2559 7.6733 2.2559 2.6489 6.0498 2.6489t6.0327-2.6489q2.2559-2.666 2.2559-7.6733z"/>
   <path style="fill:#454545" d="m937.97 446.18q0 2.3242-.6665 4.2554-.66651 1.9141-1.8799 3.2471-1.1279 1.2646-2.666 1.9653-1.521.6836-3.23.6836-1.4868 0-2.7002-.32471-1.1963-.32471-2.4438-1.0083v7.998h-3.2129v-26.13h3.2129v1.9995q1.2817-1.0767 2.8711-1.7944 1.6064-.73486 3.418-.73486 3.4521 0 5.3662 2.6147 1.9312 2.5977 1.9312 7.229zm-3.3154.0855q0-3.4522-1.1792-5.1611-1.1792-1.709-3.623-1.709-1.3843 0-2.7856.59814-1.4014.59815-2.6831 1.5723v10.818q1.3672.61524 2.3413.8374.99121.22217 2.2388.22217 2.6831 0 4.187-1.8115t1.5039-5.3662z"/>
   <path style="fill:#454545" d="m958.96 446.74h-14.065q0 1.7603.52978 3.0762.52979 1.2988 1.4526 2.1362.88867.82031 2.102 1.2305 1.2305.41016 2.7002.41016 1.9482 0 3.9136-.76904 1.9824-.78614 2.8198-1.5381h.1709v3.5034q-1.6235.68359-3.3154 1.145-1.6919.46142-3.5547.46142-4.751 0-7.417-2.5635-2.666-2.5806-2.666-7.3145 0-4.6826 2.5464-7.4341 2.5635-2.7515 6.7334-2.7515 3.8623 0 5.9473 2.2559 2.102 2.2559 2.102 6.4087v1.7432zm-3.1274-2.4609q-.0171-2.5293-1.2817-3.9136-1.2476-1.3843-3.811-1.3843-2.5806 0-4.1186 1.521-1.521 1.521-1.7261 3.7769h10.938z"/>
   <path style="fill:#454545" d="m975.74 440.37h-.17089q-.71778-.1709-1.4014-.23926-.66651-.0854-1.5894-.0854-1.4868 0-2.8711.66651-1.3843.64941-2.666 1.6919v13.552h-3.2129v-19.089h3.2129v2.8198q1.9141-1.5381 3.3667-2.1704 1.4697-.64942 2.9907-.64942.8374 0 1.2134.0513.37598.0342 1.1279.15381v3.2983z"/>
   <path style="fill:#454545" d="m993.02 455.96h-3.1958v-2.0337q-.42725.29052-1.1621.82031-.71778.5127-1.4014.82031-.80322.39307-1.8457.64942-1.0425.27343-2.4438.27343-2.5806 0-4.375-1.709t-1.7944-4.3579q0-2.1704.92286-3.5034.93994-1.3501 2.666-2.1191 1.7432-.76904 4.187-1.0425 2.4438-.27344 5.2466-.41016v-.4956q0-1.0938-.39307-1.8115-.37598-.71778-1.0938-1.1279-.68359-.39307-1.6406-.52979-.95703-.13672-1.9995-.13672-1.2646 0-2.8198.3418-1.5552.32471-3.2129.95703h-.1709v-3.2642q.93994-.25635 2.7173-.56397 1.7774-.30761 3.5034-.30761 2.0166 0 3.5034.34179 1.5039.32471 2.5977 1.1279 1.0767.78614 1.6406 2.0337.56397 1.2476.56397 3.0933v12.954zm-3.1958-4.6997v-5.3149q-1.4697.0855-3.4692.25635-1.9824.1709-3.1445.4956-1.3843.39307-2.2388 1.2305-.8545.82031-.8545 2.273 0 1.6406.99122 2.478.99121.82031 3.0249.82031 1.6919 0 3.0933-.64941 1.4014-.66651 2.5977-1.5894z"/>
   <path style="fill:#454545" d="m1009.2 455.78q-.9058.23926-1.9824.39307-1.0596.15381-1.897.15381-2.9224 0-4.4434-1.5723t-1.521-5.0415v-10.151h-2.1704v-2.7002h2.1704v-5.4858h3.2129v5.4858h6.6309v2.7002h-6.6309v8.6987q0 1.5039.068 2.3584.068.8374.4785 1.5723.376.6836 1.0254 1.0083.6665.30762 2.0166.30762.7861 0 1.6406-.22217.8545-.23925 1.2305-.39306h.1709v2.8882z"/>
   <path style="fill:#454545" d="m1029.3 446.42q0 4.6655-2.3926 7.3657t-6.4087 2.7002q-4.0503 0-6.4428-2.7002-2.3755-2.7002-2.3755-7.3657t2.3755-7.3657q2.3925-2.7173 6.4428-2.7173 4.0161 0 6.4087 2.7173 2.3926 2.7002 2.3926 7.3657zm-3.3154 0q0-3.7085-1.4527-5.5029-1.4526-1.8115-4.0332-1.8115-2.6147 0-4.0674 1.8115-1.4355 1.7944-1.4355 5.5029 0 3.5889 1.4526 5.4517 1.4527 1.8457 4.0503 1.8457 2.5635 0 4.0161-1.8286 1.4698-1.8457 1.4698-5.4688z"/>
   <path style="fill:#454545" d="m1046.2 440.37h-.1709q-.7178-.1709-1.4014-.23926-.6665-.0854-1.5894-.0854-1.4868 0-2.8711.66651-1.3842.64941-2.666 1.6919v13.552h-3.2129v-19.089h3.2129v2.8198q1.9141-1.5381 3.3667-2.1704 1.4697-.64942 2.9907-.64942.8374 0 1.2134.0513.376.0342 1.128.15381v3.2983z"/>
   <path style="fill:#454545" d="m1062.9 450.45q0 2.6148-2.1704 4.2896-2.1533 1.6748-5.896 1.6748-2.1191 0-3.8965-.4956-1.7602-.5127-2.9565-1.1108v-3.606h.1709q1.521 1.145 3.3838 1.8286 1.8628.6665 3.5718.6665 2.1191 0 3.3154-.68359 1.1963-.6836 1.1963-2.1533 0-1.1279-.6494-1.709-.6495-.58105-2.4952-.99121-.6835-.15381-1.7944-.35889-1.0937-.20507-1.9995-.44433-2.5122-.66651-3.5718-1.9482-1.0425-1.2988-1.0425-3.1787 0-1.1792.4786-2.2217.4956-1.0425 1.4868-1.8628.957-.80322 2.4267-1.2646 1.4868-.47851 3.3155-.47851 1.7089 0 3.4521.42724 1.7603.41016 2.9224 1.0083v3.4351h-.1709q-1.2305-.90576-2.9907-1.521-1.7603-.63233-3.4522-.63233-1.7602 0-2.9736.6836-1.2134.6665-1.2134 1.9995 0 1.1792.7349 1.7773.7177.59815 2.3242.97412.8886.20508 1.9824.41016 1.1108.20508 1.8457.37598 2.2388.51269 3.4521 1.7602 1.2134 1.2646 1.2134 3.3496z"/>
  </g>
  <g style="fill:#454545">
   <path d="m822.67 508.54q0-1.6235-.97413-2.5464-.95703-.93994-2.4609-.93994-1.5723 0-2.5635 1.0596-.99121 1.0425-.99121 2.5635 0 1.2817.6665 2.273.6836.99121 2.9224 2.3413 1.6748-.59814 2.5293-1.7432.87159-1.1621.87159-3.0078zm3.3154 14.971-8.169-7.9639q-.52979.25635-1.0596.6836-.52979.41015-1.0596 1.1279-.47852.6665-.78613 1.6064-.30762.93994-.30762 2.1191 0 2.4951 1.4526 4.0332 1.4697 1.521 4.1528 1.521 1.5894 0 3.1445-.76904 1.5723-.78613 2.6318-2.3584zm5.144-10.151v1.6406q0 1.6406-.42725 3.6914-.42724 2.0508-1.4526 3.9136l6.46 6.2891h-4.2041l-3.9136-3.8281q-1.9653 2.4268-4.0161 3.4009-2.0508.95703-4.2212.95703-3.5547 0-5.9131-2.0679-2.3413-2.085-2.3413-5.4517 0-1.5723.44434-2.7173.44433-1.145 1.0425-1.9824.59814-.80322 1.4868-1.5039.88868-.71777 1.7944-1.2476-1.8799-1.2305-2.7173-2.478-.82031-1.2476-.82031-3.1445 0-1.145.44433-2.1704.46143-1.0425 1.3672-1.897.85449-.82031 2.2217-1.333 1.3843-.51269 3.042-.51269 2.9566 0 4.7852 1.5039 1.8286 1.4868 1.8286 3.7769 0 .75195-.20508 1.709-.20508.93994-.70069 1.6919-.54687.8374-1.5552 1.6064-1.0083.76904-2.6148 1.3159l6.3403 6.1865q.23926-.6836.35889-1.5039.11963-.82031.13672-1.709.0342-.95703.0171-2.1362 0-1.1792 0-1.9995h3.3325z"/>
   <path d="m844.39 524.02-4.8193 11.194h-2.4951l2.9736-11.194h4.3408z"/>
   <path d="m869.01 535.59h-2.9736v-33.291h2.9736v33.291z"/>
   <path d="m885.33 524.02-4.8193 11.194h-2.4951l2.9736-11.194h4.3408z"/>
   <path d="m924.59 527.58-19.722-8.7671v-2.1191l19.722-8.7671v3.0762l-15.552 6.7505 15.552 6.7505v3.0762z"/>
   <path d="m953.23 527.58-19.722-8.7671v-2.1191l19.722-8.7671v3.0762l-15.552 6.7505 15.552 6.7505v3.0762z"/>
   <path d="m967.64 524.02-4.8193 11.194h-2.4951l2.9736-11.194h4.3408z"/>
   <path d="m1007.1 518.81-19.722 8.7671v-3.0762l15.552-6.7505-15.552-6.7505v-3.0762l19.722 8.7671v2.1191z"/>
   <path d="m1035.8 518.81-19.722 8.7671v-3.0762l15.552-6.7505-15.552-6.7505v-3.0762l19.722 8.7671v2.1191z"/>
   <path d="m1049.9 524.02-4.8194 11.194h-2.4951l2.9736-11.194h4.3409z"/>
   <path d="m1090.6 517.2h-3.3838l-7.7759-10.715-7.7588 10.75h-3.3667l10.066-13.792h2.1533l10.066 13.757z"/>
   <path d="m1103.6 524.02-4.8194 11.194h-2.4951l2.9737-11.194h4.3408z"/>
   <path d="m1144.2 513.05q-.034 1.6919-.393 3.3325-.3418 1.6406-1.1109 2.9224-.7861 1.3159-1.897 2.0679-1.1108.75195-2.8198.75195-1.6064 0-2.854-.6665-1.2475-.68359-2.6831-2.4268-1.7432-2.1362-2.5293-2.6831-.7861-.54688-1.6406-.54688-1.6065 0-2.4609 1.5039-.8545 1.4868-1.0083 4.8364h-2.8541q.034-1.709.376-3.3154.3589-1.6235 1.1109-2.9394.7348-1.2646 1.914-2.0337 1.1792-.78613 2.8199-.78613 1.5893 0 2.8369.6665 1.2646.64941 2.7173 2.4268 1.3671 1.6748 2.2387 2.4609.8716.76904 1.9141.76904 1.7602 0 2.5806-1.7261.8374-1.7261.8886-4.6143h2.854z"/>
  </g>
  <path style="stroke:#009688;stroke-width:4;fill:none" d="m979.57 264.51h-1385.7"/>
 </g>
</svg>
