<svg xmlns:rdf="http://www.w3.org/1999/02/22-rdf-syntax-ns#" xmlns="http://www.w3.org/2000/svg" height="85.2mm" width="190.07mm" version="1.1" xmlns:cc="http://creativecommons.org/ns#" xmlns:dc="http://purl.org/dc/elements/1.1/" viewBox="0 0 673.46981 301.8897">
 <defs>
  <marker id="a" refY="0" refX="0" style="overflow:visible" orient="auto">
   <path style="fill-rule:evenodd;stroke:#00ff65;stroke-width:1pt;fill:#00ff65" transform="matrix(-.4 0 0 -.4 -4 0)" d="m0 0 5-5-17.5 5 17.5 5-5-5z"/>
  </marker>
  <marker id="c" refY="0" refX="0" style="overflow:visible" orient="auto">
   <path style="fill-rule:evenodd;stroke:#00ff65;stroke-width:1pt;fill:#00ff65" transform="matrix(-.4 0 0 -.4 -4 0)" d="m0 0 5-5-17.5 5 17.5 5-5-5z"/>
  </marker>
  <marker id="e" refY="0" refX="0" style="overflow:visible" orient="auto">
   <path style="fill-rule:evenodd;stroke:#ff6b00;stroke-width:1pt;fill:#ff6b00" transform="matrix(-.4 0 0 -.4 -4 0)" d="m0 0 5-5-17.5 5 17.5 5-5-5z"/>
  </marker>
  <filter id="d" style="color-interpolation-filters:sRGB">
   <feFlood flood-color="rgb(0,0,0)" result="flood" flood-opacity=".26274"/>
   <feComposite operator="in" result="composite1" in2="SourceGraphic" in="flood"/>
   <feGaussianBlur stdDeviation="8.9" result="blur" in="composite1"/>
   <feOffset result="offset" dx="0" dy="0"/>
   <feComposite operator="over" result="composite2" in2="offset" in="SourceGraphic"/>
  </filter>
 </defs>
 <g transform="translate(-3.2651 -144.27)">
  <rect style="stroke-linejoin:round;solid-color:#000000;color-rendering:auto;fill-opacity:.99216;color:#000000;isolation:auto;mix-blend-mode:normal;fill-rule:evenodd;stroke-dashoffset:5.1;shape-rendering:auto;filter:url(#d);stroke:#fcc24b;stroke-linecap:round;image-rendering:auto;stroke-width:4.4652;fill:#353f4e" transform="matrix(1 0 0 .80250 261.42 58.728)" rx="5" ry="6.2306" height="313.49" width="561.22" y="137.95" x="-202.03"/>
  <rect style="color-rendering:auto;fill-rule:evenodd;color:#000000;isolation:auto;mix-blend-mode:normal;shape-rendering:auto;solid-color:#000000;image-rendering:auto;fill:#6b6d6f" rx="0" ry="0" height="7.6612" width="585.22" y="415.92" x="47.381"/>
  <rect style="color-rendering:auto;fill-rule:evenodd;color:#000000;isolation:auto;mix-blend-mode:normal;fill-opacity:.52050;shape-rendering:auto;solid-color:#000000;image-rendering:auto;fill:#6b6d6f" rx="0" ry="0" height="13" width="44" y="401.82" x="432.57"/>
  <rect style="color-rendering:auto;fill-rule:evenodd;color:#000000;isolation:auto;mix-blend-mode:normal;shape-rendering:auto;solid-color:#000000;image-rendering:auto;fill:#fff" rx="0" ry="0" height="2" width="44" y="413.32" x="432.57"/>
  <rect style="color-rendering:auto;fill-rule:evenodd;color:#000000;isolation:auto;mix-blend-mode:normal;shape-rendering:auto;solid-color:#000000;image-rendering:auto;fill:#fff" rx="1.0534" ry="1.0534" height="3.4049" width="23.835" y="412.51" x="316.53"/>
  <rect style="color-rendering:auto;fill-rule:evenodd;color:#000000;isolation:auto;mix-blend-mode:normal;shape-rendering:auto;solid-color:#000000;image-rendering:auto;fill:#ff6b00" rx="1.0534" ry="1.0534" height="3.4049" width="23.835" y="412.51" x="256.53"/>
  <rect style="color-rendering:auto;fill-rule:evenodd;color:#000000;isolation:auto;mix-blend-mode:normal;shape-rendering:auto;solid-color:#000000;image-rendering:auto;fill:#00ff65" rx="1.0534" ry="1.0534" height="3.4049" width="23.835" y="412.51" x="136.52"/>
  <g style="fill:#fff">
   <path style="fill:#fff" d="m250.42 299.31q0 2.0544-1.7053 3.3704-1.6919 1.3159-4.6326 1.3159-1.665 0-3.0615-.3894-1.3831-.40284-2.323-.87281v-2.8332h.13428q1.1951.89966 2.6587 1.4368 1.4636.52368 2.8064.52368 1.665 0 2.605-.53711.93994-.53711.93994-1.6919 0-.88623-.51026-1.3428-.51025-.45654-1.9604-.77881-.53711-.12084-1.4099-.28198-.85937-.16113-1.571-.34912-1.9739-.52368-2.8064-1.5308-.81909-1.0205-.81909-2.4976 0-.92651.37598-1.7456.3894-.8191 1.1682-1.4636.75195-.6311 1.9067-.99365 1.1682-.37598 2.605-.37598 1.3428 0 2.7124.3357 1.3831.32226 2.2961.79223v2.699h-.13427q-.9668-.71167-2.3499-1.1951-1.383-.49683-2.7124-.49683-1.3831 0-2.3364.53711-.95336.52368-.95336 1.571 0 .92651.57739 1.3965.56396.46997 1.8262.76538.69824.16114 1.5576.32227.8728.16113 1.4502.29541 1.759.40283 2.7124 1.3831.95337.99365.95337 2.6318z"/>
   <path style="fill:#fff" d="m266.48 303.64h-2.5244v-1.665q-1.2756 1.0071-2.4438 1.5442-1.1682.53711-2.5781.53711-2.3633 0-3.6792-1.4368-1.3159-1.4502-1.3159-4.2432v-9.7351h2.5244v8.54q0 1.1414.10743 1.9604.10742.80566.45654 1.3831.36255.59082.93994.85937.57739.26856 1.6785.26856.98022 0 2.135-.51026 1.1682-.51025 2.1753-1.3025v-11.199h2.5244v14.999z"/>
   <path style="fill:#fff" d="m293.33 303.64h-2.5244v-8.54q0-.96679-.094-1.8664-.0806-.89966-.36254-1.4368-.30884-.57739-.88623-.8728-.5774-.29541-1.665-.29541-1.0608 0-2.1216.53711-1.0608.52368-2.1216 1.3428.0403.30884.0671.7251.0269.40283.0269.80566v9.6008h-2.5244v-8.54q0-.99365-.094-1.8799-.0806-.89966-.36255-1.4368-.30884-.57739-.88623-.85937-.57739-.29541-1.665-.29541-1.0339 0-2.0813.51025-1.0339.51026-2.0679 1.3025v11.199h-2.5244v-14.999h2.5244v1.665q1.1816-.98022 2.3498-1.5308 1.1816-.55054 2.511-.55054 1.5308 0 2.5916.64453 1.0742.64454 1.5979 1.7859 1.5308-1.2891 2.793-1.853 1.2622-.5774 2.699-.5774 2.4707 0 3.6389 1.5039 1.1816 1.4905 1.1816 4.176v9.7351z"/>
   <path style="fill:#fff" d="m324.59 293.14h-15.925v-2.1484h15.925v2.1484zm0 5.6396h-15.925v-2.1484h15.925v2.1484z"/>
   <path style="fill:#fff" d="m351.69 303.64h-2.511v-1.5979q-.33569.22827-.91309.64453-.56396.40283-1.1011.64453-.6311.30884-1.4502.51026-.81909.21484-1.9202.21484-2.0276 0-3.4375-1.3428t-1.4099-3.4241q0-1.7053.72509-2.7527.73853-1.0608 2.0947-1.665 1.3696-.60425 3.2898-.81909t4.1223-.32227v-.3894q0-.85938-.30884-1.4233-.29541-.56397-.85937-.88623-.53711-.30884-1.2891-.41626-.75195-.10742-1.571-.10742-.99365 0-2.2156.26855-1.2219.25513-2.5244.75196h-.13428v-2.5647q.73853-.20142 2.135-.44312t2.7527-.2417q1.5845 0 2.7527.26856 1.1816.25513 2.041.88623.84595.61767 1.2891 1.5979.44312.98022.44312 2.4304v10.178zm-2.511-3.6926v-4.176q-1.1548.0671-2.7258.20142-1.5576.13427-2.4707.3894-1.0876.30884-1.759.9668-.67138.64453-.67138 1.7859 0 1.2891.77881 1.947.7788.64453 2.3767.64453 1.3294 0 2.4304-.51026 1.1011-.52368 2.041-1.2488z"/>
   <path style="fill:#fff" d="m383.45 295.96h-7.3181v7.3181h-2.229v-7.3181h-7.3181v-2.1484h7.3181v-7.3181h2.229v7.3181h7.3181v2.1484z"/>
   <path style="fill:#fff" d="m411.62 296.03q0 1.8799-.5371 3.3838-.52369 1.5039-1.4233 2.5244-.95337 1.0608-2.0947 1.5979-1.1414.52368-2.511.52368-1.2756 0-2.229-.30884-.95337-.29541-1.8799-.80566l-.16114.69824h-2.3633v-20.894h2.5244v7.4658q1.0608-.87281 2.2559-1.4233 1.1951-.56397 2.6855-.56397 2.6587 0 4.1895 2.041 1.5442 2.041 1.5442 5.7605zm-2.605.0671q0-2.6856-.88623-4.0686-.88623-1.3965-2.8601-1.3965-1.1011 0-2.229.4834-1.1279.46997-2.0947 1.2219v8.5938q1.0742.4834 1.8396.67139.7788.18798 1.759.18798 2.0947 0 3.2764-1.3696 1.1951-1.3831 1.1951-4.3237z"/>
  </g>
  <g style="fill:#fff">
   <path style="" d="m331.32 364.27q1.2219 1.3428 1.8664 3.2898.65796 1.947.65796 4.4177t-.67138 4.4312q-.65796 1.947-1.853 3.2495-1.2354 1.3562-2.9272 2.041-1.6785.68482-3.8403.68482-2.1082 0-3.8403-.69825-1.7188-.69824-2.9272-2.0276-1.2085-1.3294-1.8664-3.2629-.64453-1.9336-.64453-4.4177 0-2.4438.64453-4.3774.64453-1.947 1.8799-3.3301 1.1816-1.3159 2.9272-2.0142 1.759-.69824 3.8269-.69824 2.1484 0 3.8538.71167 1.7188.69824 2.9138 2.0007zm-.2417 7.7075q0-3.894-1.7456-6.0022-1.7456-2.1216-4.7668-2.1216-3.0481 0-4.7937 2.1216-1.7322 2.1082-1.7322 6.0022 0 3.9343 1.7725 6.029 1.7725 2.0813 4.7534 2.0813 2.981 0 4.74-2.0813 1.7725-2.0947 1.7725-6.029z"/>
   <path style="" d="m351.06 374.29q0 1.8262-.52368 3.3435-.52368 1.5039-1.477 2.5513-.88623.99365-2.0947 1.5442-1.1951.53711-2.5378.53711-1.1682 0-2.1216-.25513-.93995-.25513-1.9202-.79224v6.2842h-2.5244v-20.531h2.5244v1.571q1.0071-.84595 2.2559-1.4099 1.2622-.57739 2.6856-.57739 2.7124 0 4.2163 2.0544 1.5173 2.041 1.5173 5.6799zm-2.605.0671q0-2.7124-.92652-4.0552-.92651-1.3428-2.8467-1.3428-1.0876 0-2.1887.46997t-2.1082 1.2354v8.4998q1.0742.4834 1.8396.65796.77881.17456 1.759.17456 2.1082 0 3.2898-1.4233t1.1816-4.2163z"/>
   <path style="" d="m367.55 374.73h-11.051q0 1.383.41626 2.417.41626 1.0205 1.1414 1.6785.69824.64453 1.6516.96679.9668.32227 2.1216.32227 1.5308 0 3.075-.60425 1.5576-.61768 2.2156-1.2085h.13428v2.7527q-1.2756.53711-2.605.89966t-2.793.36255q-3.7329 0-5.8276-2.0142-2.0947-2.0276-2.0947-5.7471 0-3.6792 2.0007-5.8411 2.0142-2.1619 5.2905-2.1619 3.0347 0 4.6729 1.7725 1.6516 1.7725 1.6516 5.0354v1.3696zm-2.4573-1.9336q-.0134-1.9873-1.0071-3.075-.98022-1.0876-2.9944-1.0876-2.0276 0-3.2361 1.1951-1.1951 1.1951-1.3562 2.9675h8.5938z"/>
   <path style="" d="m380.73 369.73h-.13428q-.56396-.13428-1.1011-.18799-.52368-.0671-1.2488-.0671-1.1682 0-2.2559.52369-1.0876.51025-2.0947 1.3293v10.648h-2.5244v-14.999h2.5244v2.2156q1.5039-1.2085 2.6453-1.7053 1.1548-.51025 2.3498-.51025.65796 0 .95337.0403.29541.0268.88623.12085v2.5916z"/>
   <path style="" d="m394.31 381.97h-2.511v-1.5979q-.33569.22827-.91308.64453-.56397.40283-1.1011.64453-.6311.30884-1.4502.51025-.81909.21485-1.9202.21485-2.0276 0-3.4375-1.3428t-1.4099-3.4241q0-1.7053.7251-2.7527.73852-1.0608 2.0947-1.665 1.3696-.60424 3.2898-.81909 1.9202-.21484 4.1223-.32226v-.38941q0-.85937-.30883-1.4233-.29541-.56396-.85938-.88623-.53711-.30883-1.2891-.41626-.75195-.10742-1.571-.10742-.99365 0-2.2156.26856-1.2219.25512-2.5244.75195h-.13427v-2.5647q.73852-.20141 2.135-.44311t2.7527-.2417q1.5845 0 2.7527.26855 1.1816.25513 2.041.88623.84595.61768 1.2891 1.5979.44311.98023.44311 2.4304v10.178zm-2.511-3.6926v-4.176q-1.1548.0671-2.7258.20142-1.5576.13428-2.4707.3894-1.0876.30884-1.759.9668-.67139.64453-.67139 1.7859 0 1.2891.77881 1.947.77881.64453 2.3767.64453 1.3293 0 2.4304-.51025 1.1011-.52368 2.041-1.2488z"/>
   <path style="" d="m406.98 381.84q-.71167.18799-1.5576.30884-.83252.12085-1.4905.12085-2.2962 0-3.4912-1.2354-1.1951-1.2354-1.1951-3.9612v-7.9761h-1.7053v-2.1216h1.7053v-4.3103h2.5244v4.3103h5.21v2.1216h-5.21v6.8347q0 1.1816.0537 1.853.0537.65796.37598 1.2354.29541.53711.80566.79224.52368.2417 1.5845.2417.61767 0 1.2891-.17456.67138-.18799.9668-.30884h.13427v2.2693z"/>
   <path style="" d="m422.83 374.48q0 3.6658-1.8799 5.7874t-5.0354 2.1216q-3.1824 0-5.0623-2.1216-1.8665-2.1216-1.8665-5.7874t1.8665-5.7874q1.8799-2.135 5.0623-2.135 3.1555 0 5.0354 2.135 1.8799 2.1216 1.8799 5.7874zm-2.605 0q0-2.9138-1.1414-4.3237-1.1414-1.4233-3.1689-1.4233-2.0544 0-3.1958 1.4233-1.1279 1.4099-1.1279 4.3237 0 2.8198 1.1414 4.2834 1.1414 1.4502 3.1824 1.4502 2.0142 0 3.1555-1.4368 1.1548-1.4502 1.1548-4.2969z"/>
   <path style="" d="m436.11 369.73h-.13428q-.56396-.13428-1.1011-.18799-.52368-.0671-1.2488-.0671-1.1682 0-2.2559.52369-1.0876.51025-2.0947 1.3293v10.648h-2.5244v-14.999h2.5244v2.2156q1.5039-1.2085 2.6453-1.7053 1.1548-.51025 2.3498-.51025.65796 0 .95337.0403.29541.0268.88623.12085v2.5916z"/>
  </g>
  <g style="fill:#fff">
   <path style="" d="m328.17 206.13q1.2219 1.3428 1.8664 3.2898.65796 1.947.65796 4.4177t-.67139 4.4312q-.65796 1.947-1.853 3.2495-1.2354 1.3562-2.9272 2.041-1.6785.68482-3.8403.68482-2.1082 0-3.8403-.69824-1.7188-.69825-2.9272-2.0276-1.2085-1.3294-1.8664-3.2629-.64454-1.9336-.64454-4.4177 0-2.4438.64454-4.3774.64453-1.947 1.8799-3.3301 1.1816-1.3159 2.9272-2.0142 1.759-.69824 3.8269-.69824 2.1484 0 3.8538.71167 1.7188.69824 2.9138 2.0007zm-.2417 7.7075q0-3.894-1.7456-6.0022-1.7456-2.1216-4.7668-2.1216-3.0481 0-4.7937 2.1216-1.7322 2.1082-1.7322 6.0022 0 3.9343 1.7725 6.0291 1.7725 2.0813 4.7534 2.0813 2.981 0 4.74-2.0813 1.7725-2.0947 1.7725-6.0291z"/>
   <path style="" d="m347.91 216.15q0 1.8262-.52369 3.3435-.52368 1.5039-1.477 2.5513-.88623.99365-2.0947 1.5442-1.1951.53711-2.5378.53711-1.1682 0-2.1216-.25513-.93994-.25513-1.9202-.79224v6.2842h-2.5244v-20.531h2.5244v1.571q1.0071-.84594 2.2559-1.4099 1.2622-.57739 2.6855-.57739 2.7124 0 4.2163 2.0544 1.5173 2.041 1.5173 5.6799zm-2.605.0671q0-2.7124-.92652-4.0552-.92651-1.3428-2.8467-1.3428-1.0876 0-2.1887.46997t-2.1082 1.2354v8.4998q1.0742.4834 1.8396.65796.77881.17456 1.759.17456 2.1082 0 3.2898-1.4233t1.1816-4.2163z"/>
   <path style="" d="m364.4 216.59h-11.051q0 1.3831.41626 2.417.41626 1.0205 1.1414 1.6785.69824.64453 1.6516.9668.96679.32226 2.1216.32226 1.5308 0 3.075-.60425 1.5576-.61767 2.2156-1.2085h.13427v2.7527q-1.2756.53711-2.605.89966-1.3293.36255-2.793.36255-3.7329 0-5.8276-2.0142-2.0947-2.0276-2.0947-5.7471 0-3.6792 2.0007-5.8411 2.0142-2.1619 5.2905-2.1619 3.0347 0 4.6728 1.7725 1.6516 1.7725 1.6516 5.0354v1.3696zm-2.4573-1.9336q-.0134-1.9873-1.0071-3.075-.98023-1.0876-2.9944-1.0876-2.0276 0-3.2361 1.1951-1.1951 1.1951-1.3562 2.9675h8.5938z"/>
   <path style="" d="m377.59 211.58h-.13428q-.56396-.13427-1.1011-.18798-.52368-.0671-1.2488-.0671-1.1682 0-2.2559.52368-1.0876.51025-2.0947 1.3293v10.648h-2.5244v-14.999h2.5244v2.2156q1.5039-1.2085 2.6453-1.7053 1.1548-.51025 2.3498-.51025.65796 0 .95337.0403.29541.0269.88623.12085v2.5916z"/>
   <path style="" d="m391.16 223.83h-2.511v-1.5979q-.33569.22827-.91308.64453-.56397.40283-1.1011.64453-.6311.30884-1.4502.51025-.8191.21485-1.9202.21485-2.0276 0-3.4375-1.3428t-1.4099-3.4241q0-1.7053.7251-2.7527.73852-1.0608 2.0947-1.665 1.3696-.60425 3.2898-.81909 1.9202-.21485 4.1223-.32227v-.3894q0-.85938-.30884-1.4233-.29541-.56397-.85937-.88623-.53711-.30884-1.2891-.41626-.75196-.10743-1.571-.10743-.99365 0-2.2156.26856-1.2219.25513-2.5244.75195h-.13428v-2.5647q.73853-.20141 2.135-.44311t2.7527-.2417q1.5845 0 2.7527.26855 1.1816.25513 2.041.88624.84595.61767 1.2891 1.5979.44312.98022.44312 2.4304v10.178zm-2.511-3.6926v-4.176q-1.1548.0671-2.7258.20141-1.5576.13428-2.4707.38941-1.0876.30883-1.759.96679-.67139.64453-.67139 1.7859 0 1.2891.77881 1.947.77881.64453 2.3767.64453 1.3293 0 2.4304-.51025 1.1011-.52368 2.041-1.2488z"/>
   <path style="" d="m408.59 223.83h-2.5244v-8.54q0-1.0339-.12085-1.9336-.12085-.91309-.44311-1.4233-.33569-.56397-.9668-.83252-.6311-.28199-1.6382-.28199-1.0339 0-2.1619.51026-1.1279.51025-2.1619 1.3025v11.199h-2.5244v-14.999h2.5244v1.665q1.1816-.98023 2.4438-1.5308 1.2622-.55054 2.5916-.55054 2.4304 0 3.706 1.4636t1.2756 4.2163v9.7351z"/>
   <path style="" d="m425.62 223.83h-2.5244v-1.571q-1.0876.93994-2.2693 1.4636-1.1816.52368-2.5647.52368-2.6856 0-4.27-2.0679-1.571-2.0679-1.571-5.7336 0-1.9067.53711-3.3972.55054-1.4905 1.477-2.5378.91309-1.0205 2.1216-1.5576 1.2219-.53711 2.5244-.53711 1.1816 0 2.0947.25513.91309.2417 1.9202.76538v-6.499h2.5244v20.894zm-2.5244-3.6926v-8.6072q-1.0205-.45654-1.8262-.6311-.80567-.17456-1.759-.17456-2.1216 0-3.3032 1.477t-1.1816 4.1894q0 2.6721.91309 4.0686.91308 1.383 2.9272 1.383 1.0742 0 2.1753-.46997 1.1011-.4834 2.0544-1.2354z"/>
   <path style="" d="m441.3 219.5q0 2.0544-1.7053 3.3704-1.6919 1.3159-4.6326 1.3159-1.665 0-3.0615-.38941-1.383-.40283-2.323-.8728v-2.8332h.13427q1.1951.89966 2.6587 1.4368 1.4636.52368 2.8064.52368 1.665 0 2.605-.53711.93994-.53711.93994-1.6919 0-.88623-.51025-1.3428-.51025-.45654-1.9604-.77881-.53711-.12085-1.4099-.28198-.85938-.16113-1.571-.34912-1.9739-.52368-2.8064-1.5308-.81909-1.0205-.81909-2.4976 0-.92652.37597-1.7456.38941-.81909 1.1682-1.4636.75196-.6311 1.9067-.99365 1.1682-.37598 2.605-.37598 1.3428 0 2.7124.33569 1.383.32227 2.2961.79224v2.699h-.13428q-.9668-.71167-2.3498-1.1951-1.3831-.49683-2.7124-.49683-1.383 0-2.3364.53711-.95337.52368-.95337 1.571 0 .92652.57739 1.3965.56397.46997 1.8262.76538.69825.16113 1.5576.32226.8728.16114 1.4502.29541 1.759.40284 2.7124 1.3831.95337.99365.95337 2.6318z"/>
  </g>
  <path style="marker-end:url(#e);stroke:#ff6b00;stroke-width:1px;fill:none" d="m375.73 313.26v40"/>
  <path d="m346.97 275.7 8.6573-39.052" style="marker-end:url(#c);stroke:#00ff65;stroke-width:1px;fill:none"/>
  <path style="marker-end:url(#a);stroke:#00ff65;stroke-width:1px;fill:none" d="m404.1 275.7-8.6573-39.052"/>
 </g>
</svg>
