<svg xmlns:rdf="http://www.w3.org/1999/02/22-rdf-syntax-ns#" xmlns="http://www.w3.org/2000/svg" height="107.99mm" width="89.58mm" version="1.1" xmlns:cc="http://creativecommons.org/ns#" xmlns:dc="http://purl.org/dc/elements/1.1/" viewBox="0 0 317.41053 382.65776">
 <g transform="translate(-121.29 -198.75)">
  <path style="stroke:#484646;stroke-width:25;fill:none" d="m166.47 361.74v-63.203c0-116.85 227.31-116.85 227.31 0v60.513"/>
  <path style="color-rendering:auto;color:#000000;isolation:auto;mix-blend-mode:normal;fill-rule:evenodd;shape-rendering:auto;solid-color:#000000;image-rendering:auto;fill:#484646" d="m149.49 359.43h261.03c33.373 0 27.849-7.4537 27.849 46.513v128.95c0 45.635 1.0376 46.513-27.849 46.513h-261.03c-27.605 0-27.849-.87768-27.849-46.513v-128.95c0-53.967-5.5238-46.513 27.849-46.513z"/>
  <g style="fill:#fff" transform="matrix(.64234 0 0 .64234 100.15 140.01)">
   <path d="m130.23 459.08-4.3888 6.5239-12.652-8.6194.43493 14.036h-8.4217l.3163-13.68-12.415 8.3031-4.3097-6.5634 14.036-8.2636-13.997-8.3426 4.2702-6.6029 12.376 8.4217-.27677-13.68h8.3822l-.31631 13.72 12.534-8.3426 4.3888 6.5634-14.155 8.224 14.194 8.3031z"/>
   <path d="m215.47 459.08-4.3888 6.5239-12.652-8.6194.43492 14.036h-8.4217l.31631-13.68-12.415 8.3031-4.3097-6.5634 14.036-8.2636-13.997-8.3426 4.2702-6.6029 12.376 8.4217-.27677-13.68h8.3822l-.31631 13.72 12.534-8.3426 4.3888 6.5634-14.155 8.224 14.194 8.3031z"/>
   <path d="m300.72 459.08-4.3888 6.5239-12.652-8.6194.43492 14.036h-8.4217l.31631-13.68-12.415 8.3031-4.3097-6.5634 14.036-8.2636-13.997-8.3426 4.2702-6.6029 12.376 8.4217-.27677-13.68h8.3822l-.3163 13.72 12.534-8.3426 4.3888 6.5634-14.155 8.224 14.194 8.3031z"/>
   <path d="m385.96 459.08-4.3888 6.5239-12.652-8.6194.43492 14.036h-8.4217l.31631-13.68-12.415 8.3031-4.3097-6.5634 14.036-8.2636-13.997-8.3426 4.2702-6.6029 12.376 8.4217-.27677-13.68h8.3822l-.31631 13.72 12.534-8.3426 4.3888 6.5634-14.155 8.224 14.194 8.3031z"/>
   <path d="m471.21 459.08-4.3888 6.5239-12.652-8.6194.43493 14.036h-8.4217l.3163-13.68-12.415 8.3031-4.3097-6.5634 14.036-8.2636-13.997-8.3426 4.2702-6.6029 12.376 8.4217-.27677-13.68h8.3822l-.31631 13.72 12.534-8.3426 4.3888 6.5634-14.155 8.224 14.194 8.3031z"/>
  </g>
  <g transform="matrix(1.1679 0 0 1.1679 -47.015 1.2304)">
   <circle cx="280" cy="438.65" r="12.857" style="color-rendering:auto;color:#000000;isolation:auto;mix-blend-mode:normal;fill-rule:evenodd;shape-rendering:auto;solid-color:#000000;image-rendering:auto;fill:#fff"/>
   <rect style="color-rendering:auto;color:#000000;isolation:auto;mix-blend-mode:normal;fill-rule:evenodd;shape-rendering:auto;solid-color:#000000;image-rendering:auto;fill:#fff" rx=".50520" ry=".40307" height="34.286" width="7.1429" y="443.79" x="276.43"/>
  </g>
 </g>
</svg>
