<svg xmlns:rdf="http://www.w3.org/1999/02/22-rdf-syntax-ns#" xmlns="http://www.w3.org/2000/svg" height="148.74mm" width="773.01mm" version="1.1" xmlns:cc="http://creativecommons.org/ns#" xmlns:dc="http://purl.org/dc/elements/1.1/" viewBox="0 0 2739.0334 527.02047">
 <path d="m18.612 168.1-18.4-4.02" style="stroke:#000;stroke-width:2;fill:none"/>
 <text style="font-size:682.38px;font-weight:100;letter-spacing:0px;line-height:125%;word-spacing:0px;font-family:&apos;AR CENA&apos;;fill:#ee6033" transform="scale(.99655 1.0035)" y="438.77271" x="154.75023" xml:space="preserve"><tspan y="438.77271" x="154.75023" style="font-size:682.38px;font-weight:100;line-height:125%;font-family:&apos;AR CENA&apos;">5</tspan></text>
 <text style="font-size:682.38px;font-weight:100;letter-spacing:0px;line-height:125%;word-spacing:0px;font-family:&apos;AR CENA&apos;;fill:#ff3e00" transform="scale(.99655 1.0035)" y="438.77271" x="131.90042" xml:space="preserve"><tspan y="438.77271" x="131.90042" style="font-size:682.38px;font-weight:100;line-height:125%;font-family:&apos;AR CENA&apos;">5</tspan></text>
 <path d="m270.41 392.41s-1.5536 107.75-12.429 112.54" style="stroke:#ff3e00;stroke-width:6;fill:none"/>
 <path d="m221.3 507.52s6.104-9.0308 39.308-11.665c0 0 2.9298 15.804-.97685 17.685-3.9065 1.8814-37.355 15.051-39.797 12.041-2.4415-3.0101-4.6388-13.922 1.4649-18.061z" style="stroke:#ff3e00;stroke-width:4;fill-rule:evenodd"/>
 <path d="m308.28 392.07s1.5536 107.75 12.429 112.54" style="stroke:#ff3e00;stroke-width:6;fill:none"/>
 <path d="m357.39 507.18s-6.104-9.0303-39.308-11.665c0 0-2.9298 15.804.97685 17.685 3.9064 1.8813 37.355 15.051 39.797 12.041 2.4415-3.0101 4.6388-13.922-1.4649-18.061z" style="stroke:#ff3e00;stroke-width:4;fill-rule:evenodd"/>
 <path d="m410.58 241.63s204.97-22.468 61.266-118.99" style="stroke:#ff3e00;stroke-width:6;fill:none"/>
 <path d="m173.65 216.47s-143.94 2.1633-155.76-48.675" style="stroke:#ff3e00;stroke-width:6;fill:none"/>
 <path d="m19.075 167.47 11.018-16.718" style="stroke:#000;stroke-width:2;fill:none"/>
 <path d="m20.254 170.48-7.9203-21.917" style="stroke:#000;stroke-width:2;fill:none"/>
 <ellipse style="stroke-linejoin:bevel;color-rendering:auto;fill-rule:evenodd;color:#000000;isolation:auto;mix-blend-mode:normal;shape-rendering:auto;solid-color:#000000;stroke:#f2f2f2;stroke-linecap:square;image-rendering:auto;stroke-width:2;fill:#f2f2f2" rx="9.259" ry="9.8068" cy="70.83" cx="207.23"/>
 <ellipse style="stroke-linejoin:bevel;color-rendering:auto;fill-rule:evenodd;color:#000000;isolation:auto;mix-blend-mode:normal;shape-rendering:auto;solid-color:#000000;stroke:#f2f2f2;stroke-linecap:square;image-rendering:auto;stroke-width:2;fill:#f2f2f2" rx="9.259" ry="9.8068" cy="69.473" cx="259.24"/>
 <ellipse style="color-rendering:auto;fill-rule:evenodd;color:#000000;isolation:auto;mix-blend-mode:normal;shape-rendering:auto;solid-color:#000000;image-rendering:auto;fill:#1a1a1a" rx="3.9287" ry="4.2263" cy="70.83" cx="258.84"/>
 <ellipse style="color-rendering:auto;fill-rule:evenodd;color:#000000;isolation:auto;mix-blend-mode:normal;shape-rendering:auto;solid-color:#000000;image-rendering:auto;fill:#1a1a1a" rx="3.9287" ry="4.2263" cy="71.848" cx="206.87"/>
 <path d="m246.44 45.724s13.012-9.4651 27.781-2.4341" style="stroke:#000;fill:none"/>
 <path d="m224.94 48.244s-13.012-15.936-27.781-4.0984" style="stroke:#000;fill:none"/>
 <path d="m194.73 105.92s24.269 25.837 48.833 1.445z" style="stroke:#f2f2f2;stroke-width:2;fill:#f2f2f2;fill-rule:evenodd"/>
 <path d="m475.59 124.43 5.503-19.283" style="stroke:#000;stroke-width:2;fill:none"/>
 <path d="m477.62 127-14.11-18.49" style="stroke:#000;stroke-width:2;fill:none"/>
 <path d="m475.34 125.16-18.75 1.7436" style="stroke:#000;stroke-width:2;fill:none"/>
 <text style="font-size:682.38px;font-weight:100;letter-spacing:0px;line-height:125%;word-spacing:0px;font-family:&apos;AR CENA&apos;;fill:#ee6033" xml:space="preserve" transform="scale(.99655 1.0035)" y="438.77271" x="2377.5037"><tspan y="438.77271" x="2377.5037" style="font-size:682.38px;font-weight:100;line-height:125%;font-family:&apos;AR CENA&apos;">5</tspan></text>
 <text style="font-size:682.38px;font-weight:100;letter-spacing:0px;line-height:125%;word-spacing:0px;font-family:&apos;AR CENA&apos;;fill:#ff3e00" xml:space="preserve" transform="scale(.99655 1.0035)" y="438.77271" x="2354.6538"><tspan y="438.77271" x="2354.6538" style="font-size:682.38px;font-weight:100;line-height:125%;font-family:&apos;AR CENA&apos;">5</tspan></text>
 <path style="stroke:#ff3e00;stroke-width:6;fill:none" d="m2485.5 392.41s-1.5537 107.75-12.429 112.54"/>
 <path style="stroke:#ff3e00;stroke-width:4;fill-rule:evenodd" d="m2436.4 507.52s6.104-9.0308 39.308-11.665c0 0 2.9299 15.804-.9768 17.685-3.9065 1.8814-37.355 15.051-39.797 12.041-2.4415-3.0101-4.6388-13.922 1.4649-18.061z"/>
 <path style="stroke:#ff3e00;stroke-width:6;fill:none" d="m2523.3 392.07s1.5537 107.75 12.429 112.54"/>
 <path style="stroke:#ff3e00;stroke-width:4;fill-rule:evenodd" d="m2572.5 507.18s-6.104-9.0303-39.308-11.665c0 0-2.9299 15.804.9768 17.685 3.9064 1.8813 37.355 15.051 39.797 12.041 2.4415-3.0101 4.6388-13.922-1.4649-18.061z"/>
 <path style="stroke:#ff3e00;stroke-width:6;fill:none" d="m2625.7 241.63s204.97-22.468 61.266-118.99"/>
 <path style="stroke:#ff3e00;stroke-width:6;fill:none" d="m2388.7 216.47s-143.94 2.1633-155.76-48.675"/>
 <path style="stroke:#000;stroke-width:2;fill:none" d="m2234.2 167.47 11.018-16.718"/>
 <path style="stroke:#000;stroke-width:2;fill:none" d="m2235.3 170.48-7.9203-21.917"/>
 <ellipse style="stroke-linejoin:bevel;color-rendering:auto;fill-rule:evenodd;color:#000000;isolation:auto;mix-blend-mode:normal;shape-rendering:auto;solid-color:#000000;stroke:#f2f2f2;stroke-linecap:square;image-rendering:auto;stroke-width:2;fill:#f2f2f2" rx="9.259" ry="9.8068" cy="70.83" cx="2422.3"/>
 <ellipse style="stroke-linejoin:bevel;color-rendering:auto;fill-rule:evenodd;color:#000000;isolation:auto;mix-blend-mode:normal;shape-rendering:auto;solid-color:#000000;stroke:#f2f2f2;stroke-linecap:square;image-rendering:auto;stroke-width:2;fill:#f2f2f2" rx="9.259" ry="9.8068" cy="69.473" cx="2474.3"/>
 <ellipse style="color-rendering:auto;fill-rule:evenodd;color:#000000;isolation:auto;mix-blend-mode:normal;shape-rendering:auto;solid-color:#000000;image-rendering:auto;fill:#1a1a1a" rx="3.9287" ry="4.2263" cy="70.83" cx="2473.9"/>
 <ellipse style="color-rendering:auto;fill-rule:evenodd;color:#000000;isolation:auto;mix-blend-mode:normal;shape-rendering:auto;solid-color:#000000;image-rendering:auto;fill:#1a1a1a" rx="3.9287" ry="4.2263" cy="71.848" cx="2421.9"/>
 <path style="stroke:#000;stroke-width:2;fill:none" d="m2461.5 55.418s13.012-9.4651 27.781-2.4341"/>
 <path style="stroke:#000;stroke-width:2;fill:none" d="m2440 57.938s-13.012-15.936-27.781-4.0984"/>
 <path style="stroke:#f2f2f2;stroke-width:2;fill:#f2f2f2;fill-rule:evenodd" d="m2409.8 105.92s22.975 27.139 48.833 1.445c0 0-15.622-1.6756-48.833-1.445z"/>
 <path style="stroke:#000;stroke-width:2;fill:none" d="m2233.7 168.1-18.401-4.0266"/>
 <path style="stroke:#000;stroke-width:2;fill:none" d="m2690.7 124.43 5.5031-19.283"/>
 <path style="stroke:#000;stroke-width:2;fill:none" d="m2692.7 127-14.11-18.495"/>
 <path style="stroke:#000;stroke-width:2;fill:none" d="m2690.4 125.16-18.75 1.7436"/>
 <text style="letter-spacing:0px;font-weight:100;font-size:994.17px;word-spacing:0px;font-family:&apos;AR CENA&apos;;line-height:125%;fill:#ff3e00" transform="scale(.99677 1.0032)" y="503.6731" x="1941.0481" xml:space="preserve"><tspan y="503.6731" x="1941.0481">-</tspan></text>
 <text style="font-size:603.88px;font-weight:100;letter-spacing:0px;line-height:125%;word-spacing:0px;font-family:&apos;AR CENA&apos;;fill:#424033" transform="scale(.99677 1.0032)" y="507.15262" x="1028.4672" xml:space="preserve"><tspan y="507.15262" x="1028.4672" style="font-size:603.88px;font-weight:100;line-height:125%;font-family:&apos;AR CENA&apos;">or</tspan></text>
</svg>
