<svg xmlns:rdf="http://www.w3.org/1999/02/22-rdf-syntax-ns#" xmlns="http://www.w3.org/2000/svg" height="135.3mm" width="273.68mm" version="1.1" xmlns:cc="http://creativecommons.org/ns#" xmlns:dc="http://purl.org/dc/elements/1.1/" viewBox="0 0 969.7302 479.41594">
 <g transform="translate(227.72 -242.87)">
  <rect style="color-rendering:auto;fill-rule:evenodd;color:#000000;isolation:auto;mix-blend-mode:normal;shape-rendering:auto;solid-color:#000000;image-rendering:auto;fill:#f9f9f9" height="479.42" width="969.73" y="242.87" x="-227.72"/>
  <rect style="color-rendering:auto;fill-rule:evenodd;color:#000000;isolation:auto;mix-blend-mode:normal;shape-rendering:auto;solid-color:#000000;image-rendering:auto;fill:#ffca00" height="53.402" width="4.8547" y="475.8" x="489.29"/>
  <rect style="color-rendering:auto;fill-rule:evenodd;color:#000000;isolation:auto;mix-blend-mode:normal;shape-rendering:auto;solid-color:#000000;image-rendering:auto;fill:#bc6d35" rx="0" ry="0" height="159.76" width="15.715" y="561.95" x="-24.53"/>
  <rect style="color-rendering:auto;fill-rule:evenodd;color:#000000;isolation:auto;mix-blend-mode:normal;shape-rendering:auto;solid-color:#000000;image-rendering:auto;fill:#fdd883" rx="2.9998" ry="2.9998" height="11.585" width="620.28" y="550.68" x="-63.92"/>
  <path style="color-rendering:auto;fill-rule:evenodd;color:#000000;isolation:auto;mix-blend-mode:normal;shape-rendering:auto;solid-color:#000000;image-rendering:auto;fill:#696464" d="m497.57 518.13h8.8715c.12706 0 .22939.74744.22939 1.6759v9.621c0 .92843-.10244 1.6759-.22939 1.6759h-8.8715c-.12706 0-.22929-.74745-.22929-1.6759v-9.621c0-.92843.10244-1.6759.22929-1.6759zm-.97419-2.8829h10.82c.7778 0 1.4041 1.9261 1.4041 4.3186v10.101c0 2.3924-.62621 4.3185-1.4041 4.3185h-10.82c-.778 0-1.4043-1.926-1.4043-4.3185v-10.101c0-2.3924.62631-4.3186 1.4043-4.3186z"/>
  <rect style="stroke-linejoin:bevel;color-rendering:auto;fill-rule:evenodd;color:#000000;isolation:auto;mix-blend-mode:normal;shape-rendering:auto;solid-color:#000000;stroke:#bebebe;stroke-linecap:square;image-rendering:auto;stroke-width:.19999;fill:#f00" height="53.402" width="4.8547" y="475.8" x="466.48"/>
  <path style="color-rendering:auto;fill-rule:evenodd;color:#000000;isolation:auto;mix-blend-mode:normal;shape-rendering:auto;solid-color:#000000;image-rendering:auto;fill:#696464" d="m460.28 505.9h39.106l.0487.0951v39.588c0 2.707-.56754 4.8862-1.2725 4.8862h-36.603c-.70495 0-1.2725-2.1793-1.2725-4.8862v-39.588z"/>
  <rect style="color-rendering:auto;fill-rule:evenodd;color:#000000;isolation:auto;mix-blend-mode:normal;shape-rendering:auto;solid-color:#000000;image-rendering:auto;fill:#bc6d35" rx="0" ry="0" height="159.76" width="17.906" y="561.95" x="500.14"/>
  <rect style="color-rendering:auto;fill-rule:evenodd;color:#000000;isolation:auto;mix-blend-mode:normal;shape-rendering:auto;solid-color:#000000;image-rendering:auto;fill:#bc6d35" rx="2.9998" ry="2.9998" height="28.634" width="620.28" y="550.68" x="-63.92"/>
  <path style="stroke:#edebeb;stroke-width:.99998px;fill:none" d="m469.42 536.36v-7.6577"/>
  <path style="stroke:#edebeb;stroke-width:.99998px;fill:none" d="m474.62 538.4v-11.741"/>
  <path style="stroke:#edebeb;stroke-width:.99998px;fill:none" d="m492.8 541.97v-18.888"/>
  <rect style="stroke-linejoin:bevel;color-rendering:auto;fill-rule:evenodd;color:#000000;isolation:auto;mix-blend-mode:normal;shape-rendering:auto;solid-color:#000000;stroke:#bebebe;stroke-linecap:square;image-rendering:auto;stroke-width:.19999;fill:#1a1a1a" height="7.7678" width="4.8547" y="467.16" x="466.48"/>
  <path style="fill:#6b6860;fill-rule:evenodd" d="m489.39 475.54 2.289-7.3448 2.2891 7.3448z"/>
  <rect style="color-rendering:auto;fill-rule:evenodd;color:#000000;isolation:auto;mix-blend-mode:normal;shape-rendering:auto;solid-color:#000000;image-rendering:auto;fill:#a95f2e" rx="2.9998" ry="2.9998" height="8.4859" width="620.28" y="570.83" x="-63.92"/>
  <rect style="color-rendering:auto;fill-rule:evenodd;color:#000000;isolation:auto;mix-blend-mode:normal;shape-rendering:auto;solid-color:#000000;image-rendering:auto;fill:#a95f2e" rx="2.9999" ry="2.9999" height="142.48" width="118.35" y="578.5" x="-8.7897"/>
  <path style="stroke:#bc6d35;stroke-width:2.9999;fill:none" d="m-10.98 630.46h119.45"/>
  <path style="stroke:#bc6d35;stroke-width:2.9999;fill:none" d="m-10.98 679.45h119.45"/>
  <path style="stroke:#fff;stroke-width:4.9999;fill:none" d="m32.861 609.64h37.259"/>
  <path style="stroke:#fff;stroke-width:4.9999;fill:none" d="m32.861 661.69h37.259"/>
  <path style="color-rendering:auto;color:#000000;isolation:auto;mix-blend-mode:normal;fill-rule:evenodd;shape-rendering:auto;solid-color:#000000;image-rendering:auto;fill:#333" d="m138.3 396.76h215.83c5.1717 0 9.3352 4.1635 9.3352 9.3352v126.56c0 10.773.73749 9.3352-9.3352 9.3352h-215.83c-10.773 0-9.3352.5041-9.3352-9.3352v-126.56c0-5.1717 4.1635-9.3352 9.3352-9.3352z"/>
  <rect style="color-rendering:auto;color:#000000;isolation:auto;mix-blend-mode:normal;fill-rule:evenodd;shape-rendering:auto;solid-color:#000000;image-rendering:auto;fill:#484646" rx="3.9052" ry="1.1906" height="10.374" width="279.51" y="540.63" x="106.46"/>
  <rect style="color-rendering:auto;color:#000000;isolation:auto;mix-blend-mode:normal;fill-rule:evenodd;shape-rendering:auto;solid-color:#000000;image-rendering:auto;fill:#6c6868" rx="3.6306" ry=".99051" height="120.83" width="218.02" y="408.44" x="137.21"/>
  <rect style="color-rendering:auto;color:#000000;isolation:auto;mix-blend-mode:normal;fill-rule:evenodd;shape-rendering:auto;solid-color:#000000;image-rendering:auto;fill:#999" rx="3.7326" ry="1.138" height="3.381" width="54.097" y="541.2" x="219.17"/>
  <circle r="2.7344" style="color-rendering:auto;color:#000000;isolation:auto;mix-blend-mode:normal;fill-rule:evenodd;shape-rendering:auto;solid-color:#000000;image-rendering:auto;fill:#ccc" cx="247.03" cy="402.35"/>
  <text style="letter-spacing:0px;font-size:17.5px;word-spacing:0px;font-family:sans-serif;line-height:125%;fill:#000000" xml:space="preserve" y="467.68732" x="255.52579"><tspan x="255.52579" y="467.68732"/><tspan x="255.52579" y="489.56232"/></text>
  <g transform="matrix(0 -.90621 .90621 0 -231.06 665.3)">
   <circle style="color-rendering:auto;color:#000000;isolation:auto;mix-blend-mode:normal;fill-rule:evenodd;shape-rendering:auto;solid-color:#000000;image-rendering:auto;fill:#fff" cy="466.13" cx="215.42" r="1.4006"/>
   <circle style="color-rendering:auto;color:#000000;isolation:auto;mix-blend-mode:normal;fill-rule:evenodd;shape-rendering:auto;solid-color:#000000;image-rendering:auto;fill:#fff" transform="rotate(45)" cy="175.28" cx="486.77" r="1.4006"/>
   <circle style="color-rendering:auto;color:#000000;isolation:auto;mix-blend-mode:normal;fill-rule:evenodd;shape-rendering:auto;solid-color:#000000;image-rendering:auto;fill:#fff" transform="rotate(90)" cy="-222.26" cx="472.97" r="1.4006"/>
   <circle style="color-rendering:auto;color:#000000;isolation:auto;mix-blend-mode:normal;fill-rule:evenodd;shape-rendering:auto;solid-color:#000000;image-rendering:auto;fill:#fff" transform="rotate(135)" cy="-493.61" cx="182.12" r="1.4006"/>
   <circle style="color-rendering:auto;color:#000000;isolation:auto;mix-blend-mode:normal;fill-rule:evenodd;shape-rendering:auto;solid-color:#000000;image-rendering:auto;fill:#fff" transform="scale(-1)" cy="-479.81" cx="-215.42" r="1.4006"/>
  </g>
  <text style="font-size:13.334px;letter-spacing:0px;line-height:125%;word-spacing:0px;font-family:sans-serif;fill:#ffffff" xml:space="preserve" y="472.62122" x="211.08099"><tspan x="211.08099" style="font-size:12.5px;line-height:125%;font-family:sans-serif" y="472.62122">Shutting down</tspan></text>
 </g>
</svg>
