<svg xmlns:rdf="http://www.w3.org/1999/02/22-rdf-syntax-ns#" xmlns="http://www.w3.org/2000/svg" height="84.35mm" width="195.12mm" version="1.1" xmlns:cc="http://creativecommons.org/ns#" xmlns:dc="http://purl.org/dc/elements/1.1/" viewBox="0 0 691.3559 298.87878">
 <g transform="translate(-11.181 -50.303)">
  <text style="font-size:60px;font-weight:100;letter-spacing:0px;line-height:125%;word-spacing:0px;font-family:&apos;AR CENA&apos;;fill:#b4e913" y="350.04178" x="447.59079" xml:space="preserve"><tspan y="350.04178" x="447.59079"/></text>
  <g transform="matrix(2.3644 0 0 2.3655 -550.27 -1050.8)">
   <text style="font-size:60px;font-weight:100;letter-spacing:0px;line-height:125%;word-spacing:0px;font-family:&apos;AR CENA&apos;;fill:#a6d41d" xml:space="preserve" y="504.95038" x="382.79102"><tspan x="382.79102" y="504.95038">4</tspan></text>
   <path d="m405.7 480.93s18.003-1.9597 5.381-10.379" style="stroke:#b4e913;stroke-width:.42284px;fill:none"/>
   <text style="font-size:60px;font-weight:100;letter-spacing:0px;line-height:125%;word-spacing:0px;font-family:&apos;AR CENA&apos;;fill:#b4e913" y="504.95038" x="380.79102" xml:space="preserve"><tspan y="504.95038" x="380.79102">4</tspan></text>
   <path d="m411.15 470.28.57753-2.2056" style="stroke:#000;stroke-width:.42284px;fill:none"/>
   <path d="m402.96 477s2.9081 1.5844 4.2299-.0761c0 0-1.3796.58971-4.2299.0761z" style="fill-rule:evenodd;stroke:#f2f2f2;stroke-width:.21142;fill:#f2f2f2"/>
   <ellipse style="stroke-linejoin:bevel;color-rendering:auto;color:#000000;shape-rendering:auto;solid-color:#000000;stroke:#f2f2f2;stroke-linecap:square;stroke-width:.21142;fill:#f2f2f2;fill-rule:evenodd;mix-blend-mode:normal;image-rendering:auto;isolation:auto" rx=".81325" ry=".85536" cy="472.39" cx="403.06"/>
   <path style="stroke:#000;stroke-width:.42284px;fill:none" d="m411.28 470.23-1.44-1.64"/>
   <ellipse style="stroke-linejoin:bevel;color-rendering:auto;color:#000000;shape-rendering:auto;solid-color:#000000;stroke:#f2f2f2;stroke-linecap:square;stroke-width:.21142;fill:#f2f2f2;fill-rule:evenodd;mix-blend-mode:normal;image-rendering:auto;isolation:auto" rx=".81325" ry=".85536" cy="472.39" cx="406.53"/>
   <path d="m411.13 470.36-2.0219.32761" style="stroke:#000;stroke-width:.42284px;fill:none"/>
   <ellipse style="color-rendering:auto;color:#000000;isolation:auto;mix-blend-mode:normal;fill-rule:evenodd;shape-rendering:auto;solid-color:#000000;image-rendering:auto;fill:#1a1a1a" rx=".34506" ry=".36863" cy="472.6" cx="407.1"/>
   <ellipse style="color-rendering:auto;color:#000000;isolation:auto;mix-blend-mode:normal;fill-rule:evenodd;shape-rendering:auto;solid-color:#000000;image-rendering:auto;fill:#1a1a1a" rx=".34506" ry=".36863" cy="472.73" cx="403.55"/>
   <path style="stroke:#000;stroke-width:.12685;fill:none" d="m404.44 470.47s-1.1428.82555-2.4401.21231"/>
   <path d="m406.18 469.92s1.1428.82555 2.4401.21231" style="stroke:#000;stroke-width:.12685;fill:none"/>
   <path style="fill-rule:evenodd;stroke:#b4e913;stroke-width:.42284px;fill:#ffa200" d="m400.97 503.86s-.13646 9.3979-1.0916 9.8156"/>
   <path style="fill-rule:evenodd;stroke:#b4e913;stroke-width:.42284px" d="m396.65 513.9s.5361-.78767 3.4525-1.0174c0 0 .25733 1.3784-.0858 1.5425-.34311.1641-3.281 1.3128-3.4954 1.0502-.21444-.26255-.40743-1.2143.12867-1.5754z"/>
   <path d="m404.29 503.83s.13646 9.3979 1.0916 9.8155" style="fill-rule:evenodd;stroke:#b4e913;stroke-width:.42284px;fill:#ffa200"/>
   <path d="m408.61 513.87s-.5361-.78767-3.4525-1.0174c0 0-.25733 1.3784.0858 1.5425.34311.16409 3.281 1.3128 3.4954 1.0502.21444-.26255.40743-1.2143-.12867-1.5754z" style="fill-rule:evenodd;stroke:#b4e913;stroke-width:.42284px"/>
   <path style="stroke:#b4e913;stroke-width:.42284px;fill:none" d="m391.15 479.7s-23.465 1.2356-7.0136 6.5438"/>
   <path d="m384.09 486.4-.57753 1.9638" style="stroke:#000;stroke-width:.42284px;fill:none"/>
   <path style="stroke:#000;stroke-width:.42284px;fill:none" d="m383.73 486.25 1.6753 1.646"/>
   <path d="m384.12 486.32 2.0219-.2917" style="stroke:#000;stroke-width:.42284px;fill:none"/>
  </g>
  <g transform="matrix(2.3644 0 0 2.3655 -509.16 -1223.1)">
   <text style="letter-spacing:0px;fill-opacity:.99685;font-size:60px;word-spacing:0px;font-family:sans-serif;line-height:125%;fill:#36b5e0" xml:space="preserve" y="578.44434" x="227.69229"><tspan x="227.69229" style="font-family:&apos;AR CENA&apos;;fill-opacity:.99685;font-weight:100;fill:#36b5e0" y="578.44434">6</tspan></text>
   <path d="m233.15 557.77s-23.465 1.6821-7.0136 8.9088" style="stroke:#00beff;stroke-width:.42284;fill:none"/>
   <path style="fill-rule:evenodd;stroke:#00beff;stroke-width:.42284px;fill:#ffa200" d="m239.53 575.66s-.13646 9.3979-1.0916 9.8156"/>
   <path style="fill-rule:evenodd;stroke:#00beff;stroke-width:.42284px" d="m235.21 585.69s.5361-.78767 3.4525-1.0174c0 0 .25733 1.3784-.0858 1.5425-.34311.1641-3.281 1.3128-3.4954 1.0502-.21444-.26255-.40743-1.2143.12867-1.5754z"/>
   <path d="m246.32 576.69s.13646 9.3979 1.0916 9.8155" style="fill-rule:evenodd;stroke:#00beff;stroke-width:.42284px;fill:#ffa200"/>
   <path d="m250.63 586.73s-.5361-.78767-3.4525-1.0174c0 0-.25733 1.3784.0858 1.5425.34311.16409 3.281 1.3128 3.4954 1.0502.21444-.26255.40743-1.2143-.12867-1.5754z" style="fill-rule:evenodd;stroke:#00beff;stroke-width:.42284px"/>
   <path style="stroke:#00beff;stroke-width:.42284;fill:none" d="m251.11 558.47s23.465 1.6821 7.0136 8.9088"/>
   <text style="letter-spacing:0px;font-size:60px;word-spacing:0px;font-family:sans-serif;line-height:125%;fill:#00beff" y="578.44434" x="225.69229" xml:space="preserve"><tspan y="578.44434" x="225.69229" style="font-family:&apos;AR CENA&apos;;font-weight:100;fill:#00beff">6</tspan></text>
   <ellipse style="stroke-linejoin:bevel;color-rendering:auto;color:#000000;shape-rendering:auto;solid-color:#000000;stroke:#f2f2f2;stroke-linecap:square;stroke-width:.21142;fill:#f2f2f2;fill-rule:evenodd;mix-blend-mode:normal;image-rendering:auto;isolation:auto" rx=".81325" ry=".85536" cy="543.85" cx="240.1"/>
   <ellipse style="stroke-linejoin:bevel;color-rendering:auto;color:#000000;shape-rendering:auto;solid-color:#000000;stroke:#f2f2f2;stroke-linecap:square;stroke-width:.21142;fill:#f2f2f2;fill-rule:evenodd;mix-blend-mode:normal;image-rendering:auto;isolation:auto" rx=".81325" ry=".85536" cy="543.73" cx="244.09"/>
   <ellipse style="color-rendering:auto;color:#000000;isolation:auto;mix-blend-mode:normal;fill-rule:evenodd;shape-rendering:auto;solid-color:#000000;image-rendering:auto;fill:#1a1a1a" rx=".34506" ry=".36863" cy="543.85" cx="244.05"/>
   <ellipse style="color-rendering:auto;color:#000000;isolation:auto;mix-blend-mode:normal;fill-rule:evenodd;shape-rendering:auto;solid-color:#000000;image-rendering:auto;fill:#1a1a1a" rx=".34506" ry=".36863" cy="543.93" cx="240.07"/>
   <path style="stroke:#000;stroke-width:.12685;fill:none" d="m242.96 542.5s1.1428-.82555 2.4401-.21231"/>
   <path d="m241.65 542.74s-1.1428-.82555-2.4401-.21231" style="stroke:#000;stroke-width:.12685;fill:none"/>
   <path style="fill-rule:evenodd;stroke:#f2f2f2;stroke-width:.21142;fill:#f2f2f2" d="m238.26 546.91s3.2675 2.2535 4.2892.12604c0 0-2.1977 1.1749-4.2892-.12604z"/>
   <path style="stroke:#000;stroke-width:.42284px;fill:none" d="m226.09 566.89-.57753 2.6736"/>
   <path d="m225.73 566.7 1.6753 2.2408" style="stroke:#000;stroke-width:.42284px;fill:none"/>
   <path style="stroke:#000;stroke-width:.42284px;fill:none" d="m226.12 566.79 2.0219-.39713"/>
   <path d="m258.17 567.59.57753 2.6736" style="stroke:#000;stroke-width:.42284px;fill:none"/>
   <path style="stroke:#000;stroke-width:.42284px;fill:none" d="m258.53 567.4-1.6753 2.2408"/>
   <path d="m258.14 567.49-2.0219-.39713" style="stroke:#000;stroke-width:.42284px;fill:none"/>
  </g>
  <g transform="matrix(2.3644 0 0 2.3655 -336.73 -1231)">
   <path d="m367.35 563.12s-11.895-4.2862-11.301-8.8015" style="fill-opacity:0;stroke:#ff0029;stroke-width:.42284px"/>
   <path style="fill-opacity:0;stroke:#ff0029;stroke-width:.42284px" d="m377.53 562.87s12.643-.18869 13.681 4.2457"/>
   <text style="font-size:60px;font-weight:100;letter-spacing:0px;line-height:125%;word-spacing:0px;font-family:&apos;AR CENA&apos;;fill:#e6193a" xml:space="preserve" y="581.19354" x="361.12311"><tspan x="361.12311" y="581.19354">8</tspan></text>
   <text style="font-size:60px;font-weight:100;letter-spacing:0px;line-height:125%;word-spacing:0px;font-family:&apos;AR CENA&apos;;fill:#ff0029" y="581.19354" x="359.12311" xml:space="preserve"><tspan y="581.19354" x="359.12311">8</tspan></text>
   <path style="stroke:#000;stroke-width:.42284px;fill:none" d="m391.1 567.14-.96769 1.4582"/>
   <ellipse style="stroke-linejoin:bevel;color-rendering:auto;color:#000000;shape-rendering:auto;solid-color:#000000;stroke:#f2f2f2;stroke-linecap:square;stroke-width:.21142;fill:#f2f2f2;fill-rule:evenodd;mix-blend-mode:normal;image-rendering:auto;isolation:auto" rx=".81325" ry=".85536" cy="547.84" cx="383.36"/>
   <ellipse style="stroke-linejoin:bevel;color-rendering:auto;color:#000000;shape-rendering:auto;solid-color:#000000;stroke:#f2f2f2;stroke-linecap:square;stroke-width:.21142;fill:#f2f2f2;fill-rule:evenodd;mix-blend-mode:normal;image-rendering:auto;isolation:auto" rx=".81325" ry=".85536" cy="547.78" cx="388.11"/>
   <ellipse style="color-rendering:auto;color:#000000;isolation:auto;mix-blend-mode:normal;fill-rule:evenodd;shape-rendering:auto;solid-color:#000000;image-rendering:auto;fill:#1a1a1a" rx=".34506" ry=".36863" cy="547.9" cx="388.08"/>
   <ellipse style="color-rendering:auto;color:#000000;isolation:auto;mix-blend-mode:normal;fill-rule:evenodd;shape-rendering:auto;solid-color:#000000;image-rendering:auto;fill:#1a1a1a" rx=".34506" ry=".36863" cy="547.92" cx="383.33"/>
   <path style="stroke:#000;stroke-width:.12685;fill:none" d="m386.99 546.52s1.1428-1.9232 2.4401-.49459"/>
   <path d="m384.92 546.7s-1.1428-1.7236-2.4401-.44327" style="stroke:#000;stroke-width:.12685;fill:none"/>
   <path style="fill-rule:evenodd;stroke:#f2f2f2;stroke-width:.21142;fill:#f2f2f2" d="m382.84 552.95s3.7449.58134 4.5965-.88273c0 0-2.3093 1.167-4.5965.88273z"/>
   <path d="m391 566.88.69567 1.9116" style="stroke:#000;stroke-width:.42284px;fill:none"/>
   <path d="m356.16 554.32 1.4201-1.0227" style="stroke:#000;stroke-width:.42284px;fill:none"/>
   <path style="stroke:#000;stroke-width:.42284px;fill:none" d="m391.14 567.09 1.6161.35121"/>
   <path style="stroke:#000;stroke-width:.42284px;fill:none" d="m356.16 554.61.0239-2.0342"/>
   <path d="m356.1 554.36-1.3881-.89907" style="stroke:#000;stroke-width:.42284px;fill:none"/>
   <path style="fill-rule:evenodd;stroke:#ff3e00;stroke-width:.42284px;fill:#ffa200" d="m369.51 580.04s-.13646 9.3979-1.0916 9.8156"/>
   <path style="fill-rule:evenodd;stroke:#ff3e00;stroke-width:.42284px" d="m365.2 590.08s.5361-.78767 3.4525-1.0174c0 0 .25733 1.3784-.0858 1.5425-.34311.1641-3.281 1.3128-3.4954 1.0502-.21444-.26255-.40743-1.2143.12867-1.5754z"/>
   <path d="m376.84 580.01s.13646 9.3979 1.0916 9.8155" style="fill-rule:evenodd;stroke:#ff3e00;stroke-width:.42284px;fill:#ffa200"/>
   <path d="m381.15 590.05s-.5361-.78767-3.4525-1.0174c0 0-.25733 1.3784.0858 1.5425.34311.16409 3.281 1.3128 3.4954 1.0502.21444-.26255.40743-1.2143-.12867-1.5754z" style="fill-rule:evenodd;stroke:#ff3e00;stroke-width:.42284px"/>
  </g>
  <g transform="matrix(2.3644 0 0 2.3655 -830.82 -1229.9)">
   <path style="fill-rule:evenodd;stroke:#d750ed;stroke-width:.42284px;fill:#ffa200" d="m456.35 579.57s-.13646 9.3979-1.0916 9.8156"/>
   <path style="fill-rule:evenodd;stroke:#d750ed;stroke-width:.42284px" d="m452.04 589.6s.5361-.78767 3.4525-1.0174c0 0 .25733 1.3784-.0858 1.5425-.34311.1641-3.281 1.3128-3.4954 1.0502-.21444-.26255-.40743-1.2143.12867-1.5754z"/>
   <path d="m460.29 579.54s.13646 9.3979 1.0916 9.8155" style="fill-rule:evenodd;stroke:#d750ed;stroke-width:.42284px;fill:#ffa200"/>
   <path d="m464.61 589.57s-.5361-.78767-3.4525-1.0174c0 0-.25733 1.3784.0858 1.5425.34311.16409 3.281 1.3128 3.4954 1.0502.21444-.26255.40743-1.2143-.12867-1.5754z" style="fill-rule:evenodd;stroke:#d750ed;stroke-width:.42284px"/>
   <text style="font-size:60px;font-weight:100;letter-spacing:0px;line-height:125%;word-spacing:0px;font-family:&apos;AR CENA&apos;;fill:#d38dde" xml:space="preserve" y="581.49023" x="435.45172"><tspan x="435.45172" y="581.49023">9</tspan></text>
   <text style="font-size:60px;font-weight:100;letter-spacing:0px;line-height:125%;word-spacing:0px;font-family:&apos;AR CENA&apos;;fill:#d750ed" y="581.49023" x="433.45172" xml:space="preserve"><tspan y="581.49023" x="433.45172">9</tspan></text>
   <path d="m461.43 562.94s11.173-7.3012 6.2902-12.999" style="fill-opacity:0;stroke:#d750ed;stroke-width:.42284px"/>
   <path d="m467.64 550.01-1.7471-.10183" style="stroke:#000;stroke-width:.42284px;fill:none"/>
   <ellipse style="stroke-linejoin:bevel;color-rendering:auto;color:#000000;shape-rendering:auto;solid-color:#000000;stroke:#f2f2f2;stroke-linecap:square;stroke-width:.21142;fill:#f2f2f2;fill-rule:evenodd;mix-blend-mode:normal;image-rendering:auto;isolation:auto" rx=".81325" ry=".85536" cy="549.22" cx="457.51"/>
   <ellipse style="stroke-linejoin:bevel;color-rendering:auto;color:#000000;shape-rendering:auto;solid-color:#000000;stroke:#f2f2f2;stroke-linecap:square;stroke-width:.21142;fill:#f2f2f2;fill-rule:evenodd;mix-blend-mode:normal;image-rendering:auto;isolation:auto" rx=".81325" ry=".85536" cy="549.16" cx="462.26"/>
   <ellipse style="color-rendering:auto;color:#000000;isolation:auto;mix-blend-mode:normal;fill-rule:evenodd;shape-rendering:auto;solid-color:#000000;image-rendering:auto;fill:#1a1a1a" rx=".34506" ry=".36863" cy="549.28" cx="462.23"/>
   <ellipse style="color-rendering:auto;color:#000000;isolation:auto;mix-blend-mode:normal;fill-rule:evenodd;shape-rendering:auto;solid-color:#000000;image-rendering:auto;fill:#1a1a1a" rx=".34506" ry=".36863" cy="549.31" cx="457.48"/>
   <path d="m463.74 548.34s-1.1428-1.9232-2.4401-.49459" style="stroke:#000;stroke-width:.12685;fill:none"/>
   <path style="stroke:#000;stroke-width:.12685;fill:none" d="m456.22 548.46s1.1428-1.7236 2.4401-.44327"/>
   <path d="m457.54 553.54s2.8261 1.2551 4.3515.40352c0 0-2.0643-.1193-4.3515-.40352z" style="fill-rule:evenodd;stroke:#f2f2f2;stroke-width:.21142;fill:#f2f2f2"/>
   <path style="stroke:#000;stroke-width:.42284px;fill:none" d="m467.79 550.25-1.1108-1.7042"/>
   <path d="m467.71 550.01.68965-1.5032" style="stroke:#000;stroke-width:.42284px;fill:none"/>
   <path style="fill-opacity:0;stroke:#d750ed;stroke-width:.42284px" d="m437.24 564.43s-10.133-7.5634-8.2496-11.71"/>
   <path style="stroke:#000;stroke-width:.42284px;fill:none" d="m429.09 552.76 1.6563-.56502"/>
   <path d="m429.01 553.04.61501-1.9391" style="stroke:#000;stroke-width:.42284px;fill:none"/>
   <path style="stroke:#000;stroke-width:.42284px;fill:none" d="m429.02 552.78-1.0663-1.2642"/>
  </g>
  <g transform="matrix(2.3644 0 0 2.3655 112.72 -1058.4)">
   <text style="font-size:59.676px;font-family:&apos;AR CENA&apos;;letter-spacing:0px;line-height:125%;word-spacing:0px;font-weight:100;fill:#eabe72" xml:space="preserve" transform="scale(1.1452 .87324)" y="584.24396" x="204.19795"><tspan x="204.19795" y="584.24396">1</tspan></text>
   <path d="m238.9 509.76s-.16133 7.2402-1.2907 7.5619" style="fill-rule:evenodd;stroke:#ffa200;stroke-width:.42284;fill:#ffa200"/>
   <path d="m233.8 517.49s.63384-.60682 4.082-.78382c0 0 .30424 1.062-.10144 1.1884-.40566.12642-3.8791 1.0114-4.1327.8091-.25354-.20227-.48171-.93552.15213-1.2137z" style="fill-rule:evenodd;stroke:#ffa200;stroke-width:.42284"/>
   <path style="fill-rule:evenodd;stroke:#ffa200;stroke-width:.42284;fill:#ffa200" d="m242.21 509.6s.16134 7.2402 1.2907 7.5619"/>
   <path style="fill-rule:evenodd;stroke:#ffa200;stroke-width:.42284" d="m247.3 517.33s-.63384-.60682-4.082-.78383c0 0-.30424 1.062.10144 1.1884.40566.12642 3.8791 1.0114 4.1327.8091.25353-.20227.48171-.93552-.15213-1.2136z"/>
   <path d="m237.61 491.74c-4.2752 1.6997-12.164 3.7332-1.452 7.0792" style="stroke:#ffa200;stroke-width:.42284;fill:none"/>
   <path style="stroke:#ffa200;stroke-width:.42284;fill:none" d="m242.42 491.74c4.2752 1.6997 12.164 3.7332 1.452 7.0792"/>
   <text style="font-size:59.676px;font-family:&apos;AR CENA&apos;;letter-spacing:0px;line-height:125%;word-spacing:0px;font-weight:100;fill:#ffa200" transform="scale(1.1452 .87324)" xml:space="preserve" y="584.24396" x="202.95805"><tspan y="584.24396" x="202.95805">1</tspan></text>
   <path style="stroke:#000;stroke-width:.42284;fill:none" d="m244.07 498.75s-.88733.1609-.484 1.2871"/>
   <ellipse style="stroke-linejoin:bevel;color-rendering:auto;color:#000000;shape-rendering:auto;solid-color:#000000;stroke:#f2f2f2;stroke-linecap:square;stroke-width:.42284;fill:#f2f2f2;fill-rule:evenodd;mix-blend-mode:normal;image-rendering:auto;isolation:auto" rx=".96152" ry="1.0085" cy="480.92" cx="239.42"/>
   <ellipse style="stroke-linejoin:bevel;color-rendering:auto;color:#000000;shape-rendering:auto;solid-color:#000000;stroke:#f2f2f2;stroke-linecap:square;stroke-width:.42284;fill:#f2f2f2;fill-rule:evenodd;mix-blend-mode:normal;image-rendering:auto;isolation:auto" rx=".96152" ry="1.0085" cy="480.92" cx="243.52"/>
   <ellipse style="color-rendering:auto;color:#000000;isolation:auto;mix-blend-mode:normal;fill-rule:evenodd;shape-rendering:auto;solid-color:#000000;image-rendering:auto;fill:#1a1a1a" rx=".40797" ry=".43464" cy="480.99" cx="244.42"/>
   <path d="m239.44 487.63s3.5566.92415 4.7645-1.5843c0 0-1.3156 1.5606-4.7645 1.5843z" style="fill-rule:evenodd;stroke:#f2f2f2;stroke-width:.42284;fill:#f2f2f2"/>
   <path d="m235.96 498.75s.88733.1609.484 1.2871" style="stroke:#000;stroke-width:.42284;fill:none"/>
   <path style="stroke:#000;stroke-width:.42284;fill:none" d="m236.02 498.91l1.2186-1.1538"/>
   <path d="m235.94 498.76l1.6765.11343" style="stroke:#000;stroke-width:.42284;fill:none"/>
   <path d="m244.01 498.91l-1.2186-1.1538" style="stroke:#000;stroke-width:.42284;fill:none"/>
   <path style="stroke:#000;stroke-width:.42284;fill:none" d="m244.08 498.76l-1.6765.11343"/>
   <ellipse style="color-rendering:auto;color:#000000;isolation:auto;mix-blend-mode:normal;fill-rule:evenodd;shape-rendering:auto;solid-color:#000000;image-rendering:auto;fill:#1a1a1a" rx=".40797" ry=".43464" cy="480.97" cx="240.31"/>
   <path d="m238.21 479.5s1.0318-.97338 2.2031-.25033" style="stroke:#000;stroke-width:.21142;fill:none"/>
   <path style="stroke:#000;stroke-width:.21142;fill:none" d="m244.63 478.72s-1.0318-.97339-2.2031-.25033"/>
  </g>
  <g transform="matrix(2.3644 0 0 2.3655 -708.76 -870.78)">
   <text style="font-size:60px;font-weight:100;letter-spacing:0px;line-height:125%;word-spacing:0px;font-family:&apos;AR CENA&apos;;fill:#a6d41d" y="504.95038" x="382.79102" xml:space="preserve"><tspan y="504.95038" x="382.79102">4</tspan></text>
   <path style="stroke:#b4e913;stroke-width:.42284px;fill:none" d="m405.7 480.93s18.003-1.9597 5.381-10.379"/>
   <text style="font-size:60px;font-weight:100;letter-spacing:0px;line-height:125%;word-spacing:0px;font-family:&apos;AR CENA&apos;;fill:#b4e913" xml:space="preserve" y="504.95038" x="380.79102"><tspan x="380.79102" y="504.95038">4</tspan></text>
   <path style="stroke:#000;stroke-width:.42284px;fill:none" d="m411.15 470.28.57753-2.2056"/>
   <path style="fill-rule:evenodd;stroke:#f2f2f2;stroke-width:.21142;fill:#f2f2f2" d="m402.96 477s2.9081 1.5844 4.2299-.0761c0 0-1.3796.58971-4.2299.0761z"/>
   <ellipse style="stroke-linejoin:bevel;color-rendering:auto;color:#000000;shape-rendering:auto;solid-color:#000000;stroke:#f2f2f2;stroke-linecap:square;stroke-width:.21142;fill:#f2f2f2;fill-rule:evenodd;mix-blend-mode:normal;image-rendering:auto;isolation:auto" rx=".81325" ry=".85536" cy="472.39" cx="403.06"/>
   <path d="m411.28 470.23-1.44-1.64" style="stroke:#000;stroke-width:.42284px;fill:none"/>
   <ellipse style="stroke-linejoin:bevel;color-rendering:auto;color:#000000;shape-rendering:auto;solid-color:#000000;stroke:#f2f2f2;stroke-linecap:square;stroke-width:.21142;fill:#f2f2f2;fill-rule:evenodd;mix-blend-mode:normal;image-rendering:auto;isolation:auto" rx=".81325" ry=".85536" cy="472.39" cx="406.53"/>
   <path style="stroke:#000;stroke-width:.42284px;fill:none" d="m411.13 470.36-2.0219.32761"/>
   <ellipse style="color-rendering:auto;color:#000000;isolation:auto;mix-blend-mode:normal;fill-rule:evenodd;shape-rendering:auto;solid-color:#000000;image-rendering:auto;fill:#1a1a1a" rx=".34506" ry=".36863" cy="472.6" cx="407.1"/>
   <ellipse style="color-rendering:auto;color:#000000;isolation:auto;mix-blend-mode:normal;fill-rule:evenodd;shape-rendering:auto;solid-color:#000000;image-rendering:auto;fill:#1a1a1a" rx=".34506" ry=".36863" cy="472.73" cx="403.55"/>
   <path d="m404.44 470.47s-1.1428.82555-2.4401.21231" style="stroke:#000;stroke-width:.12685;fill:none"/>
   <path style="stroke:#000;stroke-width:.12685;fill:none" d="m406.18 469.92s1.1428.82555 2.4401.21231"/>
   <path d="m400.97 503.86s-.13646 9.3979-1.0916 9.8156" style="fill-rule:evenodd;stroke:#b4e913;stroke-width:.42284px;fill:#ffa200"/>
   <path d="m396.65 513.9s.5361-.78767 3.4525-1.0174c0 0 .25733 1.3784-.0858 1.5425-.34311.1641-3.281 1.3128-3.4954 1.0502-.21444-.26255-.40743-1.2143.12867-1.5754z" style="fill-rule:evenodd;stroke:#b4e913;stroke-width:.42284px"/>
   <path style="fill-rule:evenodd;stroke:#b4e913;stroke-width:.42284px;fill:#ffa200" d="m404.29 503.83s.13646 9.3979 1.0916 9.8155"/>
   <path style="fill-rule:evenodd;stroke:#b4e913;stroke-width:.42284px" d="m408.61 513.87s-.5361-.78767-3.4525-1.0174c0 0-.25733 1.3784.0858 1.5425.34311.16409 3.281 1.3128 3.4954 1.0502.21444-.26255.40743-1.2143-.12867-1.5754z"/>
   <path d="m391.15 479.7s-23.465 1.2356-7.0136 6.5438" style="stroke:#b4e913;stroke-width:.42284px;fill:none"/>
   <path style="stroke:#000;stroke-width:.42284px;fill:none" d="m384.09 486.4-.57753 1.9638"/>
   <path d="m383.73 486.25 1.6753 1.646" style="stroke:#000;stroke-width:.42284px;fill:none"/>
   <path style="stroke:#000;stroke-width:.42284px;fill:none" d="m384.12 486.32 2.0219-.2917"/>
  </g>
  <g transform="matrix(2.3644 0 0 2.3655 -61.25 -878.41)">
   <text style="font-size:59.676px;font-family:&apos;AR CENA&apos;;letter-spacing:0px;line-height:125%;word-spacing:0px;font-weight:100;fill:#eabe72" transform="scale(1.1452 .87324)" xml:space="preserve" y="584.24396" x="204.19795"><tspan y="584.24396" x="204.19795">1</tspan></text>
   <path style="fill-rule:evenodd;stroke:#ffa200;stroke-width:.42284;fill:#ffa200" d="m238.9 509.76s-.16133 7.2402-1.2907 7.5619"/>
   <path style="fill-rule:evenodd;stroke:#ffa200;stroke-width:.42284" d="m233.8 517.49s.63384-.60682 4.082-.78382c0 0 .30424 1.062-.10144 1.1884-.40566.12642-3.8791 1.0114-4.1327.8091-.25354-.20227-.48171-.93552.15213-1.2137z"/>
   <path d="m242.21 509.6s.16134 7.2402 1.2907 7.5619" style="fill-rule:evenodd;stroke:#ffa200;stroke-width:.42284;fill:#ffa200"/>
   <path d="m247.3 517.33s-.63384-.60682-4.082-.78383c0 0-.30424 1.062.10144 1.1884.40566.12642 3.8791 1.0114 4.1327.8091.25353-.20227.48171-.93552-.15213-1.2136z" style="fill-rule:evenodd;stroke:#ffa200;stroke-width:.42284"/>
   <path style="stroke:#ffa200;stroke-width:.42284;fill:none" d="m237.61 491.74c-4.2752 1.6997-12.164 3.7332-1.452 7.0792"/>
   <path d="m242.42 491.74c4.2752 1.6997 12.164 3.7332 1.452 7.0792" style="stroke:#ffa200;stroke-width:.42284;fill:none"/>
   <text style="font-size:59.676px;font-family:&apos;AR CENA&apos;;letter-spacing:0px;line-height:125%;word-spacing:0px;font-weight:100;fill:#ffa200" xml:space="preserve" transform="scale(1.1452 .87324)" y="584.24396" x="202.95805"><tspan x="202.95805" y="584.24396">1</tspan></text>
   <path d="m244.07 498.75s-.88733.1609-.484 1.2871" style="stroke:#000;stroke-width:.42284;fill:none"/>
   <ellipse style="stroke-linejoin:bevel;color-rendering:auto;color:#000000;shape-rendering:auto;solid-color:#000000;stroke:#f2f2f2;stroke-linecap:square;stroke-width:.42284;fill:#f2f2f2;fill-rule:evenodd;mix-blend-mode:normal;image-rendering:auto;isolation:auto" rx=".96152" ry="1.0085" cy="480.92" cx="239.42"/>
   <ellipse style="stroke-linejoin:bevel;color-rendering:auto;color:#000000;shape-rendering:auto;solid-color:#000000;stroke:#f2f2f2;stroke-linecap:square;stroke-width:.42284;fill:#f2f2f2;fill-rule:evenodd;mix-blend-mode:normal;image-rendering:auto;isolation:auto" rx=".96152" ry="1.0085" cy="480.92" cx="243.52"/>
   <ellipse style="color-rendering:auto;color:#000000;isolation:auto;mix-blend-mode:normal;fill-rule:evenodd;shape-rendering:auto;solid-color:#000000;image-rendering:auto;fill:#1a1a1a" rx=".40797" ry=".43464" cy="480.99" cx="244.42"/>
   <path style="fill-rule:evenodd;stroke:#f2f2f2;stroke-width:.42284;fill:#f2f2f2" d="m239.44 487.63s3.5566.92415 4.7645-1.5843c0 0-1.3156 1.5606-4.7645 1.5843z"/>
   <path style="stroke:#000;stroke-width:.42284;fill:none" d="m235.96 498.75s.88733.1609.484 1.2871"/>
   <path d="m236.02 498.91l1.2186-1.1538" style="stroke:#000;stroke-width:.42284;fill:none"/>
   <path style="stroke:#000;stroke-width:.42284;fill:none" d="m235.94 498.76l1.6765.11343"/>
   <path style="stroke:#000;stroke-width:.42284;fill:none" d="m244.01 498.91l-1.2186-1.1538"/>
   <path d="m244.08 498.76l-1.6765.11343" style="stroke:#000;stroke-width:.42284;fill:none"/>
   <ellipse style="color-rendering:auto;color:#000000;isolation:auto;mix-blend-mode:normal;fill-rule:evenodd;shape-rendering:auto;solid-color:#000000;image-rendering:auto;fill:#1a1a1a" rx=".40797" ry=".43464" cy="480.97" cx="240.31"/>
   <path style="stroke:#000;stroke-width:.21142;fill:none" d="m238.21 479.5s1.0318-.97338 2.2031-.25033"/>
   <path d="m244.63 478.72s-1.0318-.97339-2.2031-.25033" style="stroke:#000;stroke-width:.21142;fill:none"/>
  </g>
  <text style="letter-spacing:0px;font-weight:100;font-size:252.99px;word-spacing:0px;font-family:&apos;AR CENA&apos;;line-height:125%;fill:#8f9398" xml:space="preserve" y="372.7648" x="322.80923"><tspan y="372.7648" x="322.80923" style="fill:#8f9398">+</tspan></text>
  <text style="letter-spacing:0px;font-weight:100;font-size:252.99px;word-spacing:0px;font-family:&apos;AR CENA&apos;;line-height:125%;fill:#5e6b7d" y="372.7648" x="320.80923" xml:space="preserve"><tspan y="372.7648" x="320.80923">+</tspan></text>
  <path style="stroke:#5e6b7d;stroke-width:2;fill:#ffa200;fill-rule:evenodd" d="m373.95 333.79s-.2579 11.609-2.0632 12.125"/>
  <path style="stroke:#5e6b7d;stroke-width:2;fill-rule:evenodd" d="m365.8 346.19s1.0132-.973 6.5251-1.2568c0 0 .48634 1.7028-.16215 1.9055-.64846.20271-6.2009 1.6217-6.6062 1.2974-.40528-.32433-.77002-1.5.24318-1.946z"/>
  <path style="stroke:#5e6b7d;stroke-width:2;fill:#ffa200;fill-rule:evenodd" d="m387.04 333.53s.2579 11.609 2.0632 12.125"/>
  <path style="stroke:#5e6b7d;stroke-width:2;fill-rule:evenodd" d="m395.19 345.93s-1.0132-.973-6.5251-1.2568c0 0-.48634 1.7028.16216 1.9055.64846.20272 6.2009 1.6217 6.6062 1.2974.40527-.32433.77001-1.5-.24319-1.946z"/>
  <path style="stroke:#5e6b7d;stroke-width:4;fill:none" d="m329.14 286.21-3.2962 7.9412"/>
  <path style="stroke:#5e6b7d;stroke-width:4;fill:none" d="m331.15 285.8-14.377 3.014"/>
  <path style="stroke:#f2f2f2;stroke-width:.5;fill:#f2f2f2;fill-rule:evenodd" d="m377.62 252.13s6.3716-5.7242 10.155.58945c0 0-5.018-1.0718-10.155-.58945z"/>
  <ellipse style="stroke-linejoin:bevel;color-rendering:auto;fill-rule:evenodd;color:#000000;isolation:auto;mix-blend-mode:normal;shape-rendering:auto;solid-color:#000000;stroke:#f2f2f2;stroke-linecap:square;image-rendering:auto;stroke-width:.5;fill:#f2f2f2" rx="1.9347" ry="2.0356" cy="240.46" cx="378.88"/>
  <ellipse style="stroke-linejoin:bevel;color-rendering:auto;fill-rule:evenodd;color:#000000;isolation:auto;mix-blend-mode:normal;shape-rendering:auto;solid-color:#000000;stroke:#f2f2f2;stroke-linecap:square;image-rendering:auto;stroke-width:.5;fill:#f2f2f2" rx="1.9347" ry="2.0356" cy="240.46" cx="387.13"/>
  <ellipse style="color-rendering:auto;fill-rule:evenodd;color:#000000;isolation:auto;mix-blend-mode:normal;shape-rendering:auto;solid-color:#000000;image-rendering:auto;fill:#1a1a1a" rx="1.2653" ry="1.3521" cy="241.21" cx="387.13"/>
  <ellipse style="color-rendering:auto;fill-rule:evenodd;color:#000000;isolation:auto;mix-blend-mode:normal;shape-rendering:auto;solid-color:#000000;image-rendering:auto;fill:#1a1a1a" rx="1.2653" ry="1.3521" cy="240.89" cx="378.87"/>
  <path style="stroke:#000;stroke-width:0.3;fill:none" d="m376.39 237.78s1.9702-.79828 4.433-.50526"/>
  <path style="stroke:#000;stroke-width:0.3;fill:none" d="m388.7 237.64s-1.8077-.9043-3.6721-.50524"/>
  <path style="stroke:#5e6b7d;stroke-width:4;fill:none" d="m329.25 285.87-10.26-5.05"/>
  <path style="stroke:#5e6b7d;stroke-width:4;fill:none" d="m432.79 286.21 3.2962 7.9412"/>
  <path style="stroke:#5e6b7d;stroke-width:4;fill:none" d="m430.78 285.8 14.377 3.014"/>
  <path style="stroke:#5e6b7d;stroke-width:4;fill:none" d="m432.68 285.87 10.261-5.0508"/>
 </g>
</svg>
