<svg xmlns:rdf="http://www.w3.org/1999/02/22-rdf-syntax-ns#" xmlns="http://www.w3.org/2000/svg" height="91.373mm" width="186.06mm" version="1.1" xmlns:cc="http://creativecommons.org/ns#" xmlns:xlink="http://www.w3.org/1999/xlink" viewBox="0 0 659.25554 323.76303" xmlns:dc="http://purl.org/dc/elements/1.1/">
 <path style="stroke:#5e6b7d;stroke-width:2;fill:none" d="m362.23 288.58s51.582-24.235 54.207-40.638"/>
 <path style="stroke:#000;stroke-width:2;fill:none" d="m416.75 248-5.487-3.0152"/>
 <path style="stroke:#000;stroke-width:2;fill:none" d="m416.33 249.11 2.7444-8.5914"/>
 <text style="letter-spacing:0px;font-weight:100;font-size:405.87px;word-spacing:0px;font-family:&apos;AR CENA&apos;;line-height:125%;fill:#5e6b7d" transform="scale(.99945 1.0005)" y="373.95032" x="263.48441" xml:space="preserve"><tspan y="373.95032" x="263.48441">-</tspan></text>
 <path style="stroke:#5e6b7d;stroke-width:2;fill:#ffa200;fill-rule:evenodd" d="m316.15 289.06s-.41352 30.529-3.3082 31.885"/>
 <path style="stroke:#5e6b7d;stroke-width:2;fill-rule:evenodd" d="m303.08 321.66s1.6246-2.5586 10.462-3.305c0 0 .7798 4.4778-.26 5.0109-1.0397.53306-9.9426 4.2644-10.592 3.4116-.64983-.85287-1.2347-3.9447.38992-5.1174z"/>
 <path style="stroke:#5e6b7d;stroke-width:2;fill:#ffa200;fill-rule:evenodd" d="m337.14 288.38s.41352 30.529 3.3082 31.885"/>
 <path style="stroke:#5e6b7d;stroke-width:2;fill-rule:evenodd" d="m350.21 320.98s-1.6246-2.5586-10.462-3.305c0 0-.77981 4.4778.26001 5.0109 1.0397.53309 9.9426 4.2644 10.592 3.4116.64982-.85289 1.2346-3.9447-.38993-5.1174z"/>
 <path style="stroke:#5e6b7d;stroke-width:2;fill:none" d="m288.43 281.37s-45.381-25.22-48.279-45.505"/>
 <path style="stroke:#000;stroke-width:2;fill:none" d="m240.52 235.94 3.7422-3.979"/>
 <path style="stroke:#000;stroke-width:2;fill:none" d="m240.84 237.26-2.1393-9.2549"/>
 <path style="stroke:#000;stroke-width:2;fill:none" d="m416.99 248.09 8.0185-5.2312"/>
 <path style="stroke:#f2f2f2;stroke-width:0.5;fill:#f2f2f2;fill-rule:evenodd" d="m317.18 284.26s10.216-9.1883 16.283.94617c0 0-8.0459-1.7204-16.283-.94617z"/>
 <ellipse style="stroke-linejoin:bevel;color-rendering:auto;fill-rule:evenodd;color:#000000;isolation:auto;mix-blend-mode:normal;shape-rendering:auto;solid-color:#000000;stroke:#f2f2f2;stroke-linecap:square;image-rendering:auto;stroke-width:0.5;fill:#f2f2f2" rx="3.1021" ry="3.2675" cy="265.53" cx="319.2"/>
 <ellipse style="stroke-linejoin:bevel;color-rendering:auto;fill-rule:evenodd;color:#000000;isolation:auto;mix-blend-mode:normal;shape-rendering:auto;solid-color:#000000;stroke:#f2f2f2;stroke-linecap:square;image-rendering:auto;stroke-width:0.5;fill:#f2f2f2" rx="3.1021" ry="3.2675" cy="265.53" cx="332.42"/>
 <ellipse style="color-rendering:auto;fill-rule:evenodd;color:#000000;isolation:auto;mix-blend-mode:normal;shape-rendering:auto;solid-color:#000000;image-rendering:auto;fill:#1a1a1a" rx="2.0288" ry="2.1703" cy="266.71" cx="332.42"/>
 <ellipse style="color-rendering:auto;fill-rule:evenodd;color:#000000;isolation:auto;mix-blend-mode:normal;shape-rendering:auto;solid-color:#000000;image-rendering:auto;fill:#1a1a1a" rx="2.0288" ry="2.1703" cy="266.2" cx="319.16"/>
 <path style="stroke:#000;stroke-width:0.3;fill:none" d="m315.2 261.21s3.159-1.2814 7.1079-.81103"/>
 <path style="stroke:#000;stroke-width:0.3;fill:none" d="m334.94 261s-2.8985-1.4516-5.8879-.81099"/>
 <path style="stroke:#000;stroke-width:2;fill:none" d="m240.37 236.1-5.7312-4.7603"/>
 <path style="color-rendering:auto;fill-rule:evenodd;color:#000000;isolation:auto;mix-blend-mode:normal;shape-rendering:auto;solid-color:#000000;image-rendering:auto;fill:#5e6b7d" d="m339.77 194.18h99.55v37.795h-94.578l-19.177 27.007 14.204-30.758z"/>
 <text style="letter-spacing:0px;font-weight:100;font-size:35.644px;word-spacing:0px;font-family:&apos;AR CENA&apos;;line-height:125%;fill:#ffffff" transform="scale(.99945 1.0005)" y="224.41382" x="353.57126" xml:space="preserve"><tspan y="224.41382" x="353.57126">what?</tspan></text>
 <g transform="translate(-6.436,-224.51)">
  <g id="a" transform="translate(145.94,92.507)">
   <path d="m173.2 229.04s-.35862 16.143-2.8689 16.861" style="stroke:#ffa200;stroke-width:2;fill:#ffa200;fill-rule:evenodd"/>
   <path d="m161.86 246.28s1.4089-1.353 9.0735-1.7477c0 0 .67629 2.3678-.22548 2.6497-.90172.28188-8.6227 2.255-9.1862 1.804-.56356-.451-1.0708-2.0859.33816-2.706z" style="stroke:#ffa200;stroke-width:2;fill-rule:evenodd"/>
   <path d="m191.06 228.68s.35863 16.143 2.8689 16.861" style="stroke:#ffa200;stroke-width:2;fill:#ffa200;fill-rule:evenodd"/>
   <path d="m202.39 245.92s-1.4089-1.353-9.0735-1.7477c0 0-.67628 2.3678.22549 2.6497.90172.28189 8.6227 2.255 9.1862 1.804.56355-.451 1.0708-2.0859-.33816-2.706z" style="stroke:#ffa200;stroke-width:2;fill-rule:evenodd"/>
   <path d="m205.21 191.32s33.226.49605 35.953-11.162" style="stroke:#f70;stroke-width:2;fill:none"/>
   <path d="m241.36 180.33-3.1526-4.3605" style="stroke:#000;stroke-width:2;fill:none"/>
   <path d="m241.02 181.02 2.2663-5.5974" style="stroke:#000;stroke-width:2;fill:none"/>
   <path d="m241.49 180.49 5.2651-1.0503" style="stroke:#000;stroke-width:2;fill:none"/>
   <path d="m194.08 191.32s-33.226.49605-35.954-11.162" style="stroke:#f70;stroke-width:2;fill:none"/>
   <text style="letter-spacing:0px;font-weight:100;font-size:157.71px;word-spacing:0px;font-family:&apos;AR CENA&apos;;line-height:125%;fill:#f5933e" transform="scale(.99984 1.0002)" y="234.8685" x="160.14732" xml:space="preserve"><tspan y="234.8685" x="160.14732">2</tspan></text>
   <text style="letter-spacing:0px;font-weight:100;font-size:157.71px;word-spacing:0px;font-family:&apos;AR CENA&apos;;line-height:125%;fill:#ff7700" transform="scale(.99984 1.0002)" y="234.8685" x="155.59044" xml:space="preserve"><tspan y="234.8685" x="155.59044">2</tspan></text>
   <path d="m158.39 180.09 2.5432-3.8334" style="stroke:#000;stroke-width:2;fill:none"/>
   <path d="m158.67 180.78-1.8283-5.0256" style="stroke:#000;stroke-width:2;fill:none"/>
   <path d="m158.29 180.23-4.2473-.92331" style="stroke:#000;stroke-width:2;fill:none"/>
   <path d="m213 165.29s7.9057 2.0606 10.591-3.5324c0 0-2.9243 3.4796-10.591 3.5324z" style="stroke:#f2f2f2;stroke-width:.5;fill:#f2f2f2;fill-rule:evenodd"/>
   <ellipse style="stroke-linejoin:bevel;color-rendering:auto;fill-rule:evenodd;color:#000000;isolation:auto;mix-blend-mode:normal;shape-rendering:auto;solid-color:#000000;stroke:#f2f2f2;stroke-linecap:square;image-rendering:auto;stroke-width:.5;fill:#f2f2f2" rx="2.1373" ry="2.2487" cy="148.95" cx="214.12"/>
   <ellipse style="stroke-linejoin:bevel;color-rendering:auto;fill-rule:evenodd;color:#000000;isolation:auto;mix-blend-mode:normal;shape-rendering:auto;solid-color:#000000;stroke:#f2f2f2;stroke-linecap:square;image-rendering:auto;stroke-width:.5;fill:#f2f2f2" rx="2.1373" ry="2.2487" cy="148.95" cx="223.23"/>
   <ellipse style="color-rendering:auto;fill-rule:evenodd;color:#000000;isolation:auto;mix-blend-mode:normal;shape-rendering:auto;solid-color:#000000;image-rendering:auto;fill:#1a1a1a" rx=".90685" ry=".96909" cy="147.13" cx="223.24"/>
   <ellipse style="color-rendering:auto;fill-rule:evenodd;color:#000000;isolation:auto;mix-blend-mode:normal;shape-rendering:auto;solid-color:#000000;image-rendering:auto;fill:#1a1a1a" rx=".90685" ry=".96909" cy="150.72" cx="214.16"/>
   <path d="m211.37 145.98s2.2936-2.1703 4.8971-.55816" style="stroke:#000;stroke-width:0.3;fill:none"/>
   <path d="m225.8 144.06s-2.2936-2.1703-4.8971-.55814" style="stroke:#000;stroke-width:0.3;fill:none"/>
  </g>
  <g transform="translate(-410.18,93.833)">
   <g transform="translate(0,-2.2485)">
    <text style="letter-spacing:0px;font-weight:100;font-size:141.9px;word-spacing:0px;font-family:&apos;AR CENA&apos;;line-height:125%;fill:#a6d41d" transform="scale(.99976 1.0002)" y="226.25903" x="428.37695" xml:space="preserve"><tspan y="226.25903" x="428.37695">4</tspan></text>
    <path d="m482.43 169.49s42.566-4.6357 12.723-24.551" style="stroke:#b4e913;stroke-width:2;fill:none"/>
    <text style="letter-spacing:0px;font-weight:100;font-size:141.9px;word-spacing:0px;font-family:&apos;AR CENA&apos;;line-height:125%;fill:#b4e913" transform="scale(.99976 1.0002)" y="226.25903" x="423.64706" xml:space="preserve"><tspan y="226.25903" x="423.64706">4</tspan></text>
    <path d="m495.34 144.29 1.3655-5.2174" style="stroke:#000;stroke-width:2;fill:none"/>
    <path d="m475.95 160.2s6.8758 3.7479 10.001-.18001c0 0-3.2618 1.395-10.001.18001z" style="stroke:#f2f2f2;stroke-width:.5;fill:#f2f2f2;fill-rule:evenodd"/>
    <ellipse style="stroke-linejoin:bevel;color-rendering:auto;fill-rule:evenodd;color:#000000;isolation:auto;mix-blend-mode:normal;shape-rendering:auto;solid-color:#000000;stroke:#f2f2f2;stroke-linecap:square;image-rendering:auto;stroke-width:.5;fill:#f2f2f2" rx="1.9228" ry="2.0234" cy="149.29" cx="476.2"/>
    <path d="m495.62 144.19-3.3858-3.8832" style="stroke:#000;stroke-width:2;fill:none"/>
    <ellipse style="stroke-linejoin:bevel;color-rendering:auto;fill-rule:evenodd;color:#000000;isolation:auto;mix-blend-mode:normal;shape-rendering:auto;solid-color:#000000;stroke:#f2f2f2;stroke-linecap:square;image-rendering:auto;stroke-width:.5;fill:#f2f2f2" rx="1.9228" ry="2.0234" cy="149.29" cx="484.4"/>
    <path d="m495.27 144.49-4.7806.77497" style="stroke:#000;stroke-width:2;fill:none"/>
    <ellipse style="color-rendering:auto;fill-rule:evenodd;color:#000000;isolation:auto;mix-blend-mode:normal;shape-rendering:auto;solid-color:#000000;image-rendering:auto;fill:#1a1a1a" rx=".81586" ry=".87199" cy="149.78" cx="485.75"/>
    <ellipse style="color-rendering:auto;fill-rule:evenodd;color:#000000;isolation:auto;mix-blend-mode:normal;shape-rendering:auto;solid-color:#000000;image-rendering:auto;fill:#1a1a1a" rx=".81586" ry=".87199" cy="150.11" cx="477.35"/>
    <path d="m479.47 144.74s-2.7021 1.9529-5.7693.50222" style="stroke:#000;stroke-width:0.3;fill:none"/>
    <path d="m483.58 143.45s2.7021 1.9529 5.7693.50223" style="stroke:#000;stroke-width:0.3;fill:none"/>
    <path d="m471.25 223.74s-.32265 22.231-2.5811 23.219" style="stroke:#b4e913;stroke-width:2;fill:#ffa200;fill-rule:evenodd"/>
    <path d="m461.05 247.48s1.2676-1.8633 8.1631-2.4067c0 0 .60842 3.2607-.20287 3.6489-.81124.38818-7.7575 3.1054-8.2645 2.4844-.50702-.62107-.96332-2.8725.30422-3.7265z" style="stroke:#b4e913;stroke-width:2;fill-rule:evenodd"/>
    <path d="m479.11 223.67s.32264 22.231 2.5811 23.219" style="stroke:#b4e913;stroke-width:2;fill:#ffa200;fill-rule:evenodd"/>
    <path d="m489.31 247.41s-1.2676-1.8632-8.1631-2.4067c0 0-.60843 3.2607.20286 3.6489.81125.38816 7.7575 3.1054 8.2645 2.4844.50701-.62107.96332-2.8725-.30423-3.7265z" style="stroke:#b4e913;stroke-width:2;fill-rule:evenodd"/>
    <path d="m448.03 166.58s-55.48 2.9228-16.583 15.479" style="stroke:#b4e913;stroke-width:2;fill:none"/>
    <path d="m431.35 182.42-1.3655 4.6455" style="stroke:#000;stroke-width:2;fill:none"/>
    <path d="m430.48 182.08 3.961 3.8935" style="stroke:#000;stroke-width:2;fill:none"/>
    <path d="m431.41 182.24 4.7806-.69002" style="stroke:#000;stroke-width:2;fill:none"/>
   </g>
  </g>
  <g transform="translate(-137.8,86.111)">
   <path d="m317.2 235.04s-.35862 16.143-2.8689 16.861" style="stroke:#f92d2d;stroke-width:2;fill:#ffa200;fill-rule:evenodd"/>
   <path d="m305.86 252.28s1.4089-1.353 9.0735-1.7477c0 0 .67629 2.3678-.22548 2.6497-.90172.28188-8.6227 2.255-9.1862 1.804-.56356-.451-1.0708-2.0859.33816-2.706z" style="stroke:#f92d2d;stroke-width:2;fill-rule:evenodd"/>
   <path d="m327.06 234.68s.35863 16.143 2.8689 16.861" style="stroke:#f92d2d;stroke-width:2;fill:#ffa200;fill-rule:evenodd"/>
   <path d="m338.39 251.92s-1.4089-1.353-9.0735-1.7477c0 0-.67628 2.3678.22549 2.6497.90172.28189 8.6227 2.255 9.1862 1.804.56355-.451 1.0708-2.0859-.33816-2.706z" style="stroke:#f92d2d;stroke-width:2;fill-rule:evenodd"/>
   <path d="m342.13 180.47s-32.627 6.2992-32.917 18.268" style="stroke:#f92d2d;stroke-width:2;fill:none"/>
   <path d="m309.5 198.76 3.2724 3.2333" style="stroke:#000;stroke-width:2;fill:none"/>
   <path d="m309.62 198.02-.76351 5.293" style="stroke:#000;stroke-width:2;fill:none"/>
   <text style="letter-spacing:0px;font-weight:100;font-size:147.98px;word-spacing:0px;font-family:&apos;AR CENA&apos;;line-height:125%;fill:#f92d2d" y="243.25966" x="305.36276" xml:space="preserve"><tspan y="243.25966" x="305.36276">?</tspan></text>
   <path d="m343.84 176.15s18.609 27.53 10.348 36.196" style="stroke:#f92d2d;stroke-width:2;fill:none"/>
   <path d="m354.42 212.41-5.375-.25008" style="stroke:#000;stroke-width:2;fill:none"/>
   <path d="m354.82 211.75-3.4426 4.9615" style="stroke:#000;stroke-width:2;fill:none"/>
   <path d="m354.64 212.43 2.0043 4.9806" style="stroke:#000;stroke-width:2;fill:none"/>
   <path d="m353.8 168.16s8.0347-4.658 13.626 1.6451c0 0-6.4825-2.3158-13.626-1.6451z" style="stroke:#f2f2f2;stroke-width:.5;fill:#f2f2f2;fill-rule:evenodd"/>
   <ellipse style="stroke-linejoin:bevel;color-rendering:auto;fill-rule:evenodd;color:#000000;isolation:auto;mix-blend-mode:normal;shape-rendering:auto;solid-color:#000000;stroke:#f2f2f2;stroke-linecap:square;image-rendering:auto;stroke-width:.5;fill:#f2f2f2" rx="2.6904" ry="2.8306" cy="154.24" cx="355.06"/>
   <ellipse style="stroke-linejoin:bevel;color-rendering:auto;fill-rule:evenodd;color:#000000;isolation:auto;mix-blend-mode:normal;shape-rendering:auto;solid-color:#000000;stroke:#f2f2f2;stroke-linecap:square;image-rendering:auto;stroke-width:.5;fill:#f2f2f2" rx="2.6904" ry="2.8306" cy="154.24" cx="366.53"/>
   <ellipse style="color-rendering:auto;fill-rule:evenodd;color:#000000;isolation:auto;mix-blend-mode:normal;shape-rendering:auto;solid-color:#000000;image-rendering:auto;fill:#1a1a1a" rx="1.1415" ry="1.2199" cy="155.28" cx="366.53"/>
   <ellipse style="color-rendering:auto;fill-rule:evenodd;color:#000000;isolation:auto;mix-blend-mode:normal;shape-rendering:auto;solid-color:#000000;image-rendering:auto;fill:#1a1a1a" rx="1.1415" ry="1.2199" cy="154.83" cx="355.2"/>
   <path d="m351.59 150.51s2.7397-1.1101 6.1644-.7026" style="stroke:#000;stroke-width:0.3;fill:none"/>
   <path d="m368.71 150.32s-2.5137-1.2575-5.1062-.70257" style="stroke:#000;stroke-width:0.3;fill:none"/>
   <path d="m309.36 198.64-3.9693 1.7712" style="stroke:#000;stroke-width:2;fill:none"/>
  </g>
  <text style="letter-spacing:0px;font-weight:100;font-size:108px;word-spacing:0px;font-family:&apos;AR CENA&apos;;line-height:125%;fill:#333333" y="309.03543" x="455.78467" xml:space="preserve"><tspan y="309.03543" x="455.78467">=</tspan></text>
  <use xlink:href="#a" transform="translate(272.8)" height="100%" width="100%" y="0" x="0"/>
 </g>
</svg>
