<svg xmlns:rdf="http://www.w3.org/1999/02/22-rdf-syntax-ns#" xmlns="http://www.w3.org/2000/svg" height="457.71mm" width="722.66mm" version="1.1" xmlns:cc="http://creativecommons.org/ns#" xmlns:dc="http://purl.org/dc/elements/1.1/" viewBox="0 0 2560.5985 1621.8032">
 <g transform="translate(2117.5 618.49)">
  <g transform="translate(861.71 -20.792)">
   <path d="m-748.88 953.61-2.301-171.78s1.5339-9.9709 4.6019-15.34c3.068-5.369 65.195-179.48 69.03-184.85 0 0 48.321 148.8 58.292 188.68 0 0 3.9914 140.84 5.5798 182.83l74.188-1.8462s4.3676-177.53 5.3691-195.55c1.5339-27.612 5.3689-281.46 5.3689-281.46l-291.31-1.5648-3.068 477.81z" style="fill:#6c4234;fill-rule:evenodd"/>
   <path d="m-912.23 1003.4c-5.0722-45.303 32.228-41.783 91.119-56.703 0 0 59.213-.767 75.32 5.369l1.5339 49.088h-46.787c.4724-20.583-3.7899-14.032-18.408-3.835 0 0-49.088 6.8486-102.78 6.0816z" style="fill:#3a2313;fill-rule:evenodd"/>
   <path d="m-819.32 474.27s12.272-258.48 16.874-273.82c0 0 7.5466-4.602-38.473 69.03l-1.534 129.62h-77.467l-7.67-136.53s98.176-188.68 121.19-193.28l62.894-17.641s44.486 29.146 60.593 28.379c0 0-42.185 20.709-33.748 28.379l36.049 33.748-28.379 11.505s-6.903 2.301 51.389 36.816c0 0 22.243-2.301 64.428-33.748 0 0 3.068-6.903-23.777-13.039l32.981-39.117s8.4369-6.136-26.845-21.476c0 0 57.525-26.078 62.127-38.35 0 0 72.152 34.066 75.988 40.969 0 0 50.263 160.75 54.098 176.09l-5.1584 212.41s-61.046.89337-72.551.12635l-3.0381-208.95-27.095-106.36-1.5339 316.77z" style="fill:#75cacf;fill-rule:evenodd"/>
   <path d="m-964.25 481.57 35.282 19.554s56.758-78.214 75.166-3.0082c0 0 4.6019 186.51 0 204.56l-16.874 299.32s9.2039 32.339 33.748 18.802c9.3418-5.1524 12.652-82.115 17.199-164.94 7.3999-134.77 12.714-299.09 12.714-299.09s8.8814-67.744-15.808-104.65c-20.383-30.471-74.998-53.656-141.43 29.446z" style="fill:#4d4d4d;fill-rule:evenodd"/>
   <path style="fill:#e8bc94;fill-rule:evenodd" d="m-492.99 476.36 65.458-.30124s21.421 66.482-28.72 75.803c0 0-52.567 4.456-36.737-75.502z"/>
   <path d="m-676.59 76.286 21.694 110.21 39.049-110.21s-43.388 10.847-60.743 0z" style="fill:#ecc9ad;fill-rule:evenodd"/>
   <path d="m-810.22-82.297s-24.948-28.202-27.118-1.0847c-2.1692 27.117 20.61 60.743 28.202 58.574 0 0 9.7622-9.7623 10.847-27.118 1.0847-17.355-11.932-30.372-11.932-30.372z" style="fill:#e5bc9e;fill-rule:evenodd"/>
   <path style="fill:#e5bc9e;fill-rule:evenodd" d="m-473.18-82.297s24.948-28.202 27.118-1.0847c2.1694 27.117-20.609 60.743-28.202 58.574 0 0-9.7623-9.7623-10.847-27.118-1.0847-17.355 11.932-30.372 11.932-30.372z"/>
   <path d="m-769.87 31.379s-69.421-80.268-40.134-169.21l20.609-43.388s70.939 63.78 215.2 49.679c0 0-1.5186-7.376-2.6031-21.477 0 0 98.708 57.489 111.72 53.15 0 0 3.254 120.4-96.538 161.62-73.634 33.53-132.4 39.818-208.26-30.372z" style="fill:#f4d3b3;fill-rule:evenodd"/>
   <path d="m-498.7-87.938h33.626v12.474h-32.425z" style="fill:#5b4b38;fill-rule:evenodd"/>
   <path d="m-823.02-100.95s-14.101-100.88-5.4234-132.33c8.6776-31.456 43.388-99.792 173.55-103.05 0 0 121.49-6.5082 174.64 56.404 0 0 52.066 42.52 16.27 179.19 0 0-46.642 13.667-112.81-51.415 0 0 14.101 24.514 26.033 26.684 0 0-136.67 29.504-238.63-49.679 0 0-23.863 25.382-23.863 85.04z" style="fill:#b8b8b8;fill-rule:evenodd"/>
   <path d="m-817.6-86.853h24.948l1.0847 13.016h-24.948z" style="fill:#5b4b38;fill-rule:evenodd"/>
   <ellipse style="color-rendering:auto;color:#000000;isolation:auto;mix-blend-mode:normal;fill-rule:evenodd;shape-rendering:auto;solid-color:#000000;image-rendering:auto;fill:#fff" rx="21.355" ry="30.549" cy="-65.159" cx="-730.39"/>
   <path d="m-684.18 22.702 80.649-.57869s2.3009 31.447-38.734 34.515c0 0-38.195.77386-41.916-33.936z" style="fill:#5a4e52;fill-rule:evenodd"/>
   <rect style="stroke-linejoin:round;color-rendering:auto;color:#000000;shape-rendering:auto;solid-color:#000000;stroke:#5b4b38;stroke-linecap:round;stroke-width:4;fill:none;mix-blend-mode:normal;image-rendering:auto;isolation:auto" rx="15.714" ry="15.714" height="106.3" width="121.49" y="-116.14" x="-624.32"/>
   <path d="m-704.01 20.206s25.694-29.529 59.442-29.146c0 0 50.238 3.068 64.811 27.612 0 0-47.937 1.534-65.578-12.272 0 0-35.282 16.107-58.675 13.806z" style="fill:#bdb5b5;fill-rule:evenodd"/>
   <path d="m-919.56 400.39h73.76s31.456 70.506-24.948 85.691c0 0-58.574 3.2541-48.811-85.691z" style="fill:#e8bc94;fill-rule:evenodd"/>
   <rect style="stroke-linejoin:round;color-rendering:auto;color:#000000;shape-rendering:auto;solid-color:#000000;stroke:#5b4b38;stroke-linecap:round;stroke-width:4;fill:none;mix-blend-mode:normal;image-rendering:auto;isolation:auto" rx="15.714" ry="15.714" height="106.3" width="121.49" y="-116.14" x="-791.36"/>
   <path d="m-667.91-89.022h41.761v16.27h-41.761z" style="fill:#5b4b38;fill-rule:evenodd"/>
   <ellipse style="color-rendering:auto;color:#000000;isolation:auto;mix-blend-mode:normal;fill-rule:evenodd;shape-rendering:auto;solid-color:#000000;image-rendering:auto;fill:#fff" rx="21.355" ry="30.549" cy="-65.159" cx="-564.39"/>
   <path style="fill:#3a2313;fill-rule:evenodd" d="m-450.11 1003.4c5.0722-45.303-32.228-41.783-91.119-56.703 0 0-59.213-.767-75.32 5.369l-1.5341 49.088h46.787c-.4726-20.583 3.7899-14.032 18.408-3.835 0 0 49.088 6.8486 102.78 6.0816z"/>
   <circle cx="-730.39" style="color-rendering:auto;color:#000000;isolation:auto;mix-blend-mode:normal;fill-rule:evenodd;shape-rendering:auto;solid-color:#000000;image-rendering:auto;fill:#fff" r="0" cy="-65.159"/>
   <ellipse style="color-rendering:auto;color:#000000;isolation:auto;mix-blend-mode:normal;fill-rule:evenodd;shape-rendering:auto;solid-color:#000000;image-rendering:auto" rx="9.4409" ry="13.505" cy="-65.159" cx="-730.39"/>
   <ellipse style="color-rendering:auto;color:#000000;isolation:auto;mix-blend-mode:normal;fill-rule:evenodd;shape-rendering:auto;solid-color:#000000;image-rendering:auto" rx="9.4409" ry="13.505" cy="-65.159" cx="-564.39"/>
  </g>
  <text style="letter-spacing:0px;font-size:17.5px;word-spacing:0px;font-family:sans-serif;line-height:125%;fill:#000000" xml:space="preserve" y="358.55072" x="-353.55887"><tspan x="-353.55887" style="font-size:210px;font-family:&apos;Comic Sans MS&apos;" y="358.55072">&lt;</tspan></text>
  <text style="letter-spacing:0px;font-size:17.5px;word-spacing:0px;font-family:sans-serif;line-height:125%;fill:#000000" xml:space="preserve" y="343.2724" x="-2120.4641"><tspan x="-2120.4641" style="font-size:210px;font-family:&apos;Comic Sans MS&apos;" y="343.2724">Younger =</tspan></text>
  <g transform="translate(-26.724)">
   <path style="fill:#e9ad95;fill-rule:evenodd" d="m-783.65-94.87s-1.061 30.73-11.669 40.786c0 0 38.372 53.153 58.344 52.035 0 0 24.746-13.968 56.037-55.872 0 0-12.546 1.0419-15.198-6.2216-2.6519-7.2633-2.1216-31.289-2.1216-31.289s-52.51 18.997-85.395.55944z"/>
   <path style="fill:#f6bea3;fill-rule:evenodd" d="m-832.23-183.16 22.588 73.231s4.2433 11.138 13.26 12.199 23.516 17.965 56.223 13.26c20.716-2.9803 56.223-5.8344 61.525-18.564 5.3039-12.73 25.724-72 25.724-81.548l-12.332 1.061s6.7627-14.453 8.3539-31.426c0 0 5.3607-54.611 3.4852-62.487 0 0-10.546-21.509-36.798-20.759 0 0-115.61 6.706-122.35 2.2053 0 0-17.162 1.5456-17.162 36.801l9.0924 75.411z"/>
   <path style="fill:#f5bfa4;fill-rule:evenodd" d="m-655.41 859.92.71413 58.815s-16.427 20.958-15.393 38.011c.64516 10.65-14.588 4.7892-19.215-3.2173-2.7814-4.8133-1.614-11.63-.79606-18.806.0595-2.1256.9113-74.435.9113-74.435z"/>
   <path style="fill:#a6d46d;fill-rule:evenodd" d="m-850.49 947.7s-9.5472-12.199 3.7128-23.337 28.111-3.7128 28.111-3.7128 33.415 6.8951 36.598 28.641c3.1824 21.746 4.7734 27.05 4.7734 27.05s-6.3811 5.908-16.133 8.6791c-10.522 2.9902-24.969 2.795-39.559.86804 0 0-8.4866 4.2433-22.807-13.791 0 0-18.033 1.5912-23.868 3.7128-5.8344 2.1216 29.172-28.111 29.172-28.111z"/>
   <path style="fill:#b8dc89;fill-rule:evenodd" d="m-696.12 953.54c1.5942-8.1476 20.155 10.608 22.807 7.4256 2.6519-3.1824 3.1823-23.337 0-24.929-3.1824-1.5912 35.536-35.007 46.675.52987l-1.5912 10.609s30.949 8.0486 34.131 31.386l2.5586 13.042s-1.8406-18.657-19.344-18.657-29.14 15.506-29.14 15.506-51.853-2.0287-60.871-10.515z"/>
   <path style="fill:#f5bfa4;fill-rule:evenodd" d="m-819.2 858.79-3.0004 60.545s25.503 9.5596 24.003 28.678c-1.5002 19.119 11.627-1.5932 11.627-3.983s1.1251-83.645 1.1251-83.645z"/>
   <path style="fill:#648811;fill-rule:evenodd" d="m-777.19 976.99s4.5005 7.5009 1.5002 15.002c-3.0004 7.5009-45.758 10.501-54.005 11.252-8.2511.7497-55.508-4.5005-55.508-4.5005s-.74967-21.003 7.5009-23.253c8.2511-2.2503 16.502-6.0008 21.753-3.7506 5.2506 2.2504 11.251 12.002 16.502 13.502 5.2506 1.5002 42.756 4.5004 62.257-8.2511z"/>
   <path style="fill:#5f8613;fill-rule:evenodd" d="m-867.23 960.49s5.2506-12.752 9.7511-12.752c4.5004 0 36.753 1.5002 39.005 8.2511 2.2502 6.751-2.2503 10.501-8.2511 5.2506-6.0008-5.2506-36.753 0-40.504-.74968z"/>
   <path style="fill:#5f8613;fill-rule:evenodd" d="m-612.92 959.73s1.5002-8.2511-6.0008-10.501c-7.5009-2.2503-32.254 0-36.004 2.2503-3.7506 2.2503-7.5009 12.002.74968 12.002 0 0 33.754-9.0012 41.254-3.7506"/>
   <path style="fill:#648811;fill-rule:evenodd" d="m-701.96 978.98s-3.7128 7.9561-2.1216 11.138c1.5912 3.1824 39.249 12.73 43.492 12.73 4.2433 0 62.057.5299 70.543-5.8345 0 0-2.652-25.99-12.73-26.52-10.078-.52988-29.702 7.4256-36.598 16.442 0 0-57.815-7.9561-62.587-7.9561z"/>
   <path style="fill:#6f6f6f;fill-rule:evenodd" d="m-837.22 855.42s-.52992 12.199 29.702 9.5472c0 0 27.581 3.1824 32.885-4.2433l3.7128-49.856s-64.708-9.0167-70.013 2.1217z"/>
   <path style="fill:#6f6f6f;fill-rule:evenodd" d="m-701.55 860.16s2.1222 6.8951 32.354 4.2433l29.702-3.1823 3.7128-49.856s-64.708-9.0167-70.013 2.1217z"/>
   <path style="fill:#474848;fill-rule:evenodd" d="m-627.19 343.11c-3.1826 7.5958-2.1217 198.57-2.1217 198.57s-2.1216 96.572 0 125.87c2.1217 29.298-8.4862 144.32-8.4862 144.32l-64.708 1.0853-2.1216-174.7s2.1216-104.17 2.1216-116.1c-7.3152-57.052-1.5449-124.48-36.066-124.79-39.902 2.5384-35.251 165.82-33.394 192.81l3.7506 104.35s-3.0003 106.87-6.0008 118.38l-66.008-.98835s1.5002-39.132-2.2503-65.221c0 0-2.2504-101.28-3.0004-122.76 0 0-3.7506-276.22-3.0004-280.06.74971-3.8362 221.29-.76806 221.29-.76806z"/>
   <path style="fill:#4171a2;fill-rule:evenodd" d="m-846.95 343.14s190.1 18.752 220.1-1.5002l5.6804-25.503c13.613-16.632 4.6428-69.693.32043-88.266 0 0-2.5707-16.748-2.5707-50.502v-83.26s9.3987-75.538 41.652-120.54c0 0-52.905-26.475-88.159-27.225l-65.258 74.259s-64.509-42.756-78.76-74.259c0 0-55.508 9.7511-78.76 24.753 0 0 41.254 81.012 39.755 108.76 0 0 4.5005 31.504-1.5002 41.254 3.4529 40.288-16.441 181.63-5.2506 190.53 0 0 12.493 17.252 5.7423 20.253 0 0 .25854 12.001 7.0096 11.251z"/>
   <path style="fill:#133b5a;fill-rule:evenodd" d="m-815.49-53.097s14.297-3.5742 17.297-3.5742c21.222 24.42 40.538 48.061 62.257 52.506 6.7507-7.5009 33.334-36.561 53.256-52.506 3.2195-2.5767 13.149 2.4266 13.149 2.4266l-65.657 75.232c-35.127-23.062-58.221-43.76-80.303-74.084z"/>
   <path style="stroke:#000;stroke-width:0.03;fill:#f8bba8;fill-rule:evenodd" d="m-563.93 359.47s-.52987 15.912 1.5912 17.503c2.1215 1.5912-10.078 23.337-10.608 27.05-.52995 3.7128-2.6519 35.536 1.5912 42.433 4.2433 6.8951 1.5912 13.791 1.5912 13.791s2.1215 3.1823 4.2433 3.7128c2.1217.52984 7.4256-3.7128 4.7734-21.216-5.8152-37.506 23.016-24.815 22.277-7.9557 0 0 2.4515 36.121-15.551 37.248 0 0-5.2506 5.2506-1.8752 8.2511 0 0 25.128 9.0012 43.88-40.504 0 0 3.0004-30.379-7.876-50.258l-4.1254-35.254z"/>
   <path style="stroke:#000;stroke-width:0.2;fill:#234b6b;fill-rule:evenodd" d="m-622.68 83.601s2.2284-26.189 10.085-52.482c7.2121-24.137 19.618-48.089 29.671-57.784 0 0 35.254 34.505 36.004 96.012 0 0-.74967 41.254 3.0004 58.506 0 0 18.002 75.009 16.502 81.012 0 0 6.751 68.26 4.5005 69.009 0 0 6.0008 57.756 6.751 63.006 0 0-4.5005 9.7511-3.7506 16.502 0 0-3.0003 11.251-54.758 6.751 0 0 0-10.501.74967-13.502.74968-3.0004-6.751 3.0005-6.751-28.503-16.947-45.293-8.0678-111.51-22.279-165.71-8.655-33.004-4.9357-53.779-19.726-72.826z"/>
   <path style="stroke:#000;stroke-width:0.03;fill:#f8bba8;fill-rule:evenodd" d="m-910.93 363.74s.52988 15.912-1.5912 17.503c-2.1216 1.5912 10.077 23.337 10.608 27.05.52988 3.7128 2.6519 35.536-1.5912 42.433-4.2433 6.8951-1.5912 13.791-1.5912 13.791s-2.1215 3.1823-4.2433 3.7128c-2.1217.52991-7.4256-3.7128-4.7738-21.216 5.8152-37.506-23.016-24.815-22.277-7.9557 0 0-2.4515 36.121 15.551 37.248 0 0 5.2506 5.2506 1.8752 8.2511 0 0-25.128 9.0012-43.88-40.504 0 0-3.0004-30.379 7.876-50.258l4.1254-35.254z"/>
   <path style="stroke:#000;stroke-width:0.2;fill:#234b6b;fill-rule:evenodd" d="m-852.48 81.504s1.9812-10.343-1.4994-24.17c-7.0842-28.141-24.172-72.513-38.256-86.093 0 0-35.254 34.505-36.004 96.012 0 0 .74967 41.254-3.0004 58.506 0 0-18.003 75.009-16.502 81.012 0 0-6.751 68.26-4.5004 69.009 0 0-6.0008 57.756-6.751 63.006 0 0 4.5005 9.7511 3.7506 16.502 0 0 3.0003 11.251 54.758 6.751 0 0 0-10.501-.74967-13.502-.74968-3.0004 6.751 3.0004 6.751-28.503 16.947-45.293 8.0678-111.51 22.279-165.71 8.655-33.004 4.9357-53.779 19.726-72.826z"/>
   <path style="fill:#214969;fill-rule:evenodd" d="m-856.71 319.14 1.057 12.752 4.1938 18.493s186.47 16.257 226.22-5.4961c0 0 7.8079-27.249 2.5572-27.249 0 0-203.36.65348-234.03 1.5002z"/>
   <path style="fill:#723d11;fill-rule:evenodd" d="m-813.36-266.92.53108 13.26s31.293-13.791 47.205-4.7734l1.0597-14.321s-32.354-3.7128-48.797 5.8344z"/>
   <path style="fill:#723d11;fill-rule:evenodd" d="m-672.19-266.39-.53108 13.26s-31.293-13.791-47.205-4.7734l-1.0598-14.321s32.354-3.7128 48.797 5.8344z"/>
   <path style="stroke:#cb7f6c;fill:none" d="m-747.59-218.13s.52984 14.321-3.1824 20.686c-3.7128 6.3646-6.8951 21.216-5.8344 23.337 1.061 2.1216 16.442 13.26 34.477 4.7734"/>
   <path style="stroke:#bb6858;stroke-width:2;fill:none" d="m-773.58-131.66s19.625 18.564 65.238.53108"/>
   <path style="color-rendering:auto;fill-rule:evenodd;color:#000000;isolation:auto;mix-blend-mode:normal;shape-rendering:auto;solid-color:#000000;image-rendering:auto;fill:#0b0503" d="m-769.94-229.47a16.614 12.145 78.563 0 1 -9.6414 17.687 16.614 12.145 78.563 0 1 -14.566 -15.137 16.614 12.145 78.563 0 1 9.6414 -17.687 16.614 12.145 78.563 0 1 14.566 15.136z"/>
   <path style="color-rendering:auto;fill-rule:evenodd;color:#000000;isolation:auto;mix-blend-mode:normal;shape-rendering:auto;solid-color:#000000;image-rendering:auto;fill:#0b0503" d="m-711.73-229.47a12.145 16.614 11.437 0 0 9.6414 17.687 12.145 16.614 11.437 0 0 14.566 -15.137 12.145 16.614 11.437 0 0 -9.6414 -17.687 12.145 16.614 11.437 0 0 -14.566 15.137z"/>
   <path style="color-rendering:auto;fill-rule:evenodd;color:#000000;isolation:auto;mix-blend-mode:normal;shape-rendering:auto;solid-color:#000000;image-rendering:auto;fill:#cec2ba" d="m-783.65-236.68a3.1824 3.1824 0 0 1 -3.1824 3.1824 3.1824 3.1824 0 0 1 -3.1824 -3.1824 3.1824 3.1824 0 0 1 3.1824 -3.1824 3.1824 3.1824 0 0 1 3.1824 3.1824z"/>
   <path style="color-rendering:auto;fill-rule:evenodd;color:#000000;isolation:auto;mix-blend-mode:normal;shape-rendering:auto;solid-color:#000000;image-rendering:auto;fill:#cec2ba" d="m-700.69-237.22a3.1824 3.1824 0 0 1 -3.1824 3.1824 3.1824 3.1824 0 0 1 -3.1824 -3.1824 3.1824 3.1824 0 0 1 3.1824 -3.1824 3.1824 3.1824 0 0 1 3.1824 3.1824z"/>
   <path style="fill:#eabaa2;fill-rule:evenodd" d="m-652.32-180c-9.3265-7.5064-4.8649-23.574 5.307-40.184 17.274-14.915 17.559 11.213 14.595 25.181-4.1474 8.0218-13.394 20.24-19.902 15.001z"/>
   <path style="fill:#eabaa2;fill-rule:evenodd" d="m-833.09-179.96c6.1796-4.8388 8.0902-15.342 3.2605-25.649-1.3514-2.8841-5.875-4.5063-7.7611-7.5022-14.649-12.305-14.89 9.2505-12.376 20.775 3.5172 6.618 11.358 16.698 16.877 12.376z"/>
   <path style="fill:#6c3e07;fill-rule:evenodd" d="m-820.23-184.71-9.5472 1.061s9.0167-26.52-17.503-31.293c0 0-7.1725-11.613-9.0477-33.74-1.8753-22.128 2.6254-96.012 36.378-126.02 0 0-5.5855 14.427-2.4032 20.262 3.1824 5.8344 52.85-50.43 94.943-60.466 0 0 0 7.9561-5.3039 22.277 0 0-1.061 5.0389 2.9171 4.7734 3.9779-.26494 33.68-13.525 36.863-12.199 3.1824 1.326-3.4477 9.5472-1.8564 11.669 1.5912 2.1216.52992 7.9561 4.7734 6.63 4.2433-1.326 18.829-11.934 24.663-8.2212 0 0-7.4256 10.078-3.4477 16.973 3.9779 6.8951 6.63 14.851 11.403 14.321 4.7734-.52988 24.398 10.608 25.459 32.885 0 0 6.8954 73.193-1.5912 106.08 0 0-13.896 5.9128-20.272 21.29 0 0-3.0004 12.376 0 14.252l-12.002 1.5001s10.501-23.628 9.7511-37.881c0 0 1.8752-48.756 1.8752-52.132 0-3.3755-11.626-26.628-34.129-25.878 0 0-113.26 10.501-119.26 4.5004 0 0-21.378-1.8753-22.503 33.004z"/>
  </g>
  <g transform="translate(4.7561)">
   <path d="m-821.83-550.95 36.959 45.359 68.879-89.038-68.879 60.479z" style="fill:#71f194;fill-rule:evenodd"/>
   <rect style="stroke-linejoin:round;color-rendering:auto;color:#000000;shape-rendering:auto;solid-color:#000000;stroke:#71f194;stroke-linecap:round;stroke-width:2;fill:none;mix-blend-mode:normal;image-rendering:auto;isolation:auto;stroke-dashoffset:24" rx="11.484" ry="11.485" height="134.75" width="129.74" y="-617.49" x="-833.78"/>
  </g>
 </g>
</svg>
