<svg xmlns:rdf="http://www.w3.org/1999/02/22-rdf-syntax-ns#" xmlns="http://www.w3.org/2000/svg" height="220.05mm" width="682.52mm" version="1.1" xmlns:cc="http://creativecommons.org/ns#" xmlns:dc="http://purl.org/dc/elements/1.1/" viewBox="0 0 2418.3817 779.69511">
 <g transform="translate(1152 -34.137)">
  <path style="stroke:#103d60;stroke-width:1.5;stroke-dasharray:11.99999994, 2.99999999, 1.50000001, 2.99999999;fill:none" d="m-1145.2 728.46h1211.9"/>
  <path style="color-rendering:auto;text-decoration-color:#000000;color:#000000;isolation:auto;mix-blend-mode:normal;shape-rendering:auto;solid-color:#000000;block-progression:tb;text-decoration-line:none;image-rendering:auto;white-space:normal;text-indent:0;text-transform:none;text-decoration-style:solid;fill:#103d60" d="m59.983 198.36c-.96215 0-1.7598.79762-1.7598 1.7598v528.38c0 .96214.79761 1.7598 1.7598 1.7598h528.38c.96214 0 1.7598-.79762 1.7598-1.7598v-528.38c0-.96214-.79761-1.7598-1.7598-1.7598h-528.38zm0 1.5h528.38c.15708 0 .25975.10267.25975.25977v528.38c0 .1571-.10267.25977-.25975.25977h-528.38c-.15709 0-.25976-.10267-.25976-.25977v-528.38c0-.1571.10267-.25977.25976-.25977z"/>
  <path style="stroke:#103d60;stroke-width:1.5;fill:none" d="m-189.54 729.51 1.1256-44.345 88.017-89.369h802.28v44.571h-111.43v89.142z"/>
  <path style="stroke:#103d60;stroke-width:1.5;stroke-dasharray:11.99999973, 2.99999995, 1.49999998, 2.99999995;fill:none" d="m604.28 728.46h651.78"/>
  <path style="stroke:#103d60;stroke-width:1.5;fill:none" d="m420.57 295.13c-.98265 0-1.7719.79247-1.7719 1.7751v7.5788a33.11 33.11 0 0 0 -8.5104 3.5405l-5.3708-5.3708c-.69486-.69482-1.8142-.69482-2.5091 0l-9.199 9.199c-.69486.69482-.69486 1.8143 0 2.5091l5.3672 5.3672a33.11 33.11 0 0 0 -3.5179 8.5104h-7.5984c-.9827 0-1.7719.79247-1.7719 1.7751v13.008c0 .98265.78921 1.7719 1.7719 1.7719h7.5824a33.11 33.11 0 0 0 3.5373 8.5104l-5.3708 5.3708c-.69486.69485-.69486 1.8142 0 2.5091l9.199 9.199c.69481.69486 1.8142.69486 2.5091 0l5.3672-5.3672a33.11 33.11 0 0 0 8.5135 3.5179v7.5984c0 .98261.78926 1.7719 1.7719 1.7719h13.008c.98265 0 1.7751-.78926 1.7751-1.7719v-7.5824a33.11 33.11 0 0 0 8.5068 -3.5373l5.3708 5.3708c.69486.69486 1.8143.69486 2.5091 0l9.199-9.199c.69486-.69486.69486-1.8143 0-2.5091l-5.3672-5.3672a33.11 33.11 0 0 0 3.5179 -8.5135h7.5984c.98266 0 1.7751-.78926 1.7751-1.7719v-13.008c0-.98265-.79247-1.7751-1.7751-1.7751h-7.5824a33.11 33.11 0 0 0 -3.5373 -8.5068l5.3708-5.3708c.69486-.69486.69486-1.8143 0-2.5091l-9.199-9.199c-.69486-.69482-1.8142-.69482-2.5091 0l-5.3672 5.3672a33.11 33.11 0 0 0 -8.5104 -3.5179v-7.5984c0-.98265-.79247-1.7751-1.7751-1.7751h-13.008z"/>
  <circle cx="427.08" style="stroke:#103d60;stroke-width:1.5;fill:none" r="19.511" cy="336.54"/>
  <path style="stroke:#103d60;stroke-width:1.5;fill:none" d="m525.33 352.62c-.67161-.83954-1.8881-.97223-2.7277-.30062l-6.4751 5.1799a36.226 36.226 0 0 0 -8.8415 -4.8511l.91784-8.2594c.11871-1.0686-.64636-2.0249-1.7149-2.1437l-14.147-1.5721c-1.0686-.11878-2.025.64632-2.1437 1.7149l-.91723 8.2539a36.226 36.226 0 0 0 -9.6754 2.811l-5.1933-6.4918c-.67165-.83958-1.8881-.97223-2.7277-.30062l-11.114 8.8906c-.83955.67162-.97446 1.8853-.30281 2.7249l5.1823 6.4781a36.226 36.226 0 0 0 -4.8533 8.8388l-8.2594-.91785c-1.0686-.11875-2.025.64633-2.1437 1.7149l-1.5721 14.147c-.11878 1.0685.6463 2.0249 1.7149 2.1437l8.2539.91723a36.226 36.226 0 0 0 2.8132 9.678l-6.4918 5.1933c-.83951.67158-.97439 1.8853-.30277 2.7249l8.8906 11.114c.67162.83955 1.8876.97717 2.7271.30559l6.4782-5.1824a36.226 36.226 0 0 0 8.8363 4.8503l-.91785 8.2594c-.11874 1.0686.64633 2.025 1.7149 2.1437l14.147 1.5721c1.0686.11875 2.025-.64632 2.1437-1.7149l.91723-8.2539a36.226 36.226 0 0 0 9.678 -2.8132l5.1933 6.4919c.67161.83954 1.8876.97717 2.7271.30555l11.114-8.8906c.83955-.67161.97498-1.8903.30337-2.7298l-5.1824-6.4781a36.226 36.226 0 0 0 4.8503 -8.8363l8.2594.91784c1.0686.11875 2.025-.64636 2.1437-1.7149l1.5721-14.147c.11871-1.0686-.64636-2.0249-1.7149-2.1437l-8.2539-.91724a36.226 36.226 0 0 0 -2.811 -9.6754l6.4919-5.1933c.83954-.67162.97497-1.8903.30336-2.7298l-8.8906-11.114z"/>
  <circle style="stroke:#103d60;stroke-width:1.5;fill:none" transform="rotate(51.341)" cy="-144.65" cx="610.64" r="21.348"/>
  <rect style="stroke:#103d60;stroke-width:1.5;fill:none" rx=".71429" ry=".71429" height="105.81" width="22.512" y="458.32" x="104.97"/>
  <rect style="fill:#f85e28" rx="0" ry="0" height="18.009" width="36.019" y="537.2" x="98.213"/>
  <path style="stroke:#268c45;stroke-width:0.3;fill:none" d="m133.59 271.98-16.542 20.435 4.6525 2.6199z"/>
  <path style="stroke:#268c45;stroke-width:0.3;fill:none" d="m216.27 285.87-26.274 2.8549 1.421 5.1137z"/>
  <rect style="stroke:#103d60;stroke-width:1.5;fill:none" rx=".71429" ry=".71429" height="105.81" width="22.512" y="458.27" x="185.8"/>
  <rect style="stroke:#103d60;stroke-width:1.5;fill:none" rx=".71429" ry=".71429" height="105.81" width="22.512" y="458.27" x="266.87"/>
  <rect style="fill:#f85e28" rx="0" ry="0" height="18.009" width="36.019" y="477.16" x="260.1"/>
  <rect style="stroke:#103d60;stroke-width:1.5;fill:none" rx=".71429" ry=".71429" height="105.81" width="22.512" y="458.27" x="347.84"/>
  <rect style="fill:#f85e28" rx="0" ry="0" height="18.009" width="36.019" y="537.16" x="341.07"/>
  <ellipse style="stroke:#103d60;fill:none" rx="21.603" ry="21.414" cy="289.48" cx="121.28"/>
  <path style="stroke:#103d60;fill:none" d="m149.19 289.48a27.904 27.66 0 0 1 -27.904 27.66 27.904 27.66 0 0 1 -27.904 -27.66 27.904 27.66 0 0 1 27.904 -27.66 27.904 27.66 0 0 1 27.904 27.66z"/>
  <ellipse style="stroke:#103d60;fill:none" rx="21.603" ry="21.414" cy="289.48" cx="192.57"/>
  <path style="stroke:#103d60;fill:none" d="m220.47 289.48a27.904 27.66 0 0 1 -27.904 27.66 27.904 27.66 0 0 1 -27.904 -27.66 27.904 27.66 0 0 1 27.904 -27.66 27.904 27.66 0 0 1 27.904 27.66z"/>
  <text style="opacity:0.918;font-size:33.428px;letter-spacing:0px;word-spacing:0px;font-family:sans-serif;line-height:125%;fill:#113e60" xml:space="preserve" y="442.56076" x="88.771843"><tspan y="442.56076" x="88.771843">%c</tspan></text>
  <text style="opacity:0.918;font-size:33.428px;letter-spacing:0px;word-spacing:0px;font-family:sans-serif;line-height:125%;fill:#113e60" xml:space="preserve" y="442.56076" x="168.99962"><tspan y="442.56076" x="168.99962">%d</tspan></text>
  <text style="opacity:0.918;font-size:33.428px;letter-spacing:0px;word-spacing:0px;font-family:sans-serif;line-height:125%;fill:#113e60" xml:space="preserve" y="442.56076" x="252.54926"><tspan y="442.56076" x="252.54926">%f</tspan></text>
  <text style="opacity:0.918;font-size:33.428px;letter-spacing:0px;word-spacing:0px;font-family:sans-serif;line-height:125%;fill:#113e60" xml:space="preserve" y="442.56076" x="328.98215"><tspan y="442.56076" x="328.98215">%lf</tspan></text>
  <rect style="stroke:#103c60;stroke-opacity:.76078;fill:none" rx="1.0102" ry="1.0102" height="84.118" width="304.67" y="641.19" x="174.54"/>
  <text style="font-size:60.72px;fill-opacity:.40379;letter-spacing:0px;word-spacing:0px;font-family:sans-serif;line-height:125%;fill:#000000" xml:space="preserve" y="700.3526" x="223.22078"><tspan y="700.3526" x="223.22078">(float)i</tspan></text>
  <rect style="stroke:#103c60;stroke-opacity:.76078;fill:none" rx="1.0102" ry="1.0102" height="84.118" width="421.93" y="641.19" x="-775.79"/>
  <text style="opacity:0.918;font-size:60.72px;letter-spacing:0px;word-spacing:0px;font-family:sans-serif;line-height:125%;fill:#113e60" xml:space="preserve" y="700.3526" x="-746.59906"><tspan y="700.3526" x="-746.59906">f = (float) i;</tspan></text>
  <rect style="stroke:#103c60;stroke-opacity:.76078;fill:none" rx="1.0102" ry="1.0102" height="84.118" width="496.47" y="640.04" x="727.13"/>
  <text style="opacity:0.918;font-size:60.72px;letter-spacing:0px;word-spacing:0px;font-family:sans-serif;line-height:125%;fill:#113e60" xml:space="preserve" y="704.8576" x="743.17194"><tspan y="704.8576" x="743.17194">f  = 25.000000</tspan></text>
  <rect style="fill-opacity:.050473" rx="0" ry="0" height="18.009" width="18.876" y="537.2" x="115.36"/>
  <rect style="fill-opacity:.050473" rx="0" ry="0" height="18.009" width="18.876" y="477.2" x="277.36"/>
  <rect style="fill-opacity:.050473" rx="0" ry="0" height="18.009" width="18.876" y="537.2" x="357.86"/>
  <g transform="translate(0,60)">
   <rect style="fill:#f85e28" rx="0" ry="0" height="18.009" width="36.019" y="474.76" x="179.03"/>
   <rect style="fill-opacity:.050473" rx="0" ry="0" height="18.009" width="18.876" y="474.49" x="195.86"/>
  </g>
  <path style="opacity:0.217;color-rendering:auto;text-decoration-color:#000000;color:#000000;isolation:auto;mix-blend-mode:normal;shape-rendering:auto;solid-color:#000000;block-progression:tb;text-decoration-line:none;image-rendering:auto;white-space:normal;text-indent:0;text-transform:none;text-decoration-style:solid;fill:#103d60" d="m63.983 202.36c-.96214 0-1.7598.79762-1.7598 1.7598v528.38c0 .96215.79761 1.7598 1.7598 1.7598h528.38c.96214 0 1.7598-.79761 1.7598-1.7598v-528.38c0-.96215-.79761-1.7598-1.7598-1.7598h-528.38zm0 1.5h528.38c.15709 0 .25976.10267.25976.25977v528.38c0 .1571-.10267.25977-.25976.25977h-528.38c-.15709 0-.25976-.10267-.25976-.25977v-528.38c0-.1571.10267-.25977.25976-.25977z"/>
  <circle r="42.426" cy="770.66" cx="-1108.9" style="opacity:0.217;stroke:#113e5f;stroke-width:1.5;fill:none"/>
  <circle r="20.838" cy="770.66" cx="-1108.9" style="opacity:0.217;stroke:#113e5f;stroke-width:1.5;fill:none"/>
  <circle r="42.426" cy="770.66" cx="1223.2" style="opacity:0.217;stroke:#113e5f;stroke-width:1.5;fill:none"/>
  <circle r="20.838" cy="770.66" cx="1223.2" style="opacity:0.217;stroke:#113e5f;stroke-width:1.5;fill:none"/>
  <text style="font-size:90px;fill-opacity:.92157;letter-spacing:0px;line-height:125%;word-spacing:0px;font-family:sans-serif;fill:#113e5f" xml:space="preserve" y="100.93365" x="-820"><tspan x="-820" style="font-size:60px;fill:#113e5f;fill-opacity:.92157" y="100.93365">int i = 25;</tspan><tspan x="-820" style="font-size:60px;fill:#113e5f;fill-opacity:.92157" y="175.93365">	float f;</tspan><tspan x="-820" style="font-size:60px;fill:#113e5f;fill-opacity:.92157" y="250.93365">	f = (float)i;</tspan></text>
 </g>
</svg>
