<svg xmlns:rdf="http://www.w3.org/1999/02/22-rdf-syntax-ns#" xmlns="http://www.w3.org/2000/svg" height="160.56mm" width="273.82mm" version="1.1" xmlns:cc="http://creativecommons.org/ns#" xmlns:dc="http://purl.org/dc/elements/1.1/" viewBox="0 0 970.21819 568.9057">
 <defs>
  <linearGradient id="g" x1="403.61" gradientUnits="userSpaceOnUse" y1="356.73" gradientTransform="matrix(1.531 0 0 1.531 -828.51 -78.501)" x2="837.52" y2="488.58">
   <stop style="stop-color:#c9cacc" offset="0"/>
   <stop style="stop-color:#c9cacc;stop-opacity:0" offset="1"/>
  </linearGradient>
  <linearGradient id="e" x1="725.42" gradientUnits="userSpaceOnUse" y1="269.59" gradientTransform="matrix(1.531 0 0 1.531 -828.51 -78.501)" x2="1177.2" y2="174.31">
   <stop style="stop-color:#e9e9e9" offset="0"/>
   <stop style="stop-color:#e8e8e8" offset=".65186"/>
   <stop style="stop-color:#aeaeae" offset="1"/>
  </linearGradient>
  <linearGradient id="f" x1="849.74" gradientUnits="userSpaceOnUse" y1="278.44" gradientTransform="matrix(1.531 0 0 1.531 -828.51 -78.501)" x2="849.74" y2="306.41">
   <stop style="stop-color:#c1c2c4" offset="0"/>
   <stop style="stop-color:#d8dadb" offset=".2488"/>
   <stop style="stop-color:#fafafa" offset=".90022"/>
   <stop style="stop-color:#88888c;stop-opacity:.74132" offset="1"/>
  </linearGradient>
  <linearGradient id="h" x1="69.835" gradientUnits="userSpaceOnUse" y1="104.39" gradientTransform="matrix(1.4757 0 0 1.0124 -94.743 -106.16)" x2="717.48" y2="667.25">
   <stop style="stop-color:#f0e8e8;stop-opacity:.63722" offset="0"/>
   <stop style="stop-color:#f0e8e8;stop-opacity:.49211" offset="1"/>
  </linearGradient>
 </defs>
 <rect style="stroke-linejoin:bevel;color-rendering:auto;stroke-opacity:.36593;fill-rule:evenodd;color:#000000;isolation:auto;mix-blend-mode:normal;shape-rendering:auto;solid-color:#000000;stroke:#000;stroke-linecap:square;image-rendering:auto;stroke-width:.5;fill:url(#h)" height="568.41" width="969.72" y="0.25" x="0.25"/>
 <rect style="color-rendering:auto;fill-rule:evenodd;color:#000000;isolation:auto;mix-blend-mode:normal;shape-rendering:auto;solid-color:#000000;image-rendering:auto;fill:#ffca00" height="79.019" width="7.1835" y="286.35" x="719.53"/>
 <path style="fill:url(#f);fill-rule:evenodd" d="m423.29 340.2c23.523 0 24.419-37.264 24.419-37.264h52.925s.93441 36.567 23.955 37.333z"/>
 <path style="color-rendering:auto;color:#000000;isolation:auto;mix-blend-mode:normal;shape-rendering:auto;solid-color:#000000;image-rendering:auto;fill:#030302" d="m341.33 141.09h265.71c5.0978 0 9.2017 5.1644 9.2017 11.579v193.95c0 11.532-.4439 11.579-9.2017 11.579h-265.71c-9.5712 0-9.2017-.047-9.2017-11.579v-193.95c0-6.4149 4.104-11.579 9.2017-11.579z"/>
 <path style="color-rendering:auto;color:#000000;isolation:auto;mix-blend-mode:normal;shape-rendering:auto;solid-color:#000000;image-rendering:auto;fill:url(#e)" d="m331.75 319.79v27.152c0 11.667-.37017 11.713 9.227 11.713h266.43c8.6937 0 9.2144-.0841 9.2239-11.406v-27.15c-37.46 0-248.24-.30958-284.88-.30958z"/>
 <rect style="color-rendering:auto;color:#000000;isolation:auto;mix-blend-mode:normal;shape-rendering:auto;solid-color:#000000;image-rendering:auto;fill:#646464" rx="0" ry="0" height="153.7" width="256.54" y="153.84" x="345.91"/>
 <rect style="opacity:0.942;color-rendering:auto;fill-rule:evenodd;color:#000000;isolation:auto;mix-blend-mode:normal;shape-rendering:auto;solid-color:#000000;image-rendering:auto;fill:url(#g)" rx="2.9998" ry="2.9998" height="2.6536" width="101.42" y="339.99" x="423.36"/>
 <rect style="color-rendering:auto;fill-rule:evenodd;color:#000000;isolation:auto;mix-blend-mode:normal;shape-rendering:auto;solid-color:#000000;image-rendering:auto;fill:#e6e6e6" height="5.3472" width="255.33" y="153.5" x="346.34"/>
 <circle style="color-rendering:auto;fill-rule:evenodd;color:#000000;isolation:auto;mix-blend-mode:normal;shape-rendering:auto;solid-color:#000000;image-rendering:auto;fill:#f61d1d" cx="351.69" r="1.5823" cy="155.91"/>
 <circle style="color-rendering:auto;fill-rule:evenodd;color:#000000;isolation:auto;mix-blend-mode:normal;shape-rendering:auto;solid-color:#000000;image-rendering:auto;fill:#fafb02" cx="358.03" r="1.5823" cy="155.91"/>
 <circle style="color-rendering:auto;fill-rule:evenodd;color:#000000;isolation:auto;mix-blend-mode:normal;shape-rendering:auto;solid-color:#000000;image-rendering:auto;fill:#62c74e" cx="364.36" r="1.5823" cy="155.91"/>
 <text style="font-size:13.75px;font-family:monospace;writing-mode:lr;fill:#b2faff;letter-spacing:0px;line-height:138%;word-spacing:0px" y="176.76006" x="350.06833" xml:space="preserve"><tspan y="176.76006" x="350.06833" style="font-size:13.75px;font-family:monospace;writing-mode:lr;fill:#baffd8;letter-spacing:.48052px;line-height:138%;word-spacing:.48052px">#include&lt;stdio.h&gt;</tspan><tspan y="194.77959" x="350.06833" style="font-size:13.75px;font-family:monospace;writing-mode:lr;fill:#baffd8;letter-spacing:.48052px;line-height:138%;word-spacing:.48052px">int main()</tspan><tspan y="212.79906" x="350.06833" style="font-size:13.75px;font-family:monospace;writing-mode:lr;fill:#baffd8;letter-spacing:.48052px;line-height:138%;word-spacing:.48052px">{</tspan><tspan y="230.81859" x="350.06833" style="font-size:13.75px;font-family:monospace;writing-mode:lr;fill:#baffd8;letter-spacing:.48052px;line-height:138%;word-spacing:.48052px">printf (&quot; Hello World ! &quot;);</tspan><tspan y="248.83806" x="350.06833" style="font-size:13.75px;font-family:monospace;writing-mode:lr;fill:#baffd8;letter-spacing:.48052px;line-height:138%;word-spacing:.48052px">printf (&quot; Make it Great &quot;);</tspan><tspan y="266.85757" x="350.06833" style="font-size:13.75px;font-family:monospace;writing-mode:lr;fill:#baffd8;letter-spacing:.48052px;line-height:138%;word-spacing:.48052px">return 0;</tspan><tspan y="284.87704" x="350.06833" style="font-size:13.75px;font-family:monospace;writing-mode:lr;fill:#baffd8;letter-spacing:.48052px;line-height:138%;word-spacing:.48052px">}</tspan></text>
 <rect style="color-rendering:auto;fill-rule:evenodd;color:#000000;isolation:auto;mix-blend-mode:normal;shape-rendering:auto;solid-color:#000000;image-rendering:auto;fill:#fdd883" rx="2.9998" ry="2.9998" height="11.585" width="620.27" y="397.05" x="164.05"/>
 <path style="color-rendering:auto;fill-rule:evenodd;color:#000000;isolation:auto;mix-blend-mode:normal;shape-rendering:auto;solid-color:#000000;image-rendering:auto;fill:#696464" d="m731.78 348.99h13.127c.18802 0 .33943 1.106.33943 2.4798v14.236c0 1.3738-.15158 2.4798-.33943 2.4798h-13.127c-.18801 0-.33928-1.106-.33928-2.4798v-14.236c0-1.3738.15158-2.4798.33928-2.4798zm-1.4415-4.2658h16.01c1.1509 0 2.0776 2.8499 2.0776 6.3901v14.947c0 3.5401-.92659 6.3901-2.0776 6.3901h-16.01c-1.1512 0-2.0779-2.8499-2.0779-6.3901v-14.947c0-3.5401.92674-6.3901 2.0779-6.3901z"/>
 <rect style="stroke-linejoin:bevel;color-rendering:auto;fill-rule:evenodd;color:#000000;isolation:auto;mix-blend-mode:normal;shape-rendering:auto;solid-color:#000000;stroke:#bebebe;stroke-linecap:square;image-rendering:auto;stroke-width:.19999;fill:#f00" height="79.019" width="7.1835" y="286.35" x="685.77"/>
 <path style="color-rendering:auto;fill-rule:evenodd;color:#000000;isolation:auto;mix-blend-mode:normal;shape-rendering:auto;solid-color:#000000;image-rendering:auto;fill:#696464" d="m676.6 330.89h57.864l.072.14071v58.578c0 4.0055-.83979 7.23-1.8829 7.23h-54.161c-1.0431 0-1.8829-3.2247-1.8829-7.23v-58.578z"/>
 <rect style="color-rendering:auto;fill-rule:evenodd;color:#000000;isolation:auto;mix-blend-mode:normal;shape-rendering:auto;solid-color:#000000;image-rendering:auto;fill:#bc6d35" rx="2.9998" ry="2.9998" height="28.634" width="620.27" y="397.05" x="164.05"/>
 <rect style="color-rendering:auto;fill-rule:evenodd;color:#000000;isolation:auto;mix-blend-mode:normal;shape-rendering:auto;solid-color:#000000;image-rendering:auto;fill:#bc6d35" rx="0" ry="0" height="159.76" width="15.715" y="408.32" x="203.44"/>
 <rect style="color-rendering:auto;fill-rule:evenodd;color:#000000;isolation:auto;mix-blend-mode:normal;shape-rendering:auto;solid-color:#000000;image-rendering:auto;fill:#bc6d35" rx="0" ry="0" height="159.76" width="17.906" y="408.32" x="728.1"/>
 <path style="stroke:#edebeb;stroke-width:.99997px;fill:none" d="m690.13 375.96v-11.331"/>
 <path style="stroke:#edebeb;stroke-width:.99997px;fill:none" d="m697.82 378.98v-17.373"/>
 <path style="stroke:#edebeb;stroke-width:.99997px;fill:none" d="m724.73 384.26v-27.948"/>
 <rect style="stroke-linejoin:bevel;color-rendering:auto;fill-rule:evenodd;color:#000000;isolation:auto;mix-blend-mode:normal;shape-rendering:auto;solid-color:#000000;stroke:#bebebe;stroke-linecap:square;image-rendering:auto;stroke-width:.19999;fill:#1a1a1a" height="11.494" width="7.1835" y="273.57" x="685.77"/>
 <path style="fill:#6b6860;fill-rule:evenodd" d="m719.68 285.97 3.387-10.868 3.3871 10.868z"/>
 <path style="fill:#e9ad95;fill-rule:evenodd" d="m454.8 290.64s-.58912 17.063-6.4795 22.647c0 0 21.308 29.514 32.397 28.894 0 0 13.741-7.7561 31.117-31.024 0 0-6.9667.57853-8.4392-3.4546-1.4726-4.0331-1.1781-17.374-1.1781-17.374s-29.157 10.548-47.418.31064z"/>
 <path style="fill-rule:evenodd;fill:#e9ad95" d="m427.82 241.62 12.542 40.663c9.1272 16.055 29.251 15.281 38.582 14.137 11.503-1.6549 28.15.44325 34.164-10.308 2.9451-7.0682 14.284-39.98 14.284-45.281l-6.8476.58912s3.7552-8.0256 4.6388-17.449c0 0 2.9766-30.324 1.9352-34.696 0 0-5.8561-11.943-20.433-11.527 0 0-64.194 3.7236-67.94 1.2245 0 0-9.5298.85819-9.5298 20.435l5.0488 41.874z"/>
 <path style="fill:#4171a2;fill-rule:evenodd" d="m395.16 567.99s127.57.87777 158.97-.95862l3.1543-16.295c7.5592-10.627 2.578-44.532.17792-56.399 0 0-1.4274-10.701-1.4274-32.268v-53.199s5.2189-48.266 23.128-77.022c0 0-50.812-23.964-70.388-24.443-24.708 10.452-44.183 10.439-61.597 0 0 0-64.506 13.278-77.417 22.863 0 0 22.907 51.763 22.075 69.496 0 0 2.499 20.13-.83305 26.36 1.9173 25.741-9.129 116.05-2.9156 121.74 0 0 6.9368 11.024 3.1886 12.941 0 0 .14362 7.6685 3.8922 7.1892z"/>
 <path style="stroke:#000;stroke-width:.19999;fill:#234b6b;fill-rule:evenodd" d="m556.43 392.81s1.2374-14.542 5.5998-29.142c4.0047-13.402 10.894-26.701 16.476-32.086 0 0 19.576 19.159 19.992 53.312 0 0-.41627 22.907 1.6661 32.487-6.2666 11.085-32.781 15.865-32.781 15.865-4.806-18.326-2.7407-29.861-10.953-40.438z"/>
 <path style="fill:#234b6b;fill-rule:evenodd" d="m392.08 391.64s1.1001-5.7434-.83262-13.421c-3.9337-15.626-13.422-40.263-21.242-47.805 0 0-25.714 52.307-26.13 86.46-9.0924-16.872 29.172 32.582 37.253 15.204 4.8059-18.327 2.7407-29.861 10.953-40.438z"/>
 <path style="fill:#6c3e07;fill-rule:evenodd" d="m424.28 245.03c-8.4312-23.336-7.8953-19.381-9.8324-39.795-1.0413-12.287 1.4578-53.312 20.201-69.973 0 0-3.1016 8.011-1.3344 11.251 1.7672 3.2397 29.347-28.003 52.72-33.574 0 0 0 4.4177-2.9451 12.37 0 0-.58918 2.798 1.6198 2.6505 2.2088-.14714 18.702-7.5101 20.47-6.7738 1.7671.73633-1.9144 5.3012-1.0308 6.4794.88353 1.178.29425 4.4178 2.6506 3.6814 2.3561-.73632 10.455-6.6265 13.695-4.565 0 0-4.1232 5.5958-1.9144 9.4245s3.6815 8.2463 6.3321 7.9518c2.6506-.29423 13.548 5.8902 14.137 18.259 0 0 3.8288 40.642-.88354 58.902-8.1259 20.412-14.962 60.312-28.258 66.078 0 0-15.723 7.1877-32.159 7.4652-16.541.27925-33.802-6.357-35.473-8.0284-13.429-15.992-6.5551-17.177-17.994-41.804z"/>
 <path style="stroke:#834d0d;stroke-width:.99997px;fill:#834d0d;fill-rule:evenodd" d="m510.8 188.95s5.6375-19.587 19.386-32.506c0 0-11.776 13.733-19.386 32.506z"/>
 <rect style="color-rendering:auto;fill-rule:evenodd;color:#000000;isolation:auto;mix-blend-mode:normal;shape-rendering:auto;solid-color:#000000;image-rendering:auto;fill:#a95f2e" rx="2.9998" ry="2.9998" height="8.4858" width="620.27" y="417.2" x="164.05"/>
 <rect style="color-rendering:auto;fill-rule:evenodd;color:#000000;isolation:auto;mix-blend-mode:normal;shape-rendering:auto;solid-color:#000000;image-rendering:auto;fill:#464e51" rx="28.314" ry="28.301" height="157.02" width="268.99" y="371.14" x="343.73"/>
 <rect style="stroke-linejoin:bevel;color-rendering:auto;fill-rule:evenodd;color:#000000;isolation:auto;mix-blend-mode:normal;shape-rendering:auto;solid-color:#000000;stroke:#b3b3b3;stroke-linecap:square;image-rendering:auto;stroke-width:1.9999;fill:#666" rx="12.971" ry="12.971" height="95.762" width="177.42" y="401.76" x="389.53"/>
 <rect style="color-rendering:auto;fill-rule:evenodd;color:#000000;isolation:auto;mix-blend-mode:normal;shape-rendering:auto;solid-color:#000000;image-rendering:auto;fill:#333" rx="28.314" ry="3.8045" height="131.65" width="21.435" y="436.98" x="467.5"/>
 <rect style="color-rendering:auto;fill-rule:evenodd;color:#000000;isolation:auto;mix-blend-mode:normal;shape-rendering:auto;solid-color:#000000;image-rendering:auto;fill:#a95f2e" rx="2.9999" ry="2.9999" height="142.48" width="118.35" y="424.87" x="219.18"/>
 <path style="stroke:#bc6d35;stroke-width:2.9999;fill:none" d="m216.99 476.83h119.45"/>
 <path style="stroke:#bc6d35;stroke-width:2.9999;fill:none" d="m216.99 525.82h119.45"/>
 <path style="stroke:#fff;stroke-width:4.9998;fill:none" d="m260.83 456.01h37.259"/>
 <path style="stroke:#fff;stroke-width:4.9998;fill:none" d="m260.83 508.06h37.259"/>
 <path style="color-rendering:auto;color:#000000;isolation:auto;mix-blend-mode:normal;fill-rule:evenodd;shape-rendering:auto;solid-color:#000000;image-rendering:auto;fill:#595959" d="m555.11.28356h247.43c8.6565 0 15.626 5.8074 15.626 13.021v96.722c0 7.2136-6.9688 13.021-15.626 13.021h-247.43c-3.8026 0-60.766 42.584-60.766 42.584s45.14-51.561 45.14-55.606v-96.722c0-7.2137 6.969-13.021 15.626-13.021z"/>
 <text style="font-size:16.621px;font-family:monospace;writing-mode:lr;fill:#ffffff;letter-spacing:0px;line-height:138%;word-spacing:0px" y="41.159904" x="564.3819" xml:space="preserve"><tspan y="41.159904" x="564.3819" style="font-size:16.621px;writing-mode:lr;fill:#ffffff;font-family:monospace;line-height:138%">void DoThis{</tspan><tspan y="67.694359" x="564.3819" style="font-size:16.621px;writing-mode:lr;fill:#ffffff;font-family:monospace;line-height:138%">printf(&quot;Say Hello!!!&quot;);</tspan><tspan y="94.228691" x="564.3819" style="font-size:16.621px;writing-mode:lr;fill:#ffffff;font-family:monospace;line-height:138%">}</tspan></text>
</svg>
