<svg xmlns="http://www.w3.org/2000/svg" height="62.949mm" width="202.01mm" viewBox="0 0 715.76602 223.04622">
<style>svg{font-family:sans-serif;}</style>
<defs>
<filter id="c" style="color-interpolation-filters:sRGB" height="39.378" width="1.4652" y="-19.189" x="-.23260">
<feGaussianBlur stdDeviation="7.3506443"/>
</filter>
<filter id="b" style="color-interpolation-filters:sRGB" height="39.378" width="1.4652" y="-19.189" x="-.23260">
<feGaussianBlur stdDeviation="7.3506443"/>
</filter>
<filter id="a" style="color-interpolation-filters:sRGB" height="39.378" width="1.4652" y="-19.189" x="-.23260">
<feGaussianBlur stdDeviation="7.3506443"/>
</filter>
</defs>
<g transform="translate(-14.86 -278.07)">
<text style="font-size:90px;letter-spacing:0px;word-spacing:0px;line-height:125%;fill:#000000" y="323.32288" x="248.14207" xml:space="preserve"><tspan y="323.32288" x="248.14207"/></text>
<rect style="opacity:.972;color-rendering:auto;color:#000000;isolation:auto;mix-blend-mode:normal;fill-rule:evenodd;shape-rendering:auto;solid-color:#000000;image-rendering:auto;fill:#f2f2f2" height="223.05" width="237.77" y="278.07" x="14.86"/>
<path style="opacity:.972;color-rendering:auto;color:#000000;isolation:auto;mix-blend-mode:normal;fill-rule:evenodd;shape-rendering:auto;solid-color:#000000;image-rendering:auto;fill:#a1815b" d="m183.93 416.03-50.397 29.097-50.397-29.097v-58.194l50.397-29.097 50.397 29.097z"/>
<path style="color-rendering:auto;text-decoration-color:#000000;color:#000000;isolation:auto;mix-blend-mode:normal;fill-rule:evenodd;shape-rendering:auto;solid-color:#000000;block-progression:tb;text-decoration-line:none;image-rendering:auto;white-space:normal;text-indent:0;text-transform:none;text-decoration-style:solid;fill:#997951" d="m108.46 312.74a2.0002 2.0002 0 0 0 -1.052 .27149l-50.52 29.383a2.0002 2.0002 0 0 0 .006 3.4609l22.579 13.04-22.301 12.88a2.0002 2.0002 0 0 0 -.006 3.4609l50.52 29.383a2.0002 2.0002 0 0 0 2.0059 .004l24.191-13.967 24.189 13.967a2.0002 2.0002 0 0 0 2.0059 -.004l50.52-29.383a2.0002 2.0002 0 0 0 -.006 -3.4609l-22.58-13.037 22.301-12.877a2.0002 2.0002 0 0 0 .006 -3.4609l-50.52-29.383a2.0002 2.0002 0 0 0 -2.0059 -.004l-24.189 13.969-24.192-13.969a2.0002 2.0002 0 0 0 -.95299 -.26757z"/>
<path style="color-rendering:auto;text-decoration-color:#000000;color:#000000;isolation:auto;mix-blend-mode:normal;fill-rule:evenodd;shape-rendering:auto;solid-color:#000000;block-progression:tb;text-decoration-line:none;image-rendering:auto;white-space:normal;text-indent:0;text-transform:none;text-decoration-style:solid;fill:#a1815b" d="m108.42 317.05 20.532 11.854-46.012 27.367-21.055-12.157 46.535-27.064z"/>
<path style="color-rendering:auto;text-decoration-color:#000000;color:#000000;isolation:auto;mix-blend-mode:normal;fill-rule:evenodd;shape-rendering:auto;solid-color:#000000;block-progression:tb;text-decoration-line:none;image-rendering:auto;white-space:normal;text-indent:0;text-transform:none;text-decoration-style:solid;fill:#a1815b" d="m158.79 317.05 46.535 27.064-21.055 12.156-46.013-27.366 20.533-11.854z"/>
<path style="color-rendering:auto;text-decoration-color:#000000;color:#000000;isolation:auto;mix-blend-mode:normal;fill-rule:evenodd;shape-rendering:auto;solid-color:#000000;block-progression:tb;text-decoration-line:none;image-rendering:auto;white-space:normal;text-indent:0;text-transform:none;text-decoration-style:solid;fill:#a1815b" d="m83.219 361.35 46.011 27.37-20.53 11.85-46.54-27.07 21.057-12.15z"/>
<path style="color-rendering:auto;text-decoration-color:#000000;color:#000000;isolation:auto;mix-blend-mode:normal;fill-rule:evenodd;shape-rendering:auto;solid-color:#000000;block-progression:tb;text-decoration-line:none;image-rendering:auto;white-space:normal;text-indent:0;text-transform:none;text-decoration-style:solid;fill:#a1815b" d="m184.55 361.35 21.057 12.156-46.535 27.064-20.531-11.854 46.01-27.367z"/>
<path style="fill:none" d="m133.47 388.65v56"/>
<path style="fill:#a48157;fill-rule:evenodd" d="m85.358 358.87s-3.4118 1.9698 1.2623-.72876l46.782-27.413.41242 56.227z"/>
<path style="stroke-opacity:.97255;stroke:#91714c;stroke-width:3;fill:none" d="m133.76 390.3v53.585"/>
<text style="letter-spacing:0px;font-size:20px;word-spacing:0px;line-height:125%;fill:#fdf2f2" xml:space="preserve" y="370.58359" x="122.77543"><tspan x="122.77543" y="370.58359">16</tspan></text>
<ellipse style="stroke-linejoin:round;color-rendering:auto;color:#000000;shape-rendering:auto;solid-color:#000000;stroke:#7e6446;stroke-width:3;fill:#fff;fill-rule:evenodd;mix-blend-mode:normal;image-rendering:auto;stroke-opacity:.99608;isolation:auto;filter:url(#c)" rx="37.923" ry=".45967" cy="456.64" cx="133.81"/>
<text style="letter-spacing:0px;font-size:22.907px;word-spacing:0px;line-height:125%;fill:#ffffff" xml:space="preserve" y="422.05737" x="101.02443"><tspan x="101.02443" y="422.05737">i</tspan></text>
<text style="letter-spacing:0px;font-size:20px;word-spacing:0px;line-height:125%;fill:#000000" xml:space="preserve" y="496.01318" x="8.9195013"><tspan x="8.9195013" y="496.01318"/></text>
<rect style="opacity:.972;color-rendering:auto;color:#000000;isolation:auto;mix-blend-mode:normal;fill-rule:evenodd;shape-rendering:auto;solid-color:#000000;image-rendering:auto;fill:#ffede9" height="223.05" width="237.77" y="278.07" x="253.86"/>
<path d="m422.93 416.03-50.397 29.097-50.397-29.097v-58.194l50.397-29.097 50.397 29.097z" style="opacity:.972;color-rendering:auto;color:#000000;isolation:auto;mix-blend-mode:normal;fill-rule:evenodd;shape-rendering:auto;solid-color:#000000;image-rendering:auto;fill:#a1815b"/>
<path d="m347.46 312.74a2.0002 2.0002 0 0 0 -1.052 .27149l-50.52 29.383a2.0002 2.0002 0 0 0 .006 3.4609l22.582 13.039-22.301 12.875a2.0002 2.0002 0 0 0 -.006 3.4609l50.52 29.383a2.0002 2.0002 0 0 0 2.0059 .004l24.191-13.967 24.189 13.967a2.0002 2.0002 0 0 0 2.0059 -.004l50.52-29.383a2.0002 2.0002 0 0 0 -.006 -3.4609l-22.58-13.037 22.301-12.877a2.0002 2.0002 0 0 0 .006 -3.4609l-50.52-29.383a2.0002 2.0002 0 0 0 -2.0059 -.004l-24.189 13.969-24.192-13.969a2.0002 2.0002 0 0 0 -.95299 -.26757z" style="color-rendering:auto;text-decoration-color:#000000;color:#000000;isolation:auto;mix-blend-mode:normal;fill-rule:evenodd;shape-rendering:auto;solid-color:#000000;block-progression:tb;text-decoration-line:none;image-rendering:auto;white-space:normal;text-indent:0;text-transform:none;text-decoration-style:solid;fill:#997951"/>
<path d="m347.42 317.05 20.532 11.854-46.012 27.367-21.055-12.157 46.535-27.064z" style="color-rendering:auto;text-decoration-color:#000000;color:#000000;isolation:auto;mix-blend-mode:normal;fill-rule:evenodd;shape-rendering:auto;solid-color:#000000;block-progression:tb;text-decoration-line:none;image-rendering:auto;white-space:normal;text-indent:0;text-transform:none;text-decoration-style:solid;fill:#a1815b"/>
<path d="m397.79 317.05 46.535 27.064-21.055 12.156-46.013-27.366 20.533-11.854z" style="color-rendering:auto;text-decoration-color:#000000;color:#000000;isolation:auto;mix-blend-mode:normal;fill-rule:evenodd;shape-rendering:auto;solid-color:#000000;block-progression:tb;text-decoration-line:none;image-rendering:auto;white-space:normal;text-indent:0;text-transform:none;text-decoration-style:solid;fill:#a1815b"/>
<path d="m322.22 361.35 46.01 27.367-20.531 11.854-46.538-27.065 21.057-12.156z" style="color-rendering:auto;text-decoration-color:#000000;color:#000000;isolation:auto;mix-blend-mode:normal;fill-rule:evenodd;shape-rendering:auto;solid-color:#000000;block-progression:tb;text-decoration-line:none;image-rendering:auto;white-space:normal;text-indent:0;text-transform:none;text-decoration-style:solid;fill:#a1815b"/>
<path d="m423.55 361.35 21.057 12.156-46.535 27.064-20.531-11.854 46.01-27.367z" style="color-rendering:auto;text-decoration-color:#000000;color:#000000;isolation:auto;mix-blend-mode:normal;fill-rule:evenodd;shape-rendering:auto;solid-color:#000000;block-progression:tb;text-decoration-line:none;image-rendering:auto;white-space:normal;text-indent:0;text-transform:none;text-decoration-style:solid;fill:#a1815b"/>
<path d="m372.47 388.65v56" style="fill:none"/>
<path d="m324.36 358.87s-3.4118 1.9698 1.2623-.72876l46.782-27.413.41242 56.227z" style="fill:#a48157;fill-rule:evenodd"/>
<path d="m372.76 390.3v53.585" style="stroke-opacity:.97255;stroke:#91714c;stroke-width:3;fill:none"/>
<text style="letter-spacing:0px;font-size:20px;word-spacing:0px;line-height:125%;fill:#fdf2f2" y="370.58359" x="361.77545" xml:space="preserve"><tspan y="370.58359" x="361.77545">25</tspan></text>
<ellipse style="stroke-linejoin:round;color-rendering:auto;color:#000000;shape-rendering:auto;solid-color:#000000;stroke:#7e6446;stroke-width:3;fill:#fff;fill-rule:evenodd;mix-blend-mode:normal;image-rendering:auto;stroke-opacity:.99608;isolation:auto;filter:url(#b)" rx="37.923" ry=".45967" cy="456.64" cx="372.81"/>
<text style="letter-spacing:0px;font-size:22.907px;word-spacing:0px;line-height:125%;fill:#ffffff" y="422.05737" x="340.02444" xml:space="preserve"><tspan y="422.05737" x="340.02444">i</tspan></text>
<text style="letter-spacing:0px;font-size:20px;word-spacing:0px;line-height:125%;fill:#000000" y="299.03345" x="278.32187" xml:space="preserve"><tspan y="299.03345" x="278.32187">Middle of the program</tspan></text>
<rect style="opacity:.972;color-rendering:auto;color:#000000;isolation:auto;mix-blend-mode:normal;fill-rule:evenodd;shape-rendering:auto;solid-color:#000000;image-rendering:auto;fill:#fffad8" height="223.05" width="237.77" y="278.07" x="492.86"/>
<path style="opacity:.972;color-rendering:auto;color:#000000;isolation:auto;mix-blend-mode:normal;fill-rule:evenodd;shape-rendering:auto;solid-color:#000000;image-rendering:auto;fill:#a1815b" d="m661.93 416.03-50.397 29.097-50.397-29.097v-58.194l50.397-29.097 50.397 29.097z"/>
<path style="color-rendering:auto;text-decoration-color:#000000;color:#000000;isolation:auto;mix-blend-mode:normal;fill-rule:evenodd;shape-rendering:auto;solid-color:#000000;block-progression:tb;text-decoration-line:none;image-rendering:auto;white-space:normal;text-indent:0;text-transform:none;text-decoration-style:solid;fill:#997951" d="m586.46 312.74a2.0002 2.0002 0 0 0 -1.052 .27149l-50.52 29.383a2.0002 2.0002 0 0 0 .006 3.4609l22.582 13.039-22.301 12.875a2.0002 2.0002 0 0 0 -.006 3.4609l50.52 29.383a2.0002 2.0002 0 0 0 2.0059 .004l24.191-13.967 24.189 13.967a2.0002 2.0002 0 0 0 2.0059 -.004l50.52-29.383a2.0002 2.0002 0 0 0 -.006 -3.4609l-22.58-13.037 22.301-12.877a2.0002 2.0002 0 0 0 .006 -3.4609l-50.53-29.38a2.0002 2.0002 0 0 0 -2.0059 -.004l-24.189 13.969-24.192-13.969a2.0002 2.0002 0 0 0 -.95299 -.26757z"/>
<path style="color-rendering:auto;text-decoration-color:#000000;color:#000000;isolation:auto;mix-blend-mode:normal;fill-rule:evenodd;shape-rendering:auto;solid-color:#000000;block-progression:tb;text-decoration-line:none;image-rendering:auto;white-space:normal;text-indent:0;text-transform:none;text-decoration-style:solid;fill:#a1815b" d="m586.42 317.05 20.532 11.854-46.012 27.367-21.055-12.157 46.535-27.064z"/>
<path style="color-rendering:auto;text-decoration-color:#000000;color:#000000;isolation:auto;mix-blend-mode:normal;fill-rule:evenodd;shape-rendering:auto;solid-color:#000000;block-progression:tb;text-decoration-line:none;image-rendering:auto;white-space:normal;text-indent:0;text-transform:none;text-decoration-style:solid;fill:#a1815b" d="m636.79 317.05 46.535 27.064-21.055 12.156-46.013-27.366 20.533-11.854z"/>
<path style="color-rendering:auto;text-decoration-color:#000000;color:#000000;isolation:auto;mix-blend-mode:normal;fill-rule:evenodd;shape-rendering:auto;solid-color:#000000;block-progression:tb;text-decoration-line:none;image-rendering:auto;white-space:normal;text-indent:0;text-transform:none;text-decoration-style:solid;fill:#a1815b" d="m561.22 361.35 46.01 27.367-20.531 11.854-46.538-27.065 21.057-12.156z"/>
<path style="color-rendering:auto;text-decoration-color:#000000;color:#000000;isolation:auto;mix-blend-mode:normal;fill-rule:evenodd;shape-rendering:auto;solid-color:#000000;block-progression:tb;text-decoration-line:none;image-rendering:auto;white-space:normal;text-indent:0;text-transform:none;text-decoration-style:solid;fill:#a1815b" d="m662.55 361.35 21.057 12.156-46.535 27.064-20.531-11.854 46.01-27.367z"/>
<path style="fill:none" d="m611.47 388.65v56"/>
<path style="fill:#a48157;fill-rule:evenodd" d="m563.36 358.87s-3.4118 1.9698 1.2623-.72876l46.782-27.413.41242 56.227z"/>
<path style="stroke-opacity:.97255;stroke:#91714c;stroke-width:3;fill:none" d="m611.76 390.3v53.585"/>
<text style="letter-spacing:0px;font-size:20px;word-spacing:0px;line-height:125%;fill:#fdf2f2" xml:space="preserve" y="370.58359" x="600.77551"><tspan x="600.77551" y="370.58359">47</tspan></text>
<ellipse style="stroke-linejoin:round;color-rendering:auto;color:#000000;shape-rendering:auto;solid-color:#000000;stroke:#7e6446;stroke-width:3;fill:#fff;fill-rule:evenodd;mix-blend-mode:normal;image-rendering:auto;stroke-opacity:.99608;isolation:auto;filter:url(#a)" rx="37.923" ry=".45967" cy="456.64" cx="611.81"/>
<text style="letter-spacing:0px;font-size:22.907px;word-spacing:0px;line-height:125%;fill:#ffffff" xml:space="preserve" y="422.05737" x="579.02448"><tspan x="579.02448" y="422.05737">i</tspan></text>
<text style="letter-spacing:0px;font-size:20px;word-spacing:0px;line-height:125%;fill:#000000" xml:space="preserve" y="496.01318" x="529.72034"><tspan x="529.72034" y="496.01318">End of the program</tspan></text>
<text style="letter-spacing:0px;font-size:20px;word-spacing:0px;line-height:125%;fill:#000000" xml:space="preserve" y="491.483" x="43.909735"><tspan x="43.909735" y="491.483">Start of the program</tspan></text>
</g>
</svg>
