<svg xmlns="http://www.w3.org/2000/svg" height="140.39mm" width="235.25mm" xmlns:xlink="http://www.w3.org/1999/xlink" viewBox="0 0 833.5696 497.44051"><style>svg{font-family:sans-serif;fill:#000;font-size:25px;}.sp{stroke:#138800;stroke-width:1px;stroke-opacity:.74118;fill:none}.pf{fill:#96dd8a}.pe{fill:#75d065}</style><defs><pattern id="i" xlink:href="#a" patternTransform="scale(10)"/><pattern id="a" width="1.25" patternUnits="userSpaceOnUse" patternTransform="translate(0) scale(10)" height="1"><rect style="fill:#474746" height="2" width="1" y="-.5" x="0"/></pattern></defs><rect style="fill:#e2e2e2" transform="matrix(-.84671 -.53206 -.84671 .53206 0 0)" rx="12.469" ry="12.469" height="417.56" width="417.56" y="-219.26" x="-691.33"/><rect style="fill:#f2f2f2" transform="matrix(-.84671 -.53206 -.84671 .53206 0 0)" rx="12.469" ry="12.469" height="417.56" width="417.56" y="-226.78" x="-683.82"/><path class="pe" d="m422.45 123.3v93.109 31.17l139.83-87.865v-31.172l-27.654 17.377a210 131.96 0 0 0 -112.18 -22.63z"/><path class="pe" d="m569.3 164.18-90.176 56.664h-49.604v31.17h197.62v-31.17h-7.4277a210 131.96 0 0 0 -50.41 -56.66z"/><path class="pe" d="m412.45 123.4a210 131.96 0 0 0 -111.98 22.5l-27.807-17.336v31.172l139.78 87.836.45312-31.578-.45312-.2832v-92.32z"/><path class="pe" d="m265.54 164.15a210 131.96 0 0 0 -50.746 56.695h-7.2051v31.172h197.78v-31.172h-49.607l-90.225-56.695z"/><path class="pe" d="m422.45 262.75v93.01 31.172a210 131.96 0 0 0 139.78 -36.346v-31.172l-35.088 9.123-104.69-65.787z"/><path class="pe" d="m207.75 227.13v31.172a210 131.96 0 0 0 57.842 87.836l139.78-87.836v-31.172h-197.62z"/><path class="pe" d="m412.45 262.75-104.67 65.77-35.166-9.0742v31.172a210 131.96 0 0 0 139.84 36.41l.14453-31.467-.14453-.0371v-92.779z"/><path style="opacity:.25;fill:url(#i)" d="m412.45 262.75-104.67 65.77-35.166-9.0742v31.172a210 131.96 0 0 0 139.84 36.41l.14453-31.467-.14453-.0371v-92.779z"/><path class="pf" d="m562.28 128.54a210 131.96 0 0 0 -139.83 -36.423v124.28l139.83-87.867z"/><path style="opacity:.25;fill:url(#i)" d="m569.3 164.18-90.176 56.664h-49.604v31.17h197.62v-31.17h-7.4277a210 131.96 0 0 0 -50.41 -56.66z"/><path class="pe" d="m429.52 227.13v31.17l139.83 87.867a210 131.96 0 0 0 57.949 -87.867v-31.17h-197.78z"/><path class="pf" d="m569.3 133.01-139.78 87.835 197.62-.000010a210 131.96 0 0 0 -57.841 -87.835z"/><path class="pf" d="m627.3 227.13h-197.78l139.83 87.867a210 131.96 0 0 0 57.95 -87.867z"/><path class="pf" d="m412.45 92.221a210 131.96 0 0 0 -139.78 36.349l139.78 87.836v-124.18z"/><path class="pf" d="m265.54 132.98a210 131.96 0 0 0 -57.951 87.868l197.78-.00001-139.83-87.868z"/><path class="pf" d="m422.45 231.58v124.18a210 131.96 0 0 0 139.78 -36.35l-139.78-87.83z"/><path class="pf" d="m405.38 227.13h-197.62a210 131.96 0 0 0 57.842 87.836l139.78-87.836z"/><path class="pf" d="m412.45 231.58-139.83 87.868a210 131.96 0 0 0 139.83 36.415v-124.28z"/><path style="opacity:.25;fill:url(#i)" d="m569.3 133.01-139.78 87.835 197.62-.000010a210 131.96 0 0 0 -57.841 -87.835z"/><path style="opacity:.25;fill:url(#i)" d="m412.45 231.58-139.83 87.868a210 131.96 0 0 0 139.83 36.415v-124.28z"/><text y="20.060892" x="202.10532" xml:space="preserve"><tspan y="20.060892" x="202.10532">Team 1</tspan></text><text y="116.3278" x="2.394722" xml:space="preserve"><tspan y="116.3278" x="2.394722">Team 2</tspan></text><text y="339.56934" x="743.77466" xml:space="preserve"><tspan y="339.56934" x="743.77466">Team 3</tspan></text><text y="338.48016" x="0" xml:space="preserve"><tspan y="338.48016" x="0">Team 1</tspan></text><text y="20.060892" x="538.48682" xml:space="preserve"><tspan y="20.060892" x="538.48682">Team 3</tspan></text><text y="487.28802" x="516.26569" xml:space="preserve"><tspan y="487.28802" x="516.26569">Team 2</tspan></text><path class="sp" d="m275.4 260.64h-230v50"/><path class="sp" d="m275.4 180.64h-230v-50"/><path class="sp" d="m544.9 260.64h246.13v50"/><path class="sp" d="m365.4 150.64v-140l-61.401-.0459"/><path class="sp" d="m465.4 150.64v-140h60"/><path style="stroke:#148800;stroke-width:.99999px;stroke-opacity:.83922;fill:none" d="m91.532 480.17h49.999"/><text y="487.15015" x="155.08017" xml:space="preserve"><tspan y="487.15015" x="155.08017">Unallocated Memory</tspan></text><path style="stroke:#138800;stroke-width:1px;stroke-opacity:.74118;fill:none" d="m460 299.59v180h50"/><rect style="fill:#82b879" height="35.952" width="55.182" y="461.49" x="19.707"/><path d="m27.297 461.54v35.853" style="stroke:#a3fa94;stroke-width:2" class="pb"/><path d="m47.297 461.54v35.853" style="stroke:#a3fa94;stroke-width:2" class="pb"/><path d="m67.297 461.54v35.853" style="stroke:#a3fa94;stroke-width:2" class="pb"/></svg>