<svg xmlns:rdf="http://www.w3.org/1999/02/22-rdf-syntax-ns#" xmlns="http://www.w3.org/2000/svg" height="11.93mm" width="39.73mm" version="1.1" xmlns:cc="http://creativecommons.org/ns#" xmlns:dc="http://purl.org/dc/elements/1.1/" viewBox="0 0 140.77718 42.270191">
 <g transform="translate(-249.93 -354.47)">
  <g transform="matrix(.95753 0 0 .95757 -6.9385 15.562)">
   <path style="fill-rule:evenodd" d="m342.37 390.9-.75696 6.6882a.24954 .10018 71.166 0 0 .2472 .28732c0-.0417-.24919-.0624-.54047-.0385a.11833 .13214 35.501 0 0 -.0275 -.24695c-.29164.10838-.62386.26358-.7656.476.19108-.14401.53352-.20962.8205-.2321l-.0274-.24695c.29128-.10723.54047-.16987.54047-.21154l.2472.28732 1.2514-6.6135z"/>
   <path style="fill-rule:evenodd" d="m337.93 390.9-.74413 6.5748c-.0934.0315-.20992.0693-.33355.11529-.29164.10838-.62385.26358-.7656.476.19109-.14401.53353-.20962.8205-.2321.29088-.0228.53729-.0010.53399.0406l.22623-.2118 1.2514-6.6135z"/>
   <path style="fill-rule:evenodd" d="m338.26 377.39-3.1539-2.5531-1.5859-4.4873 1.1342 4.7078a.26557 .12279 33.17 0 0 .0709 .11336l2.8594 2.9569z"/>
   <path style="fill-rule:evenodd" d="m346.34 379.6 3.0443-3.4352a.12696 .26707 55.266 0 0 .0637 -.11099l1.2204-5.5159-1.6797 5.3118-3.3598 3.0474z"/>
   <g style="fill:#ffa809" transform="scale(.99978 1.0002)">
    <path d="m337.27 380.45v-9.9993h9.9993v9.9993q0 5.5118-1.9511 8.8774-1.9511 3.4144-6.1947 5.2679l-2.4389-3.7558q2.7803-1.2194 4.0973-3.6095 1.317-2.3413 1.4633-6.78h-4.9753z"/>
   </g>
   <path style="color-rendering:auto;color:#000000;isolation:auto;mix-blend-mode:normal;fill-rule:evenodd;shape-rendering:auto;solid-color:#000000;image-rendering:auto;fill:#f9f9f9" d="m340.98 373.83a1.4347 1.4354 0 0 1 -1.4347 1.4354 1.4347 1.4354 0 0 1 -1.4347 -1.4354 1.4347 1.4354 0 0 1 1.4347 -1.4354 1.4347 1.4354 0 0 1 1.4347 1.4354z"/>
   <path style="color-rendering:auto;color:#000000;isolation:auto;mix-blend-mode:normal;fill-rule:evenodd;shape-rendering:auto;solid-color:#000000;image-rendering:auto" d="m340.85 373.83a.67385 .67415 0 0 1 -.67385 .67415 .67385 .67415 0 0 1 -.67384 -.67415 .67385 .67415 0 0 1 .67384 -.67415 .67385 .67415 0 0 1 .67385 .67415z"/>
   <path style="color-rendering:auto;color:#000000;isolation:auto;mix-blend-mode:normal;fill-rule:evenodd;shape-rendering:auto;solid-color:#000000;image-rendering:auto;fill:#f9f9f9" d="m346.08 373.83a1.4347 1.4354 0 0 1 -1.4347 1.4354 1.4347 1.4354 0 0 1 -1.4347 -1.4354 1.4347 1.4354 0 0 1 1.4347 -1.4354 1.4347 1.4354 0 0 1 1.4347 1.4354z"/>
   <path style="color-rendering:auto;color:#000000;isolation:auto;mix-blend-mode:normal;fill-rule:evenodd;shape-rendering:auto;solid-color:#000000;image-rendering:auto" d="m345.95 373.78a.67385 .67415 0 0 1 -.67385 .67415 .67385 .67415 0 0 1 -.67385 -.67415 .67385 .67415 0 0 1 .67385 -.67416 .67385 .67415 0 0 1 .67385 .67416z"/>
   <path d="m337.99 372.55s1.8033-1.1796 2.8436-.41632" style="stroke:#000;stroke-width:.41773;fill:none"/>
   <path style="stroke:#000;stroke-width:.41773;fill:none" d="m346.4 371.93s-1.8033-1.1796-2.8436-.41633"/>
   <path style="fill-rule:evenodd" d="m338.86 377.96c-.047.0491-.0628.12818-.0484.22977.26938.18986 1.0239.73616 2.0881 1.023 1.3201.35587 3.0808.30353 4.9653-1.2528-1.9306 1.497-3.6715 1.444-4.9007 1.037-1.0009-.33146-1.6856-.90483-1.888-1.1175-.0962.007-.16935.0314-.21635.0805z"/>
   <path style="fill-rule:evenodd" d="m341.95 376.27c-.0253-.0389-.0527-.0764-.0821-.11261-.0464.0477-.25397.19124-.44927.38638-.0975.0974-.19289.21033-.22718.31561-.0179.0551-.023.11995.0124.17782.0343.0562.0946.0855.16265.10075.25129.0554.68387.0414.99624-.0285.15668-.035.28867-.0854.35211-.15133.0326-.0339.0467-.0715.0368-.1107-.01-.0376-.0409-.0754-.0951-.11473.0517.0448.0749.0846.0776.11778.003.0316-.0134.0581-.0433.0814-.0618.0484-.18559.0849-.34108.10765-.31041.0454-.72803.0322-.94646-.039-.0504-.0168-.0593-.0351-.0592-.0404-.00001.00091.002-.0155.0135-.0373.0292-.0572.10119-.1346.20551-.22204.1825-.15298.41572-.29631.45805-.311-.0222-.0409-.0458-.0809-.0711-.11984z"/>
   <path d="m333.07 370.75.57435.2028.27028-.60841" style="stroke:#000;stroke-width:.20887;fill:none"/>
   <path d="m333.61 370.92-.30407-.69556" style="stroke:#000;stroke-width:.20887;fill:none"/>
   <path style="stroke:#000;stroke-width:.20887;fill:none" d="m351.16 370.62-.57435.2028-.27028-.60841"/>
   <path style="stroke:#000;stroke-width:.20887;fill:none" d="m350.62 370.78.30407-.69556"/>
  </g>
  <g style="fill:#f4bc58">
   <path d="m298.42 376.18q-2.0544 0-3.7329-.80566-.42969.64453-1.0474.64453-.51026 0-.87281-.36255-.34912-.34912-.34912-.88623 0-.34912.0269-1.0339.0403-.68481.0403-1.0339 0-1.4233-.0806-4.2566-.0671-2.8467-.0671-4.27 0-.98023.0134-3.7061.0134-2.7393.0134-3.7329 0-.80566.33569-1.4502.44312-.8191 1.2219-.8191 1.0071 0 1.0071 1.1682 0 .18798-.0671.55053t-.0671.55054l-.0403 2.9407-.0269 3.4241q1.1682-.79224 2.2156-1.1816 1.0608-.40284 1.9873-.40284 2.887 0 4.6863 2.2156 1.6919 2.0813 1.6919 5.116 0 3.0615-1.9739 5.1965t-4.9146 2.135zm.51025-12.125q-1.1011 0-2.2559.61767-.56396.30884-1.9336 1.3294l-.0269 2.323.0134 2.0947.0134 2.2022q.64453.29541 1.8127.75195.83252.25513 1.8665.25513 1.947 0 3.1958-1.3696t1.2488-3.4106q0-2.0007-1.0071-3.3435-1.0876-1.4502-2.9272-1.4502zm-17.51 2.6587q0 .4834-.49683.95337-3.1958 2.9675-6.7004 5.21-.37598.2417-.71167.2417-.4834 0-.84595-.37598-.34912-.3894-.34912-.8728 0-.53711.52368-.93994l5.21-3.9746q-1.1951-.79224-2.9541-2.4304-2.1484-2.0276-2.1484-2.8064 0-.4834.37597-.84595.37598-.36255.85938-.36255.49682 0 .89966.45655 3.0615 3.4241 5.5456 4.7131.79224.40283.79224 1.0339zm-19.819 9.7888q-.25513 0-.92651-.59082-.60425-.55054-.89966-.98023-1.2891.69824-2.2693 1.0474-.98023.36254-1.6382.36254-3.1421 0-4.5789-1.7725-1.3562-1.665-1.3562-5.1025 0-3.2495 2.229-5.5591 2.2424-2.3096 5.3442-2.3096 1.1682 0 2.6184.60425 1.8262.75195 1.8262 1.8127 0 .36255-.26855.64453-.13428.51026-.21485 1.6785-.0671 1.1682-.0806 2.9944-.0134 1.665.22827 2.6318.13427.59082.84594 2.3633.094.2417.30884.71167l.0806.22828q0 .5371-.37598.88623-.37597.34912-.8728.34912zm-2.793-9.3323q0-.57739.0671-1.2488.0806-.68481.22827-1.4502-.49683-.25513-.85937-.37598-.34913-.12085-.56397-.12085-2.0813 0-3.5986 1.7053-1.5039 1.6919-1.5039 3.9075 0 2.2022.77881 3.3032.77881 1.1011 2.3364 1.1011 1.2891 0 2.1887-.46997.48339-.25513 1.3562-1.0205-.42969-3.5584-.42969-5.3308z"/>
  </g>
  <g style="fill:#ffa400">
   <path d="m383.82 376.18q-2.0544 0-3.7329-.80566-.42969.64453-1.0474.64453-.51026 0-.8728-.36255-.34913-.34912-.34913-.88623 0-.34912.0269-1.0339.0403-.68481.0403-1.0339 0-1.4233-.0806-4.2566-.0671-2.8467-.0671-4.27 0-.98023.0134-3.7061.0134-2.7393.0134-3.7329 0-.80566.3357-1.4502.44311-.8191 1.2219-.8191 1.0071 0 1.0071 1.1682 0 .18798-.0671.55053t-.0671.55054l-.0403 2.9407-.0268 3.4241q1.1682-.79224 2.2156-1.1816 1.0608-.40284 1.9873-.40284 2.887 0 4.6863 2.2156 1.6919 2.0813 1.6919 5.116 0 3.0615-1.9739 5.1965t-4.9146 2.135zm.51026-12.125q-1.1011 0-2.2559.61767-.56397.30884-1.9336 1.3294l-.0269 2.323.0134 2.0947.0134 2.2022q.64453.29541 1.8128.75195.83252.25513 1.8664.25513 1.947 0 3.1958-1.3696t1.2488-3.4106q0-2.0007-1.0071-3.3435-1.0876-1.4502-2.9272-1.4502zm-23.337 3.3166q.75196.55053 1.853 1.7053 1.3025 1.3562 1.7859 1.7725.4834.41626.4834.91309 0 .49682-.36255.8728t-.84595.37598q-.37598 0-.75195-.28199-.53711-.3894-2.2962-2.229-1.3428-1.4099-2.5916-1.8933-1.0205-.37598-1.0205-1.1145 0-.67139.92652-1.1145 1.2488-.60424 2.7393-2.1753 2.0813-2.1753 2.4707-2.4976.40283-.33569.80566-.33569.4834 0 .84595.37598.37598.36254.37598.85937 0 .45654-.40284.85938-1.2891 1.3696-4.0149 3.9075zm-13.938 9.1309q-.25512 0-.92651-.59082-.60425-.55054-.89966-.98023-1.2891.69824-2.2693 1.0474-.98022.36254-1.6382.36254-3.1421 0-4.5789-1.7725-1.3562-1.665-1.3562-5.1025 0-3.2495 2.229-5.5591 2.2424-2.3096 5.3442-2.3096 1.1682 0 2.6184.60425 1.8262.75195 1.8262 1.8127 0 .36255-.26855.64453-.13428.51026-.21485 1.6785-.0671 1.1682-.0806 2.9944-.0134 1.665.22827 2.6318.13428.59082.84595 2.3633.094.2417.30884.71167l.0806.22828q0 .5371-.37597.88623-.37598.34912-.87281.34912zm-2.793-9.3323q0-.57739.0671-1.2488.0806-.68481.22827-1.4502-.49682-.25513-.85937-.37598-.34912-.12085-.56397-.12085-2.0813 0-3.5986 1.7053-1.5039 1.6919-1.5039 3.9075 0 2.2022.77881 3.3032.77881 1.1011 2.3364 1.1011 1.2891 0 2.1887-.46997.4834-.25513 1.3562-1.0205-.42969-3.5584-.42969-5.3308z"/>
  </g>
 </g>
</svg>
