<svg xmlns="http://www.w3.org/2000/svg" height="100.76mm" width="132.44mm" viewBox="0 0 469.28571 357.0256"><style>.p{opacity:0.913;stroke:#353535;stroke-width:.5;}svg{font-family:sans-serif}.f{font-size:20px;fill:#5c5c5c}</style><defs><filter id="a" style="color-interpolation-filters:sRGB"><feFlood result="flood" flood-color="rgb(168,168,168)"/><feComposite operator="in" result="composite1" in2="SourceGraphic" in="flood"/><feGaussianBlur stdDeviation="1" result="blur" in="composite1"/><feOffset result="offset" dx="1.8" dy="2.34375"/><feComposite operator="over" result="composite2" in2="offset" in="SourceGraphic"/></filter><marker id="c" refY="0" refX="0" style="overflow:visible" orient="auto"><path d="m0 0 5-5-17.5 5 17.5 5-5-5z" style="fill-rule:evenodd;stroke:#ff7575;stroke-width:1pt;fill:#ff7575" transform="matrix(-.8 0 0 -.8 -10 0)"/></marker><marker id="b" refY="0" refX="0" style="overflow:visible" orient="auto"><path d="m0 0 5-5-17.5 5 17.5 5-5-5z" style="fill-rule:evenodd;stroke:#676767;stroke-width:1pt;fill:#676767" transform="matrix(-.8 0 0 -.8 -10 0)"/></marker></defs><g transform="translate(-117.32 -250.99)"><g transform="translate(-26.812 -183.39)"><rect class="p" style="opacity:0.913;fill:#ffecac" rx=".71429" ry=".71429" height="300.71" width="469.29" y="434.39" x="144.13"/><g style="filter:url(#a)" transform="translate(37.702 390.6)"><g transform="translate(320)"><rect class="p" style="fill:#6de69b" rx=".71429" ry=".71429" height="65" width="55" y="240.22" x="153.37"/><text class="f" y="279.98499" x="167.88678"><tspan x="167.88678" y="279.98499">50</tspan></text></g><g transform="translate(-160)"><rect class="p" style="fill:#eec53e" rx=".71429" ry=".71429" height="180.71" width="55" y="124.51" x="393.67"/><text class="f" y="222.13272" x="401.32089"><tspan x="401.32089" y="222.13272">138</tspan></text></g><g transform="translate(160)"><rect class="p" style="fill:#91bafb" rx=".71429" ry=".71429" height="109.29" width="55" y="195.93" x="233.47"/><text class="f" y="257.84698" x="248.24374"><tspan x="248.24374" y="257.84698">73</tspan></text></g><rect class="p" style="fill:#ffcb89" rx=".71429" ry=".71429" height="141.43" width="55" y="163.79" x="313.57"/><text class="f" y="241.77068" x="321.16415"><tspan x="321.16415" y="241.77068">106</tspan></text><g transform="translate(-320)"><rect class="p" style="fill:#ffb3ac" rx=".71429" ry=".71429" height="222.14" width="55" y="83.076" x="473.78"/><text class="f" y="201.29147" x="481.4581"><tspan x="481.4581" y="201.29147">157</tspan></text></g></g><text style="font-size:20px;filter:url(#a);fill:#5c5c5c" y="785.34821" x="295.43387"><tspan y="785.34821" x="295.43387">Decending Order</tspan></text><path d="m147.7 752.96h460" style="marker-end:url(#c);stroke:#ff7575;stroke-width:1px;fill:none"/><text style="font-size:15.815px;fill:#5c5c5c" transform="scale(.94578 1.0573)" y="733.7002" x="152.44086"><tspan y="733.7002" x="152.44086">Large</tspan></text><text style="font-size:14.508px;fill:#5c5c5c" transform="scale(.89698 1.1149)" y="694.03461" x="637.96613"><tspan y="694.03461" x="637.96613">Small</tspan></text><path style="marker-end:url(#b);stroke:#676767;stroke-width:1px;fill:none" d="m246.38 452.93 343.26 162.38"/></g></g></svg>