<svg xmlns="http://www.w3.org/2000/svg" height="91.02mm" width="67.757mm" viewBox="0 0 240.08398 322.51107"><style>.pc{stroke:#000;stroke-width:1px;fill:none}</style><path class="pc" d="m.68 161 119.32-159.74 119.46 159.99-119.46 160.01z"/><path class="pc" d="m50.54 161.26 69.46-160 69.47 160l-69.464 160z"/><path class="pc" d="m0 161.26h240"/><path class="pc" d="m0 161.26h240"/><path class="pc" d="m90 161.26 30 160 30-160l-30-160z"/><path style="fill:#b9ff7b;fill-opacity:.70196" d="m120.05 321.03 62.94-85.04-17.99-.29z"/><path style="fill:#b2ff6f;fill-opacity:.91483" d="m123.5 314.49 47.5-88.733-9.0273.11092z"/><path style="fill:#b9ff7b;fill-opacity:.70196" d="m238.45 161.76-74.036 73.994 18.658.23507z"/><path style="fill:#b2ff70;fill-opacity:.48235" d="m165.85 234.32 72.597-72.562-28.663.0199z"/><path style="fill:#b8ff7a;fill-opacity:.66275" d="m189.78 161.77 20.009-.0209c-16.271 21.47-31.659 42.821-47.98 64.234z"/><path style="fill:#b9ff7b;fill-opacity:.70199" d="m120.5 2.7518 62.1 83.135-17.6-.051z"/><path style="fill:#b2ff70;fill-opacity:.86755" d="m124.6 10.474 46.16 85.774-8.927.14953z"/><path style="fill:#b3ff70;fill-opacity:.66225" d="m238.54 160.78-74.105-75.017 18.122.0953z"/><path style="fill:#b3ff70;fill-opacity:.48344" d="m164.43 85.552 74.036 75.201-29.295-.004z"/><path style="fill:#b9ff7b;fill-opacity:.66225" d="m189.82 160.75 19.361.0174-38.408-64.515-8.8969.0959z"/><path style="fill:#ade3fb;fill-opacity:.36278" d="m118.51 316.5-21.715-49.904 7.8914-.66664z"/><path style="fill:#ade2fb;fill-opacity:.39117" d="m118.74 317.38-21.462-76.42 7.2218.11092z"/><path style="fill:#ade2fb;fill-opacity:.66246" d="m96.835 266.62 8.6727-.34488c-9.2642-16.891-45-86.226-53.536-103.04z"/><path style="fill:#ade2fb;fill-opacity:.5098" d="m104.62 265.45-53.539-103.67 23.402-.0392z"/><path style="fill:#ade2fb;fill-opacity:.70978" d="m74.494 161.77 15.072-.0492 14.886 79.356h-6.9332z"/><path style="fill-opacity:.85098;fill:#b3ff70;fill-rule:evenodd" d="m161.76 225.93 9.2641-.11091 38.899-64.258z"/><path d="m120.05 321.04-62.958-85.04 17.993-.29z" style="fill:#b9ff7b;fill-opacity:.70196"/><path d="m116.6 314.49-47.514-88.733 9.0299.11092z" style="fill-opacity:.87059;fill:#b2ff6f"/><path d="m1.62 161.77 74.057 73.994-18.663.23507z" style="fill:#b4ff70;fill-opacity:.66275"/><path d="m74.24 234.33-72.618-72.56 28.672.02z" style="fill-opacity:.48235;fill:#b2ff70"/><path d="m50.3 161.77-20.015-.0209c16.276 21.47 31.502 42.848 47.828 64.262z" style="fill:#b8ff7a;fill-opacity:.66275"/><path d="m119.6 2.76-62.119 83.136 17.605-.052z" style="fill:#b9ff7b;fill-opacity:.70199"/><path d="m115.49 10.48-46.174 85.774 8.9296.14953z" style="fill:#b2ff70;fill-opacity:.86755"/><path d="m1.53 160.78 74.126-75.017-18.127.095z" style="fill:#b3ff70;fill-opacity:.66225"/><path d="m75.66 85.56-74.057 75.2h29.303z" style="fill:#b3ff70;fill-opacity:.48344"/><path d="m50.26 160.76-19.367.0174 38.419-64.515 8.8994.0959z" style="fill:#b9ff7b;fill-opacity:.66225"/><path d="m78.32 225.93-9.2668-.11091-38.91-64.258z" style="fill-opacity:.66275;fill:#b8ff7a;fill-rule:evenodd"/><path style="fill:#ade3fb;fill-opacity:.36278" d="m121.37 316.73 21.594-49.626-7.8169-.7221z"/><path style="fill:#ade2fb;fill-opacity:.39117" d="m121.96 314.11 20.279-73.148-6.6817.16638z"/><path style="fill:#ade2fb;fill-opacity:.66246" d="m143.02 267.1-8.6071-.81545c9.5674-16.891 45.325-87.657 54.141-104.47z"/><path style="fill:#ade2fb;fill-opacity:.5098" d="m135.43 265.33 53.184-103.56-24.168-.0392z"/><path style="fill:#ade2fb;fill-opacity:.70978" d="m164.44 161.77-14.012.006-14.831 79.467 6.7291-.27729z"/><path style="fill:#ade3fb;fill-opacity:.36278" d="m121.37 6.1228 21.594 49.47-7.8169.71982z"/><path style="fill:#ade2fb;fill-opacity:.39117" d="m121.96 8.7307 20.279 72.918-6.6817-.16585z"/><path style="fill:#ade2fb;fill-opacity:.66246" d="m143.02 55.596-8.6071.81288c9.5674 16.838 45.325 87.381 54.141 104.14z"/><path style="fill:#ade2fb;fill-opacity:.5098" d="m135.43 57.352 53.184 103.23-24.168.039z"/><path style="fill:#ade2fb;fill-opacity:.70978" d="m164.44 160.59-14.012-.006-14.831-79.217 6.7291.27641z"/><path style="fill:#ade3fb;fill-opacity:.36278" d="m119.48 3.9268-22.097 51.352 7.6989.71982z"/><path style="fill:#ade2fb;fill-opacity:.39117" d="m118.87 6.6915-21.194 72.918 6.9831-.16585z"/><path style="fill:#ade2fb;fill-opacity:.66246" d="m97.173 54.969 7.4267.81288c-9.999 16.838-44.233 88.008-53.446 104.77z"/><path style="fill:#ade2fb;fill-opacity:.5098" d="m105.74 52.05-54.652 108.54 25.258.039z"/><path style="fill:#ade2fb;fill-opacity:.70978" d="m76.24 160.82 13.202-.11691 15.503-81.727-6.7379-.46193z"/><path style="fill-opacity:.78715;fill:#fbb8ad;fill-rule:evenodd" d="m120.01 318.69-13.084-70.245 9.2546-.31372z"/><path style="fill-opacity:.91968;fill:#fbb8ad;fill-rule:evenodd" d="m120.01 318.42 15.261-81.558-20.097-.41511z"/><path style="fill-opacity:.73333;fill:#fbb8ad;fill-rule:evenodd" d="m106.86 248.37 9.1354-.11771-25.375-86.474z"/><path style="fill-opacity:.82329;fill:#fbb8ad;fill-rule:evenodd" d="m115.87 248.29 4.7612-86.494-30.172-.0919z"/><path style="fill-opacity:.91165;fill:#fbb8ad;fill-rule:evenodd" d="m116.54 236.84 32.942-75.09-28.949.11092z"/><path style="fill-opacity:.80321;fill:#fbb8ad;fill-rule:evenodd" d="m149.31 161.97-32.72 74.646 18.856.11091z"/><path style="fill-opacity:.78715;fill:#fbb8ad;fill-rule:evenodd" d="m120.01 4.9788-13.084 70.129 9.2546.3132z"/><path style="fill-opacity:.91968;fill:#fbb8ad;fill-rule:evenodd" d="m120.01 5.2556 15.261 81.423-20.097.41442z"/><path style="fill-opacity:.73333;fill:#fbb8ad;fill-rule:evenodd" d="m106.86 75.188 9.1354.11752-25.486 86.331z"/><path style="fill-opacity:.82329;fill:#fbb8ad;fill-rule:evenodd" d="m115.87 75.264 4.6503 85.352-29.95.0917z"/><path style="fill-opacity:.91165;fill:#fbb8ad;fill-rule:evenodd" d="m116.54 86.699 32.831 73.967-28.838.00018z"/><path style="fill-opacity:.80321;fill:#fbb8ad;fill-rule:evenodd" d="m149.31 161.44-32.72-74.52 18.86-.111z"/></svg>