<svg xmlns:rdf="http://www.w3.org/1999/02/22-rdf-syntax-ns#" xmlns="http://www.w3.org/2000/svg" height="129.99mm" width="201.42mm" version="1.1" xmlns:cc="http://creativecommons.org/ns#" xmlns:xlink="http://www.w3.org/1999/xlink" viewBox="0 0 713.70484 460.58121" xmlns:dc="http://purl.org/dc/elements/1.1/"><style>svg{font-family:sans-serif;font-size:25px;fill:#000;}</style><defs><marker id="g" refY="0" refX="0" style="overflow:visible" orient="auto"><path style="fill-rule:evenodd;stroke:#006d3f;stroke-width:1pt;fill:#006d3f" transform="matrix(-.4 0 0 -.4 -4 0)" d="m0 0 5-5-17.5 5 17.5 5-5-5z"/></marker><marker id="f" refY="0" refX="0" style="overflow:visible" orient="auto"><path style="fill-rule:evenodd;stroke:#006d3f;stroke-width:1pt;fill:#006d3f" transform="matrix(-.4 0 0 -.4 -4 0)" d="m0 0 5-5-17.5 5 17.5 5-5-5z"/></marker><pattern id="h" xlink:href="#e" patternTransform="scale(10)"/><pattern id="e" width="1.25" patternUnits="userSpaceOnUse" patternTransform="translate(0) scale(10)" height="1"><rect style="fill:#474746" height="2" width="1" y="-.5" x="0"/></pattern></defs><path d="m346.29 12c-4.4925 0-8.9854 1.1141-12.428 3.3438l-326.5 211.48-7.3379.0156.03906 8.6582c-.06096.56406-.06109 1.1296.0078 1.6934v.0918h.0059c.34656 2.5715 2.0404 5.0822 5.0918 7.0586l328.69 212.9c6.8848 4.4592 17.971 4.4592 24.855 0l328.69-212.9c4.9304-3.1934 6.3089-7.7781 4.1777-11.764l.16797-7.2949-8.8867.0195-324.16-209.96c-3.4424-2.2296-7.9352-3.3438-12.428-3.3438z" style="fill:#ccc"/><path d="m346.29 8c-4.4925 0-8.9854 1.1141-12.428 3.3438l-326.5 211.48-7.3379.0156.03906 8.6582c-.06096.56406-.06109 1.1296.0078 1.6934v.0918h.0059c.34656 2.5715 2.0404 5.0822 5.0918 7.0586l328.69 212.9c6.8848 4.4592 17.971 4.4592 24.855 0l328.69-212.9c4.9304-3.1934 6.3089-7.7781 4.1777-11.764l.16797-7.2949-8.8867.0195-324.16-209.96c-3.4424-2.2296-7.9352-3.3438-12.428-3.3438z" style="fill:#e6e6e6"/><rect style="fill:#f2f2f2" transform="matrix(.83933 .54363 -.83933 .54363 0 0)" rx="14.806" ry="14.806" height="421.24" width="421.24" y="-210.62" x="201.97"/><path d="m213.12 89.49v36.365l282.17 182.76a200 129.54 0 0 0 50.039 -97.646l.45117-33.744-14.457-3.8125a200 129.54 0 0 0 -43.61 -42.72 200 129.54 0 0 0 -220.96 -27.05l-53.63-14.15z" style="fill-opacity:.94118;fill:#5eb74f"/><path d="m197.29 135.96a200 129.54 0 0 0 -38.109 41.09l-11.85-3.8965.58789 32.982.041.0137a200 129.54 0 0 0 56.908 107.74 200 129.54 0 0 0 274.59 4.8359v-36.367l-114.04-37.49-168.13-108.91z" style="fill-opacity:.94118;fill:#5eb74f"/><path d="m213.12 89.49v36.365l282.17 182.76a200 129.54 0 0 0 50.039 -97.646l.45117-33.744-14.457-3.8125a200 129.54 0 0 0 -43.61 -42.72 200 129.54 0 0 0 -220.96 -27.05l-53.63-14.15z" style="opacity:.25;color:#000000;fill:url(#e)"/><path d="m487.71 94.33a200 129.54 0 0 0 -274.59 -4.834l282.17 182.76a200 129.54 0 0 0 -7.5793 -177.93z" style="fill:#75d065"/><path d="m197.29 99.6a200 129.54 0 0 0 7.5779 177.93 200 129.54 0 0 0 274.59 4.8348l-282.17-182.76z" style="fill:#75d065"/><path d="m487.71 94.33a200 129.54 0 0 0 -274.59 -4.84l282.17 182.77a200 129.54 0 0 0 -7.58 -177.93z" style="opacity:.25;fill:url(#h)"/><path d="m264.24 220.7v-196.82h-76" style="stroke:#006d3f;stroke-width:1px;marker-end:url(#f);fill:none"/><path d="m404.24 130.7v-106.08h100" style="stroke:#006d3f;stroke-width:1px;marker-end:url(#g);fill:none"/><text style="font-size:18.224px;letter-spacing:0px;word-spacing:0px;font-family:sans-serif;line-height:125%;fill:#000000" transform="scale(1.2346 .80997)" y="22.198893" x="36.644005"><tspan y="22.198893" x="36.644005" style="font-size:18.224px;font-family:sans-serif;line-height:125%;fill:#000000"/></text><text y="28.772449" x="1.4174284"><tspan y="28.772449" x="1.4174284" style="font-size:20px">Allocated Memory</tspan></text><text y="30.772449" x="509.41742"><tspan y="30.772449" x="509.41742" style="font-size:20px">Unallocated Memory</tspan></text></svg>