<svg xmlns:rdf="http://www.w3.org/1999/02/22-rdf-syntax-ns#" xmlns="http://www.w3.org/2000/svg" height="237.73mm" width="214.39mm" version="1.1" xmlns:cc="http://creativecommons.org/ns#" xmlns:xlink="http://www.w3.org/1999/xlink" viewBox="0 0 759.65744 842.33816" xmlns:dc="http://purl.org/dc/elements/1.1/">
 <g transform="translate(-301.08 -668.82)">
  <path d="m351.7 761.1s-.32264 22.231-2.5811 23.219" style="stroke:#959191;stroke-width:1px;fill:#ffa200;fill-rule:evenodd"/>
  <path d="m341.5 784.84s1.2676-1.8632 8.1631-2.4067c0 0 .60843 3.2607-.20286 3.6489-.81125.38819-7.7575 3.1054-8.2645 2.4844-.50702-.62107-.96332-2.8725.30423-3.7265z" style="stroke:#959191;stroke-width:1px;fill-rule:evenodd"/>
  <path d="m369.02 761.03s.32264 22.231 2.5811 23.219" style="stroke:#959191;stroke-width:1px;fill:#ffa200;fill-rule:evenodd"/>
  <path d="m390.31 718.42s28.125-10.139 26.72-20.82" style="stroke:#959191;stroke-width:2;fill-opacity:0"/>
  <path d="m416.77 697.62-3.3577-2.4192" style="stroke:#000;stroke-width:2;fill:none"/>
  <path d="m416.77 698.29-.0565-4.8118" style="stroke:#000;stroke-width:2;fill:none"/>
  <path d="m416.91 697.71 3.282-2.1268" style="stroke:#000;stroke-width:2;fill:none"/>
  <text style="letter-spacing:0px;font-weight:100;font-size:141.9px;word-spacing:0px;font-family:&apos;AR CENA&apos;;line-height:125%;fill:#747474" transform="scale(.99976 1.0002)" y="764.76208" x="330.25125" xml:space="preserve"><tspan y="764.76208" x="330.25125">0</tspan></text>
  <path d="m379.22 784.77s-1.2676-1.8633-8.1631-2.4067c0 0-.60843 3.2607.20286 3.6489.81125.38816 7.7575 3.1054 8.2645 2.4844.50702-.62107.96332-2.8725-.30423-3.7265z" style="stroke:#959191;stroke-width:1px;fill-rule:evenodd"/>
  <path d="m333.23 715.96s-28.125-10.139-26.72-20.82" style="stroke:#959191;stroke-width:2;fill-opacity:0"/>
  <path d="m306.76 695.16 3.3577-2.4192" style="stroke:#000;stroke-width:2;fill:none"/>
  <path d="m306.77 695.83.0565-4.8118" style="stroke:#000;stroke-width:2;fill:none"/>
  <path d="m306.63 695.25-3.282-2.1268" style="stroke:#000;stroke-width:2;fill:none"/>
  <text style="letter-spacing:0px;font-weight:100;font-size:147.12px;word-spacing:0px;font-family:&apos;AR CENA&apos;;line-height:125%;fill:#959191" transform="scale(.99976 1.0002)" y="766.49506" x="324.52435" xml:space="preserve"><tspan y="766.49506" x="324.52435">0</tspan></text>
  <ellipse style="stroke-linejoin:bevel;color-rendering:auto;fill-rule:evenodd;color:#000000;isolation:auto;mix-blend-mode:normal;shape-rendering:auto;solid-color:#000000;stroke:#f2f2f2;stroke-linecap:square;image-rendering:auto;stroke-width:.5;fill:#f2f2f2" rx="1.9231" ry="2.0237" cy="682.55" cx="345.13"/>
  <ellipse style="stroke-linejoin:bevel;color-rendering:auto;fill-rule:evenodd;color:#000000;isolation:auto;mix-blend-mode:normal;shape-rendering:auto;solid-color:#000000;stroke:#f2f2f2;stroke-linecap:square;image-rendering:auto;stroke-width:.5;fill:#f2f2f2" rx="1.9231" ry="2.0237" cy="682.26" cx="355.93"/>
  <ellipse style="color-rendering:auto;fill-rule:evenodd;color:#000000;isolation:auto;mix-blend-mode:normal;shape-rendering:auto;solid-color:#000000;image-rendering:auto;fill:#1a1a1a" rx=".81598" ry=".87214" cy="682.54" cx="355.85"/>
  <ellipse style="color-rendering:auto;fill-rule:evenodd;color:#000000;isolation:auto;mix-blend-mode:normal;shape-rendering:auto;solid-color:#000000;image-rendering:auto;fill:#1a1a1a" rx=".81598" ry=".87214" cy="682.75" cx="345.06"/>
  <path d="m353.27 679.36s2.7024-1.9532 5.7701-.5023" style="stroke:#000;stroke-width:0.3;fill:none"/>
  <path d="m348.81 679.89s-2.7025-3.2886-5.7702-.84575" style="stroke:#000;stroke-width:0.3;fill:none"/>
  <path d="m342.53 689.79s7.7268 5.3316 10.143.2982c0 0-3.2446-.34577-10.143-.2982z" style="stroke:#f2f2f2;stroke-width:.2;fill:#f2f2f2;fill-rule:evenodd"/>
 </g>
 <text style="letter-spacing:0px;font-weight:100;font-size:81.086px;word-spacing:0px;font-family:&apos;AR CENA&apos;;line-height:125%;fill:#000000" y="86.968063" x="185.94466" xml:space="preserve"><tspan y="86.968063" x="185.94466">%</tspan></text>
 <g transform="translate(153.21 -340.34)">
  <path d="m171.5 434.32s-.32264 14.526-2.5811 15.171" style="stroke:#ffa200;stroke-width:1px;fill:#ffa200;fill-rule:evenodd"/>
  <path d="m161.3 449.84s1.2676-1.2174 8.1631-1.5726c0 0 .60843 2.1306-.20286 2.3842-.81125.25364-7.7575 2.0291-8.2645 1.6233-.50702-.40581-.96332-1.8769.30423-2.4349z" style="stroke:#ffa200;stroke-width:1px;fill-rule:evenodd"/>
  <path d="m187.57 434s.32264 14.526 2.5811 15.171" style="stroke:#ffa200;stroke-width:1px;fill:#ffa200;fill-rule:evenodd"/>
  <path d="m197.76 449.51s-1.2676-1.2174-8.1631-1.5726c0 0-.60843 2.1306.20286 2.3842.81125.25364 7.7575 2.0291 8.2645 1.6233.50701-.40581.96332-1.8769-.30423-2.4349z" style="stroke:#ffa200;stroke-width:1px;fill-rule:evenodd"/>
  <path d="m200.3 400.39s29.892.44635 32.346-10.043" style="stroke:#f70;stroke-width:2;fill:none"/>
  <path d="m232.82 390.49-2.8362-3.9236" style="stroke:#000;stroke-width:2;fill:none"/>
  <path d="m232.51 391.11 2.039-5.0366" style="stroke:#000;stroke-width:2;fill:none"/>
  <path d="m232.94 390.64 4.7368-.94505" style="stroke:#000;stroke-width:2;fill:none"/>
  <path d="m190.28 400.39s-29.892.44635-32.346-10.043" style="stroke:#f70;stroke-width:2;fill:none"/>
  <text style="letter-spacing:0px;font-weight:100;font-size:141.9px;word-spacing:0px;font-family:&apos;AR CENA&apos;;line-height:125%;fill:#f5933e" transform="scale(.99976 1.0002)" y="439.49542" x="159.77184" xml:space="preserve"><tspan y="439.49542" x="159.77184">2</tspan></text>
  <text style="letter-spacing:0px;font-weight:100;font-size:141.9px;word-spacing:0px;font-family:&apos;AR CENA&apos;;line-height:125%;fill:#ff7700" transform="scale(.99976 1.0002)" y="439.49542" x="155.67184" xml:space="preserve"><tspan y="439.49542" x="155.67184">2</tspan></text>
  <path d="m158.18 390.27 2.288-3.4493" style="stroke:#000;stroke-width:2;fill:none"/>
  <path d="m158.42 390.9-1.6448-4.522" style="stroke:#000;stroke-width:2;fill:none"/>
  <path d="m158.08 390.41-3.8212-.8308" style="stroke:#000;stroke-width:2;fill:none"/>
  <path d="m207.3 376.96s7.1124 1.8541 9.528-3.1785c0 0-2.6309 3.1309-9.528 3.1785z" style="stroke:#f2f2f2;stroke-width:.5;fill:#f2f2f2;fill-rule:evenodd"/>
  <ellipse style="stroke-linejoin:bevel;color-rendering:auto;fill-rule:evenodd;color:#000000;isolation:auto;mix-blend-mode:normal;shape-rendering:auto;solid-color:#000000;stroke:#f2f2f2;stroke-linecap:square;image-rendering:auto;stroke-width:.5;fill:#f2f2f2" rx="1.9228" ry="2.0234" cy="362.26" cx="208.31"/>
  <ellipse style="stroke-linejoin:bevel;color-rendering:auto;fill-rule:evenodd;color:#000000;isolation:auto;mix-blend-mode:normal;shape-rendering:auto;solid-color:#000000;stroke:#f2f2f2;stroke-linecap:square;image-rendering:auto;stroke-width:.5;fill:#f2f2f2" rx="1.9228" ry="2.0234" cy="362.26" cx="216.51"/>
  <ellipse style="color-rendering:auto;fill-rule:evenodd;color:#000000;isolation:auto;mix-blend-mode:normal;shape-rendering:auto;solid-color:#000000;image-rendering:auto;fill:#1a1a1a" rx=".81586" ry=".87199" cy="360.62" cx="216.52"/>
  <ellipse style="color-rendering:auto;fill-rule:evenodd;color:#000000;isolation:auto;mix-blend-mode:normal;shape-rendering:auto;solid-color:#000000;image-rendering:auto;fill:#1a1a1a" rx=".81586" ry=".87199" cy="363.85" cx="208.35"/>
  <path d="m205.84 359.58s2.0635-1.9529 4.4058-.50223" style="stroke:#000;stroke-width:0.3;fill:none"/>
  <path d="m218.82 357.86s-2.0635-1.9529-4.4058-.50222" style="stroke:#000;stroke-width:0.3;fill:none"/>
 </g>
 <text style="letter-spacing:0px;font-weight:100;font-size:161.9px;word-spacing:0px;font-family:&apos;AR CENA&apos;;line-height:125%;fill:#000000" y="97.405014" x="522.53235" xml:space="preserve"><tspan y="97.405014" x="522.53235">=</tspan></text>
 <g transform="translate(-14.902 -20.766)">
  <g transform="translate(-111.89,-141.95)">
   <path d="m171.5 434.32s-.32264 14.526-2.5811 15.171" style="stroke:#ffa200;stroke-width:1px;fill:#ffa200;fill-rule:evenodd"/>
   <path d="m161.3 449.84s1.2676-1.2174 8.1631-1.5726c0 0 .60843 2.1306-.20286 2.3842-.81125.25364-7.7575 2.0291-8.2645 1.6233-.50702-.40581-.96332-1.8769.30423-2.4349z" style="stroke:#ffa200;stroke-width:1px;fill-rule:evenodd"/>
   <path d="m187.57 434s.32264 14.526 2.5811 15.171" style="stroke:#ffa200;stroke-width:1px;fill:#ffa200;fill-rule:evenodd"/>
   <path d="m197.76 449.51s-1.2676-1.2174-8.1631-1.5726c0 0-.60843 2.1306.20286 2.3842.81125.25364 7.7575 2.0291 8.2645 1.6233.50701-.40581.96332-1.8769-.30423-2.4349z" style="stroke:#ffa200;stroke-width:1px;fill-rule:evenodd"/>
   <path d="m200.3 400.39s29.892.44635 32.346-10.043" style="stroke:#f70;stroke-width:2;fill:none"/>
   <path d="m232.82 390.49-2.8362-3.9236" style="stroke:#000;stroke-width:2;fill:none"/>
   <path d="m232.51 391.11 2.039-5.0366" style="stroke:#000;stroke-width:2;fill:none"/>
   <path d="m232.94 390.64 4.7368-.94505" style="stroke:#000;stroke-width:2;fill:none"/>
   <path d="m190.28 400.39s-29.892.44635-32.346-10.043" style="stroke:#f70;stroke-width:2;fill:none"/>
   <text style="letter-spacing:0px;font-weight:100;font-size:141.9px;word-spacing:0px;font-family:&apos;AR CENA&apos;;line-height:125%;fill:#f5933e" transform="scale(.99976 1.0002)" y="439.49542" x="159.77184" xml:space="preserve"><tspan y="439.49542" x="159.77184">2</tspan></text>
   <text style="letter-spacing:0px;font-weight:100;font-size:141.9px;word-spacing:0px;font-family:&apos;AR CENA&apos;;line-height:125%;fill:#ff7700" transform="scale(.99976 1.0002)" y="439.49542" x="155.67184" xml:space="preserve"><tspan y="439.49542" x="155.67184">2</tspan></text>
   <path d="m158.18 390.27 2.288-3.4493" style="stroke:#000;stroke-width:2;fill:none"/>
   <path d="m158.42 390.9-1.6448-4.522" style="stroke:#000;stroke-width:2;fill:none"/>
   <path d="m158.08 390.41-3.8212-.8308" style="stroke:#000;stroke-width:2;fill:none"/>
   <path d="m207.3 376.96s7.1124 1.8541 9.528-3.1785c0 0-2.6309 3.1309-9.528 3.1785z" style="stroke:#f2f2f2;stroke-width:.5;fill:#f2f2f2;fill-rule:evenodd"/>
   <ellipse style="stroke-linejoin:bevel;color-rendering:auto;fill-rule:evenodd;color:#000000;isolation:auto;mix-blend-mode:normal;shape-rendering:auto;solid-color:#000000;stroke:#f2f2f2;stroke-linecap:square;image-rendering:auto;stroke-width:.5;fill:#f2f2f2" rx="1.9228" ry="2.0234" cy="362.26" cx="208.31"/>
   <ellipse style="stroke-linejoin:bevel;color-rendering:auto;fill-rule:evenodd;color:#000000;isolation:auto;mix-blend-mode:normal;shape-rendering:auto;solid-color:#000000;stroke:#f2f2f2;stroke-linecap:square;image-rendering:auto;stroke-width:.5;fill:#f2f2f2" rx="1.9228" ry="2.0234" cy="362.26" cx="216.51"/>
   <ellipse style="color-rendering:auto;fill-rule:evenodd;color:#000000;isolation:auto;mix-blend-mode:normal;shape-rendering:auto;solid-color:#000000;image-rendering:auto;fill:#1a1a1a" rx=".81586" ry=".87199" cy="360.62" cx="216.52"/>
   <ellipse style="color-rendering:auto;fill-rule:evenodd;color:#000000;isolation:auto;mix-blend-mode:normal;shape-rendering:auto;solid-color:#000000;image-rendering:auto;fill:#1a1a1a" rx=".81586" ry=".87199" cy="363.85" cx="208.35"/>
   <path d="m205.84 359.58s2.0635-1.9529 4.4058-.50223" style="stroke:#000;stroke-width:0.3;fill:none"/>
   <path d="m218.82 357.86s-2.0635-1.9529-4.4058-.50222" style="stroke:#000;stroke-width:0.3;fill:none"/>
  </g>
  <text style="letter-spacing:0px;font-weight:100;font-size:81.086px;word-spacing:0px;font-family:&apos;AR CENA&apos;;line-height:125%;fill:#000000" y="285.36108" x="200.84665" xml:space="preserve"><tspan y="285.36108" x="200.84665">%</tspan></text>
  <g transform="translate(168.11,-141.95)">
   <path d="m171.5 434.32s-.32264 14.526-2.5811 15.171" style="stroke:#ffa200;stroke-width:1px;fill:#ffa200;fill-rule:evenodd"/>
   <path d="m161.3 449.84s1.2676-1.2174 8.1631-1.5726c0 0 .60843 2.1306-.20286 2.3842-.81125.25364-7.7575 2.0291-8.2645 1.6233-.50702-.40581-.96332-1.8769.30423-2.4349z" style="stroke:#ffa200;stroke-width:1px;fill-rule:evenodd"/>
   <path d="m187.57 434s.32264 14.526 2.5811 15.171" style="stroke:#ffa200;stroke-width:1px;fill:#ffa200;fill-rule:evenodd"/>
   <path d="m197.76 449.51s-1.2676-1.2174-8.1631-1.5726c0 0-.60843 2.1306.20286 2.3842.81125.25364 7.7575 2.0291 8.2645 1.6233.50701-.40581.96332-1.8769-.30423-2.4349z" style="stroke:#ffa200;stroke-width:1px;fill-rule:evenodd"/>
   <path d="m200.3 400.39s29.892.44635 32.346-10.043" style="stroke:#f70;stroke-width:2;fill:none"/>
   <path d="m232.82 390.49-2.8362-3.9236" style="stroke:#000;stroke-width:2;fill:none"/>
   <path d="m232.51 391.11 2.039-5.0366" style="stroke:#000;stroke-width:2;fill:none"/>
   <path d="m232.94 390.64 4.7368-.94505" style="stroke:#000;stroke-width:2;fill:none"/>
   <path d="m190.28 400.39s-29.892.44635-32.346-10.043" style="stroke:#f70;stroke-width:2;fill:none"/>
   <text style="letter-spacing:0px;font-weight:100;font-size:141.9px;word-spacing:0px;font-family:&apos;AR CENA&apos;;line-height:125%;fill:#f5933e" transform="scale(.99976 1.0002)" y="439.49542" x="159.77184" xml:space="preserve"><tspan y="439.49542" x="159.77184">2</tspan></text>
   <text style="letter-spacing:0px;font-weight:100;font-size:141.9px;word-spacing:0px;font-family:&apos;AR CENA&apos;;line-height:125%;fill:#ff7700" transform="scale(.99976 1.0002)" y="439.49542" x="155.67184" xml:space="preserve"><tspan y="439.49542" x="155.67184">2</tspan></text>
   <path d="m158.18 390.27 2.288-3.4493" style="stroke:#000;stroke-width:2;fill:none"/>
   <path d="m158.42 390.9-1.6448-4.522" style="stroke:#000;stroke-width:2;fill:none"/>
   <path d="m158.08 390.41-3.8212-.8308" style="stroke:#000;stroke-width:2;fill:none"/>
   <path d="m207.3 376.96s7.1124 1.8541 9.528-3.1785c0 0-2.6309 3.1309-9.528 3.1785z" style="stroke:#f2f2f2;stroke-width:.5;fill:#f2f2f2;fill-rule:evenodd"/>
   <ellipse style="stroke-linejoin:bevel;color-rendering:auto;fill-rule:evenodd;color:#000000;isolation:auto;mix-blend-mode:normal;shape-rendering:auto;solid-color:#000000;stroke:#f2f2f2;stroke-linecap:square;image-rendering:auto;stroke-width:.5;fill:#f2f2f2" rx="1.9228" ry="2.0234" cy="362.26" cx="208.31"/>
   <ellipse style="stroke-linejoin:bevel;color-rendering:auto;fill-rule:evenodd;color:#000000;isolation:auto;mix-blend-mode:normal;shape-rendering:auto;solid-color:#000000;stroke:#f2f2f2;stroke-linecap:square;image-rendering:auto;stroke-width:.5;fill:#f2f2f2" rx="1.9228" ry="2.0234" cy="362.26" cx="216.51"/>
   <ellipse style="color-rendering:auto;fill-rule:evenodd;color:#000000;isolation:auto;mix-blend-mode:normal;shape-rendering:auto;solid-color:#000000;image-rendering:auto;fill:#1a1a1a" rx=".81586" ry=".87199" cy="360.62" cx="216.52"/>
   <ellipse style="color-rendering:auto;fill-rule:evenodd;color:#000000;isolation:auto;mix-blend-mode:normal;shape-rendering:auto;solid-color:#000000;image-rendering:auto;fill:#1a1a1a" rx=".81586" ry=".87199" cy="363.85" cx="208.35"/>
   <path d="m205.84 359.58s2.0635-1.9529 4.4058-.50223" style="stroke:#000;stroke-width:0.3;fill:none"/>
   <path d="m218.82 357.86s-2.0635-1.9529-4.4058-.50222" style="stroke:#000;stroke-width:0.3;fill:none"/>
  </g>
  <text style="letter-spacing:0px;font-weight:100;font-size:161.9px;word-spacing:0px;font-family:&apos;AR CENA&apos;;line-height:125%;fill:#000000" y="295.79803" x="537.43433" xml:space="preserve"><tspan y="295.79803" x="537.43433">=</tspan></text>
 </g>
 <g transform="translate(-14.902 -23.868)">
  <g transform="translate(-386.18,45.171)">
   <text style="letter-spacing:0px;font-weight:100;font-size:141.9px;word-spacing:0px;font-family:&apos;AR CENA&apos;;line-height:125%;fill:#a6d41d" transform="scale(.99976 1.0002)" y="427.23932" x="423.94791" xml:space="preserve"><tspan y="427.23932" x="423.94791">4</tspan></text>
   <path d="m478 370.52s42.566-4.6357 12.723-24.551" style="stroke:#b4e913;stroke-width:2;fill:none"/>
   <text style="letter-spacing:0px;font-weight:100;font-size:141.9px;word-spacing:0px;font-family:&apos;AR CENA&apos;;line-height:125%;fill:#b4e913" transform="scale(.99976 1.0002)" y="427.23932" x="419.21799" xml:space="preserve"><tspan y="427.23932" x="419.21799">4</tspan></text>
   <path d="m490.91 345.32 1.3655-5.2174" style="stroke:#000;stroke-width:2;fill:none"/>
   <path d="m471.52 361.23s6.8758 3.7479 10.001-.18001c0 0-3.2618 1.395-10.001.18001z" style="stroke:#f2f2f2;stroke-width:.5;fill:#f2f2f2;fill-rule:evenodd"/>
   <ellipse style="stroke-linejoin:bevel;color-rendering:auto;fill-rule:evenodd;color:#000000;isolation:auto;mix-blend-mode:normal;shape-rendering:auto;solid-color:#000000;stroke:#f2f2f2;stroke-linecap:square;image-rendering:auto;stroke-width:.5;fill:#f2f2f2" rx="1.9228" ry="2.0234" cy="350.32" cx="471.77"/>
   <path d="m491.2 345.21-3.3858-3.8832" style="stroke:#000;stroke-width:2;fill:none"/>
   <ellipse style="stroke-linejoin:bevel;color-rendering:auto;fill-rule:evenodd;color:#000000;isolation:auto;mix-blend-mode:normal;shape-rendering:auto;solid-color:#000000;stroke:#f2f2f2;stroke-linecap:square;image-rendering:auto;stroke-width:.5;fill:#f2f2f2" rx="1.9228" ry="2.0234" cy="350.32" cx="479.97"/>
   <path d="m490.85 345.52-4.7806.77497" style="stroke:#000;stroke-width:2;fill:none"/>
   <ellipse style="color-rendering:auto;fill-rule:evenodd;color:#000000;isolation:auto;mix-blend-mode:normal;shape-rendering:auto;solid-color:#000000;image-rendering:auto;fill:#1a1a1a" rx=".81586" ry=".87199" cy="350.81" cx="481.32"/>
   <ellipse style="color-rendering:auto;fill-rule:evenodd;color:#000000;isolation:auto;mix-blend-mode:normal;shape-rendering:auto;solid-color:#000000;image-rendering:auto;fill:#1a1a1a" rx=".81586" ry=".87199" cy="351.13" cx="472.92"/>
   <path d="m475.04 345.77s-2.7021 1.9529-5.7693.50222" style="stroke:#000;stroke-width:0.3;fill:none"/>
   <path d="m479.15 344.47s2.7021 1.9529 5.7693.50223" style="stroke:#000;stroke-width:0.3;fill:none"/>
   <path d="m466.82 424.77s-.32265 22.231-2.5811 23.219" style="stroke:#b4e913;stroke-width:1px;fill:#ffa200;fill-rule:evenodd"/>
   <path d="m456.62 448.51s1.2676-1.8633 8.1631-2.4067c0 0 .60842 3.2607-.20287 3.6489-.81124.38818-7.7575 3.1054-8.2645 2.4844-.50702-.62107-.96332-2.8725.30422-3.7265z" style="stroke:#b4e913;stroke-width:1px;fill-rule:evenodd"/>
   <path d="m474.68 424.7s.32264 22.231 2.5811 23.219" style="stroke:#b4e913;stroke-width:1px;fill:#ffa200;fill-rule:evenodd"/>
   <path d="m484.88 448.44s-1.2676-1.8632-8.1631-2.4067c0 0-.60843 3.2607.20286 3.6489.81125.38816 7.7575 3.1054 8.2645 2.4844.50701-.62107.96332-2.8725-.30423-3.7265z" style="stroke:#b4e913;stroke-width:1px;fill-rule:evenodd"/>
   <path d="m443.61 367.61s-55.48 2.9228-16.583 15.479" style="stroke:#b4e913;stroke-width:2;fill:none"/>
   <path d="m426.92 383.45-1.3655 4.6455" style="stroke:#000;stroke-width:2;fill:none"/>
   <path d="m426.06 383.11 3.961 3.8935" style="stroke:#000;stroke-width:2;fill:none"/>
   <path d="m426.98 383.27 4.7806-.69002" style="stroke:#000;stroke-width:2;fill:none"/>
  </g>
  <text style="letter-spacing:0px;font-weight:100;font-size:81.086px;word-spacing:0px;font-family:&apos;AR CENA&apos;;line-height:125%;fill:#000000" y="465.36108" x="200.84665" xml:space="preserve"><tspan y="465.36108" x="200.84665">%</tspan></text>
  <g transform="translate(168.11,38.048)">
   <path d="m171.5 434.32s-.32264 14.526-2.5811 15.171" style="stroke:#ffa200;stroke-width:1px;fill:#ffa200;fill-rule:evenodd"/>
   <path d="m161.3 449.84s1.2676-1.2174 8.1631-1.5726c0 0 .60843 2.1306-.20286 2.3842-.81125.25364-7.7575 2.0291-8.2645 1.6233-.50702-.40581-.96332-1.8769.30423-2.4349z" style="stroke:#ffa200;stroke-width:1px;fill-rule:evenodd"/>
   <path d="m187.57 434s.32264 14.526 2.5811 15.171" style="stroke:#ffa200;stroke-width:1px;fill:#ffa200;fill-rule:evenodd"/>
   <path d="m197.76 449.51s-1.2676-1.2174-8.1631-1.5726c0 0-.60843 2.1306.20286 2.3842.81125.25364 7.7575 2.0291 8.2645 1.6233.50701-.40581.96332-1.8769-.30423-2.4349z" style="stroke:#ffa200;stroke-width:1px;fill-rule:evenodd"/>
   <path d="m200.3 400.39s29.892.44635 32.346-10.043" style="stroke:#f70;stroke-width:2;fill:none"/>
   <path d="m232.82 390.49-2.8362-3.9236" style="stroke:#000;stroke-width:2;fill:none"/>
   <path d="m232.51 391.11 2.039-5.0366" style="stroke:#000;stroke-width:2;fill:none"/>
   <path d="m232.94 390.64 4.7368-.94505" style="stroke:#000;stroke-width:2;fill:none"/>
   <path d="m190.28 400.39s-29.892.44635-32.346-10.043" style="stroke:#f70;stroke-width:2;fill:none"/>
   <text style="letter-spacing:0px;font-weight:100;font-size:141.9px;word-spacing:0px;font-family:&apos;AR CENA&apos;;line-height:125%;fill:#f5933e" transform="scale(.99976 1.0002)" y="439.49542" x="159.77184" xml:space="preserve"><tspan y="439.49542" x="159.77184">2</tspan></text>
   <text style="letter-spacing:0px;font-weight:100;font-size:141.9px;word-spacing:0px;font-family:&apos;AR CENA&apos;;line-height:125%;fill:#ff7700" transform="scale(.99976 1.0002)" y="439.49542" x="155.67184" xml:space="preserve"><tspan y="439.49542" x="155.67184">2</tspan></text>
   <path d="m158.18 390.27 2.288-3.4493" style="stroke:#000;stroke-width:2;fill:none"/>
   <path d="m158.42 390.9-1.6448-4.522" style="stroke:#000;stroke-width:2;fill:none"/>
   <path d="m158.08 390.41-3.8212-.8308" style="stroke:#000;stroke-width:2;fill:none"/>
   <path d="m207.3 376.96s7.1124 1.8541 9.528-3.1785c0 0-2.6309 3.1309-9.528 3.1785z" style="stroke:#f2f2f2;stroke-width:.5;fill:#f2f2f2;fill-rule:evenodd"/>
   <ellipse style="stroke-linejoin:bevel;color-rendering:auto;fill-rule:evenodd;color:#000000;isolation:auto;mix-blend-mode:normal;shape-rendering:auto;solid-color:#000000;stroke:#f2f2f2;stroke-linecap:square;image-rendering:auto;stroke-width:.5;fill:#f2f2f2" rx="1.9228" ry="2.0234" cy="362.26" cx="208.31"/>
   <ellipse style="stroke-linejoin:bevel;color-rendering:auto;fill-rule:evenodd;color:#000000;isolation:auto;mix-blend-mode:normal;shape-rendering:auto;solid-color:#000000;stroke:#f2f2f2;stroke-linecap:square;image-rendering:auto;stroke-width:.5;fill:#f2f2f2" rx="1.9228" ry="2.0234" cy="362.26" cx="216.51"/>
   <ellipse style="color-rendering:auto;fill-rule:evenodd;color:#000000;isolation:auto;mix-blend-mode:normal;shape-rendering:auto;solid-color:#000000;image-rendering:auto;fill:#1a1a1a" rx=".81586" ry=".87199" cy="360.62" cx="216.52"/>
   <ellipse style="color-rendering:auto;fill-rule:evenodd;color:#000000;isolation:auto;mix-blend-mode:normal;shape-rendering:auto;solid-color:#000000;image-rendering:auto;fill:#1a1a1a" rx=".81586" ry=".87199" cy="363.85" cx="208.35"/>
   <path d="m205.84 359.58s2.0635-1.9529 4.4058-.50223" style="stroke:#000;stroke-width:0.3;fill:none"/>
   <path d="m218.82 357.86s-2.0635-1.9529-4.4058-.50222" style="stroke:#000;stroke-width:0.3;fill:none"/>
  </g>
  <text style="letter-spacing:0px;font-weight:100;font-size:161.9px;word-spacing:0px;font-family:&apos;AR CENA&apos;;line-height:125%;fill:#000000" y="475.79803" x="537.43433" xml:space="preserve"><tspan y="475.79803" x="537.43433">=</tspan></text>
 </g>
 <g transform="translate(-389.76 205.58)">
  <path style="stroke:#ff0029;stroke-width:2;fill-opacity:0" d="m426.91 564.94s-28.125-10.139-26.72-20.82"/>
  <path style="stroke:#ff0029;stroke-width:2;fill-opacity:0" d="m450.97 564.35s29.892-.44635 32.346 10.043"/>
  <text style="letter-spacing:0px;font-weight:100;font-size:141.9px;word-spacing:0px;font-family:&apos;AR CENA&apos;;line-height:125%;fill:#e6193a" xml:space="preserve" transform="scale(.99976 1.0002)" y="607.55115" x="412.28296"><tspan y="607.55115" x="412.28296">8</tspan></text>
  <text style="letter-spacing:0px;font-weight:100;font-size:141.9px;word-spacing:0px;font-family:&apos;AR CENA&apos;;line-height:125%;fill:#ff0029" xml:space="preserve" transform="scale(.99976 1.0002)" y="607.55115" x="407.55307"><tspan y="607.55115" x="407.55307">8</tspan></text>
  <path style="stroke:#000;stroke-width:2;fill:none" d="m483.07 574.47-2.288 3.4493"/>
  <ellipse style="stroke-linejoin:bevel;color-rendering:auto;fill-rule:evenodd;color:#000000;isolation:auto;mix-blend-mode:normal;shape-rendering:auto;solid-color:#000000;stroke:#f2f2f2;stroke-linecap:square;image-rendering:auto;stroke-width:.5;fill:#f2f2f2" rx="1.9228" ry="2.0234" cy="528.79" cx="464.77"/>
  <ellipse style="stroke-linejoin:bevel;color-rendering:auto;fill-rule:evenodd;color:#000000;isolation:auto;mix-blend-mode:normal;shape-rendering:auto;solid-color:#000000;stroke:#f2f2f2;stroke-linecap:square;image-rendering:auto;stroke-width:.5;fill:#f2f2f2" rx="1.9228" ry="2.0234" cy="528.65" cx="476"/>
  <ellipse style="color-rendering:auto;fill-rule:evenodd;color:#000000;isolation:auto;mix-blend-mode:normal;shape-rendering:auto;solid-color:#000000;image-rendering:auto;fill:#1a1a1a" rx=".81586" ry=".87199" cy="528.93" cx="475.92"/>
  <ellipse style="color-rendering:auto;fill-rule:evenodd;color:#000000;isolation:auto;mix-blend-mode:normal;shape-rendering:auto;solid-color:#000000;image-rendering:auto;fill:#1a1a1a" rx=".81586" ry=".87199" cy="529" cx="464.69"/>
  <path style="stroke:#000;stroke-width:0.3;fill:none" d="m473.34 525.68s2.7021-4.5493 5.7693-1.17"/>
  <path style="stroke:#000;stroke-width:0.3;fill:none" d="m468.44 526.11s-2.7021-4.0772-5.7693-1.0486"/>
  <path style="stroke:#f2f2f2;stroke-width:.5;fill:#f2f2f2;fill-rule:evenodd" d="m463.52 540.89s8.8544 1.3752 10.868-2.0881c0 0-5.46 2.7604-10.868 2.0881z"/>
  <path style="stroke:#000;stroke-width:2;fill:none" d="m482.82 573.84 1.6448 4.522"/>
  <path style="stroke:#000;stroke-width:2;fill:none" d="m400.45 544.14 3.3577-2.4192"/>
  <path style="stroke:#000;stroke-width:2;fill:none" d="m483.17 574.33 3.8212.8308"/>
  <path style="stroke:#000;stroke-width:2;fill:none" d="m400.45 544.81.0565-4.8118"/>
  <path style="stroke:#000;stroke-width:2;fill:none" d="m400.31 544.23-3.2821-2.1268"/>
  <path style="stroke:#ff3e00;stroke-width:1px;fill:#ffa200;fill-rule:evenodd" d="m432.01 604.97s-.32265 22.231-2.5811 23.219"/>
  <path style="stroke:#ff3e00;stroke-width:1px;fill-rule:evenodd" d="m421.81 628.72s1.2675-1.8632 8.1631-2.4067c0 0 .60843 3.2607-.20287 3.6489-.81124.38819-7.7575 3.1054-8.2645 2.4844-.50702-.62107-.96332-2.8725.30423-3.7265z"/>
  <path style="stroke:#ff3e00;stroke-width:1px;fill:#ffa200;fill-rule:evenodd" d="m449.33 604.9s.32265 22.231 2.5811 23.219"/>
  <path style="stroke:#ff3e00;stroke-width:1px;fill-rule:evenodd" d="m459.53 628.65s-1.2676-1.8633-8.1631-2.4067c0 0-.60843 3.2607.20286 3.6489.81124.38816 7.7575 3.1054 8.2645 2.4844.50702-.62107.96333-2.8725-.30422-3.7265z"/>
 </g>
 <text style="letter-spacing:0px;font-weight:100;font-size:81.086px;word-spacing:0px;font-family:&apos;AR CENA&apos;;line-height:125%;fill:#000000" y="624.51617" x="185.94466" xml:space="preserve"><tspan y="624.51617" x="185.94466">%</tspan></text>
 <g transform="translate(153.21 197.21)">
  <path style="stroke:#ffa200;stroke-width:1px;fill:#ffa200;fill-rule:evenodd" d="m171.5 434.32s-.32264 14.526-2.5811 15.171"/>
  <path style="stroke:#ffa200;stroke-width:1px;fill-rule:evenodd" d="m161.3 449.84s1.2676-1.2174 8.1631-1.5726c0 0 .60843 2.1306-.20286 2.3842-.81125.25364-7.7575 2.0291-8.2645 1.6233-.50702-.40581-.96332-1.8769.30423-2.4349z"/>
  <path style="stroke:#ffa200;stroke-width:1px;fill:#ffa200;fill-rule:evenodd" d="m187.57 434s.32264 14.526 2.5811 15.171"/>
  <path style="stroke:#ffa200;stroke-width:1px;fill-rule:evenodd" d="m197.76 449.51s-1.2676-1.2174-8.1631-1.5726c0 0-.60843 2.1306.20286 2.3842.81125.25364 7.7575 2.0291 8.2645 1.6233.50701-.40581.96332-1.8769-.30423-2.4349z"/>
  <path style="stroke:#f70;stroke-width:2;fill:none" d="m200.3 400.39s29.892.44635 32.346-10.043"/>
  <path style="stroke:#000;stroke-width:2;fill:none" d="m232.82 390.49-2.8362-3.9236"/>
  <path style="stroke:#000;stroke-width:2;fill:none" d="m232.51 391.11 2.039-5.0366"/>
  <path style="stroke:#000;stroke-width:2;fill:none" d="m232.94 390.64 4.7368-.94505"/>
  <path style="stroke:#f70;stroke-width:2;fill:none" d="m190.28 400.39s-29.892.44635-32.346-10.043"/>
  <text style="letter-spacing:0px;font-weight:100;font-size:141.9px;word-spacing:0px;font-family:&apos;AR CENA&apos;;line-height:125%;fill:#f5933e" xml:space="preserve" transform="scale(.99976 1.0002)" y="439.49542" x="159.77184"><tspan y="439.49542" x="159.77184">2</tspan></text>
  <text style="letter-spacing:0px;font-weight:100;font-size:141.9px;word-spacing:0px;font-family:&apos;AR CENA&apos;;line-height:125%;fill:#ff7700" xml:space="preserve" transform="scale(.99976 1.0002)" y="439.49542" x="155.67184"><tspan y="439.49542" x="155.67184">2</tspan></text>
  <path style="stroke:#000;stroke-width:2;fill:none" d="m158.18 390.27 2.288-3.4493"/>
  <path style="stroke:#000;stroke-width:2;fill:none" d="m158.42 390.9-1.6448-4.522"/>
  <path style="stroke:#000;stroke-width:2;fill:none" d="m158.08 390.41-3.8212-.8308"/>
  <path style="stroke:#f2f2f2;stroke-width:.5;fill:#f2f2f2;fill-rule:evenodd" d="m207.3 376.96s7.1124 1.8541 9.528-3.1785c0 0-2.6309 3.1309-9.528 3.1785z"/>
  <ellipse style="stroke-linejoin:bevel;color-rendering:auto;fill-rule:evenodd;color:#000000;isolation:auto;mix-blend-mode:normal;shape-rendering:auto;solid-color:#000000;stroke:#f2f2f2;stroke-linecap:square;image-rendering:auto;stroke-width:.5;fill:#f2f2f2" rx="1.9228" ry="2.0234" cy="362.26" cx="208.31"/>
  <ellipse style="stroke-linejoin:bevel;color-rendering:auto;fill-rule:evenodd;color:#000000;isolation:auto;mix-blend-mode:normal;shape-rendering:auto;solid-color:#000000;stroke:#f2f2f2;stroke-linecap:square;image-rendering:auto;stroke-width:.5;fill:#f2f2f2" rx="1.9228" ry="2.0234" cy="362.26" cx="216.51"/>
  <ellipse style="color-rendering:auto;fill-rule:evenodd;color:#000000;isolation:auto;mix-blend-mode:normal;shape-rendering:auto;solid-color:#000000;image-rendering:auto;fill:#1a1a1a" rx=".81586" ry=".87199" cy="360.62" cx="216.52"/>
  <ellipse style="color-rendering:auto;fill-rule:evenodd;color:#000000;isolation:auto;mix-blend-mode:normal;shape-rendering:auto;solid-color:#000000;image-rendering:auto;fill:#1a1a1a" rx=".81586" ry=".87199" cy="363.85" cx="208.35"/>
  <path style="stroke:#000;stroke-width:0.3;fill:none" d="m205.84 359.58s2.0635-1.9529 4.4058-.50223"/>
  <path style="stroke:#000;stroke-width:0.3;fill:none" d="m218.82 357.86s-2.0635-1.9529-4.4058-.50222"/>
 </g>
 <text style="letter-spacing:0px;font-weight:100;font-size:161.9px;word-spacing:0px;font-family:&apos;AR CENA&apos;;line-height:125%;fill:#000000" y="634.95313" x="522.53235" xml:space="preserve"><tspan y="634.95313" x="522.53235">=</tspan></text>
 <g transform="translate(-55.253 31.475)">
  <text style="font-size:141.9px;fill-opacity:.99685;letter-spacing:0px;word-spacing:0px;font-family:sans-serif;line-height:125%;fill:#36b5e0" xml:space="preserve" transform="scale(.99976 1.0002)" y="601.04938" x="85.328209"><tspan y="601.04938" x="85.328209" style="font-weight:100;fill:#36b5e0;font-family:&apos;AR CENA&apos;;fill-opacity:.99685">6</tspan></text>
  <path style="stroke:#00beff;stroke-width:2;fill:none" d="m98.208 552.3s-55.48 3.9791-16.583 21.074"/>
  <path style="stroke:#00beff;stroke-width:1px;fill:#ffa200;fill-rule:evenodd" d="m113.29 594.6s-.32265 22.231-2.5811 23.219"/>
  <path style="stroke:#00beff;stroke-width:1px;fill-rule:evenodd" d="m103.09 618.34s1.2676-1.8633 8.1631-2.4067c0 0 .60843 3.2607-.20286 3.6489-.81124.38819-7.7575 3.1054-8.2645 2.4844-.50702-.62106-.96332-2.8725.30422-3.7265z"/>
  <path style="stroke:#00beff;stroke-width:1px;fill:#ffa200;fill-rule:evenodd" d="m129.35 597.05s.32265 22.231 2.5811 23.219"/>
  <path style="stroke:#00beff;stroke-width:1px;fill-rule:evenodd" d="m139.55 620.79s-1.2675-1.8633-8.1631-2.4067c0 0-.60843 3.2607.20287 3.6489.81124.38816 7.7575 3.1054 8.2645 2.4844.50702-.62107.96332-2.8725-.30423-3.7265z"/>
  <path style="stroke:#00beff;stroke-width:2;fill:none" d="m140.68 553.95s55.48 3.9791 16.583 21.074"/>
  <text style="font-size:141.9px;letter-spacing:0px;word-spacing:0px;font-family:sans-serif;line-height:125%;fill:#00beff" xml:space="preserve" transform="scale(.99976 1.0002)" y="601.04938" x="80.598289"><tspan y="601.04938" x="80.598289" style="font-weight:100;font-family:&apos;AR CENA&apos;;fill:#00beff">6</tspan></text>
  <ellipse style="stroke-linejoin:bevel;color-rendering:auto;fill-rule:evenodd;color:#000000;isolation:auto;mix-blend-mode:normal;shape-rendering:auto;solid-color:#000000;stroke:#f2f2f2;stroke-linecap:square;image-rendering:auto;stroke-width:.5;fill:#f2f2f2" rx="1.9228" ry="2.0234" cy="519.35" cx="114.64"/>
  <ellipse style="stroke-linejoin:bevel;color-rendering:auto;fill-rule:evenodd;color:#000000;isolation:auto;mix-blend-mode:normal;shape-rendering:auto;solid-color:#000000;stroke:#f2f2f2;stroke-linecap:square;image-rendering:auto;stroke-width:.5;fill:#f2f2f2" rx="1.9228" ry="2.0234" cy="519.07" cx="124.07"/>
  <ellipse style="color-rendering:auto;fill-rule:evenodd;color:#000000;isolation:auto;mix-blend-mode:normal;shape-rendering:auto;solid-color:#000000;image-rendering:auto;fill:#1a1a1a" rx=".81586" ry=".87199" cy="519.35" cx="123.99"/>
  <ellipse style="color-rendering:auto;fill-rule:evenodd;color:#000000;isolation:auto;mix-blend-mode:normal;shape-rendering:auto;solid-color:#000000;image-rendering:auto;fill:#1a1a1a" rx=".81586" ry=".87199" cy="519.56" cx="114.56"/>
  <path style="stroke:#000;stroke-width:0.3;fill:none" d="m121.41 516.16s2.7021-1.9529 5.7693-.50223"/>
  <path style="stroke:#000;stroke-width:0.3;fill:none" d="m118.32 516.73s-2.7021-1.9529-5.7693-.50223"/>
  <path style="stroke:#f2f2f2;stroke-width:.5;fill:#f2f2f2;fill-rule:evenodd" d="m110.29 526.59s7.7257 5.3308 10.141.29815c0 0-5.1962 2.7792-10.141-.29815z"/>
  <path style="stroke:#000;stroke-width:2;fill:none" d="m81.524 573.87-1.3655 6.3245"/>
  <path style="stroke:#000;stroke-width:2;fill:none" d="m80.658 573.4 3.961 5.3008"/>
  <path style="stroke:#000;stroke-width:2;fill:none" d="m81.586 573.62 4.7806-.93942"/>
  <path style="stroke:#000;stroke-width:2;fill:none" d="m157.37 575.53 1.3655 6.3245"/>
  <path style="stroke:#000;stroke-width:2;fill:none" d="m158.23 575.06-3.961 5.3008"/>
  <path style="stroke:#000;stroke-width:2;fill:none" d="m157.3 575.28-4.7806-.93942"/>
 </g>
 <text style="letter-spacing:0px;font-weight:100;font-size:81.086px;word-spacing:0px;font-family:&apos;AR CENA&apos;;line-height:125%;fill:#000000" y="806.96808" x="185.94466" xml:space="preserve"><tspan y="806.96808" x="185.94466">%</tspan></text>
 <g transform="translate(153.21 379.66)">
  <path style="stroke:#ffa200;stroke-width:1px;fill:#ffa200;fill-rule:evenodd" d="m171.5 434.32s-.32264 14.526-2.5811 15.171"/>
  <path style="stroke:#ffa200;stroke-width:1px;fill-rule:evenodd" d="m161.3 449.84s1.2676-1.2174 8.1631-1.5726c0 0 .60843 2.1306-.20286 2.3842-.81125.25364-7.7575 2.0291-8.2645 1.6233-.50702-.40581-.96332-1.8769.30423-2.4349z"/>
  <path style="stroke:#ffa200;stroke-width:1px;fill:#ffa200;fill-rule:evenodd" d="m187.57 434s.32264 14.526 2.5811 15.171"/>
  <path style="stroke:#ffa200;stroke-width:1px;fill-rule:evenodd" d="m197.76 449.51s-1.2676-1.2174-8.1631-1.5726c0 0-.60843 2.1306.20286 2.3842.81125.25364 7.7575 2.0291 8.2645 1.6233.50701-.40581.96332-1.8769-.30423-2.4349z"/>
  <path style="stroke:#f70;stroke-width:2;fill:none" d="m200.3 400.39s29.892.44635 32.346-10.043"/>
  <path style="stroke:#000;stroke-width:2;fill:none" d="m232.82 390.49-2.8362-3.9236"/>
  <path style="stroke:#000;stroke-width:2;fill:none" d="m232.51 391.11 2.039-5.0366"/>
  <path style="stroke:#000;stroke-width:2;fill:none" d="m232.94 390.64 4.7368-.94505"/>
  <path style="stroke:#f70;stroke-width:2;fill:none" d="m190.28 400.39s-29.892.44635-32.346-10.043"/>
  <text style="letter-spacing:0px;font-weight:100;font-size:141.9px;word-spacing:0px;font-family:&apos;AR CENA&apos;;line-height:125%;fill:#f5933e" xml:space="preserve" transform="scale(.99976 1.0002)" y="439.49542" x="159.77184"><tspan y="439.49542" x="159.77184">2</tspan></text>
  <text style="letter-spacing:0px;font-weight:100;font-size:141.9px;word-spacing:0px;font-family:&apos;AR CENA&apos;;line-height:125%;fill:#ff7700" xml:space="preserve" transform="scale(.99976 1.0002)" y="439.49542" x="155.67184"><tspan y="439.49542" x="155.67184">2</tspan></text>
  <path style="stroke:#000;stroke-width:2;fill:none" d="m158.18 390.27 2.288-3.4493"/>
  <path style="stroke:#000;stroke-width:2;fill:none" d="m158.42 390.9-1.6448-4.522"/>
  <path style="stroke:#000;stroke-width:2;fill:none" d="m158.08 390.41-3.8212-.8308"/>
  <path style="stroke:#f2f2f2;stroke-width:.5;fill:#f2f2f2;fill-rule:evenodd" d="m207.3 376.96s7.1124 1.8541 9.528-3.1785c0 0-2.6309 3.1309-9.528 3.1785z"/>
  <ellipse style="stroke-linejoin:bevel;color-rendering:auto;fill-rule:evenodd;color:#000000;isolation:auto;mix-blend-mode:normal;shape-rendering:auto;solid-color:#000000;stroke:#f2f2f2;stroke-linecap:square;image-rendering:auto;stroke-width:.5;fill:#f2f2f2" rx="1.9228" ry="2.0234" cy="362.26" cx="208.31"/>
  <ellipse style="stroke-linejoin:bevel;color-rendering:auto;fill-rule:evenodd;color:#000000;isolation:auto;mix-blend-mode:normal;shape-rendering:auto;solid-color:#000000;stroke:#f2f2f2;stroke-linecap:square;image-rendering:auto;stroke-width:.5;fill:#f2f2f2" rx="1.9228" ry="2.0234" cy="362.26" cx="216.51"/>
  <ellipse style="color-rendering:auto;fill-rule:evenodd;color:#000000;isolation:auto;mix-blend-mode:normal;shape-rendering:auto;solid-color:#000000;image-rendering:auto;fill:#1a1a1a" rx=".81586" ry=".87199" cy="360.62" cx="216.52"/>
  <ellipse style="color-rendering:auto;fill-rule:evenodd;color:#000000;isolation:auto;mix-blend-mode:normal;shape-rendering:auto;solid-color:#000000;image-rendering:auto;fill:#1a1a1a" rx=".81586" ry=".87199" cy="363.85" cx="208.35"/>
  <path style="stroke:#000;stroke-width:0.3;fill:none" d="m205.84 359.58s2.0635-1.9529 4.4058-.50223"/>
  <path style="stroke:#000;stroke-width:0.3;fill:none" d="m218.82 357.86s-2.0635-1.9529-4.4058-.50222"/>
 </g>
 <text style="letter-spacing:0px;font-weight:100;font-size:161.9px;word-spacing:0px;font-family:&apos;AR CENA&apos;;line-height:125%;fill:#000000" y="817.40503" x="522.53235" xml:space="preserve"><tspan y="817.40503" x="522.53235">=</tspan></text>
 <g id="e" transform="translate(338.92 -668.82)">
  <path d="m351.7 761.1s-.32264 22.231-2.5811 23.219" style="stroke:#959191;stroke-width:1px;fill:#ffa200;fill-rule:evenodd"/>
  <path d="m341.5 784.84s1.2676-1.8632 8.1631-2.4067c0 0 .60843 3.2607-.20286 3.6489-.81125.38819-7.7575 3.1054-8.2645 2.4844-.50702-.62107-.96332-2.8725.30423-3.7265z" style="stroke:#959191;stroke-width:1px;fill-rule:evenodd"/>
  <path d="m369.02 761.03s.32264 22.231 2.5811 23.219" style="stroke:#959191;stroke-width:1px;fill:#ffa200;fill-rule:evenodd"/>
  <path d="m390.31 718.42s28.125-10.139 26.72-20.82" style="stroke:#959191;stroke-width:2;fill-opacity:0"/>
  <path d="m416.77 697.62-3.3577-2.4192" style="stroke:#000;stroke-width:2;fill:none"/>
  <path d="m416.77 698.29-.0565-4.8118" style="stroke:#000;stroke-width:2;fill:none"/>
  <path d="m416.91 697.71 3.282-2.1268" style="stroke:#000;stroke-width:2;fill:none"/>
  <text style="letter-spacing:0px;font-weight:100;font-size:141.9px;word-spacing:0px;font-family:&apos;AR CENA&apos;;line-height:125%;fill:#747474" transform="scale(.99976 1.0002)" y="764.76208" x="330.25125" xml:space="preserve"><tspan y="764.76208" x="330.25125">0</tspan></text>
  <path d="m379.22 784.77s-1.2676-1.8633-8.1631-2.4067c0 0-.60843 3.2607.20286 3.6489.81125.38816 7.7575 3.1054 8.2645 2.4844.50702-.62107.96332-2.8725-.30423-3.7265z" style="stroke:#959191;stroke-width:1px;fill-rule:evenodd"/>
  <path d="m333.23 715.96s-28.125-10.139-26.72-20.82" style="stroke:#959191;stroke-width:2;fill-opacity:0"/>
  <path d="m306.76 695.16 3.3577-2.4192" style="stroke:#000;stroke-width:2;fill:none"/>
  <path d="m306.77 695.83.0565-4.8118" style="stroke:#000;stroke-width:2;fill:none"/>
  <path d="m306.63 695.25-3.282-2.1268" style="stroke:#000;stroke-width:2;fill:none"/>
  <text style="letter-spacing:0px;font-weight:100;font-size:147.12px;word-spacing:0px;font-family:&apos;AR CENA&apos;;line-height:125%;fill:#959191" transform="scale(.99976 1.0002)" y="766.49506" x="324.52435" xml:space="preserve"><tspan y="766.49506" x="324.52435">0</tspan></text>
  <ellipse style="stroke-linejoin:bevel;color-rendering:auto;fill-rule:evenodd;color:#000000;isolation:auto;mix-blend-mode:normal;shape-rendering:auto;solid-color:#000000;stroke:#f2f2f2;stroke-linecap:square;image-rendering:auto;stroke-width:.5;fill:#f2f2f2" rx="1.9231" ry="2.0237" cy="682.55" cx="345.13"/>
  <ellipse style="stroke-linejoin:bevel;color-rendering:auto;fill-rule:evenodd;color:#000000;isolation:auto;mix-blend-mode:normal;shape-rendering:auto;solid-color:#000000;stroke:#f2f2f2;stroke-linecap:square;image-rendering:auto;stroke-width:.5;fill:#f2f2f2" rx="1.9231" ry="2.0237" cy="682.26" cx="355.93"/>
  <ellipse style="color-rendering:auto;fill-rule:evenodd;color:#000000;isolation:auto;mix-blend-mode:normal;shape-rendering:auto;solid-color:#000000;image-rendering:auto;fill:#1a1a1a" rx=".81598" ry=".87214" cy="682.54" cx="355.85"/>
  <ellipse style="color-rendering:auto;fill-rule:evenodd;color:#000000;isolation:auto;mix-blend-mode:normal;shape-rendering:auto;solid-color:#000000;image-rendering:auto;fill:#1a1a1a" rx=".81598" ry=".87214" cy="682.75" cx="345.06"/>
  <path d="m353.27 679.36s2.7024-1.9532 5.7701-.5023" style="stroke:#000;stroke-width:0.3;fill:none"/>
  <path d="m348.81 679.89s-2.7025-3.2886-5.7702-.84575" style="stroke:#000;stroke-width:0.3;fill:none"/>
  <path d="m342.53 689.79s7.7268 5.3316 10.143.2982c0 0-3.2446-.34577-10.143-.2982z" style="stroke:#f2f2f2;stroke-width:.2;fill:#f2f2f2;fill-rule:evenodd"/>
 </g>
 <use id="f" xlink:href="#e" transform="translate(0,182)" height="100%" width="100%" y="0" x="0"/>
 <use id="g" xlink:href="#f" transform="translate(0,180)" height="100%" width="100%" y="0" x="0"/>
 <use id="h" xlink:href="#g" transform="translate(0,180)" height="100%" width="100%" y="0" x="0"/>
 <use xlink:href="#h" transform="translate(0,180)" height="100%" width="100%" y="0" x="0"/>
</svg>
