<svg xmlns="http://www.w3.org/2000/svg" height="404.47mm" width="262.72mm" xmlns:xlink="http://www.w3.org/1999/xlink" viewBox="0 0 930.90186 1433.1758"><style>svg{font-family:sans-serif;font-size:25px;fill:#000}.fa{fill:#75d065}.fb{fill:#96dd8a}.pa{stroke:#148800;stroke-width:.99999px;fill:none}.pb{stroke:#96dd8a;stroke-width:1.5;fill:none}</style><defs><marker id="j" refY="0" refX="0" style="overflow:visible" orient="auto"><path style="stroke:#ed6363;stroke-width:1pt;fill:#ed6363;" transform="matrix(-.8 0 0 -.8 -10 0)" d="m0 0 5-5-17.5 5 17.5 5-5-5z"/></marker><pattern id="k" xlink:href="#a" patternTransform="matrix(10,0,0,10,578.71,-309.82)"/><pattern id="t" xlink:href="#a" patternTransform="matrix(9.9999,0,0,9.9999,59.52,-94.35)"/><pattern id="a" width="1.25" patternUnits="userSpaceOnUse" patternTransform="translate(0) scale(10)" height="1"><rect style="fill:#474746" height="2" width="1" y="-.5" x="0"/></pattern><pattern id="v" xlink:href="#a" patternTransform="matrix(9.9999,0,0,9.9999,59.52,-94.35)"/><pattern id="b" width="1.25" patternUnits="userSpaceOnUse" patternTransform="translate(0) scale(10)" height="1"><rect style="fill:#474746" height="2" width="1" y="-.5" x="0"/></pattern><linearGradient id="c" x1="447.01" gradientUnits="userSpaceOnUse" y1="223.69" gradientTransform="matrix(.99999 0 0 .99999 .01 0)" x2="655.89" y2="223.69"><stop style="stop-color:#75d065" offset="0"/></linearGradient><linearGradient id="r" y2="223.69" xlink:href="#c" gradientUnits="userSpaceOnUse" x2="655.89" gradientTransform="matrix(.99999 0 0 .99999 .0099994 -2.3539e-8)" y1="223.69" x1="447.01"/></defs><rect style="fill:#e2e2e2" transform="matrix(.86196 .50698 -.86196 .50698 0 0)" rx="13.592" ry="13.592" height="508.61" width="508.61" y="-243.06" x="285.46"/><rect style="fill:#f2f2f2" transform="matrix(.86196 .50698 -.86196 .50698 0 0)" rx="13.592" ry="13.592" height="508.61" width="508.61" y="-248.98" x="279.54"/><text y="94.81823" x="102.73354"><tspan y="94.81823" x="102.73354">Team 1</tspan></text><text y="536.32935" x="234.69554"><tspan y="536.32935" x="234.69554">Team 2</tspan></text><text y="534.60779" x="653.73352"><tspan y="534.60779" x="653.73352">Team 3</tspan></text><path class="fa" d="m405.29 104.82v39.999l54.409 119.44 148.75-87.487v-39.999l-203.16-31.951z"/><path style="fill:url(#r)" d="m619.68 183.48-81.427 47.892-67.237-.45313v39.999l203.22 32.027a224.5 132.04 0 0 0 5.2616 -23.57l.17773.008.006-1.4414a224.5 132.04 0 0 0 .0195 -4.1874l.19141-41.429-11.504-.0781a224.5 132.04 0 0 0 -48.705 -48.77z"/><path class="fa" d="m389.79 147.17a224.5 132.04 0 0 0 -92.981 32.809 224.5 132.04 0 0 0 -26.518 18.992l-29.29-4.6599-.99999 39.874 1.25.19922a224.5 132.04 0 0 0 -.17773 .29686l203.17 32.02v-39.999l-19.648-3.1309-34.801-76.392z"/><path class="fa" d="m451.42 282.44-95.157 55.968-53.589-8.4784v39.999a224.5 132.04 0 0 0 203.16 31.947l.66999-39.699-20.21-3.2-34.87-76.539z"/><path style="opacity:.25;fill:url(#t)" d="m405.29 104.82v39.999l54.409 119.44 148.75-87.487v-39.999l-203.16-31.951z"/><path class="fb" d="m608.45 136.77a224.5 132.04 0 0 0 -203.16 -31.95l54.41 119.44 148.75-87.487z"/><path style="opacity:.25;fill:url(#v)" d="m619.68 183.48-81.427 47.892-67.237-.45312v39.999l203.22 32.027a224.5 132.04 0 0 0 5.2616 -23.57l.17773.008.006-1.4414a224.5 132.04 0 0 0 .0195 -4.1874l.19141-41.429-11.504-.0781a224.5 132.04 0 0 0 -48.704 -48.77z"/><path class="fa" d="m466.87 240.01v39.999l54.45 119.52a224.5 132.04 0 0 0 92.978 -32.809 224.5 132.04 0 0 0 55.741 -54.694v-39.999l-203.17-32.018z"/><path class="fb" d="m619.68 143.48-148.67 87.44 203.22 32.02a224.5 132.04 0 0 0 -54.56 -119.46z"/><path style="opacity:.25;fill:url(#v)" d="m389.79 147.17a224.5 132.04 0 0 0 -92.981 32.809 224.5 132.04 0 0 0 -26.518 18.992l-29.295-4.6679-.99998 39.874 1.25.19921a224.5 132.04 0 0 0 -.17773 .29687l203.17 32.02v-39.999l-19.648-3.1309-34.801-76.392z"/><path class="fa" d="m231.25 235.45-.0117 35.99.11523.002a224.5 132.04 0 0 0 60.081 91.782l148.06-87.083.63671.0137-.0293-40.37-208.85-.33398z"/><path class="fb" d="m389.79 107.17a224.5 132.04 0 0 0 -92.981 32.809 224.5 132.04 0 0 0 -55.74 54.694l203.17 32.02-54.449-119.52z"/><path class="fb" d="m670.04 272.03-203.17-32.02 54.449 119.52a224.5 132.04 0 0 0 92.977 -32.81 224.5 132.04 0 0 0 55.741 -54.7z"/><path class="fb" d="m451.42 242.44-148.75 87.488a224.5 132.04 0 0 0 203.16 31.949l-54.41-119.44z"/><path style="opacity:.25;fill:url(#v)" d="m608.45 136.77a224.5 132.04 0 0 0 -203.16 -31.95l54.41 119.44 148.75-87.487z"/><path class="fb" d="m440.1 235.79-203.22-32.03a224.5 132.04 0 0 0 54.559 119.47l148.66-87.439z"/><path style="opacity:.25;fill:url(#v)" d="m619.68 143.48-148.67 87.44 203.22 32.02a224.5 132.04 0 0 0 -54.56 -119.46z"/><path style="opacity:.25;fill:url(#v)" d="m389.79 107.17a224.5 132.04 0 0 0 -92.981 32.809 224.5 132.04 0 0 0 -55.74 54.694l203.17 32.02-54.449-119.52z"/><path class="pa" d="m284 267.18v-180h-79.999"/><path class="pa" d="m424 287.18v240h-79.999"/><path class="pa" d="m564 287.18v240h79.999"/><path style="stroke:#148800;stroke-width:.99999px;stroke-opacity:.83922;fill:none" d="m612 876.53h49.999"/><text y="883.51544" x="675.54297"><tspan y="883.51544" x="675.54297">Unallocated Memory</tspan></text><path style="stroke-dasharray:2, 24;stroke:#ed6363;stroke-width:2;marker-end:url(#j);fill:none" d="m452.72 623.51v160"/><rect style="fill:#e2e2e2" transform="matrix(.86196 .50698 -.86196 .50698 0 0)" rx="13.592" ry="13.592" height="508.61" width="508.61" y="658.48" x="1159.1"/><rect style="fill:#f2f2f2" transform="matrix(.86196 .50698 -.86196 .50698 0 0)" rx="13.592" ry="13.592" height="508.61" width="508.61" y="652.56" x="1153.2"/><path class="fa" d="m381.3 1004.8v39.999l54.409 119.44 148.75-87.487v-39.999l-203.16-31.951z"/><path style="fill:url(#r)" d="m595.7 1083.5-81.427 47.892-67.237-.4532v39.999l203.22 32.027a224.5 132.04 0 0 0 5.2616 -23.57l.1777.01.01-1.4414a224.5 132.04 0 0 0 .02 -4.1874l.1914-41.429-11.504-.078a224.5 132.04 0 0 0 -48.704 -48.767z"/><path class="fa" d="m365.8 1047.2a224.5 132.04 0 0 0 -92.981 32.809 224.5 132.04 0 0 0 -26.518 18.992l-29.29-4.6599-1 39.874 1.25.1993a224.5 132.04 0 0 0 -.1777 .2968l203.17 32.02v-39.999l-19.648-3.1309-34.801-76.392z"/><path class="fa" d="m427.4 1182.4-95.157 55.968-53.589-8.4784v39.999a224.5 132.04 0 0 0 203.16 31.947l.67-39.699-20.21-3.2-34.87-76.539z"/><path style="opacity:.25;fill:url(#v)" d="m381.3 1004.8v39.999l54.409 119.44 148.75-87.487v-39.999l-203.16-31.951z"/><path class="fb" d="m584.4 1036.8a224.5 132.04 0 0 0 -203.16 -31.95l54.41 119.44 148.75-87.487z"/><path style="opacity:.25;fill:url(#v)" d="m595.7 1083.5-81.427 47.892-67.237-.4531v39.999l203.22 32.027a224.5 132.04 0 0 0 5.2616 -23.57l.1777.01.01-1.4414a224.5 132.04 0 0 0 .019 -4.1874l.1914-41.429-11.504-.078a224.5 132.04 0 0 0 -48.704 -48.767z"/><path class="fa" d="m442.9 1140v39.999l54.45 119.52a224.5 132.04 0 0 0 92.978 -32.809 224.5 132.04 0 0 0 55.741 -54.694v-39.999l-203.17-32.018z"/><path style="opacity:0.159;fill:url(#k)" d="m442.9 1140v39.999l54.45 119.52a224.5 132.04 0 0 0 92.978 -32.809 224.5 132.04 0 0 0 55.741 -54.694v-39.999l-203.17-32.018z"/><path class="fb" d="m595.7 1043.5-148.67 87.439 203.22 32.02a224.5 132.04 0 0 0 -54.55 -119.4z"/><path style="opacity:.25;fill:url(#v)" d="m365.8 1047.2a224.5 132.04 0 0 0 -92.981 32.809 224.5 132.04 0 0 0 -26.518 18.992l-29.295-4.6679-1 39.874 1.25.1993a224.5 132.04 0 0 0 -.1777 .2968l203.17 32.02v-39.999l-19.648-3.1309-34.801-76.392z"/><path class="fa" d="m207.2 1135.5-.012 35.99h.1152a224.5 132.04 0 0 0 60.081 91.782l148.06-87.083.6368.014-.029-40.37-208.85-.3339z"/><path class="fb" d="m365.8 1007.2a224.5 132.04 0 0 0 -92.981 32.809 224.5 132.04 0 0 0 -55.74 54.694l203.17 32.02-54.449-119.52z"/><path class="fb" d="m646 1172-203.17-32.02 54.449 119.52a224.5 132.04 0 0 0 92.978 -32.809 224.5 132.04 0 0 0 55.74 -54.694z"/><path style="opacity:.25;fill:url(#k)" d="m207.2 1135.5-.012 35.99h.1152a224.5 132.04 0 0 0 60.081 91.782l148.06-87.083.6368.014-.029-40.37-208.85-.3339z"/><path style="opacity:.203;fill:url(#k)" d="m427.4 1182.4-95.157 55.968-53.589-8.4784v39.999a224.5 132.04 0 0 0 203.16 31.947l.67-39.699-20.21-3.2-34.87-76.539z"/><path class="fb" d="m427.4 1142.4-148.75 87.488a224.5 132.04 0 0 0 203.16 31.949l-54.409-119.44z"/><path style="opacity:.25;fill:url(#a)" d="m584.4 1036.8a224.5 132.04 0 0 0 -203.16 -31.95l54.41 119.44 148.75-87.487z"/><path class="fb" d="m416.1 1135.8-203.23-32.03a224.5 132.04 0 0 0 54.559 119.47l148.66-87.439z"/><path style="opacity:.25;fill:url(#v)" d="m595.7 1043.5-148.67 87.439 203.22 32.02a224.5 132.04 0 0 0 -54.55 -119.4z"/><path style="opacity:.25;fill:url(#v)" d="m365.8 1007.2a224.5 132.04 0 0 0 -92.981 32.809 224.5 132.04 0 0 0 -55.74 54.694l203.17 32.02-54.449-119.52z"/><path style="opacity:.25;fill:url(#k)" d="m646 1172-203.17-32.02 54.449 119.52a224.5 132.04 0 0 0 92.978 -32.809 224.5 132.04 0 0 0 55.74 -54.694z"/><path style="opacity:.25;fill:url(#k)" d="m427.4 1142.4-148.75 87.488a224.5 132.04 0 0 0 203.16 31.949l-54.409-119.44z"/><path style="opacity:.25;fill:url(#k)" d="m416.1 1135.8-203.23-32.03a224.5 132.04 0 0 0 54.559 119.47l148.66-87.439z"/><rect style="fill:#82b879" height="35.952" width="55.182" y="860" x="544.36"/><path class="pb" d="m551.95 860.05v35.853"/><path class="pb" d="m571.95 860.05v35.853"/><path class="pb" d="m591.95 860.05v35.853"/><path style="stroke:#148800;stroke-width:.99999px;stroke-opacity:.83922;fill:none" d="m612 18.53h49.999"/><text y="25.513575" x="675.54297"><tspan y="25.513575" x="675.54297">Unallocated Memory</tspan></text><rect style="fill:#82b879" height="35.952" width="55.182" y="1.9993" x="544.36"/><path class="pb" d="m551.95 2.049v35.853"/><path class="pb" d="m571.95 2.049v35.853"/><path class="pb" d="m591.95 2.049v35.853"/></svg>