<svg xmlns="http://www.w3.org/2000/svg" height="89.825mm" width="33.452mm" viewBox="0 0 118.53 318.2782"><g transform="translate(-307.05 -166.54)"><path style="fill:#b9ff7b;fill-opacity:.70196" d="m307.09 484.82 62.94-85.04-17.99-.29z"/><path style="fill:#b2ff6f;fill-opacity:.91483" d="m310.54 478.28 47.5-88.733-9.0273.11092z"/><path style="fill:#b9ff7b;fill-opacity:.70196" d="m425.49 325.55-74.036 73.994 18.658.23507z"/><path style="fill:#b2ff70;fill-opacity:.48235" d="m352.89 398.11 72.597-72.562-28.663.0199z"/><path style="fill:#b8ff7a;fill-opacity:.66275" d="m376.82 325.56 20.009-.0209c-16.271 21.47-31.659 42.821-47.98 64.234z"/><path style="fill:#b9ff7b;fill-opacity:.70199" d="m307.54 166.54 62.1 83.135-17.6-.051z"/><path style="fill:#b2ff70;fill-opacity:.86755" d="m311.64 174.27 46.16 85.774-8.927.14953z"/><path style="fill:#b3ff70;fill-opacity:.66225" d="m425.58 324.57-74.105-75.017 18.122.0953z"/><path style="fill:#b3ff70;fill-opacity:.48344" d="m351.47 249.34 74.036 75.201-29.295-.004z"/><path style="fill:#b9ff7b;fill-opacity:.66225" d="m376.86 324.54 19.361.0174-38.408-64.515-8.8969.0959z"/><path style="fill-opacity:.85098;fill:#b3ff70;fill-rule:evenodd" d="m348.8 389.72 9.2641-.11091 38.899-64.258z"/><path style="fill:#ade3fb;fill-opacity:.36278" d="m308.41 480.52 21.594-49.626-7.8169-.7221z"/><path style="fill:#ade2fb;fill-opacity:.39117" d="m309 477.9 20.279-73.148-6.6817.16638z"/><path style="fill:#ade2fb;fill-opacity:.66246" d="m330.06 430.89-8.6071-.81545c9.5674-16.891 45.325-87.657 54.141-104.47z"/><path style="fill:#ade2fb;fill-opacity:.50980" d="m322.47 429.12 53.184-103.56-24.168-.0392z"/><path style="fill:#ade2fb;fill-opacity:.70978" d="m351.48 325.56-14.012.006-14.831 79.467 6.7291-.27729z"/><path style="fill:#ade3fb;fill-opacity:.36278" d="m308.41 169.92 21.594 49.47-7.8169.71982z"/><path style="fill:#ade2fb;fill-opacity:.39117" d="m309 172.52 20.279 72.918-6.6817-.16585z"/><path style="fill:#ade2fb;fill-opacity:.66246" d="m330.06 219.39-8.6071.81288c9.5674 16.838 45.325 87.381 54.141 104.14z"/><path style="fill:#ade2fb;fill-opacity:.50980" d="m322.47 221.14 53.184 103.23-24.168.039z"/><path style="fill:#ade2fb;fill-opacity:.70978" d="m351.48 324.38-14.012-.006-14.831-79.217 6.7291.27641z"/><path style="fill-opacity:.91968;fill:#fbb8ad;fill-rule:evenodd" d="m307.05 482.21 15.261-81.558-15.097-.058z"/><path style="fill-opacity:.91165;fill:#fbb8ad;fill-rule:evenodd" d="m307.16 400.45 29.371-74.911-29.306-.0677z"/><path style="fill-opacity:.80321;fill:#fbb8ad;fill-rule:evenodd" d="m336.35 325.76-29.149 74.467 15.285.28948z"/><path style="fill-opacity:.91968;fill:#fbb8ad;fill-rule:evenodd" d="m307.05 169.05 15.261 81.423-15.046.41442z"/><path style="fill-opacity:.91165;fill:#fbb8ad;fill-rule:evenodd" d="m307.16 250.49 29.26 73.967-28.838.00018z"/><path style="fill-opacity:.80321;fill:#fbb8ad;fill-rule:evenodd" d="m336.35 325.23-29.149-74.52 15.289-.111z"/></g></svg>