<svg xmlns="http://www.w3.org/2000/svg" height="112.89mm" width="127mm" viewBox="0 0 450 399.99996"><path style="fill:#455A64" d="m7.8777-.0000048828h434.24c4.37 0 7.88 2.8763 7.88 6.4492v387.1c0 3.57-3.51 6.45-7.88 6.45h-434.24c-4.3665 0-7.88-2.88-7.88-6.45v-387.1c0-3.5737 3.5135-6.45 7.8777-6.45z"/><g style="fill:#fff"><path d="m170.58 95.284-1.6406 2.8198-9.2798-5.4602.15381 9.2285h-3.3069l.12817-9.2285-9.2542 5.4858-1.6663-2.8198 9.7668-5.3064-9.7668-5.3064 1.6663-2.8198 9.2798 5.4602-.15381-9.2029h3.3069l-.17944 9.2029 9.3054-5.4346 1.6406 2.8198-9.7412 5.2551 9.7412 5.3064z"/><path d="m204.01 95.284-1.6406 2.8198-9.2798-5.4602.15381 9.2285h-3.3069l.12817-9.2285-9.2542 5.4858-1.6663-2.8198 9.7668-5.3064-9.7668-5.3064 1.6663-2.8198 9.2798 5.4602-.15381-9.2029h3.3069l-.17945 9.2029 9.3054-5.4346 1.6406 2.8198-9.7412 5.2551 9.7412 5.3064z"/><path d="m237.44 95.284-1.6406 2.8198-9.2798-5.4602.15381 9.2285h-3.3069l.12817-9.2285-9.2542 5.4858-1.6663-2.8198 9.7668-5.3064-9.7668-5.3064 1.6663-2.8198 9.2798 5.4602-.1538-9.2029h3.3069l-.17944 9.2029 9.3054-5.4346 1.6406 2.8198-9.7412 5.2551 9.7412 5.3064z"/><path d="m270.87 95.284-1.6406 2.8198-9.2798-5.4602.1538 9.2285h-3.3069l.12817-9.2285-9.2542 5.4858-1.6663-2.8198 9.7668-5.3064-9.7668-5.3064 1.6663-2.8198 9.2798 5.4602-.15381-9.2029h3.3069l-.17944 9.2029 9.3054-5.4346 1.6406 2.8198-9.7412 5.2551 9.7412 5.3064z"/><path d="m304.29 95.284-1.6406 2.8198-9.2798-5.4602.15381 9.2285h-3.3069l.12818-9.2285-9.2542 5.4858-1.6663-2.8198 9.7668-5.3064-9.7668-5.3064 1.6663-2.8198 9.2798 5.4602-.15381-9.2029h3.3069l-.17944 9.2029 9.3054-5.4346 1.6406 2.8198-9.7412 5.2551 9.7412 5.3064z"/><path  d="m170.58 150.28-1.6406 2.8198-9.2798-5.4602.15381 9.2285h-3.3069l.12817-9.2285-9.2542 5.4858-1.6663-2.8198 9.7668-5.3064-9.7668-5.3064 1.6663-2.8198 9.2798 5.4602-.15381-9.2029h3.3069l-.17944 9.2029 9.3054-5.4346 1.6406 2.8198-9.7412 5.2551 9.7412 5.3064z"/><path  d="m170.58 205.28-1.6406 2.8198-9.2798-5.4602.15381 9.2285h-3.3069l.12817-9.2285-9.2542 5.4858-1.6663-2.8198 9.7668-5.3064-9.7668-5.3064 1.6663-2.8198 9.2798 5.4602-.15381-9.2029h3.3069l-.17944 9.2029 9.3054-5.4346 1.6406 2.8198-9.7412 5.2551 9.7412 5.3064z"/><path  d="m170.58 260.28-1.6406 2.8198-9.2798-5.4602.15381 9.2285h-3.3069l.12817-9.2285-9.2542 5.4858-1.6663-2.8198 9.7668-5.3064-9.7668-5.3064 1.6663-2.8198 9.2798 5.4602-.15381-9.2029h3.3069l-.17944 9.2029 9.3054-5.4346 1.6406 2.8198-9.7412 5.2551 9.7412 5.3064z"/><path  d="m170.58 315.28-1.6406 2.8198-9.2798-5.4602.15381 9.2285h-3.3069l.12817-9.2285-9.2542 5.4858-1.6663-2.8198 9.7668-5.3064-9.7668-5.3064 1.6663-2.8198 9.2798 5.4602-.15381-9.2029h3.3069l-.17944 9.2029 9.3054-5.4346 1.6406 2.8198-9.7412 5.2551 9.7412 5.3064z"/><path  d="m204.01 315.28-1.6406 2.8198-9.2798-5.4602.15381 9.2285h-3.3069l.12817-9.2285-9.2542 5.4858-1.6663-2.8198 9.7668-5.3064-9.7668-5.3064 1.6663-2.8198 9.2798 5.4602-.15381-9.2029h3.3069l-.17945 9.2029 9.3054-5.4346 1.6406 2.8198-9.7412 5.2551 9.7412 5.3064z"/><path  d="m237.44 315.28-1.6406 2.8198-9.2798-5.4602.15381 9.2285h-3.3069l.12817-9.2285-9.2542 5.4858-1.6663-2.8198 9.7668-5.3064-9.7668-5.3064 1.6663-2.8198 9.2798 5.4602-.1538-9.2029h3.3069l-.17944 9.2029 9.3054-5.4346 1.6406 2.8198-9.7412 5.2551 9.7412 5.3064z"/><path  d="m270.87 315.28-1.6406 2.8198-9.2798-5.4602.1538 9.2285h-3.3069l.12817-9.2285-9.2542 5.4858-1.6663-2.8198 9.7668-5.3064-9.7668-5.3064 1.6663-2.8198 9.2798 5.4602-.15381-9.2029h3.3069l-.17944 9.2029 9.3054-5.4346 1.6406 2.8198-9.7412 5.2551 9.7412 5.3064z"/><path  d="m304.29 315.28-1.6406 2.8198-9.2798-5.4602.15381 9.2285h-3.3069l.12818-9.2285-9.2542 5.4858-1.6663-2.8198 9.7668-5.3064-9.7668-5.3064 1.6663-2.8198 9.2798 5.4602-.15381-9.2029h3.3069l-.17944 9.2029 9.3054-5.4346 1.6406 2.8198-9.7412 5.2551 9.7412 5.3064z"/><path  d="m304.58 150.28-1.6406 2.8198-9.2798-5.4602.15381 9.2285h-3.3069l.12817-9.2285-9.2542 5.4858-1.6663-2.8198 9.7668-5.3064-9.7668-5.3064 1.6663-2.8198 9.2798 5.4602-.15381-9.2029h3.3069l-.17944 9.2029 9.3054-5.4346 1.6406 2.8198-9.7412 5.2551 9.7412 5.3064z"/><path  d="m304.58 205.28-1.6406 2.8198-9.2798-5.4602.15381 9.2285h-3.3069l.12817-9.2285-9.2542 5.4858-1.6663-2.8198 9.7668-5.3064-9.7668-5.3064 1.6663-2.8198 9.2798 5.4602-.15381-9.2029h3.3069l-.17944 9.2029 9.3054-5.4346 1.6406 2.8198-9.7412 5.2551 9.7412 5.3064z"/><path  d="m304.58 260.28-1.6406 2.8198-9.2798-5.4602.15381 9.2285h-3.3069l.12817-9.2285-9.2542 5.4858-1.6663-2.8198 9.7668-5.3064-9.7668-5.3064 1.6663-2.8198 9.2798 5.4602-.15381-9.2029h3.3069l-.17944 9.2029 9.3054-5.4346 1.6406 2.8198-9.7412 5.2551 9.7412 5.3064z"/></g></svg>