<svg xmlns="http://www.w3.org/2000/svg" height="112.89mm" width="127mm" viewBox="0 0 450 399.99996"><style>.pi{fill:#fff;}</style><path d="m7.88 0h434.24c4.3642 0 7.8777 2.8764 7.8777 6.4492v387.1c0 3.5729-3.5134 6.4492-7.8777 6.4492h-434.24c-4.3642 0-7.8777-2.8763-7.8777-6.4492v-387.1c0-3.5736 3.5135-6.45 7.8777-6.45z" style="fill:#455A64"/><path d="m151.36 86.22 1.5625 2.6855 8.8379-5.2002-.14649 8.7891h3.1494l-.12207-8.7891 8.8135 5.2246 1.5869-2.6856-9.3018-5.0537 9.3018-5.0537-1.5869-2.6856-8.8379 5.2002.14649-8.7646h-3.1494l.1709 8.7646-8.8623-5.1758-1.5625 2.6855 9.2773 5.0049-9.2773 5.0537z" class="pi"/><path class="pi" d="m183.19 144.3 1.5625 2.6856 8.8379-5.2002-.14648 8.7891h3.1494l-.12207-8.7891 8.8135 5.2246 1.5869-2.6856-9.3018-5.0537 9.3018-5.0537-1.5869-2.6856-8.8379 5.2002.14648-8.7646h-3.1494l.1709 8.7646-8.8623-5.1758-1.5625 2.6855 9.2774 5.0049-9.2774 5.0537z"/><path class="pi" d="m151.36 144.3 1.5625 2.6856 8.8379-5.2002-.14649 8.7891h3.1494l-.12207-8.7891 8.8135 5.2246 1.5869-2.6856-9.3018-5.0537 9.3018-5.0537-1.5869-2.6856-8.8379 5.2002.14649-8.7646h-3.1494l.1709 8.7646-8.8623-5.1758-1.5625 2.6855 9.2773 5.0049-9.2773 5.0537z"/><path class="pi" d="m215.03 204.3 1.5625 2.6855 8.8379-5.2002-.14648 8.7891h3.1494l-.12207-8.7891 8.8135 5.2246 1.5869-2.6856-9.3018-5.0537 9.3018-5.0537-1.5869-2.6856-8.8379 5.2002.14648-8.7646h-3.1494l.17089 8.7646-8.8623-5.1758-1.5625 2.6855 9.2773 5.0049-9.2773 5.0537z"/><path class="pi" d="m148.04 204.3 1.5625 2.6855 8.8379-5.2002-.14648 8.7891h3.1494l-.12207-8.7891 8.8135 5.2246 1.5869-2.6856-9.3018-5.0537 9.3018-5.0537-1.5869-2.6856-8.8379 5.2002.14648-8.7646h-3.1494l.1709 8.7646-8.8623-5.1758-1.5625 2.6855 9.2774 5.0049-9.2774 5.0537z"/><path d="m246.87 264.3 1.5625 2.6855 8.8379-5.2002-.14649 8.7891h3.1494l-.12207-8.7891 8.8135 5.2246 1.5869-2.6856-9.3018-5.0537 9.3018-5.0537-1.5869-2.6856-8.8379 5.2002.14649-8.7646h-3.1494l.1709 8.7646-8.8623-5.1758-1.5625 2.6855 9.2773 5.0049-9.2773 5.0537z" class="pi"/><path class="pi" d="m278.7 323.94 1.5625 2.6856 8.8379-5.2002-.14649 8.7891h3.1494l-.12207-8.7891 8.8135 5.2246 1.5869-2.6855-9.3018-5.0537 9.3018-5.0537-1.5869-2.6855-8.8379 5.2002.14649-8.7646h-3.1494l.1709 8.7646-8.8623-5.1758-1.5625 2.6856 9.2773 5.0049-9.2773 5.0537z"/><path class="pi" d="m246.87 323.94 1.5625 2.6856 8.8379-5.2002-.14649 8.7891h3.1494l-.12207-8.7891 8.8135 5.2246 1.5869-2.6855-9.3018-5.0537 9.3018-5.0537-1.5869-2.6855-8.8379 5.2002.14648-8.7646h-3.1494l.1709 8.7646-8.8623-5.1758-1.5625 2.6856 9.2773 5.0049-9.2773 5.0537z"/><path class="pi" d="m215.03 323.94 1.5625 2.6856 8.8379-5.2002-.14648 8.7891h3.1494l-.12207-8.7891 8.8135 5.2246 1.5869-2.6855-9.3018-5.0537 9.3018-5.0537-1.5869-2.6855-8.8379 5.2002.14648-8.7646h-3.1494l.17089 8.7646-8.8623-5.1758-1.5625 2.6856 9.2773 5.0049-9.2773 5.0537z"/><path class="pi" d="m183.19 323.94 1.5625 2.6856 8.8379-5.2002-.14648 8.7891h3.1494l-.12207-8.7891 8.8135 5.2246 1.5869-2.6855-9.3018-5.0537 9.3018-5.0537-1.5869-2.6855-8.8379 5.2002.14648-8.7646h-3.1494l.1709 8.7646-8.8623-5.1758-1.5625 2.6856 9.2774 5.0049-9.2774 5.0537z"/><path class="pi" d="m151.36 323.94 1.5625 2.6856 8.8379-5.2002-.14649 8.7891h3.1494l-.12207-8.7891 8.8135 5.2246 1.5869-2.6855-9.3018-5.0537 9.3018-5.0537-1.5869-2.6855-8.8379 5.2002.14649-8.7646h-3.1494l.1709 8.7646-8.8623-5.1758-1.5625 2.6856 9.2773 5.0049-9.2773 5.0537z"/><path d="m147.61 264.3 1.5625 2.6855 8.8379-5.2002-.14649 8.7891h3.1494l-.12207-8.7891 8.8135 5.2246 1.5869-2.6856-9.3018-5.0537 9.3018-5.0537-1.5869-2.6856-8.8379 5.2002.14649-8.7646h-3.1494l.1709 8.7646-8.8623-5.1758-1.5625 2.6855 9.2773 5.0049-9.2773 5.0537z" class="pi"/></svg>