<svg xmlns="http://www.w3.org/2000/svg" height="112.89mm" width="127mm" viewBox="0 0 450 399.99996"><style>path{fill:#fff}</style><path d="m7.877 0h434.24c4.3642 0 7.8777 2.8764 7.8777 6.4492v387.1c0 3.5729-3.5134 6.4492-7.8777 6.4492h-434.24c-4.3642 0-7.8777-2.8763-7.8777-6.4492v-387.1c-.0030-3.5736 3.5105-6.45 7.8747-6.45z" style="fill:#455A64"/><path d="m236.84 86.16-1.5625 2.6856-8.8379-5.2002.14648 8.7891h-3.1494l.12207-8.7891-8.8135 5.2246-1.5869-2.6855 9.3018-5.0537-9.3018-5.0537 1.5869-2.6855 8.8379 5.2002-.14648-8.7646h3.1494l-.17089 8.7646 8.8623-5.1758 1.5625 2.6856-9.2773 5.0049 9.2773 5.0537z"/><path d="m205.01 144.25-1.5625 2.6856-8.8379-5.2002.14649 8.7891h-3.1494l.12207-8.7891-8.8135 5.2246-1.5869-2.6855 9.3018-5.0537-9.3018-5.0537 1.5869-2.6855 8.8379 5.2002-.14649-8.7646h3.1494l-.1709 8.7646 8.8623-5.1758 1.5625 2.6856-9.2773 5.0049 9.2773 5.0537z"/><path d="m173.17 204.25-1.5625 2.6856-8.8379-5.2002.14648 8.7891h-3.1494l.12207-8.7891-8.8135 5.2246-1.5869-2.6855 9.3018-5.0537-9.3018-5.0537 1.5869-2.6855 8.8379 5.2002-.14648-8.7646h3.1494l-.1709 8.7646 8.8623-5.1758 1.5625 2.6856-9.2773 5.0049 9.2773 5.0537z"/><path d="m141.33 264.25-1.5625 2.6856-8.8379-5.2002.14649 8.7891h-3.1494l.12207-8.7891-8.8135 5.2246-1.5869-2.6855 9.3018-5.0537-9.3018-5.0537 1.5869-2.6855 8.8379 5.2002-.14649-8.7646h3.1494l-.1709 8.7646 8.8623-5.1758 1.5625 2.6856-9.2773 5.0049 9.2773 5.0537z"/><path d="m103.5 323.88-1.5625 2.6855-8.8379-5.2002.14649 8.7891h-3.1494l.12207-8.7891-8.8135 5.2246-1.5869-2.6856 9.3018-5.0537-9.3018-5.0537 1.5869-2.6856 8.8379 5.2002-.14649-8.7646h3.1494l-.1709 8.7646 8.8623-5.1758 1.5625 2.6855-9.2773 5.0049 9.2773 5.0537z"/><path d="m135.33 323.88-1.5625 2.6855-8.8379-5.2002.14649 8.7891h-3.1494l.12207-8.7891-8.8135 5.2246-1.5869-2.6856 9.3018-5.0537-9.3018-5.0537 1.5869-2.6856 8.8379 5.2002-.14649-8.7646h3.1494l-.1709 8.7646 8.8623-5.1758 1.5625 2.6855-9.2773 5.0049 9.2773 5.0537z"/><path d="m167.17 323.88-1.5625 2.6855-8.8379-5.2002.14648 8.7891h-3.1494l.12207-8.7891-8.8135 5.2246-1.5869-2.6856 9.3018-5.0537-9.3018-5.0537 1.5869-2.6856 8.8379 5.2002-.14648-8.7646h3.1494l-.1709 8.7646 8.8623-5.1758 1.5625 2.6855-9.2773 5.0049 9.2773 5.0537z"/><path d="m199.01 323.88-1.5625 2.6855-8.8379-5.2002.14648 8.7891h-3.1494l.12207-8.7891-8.8135 5.2246-1.5869-2.6856 9.3018-5.0537-9.3018-5.0537 1.5869-2.6856 8.8379 5.2002-.14648-8.7646h3.1494l-.1709 8.7646 8.8623-5.1758 1.5625 2.6855-9.2774 5.0049 9.2774 5.0537z"/><path d="m230.84 323.88-1.5625 2.6855-8.8379-5.2002.14649 8.7891h-3.1494l.12207-8.7891-8.8135 5.2246-1.5869-2.6856 9.3018-5.0537-9.3018-5.0537 1.5869-2.6856 8.8379 5.2002-.14649-8.7646h3.1494l-.1709 8.7646 8.8623-5.1758 1.5625 2.6855-9.2773 5.0049 9.2773 5.0537z"/><path d="m262.68 323.88-1.5625 2.6855-8.8379-5.2002.14649 8.7891h-3.1494l.12207-8.7891-8.8135 5.2246-1.5869-2.6856 9.3018-5.0537-9.3018-5.0537 1.5869-2.6856 8.8379 5.2002-.14649-8.7646h3.1494l-.1709 8.7646 8.8623-5.1758 1.5625 2.6855-9.2773 5.0049 9.2773 5.0537z"/><path d="m294.51 323.88-1.5625 2.6855-8.8379-5.2002.14648 8.7891h-3.1494l.12207-8.7891-8.8135 5.2246-1.5869-2.6856 9.3018-5.0537-9.3018-5.0537 1.5869-2.6856 8.8379 5.2002-.14648-8.7646h3.1494l-.1709 8.7646 8.8623-5.1758 1.5625 2.6855-9.2773 5.0049 9.2773 5.0537z"/><path d="m326.35 323.88-1.5625 2.6855-8.8379-5.2002.14648 8.7891h-3.1494l.12207-8.7891-8.8135 5.2246-1.5869-2.6856 9.3018-5.0537-9.3018-5.0537 1.5869-2.6856 8.8379 5.2002-.14648-8.7646h3.1494l-.1709 8.7646 8.8623-5.1758 1.5625 2.6855-9.2774 5.0049 9.2774 5.0537z"/><path d="m358.19 323.88-1.5625 2.6855-8.8379-5.2002.14649 8.7891h-3.1494l.12207-8.7891-8.8135 5.2246-1.5869-2.6856 9.3018-5.0537-9.3018-5.0537 1.5869-2.6856 8.8379 5.2002-.14649-8.7646h3.1494l-.1709 8.7646 8.8623-5.1758 1.5625 2.6855-9.2773 5.0049 9.2773 5.0537z"/><path d="m245.65 144.25 1.5625 2.6856 8.8379-5.2002-.14649 8.7891h3.1494l-.12207-8.7891 8.8135 5.2246 1.5869-2.6855-9.3018-5.0537 9.3018-5.0537-1.5869-2.6855-8.8379 5.2002.14649-8.7646h-3.1494l.1709 8.7646-8.8623-5.1758-1.5625 2.6856 9.2773 5.0049-9.2773 5.0537z"/><path d="m277.49 204.25 1.5625 2.6856 8.8379-5.2002-.14648 8.7891h3.1494l-.12207-8.7891 8.8135 5.2246 1.5869-2.6855-9.3018-5.0537 9.3018-5.0537-1.5869-2.6855-8.8379 5.2002.14648-8.7646h-3.1494l.1709 8.7646-8.8623-5.1758-1.5625 2.6856 9.2774 5.0049-9.2774 5.0537z"/><path d="m309.32 264.25 1.5625 2.6856 8.8379-5.2002-.14648 8.7891h3.1494l-.12207-8.7891 8.8135 5.2246 1.5869-2.6855-9.3018-5.0537 9.3018-5.0537-1.5869-2.6855-8.8379 5.2002.14648-8.7646h-3.1494l.1709 8.7646-8.8623-5.1758-1.5625 2.6856 9.2774 5.0049-9.2774 5.0537z"/></svg>