<svg xmlns="http://www.w3.org/2000/svg" height="112.89mm" width="127mm" viewBox="0 0 450 399.99999"><path style="fill:#455A64" d="m7.8777-.000010986h434.24c4.37 0 7.88 2.8763 7.88 6.4492v387.1c0 3.5729-3.5135 6.4492-7.8777 6.4492h-434.24c-4.3642 0-7.8777-2.8763-7.8777-6.4492v-387.1c-.0023049-3.5737 3.5111-6.45 7.8754-6.45z"/><g style="fill:#fff"><path d="m237.57 95.284-1.6406 2.8198-9.2798-5.4602.15381 9.2285h-3.3069l.12818-9.2285-9.2542 5.4858-1.6663-2.8198 9.7668-5.3064-9.7668-5.3064 1.6663-2.8198 9.2798 5.4602-.15381-9.2029h3.3069l-.17945 9.2029 9.3054-5.4346 1.6406 2.8198-9.7412 5.2551 9.7412 5.3064z"/><path d="m271 95.284-1.6406 2.8198-9.2798-5.4602.15381 9.2285h-3.3069l.12817-9.2285-9.2542 5.4858-1.6663-2.8198 9.7668-5.3064-9.7668-5.3064 1.6663-2.8198 9.2798 5.4602-.15381-9.2029h3.3069l-.17944 9.2029 9.3054-5.4346 1.6406 2.8198-9.7412 5.2551 9.7412 5.3064z"/><path d="m304.43 95.284-1.6406 2.8198-9.2798-5.4602.15381 9.2285h-3.3069l.12817-9.2285-9.2542 5.4858-1.6663-2.8198 9.7668-5.3064-9.7668-5.3064 1.6663-2.8198 9.2798 5.4602-.15381-9.2029h3.3069l-.17945 9.2029 9.3054-5.4346 1.6406 2.8198-9.7412 5.2551 9.7412 5.3064z"/><path d="m337.86 95.284-1.6406 2.8198-9.2798-5.4602.15381 9.2285h-3.3069l.12817-9.2285-9.2542 5.4858-1.6663-2.8198 9.7668-5.3064-9.7668-5.3064 1.6663-2.8198 9.2798 5.4602-.1538-9.2029h3.3069l-.17944 9.2029 9.3054-5.4346 1.6406 2.8198-9.7412 5.2551 9.7412 5.3064z"/><path d="m371.28 95.284-1.6406 2.8198-9.2798-5.4602.1538 9.2285h-3.3069l.12817-9.2285-9.2542 5.4858-1.6663-2.8198 9.7668-5.3064-9.7668-5.3064 1.6663-2.8198 9.2798 5.4602-.15381-9.2029h3.3069l-.17944 9.2029 9.3054-5.4346 1.6406 2.8198-9.7412 5.2551 9.7412 5.3064z"/><path  d="m203.57 150.28-1.6406 2.8198-9.2798-5.4602.15381 9.2285h-3.3069l.12818-9.2285-9.2542 5.4858-1.6663-2.8198 9.7668-5.3064-9.7668-5.3064 1.6663-2.8198 9.2798 5.4602-.15381-9.2029h3.3069l-.17945 9.2029 9.3054-5.4346 1.6406 2.8198-9.7412 5.2551 9.7412 5.3064z"/><path  d="m169.57 205.28-1.6406 2.8198-9.2798-5.4602.15381 9.2285h-3.3069l.12818-9.2285-9.2542 5.4858-1.6663-2.8198 9.7668-5.3064-9.7668-5.3064 1.6663-2.8198 9.2798 5.4602-.15381-9.2029h3.3069l-.17945 9.2029 9.3054-5.4346 1.6406 2.8198-9.7412 5.2551 9.7412 5.3064z"/><path  d="m135.57 260.28-1.6406 2.8198-9.2798-5.4602.15381 9.2285h-3.3069l.12818-9.2285-9.2542 5.4858-1.6663-2.8198 9.7668-5.3064-9.7668-5.3064 1.6663-2.8198 9.2798 5.4602-.15381-9.2029h3.3069l-.17944 9.2029 9.3054-5.4346 1.6406 2.8198-9.7412 5.2551 9.7412 5.3064z"/><path  d="m103.57 315.28-1.6406 2.8198-9.2798-5.4602.15381 9.2285h-3.3069l.12817-9.2285-9.2542 5.4858-1.6663-2.8198 9.7668-5.3064-9.7668-5.3064 1.6663-2.8198 9.2798 5.4602-.15381-9.2029h3.3069l-.17944 9.2029 9.3054-5.4346 1.6406 2.8198-9.7412 5.2551 9.7412 5.3064z"/><path  d="m137 315.28-1.6406 2.8198-9.2798-5.4602.1538 9.2285h-3.3069l.12817-9.2285-9.2542 5.4858-1.6663-2.8198 9.7668-5.3064-9.7668-5.3064 1.6663-2.8198 9.2798 5.4602-.15381-9.2029h3.3069l-.17944 9.2029 9.3054-5.4346 1.6406 2.8198-9.7412 5.2551 9.7412 5.3064z"/><path  d="m170.43 315.28-1.6406 2.8198-9.2798-5.4602.15381 9.2285h-3.3069l.12818-9.2285-9.2542 5.4858-1.6663-2.8198 9.7668-5.3064-9.7668-5.3064 1.6663-2.8198 9.2798 5.4602-.15381-9.2029h3.3069l-.17945 9.2029 9.3054-5.4346 1.6406 2.8198-9.7412 5.2551 9.7412 5.3064z"/><path  d="m203.86 315.28-1.6406 2.8198-9.2798-5.4602.15381 9.2285h-3.3069l.12817-9.2285-9.2542 5.4858-1.6663-2.8198 9.7668-5.3064-9.7668-5.3064 1.6663-2.8198 9.2798 5.4602-.15381-9.2029h3.3069l-.17944 9.2029 9.3054-5.4346 1.6406 2.8198-9.7412 5.2551 9.7412 5.3064z"/><path  d="m237.28 315.28-1.6406 2.8198-9.2798-5.4602.15381 9.2285h-3.3069l.12818-9.2285-9.2542 5.4858-1.6663-2.8198 9.7668-5.3064-9.7668-5.3064 1.6663-2.8198 9.2798 5.4602-.15381-9.2029h3.3069l-.17945 9.2029 9.3054-5.4346 1.6406 2.8198-9.7412 5.2551 9.7412 5.3064z"/><path  d="m337.57 150.28-1.6406 2.8198-9.2798-5.4602.15381 9.2285h-3.3069l.12818-9.2285-9.2542 5.4858-1.6663-2.8198 9.7668-5.3064-9.7668-5.3064 1.6663-2.8198 9.2798 5.4602-.15381-9.2029h3.3069l-.17945 9.2029 9.3054-5.4346 1.6406 2.8198-9.7412 5.2551 9.7412 5.3064z"/><path  d="m303.57 205.28-1.6406 2.8198-9.2798-5.4602.15381 9.2285h-3.3069l.12818-9.2285-9.2542 5.4858-1.6663-2.8198 9.7668-5.3064-9.7668-5.3064 1.6663-2.8198 9.2798 5.4602-.15381-9.2029h3.3069l-.17945 9.2029 9.3054-5.4346 1.6406 2.8198-9.7412 5.2551 9.7412 5.3064z"/><path  d="m269.57 260.28-1.6406 2.8198-9.2798-5.4602.15381 9.2285h-3.3069l.12818-9.2285-9.2542 5.4858-1.6663-2.8198 9.7668-5.3064-9.7668-5.3064 1.6663-2.8198 9.2798 5.4602-.15381-9.2029h3.3069l-.17945 9.2029 9.3054-5.4346 1.6406 2.8198-9.7412 5.2551 9.7412 5.3064z"/></g></svg>