<svg xmlns="http://www.w3.org/2000/svg" height="112.89mm" width="127mm" viewBox="0 0 449.99998 399.99993"><g transform="translate(73.571 -289.51)"><path style="fill:#455A64" d="m-65.694 289.51h434.24c4.3642 0 7.8777 2.8763 7.8777 6.4492v387.1c0 3.5728-3.5134 6.4492-7.8777 6.4492h-434.24c-4.3642 0-7.8777-2.8764-7.8777-6.4492v-387.1c0-3.5729 3.5135-6.4492 7.8777-6.4492z"/><g style="fill:#fff" transform="scale(-1)"><path  d="m-139.59-603.34-1.5625 2.6856-8.8379-5.2002.14648 8.7891h-3.1494l.12207-8.7891-8.8135 5.2246-1.5869-2.6855 9.3018-5.0537-9.3018-5.0537 1.5869-2.6856 8.8379 5.2002-.14648-8.7646h3.1494l-.1709 8.7646 8.8623-5.1758 1.5625 2.6856-9.2774 5.0049 9.2774 5.0537z"/><path  d="m-171.42-545.25-1.5625 2.6856-8.8379-5.2002.14648 8.7891h-3.1494l.12207-8.7891-8.8135 5.2246-1.5869-2.6856 9.3018-5.0537-9.3018-5.0537 1.5869-2.6856 8.8379 5.2002-.14648-8.7646h3.1494l-.1709 8.7646 8.8623-5.1758 1.5625 2.6856-9.2773 5.0049 9.2773 5.0537z"/><path  d="m-139.59-545.25-1.5625 2.6856-8.8379-5.2002.14648 8.7891h-3.1494l.12207-8.7891-8.8135 5.2246-1.5869-2.6856 9.3018-5.0537-9.3018-5.0537 1.5869-2.6856 8.8379 5.2002-.14648-8.7646h3.1494l-.1709 8.7646 8.8623-5.1758 1.5625 2.6856-9.2774 5.0049 9.2774 5.0537z"/><path  d="m-107.75-545.25-1.5625 2.6856-8.8379-5.2002.14649 8.7891h-3.1494l.12207-8.7891-8.8135 5.2246-1.5869-2.6856 9.3018-5.0537-9.3018-5.0537 1.5869-2.6856 8.8379 5.2002-.14649-8.7646h3.1494l-.1709 8.7646 8.8623-5.1758 1.5625 2.6856-9.2773 5.0049 9.2773 5.0537z"/><path  d="m-203.26-485.25-1.5625 2.6856-8.8379-5.2002.14649 8.7891h-3.1494l.12207-8.7891-8.8135 5.2246-1.5869-2.6856 9.3018-5.0537-9.3018-5.0537 1.5869-2.6856 8.8379 5.2002-.14649-8.7646h3.1494l-.1709 8.7646 8.8623-5.1758 1.5625 2.6856-9.2773 5.0049 9.2773 5.0537z"/><path  d="m-171.42-485.25-1.5625 2.6856-8.8379-5.2002.14648 8.7891h-3.1494l.12207-8.7891-8.8135 5.2246-1.5869-2.6856 9.3018-5.0537-9.3018-5.0537 1.5869-2.6856 8.8379 5.2002-.14648-8.7646h3.1494l-.1709 8.7646 8.8623-5.1758 1.5625 2.6856-9.2773 5.0049 9.2773 5.0537z"/><path  d="m-139.59-485.25-1.5625 2.6856-8.8379-5.2002.14648 8.7891h-3.1494l.12207-8.7891-8.8135 5.2246-1.5869-2.6856 9.3018-5.0537-9.3018-5.0537 1.5869-2.6856 8.8379 5.2002-.14648-8.7646h3.1494l-.1709 8.7646 8.8623-5.1758 1.5625 2.6856-9.2774 5.0049 9.2774 5.0537z"/><path  d="m-107.75-485.25-1.5625 2.6856-8.8379-5.2002.14649 8.7891h-3.1494l.12207-8.7891-8.8135 5.2246-1.5869-2.6856 9.3018-5.0537-9.3018-5.0537 1.5869-2.6856 8.8379 5.2002-.14649-8.7646h3.1494l-.1709 8.7646 8.8623-5.1758 1.5625 2.6856-9.2773 5.0049 9.2773 5.0537z"/><path  d="m-75.916-485.25-1.5625 2.6856-8.8379-5.2002.14648 8.7891h-3.1494l.12207-8.7891-8.8135 5.2246-1.5869-2.6856 9.3018-5.0537-9.3018-5.0537 1.5869-2.6856 8.8379 5.2002-.14648-8.7646h3.1494l-.17090 8.7646 8.8623-5.1758 1.5625 2.6856-9.2773 5.0049 9.2773 5.0537z"/><path  d="m-219.18-425.25-1.5625 2.6856-8.8379-5.2002.14649 8.7891h-3.1494l.12207-8.7891-8.8135 5.2246-1.5869-2.6855 9.3018-5.0537-9.3018-5.0537 1.5869-2.6856 8.8379 5.2002-.14649-8.7646h3.1494l-.1709 8.7646 8.8623-5.1758 1.5625 2.6856-9.2773 5.0049 9.2773 5.0537z"/><path  d="m-187.34-425.25-1.5625 2.6856-8.8379-5.2002.14648 8.7891h-3.1494l.12207-8.7891-8.8135 5.2246-1.5869-2.6855 9.3018-5.0537-9.3018-5.0537 1.5869-2.6856 8.8379 5.2002-.14648-8.7646h3.1494l-.17089 8.7646 8.8623-5.1758 1.5625 2.6856-9.2773 5.0049 9.2773 5.0537z"/><path  d="m-155.51-425.25-1.5625 2.6856-8.8379-5.2002.14648 8.7891h-3.1494l.12207-8.7891-8.8135 5.2246-1.5869-2.6855 9.3018-5.0537-9.3018-5.0537 1.5869-2.6856 8.8379 5.2002-.14648-8.7646h3.1494l-.1709 8.7646 8.8623-5.1758 1.5625 2.6856-9.2774 5.0049 9.2774 5.0537z"/><path  d="m-123.67-425.25-1.5625 2.6856-8.8379-5.2002.14649 8.7891h-3.1494l.12207-8.7891-8.8135 5.2246-1.5869-2.6855 9.3018-5.0537-9.3018-5.0537 1.5869-2.6856 8.8379 5.2002-.14648-8.7646h3.1494l-.1709 8.7646 8.8623-5.1758 1.5625 2.6856-9.2774 5.0049 9.2774 5.0537z"/><path  d="m-91.834-425.25-1.5625 2.6856-8.8379-5.2002.14649 8.7891h-3.1494l.12207-8.7891-8.8135 5.2246-1.5869-2.6855 9.3018-5.0537-9.3018-5.0537 1.5869-2.6856 8.8379 5.2002-.14649-8.7646h3.1494l-.1709 8.7646 8.8623-5.1758 1.5625 2.6856-9.2773 5.0049 9.2773 5.0537z"/><path  d="m-59.998-425.25-1.5625 2.6856-8.8379-5.2002.14648 8.7891h-3.1494l.12207-8.7891-8.8135 5.2246-1.5869-2.6855 9.3018-5.0537-9.3018-5.0537 1.5869-2.6856 8.8379 5.2002-.14648-8.7646h3.1494l-.17090 8.7646 8.8623-5.1758 1.5625 2.6856-9.2773 5.0049 9.2773 5.0537z"/><path  d="m-266.93-365.62-1.5625 2.6856-8.8379-5.2002.14649 8.7891h-3.1494l.12207-8.7891-8.8135 5.2246-1.5869-2.6856 9.3018-5.0537-9.3018-5.0537 1.5869-2.6856 8.8379 5.2002-.14649-8.7646h3.1494l-.1709 8.7646 8.8623-5.1758 1.5625 2.6856-9.2773 5.0049 9.2773 5.0537z"/><path  d="m-235.1-365.62-1.5625 2.6856-8.8379-5.2002.14648 8.7891h-3.1494l.12207-8.7891-8.8135 5.2246-1.5869-2.6856 9.3018-5.0537-9.3018-5.0537 1.5869-2.6856 8.8379 5.2002-.14648-8.7646h3.1494l-.1709 8.7646 8.8623-5.1758 1.5625 2.6856-9.2773 5.0049 9.2773 5.0537z"/><path  d="m-203.26-365.62-1.5625 2.6856-8.8379-5.2002.14648 8.7891h-3.1494l.12207-8.7891-8.8135 5.2246-1.5869-2.6856 9.3018-5.0537-9.3018-5.0537 1.5869-2.6856 8.8379 5.2002-.14648-8.7646h3.1494l-.1709 8.7646 8.8623-5.1758 1.5625 2.6856-9.2774 5.0049 9.2774 5.0537z"/><path  d="m-171.42-365.62-1.5625 2.6856-8.8379-5.2002.14649 8.7891h-3.1494l.12207-8.7891-8.8135 5.2246-1.5869-2.6856 9.3018-5.0537-9.3018-5.0537 1.5869-2.6856 8.8379 5.2002-.14649-8.7646h3.1494l-.1709 8.7646 8.8623-5.1758 1.5625 2.6856-9.2773 5.0049 9.2773 5.0537z"/><path  d="m-139.59-365.62-1.5625 2.6856-8.8379-5.2002.14649 8.7891h-3.1494l.12207-8.7891-8.8135 5.2246-1.5869-2.6856 9.3018-5.0537-9.3018-5.0537 1.5869-2.6856 8.8379 5.2002-.14649-8.7646h3.1494l-.1709 8.7646 8.8623-5.1758 1.5625 2.6856-9.2773 5.0049 9.2773 5.0537z"/><path  d="m-107.75-365.62-1.5625 2.6856-8.8379-5.2002.14648 8.7891h-3.1494l.12207-8.7891-8.8135 5.2246-1.5869-2.6856 9.3018-5.0537-9.3018-5.0537 1.5869-2.6856 8.8379 5.2002-.14648-8.7646h3.1494l-.1709 8.7646 8.8623-5.1758 1.5625 2.6856-9.2773 5.0049 9.2773 5.0537z"/><path  d="m-75.916-365.62-1.5625 2.6856-8.8379-5.2002.14648 8.7891h-3.1494l.12207-8.7891-8.8135 5.2246-1.5869-2.6856 9.3018-5.0537-9.3018-5.0537 1.5869-2.6856 8.8379 5.2002-.14648-8.7646h3.1494l-.17090 8.7646 8.8623-5.1758 1.5625 2.6856-9.2773 5.0049 9.2773 5.0537z"/><path  d="m-44.08-365.62-1.5625 2.6856-8.8379-5.2002.14648 8.7891h-3.1494l.12207-8.7891-8.8135 5.2246-1.5869-2.6856 9.3018-5.0537-9.3018-5.0537 1.5869-2.6856 8.8379 5.2002-.14648-8.7646h3.1494l-.17090 8.7646 8.8623-5.1758 1.5625 2.6856-9.2773 5.0049 9.2773 5.0537z"/><path  d="m-12.244-365.62-1.5625 2.6856-8.8379-5.2002.14648 8.7891h-3.1494l.12207-8.7891-8.8135 5.2246-1.5869-2.6856 9.3018-5.0537-9.3018-5.0537 1.5869-2.6856 8.8379 5.2002-.14648-8.7646h3.1494l-.17090 8.7646 8.8623-5.1758 1.5625 2.6856-9.2773 5.0049 9.2773 5.0537z"/></g></g></svg>