<svg xmlns="http://www.w3.org/2000/svg" height="112.89mm" width="127mm" viewBox="0 0 450 399.99996"><path style="fill:#455A64" d="m7.8777-.0000073242h434.24c4.3642 0 7.8777 2.8763 7.8777 6.4492v387.1c0 3.5729-3.5134 6.4492-7.8777 6.4492h-434.24c-4.3642 0-7.8777-2.8763-7.8777-6.4492v-387.1c-.0023067-3.5737 3.5111-6.45 7.8754-6.45z"/><g style="fill:#fff" transform="scale(-1)"><path  d="m-149.48-313.82-1.5625 2.6855-8.8379-5.2002.14649 8.7891h-3.1494l.12207-8.7891-8.8135 5.2246-1.5869-2.6856 9.3018-5.0537-9.3018-5.0537 1.5869-2.6856 8.8379 5.2002-.14649-8.7646h3.1494l-.1709 8.7646 8.8623-5.1758 1.5625 2.6855-9.2773 5.0049 9.2773 5.0537z"/><path  d="m-181.32-255.74-1.5625 2.6855-8.8379-5.2002.14648 8.7891h-3.1494l.12207-8.7891-8.8135 5.2246-1.5869-2.6856 9.3018-5.0537-9.3018-5.0537 1.5869-2.6856 8.8379 5.2002-.14648-8.7646h3.1494l-.1709 8.7646 8.8623-5.1758 1.5625 2.6855-9.2774 5.0049 9.2774 5.0537z"/><path  d="m-149.48-255.74-1.5625 2.6855-8.8379-5.2002.14649 8.7891h-3.1494l.12207-8.7891-8.8135 5.2246-1.5869-2.6856 9.3018-5.0537-9.3018-5.0537 1.5869-2.6856 8.8379 5.2002-.14649-8.7646h3.1494l-.1709 8.7646 8.8623-5.1758 1.5625 2.6855-9.2773 5.0049 9.2773 5.0537z"/><path  d="m-213.15-195.74-1.5625 2.6855-8.8379-5.2002.14648 8.7891h-3.1494l.12207-8.7891-8.8135 5.2246-1.5869-2.6856 9.3018-5.0537-9.3018-5.0537 1.5869-2.6856 8.8379 5.2002-.14648-8.7646h3.1494l-.1709 8.7646 8.8623-5.1758 1.5625 2.6855-9.2773 5.0049 9.2773 5.0537z"/><path  d="m-181.32-195.74-1.5625 2.6855-8.8379-5.2002.14648 8.7891h-3.1494l.12207-8.7891-8.8135 5.2246-1.5869-2.6856 9.3018-5.0537-9.3018-5.0537 1.5869-2.6856 8.8379 5.2002-.14648-8.7646h3.1494l-.1709 8.7646 8.8623-5.1758 1.5625 2.6855-9.2774 5.0049 9.2774 5.0537z"/><path  d="m-149.48-195.74-1.5625 2.6855-8.8379-5.2002.14649 8.7891h-3.1494l.12207-8.7891-8.8135 5.2246-1.5869-2.6856 9.3018-5.0537-9.3018-5.0537 1.5869-2.6856 8.8379 5.2002-.14649-8.7646h3.1494l-.1709 8.7646 8.8623-5.1758 1.5625 2.6855-9.2773 5.0049 9.2773 5.0537z"/><path  d="m-244.99-135.74-1.5625 2.6855-8.8379-5.2002.14649 8.7891h-3.1494l.12207-8.7891-8.8135 5.2246-1.5869-2.6856 9.3018-5.0537-9.3018-5.0537 1.5869-2.6856 8.8379 5.2002-.14649-8.7646h3.1494l-.1709 8.7646 8.8623-5.1758 1.5625 2.6855-9.2773 5.0049 9.2773 5.0537z"/><path  d="m-213.15-135.74-1.5625 2.6855-8.8379-5.2002.14648 8.7891h-3.1494l.12207-8.7891-8.8135 5.2246-1.5869-2.6856 9.3018-5.0537-9.3018-5.0537 1.5869-2.6856 8.8379 5.2002-.14648-8.7646h3.1494l-.1709 8.7646 8.8623-5.1758 1.5625 2.6855-9.2773 5.0049 9.2773 5.0537z"/><path  d="m-181.32-135.74-1.5625 2.6855-8.8379-5.2002.14648 8.7891h-3.1494l.12207-8.7891-8.8135 5.2246-1.5869-2.6856 9.3018-5.0537-9.3018-5.0537 1.5869-2.6856 8.8379 5.2002-.14648-8.7646h3.1494l-.1709 8.7646 8.8623-5.1758 1.5625 2.6855-9.2774 5.0049 9.2774 5.0537z"/><path  d="m-149.48-135.74-1.5625 2.6855-8.8379-5.2002.14649 8.7891h-3.1494l.12207-8.7891-8.8135 5.2246-1.5869-2.6856 9.3018-5.0537-9.3018-5.0537 1.5869-2.6856 8.8379 5.2002-.14649-8.7646h3.1494l-.1709 8.7646 8.8623-5.1758 1.5625 2.6855-9.2773 5.0049 9.2773 5.0537z"/><path  d="m-276.83-76.1-1.5625 2.6855-8.8379-5.2002.14649 8.7891h-3.1494l.12207-8.7891-8.8135 5.2246-1.5869-2.6855 9.3018-5.0537-9.3018-5.0537 1.5869-2.6855 8.8379 5.2002-.14649-8.7646h3.1494l-.1709 8.7646 8.8623-5.1758 1.5625 2.6855-9.2773 5.0049 9.2773 5.0537z"/><path  d="m-244.99-76.1-1.5625 2.6855-8.8379-5.2002.14649 8.7891h-3.1494l.12207-8.7891-8.8135 5.2246-1.5869-2.6855 9.3018-5.0537-9.3018-5.0537 1.5869-2.6855 8.8379 5.2002-.14649-8.7646h3.1494l-.1709 8.7646 8.8623-5.1758 1.5625 2.6855-9.2773 5.0049 9.2773 5.0537z"/><path  d="m-213.15-76.1-1.5625 2.6855-8.8379-5.2002.14648 8.7891h-3.1494l.12207-8.7891-8.8135 5.2246-1.5869-2.6855 9.3018-5.0537-9.3018-5.0537 1.5869-2.6855 8.8379 5.2002-.14648-8.7646h3.1494l-.1709 8.7646 8.8623-5.1758 1.5625 2.6855-9.2773 5.0049 9.2773 5.0537z"/><path  d="m-181.32-76.1-1.5625 2.6855-8.8379-5.2002.14648 8.7891h-3.1494l.12207-8.7891-8.8135 5.2246-1.5869-2.6855 9.3018-5.0537-9.3018-5.0537 1.5869-2.6855 8.8379 5.2002-.14648-8.7646h3.1494l-.1709 8.7646 8.8623-5.1758 1.5625 2.6855-9.2774 5.0049 9.2774 5.0537z"/><path  d="m-149.48-76.1-1.5625 2.6855-8.8379-5.2002.14649 8.7891h-3.1494l.12207-8.7891-8.8135 5.2246-1.5869-2.6855 9.3018-5.0537-9.3018-5.0537 1.5869-2.6855 8.8379 5.2002-.14649-8.7646h3.1494l-.1709 8.7646 8.8623-5.1758 1.5625 2.6855-9.2773 5.0049 9.2773 5.0537z"/></g></svg>