<svg xmlns="http://www.w3.org/2000/svg" height="112.89mm" width="127mm" viewBox="0 0 450 399.99999"><g transform="translate(-147.05 -326.18)"><path style="fill:#455A64" d="m154.92 326.18h434.24c4.3642 0 7.8777 2.8763 7.8777 6.4492v387.1c0 3.5729-3.5134 6.4492-7.8777 6.4492h-434.24c-4.3642 0-7.8777-2.8763-7.8777-6.4492v-387.1c0-3.5729 3.5135-6.4492 7.8777-6.4492z"/><g style="fill:#fff" transform="translate(97.762 2.3903)"><path  d="m288.31 409.96-1.5625 2.6856-8.8379-5.2002.14648 8.7891h-3.1494l.12207-8.7891-8.8135 5.2246-1.5869-2.6856 9.3018-5.0537-9.3018-5.0537 1.5869-2.6855 8.8379 5.2002-.14648-8.7646h3.1494l-.1709 8.7646 8.8623-5.1758 1.5625 2.6856-9.2774 5.0049 9.2774 5.0537z"/><path  d="m255.48 468.04-1.5625 2.6856-8.8379-5.2002.14648 8.7891h-3.1494l.12207-8.7891-8.8135 5.2246-1.5869-2.6855 9.3018-5.0537-9.3018-5.0537 1.5869-2.6855 8.8379 5.2002-.14648-8.7646h3.1494l-.1709 8.7646 8.8623-5.1758 1.5625 2.6856-9.2774 5.0049 9.2774 5.0537z"/><path  d="m321.48 468.04-1.5625 2.6856-8.8379-5.2002.14648 8.7891h-3.1494l.12207-8.7891-8.8135 5.2246-1.5869-2.6855 9.3018-5.0537-9.3018-5.0537 1.5869-2.6855 8.8379 5.2002-.14649-8.7646h3.1494l-.17089 8.7646 8.8623-5.1758 1.5625 2.6856-9.2773 5.0049 9.2773 5.0537z"/><path  d="m219.48 528.04-1.5625 2.6856-8.8379-5.2002.14648 8.7891h-3.1494l.12207-8.7891-8.8135 5.2246-1.5869-2.6855 9.3018-5.0537-9.3018-5.0537 1.5869-2.6855 8.8379 5.2002-.14648-8.7646h3.1494l-.1709 8.7646 8.8623-5.1758 1.5625 2.6856-9.2774 5.0049 9.2774 5.0537z"/> <path  d="m357.48 528.04-1.5625 2.6856-8.8379-5.2002.14648 8.7891h-3.1494l.12207-8.7891-8.8135 5.2246-1.5869-2.6855 9.3018-5.0537-9.3018-5.0537 1.5869-2.6855 8.8379 5.2002-.14649-8.7646h3.1494l-.17089 8.7646 8.8623-5.1758 1.5625 2.6856-9.2773 5.0049 9.2773 5.0537z"/><path  d="m185.48 588.04-1.5625 2.6856-8.8379-5.2002.14648 8.7891h-3.1494l.12207-8.7891-8.8135 5.2246-1.5869-2.6855 9.3018-5.0537-9.3018-5.0537 1.5869-2.6855 8.8379 5.2002-.14648-8.7646h3.1494l-.1709 8.7646 8.8623-5.1758 1.5625 2.6856-9.2774 5.0049 9.2774 5.0537z"/><path  d="m391.48 588.04-1.5625 2.6856-8.8379-5.2002.14648 8.7891h-3.1494l.12207-8.7891-8.8135 5.2246-1.5869-2.6855 9.3018-5.0537-9.3018-5.0537 1.5869-2.6855 8.8379 5.2002-.14649-8.7646h3.1494l-.17089 8.7646 8.8623-5.1758 1.5625 2.6856-9.2773 5.0049 9.2773 5.0537z"/><path  d="m158.78 647.68-1.5625 2.6855-8.8379-5.2002.14648 8.7891h-3.1494l.12207-8.7891-8.8135 5.2246-1.5869-2.6856 9.3018-5.0537-9.3018-5.0537 1.5869-2.6856 8.8379 5.2002-.14649-8.7646h3.1494l-.17089 8.7646 8.8623-5.1758 1.5625 2.6855-9.2773 5.0049 9.2773 5.0537z"/><path  d="m190.62 647.68-1.5625 2.6855-8.8379-5.2002.14648 8.7891h-3.1494l.12207-8.7891-8.8135 5.2246-1.5869-2.6856 9.3018-5.0537-9.3018-5.0537 1.5869-2.6856 8.8379 5.2002-.14648-8.7646h3.1494l-.1709 8.7646 8.8623-5.1758 1.5625 2.6855-9.2774 5.0049 9.2774 5.0537z"/><path  d="m222.45 647.68-1.5625 2.6855-8.8379-5.2002.14648 8.7891h-3.1494l.12207-8.7891-8.8135 5.2246-1.5869-2.6856 9.3018-5.0537-9.3018-5.0537 1.5869-2.6856 8.8379 5.2002-.14648-8.7646h3.1494l-.1709 8.7646 8.8623-5.1758 1.5625 2.6855-9.2774 5.0049 9.2774 5.0537z"/><path  d="m254.29 647.68-1.5625 2.6855-8.8379-5.2002.14649 8.7891h-3.1494l.12207-8.7891-8.8135 5.2246-1.5869-2.6856 9.3018-5.0537-9.3018-5.0537 1.5869-2.6856 8.8379 5.2002-.14649-8.7646h3.1494l-.1709 8.7646 8.8623-5.1758 1.5625 2.6855-9.2773 5.0049 9.2773 5.0537z"/><path  d="m286.13 647.68-1.5625 2.6855-8.8379-5.2002.14648 8.7891h-3.1494l.12207-8.7891-8.8135 5.2246-1.5869-2.6856 9.3018-5.0537-9.3018-5.0537 1.5869-2.6856 8.8379 5.2002-.14649-8.7646h3.1494l-.17089 8.7646 8.8623-5.1758 1.5625 2.6855-9.2773 5.0049 9.2773 5.0537z"/><path  d="m317.96 647.68-1.5625 2.6855-8.8379-5.2002.14648 8.7891h-3.1494l.12207-8.7891-8.8135 5.2246-1.5869-2.6856 9.3018-5.0537-9.3018-5.0537 1.5869-2.6856 8.8379 5.2002-.14648-8.7646h3.1494l-.1709 8.7646 8.8623-5.1758 1.5625 2.6855-9.2774 5.0049 9.2774 5.0537z"/><path  d="m349.8 647.68-1.5625 2.6855-8.8379-5.2002.14648 8.7891h-3.1494l.12207-8.7891-8.8135 5.2246-1.5869-2.6856 9.3018-5.0537-9.3018-5.0537 1.5869-2.6856 8.8379 5.2002-.14648-8.7646h3.1494l-.1709 8.7646 8.8623-5.1758 1.5625 2.6855-9.2774 5.0049 9.2774 5.0537z"/><path  d="m381.63 647.68-1.5625 2.6855-8.8379-5.2002.14649 8.7891h-3.1494l.12207-8.7891-8.8135 5.2246-1.5869-2.6856 9.3018-5.0537-9.3018-5.0537 1.5869-2.6856 8.8379 5.2002-.14649-8.7646h3.1494l-.1709 8.7646 8.8623-5.1758 1.5625 2.6855-9.2773 5.0049 9.2773 5.0537z"/><path  d="m413.47 647.68-1.5625 2.6855-8.8379-5.2002.14648 8.7891h-3.1494l.12207-8.7891-8.8135 5.2246-1.5869-2.6856 9.3018-5.0537-9.3018-5.0537 1.5869-2.6856 8.8379 5.2002-.14649-8.7646h3.1494l-.17089 8.7646 8.8623-5.1758 1.5625 2.6855-9.2773 5.0049 9.2773 5.0537z"/></g></g></svg>