<svg xmlns="http://www.w3.org/2000/svg" height="112.89mm" width="127mm" viewBox="0 0 449.99091 399.99842"><style>g{fill:#fff}</style><path style="fill:#455A64" d="m7.877 0h434.24c4.3642 0 7.8777 2.8763 7.8777 6.4492v387.1c0 3.5729-3.5134 6.4492-7.8777 6.4492h-434.24c-4.3642 0-7.8777-2.8763-7.8777-6.4492v-387.1c-.0030477-3.5737 3.5105-6.45 7.8747-6.45z"/><g transform="matrix(1 0 0 -1 149.48 69.83)"><path d="m151.03-243.97-1.5625 2.6856-8.8379-5.2002.14648 8.7891h-3.1494l.12207-8.7891-8.8135 5.2246-1.5869-2.6855 9.3018-5.0537-9.3018-5.0537 1.5869-2.6856 8.8379 5.2002-.14648-8.7646h3.1494l-.1709 8.7646 8.8623-5.1758 1.5625 2.6856-9.2774 5.0049 9.2774 5.0537z"/></g><g transform="matrix(1 0 0 -1 149.48 69.83)"><path d="m119.19-185.89-1.5625 2.6856-8.8379-5.2002.14648 8.7891h-3.1494l.12207-8.7891-8.8135 5.2246-1.5869-2.6856 9.3018-5.0537-9.3018-5.0537 1.5869-2.6856 8.8379 5.2002-.14648-8.7646h3.1494l-.1709 8.7646 8.8623-5.1758 1.5625 2.6856-9.2773 5.0049 9.2773 5.0537z"/><path d="m151.03-185.89-1.5625 2.6856-8.8379-5.2002.14648 8.7891h-3.1494l.12207-8.7891-8.8135 5.2246-1.5869-2.6856 9.3018-5.0537-9.3018-5.0537 1.5869-2.6856 8.8379 5.2002-.14648-8.7646h3.1494l-.1709 8.7646 8.8623-5.1758 1.5625 2.6856-9.2774 5.0049 9.2774 5.0537z"/></g><g transform="matrix(1 0 0 -1 149.48 69.83)"><path d="m87.356-125.89-1.5625 2.6855-8.8379-5.2002.14648 8.7891h-3.1494l.12207-8.7891-8.8135 5.2246-1.5869-2.6856 9.3018-5.0537-9.3018-5.0537 1.5869-2.6856 8.8379 5.2002-.14648-8.7646h3.1494l-.1709 8.7646 8.8623-5.1758 1.5625 2.6855-9.2773 5.0049 9.2773 5.0537z"/><path d="m119.19-125.89-1.5625 2.6855-8.8379-5.2002.14648 8.7891h-3.1494l.12207-8.7891-8.8135 5.2246-1.5869-2.6856 9.3018-5.0537-9.3018-5.0537 1.5869-2.6856 8.8379 5.2002-.14648-8.7646h3.1494l-.1709 8.7646 8.8623-5.1758 1.5625 2.6855-9.2773 5.0049 9.2773 5.0537z"/><path d="m151.03-125.89-1.5625 2.6855-8.8379-5.2002.14648 8.7891h-3.1494l.12207-8.7891-8.8135 5.2246-1.5869-2.6856 9.3018-5.0537-9.3018-5.0537 1.5869-2.6856 8.8379 5.2002-.14648-8.7646h3.1494l-.1709 8.7646 8.8623-5.1758 1.5625 2.6855-9.2774 5.0049 9.2774 5.0537z"/></g><g transform="matrix(1 0 0 -1 149.48 69.83)"><path d="m55.52-65.886-1.5625 2.6855-8.8379-5.2002.14648 8.7891h-3.1494l.12207-8.7891-8.8135 5.2246-1.5869-2.6855 9.3018-5.0537-9.3018-5.0537 1.5869-2.6855 8.8379 5.2002-.14648-8.7646h3.1494l-.1709 8.7646 8.8623-5.1758 1.5625 2.6855-9.2773 5.0049 9.2773 5.0537z"/><path d="m87.356-65.886-1.5625 2.6855-8.8379-5.2002.14648 8.7891h-3.1494l.12207-8.7891-8.8135 5.2246-1.5869-2.6855 9.3018-5.0537-9.3018-5.0537 1.5869-2.6855 8.8379 5.2002-.14648-8.7646h3.1494l-.1709 8.7646 8.8623-5.1758 1.5625 2.6855-9.2773 5.0049 9.2773 5.0537z"/><path d="m119.19-65.886-1.5625 2.6855-8.8379-5.2002.14648 8.7891h-3.1494l.12207-8.7891-8.8135 5.2246-1.5869-2.6855 9.3018-5.0537-9.3018-5.0537 1.5869-2.6855 8.8379 5.2002-.14648-8.7646h3.1494l-.1709 8.7646 8.8623-5.1758 1.5625 2.6855-9.2774 5.0049 9.2774 5.0537z"/><path d="m151.03-65.886-1.5625 2.6855-8.8379-5.2002.14649 8.7891h-3.1494l.12207-8.7891-8.8135 5.2246-1.5869-2.6855 9.3018-5.0537-9.3018-5.0537 1.5869-2.6855 8.8379 5.2002-.14649-8.7646h3.1494l-.1709 8.7646 8.8623-5.1758 1.5625 2.6855-9.2773 5.0049 9.2773 5.0537z"/></g><g transform="matrix(1 0 0 -1 149.48 69.83)"><path d="m23.684-6.2495-1.5625 2.6855-8.8379-5.2002.14648 8.7891h-3.1494l.12207-8.7891-8.8135 5.2246-1.5869-2.6855 9.3018-5.0537-9.3018-5.0537 1.5869-2.6855 8.8379 5.2002-.14648-8.7646h3.1494l-.1709 8.7646 8.8623-5.1758 1.5625 2.6855-9.2773 5.0049 9.2773 5.0537z"/><path d="m55.52-6.2495-1.5625 2.6855-8.8379-5.2002.14648 8.7891h-3.1494l.12207-8.7891-8.8135 5.2246-1.5869-2.6855 9.3018-5.0537-9.3018-5.0537 1.5869-2.6855 8.8379 5.2002-.14648-8.7646h3.1494l-.1709 8.7646 8.8623-5.1758 1.5625 2.6855-9.2773 5.0049 9.2773 5.0537z"/><path d="m87.356-6.2495-1.5625 2.6855-8.8379-5.2002.14648 8.7891h-3.1494l.12207-8.7891-8.8135 5.2246-1.5869-2.6855 9.3018-5.0537-9.3018-5.0537 1.5869-2.6855 8.8379 5.2002-.14648-8.7646h3.1494l-.1709 8.7646 8.8623-5.1758 1.5625 2.6855-9.2773 5.0049 9.2773 5.0537z"/><path d="m119.19-6.2495-1.5625 2.6855-8.8379-5.2002.14648 8.7891h-3.1494l.12207-8.7891-8.8135 5.2246-1.5869-2.6855 9.3018-5.0537-9.3018-5.0537 1.5869-2.6855 8.8379 5.2002-.14648-8.7646h3.1494l-.1709 8.7646 8.8623-5.1758 1.5625 2.6855-9.2774 5.0049 9.2774 5.0537z"/><path d="m151.03-6.2495-1.5625 2.6855-8.8379-5.2002.14649 8.7891h-3.1494l.12208-8.7891-8.8135 5.2246-1.5869-2.6855 9.3018-5.0537-9.3018-5.0537 1.5869-2.6855 8.8379 5.2002-.14649-8.7646h3.1494l-.1709 8.7646 8.8623-5.1758 1.5625 2.6855-9.2774 5.0049 9.2774 5.0537z"/></g></svg>