<svg xmlns="http://www.w3.org/2000/svg" height="63.04mm" width="61.43mm" viewBox="0 0 217.5 223.2"><style>svg{font-size:30px;}text{font-family:sans-serif;font-size:20px;fill:#00ccff}.pt{stroke:#00aad4;fill:none}</style><g transform="translate(-534.8,-621.7)"><path class="pt" d="m551.1 621.7v29.5h122.5"/><path class="pt" d="m566 651.7v29.5h122.6"/><path class="pt" d="m579.7 681.7v29.5h122.5"/><text y="642.31525" x="558.79431"><tspan y="642.31525" x="558.79431">12, 24, 36</tspan></text><path class="pt" d="m596.4 711.7v29.5h122.5"/><path class="pt" d="m613.1 741.7v29.5h122.5"/><path class="pt" d="m629.7 771.7v29.5h122.6"/><text y="672.3299" x="580.8537"><tspan x="580.8537" y="672.3299">6, 12, 18</tspan></text><text y="702.31525" x="607.15509"><tspan y="702.31525" x="607.15509" >3, 6, 9</tspan></text><text y="732.31525" x="623.40588"><tspan x="623.40588" y="732.31525">1, 2, 3</tspan></text><text y="762.31525" x="640.10583"><tspan y="762.31525" x="640.10583" >1, 1, 3</tspan></text><text y="792.31525" x="657.06836"><tspan x="657.06836" y="792.31525">1, 1, 1</tspan></text><text y="642.31525" x="533.18396"><tspan x="533.18396" y="642.31525">2</tspan></text><text y="674.12189" x="548.08398"><tspan y="674.12189" x="548.08398" >2</tspan></text><text y="704.12189" x="561.784"><tspan x="561.784" y="704.12189">3</tspan></text><text y="734.12189" x="578.48401"><tspan y="734.12189" x="578.48401" >2</tspan></text><text y="764.12189" x="595.18396"><tspan x="595.18396" y="764.12189">3</tspan></text><text y="844.63843" x="535.35315"><tspan x="535.35315" y="844.63843">2 x 2 x 3 x 2 x 3 = 72</tspan></text></g></svg>