<svg xmlns="http://www.w3.org/2000/svg" height="153.42mm" width="255.95mm" xmlns:xlink="http://www.w3.org/1999/xlink" viewBox="0 0 906.90927 543.62125"><style>svg{font-family:sans-serif;font-size:25px;font-color:#000;}.z{fill:#96dd8a}.y{fill:#75d065}</style><defs><pattern id="m" xlink:href="#a" patternTransform="matrix(10,0,0,10,59.511,-94.351)"/><pattern id="l" xlink:href="#a" patternTransform="matrix(10,0,0,10,59.511,-94.351)"/><pattern id="k" xlink:href="#a" patternTransform="matrix(10,0,0,10,59.511,-94.351)"/><pattern id="j" xlink:href="#a" patternTransform="matrix(10,0,0,10,59.511,-94.351)"/><pattern id="i" xlink:href="#a" patternTransform="matrix(10,0,0,10,59.511,-94.351)"/><pattern id="c" xlink:href="#a" patternTransform="matrix(10,0,0,10,59.511,-94.351)"/><pattern id="a" width="1.25" patternUnits="userSpaceOnUse" patternTransform="translate(0) scale(10)" height="1"><rect style="fill:#474746" height="2" width="1" y="-.5" x="0"/></pattern><linearGradient id="b" y2="223.69" gradientUnits="userSpaceOnUse" y1="223.69" x2="655.89" x1="447.01"><stop style="stop-color:#75d065" offset="0"/></linearGradient></defs><rect style="fill:#e2e2e2" transform="matrix(.86196 .50698 -.86196 .50698 0 0)" rx="13.592" ry="13.592" height="508.62" width="508.62" y="-222.33" x="278.34"/><rect style="fill:#f2f2f2" transform="matrix(.86196 .50698 -.86196 .50698 0 0)" rx="13.592" ry="13.592" height="508.62" width="508.62" y="-228.25" x="272.42"/><text y="101.72556" x="78.733597"><tspan y="101.72556" x="78.733597">Team 1</tspan></text><text y="543.24243" x="210.69731"><tspan y="543.24243" x="210.69731">Team 2</tspan></text><text y="541.52087" x="629.74072"><tspan y="541.52087" x="629.74072">Team 3</tspan></text><path d="m381.29 111.73v40l54.41 119.44 148.75-87.488v-40l-203.16-31.951z" class="y"/><path d="m595.68 190.39-81.428 47.893-67.238-.45313v40l203.22 32.027a224.5 132.04 0 0 0 5.2617 -23.57l.17773.008.006-1.4414a224.5 132.04 0 0 0 .0195 -4.1875l.19141-41.43-11.504-.0781a224.5 132.04 0 0 0 -48.705 -48.768z" style="fill:url(#b)"/><path d="m365.79 154.08a224.5 132.04 0 0 0 -92.982 32.809 224.5 132.04 0 0 0 -26.518 18.992l-29.29-4.66-1 39.875 1.25.19922a224.5 132.04 0 0 0 -.17773 .29687l203.17 32.02v-40l-19.648-3.1309-34.801-76.393z" class="y"/><path d="m427.42 289.35-95.158 55.969-53.59-8.4785v40a224.5 132.04 0 0 0 203.16 31.947l.67-39.7-20.21-3.2-34.87-76.54z" class="y"/><path d="m381.29 111.73v40l54.41 119.44 148.75-87.488v-40l-203.16-31.951z" style="opacity:.25;fill:url(#c)"/><path d="m584.45 143.68a224.5 132.04 0 0 0 -203.16 -31.95l54.411 119.44 148.75-87.488z" class="z"/><path d="m595.68 190.39-81.428 47.893-67.238-.45313v40l203.22 32.027a224.5 132.04 0 0 0 5.2617 -23.57l.17773.008.006-1.4414a224.5 132.04 0 0 0 .0195 -4.1875l.19141-41.43-11.504-.0781a224.5 132.04 0 0 0 -48.705 -48.768z" style="opacity:.25;fill:url(#i)"/><path d="m442.87 246.92v40l54.451 119.52a224.5 132.04 0 0 0 92.98 -32.81 224.5 132.04 0 0 0 55.74 -54.69v-40l-203.17-32.018z" class="y"/><path d="m595.68 150.39-148.67 87.44 203.22 32.02a224.5 132.04 0 0 0 -54.55 -119.46z" class="z"/><path d="m365.79 154.08a224.5 132.04 0 0 0 -92.982 32.809 224.5 132.04 0 0 0 -26.518 18.992l-29.295-4.668-1 39.875 1.25.19922a224.5 132.04 0 0 0 -.17773 .29687l203.17 32.02v-40l-19.648-3.1309-34.801-76.393z" style="opacity:.25;fill:url(#j)"/><path d="m207.25 242.36-.0117 35.99.11523.002a224.5 132.04 0 0 0 60.082 91.783l148.06-87.084.63672.0137-.0293-40.371-208.85-.33398z" class="y"/><path d="m365.79 114.08a224.5 132.04 0 0 0 -92.982 32.809 224.5 132.04 0 0 0 -55.741 54.695l203.17 32.02-54.45-119.52z" class="z"/><path d="m646.04 278.94-203.17-32.02 54.45 119.52a224.5 132.04 0 0 0 92.979 -32.809 224.5 132.04 0 0 0 55.741 -54.695z" class="z"/><path d="m427.42 249.35-148.75 87.489a224.5 132.04 0 0 0 203.16 31.949l-54.41-119.44z" class="z"/><path d="m584.45 143.68a224.5 132.04 0 0 0 -203.16 -31.95l54.411 119.44 148.75-87.488z" style="opacity:.25;fill:url(#k)"/><path d="m416.1 242.7-203.22-32.03a224.5 132.04 0 0 0 54.56 119.47l148.66-87.44z" class="z"/><path d="m595.68 150.39-148.67 87.44 203.22 32.02a224.5 132.04 0 0 0 -54.55 -119.46z" style="opacity:.25;fill:url(#l)"/><path d="m365.79 114.08a224.5 132.04 0 0 0 -92.982 32.809 224.5 132.04 0 0 0 -55.741 54.695l203.17 32.02-54.45-119.52z" style="opacity:.25;fill:url(#m)"/><path d="m260 274.09v-180h-80" style="stroke:#148800;stroke-width:1px;fill:none"/><path d="m400 294.09v240h-80" style="stroke:#148800;stroke-width:1px;fill:none"/><path d="m540 294.09v240h80" style="stroke:#148800;stroke-width:1px;fill:none"/><path d="m588 23.438h50" style="stroke:#148800;stroke-width:1px;stroke-opacity:.83922;fill:none"/><text  y="30.420002" x="651.55048"><tspan y="30.420002" x="651.55048">Unallocated Memory</tspan></text><rect style="fill:#82b879" height="35.952" width="55.183" y="4.4638" x="523.05"/><path style="stroke:#96dd8a;stroke-width:1.5;fill:none" d="m530.64 4.5134v35.853"/><path style="stroke:#96dd8a;stroke-width:1.5;fill:none" d="m550.64 4.5134v35.853"/><path style="stroke:#96dd8a;stroke-width:1.5;fill:none" d="m570.64 4.5134v35.853"/></svg>