<svg style="font-family:sans-serif;" xmlns="http://www.w3.org/2000/svg" height="183.06mm" width="179.68mm" viewBox="0 0 636.66133 648.65246"><g transform="translate(-70.241 -242.75)"><g transform="matrix(.99999 0 0 .99999 170.59 311.43)"><text style="font-size:37.5px;fill:#ffaa00" y="402.5134" x="68.2686" ><tspan y="402.5134" x="68.2686" style="font-size:37.5px;fill:#ffaa00">memset(str1, str2, n)</tspan></text><rect style="opacity:.86694" height="50.017" width="398.68" y="-68.599" x="135.98"/><path style="stroke:#ecca5b;stroke-width:1px;stroke-opacity:0.751;fill:none" d="m489.85-19.534 43.436-48.737"/><path style="stroke:#bc8b00;stroke-width:1.5;fill:none" d="m179.18-68.524v50"/><path style="stroke:#bc8b00;stroke-width:1.5;fill:none" d="m223.41-68.524v50"/><path style="stroke:#bc8b00;stroke-width:1.5;fill:none" d="m267.65-68.524v50"/><path style="stroke:#bc8b00;stroke-width:1.5;fill:none" d="m311.88-68.524v50"/><path style="stroke:#bc8b00;stroke-width:1.5;fill:none" d="m490.58-68.524v50"/><path style="stroke:#ecca5b;stroke-width:1px;stroke-opacity:0.751;fill:none" d="m500.46-19.495 32.918-36.937"/><text style="font-size:35px;fill:#ecca5b" y="-30.810369" x="145.22856" ><tspan y="-30.810369" x="145.22856">P</tspan></text><text style="font-size:20px;fill:#ff522e" y="7.4904103" x="128.22612" ><tspan y="7.4904103" x="128.22612">0</tspan></text><text style="font-size:35px;fill:#ecca5b" y="-31.340155" x="190.56767" ><tspan y="-31.340155" x="190.56767">a</tspan></text><text style="font-size:20px;fill:#ff522e" y="7.7931447" x="171.45586" ><tspan y="7.7931447" x="171.45586">1</tspan></text><text style="font-size:35px;fill:#ecca5b" y="-31.271795" x="230.3839" ><tspan y="-31.271795" x="230.3839">s</tspan></text><text style="font-size:20px;fill:#ff522e" y="7.7931447" x="216.46764" ><tspan y="7.7931447" x="216.46764">2</tspan></text><text style="font-size:35px;fill:#ecca5b" y="-30.810368" x="279.07416" ><tspan y="-30.810368" x="279.07416"/></text><text style="font-size:20px;fill:#ff522e" y="7.4904103" x="261.10583" ><tspan y="7.4904103" x="261.10583">3</tspan></text><text style="font-size:35px;fill:#ecca5b" y="-30.810369" x="322.34149" ><tspan y="-30.810369" x="322.34149">w</tspan></text><text style="font-size:20px;fill:#ff522e" y="7.7931447" x="305.62762" ><tspan y="7.7931447" x="305.62762">4</tspan></text><text style="font-size:20px;fill:#ff522e" y="7.4904103" x="348.22137" ><tspan y="7.4904103" x="348.22137">5</tspan></text><text style="font-size:20px;fill:#ff522e" y="7.4904103" x="392.92386" ><tspan y="7.4904103" x="392.92386">6</tspan></text><text style="font-size:27.5px;fill:#ecca5b" y="-34.892399" x="496.17163" ><tspan y="-34.892399" x="496.17163">\0</tspan></text><text style="font-size:20px;fill:#bc8b00" y="-38.33173" x="41.940422" ><tspan y="-38.33173" x="41.940422">Memory</tspan></text><text style="font-size:20px;fill-opacity:.94902;fill:#ff522e" y="3.6515431" x="42.555656" ><tspan y="3.6515431" x="42.555656">Index</tspan></text><path style="stroke:#bc8b00;stroke-width:1.5;fill:none" d="m134.95-68.524v50"/><path style="stroke:#ecca5b;stroke-width:1px;stroke-opacity:0.751;fill:none" d="m510.76-19.539 22.437-25.179"/><path style="stroke:#ecca5b;stroke-width:1px;stroke-opacity:0.751;fill:none" d="m522.7-18.927 10.668-11.098"/><path style="stroke:#bc8b00;stroke-width:1.5;fill:none" d="m534.81-68.561v50"/><path style="stroke:#ff522e;stroke-width:1px;stroke-opacity:.97647;fill:none" d="m130 21.476v20h357.05v-20"/><path style="stroke:#ecca5b;stroke-width:1px;stroke-opacity:0.751;fill:none" d="m490.52-32.663 32.218-35.573"/><path style="stroke:#ecca5b;stroke-width:1px;stroke-opacity:0.751;fill:none" d="m490.22-44.471 21.62-23.868"/><path style="stroke:#ecca5b;stroke-width:1px;stroke-opacity:0.751;fill:none" d="m491.05-57.452 9.869-10.892"/><text style="font-size:20px;fill:#de6a26" y="-32.80756" x="-102.22926" ><tspan y="-32.80756" x="-102.22926" style="font-size:35px">str</tspan></text><text style="font-size:20px;fill:#de6a26" y="-32.80756" x="-33.22926" ><tspan y="-32.80756" x="-33.22926" style="font-size:35px">=</tspan></text><text style="font-size:20px;fill:#de6a26" y="181.34479" x="-100.22926" ><tspan y="181.34479" x="-100.22926" style="font-size:35px">chr</tspan></text><text style="font-size:20px;fill:#de6a26" y="181.34479" x="-33.22926" ><tspan y="181.34479" x="-33.22926" style="font-size:35px">=</tspan></text><rect style="opacity:.86694" height="50.017" width="42.651" y="145.11" x="23.55"/><path style="stroke:#bc8b00;stroke-width:1.5;fill:none" d="m23.33 145.19v50"/><text style="font-size:35px;fill:#ecca5b" y="190.37415" x="33.481712" ><tspan y="190.37415" x="38.481712">*</tspan></text><text style="font-size:35px;fill:#ecca5b" y="-31.340155" x="370.34146" ><tspan y="-31.340155" x="370.34146">o</tspan></text><text style="font-size:35px;fill:#ecca5b" y="-30.810369" x="412.34143" ><tspan y="-30.810369" x="412.34143">r</tspan></text><path style="stroke:#bc8b00;stroke-width:1.5;fill:none" d="m356.11-68.524v50"/><path style="stroke:#bc8b00;stroke-width:1.5;fill:none" d="m400.35-68.524v50"/><text style="font-size:20px;fill:#000000" y="2.1240697" x="438.21521" ><tspan y="2.1240697" x="438.21521"/></text><text style="font-size:20px;fill:#ff522e" y="7.7931447" x="436.22131" ><tspan y="7.7931447" x="436.22131">7</tspan></text><text style="font-size:20px;fill:#ff522e" y="7.4611135" x="480.92383" ><tspan y="7.4611135" x="480.92383">8</tspan></text><text style="font-size:20px;fill:#bc8b00" y="501.66974" x="41.940422" ><tspan y="501.66974" x="41.940422">Memory</tspan></text><text style="font-size:20px;fill-opacity:.94902;fill:#ff522e" y="543.65295" x="42.555656" ><tspan y="543.65295" x="42.555656">Index</tspan></text><text style="font-size:20px;fill:#de6a26" y="507.19391" x="-102.22926" ><tspan y="507.19391" x="-102.22926" style="font-size:35px">str</tspan></text><text style="font-size:20px;fill:#de6a26" y="507.19391" x="-33.22926" ><tspan y="507.19391" x="-33.22926" style="font-size:35px">=</tspan></text><text style="font-size:35px;fill:#ecca5b" y="-31.271795" x="278.38391" ><tspan y="-31.271795" x="278.38391">s</tspan></text><text style="font-size:20px;fill:#ff522e" y="7.4611516" x="524.92383" ><tspan y="7.4611516" x="524.92383">9</tspan></text><path style="stroke:#bc8b00;stroke-width:1.5;fill:none" d="m444.35-68.524v50"/><text style="font-size:35px;fill:#ecca5b" y="-31.340155" x="456.34146" ><tspan y="-31.340155" x="456.34146">d</tspan></text><rect style="opacity:.86694" height="50.017" width="398.68" y="471.4" x="135.98"/><path style="stroke:#ecca5b;stroke-width:1px;stroke-opacity:0.751;fill:none" d="m489.85 520.47 43.436-48.737"/><path style="stroke:#bc8b00;stroke-width:1.5;fill:none" d="m179.18 471.48v50"/><path style="stroke:#bc8b00;stroke-width:1.5;fill:none" d="m223.41 471.48v50"/><path style="stroke:#bc8b00;stroke-width:1.5;fill:none" d="m267.65 471.48v50"/><path style="stroke:#bc8b00;stroke-width:1.5;fill:none" d="m311.88 471.48v50"/><path style="stroke:#bc8b00;stroke-width:1.5;fill:none" d="m490.58 471.48v50"/><path style="stroke:#ecca5b;stroke-width:1px;stroke-opacity:0.751;fill:none" d="m500.46 520.51 32.918-36.937"/><text style="font-size:35px;fill:#ecca5b" y="513.19098" x="147.22856" ><tspan y="513.19098" x="147.22856">*</tspan></text><text style="font-size:20px;fill:#ff522e" y="547.49176" x="128.22612" ><tspan y="547.49176" x="128.22612">0</tspan></text><text style="font-size:35px;fill:#ecca5b" y="512.66119" x="190.56767" ><tspan y="512.66119" x="190.56767">*</tspan></text><text style="font-size:20px;fill:#ff522e" y="547.79449" x="171.45586" ><tspan y="547.79449" x="171.45586">1</tspan></text><text style="font-size:35px;fill:#ecca5b" y="512.72955" x="234.3839" ><tspan y="512.72955" x="234.3839">*</tspan></text><text style="font-size:20px;fill:#ff522e" y="547.79449" x="216.46764" ><tspan y="547.79449" x="216.46764">2</tspan></text><text style="font-size:20px;fill:#ff522e" y="547.49176" x="261.10583" ><tspan y="547.49176" x="261.10583">3</tspan></text><text style="font-size:35px;fill:#ecca5b" y="507.19092" x="322.34149" ><tspan y="507.19092" x="322.34149">w</tspan></text><text style="font-size:20px;fill:#ff522e" y="547.79449" x="305.62762" ><tspan y="547.79449" x="305.62762">4</tspan></text><text style="font-size:20px;fill:#ff522e" y="547.49176" x="348.22137" ><tspan y="547.49176" x="348.22137">5</tspan></text><text style="font-size:20px;fill:#ff522e" y="547.49176" x="392.92386" ><tspan y="547.49176" x="392.92386">6</tspan></text><text style="font-size:27.5px;fill:#ecca5b" y="505.10898" x="496.17163" ><tspan y="505.10898" x="496.17163">\0</tspan></text><path style="stroke:#bc8b00;stroke-width:1.5;fill:none" d="m134.95 471.48v50"/><path style="stroke:#ecca5b;stroke-width:1px;stroke-opacity:0.751;fill:none" d="m510.76 520.46 22.437-25.179"/><path style="stroke:#ecca5b;stroke-width:1px;stroke-opacity:0.751;fill:none" d="m522.7 521.07 10.668-11.098"/><path style="stroke:#bc8b00;stroke-width:1.5;fill:none" d="m534.81 471.44v50"/><path style="stroke:#ff522e;stroke-width:1px;stroke-opacity:.97647;fill:none" d="m130 559.48v20h359.07v-20"/><path style="stroke:#ecca5b;stroke-width:1px;stroke-opacity:0.751;fill:none" d="m490.52 507.34 32.218-35.573"/><path style="stroke:#ecca5b;stroke-width:1px;stroke-opacity:0.751;fill:none" d="m490.22 495.53 21.62-23.868"/><path style="stroke:#ecca5b;stroke-width:1px;stroke-opacity:0.751;fill:none" d="m491.05 482.55 9.869-10.892"/><text style="font-size:35px;fill:#ecca5b" y="506.66113" x="366.34146" ><tspan y="506.66113" x="366.34146">o</tspan></text><text style="font-size:35px;fill:#ecca5b" y="507.19092" x="410.34143" ><tspan y="507.19092" x="410.34143">r</tspan></text><path style="stroke:#bc8b00;stroke-width:1.5;fill:none" d="m356.11 471.48v50"/><path style="stroke:#bc8b00;stroke-width:1.5;fill:none" d="m400.35 471.48v50"/><text style="font-size:20px;fill:#ff522e" y="547.79449" x="436.22131" ><tspan y="547.79449" x="436.22131">7</tspan></text><text style="font-size:20px;fill:#ff522e" y="547.46246" x="480.92383" ><tspan y="547.46246" x="480.92383">8</tspan></text><text style="font-size:35px;fill:#ecca5b" y="512.72955" x="280.38391" ><tspan y="512.72955" x="280.38391">*</tspan></text><text style="font-size:20px;fill:#ff522e" y="547.46252" x="524.92383" ><tspan y="547.46252" x="524.92383">9</tspan></text><path style="stroke:#bc8b00;stroke-width:1.5;fill:none" d="m444.35 471.48v50"/><text style="font-size:35px;fill:#ecca5b" y="506.66113" x="454.34146" ><tspan y="506.66113" x="454.34146">d</tspan></text><text style="font-size:50.001px;fill:#de6a26"  y="311.37057" x="-100.22926"><tspan x="-100.22926" style="font-size:35px;font-family:sans-serif" y="311.37057">n</tspan></text><text style="font-size:50.001px;fill:#de6a26"  y="311.37057" x="-33.22926"><tspan x="-33.22926" style="font-size:35px;font-family:sans-serif" y="311.37057">=</tspan></text><rect style="opacity:.86694" height="50.017" width="42.651" y="274.55" x="21.12"/><text style="font-size:50.001px;fill:#ecca5b"  y="312.54929" x="31.080917"><tspan x="31.080917" style="font-size:35px;fill:#ecca5b" y="312.54929">2</tspan></text></g></g></svg>