<svg xmlns="http://www.w3.org/2000/svg" height="112.89mm" width="127mm" viewBox="0 0 449.9977 399.99999"><style>path{fill:#fff}</style><g transform="translate(33.57 -415.22)"><path style="fill:#455a64" d="m-25.693 415.22h434.24c4.37 0 7.88 2.8764 7.88 6.4492v387.1c0 3.5729-3.5134 6.4492-7.8777 6.4492h-434.24c-4.3665 0-7.88-2.88-7.88-6.45v-387.1c0-3.5736 3.5135-6.45 7.8777-6.45z"/><path d="m177.56 500.5 1.6406 2.8198 9.2798-5.4602-.15381 9.2285h3.3069l-.12818-9.2285 9.2542 5.4858 1.6663-2.8198-9.7668-5.3064 9.7668-5.3064-1.6663-2.8198-9.2798 5.4602.15381-9.2029h-3.3069l.17945 9.2029-9.3054-5.4346-1.6406 2.8198 9.7412 5.2551-9.7412 5.3064z"/><path d="m144.14 500.5 1.6406 2.8198 9.2798-5.4602-.15381 9.2285h3.3069l-.12817-9.2285 9.2542 5.4858 1.6663-2.8198-9.7668-5.3064 9.7668-5.3064-1.6663-2.8198-9.2798 5.4602.1538-9.2029h-3.3069l.17944 9.2029-9.3054-5.4346-1.6406 2.8198 9.7412 5.2551-9.7412 5.3064z"/><path d="m110.71 500.5 1.6406 2.8198 9.2798-5.4602-.15381 9.2285h3.3069l-.12817-9.2285 9.2542 5.4858 1.6663-2.8198-9.7668-5.3064 9.7668-5.3064-1.6663-2.8198-9.2798 5.4602.15381-9.2029h-3.3069l.17945 9.2029-9.3054-5.4346-1.6406 2.8198 9.7412 5.2551-9.7412 5.3064z"/><path d="m77.284 500.5 1.6406 2.8198 9.2798-5.4602-.15381 9.2285h3.3069l-.12818-9.2285 9.2542 5.4858 1.6663-2.8198-9.7668-5.3064 9.7668-5.3064-1.6663-2.8198-9.2798 5.4602.15381-9.2029h-3.3069l.17944 9.2029-9.3054-5.4346-1.6406 2.8198 9.7412 5.2551-9.7412 5.3064z"/><path d="m43.854 500.5 1.6406 2.8198 9.2798-5.4602-.1538 9.2285h3.3069l-.12817-9.2285 9.2542 5.4858 1.6663-2.8198-9.7668-5.3064 9.7668-5.3064-1.6663-2.8198-9.2798 5.4602.15381-9.2029h-3.3069l.17944 9.2029-9.3054-5.4346-1.6406 2.8198 9.7412 5.2551-9.7412 5.3064z"/><path d="m212.14 560.5 1.6406 2.8198 9.2798-5.4602-.15381 9.2285h3.3069l-.12817-9.2285 9.2542 5.4858 1.6663-2.8198-9.7668-5.3064 9.7668-5.3064-1.6663-2.8198-9.2798 5.4602.15381-9.2029h-3.3069l.17944 9.2029-9.3054-5.4346-1.6406 2.8198 9.7412 5.2551-9.7412 5.3064z"/><path d="m178.71 560.5 1.6406 2.8198 9.2798-5.4602-.15381 9.2285h3.3069l-.12817-9.2285 9.2542 5.4858 1.6663-2.8198-9.7668-5.3064 9.7668-5.3064-1.6663-2.8198-9.2798 5.4602.15381-9.2029h-3.3069l.17945 9.2029-9.3054-5.4346-1.6406 2.8198 9.7412 5.2551-9.7412 5.3064z"/><path d="m145.29 560.5 1.6406 2.8198 9.2798-5.4602-.15381 9.2285h3.3069l-.12817-9.2285 9.2542 5.4858 1.6663-2.8198-9.7668-5.3064 9.7668-5.3064-1.6663-2.8198-9.2798 5.4602.1538-9.2029h-3.3069l.17944 9.2029-9.3054-5.4346-1.6406 2.8198 9.7412 5.2551-9.7412 5.3064z"/><path d="m111.86 560.5 1.6406 2.8198 9.2798-5.4602-.1538 9.2285h3.3069l-.12817-9.2285 9.2542 5.4858 1.6663-2.8198-9.7668-5.3064 9.7668-5.3064-1.6663-2.8198-9.2798 5.4602.15381-9.2029h-3.3069l.17944 9.2029-9.3054-5.4346-1.6406 2.8198 9.7412 5.2551-9.7412 5.3064z"/><path d="m78.434 560.5 1.6406 2.8198 9.2798-5.4602-.15381 9.2285h3.3069l-.12818-9.2285 9.2542 5.4858 1.6663-2.8198-9.7668-5.3064 9.7668-5.3064-1.6663-2.8198-9.2798 5.4602.15381-9.2029h-3.3069l.17944 9.2029-9.3054-5.4346-1.6406 2.8198 9.7412 5.2551-9.7412 5.3064z"/><path d="m244.14 620.5 1.6406 2.8198 9.2798-5.4602-.15381 9.2285h3.3069l-.12817-9.2285 9.2542 5.4858 1.6663-2.8198-9.7668-5.3064 9.7668-5.3064-1.6663-2.8198-9.2798 5.4602.15381-9.2029h-3.3069l.17944 9.2029-9.3054-5.4346-1.6406 2.8198 9.7412 5.2551-9.7412 5.3064z"/><path d="m210.71 620.5 1.6406 2.8198 9.2798-5.4602-.15381 9.2285h3.3069l-.12817-9.2285 9.2542 5.4858 1.6663-2.8198-9.7668-5.3064 9.7668-5.3064-1.6663-2.8198-9.2798 5.4602.15381-9.2029h-3.3069l.17945 9.2029-9.3054-5.4346-1.6406 2.8198 9.7412 5.2551-9.7412 5.3064z"/><path d="m177.29 620.5 1.6406 2.8198 9.2798-5.4602-.15381 9.2285h3.3069l-.12817-9.2285 9.2542 5.4858 1.6663-2.8198-9.7668-5.3064 9.7668-5.3064-1.6663-2.8198-9.2798 5.4602.1538-9.2029h-3.3069l.17944 9.2029-9.3054-5.4346-1.6406 2.8198 9.7412 5.2551-9.7412 5.3064z"/><path d="m143.86 620.5 1.6406 2.8198 9.2798-5.4602-.1538 9.2285h3.3069l-.12817-9.2285 9.2542 5.4858 1.6663-2.8198-9.7668-5.3064 9.7668-5.3064-1.6663-2.8198-9.2798 5.4602.15381-9.2029h-3.3069l.17944 9.2029-9.3054-5.4346-1.6406 2.8198 9.7412 5.2551-9.7412 5.3064z"/><path d="m110.43 620.5 1.6406 2.8198 9.2798-5.4602-.15381 9.2285h3.3069l-.12818-9.2285 9.2542 5.4858 1.6663-2.8198-9.7668-5.3064 9.7668-5.3064-1.6663-2.8198-9.2798 5.4602.15381-9.2029h-3.3069l.17944 9.2029-9.3054-5.4346-1.6406 2.8198 9.7412 5.2551-9.7412 5.3064z"/><path d="m280.14 680.5 1.6406 2.8198 9.2798-5.4602-.15381 9.2285h3.3069l-.12818-9.2285 9.2542 5.4858 1.6662-2.8198-9.7668-5.3064 9.7668-5.3064-1.6662-2.8198-9.2798 5.4602.15381-9.2029h-3.3069l.17945 9.2029-9.3054-5.4346-1.6406 2.8198 9.7412 5.2551-9.7412 5.3064z"/><path d="m246.71 680.5 1.6406 2.8198 9.2798-5.4602-.15381 9.2285h3.3069l-.12817-9.2285 9.2542 5.4858 1.6663-2.8198-9.7668-5.3064 9.7668-5.3064-1.6663-2.8198-9.2798 5.4602.1538-9.2029h-3.3069l.17944 9.2029-9.3054-5.4346-1.6406 2.8198 9.7412 5.2551-9.7412 5.3064z"/><path d="m213.29 680.5 1.6406 2.8198 9.2798-5.4602-.1538 9.2285h3.3069l-.12817-9.2285 9.2542 5.4858 1.6663-2.8198-9.7668-5.3064 9.7668-5.3064-1.6663-2.8198-9.2798 5.4602.15381-9.2029h-3.3069l.17944 9.2029-9.3054-5.4346-1.6406 2.8198 9.7412 5.2551-9.7412 5.3064z"/><path d="m179.86 680.5 1.6406 2.8198 9.2798-5.4602-.15381 9.2285h3.3069l-.12818-9.2285 9.2542 5.4858 1.6663-2.8198-9.7668-5.3064 9.7668-5.3064-1.6663-2.8198-9.2798 5.4602.15381-9.2029h-3.3069l.17944 9.2029-9.3054-5.4346-1.6406 2.8198 9.7412 5.2551-9.7412 5.3064z"/><path d="m146.43 680.5 1.6406 2.8198 9.2798-5.4602-.1538 9.2285h3.3069l-.12817-9.2285 9.2542 5.4858 1.6663-2.8198-9.7668-5.3064 9.7668-5.3064-1.6663-2.8198-9.2798 5.4602.15381-9.2029h-3.3069l.17944 9.2029-9.3054-5.4346-1.6406 2.8198 9.7412 5.2551-9.7412 5.3064z"/><path d="m314.14 740.5 1.6406 2.8198 9.2798-5.4602-.15381 9.2285h3.3069l-.12817-9.2285 9.2542 5.4858 1.6663-2.8198-9.7668-5.3064 9.7668-5.3064-1.6663-2.8198-9.2798 5.4602.15381-9.2029h-3.3069l.17944 9.2029-9.3054-5.4346-1.6406 2.8198 9.7412 5.2551-9.7412 5.3064z"/><path d="m280.71 740.5 1.6406 2.8198 9.2798-5.4602-.15381 9.2285h3.3069l-.12817-9.2285 9.2542 5.4858 1.6663-2.8198-9.7668-5.3064 9.7668-5.3064-1.6663-2.8198-9.2798 5.4602.1538-9.2029h-3.3069l.17944 9.2029-9.3054-5.4346-1.6406 2.8198 9.7412 5.2551-9.7412 5.3064z"/><path d="m247.29 740.5 1.6406 2.8198 9.2798-5.4602-.1538 9.2285h3.3069l-.12817-9.2285 9.2542 5.4858 1.6663-2.8198-9.7668-5.3064 9.7668-5.3064-1.6663-2.8198-9.2798 5.4602.15381-9.2029h-3.3069l.17944 9.2029-9.3054-5.4346-1.6406 2.8198 9.7412 5.2551-9.7412 5.3064z"/><path d="m213.86 740.5 1.6406 2.8198 9.2798-5.4602-.15381 9.2285h3.3069l-.12818-9.2285 9.2542 5.4858 1.6663-2.8198-9.7668-5.3064 9.7668-5.3064-1.6663-2.8198-9.2798 5.4602.15381-9.2029h-3.3069l.17944 9.2029-9.3054-5.4346-1.6406 2.8198 9.7412 5.2551-9.7412 5.3064z"/><path d="m180.43 740.5 1.6406 2.8198 9.2798-5.4602-.1538 9.2285h3.3069l-.12817-9.2285 9.2542 5.4858 1.6663-2.8198-9.7668-5.3064 9.7668-5.3064-1.6663-2.8198-9.2798 5.4602.15381-9.2029h-3.3069l.17944 9.2029-9.3054-5.4346-1.6406 2.8198 9.7412 5.2551-9.7412 5.3064z"/></g></svg>