<svg xmlns="http://www.w3.org/2000/svg" height="89.825mm" width="33.452mm" viewBox="0 0 118.53 318.2782"><g transform="translate(-360.74 -464.65)"><path style="fill:#b9ff7b;fill-opacity:.70196" d="m479.22 782.93-62.94-85.04 17.99-.29z"/><path style="fill:#b2ff6f;fill-opacity:.91483" d="m475.78 776.39-47.5-88.733 9.0273.11092z"/><path style="fill:#b9ff7b;fill-opacity:.70196" d="m360.82 623.66 74.036 73.994-18.658.23507z"/><path style="fill:#b2ff70;fill-opacity:.48235" d="m433.42 696.22-72.597-72.562 28.663.0199z"/><path style="fill:#b8ff7a;fill-opacity:.66275" d="m409.5 623.67-20.009-.0209c16.271 21.47 31.659 42.821 47.98 64.234z"/><path style="fill:#b9ff7b;fill-opacity:.70199" d="m478.78 464.65-62.1 83.135 17.6-.051z"/><path style="fill:#b2ff70;fill-opacity:.86755" d="m474.68 472.37-46.16 85.774 8.927.14953z"/><path style="fill:#b3ff70;fill-opacity:.66225" d="m360.74 622.68 74.105-75.017-18.122.0953z"/><path style="fill:#b3ff70;fill-opacity:.48344" d="m434.84 547.45-74.036 75.201 29.295-.004z"/><path style="fill:#b9ff7b;fill-opacity:.66225" d="m409.46 622.65-19.361.0174 38.408-64.515 8.8969.0959z"/><path style="fill-opacity:.85098;fill:#b3ff70;fill-rule:evenodd" d="m437.52 687.83-9.2641-.11091-38.899-64.258z"/><path style="fill:#ade3fb;fill-opacity:.36278" d="m477.9 778.63-21.594-49.626 7.8169-.7221z"/><path style="fill:#ade2fb;fill-opacity:.39117" d="m477.32 776.01-20.279-73.148 6.6817.16638z"/><path style="fill:#ade2fb;fill-opacity:.66246" d="m456.26 729 8.6071-.81545c-9.5674-16.891-45.325-87.657-54.141-104.47z"/><path style="fill:#ade2fb;fill-opacity:.50980" d="m463.84 727.23-53.184-103.56 24.168-.0392z"/><path style="fill:#ade2fb;fill-opacity:.70978" d="m434.84 623.67 14.012.006 14.831 79.467-6.7291-.27729z"/><path style="fill:#ade3fb;fill-opacity:.36278" d="m477.9 468.02-21.594 49.47 7.8169.71982z"/><path style="fill:#ade2fb;fill-opacity:.39117" d="m477.32 470.63-20.279 72.918 6.6817-.16585z"/><path style="fill:#ade2fb;fill-opacity:.66246" d="m456.26 517.5 8.6071.81288c-9.5674 16.838-45.325 87.381-54.141 104.14z"/><path style="fill:#ade2fb;fill-opacity:.50980" d="m463.84 519.25-53.184 103.23 24.168.039z"/><path style="fill:#ade2fb;fill-opacity:.70978" d="m434.84 622.49 14.012-.006 14.831-79.217-6.7291.27641z"/><path style="fill-opacity:.91968;fill:#fbb8ad;fill-rule:evenodd" d="m479.26 780.32-15.261-81.558 15.097-.058z"/><path style="fill-opacity:.91165;fill:#fbb8ad;fill-rule:evenodd" d="m479.16 698.56-29.371-74.911 29.306-.0677z"/><path style="fill-opacity:.80321;fill:#fbb8ad;fill-rule:evenodd" d="m449.96 623.87 29.149 74.467-15.285.28948z"/><path style="fill-opacity:.91968;fill:#fbb8ad;fill-rule:evenodd" d="m479.26 467.16-15.261 81.423 15.046.41442z"/><path style="fill-opacity:.91165;fill:#fbb8ad;fill-rule:evenodd" d="m479.16 548.6-29.26 73.967 28.838.00018z"/><path style="fill-opacity:.80321;fill:#fbb8ad;fill-rule:evenodd" d="m449.96 623.34 29.149-74.52-15.289-.111z"/></g></svg>