<svg xmlns:rdf="http://www.w3.org/1999/02/22-rdf-syntax-ns#" xmlns="http://www.w3.org/2000/svg" height="244.12mm" width="119.49mm" version="1.1" xmlns:cc="http://creativecommons.org/ns#" xmlns:dc="http://purl.org/dc/elements/1.1/" viewBox="0 0 423.39989 864.992">
<defs>
<marker id="b" refY="0" refX="0" style="overflow:visible" orient="auto">
<path d="m8.7186 4.0337-10.926-4.0177 10.926-4.0177c-1.7455 2.3721-1.7354 5.6175-6e-7 8.0354z" style="stroke-linejoin:round;stroke-opacity:.96078;fill-rule:evenodd;stroke:#696969;stroke-width:.625;fill:#f7df79" transform="matrix(-1.1,0,0,-1.1,-1.1,0)"/>
</marker>
<marker id="e" refY="0" refX="0" style="overflow:visible" orient="auto">
<path style="stroke-linejoin:round;stroke-opacity:.96078;fill-rule:evenodd;stroke:#696969;stroke-width:.625;fill:#f7df79" transform="matrix(-1.1,0,0,-1.1,-1.1,0)" d="m8.7186 4.0337-10.926-4.0177 10.926-4.0177c-1.7455 2.3721-1.7354 5.6175-6e-7 8.0354z"/>
</marker>
<marker id="a" refY="0" refX="0" style="overflow:visible" orient="auto">
<path style="stroke-linejoin:round;stroke-opacity:.96078;fill-rule:evenodd;stroke:#696969;stroke-width:.625;fill:#f7df79" transform="matrix(-1.1,0,0,-1.1,-1.1,0)" d="m8.7186 4.0337-10.926-4.0177 10.926-4.0177c-1.7455 2.3721-1.7354 5.6175-6e-7 8.0354z"/>
</marker>
<marker id="d" refY="0" refX="0" style="overflow:visible" orient="auto">
<path d="m8.7186 4.0337-10.926-4.0177 10.926-4.0177c-1.7455 2.3721-1.7354 5.6175-6e-7 8.0354z" style="stroke-linejoin:round;stroke-opacity:.96078;fill-rule:evenodd;stroke:#696969;stroke-width:.625;fill:#f7df79" transform="matrix(-1.1,0,0,-1.1,-1.1,0)"/>
</marker>
<marker id="c" refY="0" refX="0" style="overflow:visible" orient="auto">
<path style="stroke-linejoin:round;stroke-opacity:.96078;fill-rule:evenodd;stroke:#696969;stroke-width:.625;fill:#f7df79" transform="matrix(-1.1,0,0,-1.1,-1.1,0)" d="m8.7186 4.0337-10.926-4.0177 10.926-4.0177c-1.7455 2.3721-1.7354 5.6175-6e-7 8.0354z"/>
</marker>
</defs>
<g transform="translate(565.99 109.85)">
<path style="stroke:#696969;stroke-width:2;fill:none" d="m-345.73 139.24h202.08l.0623 497.93"/>
<rect style="stroke-linejoin:round;color-rendering:auto;color:#000000;shape-rendering:auto;solid-color:#000000;stroke:#696969;stroke-linecap:round;stroke-width:3.0925;fill:#fff987;fill-rule:evenodd;mix-blend-mode:normal;image-rendering:auto;isolation:auto" transform="matrix(.81797 .57526 -.81797 .57526 0 0)" rx="0" ry="0" height="133.86" width="133.86" y="332.63" x="-222.79"/>
<rect style="stroke-linejoin:round;color-rendering:auto;color:#000000;shape-rendering:auto;solid-color:#000000;stroke:#696969;stroke-linecap:round;stroke-width:3;fill:#fba986;fill-rule:evenodd;mix-blend-mode:normal;image-rendering:auto;isolation:auto" rx="23.964" ry="31.996" height="63.992" width="194.6" y="689.65" x="-551.12"/>
<rect style="stroke-linejoin:round;color-rendering:auto;color:#000000;shape-rendering:auto;solid-color:#000000;stroke:#696969;stroke-linecap:round;stroke-width:3;fill:#e0ff87;fill-rule:evenodd;mix-blend-mode:normal;image-rendering:auto;isolation:auto" rx="23.964" ry="31.996" height="63.992" width="194.6" y="-108.35" x="-551.62"/>
<text style="letter-spacing:0px;font-size:17.5px;word-spacing:0px;font-family:sans-serif;line-height:125%;fill:#ffffff" xml:space="preserve" y="-63.628693" x="-511.60251"><tspan x="-511.60251" style="font-size:35px;fill:#ffffff" y="-63.628693">START</tspan></text>
<text style="letter-spacing:0px;font-size:17.5px;word-spacing:0px;font-family:sans-serif;line-height:125%;fill:#ffffff" y="734.3714" x="-501.12006" xml:space="preserve"><tspan y="734.3714" x="-501.12006" style="font-size:35px;fill:#ffffff">STOP</tspan></text>
<text style="letter-spacing:0px;font-size:17.5px;word-spacing:0px;font-family:sans-serif;line-height:125%;fill:#000000" xml:space="preserve" y="-63.628693" x="-511.60251"><tspan x="-511.60251" style="font-size:35px" y="-63.628693">START</tspan></text>
<text style="letter-spacing:0px;font-size:17.5px;word-spacing:0px;font-family:sans-serif;line-height:125%;fill:#000000" y="734.3714" x="-501.12006" xml:space="preserve"><tspan y="734.3714" x="-501.12006" style="font-size:35px">STOP</tspan></text>
<rect style="stroke-linejoin:round;color-rendering:auto;color:#000000;shape-rendering:auto;solid-color:#000000;stroke:#696969;stroke-linecap:round;stroke-width:3;fill:#c4e4ff;fill-rule:evenodd;mix-blend-mode:normal;image-rendering:auto;isolation:auto" rx="0" ry="0" height="53.763" width="220.34" y="529.17" x="-564.49"/>
<path style="marker-end:url(#e);stroke-opacity:.96078;fill-rule:evenodd;stroke:#696969;stroke-width:2;fill:#f7df79" d="m-454.34-41.807v96.492"/>
<path d="m-454.32 218.19v70.36" style="marker-end:url(#a);stroke-opacity:.96078;fill-rule:evenodd;stroke:#696969;stroke-width:2;fill:#f7df79"/>
<text style="letter-spacing:0px;font-size:17.5px;word-spacing:0px;font-family:sans-serif;line-height:125%;fill:#000000" xml:space="preserve" y="325.36218" x="-667.55963"><tspan x="-667.55963" y="325.36218"/></text>
<text style="letter-spacing:0px;font-size:17.5px;word-spacing:0px;font-family:sans-serif;line-height:125%;fill:#000000" y="129.14352" x="-454.45773" xml:space="preserve"><tspan y="129.14352" x="-454.45773" style="font-size:25px;text-anchor:middle;text-align:center">Test</tspan><tspan y="160.39352" x="-454.45773" style="font-size:25px;text-anchor:middle;text-align:center">Expression</tspan></text>
<path d="m-454.34 582.19v98.492" style="marker-end:url(#d);stroke-opacity:.96078;fill-rule:evenodd;stroke:#696969;stroke-width:2;fill:#f7df79"/>
<path style="marker-end:url(#c);stroke-opacity:.96078;fill-rule:evenodd;stroke:#696969;stroke-width:2;fill:#f7df79" d="m-143.09 636.24h-304.49"/>
<text style="letter-spacing:0px;font-size:17.5px;word-spacing:0px;font-family:sans-serif;line-height:125%;fill:#000000" xml:space="preserve" y="563.09888" x="-455.94089"><tspan x="-455.94089" style="font-size:25px;text-anchor:middle;text-align:center" y="563.09888">Body of if</tspan></text>
<text style="letter-spacing:0px;font-size:17.5px;word-spacing:0px;font-family:sans-serif;line-height:125%;fill:#ff5353" y="131.09886" x="-257.94089" xml:space="preserve"><tspan y="131.09886" x="-257.94089" style="text-align:center;font-size:25px;fill:#ff5353;text-anchor:middle">FALSE</tspan></text>
<text style="letter-spacing:0px;font-size:17.5px;word-spacing:0px;font-family:sans-serif;line-height:125%;fill:#39cb63" xml:space="preserve" y="253.96556" x="-397.94089"><tspan x="-397.94089" style="text-align:center;font-size:25px;fill:#39cb63;text-anchor:middle" y="253.96556">TRUE</tspan></text>
<rect ry="0" style="stroke-linejoin:round;color-rendering:auto;color:#000000;shape-rendering:auto;solid-color:#000000;stroke:#696969;stroke-linecap:round;stroke-width:3.0925;fill:#fff987;fill-rule:evenodd;mix-blend-mode:normal;image-rendering:auto;isolation:auto" rx="0" transform="matrix(.81797 .57526 -.81797 .57526 0 0)" height="133.86" width="133.86" y="534.28" x="-21.14"/>
<path style="marker-end:url(#a);stroke-opacity:.96078;fill-rule:evenodd;stroke:#696969;stroke-width:2;fill:#f7df79" d="m-454.32 450.19v70.36"/>
<text style="letter-spacing:0px;font-size:17.5px;word-spacing:0px;font-family:sans-serif;line-height:125%;fill:#000000" xml:space="preserve" y="361.14352" x="-454.45773"><tspan x="-454.45773" style="font-size:25px;text-anchor:middle;text-align:center" y="361.14352">Test</tspan><tspan x="-454.45773" style="font-size:25px;text-anchor:middle;text-align:center" y="392.39352">Expression</tspan></text>
<text style="letter-spacing:0px;font-size:17.5px;word-spacing:0px;font-family:sans-serif;line-height:125%;fill:#39cb63" y="485.96558" x="-397.94089" xml:space="preserve"><tspan y="485.96558" x="-397.94089" style="text-align:center;font-size:25px;fill:#39cb63;text-anchor:middle">TRUE</tspan></text>
<path d="m-348.12 372.22h198.56" style="marker-end:url(#b);stroke-opacity:.96078;fill-rule:evenodd;stroke:#696969;stroke-width:2;fill:#f7df79"/>
<text style="letter-spacing:0px;font-size:17.5px;word-spacing:0px;font-family:sans-serif;line-height:125%;fill:#ff5353" xml:space="preserve" y="363.09888" x="-257.94089"><tspan x="-257.94089" style="text-align:center;font-size:25px;fill:#ff5353;text-anchor:middle" y="363.09888">FALSE</tspan></text>
</g>
</svg>