<svg xmlns:rdf="http://www.w3.org/1999/02/22-rdf-syntax-ns#" xmlns="http://www.w3.org/2000/svg" height="341.49mm" width="750.65mm" version="1.1" xmlns:cc="http://creativecommons.org/ns#" xmlns:dc="http://purl.org/dc/elements/1.1/" viewBox="0 0 2659.7697 1209.9938">
 <defs>
  <filter id="a" style="color-interpolation-filters:sRGB" height="1.1038" width="1.1643" y="-.051884" x="-.082150">
   <feGaussianBlur stdDeviation="0.018152758"/>
  </filter>
  <filter id="b" style="color-interpolation-filters:sRGB" height="1.085" width="1.1041" y="-.042514" x="-.052048">
   <feGaussianBlur stdDeviation="0.016500179"/>
  </filter>
  <filter id="n" style="color-interpolation-filters:sRGB" height="1.0294" width="1.0283" y="-.01468" x="-.01413">
   <feGaussianBlur stdDeviation="0.37962714"/>
  </filter>
  <filter id="h" style="color-interpolation-filters:sRGB" height="1.1267" width="1.0835" y="-.063367" x="-.041757">
   <feGaussianBlur stdDeviation="0.56797809"/>
  </filter>
  <filter id="l" style="color-interpolation-filters:sRGB" height="1.0265" width="1.0315" y="-.013266" x="-.015746">
   <feGaussianBlur stdDeviation="0.40940442"/>
  </filter>
  <filter id="f" style="color-interpolation-filters:sRGB" height="1.4136" width="1.1348" y="-.2068" x="-.067418">
   <feGaussianBlur stdDeviation="0.36776366"/>
  </filter>
  <filter id="g" style="color-interpolation-filters:sRGB" height="1.2307" width="1.1116" y="-.11536" x="-.055819">
   <feGaussianBlur stdDeviation="0.36776366"/>
  </filter>
  <filter id="d" style="color-interpolation-filters:sRGB" height="1.7233" width="1.2966" y="-.36163" x="-.14832">
   <feGaussianBlur stdDeviation="0.36776366"/>
  </filter>
  <filter id="e" style="color-interpolation-filters:sRGB" height="1.5191" width="1.6107" y="-.25956" x="-.30536">
   <feGaussianBlur stdDeviation="0.36776366"/>
  </filter>
  <filter id="c" style="color-interpolation-filters:sRGB" height="1.4771" width="1.1314" y="-.23857" x="-.065711">
   <feGaussianBlur stdDeviation="0.36776366"/>
  </filter>
  <filter id="m" style="color-interpolation-filters:sRGB" height="1.1414" width="1.0685" y="-.070688" x="-.034268">
   <feGaussianBlur stdDeviation="0.56797809"/>
  </filter>
 </defs>
 <g transform="translate(1318.2 172.53)">
  <rect style="stroke-linejoin:round;color-rendering:auto;color:#000000;shape-rendering:auto;solid-color:#000000;stroke:#b69804;stroke-linecap:round;fill:#ace5f4;fill-rule:evenodd;mix-blend-mode:normal;image-rendering:auto;isolation:auto" ry="11.436" height="1208.5" width="2653.4" y="-172.03" x="-1312.3"/>
  <path style="fill:#60b365;fill-rule:evenodd" d="m1285.7 981.83 32.45 34.769s17.882 9.8141-7.081 18.254c-24.963 8.44-38.624-13.345-38.624-13.345l6.7823-5.9284-11.241.051-6.6411-9.8649 6.9302-6.8694-9.7129 2.2383-6.6503-14.273 6.4496-3.8107s2.8318-1.639-1.3175-2.7861c-4.1492-1.1471-9.4897-4.3951-9.4897-4.3951s-5.1962-29.484-1.9792-32.085c3.2171-2.6009 5.5469.44517 5.5469.44517z"/>
  <path style="fill:#60b365;fill-rule:evenodd" d="m1340.1 938.36v77.273s8.1088 31.481-22.418 13.832c-30.527-17.648-24.326-58.669-24.326-58.669l11.448.47699-10.494-12.402 2.385-19.079 12.402-.47692-10.971-8.1088 6.2008-24.326 9.3014 2.6234s4.0544 1.1924 1.1924-4.7699c-2.8619-5.9623-5.0082-15.741-5.0082-15.741s20.749-40.784 25.996-40.304c5.247.47692 4.7699 6.6779 4.7699 6.6779z"/>
  <path style="fill:#346e40;fill-rule:evenodd" d="m1286.7 980.83 32.45 34.769s8.558 18.516 18.699-5.8057-10.651-39.452-10.651-39.452l-6.3816 6.3576.8256-11.211-9.3833-7.305-7.331 6.4404 2.9026-9.5357-13.781-7.6185-4.2464 6.1716s-1.8304 2.7122-2.6887-1.5064-3.7305-9.7701-3.7305-9.7701-29.056-7.2162-31.872-4.186c-2.8165 3.0301.062 5.5641.062 5.5641z"/>
  <g transform="translate(-14)">
   <path style="fill:#346e40;fill-rule:evenodd" d="m220.43 796.51v94.702s-9.938 38.583 27.475 16.953 29.814-71.906 29.814-71.906l-14.03.58459 12.861-15.199-2.923-23.383-15.199-.58454 13.445-9.9381-7.5997-29.814-11.399 3.2152s-4.969 1.4614-1.4615-5.846 6.138-19.291 6.138-19.291-25.429-49.982-31.86-49.398c-6.4304.58458-5.846 8.184-5.846 8.184z"/>
   <path style="fill:#60b365;fill-rule:evenodd" d="m151.4 849.78 39.769 42.612s21.917 12.028-8.6783 22.372-47.339-16.355-47.339-16.355l8.3124-7.2658-13.777.0624-8.1392-12.09 8.4935-8.4192-11.904 2.7433-8.1504-17.493 7.9045-4.6703s3.4707-2.0088-1.6146-3.4146c-5.0854-1.4058-11.631-5.3865-11.631-5.3865s-6.3684-36.135-2.4256-39.323c3.9428-3.1876 6.7979.54562 6.7979.54562z"/>
   <path style="fill:#60b365;fill-rule:evenodd" d="m218.11 796.51v94.702s9.938 38.583-27.475 16.953-29.814-71.906-29.814-71.906l14.03.58459-12.861-15.199 2.9229-23.383 15.199-.58454-13.445-9.9381 7.5997-29.814 11.399 3.2152s4.969 1.4614 1.4615-5.846-6.138-19.291-6.138-19.291 25.429-49.982 31.86-49.398c6.4304.58458 5.846 8.184 5.846 8.184z"/>
   <path style="fill:#346e40;fill-rule:evenodd" d="m152.76 848.54 39.769 42.612s10.488 22.693 22.917-7.1154c12.428-29.809-13.053-48.351-13.053-48.351l-7.8213 7.7917 1.0118-13.74-11.5-8.953-8.9846 7.8929 3.5573-11.687-16.889-9.337-5.2042 7.5637s-2.2433 3.324-3.2952-1.8462-4.5719-11.974-4.5719-11.974-35.611-8.8443-39.062-5.1306c-3.4518 3.7136.076 6.8194.076 6.8194z"/>
   <path style="fill:#60b365;fill-rule:evenodd" d="m273.7 849.78-39.769 42.612s-21.916 12.028 8.6783 22.372c30.595 10.344 47.339-16.355 47.339-16.355l-8.3124-7.2658 13.777.0624 8.1392-12.09-8.4935-8.4192 11.904 2.7433 8.1504-17.493-7.9045-4.6703s-3.4707-2.0088 1.6146-3.4146c5.0854-1.4058 11.631-5.3865 11.631-5.3865s6.3684-36.135 2.4256-39.323c-3.9428-3.1876-6.7979.54562-6.7979.54562z"/>
   <path style="fill:#346e40;fill-rule:evenodd" d="m272.38 848.54-39.769 42.612s-10.488 22.693-22.917-7.1154c-12.428-29.809 13.053-48.351 13.053-48.351l7.8213 7.7917-1.0119-13.74 11.5-8.953 8.9846 7.8929-3.5574-11.687 16.889-9.337 5.2042 7.5637s2.2433 3.324 3.2952-1.8462 4.5719-11.974 4.5719-11.974 35.611-8.8443 39.062-5.1306c3.4518 3.7136-.076 6.8194-.076 6.8194z"/>
   <path style="fill:#9c7625;fill-rule:evenodd" d="m204.59 883.29s15.527-4.7095 30.052-2.9747c14.526 1.735 13.763 3.8664 4.5079 3.9867-10.018.13038-19.534.43373-19.534.43373s-14.526 1.0121-15.026-1.4458z"/>
   <path style="fill:#836014;fill-rule:evenodd" d="m224.67 882.01s7.6937-2.6918 14.454-1.8843c6.7611.80758 5.5953 2.961 1.6319 2.3554-3.9632-.60566-9.0922.20196-9.0922.20196s-6.7611.47104-6.9942-.67296z"/>
  </g>
  <path style="fill:#90bf3f;fill-rule:evenodd" d="m-1318.2 1036.4s707.02 2.3708 1465.4-.5909c520.06-2.031 832.44-6.8814 1180.3.591 0 0-312.27-97.397-806.52-146.56-623.28-62-1383.7 2.9614-1839.1 146.56z"/>
  <path d="m34.531 397.97s-15.939-21.589-28.28-4.0842c0 0-5.6559 21.004-1.5425 33.258 0 0 17.483 28.59 27.766 9.3355z" style="fill:#edd0b5;fill-rule:evenodd"/>
  <path d="m36.836 408.25s-37.896-48.385-31.478-94.631c0 0 14.387-15.169 35.391-6.2763 0 0 18.296 29.136 16.322 58.351-.87314 12.923-12.72 34.01-20.236 42.556z" style="fill:#eceffb;fill-rule:evenodd"/>
  <path d="m209 390.53s14.229-19.568 25.244-3.7019c0 0 5.049 19.038 1.377 30.144 0 0-15.606 25.913-24.786 8.4615z" style="fill:#edd0b5;fill-rule:evenodd"/>
  <path d="m209.41 395.86s20.123-41.426 13.144-86.936c0 0-11.607-14.515-34.447-5.7638 0 0 12.568 26.663 13.367 54.142.41719 14.335-1.1989 29.157 7.9369 38.558z" style="fill:#eceffb;fill-rule:evenodd"/>
  <path d="m78.111 516.18 55.443 63.348 68.815-88.321s-126.34 12.691-127.99 16.586" style="fill:#7fcce3;fill-rule:evenodd"/>
  <path d="m74.984 856.01s-10.898-120.37 68.316-125.32c0 0 84.99-14.027 89.941 127.9l22.279-.8251s5.776-75.914-28.055-158.43l-182.36-5.77s-1.2378 136.15 7.0138 164.21z" style="fill:#103a46;fill-rule:evenodd"/>
  <path d="m233.24 857.76s-4.5384 23.104 2.0628 21.867l68.9-.41251s-.82519-44.558-45.384-23.929z" style="fill:#292114;fill-rule:evenodd"/>
  <path d="m75.98 854.07s5.0807 24.383-2.3094 23.077l-77.124-.42388s.92377-47.024 50.806-25.253z" style="fill:#292114;fill-rule:evenodd"/>
  <path d="m298.6 643.27c6.7509-59.356-23.559-138.42-84.607-149.94l9.9131 47.09c38.878 18.502 50.431 60.544 43.338 99.543 4.9509-6.6012 31.355 3.3006 31.355 3.3006z" style="fill:#75cae5;fill-rule:evenodd"/>
  <path style="fill:#75cae5;fill-rule:evenodd" d="m-34.83 647.27c-6.7509-59.356 23.559-138.42 84.607-149.94l-9.9131 47.09c-38.878 18.502-50.431 60.544-43.338 99.543-4.9509-6.6012-31.355 3.3006-31.355 3.3006z"/>
  <path d="m31.082 576.39s-.82517 113.05 0 121.3c0 0 147.7 23.929 208.76-.82515 0 0-4.4363-204.02-36.006-215.56 0 0-63.835 75.288-69.612 95.917 0 0-61.061-84.165-77.564-84.99 0 0-23.104 4.1257-25.58 84.165z" style="fill:#245d6e;fill-rule:evenodd"/>
  <path style="stroke:#e8b27f;stroke-width:.099999;fill:#efd0b4;fill-rule:evenodd" d="m-34.051 645.62s-25.58 26.405-21.453 65.186c0 0 3.3006 7.839 9.4891 5.776 0 0-.82508-16.503.82519-23.517-1.2211 17.607 11.067 43.571 16.503 26.817 0 0-3.7132-22.279-2.0628-27.642 0 0 6.1885 35.482 14.44 37.544 0 0 11.139 4.9509 7.839-6.6012 0 0-9.0766-15.266-7.4263-31.768 0 0 12.79 34.243 18.979 32.181 14.809-11.881-12.961-12.131 2.0628-42.908 0 0 4.1257-4.9509 5.7761 2.4754 0 0 10.727 27.642 17.74 7.0138 0 0-10.727-35.894-32.594-48.271 0 0-26.817-.82515-30.118 3.7132z"/>
  <path d="m31.082 441.89s0 67.662 66.837 69.313c0 0 19.804-2.4754 24.754 4.9509 0 0 27.23 5.776 37.956-7.4263 0 0 51.159-1.9753 58.586-75.413 0 0-14.027-50.009-14.852-60.736-.82517-10.727-4.9509-56.11-11.552-67.662 0 0-37.956-43.733-103.14-30.53 0 0-42.083 13.202-51.159 33.006 0 0 6.6012 37.956 4.9509 47.033 0 0-.82517 45.384-5.7761 48.684l-5.7761-2.4754z" style="fill:#efcdb1;fill-rule:evenodd"/>
  <path d="m64.776 391.05s10.502-18.087 38.509-19.838c0 0 10.502 2.9174 2.9173 9.919 0 0-32.091 10.502-41.426 9.919z" style="fill:#eaf0fc;fill-rule:evenodd"/>
  <path d="m90.645 351.12s35.592 5.2512 43.177 3.5007c7.585-1.7504 23.922-10.502 29.174-9.919" style="stroke:#dbb493;stroke-width:2;fill:none"/>
  <path d="m82.476 362.21s30.34.58345 37.925 4.0842c7.5851 3.5009 17.504-2.3339 22.755-4.0842 5.2512-1.7504 21.589-6.4181 27.423-5.2512" style="stroke:#dbb493;stroke-width:2;fill:none"/>
  <path d="m194.69 392.38s-10.502-18.087-38.509-19.838c0 0-10.502 2.9174-2.9174 9.919 0 0 32.091 10.502 41.426 9.919z" style="fill:#eaf0fc;fill-rule:evenodd"/>
  <path d="m120.89 444.07s-19.255 15.171 15.171 11.67c0 0 27.423 2.9173 14.003-12.253" style="fill:none"/>
  <path d="m111.08 471.08s-12.084 2.0489-13.323 24.534c0 0-1.4898 6.4384-2.6713 6.6496" style="stroke:#e5bb99;stroke-width:0.2;fill:#dab28e;fill-rule:evenodd"/>
  <path d="m167.09 457.49s13.846 4.6677 10.296 33.841" style="stroke:#e5bb99;stroke-width:0.2;fill:#dab28e;fill-rule:evenodd"/>
  <path d="m116.8 470.74s37.342 2.9296 47.844-6.8358c0 0-24.752 1.9556-38.888 3.9166-7.1822.99626-6.2046-1.6867-8.9564 2.9192z" style="fill:#d6a59b;fill-rule:evenodd"/>
  <path d="m126.82 487.25s32.674-18.352 36.758 14.006" style="stroke:#e5bb99;stroke-width:2;stroke-linecap:square;fill:none"/>
  <path d="m31.965 405.2s-9.6619-13.218-17.142-2.5007c0 0-3.4285 12.861-.93504 20.363 0 0 10.597 17.505 16.831 5.7158z" style="fill:#dbb18f;fill-rule:evenodd"/>
  <path d="m214.96 399.27s6.8095-8.3363 12.081-1.5771c0 0 2.4162 8.111.6594 12.843 0 0-7.4683 11.04-11.862 3.6049z" style="fill:#dbb18f;fill-rule:evenodd"/>
  <path d="m124.34 422.33s10.629-10.021 21.967-.7158" style="stroke:#71494a;stroke-width:2;fill:none"/>
  <rect style="stroke-linejoin:round;color-rendering:auto;fill-rule:evenodd;color:#000000;isolation:auto;mix-blend-mode:normal;shape-rendering:auto;solid-color:#000000;stroke:#52211e;stroke-linecap:round;image-rendering:auto;stroke-width:2;fill:#e6e6e6" rx="9.5303" ry="7.42" height="39.692" width="58.191" y="398.87" x="148.13"/>
  <path d="m150.05 427.05s33.177 4.3796 35.941-6.0794c2.7649-10.459.30979-20.932.30979-20.932s-31.731-2.5747-35.004 2.8923c-4.361 7.2834-1.2468 24.119-1.2468 24.119z" style="fill:#dad2d0;fill-rule:evenodd"/>
  <path d="m120.5 440.82-5.8346 8.1686s2.3128 8.4874 28.309 3.1966c11.674-4.0957 10.489-6.5153 6.6994-13.698" style="stroke:#eac1a0;stroke-width:2;fill:none"/>
  <path d="m206.84 380.42s13.202-25.168 15.266-35.068c0 0-.00008 26.817-11.14 39.607 0 0-4.951 2.4754-4.1258-4.5384z" style="fill:#e2e3ea;fill-rule:evenodd"/>
  <rect style="stroke-linejoin:round;color-rendering:auto;fill-rule:evenodd;color:#000000;isolation:auto;mix-blend-mode:normal;shape-rendering:auto;solid-color:#000000;stroke:#52211e;stroke-linecap:round;image-rendering:auto;stroke-width:2;fill:#e6e6e6" rx="9.5303" ry="7.42" height="39.692" width="58.191" y="398.87" x="65.647"/>
  <path d="m67.125 427.46s32.126 3.7962 34.755-6.6628c2.6287-10.459 1.4617-20.516 1.4617-20.516s-32.513-1.2073-34.374 1.184c-4.6246 5.9426-1.8423 25.996-1.8423 25.996z" style="fill:#dad2d0;fill-rule:evenodd"/>
  <ellipse style="color-rendering:auto;fill-rule:evenodd;color:#000000;isolation:auto;mix-blend-mode:normal;shape-rendering:auto;solid-color:#000000;image-rendering:auto" rx="6.4181" ry="6.384" cy="407.16" cx="73.701"/>
  <ellipse style="color-rendering:auto;fill-rule:evenodd;color:#000000;isolation:auto;mix-blend-mode:normal;shape-rendering:auto;solid-color:#000000;image-rendering:auto" rx="6.4181" ry="6.384" transform="scale(-1,1)" cy="408.25" cx="-157.85"/>
  <circle r="1.5625" cy="405.56" cx="72.36" style="color-rendering:auto;fill-rule:evenodd;color:#000000;isolation:auto;mix-blend-mode:normal;shape-rendering:auto;solid-color:#000000;image-rendering:auto;fill:#fff"/>
  <circle cx="159.27" style="color-rendering:auto;fill-rule:evenodd;color:#000000;isolation:auto;mix-blend-mode:normal;shape-rendering:auto;solid-color:#000000;image-rendering:auto;fill:#fff" r="1.5625" cy="406.07"/>
  <path d="m31.046 635.21s21.961 9.3441 105.6 8.9724c30.742-.13665 96.765-3.9286 100.34-10.852l1.5712 30.191s-29.619 6.6332-101.03 6.407c-61.144-.19361-105.72-.17241-106.06-7.1532-.67423-13.551-.42080-27.564-.42080-27.564z" style="fill:#e8b559;fill-rule:evenodd"/>
  <path d="m30.998 675.83s30.761 4.0631 114.4 3.911c30.742-.0562 89.764-2.1914 93.344-5.0251l-.92534 12.788s-58.046 1.1959-91.534 1.8197c-61.081 1.1379-113.84 1.9805-114.91-1.4467-1.6503-5.306-.37306-12.046-.37306-12.046z" style="fill:#e8b559;fill-rule:evenodd"/>
  <path d="m297.82 641.62s25.58 26.405 21.453 65.186c0 0-3.3006 7.839-9.4891 5.776 0 0 .82508-16.503-.82519-23.517 1.2211 17.607-11.067 43.571-16.503 26.817 0 0 3.7132-22.279 2.0628-27.642 0 0-6.1885 35.482-14.44 37.544 0 0-11.139 4.9509-7.839-6.6012 0 0 9.0766-15.266 7.4263-31.768 0 0-12.79 34.243-18.979 32.181-14.809-11.881 12.961-12.131-2.0628-42.908 0 0-4.1257-4.9509-5.7761 2.4754 0 0-10.727 27.642-17.74 7.0138 0 0 10.727-35.894 32.594-48.271 0 0 26.817-.82515 30.118 3.7132z" style="stroke:#e8b27f;stroke-width:.099999;fill:#efd0b4;fill-rule:evenodd"/>
  <g transform="matrix(.44632 0 0 .44632 -732.28 566)">
   <path style="fill:#316c3c;fill-rule:evenodd" d="m-1072.9 990.35c-58.409 6.2144-15.389-252.57-1.8024-323.2 2.1506-11.179 6.1952-16.849 6.1952-16.849s5.7068 5.6857 7.1853 13.498c10.859 57.385 47.815 297.32-11.578 326.55z"/>
   <path style="fill:#509554;fill-rule:evenodd" d="m-1084.5 998.91c-55.481-16.194 80.48-235.62 119.26-294.81 6.1392-9.3693 11.941-13.016 11.941-13.016s3.0669 7.3094 1.4898 14.972c-11.585 56.289-67.711 288.47-132.69 292.85z"/>
   <path style="fill:#316c3c;fill-rule:evenodd" d="m-1086.6 1010.6c-48.263-29.614 144.68-189.9 198.74-232.57 8.5571-6.7539 15.143-8.4563 15.143-8.4563s.81958 7.4014-2.893 13.86c-27.273 47.439-147.73 240.87-210.99 227.17z"/>
   <path style="fill:#509554;fill-rule:evenodd" d="m-1055 990.43c55.481-16.194-80.48-235.62-119.26-294.81-6.1392-9.3694-11.941-13.016-11.941-13.016s-3.0668 7.3094-1.4898 14.972c11.585 56.289 67.711 288.47 132.69 292.85z"/>
   <path style="fill:#316c3c;fill-rule:evenodd" d="m-1052.8 1002.1c48.262-29.614-144.68-189.9-198.74-232.57-8.5571-6.7539-15.143-8.4564-15.143-8.4564s-.8196 7.4014 2.893 13.86c27.273 47.439 147.73 240.87 210.99 227.17z"/>
   <path style="fill:#509554;fill-rule:evenodd" d="m-1082.4 990.11c-27.973-37.318 168.4-101.53 222.73-117.8 8.6011-2.5758 14.161-1.8816 14.161-1.8816s-1.6177 5.9165-6.4196 9.7353c-35.275 28.054-186.19 139.63-230.47 109.95z"/>
   <path style="fill:#509554;fill-rule:evenodd" d="m-1057 981.63c27.973-37.318-168.4-101.53-222.73-117.8-8.6011-2.5759-14.161-1.8816-14.161-1.8816s1.6177 5.916 6.4195 9.7353c35.275 28.054 186.19 139.63 230.48 109.95z"/>
  </g>
  <path style="fill:#316c3c;fill-rule:evenodd" d="m435.59 904.57c-21.809 2.3204-5.7461-94.31-.67297-120.68.80298-4.1744 2.3132-6.2912 2.3132-6.2912s2.131 2.123 2.683 5.0398c4.0544 21.427 17.853 111.02-4.3232 121.93z"/>
  <path style="fill:#509554;fill-rule:evenodd" d="m431.27 907.77c-20.716-6.0468 30.051-87.975 44.531-110.08 2.2924-3.4985 4.4587-4.8602 4.4587-4.8602s1.1452 2.7292.55631 5.5901c-4.3256 21.017-25.283 107.71-49.546 109.35z"/>
  <path style="fill:#316c3c;fill-rule:evenodd" d="m430.47 912.13c-18.021-11.057 54.021-70.906 74.206-86.839 3.195-2.5218 5.6541-3.1575 5.6541-3.1575s.30595 2.7636-1.0802 5.175c-10.183 17.714-55.161 89.938-78.781 84.819z"/>
  <path style="fill:#509554;fill-rule:evenodd" d="m442.31 904.61c20.716-6.0468-30.051-87.975-44.531-110.08-2.2923-3.4984-4.4587-4.8603-4.4587-4.8603s-1.1452 2.7292-.5563 5.5901c4.3255 21.017 25.283 107.71 49.546 109.35z"/>
  <path style="fill:#316c3c;fill-rule:evenodd" d="m431.59 908.81c-5.5469-14.659 75.673-14.263 75.673-14.263s-64.367 27.718-75.673 14.263z"/>
  <path style="fill:#316c3c;fill-rule:evenodd" d="m443.07 908.97c18.021-11.058-54.021-70.906-74.206-86.839-3.1951-2.5218-5.6541-3.1575-5.6541-3.1575s-.30595 2.7636 1.0802 5.175c10.183 17.714 55.161 89.938 78.781 84.819z"/>
  <path style="fill:#509554;fill-rule:evenodd" d="m432.03 904.49c-10.445-13.934 62.876-37.909 83.164-43.987 3.2116-.96179 5.2877-.70256 5.2877-.70256s-.60397 2.2091-2.397 3.6351c-13.171 10.475-69.522 52.138-86.055 41.052z"/>
  <path style="fill:#509554;fill-rule:evenodd" d="m441.55 901.33c10.445-13.934-62.876-37.909-83.164-43.987-3.2116-.9618-5.2878-.7026-5.2878-.7026s.60402 2.2091 2.397 3.6351c13.171 10.475 69.522 52.138 86.055 41.052z"/>
  <path style="fill:#316c3c;fill-rule:evenodd" d="m431.59 908.81c-5.5469-14.659 75.673-14.263 75.673-14.263s-64.367 27.718-75.673 14.263z"/>
  <path style="fill:#316c3c;fill-rule:evenodd" d="m82.377 1011.8c-14.438 1.5361-3.804-62.432-.44556-79.892.53163-2.7634 1.5314-4.1648 1.5314-4.1648s1.4107 1.4054 1.7761 3.3365c2.6842 14.185 11.819 73.494-2.862 80.72z"/>
  <path style="fill:#509554;fill-rule:evenodd" d="m79.498 1013.9c-13.714-4.0032 19.894-58.241 29.481-72.874 1.5176-2.3161 2.9517-3.2175 2.9517-3.2175s.75811 1.8067.36833 3.7008c-2.8637 13.914-16.738 71.306-32.801 72.39z"/>
  <path style="fill:#316c3c;fill-rule:evenodd" d="m78.978 1016.8c-11.93-7.3201 35.763-46.943 49.126-57.489 2.1152-1.6694 3.7432-2.0903 3.7432-2.0903s.20237 1.8296-.71516 3.426c-6.7415 11.727-36.516 59.54-52.154 56.153z"/>
  <path style="fill:#509554;fill-rule:evenodd" d="m86.777 1011.8c13.714-4.0033-19.894-58.241-29.481-72.874-1.5176-2.316-2.9517-3.2175-2.9517-3.2175s-.75811 1.8068-.36834 3.7008c2.8637 13.914 16.738 71.306 32.801 72.39z"/>
  <path style="fill:#316c3c;fill-rule:evenodd" d="m79.698 1014.5c-3.672-9.7045 50.098-9.4422 50.098-9.4422s-42.612 18.35-50.098 9.4422z"/>
  <path style="fill:#316c3c;fill-rule:evenodd" d="m87.336 1014.7c11.93-7.3202-35.763-46.943-49.126-57.489-2.1152-1.6694-3.7432-2.0903-3.7432-2.0903s-.20237 1.8296.71516 3.426c6.7415 11.727 36.516 59.54 52.154 56.153z"/>
  <path style="fill:#509554;fill-rule:evenodd" d="m80.018 1011.7c-6.9147-9.2246 41.624-25.097 55.057-29.119 2.1261-.63674 3.5004-.46512 3.5004-.46512s-.39993 1.4624-1.5869 2.4064c-8.7195 6.9347-46.023 34.515-56.969 27.178z"/>
  <path style="fill:#509554;fill-rule:evenodd" d="m86.297 1009.6c6.9147-9.2246-41.624-25.097-55.057-29.119-2.1261-.63673-3.5005-.46512-3.5005-.46512s.39993 1.4624 1.5869 2.4065c8.7195 6.9346 46.023 34.515 56.969 27.178z"/>
  <path style="fill:#316c3c;fill-rule:evenodd" d="m1121.5 1009.8c-24.096 2.5638-6.3487-104.2-.7436-133.34.8872-4.6119 2.5558-6.951 2.5558-6.951s2.3545 2.3456 2.9644 5.5685c4.4799 23.675 19.725 122.66-4.7767 134.72z"/>
  <path style="fill:#509554;fill-rule:evenodd" d="m1116.8 1013.4c-22.888-6.6811 33.202-97.205 49.202-121.62 2.5328-3.8654 4.9263-5.3702 4.9263-5.3702s1.2652 3.0155.6146 6.1768c-4.7795 23.221-27.935 119.01-54.745 120.82z"/>
  <path style="fill:#316c3c;fill-rule:evenodd" d="m1115.9 1018.2c-19.911-12.218 59.688-78.345 81.988-95.945 3.5302-2.7863 6.2472-3.4887 6.2472-3.4887s.3383 3.0535-1.1936 5.7177c-11.251 19.572-60.944 99.369-87.043 93.718z"/>
  <path style="fill:#509554;fill-rule:evenodd" d="m1128.9 1009.9c22.888-6.6811-33.202-97.205-49.202-121.62-2.5328-3.8654-4.9263-5.3702-4.9263-5.3702s-1.2652 3.0154-.6146 6.1768c4.7795 23.221 27.934 119.01 54.745 120.82z"/>
  <path style="fill:#316c3c;fill-rule:evenodd" d="m1117.1 1014.5c-6.1284-16.197 83.612-15.759 83.612-15.759s-71.118 30.625-83.612 15.759z"/>
  <path style="fill:#316c3c;fill-rule:evenodd" d="m1129.8 1014.7c19.911-12.218-59.688-78.345-81.988-95.945-3.5302-2.7863-6.2471-3.4887-6.2471-3.4887s-.3384 3.0534 1.1935 5.7177c11.251 19.572 60.944 99.369 87.043 93.718z"/>
  <path style="fill:#509554;fill-rule:evenodd" d="m1117.6 1009.7c-11.541-15.395 69.47-41.884 91.89-48.598 3.5485-1.0627 5.8421-.77623 5.8421-.77623s-.6674 2.4407-2.6485 4.0164c-14.553 11.574-76.813 57.605-95.081 45.359z"/>
  <path style="fill:#509554;fill-rule:evenodd" d="m1128.1 1006.3c11.541-15.395-69.47-41.884-91.89-48.598-3.5485-1.0627-5.8421-.77627-5.8421-.77627s.6674 2.4408 2.6485 4.0164c14.553 11.574 76.813 57.605 95.081 45.359z"/>
  <path style="fill:#316c3c;fill-rule:evenodd" d="m1117.1 1014.5c-6.1284-16.197 83.612-15.759 83.612-15.759s-71.118 30.625-83.612 15.759z"/>
  <path style="fill:#9c7625;fill-rule:evenodd" d="m-252.34 1016.5s61.513-18.658 119.06-11.785c57.546 6.8733 54.525 15.318 17.859 15.794-39.686.5158-77.391 1.7182-77.391 1.7182s-57.546 4.0095-59.53-5.728z"/>
  <path style="fill:#836014;fill-rule:evenodd" d="m-1014.4 1032.3s38.409-13.439 72.162-9.407c33.753 4.0316 27.934 14.783 8.1472 11.759-19.787-3.0238-45.391 1.0079-45.391 1.0079s-33.753 2.3518-34.917-3.3597z"/>
  <path style="fill:#9c7625;fill-rule:evenodd" d="m783.2 1004.6s38.774-11.76 75.045-7.4281c36.272 4.3323 34.368 9.6549 11.257 9.9557-25.015.3251-48.778 1.083-48.778 1.083s-36.272 2.5273-37.523-3.6104z"/>
  <path style="fill:#836014;fill-rule:evenodd" d="m833.39 1001.4s19.212-6.7219 36.095-4.7055c16.883 2.0166 13.972 7.3942 4.0752 5.8816-9.8969-1.5124-22.705.5042-22.705.5042s-16.883 1.1763-17.465-1.6805z"/>
  <g transform="matrix(.58935 0 0 .58935 -589.12 347.99)">
   <path d="m-300.15 961.75h52.26s17.145-131.63 13.013-157.7c0 0-29.745 8.8314-58.251 5.467 0 0-2.7982 40.846-.75337 44.415 0 0-8.4498 103.24-6.2697 107.82z" style="fill:#f3857b;fill-rule:evenodd"/>
   <path d="m-365.16 804.41 5.8425 35.055s4.0897 17.527.87637 25.999c0 0-9.9322 47.324-4.674 61.93 0 0-2.337 34.179-1.4606 35.055h59.009l9.348-150.44s-66.02-1.7527-68.941-7.5952z" style="fill:#f3857b;fill-rule:evenodd"/>
   <path style="fill:#b94847;fill-rule:evenodd" d="m-293.64 961.13s-.61189-100.62 1.0198-107.29c0 0 1.8358-31.686.81588-33.91-1.0198-2.2236 1.0199-8.8945 1.0199-8.8945l-2.4476 1.6677s-2.8556 7.2267-2.2436 17.233c0 0-2.6516 127.86-2.2436 130.08.40808 2.2237 4.0794 1.1119 4.0794 1.1119z"/>
   <path d="m-286.43 961.13s-1.6853-100.62 2.8089-107.29c0 0 5.056-31.686 2.2471-33.91-2.8089-2.2236 2.8089-8.8945 2.8089-8.8945-10.002 1.5448-13.799 12.434-12.921 18.901 0 0-7.3031 127.86-6.1796 130.08 1.1236 2.2237 11.236 1.1119 11.236 1.1119z" style="fill:#dc615a;fill-rule:evenodd"/>
   <path d="m-202.74 761.47-5.8425 41.19s-135.77 31.018-214.68-19.797c0 0 11.361-30.158 9.7084-38.214l13.22 3.5116-.82627 13.427 9.0888-9.2953s82.708 34.009 189.33 9.1787z" style="fill:#fbf4e8;fill-rule:evenodd"/>
   <path d="m-407.98 746.09 209.87-9.0888-3.7182 23.961s-111.54 28.506-206.15-14.873z" style="fill:#f9bb2f;fill-rule:evenodd"/>
   <path d="m-500.93 406.92s-26.027-15.699-17.764-33.876l56.598-179.71 2.731-10.59 28.77-23.048s11.393 11.977 29.212-1.1685l1.2555-.30952s22.991 57.274 37.013 78.307c0 0 36.808 67.189 16.943 147.81l-27.314 51.852-15.921-12.123s31.549-33.302 19.28-87.053c0 0-23.862-50.25-33.886-73.031-2.6852-6.1025 2.337-19.864 2.337-19.864l-61.346 116.27s-34.921 25.88-37.909 46.534z" style="fill:#f1a102;fill-rule:evenodd"/>
   <path d="m-460.45 367.88c2.9858.14786 5.7838-3.0985 8.6757-2.2722 0 0 7.8494 2.4788 5.3706 13.22-13.022 10.626-33.643 42.273-42.345 42.965-.92954-.92954-1.7558-6.4034-4.3378-6.0936-2.5821.3101-7.6428-2.1689-7.2297-6.0936 0 0 11.051-37.491 33.463-44.101 0 0 4.1296 2.2627 6.4034 2.3755z" style="fill:none"/>
   <path d="m-215.05 291.66s31.398-24.788 15.699-66.1c0 0 6.61-28.093 3.7181-50.401 0 0-25.614-30.984-34.703-31.811 0 0-20.898-6.4351-33.752 18.103l-17.82 35.639s-30.084 12.812-63.97-11.726c0 0 20.516 28.415 29.859 66.208 17.34 70.138 43.05 133.46-37.459 125.83 0 0-21.909 56.605-22.201 60.402l-29.797 24.831-21.683 102.42c79.076-4.469 158.38-3.7517 237.56-3.7517 0 0-17.605-120.09-25.867-137.44 0 0-19.004-51.228-23.961-79.32 0 0-8.3828-30.611 24.374-52.88z" style="fill:#ffc535;fill-rule:evenodd"/>
   <path d="m-225.53 298.45s22.201 57.841 40.313 54.335c0 0-43.526 11.393-48.493 21.325 0 0-25.999-55.211 8.1795-75.66z" style="fill:#fbb917;fill-rule:evenodd"/>
   <path d="m-223.31 303.84s5.5734-4.5442 8.8784-2.2719c0 0 2.8417-13.461 8.4189-11.86 5.5772 1.6009 8.4159 5.766 8.7258 6.3857 0 0 13.323 35.116 26.647 42.345 0 0 3.9247.72294 1.1361 5.9903 0 0-.20674 3.4083-6.4034 1.2394 0 0-1.9624 10.535-9.6052 6.4034 0 0-15.108 1.297-23.142-18.567 0 0-15.477-26.527-14.655-29.665z" style="fill-opacity:0"/>
   <path d="m-199.24 291.44s96.693-64.559 107.5-75.66c0 0 11.977-10.224 14.898-14.314 4.1059-17.672 44.237-7.1157 41.488-11.697l.86981 3.8101s-3.7976-25.999-2.6291-28.92c0 0 3.4452-11.894 9.1067 1.4701 0 0 6.0838 18.102 5.7916 28.911 0 0 9.6401.29213 13.73-10.224.009-10.639-6.0477-24.446-2.5516-31.683 1.1404-2.3608 4.463-1.2858 4.463-1.2858s5.9632.38426 5.833 26.152c0 0 7.4461-6.7666 6.8618-15.238-.2328-8.8152.21258-14.623 4.674-14.46 4.4614.16323 7.011 20.157 5.6964 29.212-2.4128 24.944-34.765 43.443-53.904 44.943l-20.45 4.751c-33.036 21.488-76.993 99.044-113.04 110.39 0 0-27.752-20.741-28.336-46.156z" style="fill:#f8c591;fill-rule:evenodd"/>
   <path d="m-403.49 244.89s32.346 36.407 32.346 41.968c0 0 18.273 0 23.04 1.5889 11.549 40.113-6.8264 17.197-11.917 28.601 5.1786 23.395 9.476 46.831 7.1502 68.325 54.712-.48515 9.589 11.848-5.5613 8.7392l-16.684 42.902s-34.368 114.49-42.313 117.67l-7.9899 2.2077s29.778-159.3 55.864-179.46c0 0 5.5613-45.285-12.712-67.53 0 0-25.523-52.674-25.523-55.058z" style="fill:#e58d05;fill-rule:evenodd"/>
   <rect style="color-rendering:auto;color:#000000;isolation:auto;mix-blend-mode:normal;fill-rule:evenodd;shape-rendering:auto;solid-color:#000000;image-rendering:auto;fill:#0f5331" ry="12.951" height="32.718" width="372.17" y="554.35" x="-513.85"/>
   <path d="m-502.17 587.07s14.022.58424 21.617 96.401c0 0 1.7527 63.099 73.615 61.346l178.78-3.5055s43.234 5.2582 57.256-44.403c0 0 8.7637-98.154 21.617-109.84z" style="fill:#069243;fill-rule:evenodd"/>
   <rect style="color-rendering:auto;color:#000000;isolation:auto;mix-blend-mode:normal;fill-rule:evenodd;shape-rendering:auto;solid-color:#000000;image-rendering:auto;fill:#8fc63c" ry="8.7881" height="22.201" width="288.99" y="644.82" x="-465.91"/>
   <rect style="color-rendering:auto;color:#000000;isolation:auto;mix-blend-mode:normal;fill-rule:evenodd;shape-rendering:auto;solid-color:#000000;image-rendering:auto;fill:#8fc63c" ry="8.7881" height="22.201" width="314.12" y="596.96" x="-482.27"/>
   <rect style="color-rendering:auto;color:#000000;isolation:auto;mix-blend-mode:normal;fill-rule:evenodd;shape-rendering:auto;solid-color:#000000;image-rendering:auto;fill:#8fc63c" ry="8.7881" height="22.201" width="268.54" y="692.1" x="-454.81"/>
   <ellipse style="color-rendering:auto;color:#000000;isolation:auto;mix-blend-mode:normal;fill-rule:evenodd;shape-rendering:auto;solid-color:#000000;image-rendering:auto;fill:#cc3231" rx="10.442" transform="matrix(.71209 .70209 -.71209 .70209 0 0)" ry="16.895" cy="223.34" cx="-141.4"/>
   <path d="m-351.38 61.338s-20.863-12.6-17.971-33.67c2.8919-21.069-.63593-19.318 2.8754-24.275 3.5116-4.9575 13.278-25.884 23.813-31.875 16.844-12.348 41.592-36.529 59.543-38.692 0 0 5.3706-1.1685-4.751 9.1596 0 0 2.5912 9.2538 25.52-27.514 0 0 7.9055-.45409 20.467 33.432 0 0 7.5952 19.572 3.2134 25.999 0 0-2.6291 16.067 2.0449 35.639 0 0-1.4606 25.999-37.976 57.841 0 0-21.617 26.291-45.571 13.146z" style="fill:#f4c793;fill-rule:evenodd"/>
   <ellipse style="color-rendering:auto;color:#000000;isolation:auto;mix-blend-mode:normal;fill-rule:evenodd;shape-rendering:auto;solid-color:#000000;image-rendering:auto;fill:#922221" rx="5.6827" ry="9.1948" transform="matrix(.71209 .70209 -.71209 .70209 0 0)" cy="222.5" cx="-141.4"/>
   <path d="m-390.14 122.3-2.337-8.1795s-30.789-15.397-15.917-42.663c0 0 4.378-4.3689-10.812-15.616 0 0-9.0558-20.303-9.0558-35.493 0 0 1.2777-45.976-1.2011-48.041 0 0-1.2394-112.37 95.432-120.63 0 0 24.371 6.8375 39.562.70287 0 0 37.899 5.0809 57.316 40.403 0 0 17.145 30.158 17.351 45.857 2.1034 27.598 12.571 62.431 4.9577 82.625 0 0-30.984 54.12-29.539 60.936-8.1647 26.511 13.249 45.153 25.82 23.961 0 0-2.2722 12.807-13.014 14.873 0 0 15.834 15.874 13.789 30.334 0 0-.87637 10.078-1.0224 11.539 0 0 1.8988-23.078-29.797-29.212 0 0-12.853-16.505-25.707-12.415 0 0 11.393-16.797-15.483-30.235 0 0-13.764-11.292 12.82-25.314 19.908 1.2049 38.372-2.5645 24.572-22.01 0 0 12.853-24.246 12.561-31.257.29213-1.7527-6.4267-27.168.29213-46.448-2.3445-16.422-17.602-62.411-25.123-47.616 0 0-18.696 29.212-27.752 28.044 19.757-25.9-9.4233 3.8537-17.82 8.4716-34.446 16.491-35.988 18.072-55.455 49.332-5.378 32.072.29078 33.555 14.825 57.949 0 0-1.5413 10.503-2.3676 26.615 0 0-6.1027 2.8858-7.7552 9.0827 0 0-8.5632 3.1045-7.3239 6.4095z" style="fill:#4e1f09;fill-rule:evenodd"/>
   <path d="m-340.23-25.212s16.422-6.7133 25.201-1.2394l15.492 7.0231s6.8166-.82626 0-5.3706l-21.276-6.7133s-14.873-.72297-19.417 6.3002z" style="fill:#481c00;fill-rule:evenodd"/>
   <path d="m-273.92-22.32s26.44-12.91 30.365-5.1641m-30.365 5.1641s-1.5492 2.8919-1.6525 4.2345c-.10337 1.3427 4.7509 0 4.7509 0s13.117-8.6756 14.253-8.5724c0 0 10.328-1.8591 11.051.51641 0 0 2.4788.20656 1.9624-1.3427" style="fill:#481c00;fill-rule:evenodd"/>
   <path d="m-438.53 171.18s15.168-6.7413 29.774 23.033c0 0 16.853 18.539 29.212 20.786 0 0 69.099-.56177 70.784-2.8089l-101.12-66.29s-29.212 18.539-28.651 25.28z" style="fill:#e58d05;fill-rule:evenodd"/>
   <path d="m-399.48 134.65c-31.003 23.778-44.577-24.838-15.924-10.738 0 0 .30471-4.7583-3.9314-6.9788-32.083-.28674-26.277 32.777-8.2286 44.858 0 0 12.358 8.3053 26.921-3.1589 0 0 1.0862-17.497 1.1628-23.983z" style="fill:#461e0c;fill-rule:evenodd"/>
   <path d="m-269.44 171.18s8.4267 27.527 1.1236 44.942c0 0-20.224 65.728 6.7413 63.481l15.168-69.099s2.8089-47.751-8.4267-60.672c0 0-15.168 14.606-14.606 21.348z" style="fill:#e58d05;fill-rule:evenodd"/>
   <path d="m-352.89 91.554.87638-39.879c18.166 14.394 32.994 29.347 60.762 23.908l2.2808 33.273s-28.864 27.368-63.919-17.302z" style="fill:#f5c187;fill-rule:evenodd"/>
   <path d="m-353.71 386.35 22.166.16089s28.847-.23954 36.996-27.029c6.7292-22.12-.7992-44.214-6.6356-75.632 0 0-7.8971-32.428-14.085-47.866-5.6725-14.152-20.97-40.648-20.97-40.648l18.112 9.6401s30.37 14.592 40.698-16.806c0 0 14.459-31.191 18.797-34.496 0 0 3.7181-9.7085 8.8822 15.492 0 0 10.741 31.604-2.0656 59.077 0 0-11.154 41.932-9.5019 50.195 0 0 1.2394 7.4363 25.614 6.8166l19.83-1.6525s3.7868-83.593-2.932-114.27c0 0-1.7528-6.8649-.87637-9.494 0 0 2.1559-18.562-29.242-26.412 0 0-6.61-18.591-21.896-15.286 0 0 7.0231-16.112-20.243-27.266 0 0-1.3584 9.3703 1.1246 13.606 0 0-16.213 17.82-42.504 2.9212 0 0-19.557-12.809-20.383-18.8l-10.122 2.4788s-5.9903 8.4691-3.9247 13.22c0 0-3.305 2.8919-22.309 13.013 0 0-7.0231 7.8494-7.8494 13.84 0 0-11.365 15.392.6122 39.931 0 0 83.074 161.77 42.706 215.26z" style="fill:#d84232;fill-rule:evenodd"/>
   <path d="m-302.22-1.664s-14.253-16.732-33.05-4.5444c7.8494 14.253 33.05 4.5444 33.05 4.5444z" style="fill:#fff;fill-rule:evenodd"/>
   <path d="m-272.06-2.6969s11.774-14.459 23.755-4.3378c0 0-13.22 15.905-23.755 4.3378z" style="fill:#fff;fill-rule:evenodd"/>
   <circle style="color-rendering:auto;color:#000000;isolation:auto;mix-blend-mode:normal;fill-rule:evenodd;shape-rendering:auto;solid-color:#000000;image-rendering:auto;fill:#00060c" cx="-262.23" transform="scale(1,-1)" cy="3.8208" r="5.7599"/>
   <rect ry="11.372" style="color-rendering:auto;color:#000000;isolation:auto;mix-blend-mode:normal;fill-rule:evenodd;shape-rendering:auto;solid-color:#000000;image-rendering:auto;fill:#91c438" rx="10.061" transform="matrix(.92223 .38664 -.29181 .95648 0 0)" height="102.94" width="20.122" y="556.3" x="-178.82"/>
   <rect style="color-rendering:auto;color:#000000;isolation:auto;mix-blend-mode:normal;fill-rule:evenodd;shape-rendering:auto;solid-color:#000000;image-rendering:auto;fill:#91c438" transform="matrix(-.92223 .38664 .29181 .95648 0 0)" rx="10.061" ry="11.372" height="102.94" width="20.122" y="307.97" x="435.5"/>
   <circle r="5.6178" style="color-rendering:auto;color:#000000;isolation:auto;mix-blend-mode:normal;fill-rule:evenodd;shape-rendering:auto;solid-color:#000000;image-rendering:auto;fill:#333" cx="-293.69" cy="557.12"/>
   <circle cx="-332" cy="478.08" r="13.202" style="color-rendering:auto;color:#000000;isolation:auto;mix-blend-mode:normal;fill-rule:evenodd;shape-rendering:auto;solid-color:#000000;image-rendering:auto;fill:#333"/>
   <path d="m-483.38 419.93 38.214-40.693s86.756 71.264 90.475 70.438c0 0 46.064 24.581 48.749 23.755 0 0 6.4034-12.807-.82626-18.591 0 0 11.154-1.6525 15.699 15.905l1.0328 3.7182c2.9813-15.214 4.2497-23.325-12.073-24.897 0 0-1.6779-4.5908 2.2467-5.6236l11.892 4.7s6.2223 0 7.4617 10.535 3.305 13.865-.82626 20.062c12.319-4.1804 10.463-19.35 2.93-24.209 0 0-2.1909-4.0897 1.8988-5.1122 10.131 1.1698 13.754 14.031 13.146 23.516 0 0-8.6231 21.655-18.258 26.145-13.912 6.4837-32.718 2.4831-45.863-4.0897-52.937-23.526-106.49-42.334-155.9-75.559z" style="fill:#f8c591;fill-rule:evenodd"/>
   <circle r="13.202" style="color-rendering:auto;color:#000000;isolation:auto;mix-blend-mode:normal;fill-rule:evenodd;shape-rendering:auto;solid-color:#000000;image-rendering:auto;fill:#333" cx="-314.02" cy="478.08"/>
   <circle cx="-345.28" cy="557.12" r="5.6178" style="color-rendering:auto;color:#000000;isolation:auto;mix-blend-mode:normal;fill-rule:evenodd;shape-rendering:auto;solid-color:#000000;image-rendering:auto;fill:#333"/>
   <path d="m-297.32 560.94 7.7245-7.7245" style="stroke:#fff;stroke-width:.33936;fill:none"/>
   <path style="stroke:#fff;stroke-width:.33936;fill:none" d="m-345.28 562.58v-10.924"/>
   <path d="m-272.1-3.3958s12.528-13.599 23.105-3.47c0 0-.53243-3.3351 1.9503-3.0372" style="stroke:#000;stroke-width:.33936;fill:none"/>
   <ellipse style="color-rendering:auto;color:#000000;isolation:auto;mix-blend-mode:normal;fill-rule:evenodd;shape-rendering:auto;solid-color:#000000;image-rendering:auto;filter:url(#a);fill:#f2f7f9" rx=".26517" transform="matrix(4.4942 0 0 4.4942 -520.32 -148.32)" ry=".41984" cy="31.744" cx="58.311"/>
   <path d="m-381.23 17.811s-.56177-58.425 54.492-79.211c0 0 35.954-7.3031 38.201-43.819 0 0-16.292 21.909-25.28 19.662 0 0 3.9324-25.28-.56178-25.28 0 0-6.1795 11.236-22.471 17.977-32.934 19.579-60.28 36.256-58.706 77.244 0 0 12.359-27.246 21.348-32.864 0 0 46.628-28.089 51.122-36.796 0 0-14.606 23.033-35.954 36.235 0 0-29.774 25.28-22.19 66.851z" style="fill:#592d15;fill-rule:evenodd"/>
   <path d="m-259.33-127.86c15.113 10.083 19.975 25.894 21.848 43.497-6.753-27.807-34.758-43.497-34.758-43.497s11.718.59585 14.896 5.7599z" style="fill:#683821;fill-rule:evenodd"/>
   <path d="m-272.81-109.15s-7.3031-24.156-20.786-34.83" style="stroke:#3c1705;stroke-width:1.6968px;fill:none"/>
   <path d="m-320.7-138.19s-49.853-4.3696-68.523 28.005c0 0 41.511-19.663 48.066-16.684 0 0-42.107 32.772-45.881 41.908 0 0-3.5752-9.7323 8.7392-20.259 0 0-20.656 6.753-33.964 31.382 0 0-7.5475-20.06 16.883-41.908 0 0 50.846-46.079 74.68-22.444z" style="fill:#512815;fill-rule:evenodd"/>
   <path d="m-411.28-11.12s.56177 45.785 14.325 54.492c0 0-8.2862-3.5111-13.764-15.028 0 0 12.219 26.825 19.1 29.212-13.381-14.475-24.045-25.363-28.229-45.364 0 0-5.7582-27.246-2.528-30.476 0 0 5.8987 22.19 5.7582 31.6 0 0 2.9493-24.156 5.3369-24.437z" style="fill:#774828;fill-rule:evenodd"/>
   <path d="m-406.11 69.568s5.1641 19.067 29.793 27.409c0 0-30.587-1.9862-34.162-12.314 0 0-2.3834-14.301 4.3696-15.095z" style="fill:#2d110b;fill-rule:evenodd"/>
   <path d="m-237.28-96.079s9.5337 51.243-1.1917 65.544c0 0-5.9586 4.7668-2.3834 53.627 0 0-7.1503 11.52-8.342 14.698 0 0 23.437-26.615 23.834-63.955z" style="fill:#331507;fill-rule:evenodd"/>
   <path d="m-260.32 76.719s-1.9862 34.162 21.848 46.477c-19.975-7.2593-39.442-27.154-21.848-46.477z" style="fill:#331507;fill-rule:evenodd"/>
   <path d="m-364.38 954.29s4.4942-79.772 10.112-83.143c0 0 7.7446-12.274.19729-30.149 0 0-4.3696-19.465-1.9862-21.848 2.3834-2.3834 15.095-11.52 15.095-11.52l-20.259-.39729s0 21.451.79449 33.368c0 0 5.9585 21.054-1.589 33.368z" style="fill:#d76058;fill-rule:evenodd"/>
   <path d="m-296.47 304.34s30.984-2.3834 40.518 7.9447c0 0-34.162.79454-40.518-7.9447z" style="fill:#e58d05;fill-rule:evenodd"/>
   <path d="m-258.76 296.45s16.853 5.056 28.089 6.1796c0 0-24.156 1.6853-28.089-6.1796z" style="fill:#e58d05;fill-rule:evenodd"/>
   <path d="m-237.32 316.54s-5.6178 42.133 19.662 46.628l-15.168 8.9884s-19.662-49.436-4.4942-55.616z" style="fill:#e58d05;fill-rule:evenodd"/>
   <path d="m-263.26 527.34s29.212 5.6178 34.83 17.977c0 0-32.021-7.3031-34.83-17.977z" style="fill:#e69820;fill-rule:evenodd"/>
   <path d="m-339.1 293.64s1.6853-43.257-21.348-70.222c0 0-33.707-60.672-32.583-66.29 0 0 6.1796 42.414 21.909 60.11 0 0 33.707 72.188 32.021 76.402z" style="fill:#891d1c;fill-rule:evenodd"/>
   <path d="m-335 226.08s41.969 80.485 19.498 143.97" style="fill:none"/>
   <path d="m-397.8 130.73s5.6178-10.955 8.1458-10.393c2.528.56177 21.909 24.999 28.932 31.179 0 0 32.021 26.123 38.482 25.28 0 0-66.009-35.111-75.559-46.066z" style="fill:#852113;fill-rule:evenodd"/>
   <path d="m-347.24 179.88s26.965 11.236 38.201 8.1458c0 0 18.539-5.3369 19.943 8.7076 0 0-.84266 19.1-25.561 9.2693 0 0-30.617-12.921-32.583-26.123z" style="fill:#a3221c;fill-rule:evenodd"/>
   <path d="m-266.35 161.63s-44.661 23.314-56.178 14.887c0 0-19.1 2.528-21.067 0-1.9662-2.528 14.887 12.64 31.179 8.4267s46.066-23.314 46.066-23.314z" style="fill:#891d1c;fill-rule:evenodd"/>
   <path d="m-307.64 158.26s-36.235 3.9324-58.425-26.965c0 0 15.168 38.482 58.987 27.808" style="fill:#af302a;fill-rule:evenodd"/>
   <path d="m-315.54 135.71s37.539-11.123 36.347-28.005c0 0-7.3488-2.582-8.3419-3.9724-.99309-1.3903-3.9724-10.725-3.9724-10.725s-.59589-5.7599 9.1364 1.3903c0 0 17.478 10.527 11.718 21.649 0 0-32.573 25.82-44.888 19.663z" style="fill:#b22624;fill-rule:evenodd"/>
   <path d="m-280.18 103.13s-14.698 26.416-50.846 17.677c0 0 28.601 18.869 50.846-17.677z" style="fill:#dc3834;fill-rule:evenodd"/>
   <path d="m-240.85 201.85s3.1779-33.368 4.7668-34.162c0 0 12.314-3.5751 13.109 21.848 0 0-1.5889 30.587-.79444 32.971 0 0 11.123 59.983-7.9447 61.174 0 0-24.231 10.725-15.095-36.943 0 0 6.3558-42.107 5.9586-44.888z" style="fill:#e9393b;fill-rule:evenodd"/>
   <path d="m-310.37-15.837s-16.684-7.1502-21.451 3.9724c0 0-9.5337 4.3696-7.9447-1.1917 0 0 11.52-18.67 29.396-2.7807z" style="fill-opacity:.92744;fill:#efbd82;fill-rule:evenodd"/>
   <path d="m-332.88-9.1881c-5.4798.21195-4.8026-1.9596-7.5018-3.138" style="stroke:#000;stroke-width:.33936;fill:none"/>
   <path d="m-303.14-3.5362s-4.9156-8.2862-27.527-6.1796c0 0-6.1795.56178-6.1795-3.3707" style="stroke:#000;stroke-width:.50904;fill:none"/>
   <path d="m-266.28-13.057s8.3419-7.5475 14.3-1.589c0 0-6.3558-15.889-14.3 1.589z" style="fill-opacity:.92744;fill:#efbd82;fill-rule:evenodd"/>
   <path d="m-286.34 51.891c-6.5544 15.691-21.252 7.1503-21.252 7.1503-.39729-9.1364-7.1502-11.52-7.1502-11.52s15.691-1.589 16.684-3.1779c0 0 3.5751-3.7737 7.5475 1.3903 0 0 3.7738-5.7599 9.1364-.79447z" style="fill:#da3b28;fill-rule:evenodd"/>
   <path d="m-310.17 49.111s22.047-.1986 23.437.39724c1.3903.59585-3.9724 1.7876-5.3627 1.3903-1.3903-.39725-4.3696-.79448-5.164-.79448-.79449 0-9.1364 1.3903-10.725.39725-1.5889-.99309-2.1848-1.3903-2.1848-1.3903z" style="fill:#f4c9c0;fill-rule:evenodd"/>
   <path d="m-301.46 52.641 10.252.56178s-6.8818-.42134-8.0053.14044c-1.1236.56178-2.2471-.70222-2.2471-.70222z" style="stroke:#444;stroke-width:.16968;fill:none"/>
   <path d="m-285.17-2.4127s-3.3707 10.674 1.9662 25.28c0 0 3.3707 4.4942-1.4044 7.0222l-5.056 4.4942" style="stroke:#d59c67;stroke-width:.84840;fill:none"/>
   <ellipse style="color-rendering:auto;color:#000000;isolation:auto;mix-blend-mode:normal;fill-rule:evenodd;shape-rendering:auto;solid-color:#000000;image-rendering:auto;fill:#be814b" rx="2.1648" ry="1.1236" cy="31.535" cx="-299.18"/>
   <circle style="color-rendering:auto;color:#000000;isolation:auto;mix-blend-mode:normal;fill-rule:evenodd;shape-rendering:auto;solid-color:#000000;image-rendering:auto;fill:#00060c" transform="scale(1,-1)" cy="4.5162" cx="-322.29" r="5.7599"/>
   <ellipse style="color-rendering:auto;color:#000000;isolation:auto;mix-blend-mode:normal;fill-rule:evenodd;shape-rendering:auto;solid-color:#000000;image-rendering:auto;filter:url(#a);fill:#f2f7f9" rx=".26517" transform="matrix(4.4942 0 0 4.4942 -520.32 -148.32)" ry=".41984" cy="31.589" cx="44.947"/>
   <ellipse style="color-rendering:auto;color:#000000;isolation:auto;mix-blend-mode:normal;fill-rule:evenodd;shape-rendering:auto;solid-color:#000000;image-rendering:auto;filter:url(#b);fill:#f2f7f9" rx=".32112" transform="matrix(3.8458 -2.3254 2.3254 3.8458 -659.14 -204.25)" ry=".50844" cy="76.815" cx="40.317"/>
   <ellipse style="color-rendering:auto;color:#000000;isolation:auto;mix-blend-mode:normal;fill-rule:evenodd;shape-rendering:auto;solid-color:#000000;image-rendering:auto;filter:url(#b);fill:#f2f7f9" rx=".32112" ry=".50844" transform="matrix(3.8458 -2.3254 2.3254 3.8458 -599.09 -203.55)" cy="76.815" cx="40.317"/>
   <path d="m-213.92 191.47s2.2947 12.129 4.5894 12.129 8.8509 10.49 8.5231 13.112" style="fill-rule:evenodd;stroke:#daa656;stroke-width:.84840;fill:#e58d05"/>
   <path d="m-33.439 191.08s25.382-9.6046 25.71-8.6211c.32763.98344.65562 14.588-3.2781 15.735-3.9337 1.1473-24.258 2.1308-25.733-1.4752-1.4751-3.6059 3.3014-5.6387 3.3014-5.6387z" style="fill:#f7c087;fill-rule:evenodd"/>
   <path d="m-18.127 187.72s-8.1973-29.475-5.0995-30.829c7.0058-3.062 13.444 27.352 13.444 27.352z" style="fill:#f7c087;fill-rule:evenodd"/>
   <path d="m-34.337 172.24s4.8778.29972 5.8219-1.1988" style="stroke:#e79e50;stroke-width:.16968;fill:none"/>
   <path style="stroke:#e79e50;stroke-width:.16968;fill:none" d="m-32.704 182.36s5.0349.27392 6.0094-1.0958"/>
   <path style="stroke:#e79e50;stroke-width:.16968;fill:none" d="m-21.529 165.66s3.27.18606 3.903-.7442"/>
   <path d="m-18.868 177.98s4.2075.22143 5.0219-.88581" style="stroke:#e79e50;stroke-width:.16968;fill:none"/>
  </g>
  <g transform="matrix(1.5138 0 0 1.5138 -1128.7 -326.92)">
   <g transform="translate(0 -3.9635)">
    <path style="fill:#346e40;fill-rule:evenodd" d="m220.43 784.62v94.702s-9.938 38.583 27.475 16.953 29.814-71.906 29.814-71.906l-14.03.58459 12.861-15.199-2.923-23.383-15.199-.58454 13.445-9.9381-7.5997-29.814-11.399 3.2152s-4.969 1.4614-1.4615-5.846 6.138-19.291 6.138-19.291-25.429-49.982-31.86-49.398c-6.4304.58458-5.846 8.184-5.846 8.184z"/>
    <path style="fill:#60b365;fill-rule:evenodd" d="m151.4 837.89 39.769 42.612s21.917 12.028-8.6783 22.372-47.339-16.355-47.339-16.355l8.3124-7.2658-13.777.0624-8.1392-12.09 8.4935-8.4192-11.904 2.7433-8.1504-17.493 7.9045-4.6703s3.4707-2.0088-1.6146-3.4146c-5.0854-1.4058-11.631-5.3865-11.631-5.3865s-6.3684-36.135-2.4256-39.323c3.9428-3.1876 6.7979.54562 6.7979.54562z"/>
    <path style="fill:#60b365;fill-rule:evenodd" d="m218.11 784.62v94.702s9.938 38.583-27.475 16.953-29.814-71.906-29.814-71.906l14.03.58459-12.861-15.199 2.9229-23.383 15.199-.58454-13.445-9.9381 7.5997-29.814 11.399 3.2152s4.969 1.4614 1.4615-5.846-6.138-19.291-6.138-19.291 25.429-49.982 31.86-49.398c6.4304.58458 5.846 8.184 5.846 8.184z"/>
    <path style="fill:#346e40;fill-rule:evenodd" d="m152.76 836.65 39.769 42.612s10.488 22.693 22.917-7.1154c12.428-29.809-13.053-48.351-13.053-48.351l-7.8213 7.7917 1.0118-13.74-11.5-8.953-8.9846 7.8929 3.5573-11.687-16.889-9.337-5.2042 7.5637s-2.2433 3.324-3.2952-1.8462-4.5719-11.974-4.5719-11.974-35.611-8.8443-39.062-5.1306c-3.4518 3.7136.076 6.8194.076 6.8194z"/>
    <path style="fill:#60b365;fill-rule:evenodd" d="m273.7 837.89-39.769 42.612s-21.916 12.028 8.6783 22.372c30.595 10.344 47.339-16.355 47.339-16.355l-8.3124-7.2658 13.777.0624 8.1392-12.09-8.4935-8.4192 11.904 2.7433 8.1504-17.493-7.9045-4.6703s-3.4707-2.0088 1.6146-3.4146c5.0854-1.4058 11.631-5.3865 11.631-5.3865s6.3684-36.135 2.4256-39.323c-3.9428-3.1876-6.7979.54562-6.7979.54562z"/>
    <path style="fill:#346e40;fill-rule:evenodd" d="m272.38 836.65-39.769 42.612s-10.488 22.693-22.917-7.1154c-12.428-29.809 13.053-48.351 13.053-48.351l7.8213 7.7917-1.0119-13.74 11.5-8.953 8.9846 7.8929-3.5574-11.687 16.889-9.337 5.2042 7.5637s2.2433 3.324 3.2952-1.8462 4.5719-11.974 4.5719-11.974 35.611-8.8443 39.062-5.1306c3.4518 3.7136-.076 6.8194-.076 6.8194z"/>
   </g>
   <path style="fill:#9c7625;fill-rule:evenodd" d="m415.98 830.45s15.527-4.7095 30.052-2.9747c14.526 1.735 13.763 3.8664 4.5079 3.9867-10.018.13038-19.534.43373-19.534.43373s-14.526 1.0121-15.026-1.4458z"/>
   <path style="fill:#836014;fill-rule:evenodd" d="m409.63 829.17s7.6937-2.6918 14.454-1.8843c6.7611.80758 5.5953 2.961 1.6319 2.3554-3.9632-.60566-9.0922.20196-9.0922.20196s-6.7611.47104-6.9942-.67296z"/>
  </g>
  <circle r="0" cy="440.45" cx="-261.18" style="color-rendering:auto;color:#000000;isolation:auto;mix-blend-mode:normal;fill-rule:evenodd;shape-rendering:auto;solid-color:#000000;image-rendering:auto;fill:#333"/>
  <circle style="color-rendering:auto;color:#000000;isolation:auto;mix-blend-mode:normal;fill-rule:evenodd;shape-rendering:auto;solid-color:#000000;image-rendering:auto;fill:#00060c" cx="-254.64" transform="scale(1,-1)" cy="-315.75" r="0"/>
  <g transform="matrix(1.8185 0 0 1.817 -26.307 364.67)">
   <path d="m497.24 242.67s.96181-2.0438 1.8034-4.9293c.84158-2.8854 1.082-7.3338 1.082-7.3338s-4.5686-2.7652-5.4102-4.5686c-.84158-1.8034-.36067-4.9292-.36067-4.9292s-.48091-2.4045-1.4427-2.8854c-.96181-.4809 1.3225-2.4045 1.9236-3.4865.60113-1.082 1.082-5.4102 2.1641-8.0551 1.082-2.645 4.9293-6.8529 4.9293-6.8529s-.84158-1.9236-.84158-2.5247c0-.60113 2.2843-6.8529 7.9349-7.6944 5.6506-.84157 11.301 2.1641 11.301 2.1641s.60112 4.809 4.9292 6.2517 8.536-.84158 8.536-.84158 1.4427-.60112 2.645-5.1697c0 0 3.727-3.6068 7.5742-2.1641s2.7652 4.4484 2.7652 5.1697c0 .72136 8.536 15.389 9.7383 16.23 1.2023.84158.36068 4.5686.36068 4.9292 0 .36068-.48091 9.0169-3.2461 9.6181-2.7652.60113-3.9674 2.2843-3.9674 2.2843l.60112 12.383s.60113 3.3663 1.4427 3.4866c.84158.12022-6.1315 9.4978-28.614 7.2135 0 0-16.471-.4809-25.849-8.2956z" style="filter:url(#n);stroke:#500006;stroke-width:.27507;fill:#7ec2b5;fill-rule:evenodd"/>
   <path d="m513.59 319.13c.7794-.73213 1.4401 2.3341.72135 3.1259-3.9428 4.3432-7.6921 9.9772-17.072 9.8585-9.4978-.12022-16.779-1.2324-18.755-7.6944-.2535-.82907.76301-2.7022 1.4427-2.1641 2.8536 2.2594 2.8124 8.4557 21.641 5.4102 4.2653-.68992 7.0764-3.8899 12.023-8.536z" style="fill:#f5f7f8;fill-rule:evenodd"/>
   <path d="m480 322.67s1.1902-6.1209 9.3514-14.792c0 0 12.242-4.9307 23.293 10.712 0 0-5.6108 11.052-18.873 9.8614 0 0-7.8211 1.8703-13.772-5.7808z" style="filter:url(#h);stroke:#000;stroke-width:.27506;fill:#288170;fill-rule:evenodd"/>
   <path d="m489.36 307.2s-.68009-3.0604.51008-4.0806 4.4206-10.882 4.4206-14.792c0-3.9106.85013-16.492 1.7002-20.233.85013-3.7405.51008-12.752.51008-14.452 0-1.7002 1.3602-9.0113 1.3602-9.6914 0 0 26.864 15.302 53.388 1.1902 0 0 1.1902 7.8212-1.0201 12.072 0 0-1.3602 9.8614-1.0202 16.662 0 0-1.3602 10.201-2.7204 18.873 0 0-.34005 4.7607 1.0202 7.8211s.34005 4.2506.34005 4.2506-6.4609-5.7808-22.953 9.1813c0 0-5.2708 4.2506-5.6108 1.0202 0 0 .85013-14.622 2.8904-22.953 0 0 1.1902-9.5214.6801-12.242 0 0-5.1007 6.1209-7.4811 25.844l-.51007 10.201s.85012 3.0604-2.8904 1.8703c0 0-6.971-12.412-22.613-10.542z" style="filter:url(#l);stroke:#500006;stroke-width:.55012px;fill:#f04949;fill-rule:evenodd"/>
   <path d="m494.29 303.12s5.6108-1.7002 7.3111-.34005c1.7002 1.3602 5.7808 3.0604 5.7808 3.7406" style="filter:url(#f);stroke:#000;stroke-width:.55012px;fill:none"/>
   <path d="m527.1 307.37s5.2708-6.631 15.812-7.6511" style="filter:url(#g);stroke:#000;stroke-width:.55012px;fill:none"/>
   <path d="m500.07 250.92s2.8904 2.8904 5.9509 2.3803" style="filter:url(#d);stroke:#000;stroke-width:.55012px;fill:none"/>
   <path d="m499.56 253.64s1.3602 3.2305 2.8904 3.4005" style="filter:url(#e);stroke:#000;stroke-width:.55012px;fill:none"/>
   <path d="m516.9 277.96s7.6511-5.7808 13.432-2.8904" style="filter:url(#c);stroke:#000;stroke-width:.55012px;fill:none"/>
   <path d="m519.62 317.23-.6801 3.2305s1.8703 2.8904 7.141 2.8904c5.2708 0 13.092 2.8904 14.112 3.5705 1.0202.6801 14.452 2.3803 20.403-3.0604l-.34005-3.5705s-3.0604 4.0806-17.683 3.7405c0 0-9.3514-3.4005-12.242-3.4005-2.8904 0-10.712-3.4005-10.712-3.4005z" style="fill:#f5f7f8;fill-rule:evenodd"/>
   <path d="m519.96 317.4s12.242-8.8413 15.132-9.3514c2.8904-.51007 9.2305-9.6914 23.683 7.3111 0 0 1.6511 4.4206.63097 5.1007-1.0202.6801-10.031 10.202-39.446-3.0604z" style="filter:url(#m);stroke:#000;stroke-width:.27506;fill:#288170;fill-rule:evenodd"/>
   <path d="m549.78 310.95s7.454 4.5686 9.1372 10.46" style="stroke:#2c665b;stroke-width:.55012px;stroke-opacity:.65931;fill:none"/>
   <path d="m488 313.66s9.8614.51008 13.092 3.4005" style="stroke-linejoin:round;stroke:#fff;stroke-width:.27506;stroke-linecap:round;fill:none"/>
   <path d="m489.27 311.28s9.8614.51008 13.092 3.4005" style="stroke-linejoin:round;stroke:#fff;stroke-width:.27506;stroke-linecap:round;fill:none"/>
   <path d="m490.38 308.65s9.8614.51008 13.092 3.4005" style="stroke-linejoin:round;stroke:#fff;stroke-width:.27506;stroke-linecap:round;fill:none"/>
   <path d="m488.95 314.92s-3.727 3.0056-6.6124 9.7383" style="stroke:#2c665b;stroke-width:.55012px;stroke-opacity:.65931;fill:none"/>
   <path d="m498.57 316.84s-3.727 3.4866-3.727 11.061" style="stroke:#2c665b;stroke-width:.55012px;stroke-opacity:.65931;fill:none"/>
   <path d="m544.37 313s7.9349 4.0877 8.7765 10.099" style="stroke:#2c665b;stroke-width:.55012px;stroke-opacity:.65931;fill:none"/>
   <path d="m539.08 313.96s5.6506-5.1697 11.662-4.2079" style="stroke-linejoin:round;stroke:#fff;stroke-width:.27506;stroke-linecap:round;fill:none"/>
   <path d="m538.12 312.04s5.6506-5.1697 11.662-4.2079" style="stroke-linejoin:round;stroke:#fff;stroke-width:.27506;stroke-linecap:round;fill:none"/>
   <path d="m536.2 310.35s5.6506-5.1697 11.662-4.2079" style="stroke-linejoin:round;stroke:#fff;stroke-width:.27506;stroke-linecap:round;fill:none"/>
   <path d="m494 219.46s7.8147-5.2899 13.946-4.5686l-1.2023 3.9674s3.9674-7.0933 18.154-9.8585c0 0 10.339-9.1372 18.274-1.6832l3.0056 2.645s-8.0551 6.7326-10.339 7.454c-2.2843.72136-4.0877.36068-4.0877.36068s1.082-1.082 1.4427-1.6832c.36067-.60113-14.307 11.782-16.471 12.383-2.1641.60112-11.662 6.1315-20.679-.72136 0 0-2.5247-2.1641-1.6832-8.2956" style="stroke:#500006;stroke-width:.16504;fill:#f5d0a7;fill-rule:evenodd"/>
   <path d="m509.15 215.74s5.6506-12.864 16.471-6.9731c0 0-12.143 3.1259-16.591 7.3338" style="stroke:#500006;stroke-width:.16504;fill:#f5d0a7;fill-rule:evenodd"/>
   <path d="m525.98 222.11s14.427 7.3338 23.083 5.4102c0 0 5.8659-3.2573 7.0933-6.1315.92978-2.1773.12022-6.7326-.36068-7.0933-.48091-.36067-4.3281-3.8472-8.1754-3.2461 0 0-.4809-1.9236-4.9292 1.6832-4.4484 3.6068-7.454 6.2517-11.061 5.2899-1.1917-.3178-1.9634.94521-2.5363 1.3951-1.1609.9117-1.5053 1.8457-2.8738 3.0532" style="stroke:#500006;stroke-width:.16504;fill:#f4d1a1;fill-rule:evenodd"/>
   <path d="m519.85 190.99 3.5242.28418s5.4218 6.82 9.6237-.42626l3.7953.14208s1.491 6.8201-8.6749 7.6726c0 0-6.6417.14207-8.2683-7.6726z" style="stroke:#500006;stroke-width:.11002;fill:#f8fbf5;fill-rule:evenodd"/>
   <path d="m489.31 150.57s-8.8967 7.6944 0 23.564c0 0 5.0495 7.9349 9.618 9.6181 0 0 23.564 15.148 49.533 3.3663 0 0 6.7326 6.9731 17.793 0 0 0 12.744-11.061 2.645-17.312 0 0-4.809-1.9236-10.58.24045l4.0877-24.766 3.1259-13.946-24.526-28.614-18.274-4.3281-10.82 9.8585-2.4045 2.1641s-6.2517 4.0877-11.301 14.427c0 0-1.6832 6.2517-2.4045 7.6944-.72135 1.4427-1.2022-.4809-1.2022-.4809s-6.7326 1.4427-7.454 9.8585c0 0-.4809 5.2899 2.1641 8.6562z" style="stroke:#fdcd9f;stroke-width:.55012px;fill:#fdcd9f;fill-rule:evenodd"/>
   <path d="m501.81 169.09s9.1372-6.0113 12.984 7.6944" style="stroke:#000;stroke-width:.55012px;fill:none"/>
   <path d="m516.24 149.61s-2.645 6.7326-3.6068 6.7326-3.1259-.96181-4.0877-1.6832c-.96181-.72135-3.6068 3.1259-1.9236 6.7326 0 0 3.8472 2.4045 6.7326.9618" style="stroke:#000;stroke-width:.55012px;fill:none"/>
   <path d="m504.94 125.81s3.6068-2.645 5.2899 2.8854c1.6832 5.5304 4.5686 8.1754 4.5686 8.1754s4.809 2.4045 5.2899-4.5686c0 0-1.9236 1.6832-4.3281-.72135 0 0-3.1259-7.454-5.2899-8.1754-2.1641-.72135-5.5304 2.4045-5.5304 2.4045z" style="stroke:#000;stroke-width:.55012px;fill:#050100;fill-rule:evenodd"/>
   <path d="m550.36 144.73s-1.1931-5.8078-7.1968-2.7513c-6.0036 3.0565-10.792 3.1492-10.792 3.1492s-6.3665-1.3542-1.1949-6.9211c0 0 .41692 2.5332 4.5682 2.3051 0 0 8.4007-2.3532 10.975-1.4722 2.5745.88097 3.6398 5.6903 3.6398 5.6903z" style="stroke:#000;stroke-width:.55012px;fill:#050100;fill-rule:evenodd"/>
   <path d="m554.95 183.51s8.0412 3.961 12.263-1.4427c1.5913-2.0368 1.5969-7.3284-.96181-7.6944-2.4659-.35281-6.4922.48091-9.3776 2.645 0 0-4.0877 1.4427-1.9236 6.4922z" style="fill:#eabc91;fill-rule:evenodd"/>
   <path d="m557.43 181.01s1.8359-2.7538 3.4882-2.9374c1.6523-.18359 4.9569 3.121 4.039 3.6718" style="fill:#ecb683;fill-rule:evenodd"/>
   <path d="m519.62 138.54s2.3804-2.0403 2.5504-5.4408" style="stroke:#000;stroke-width:.55012px;fill:none"/>
   <path d="m526.47 141.24s-1.7002.12838 1.7338-5.575" style="stroke:#000;stroke-width:.55012px;fill:none"/>
   <path d="m513.16 143.64c0 4.789-3.2022 10.031-7.9912 10.031s-8.576-5.2425-7.3111-9.8614c1.8703-6.8293 3.8822-8.1612 8.6713-8.6713 4.7621-.5072 6.631 3.7122 6.631 8.5012z" style="color-rendering:auto;fill-rule:evenodd;color:#000000;isolation:auto;mix-blend-mode:normal;shape-rendering:auto;solid-color:#000000;stroke:#500006;image-rendering:auto;stroke-width:.16504;fill:#eff1ee"/>
   <circle r="2.3803" cy="139.81" cx="502.73" style="color-rendering:auto;fill-rule:evenodd;color:#000000;isolation:auto;mix-blend-mode:normal;shape-rendering:auto;solid-color:#000000;stroke:#500006;image-rendering:auto;stroke-width:.16504;fill:#050201"/>
   <path d="m543.76 158.09c0 5.5402-5.5064 10.542-10.201 10.542-4.6951 0-11.052-4.1512-11.052-9.6914 0-2.6237 2.757-6.5629 5.8003-8.5512 3.3831-2.2103 5.998-2.1191 8.4697-2.1191 4.6951 0 6.9831 4.28 6.9831 9.8202z" style="color-rendering:auto;fill-rule:evenodd;color:#000000;isolation:auto;mix-blend-mode:normal;shape-rendering:auto;solid-color:#000000;stroke:#500006;image-rendering:auto;stroke-width:.16504;fill:#eff1ee"/>
   <circle r="2.3803" style="color-rendering:auto;fill-rule:evenodd;color:#000000;isolation:auto;mix-blend-mode:normal;shape-rendering:auto;solid-color:#000000;stroke:#500006;image-rendering:auto;stroke-width:.16504;fill:#050201" cx="528.13" cy="155.22"/>
   <path d="m495.56 132.18s-.36067-12.744 5.6506-24.406l-5.0534-1.5402s25.164-44.887 82.972-16.322c0 0 25.716 17.382 16.218 42.148 0 0-.4809 1.8034.24045 1.5629.72136-.24045 5.4102.48091 6.0113-11.061 0 0 3.1259 2.645 1.3225 6.1315s-7.454 6.2517-7.454 6.2517 8.8967-2.8854 11.181 8.1753c0 0 1.9236-6.6124-10.339-7.2135 0 0 6.6237 3.6519 5.0934 12.833 0 0-2.2103 21.593-28.564 31.455 0 0 4.4206-14.452-14.452-10.372 0 0 1.8703-18.023 4.4206-26.184l-10.031-8.3312 3.5705-6.4609s0-1.1902-1.5302-.85013l-5.9509 3.9106-8.6713-4.9307 7.8211-7.141s-.51007-2.0403-1.8703-1.0202c-1.3602 1.0202-8.1612 6.2909-8.1612 6.2909l-6.631-4.2506 6.801-6.1209s-1.3602-.85013-2.5504-.17003-6.1209 4.7607-6.1209 4.7607l-8.5012-4.7607 5.7808-5.6108s-.6801-1.3602-2.0403-.85012c-1.3602.51007-5.7808 4.7607-5.7808 4.7607l-8.3312-3.4005s-9.5257 6.3253-15.049 22.716z" style="stroke:#000;stroke-width:.55012px;fill-rule:evenodd"/>
  </g>
  <path style="fill:#fff;fill-rule:evenodd" d="m-886.62 588.85 11.082 9.0875s23.716-27.041 26.819-27.484l-12.634-11.526s-28.149 21.5-25.268 29.922z"/>
  <path d="m-700.66 557.78 11.929-7.9443s-18.933-30.581-18.451-33.678l-14.714 8.7159s12.339 33.202 21.236 32.907z" style="fill:#fff;fill-rule:evenodd"/>
  <path style="fill:#316c3c;fill-rule:evenodd" d="m481.49 1026.7c-7.063 21.256 96.36-17.175 96.36-17.175s-81.964-5.2379-96.36 17.175z"/>
 </g>
</svg>
