<svg xmlns="http://www.w3.org/2000/svg" height="112.89mm" width="127mm" viewBox="0 0 450 400.00199"><style>svg{font-family:sans-serif;font-size:50px;fill:#aaffee}</style><g transform="translate(99.286 -232.36)"><path style="fill:#455a64" d="m-91.408 232.36h434.24c4.37 0 7.88 2.8764 7.88 6.4492v387.1c0 3.5729-3.5134 6.4492-7.8777 6.4492h-434.24c-4.3665 0-7.88-2.88-7.88-6.45v-387.1c0-3.5736 3.5135-6.45 7.8777-6.45z"/><text y="599.33215" x="-7.3770714"><tspan y="599.33215" x="-7.3770714">1</tspan></text><text y="523.33185" x="-4.6915245"><tspan y="523.33185" x="-4.6915245">0</tspan></text><text y="449.33136" x="-6.8887901"><tspan y="449.33136" x="-6.8887901">1</tspan></text><text y="379.33105" x="-6.7423058"><tspan y="379.33105" x="-6.7423058">0</tspan></text><text y="301.33069" x="-9.5987816"><tspan y="301.33069" x="-9.5987816">1</tspan></text><text y="599.33215" x="49.766827"><tspan y="599.33215" x="49.766827">0</tspan></text><text y="599.33215" x="109.91362"><tspan y="599.33215" x="109.91362">1</tspan></text><text y="599.33215" x="167.71661"><tspan y="599.33215" x="167.71661">0</tspan></text><text y="599.33215" x="230.40253"><tspan y="599.33215" x="230.40253">1</tspan></text><text y="523.33185" x="52.452374"><tspan y="523.33185" x="52.452374">1</tspan></text><text y="523.33185" x="112.59917"><tspan y="523.33185" x="112.59917">0</tspan></text><text y="523.33185" x="170.40216"><tspan y="523.33185" x="170.40216">1</tspan></text><text y="449.33136" x="50.255108"><tspan y="449.33136" x="50.255108">0</tspan></text><text y="449.33136" x="110.4019"><tspan y="449.33136" x="110.4019">1</tspan></text><text y="379.33105" x="50.401592"><tspan y="379.33105" x="50.401592">1</tspan></text></g></svg>