<svg xmlns="http://www.w3.org/2000/svg" height="112.89mm" width="127mm" viewBox="0 0 450 400.00199"><style>svg{font-family:sans-serif;font-size:50px;fill:#aaffee}</style><g transform="translate(-315 -406.65)"><path d="m322.88 406.65h434.24c4.37 0 7.88 2.8764 7.88 6.4492v387.1c0 3.5729-3.5134 6.4492-7.8777 6.4492h-434.24c-4.3665 0-7.88-2.88-7.88-6.45v-387.1c0-3.5736 3.5135-6.45 7.8777-6.45z" style="fill:#455a64"/><text y="773.61786" x="406.90863"><tspan y="773.61786" x="406.90863">1</tspan></text><text y="773.54462" x="466.7381"><tspan y="773.54462" x="466.7381">2</tspan></text><text y="773.61786" x="524.19934"><tspan y="773.61786" x="524.19934">3</tspan></text><text y="773.54462" x="582.00232"><tspan y="773.54462" x="582.00232">4</tspan></text><text y="773.61786" x="644.68823"><tspan y="773.61786" x="644.68823">5</tspan></text><text y="693.54462" x="466.7381"><tspan y="693.54462" x="466.7381">2</tspan></text><text y="693.61786" x="524.19934"><tspan y="693.61786" x="524.19934">3</tspan></text><text y="693.54462" x="582.00232"><tspan y="693.54462" x="582.00232">4</tspan></text><text y="473.61786" x="644.68823"><tspan y="473.61786" x="644.68823">5</tspan></text><text y="553.54462" x="582.00232"><tspan y="553.54462" x="582.00232">4</tspan></text><text y="553.61786" x="644.68823"><tspan y="553.61786" x="644.68823">5</tspan></text><text y="623.61786" x="524.19934"><tspan y="623.61786" x="524.19934">3</tspan></text><text y="623.54462" x="582.00232"><tspan y="623.54462" x="582.00232">4</tspan></text><text y="623.61786" x="644.68823"><tspan y="623.61786" x="644.68823">5</tspan></text><text y="693.61786" x="644.68823"><tspan y="693.61786" x="644.68823">5</tspan></text></g></svg>