<svg xmlns="http://www.w3.org/2000/svg" height="112.89mm" width="127mm" viewBox="0 0 450 400.00199"><style>svg{font-family:sans-serif;font-size:50px;fill:#aaffee}</style><g transform="translate(-266.43 190.5)"><path d="m274.31-190.49h434.24c4.37 0 7.88 2.8764 7.88 6.4492v387.1c0 3.5729-3.5134 6.4492-7.8777 6.4492h-434.24c-4.3665 0-7.88-2.88-7.88-6.45v-387.1c0-3.5736 3.5135-6.45 7.8777-6.45z" style="fill:#455a64"/><text y="176.47505" x="358.33722"><tspan y="176.47505" x="358.33722">5</tspan></text><text y="100.47469" x="361.02277"><tspan y="100.47469" x="361.02277">5</tspan></text><text y="26.474224" x="358.8255"><tspan y="26.474224" x="358.8255">5</tspan></text><text y="-43.526081" x="358.97198"><tspan y="-43.526081" x="358.97198">5</tspan></text><text y="-121.52646" x="356.11551"><tspan y="-121.52646" x="356.11551">5</tspan></text><text y="176.47505" x="415.48111"><tspan y="176.47505" x="415.48111">4</tspan></text><text y="176.47505" x="475.6279"><tspan y="176.47505" x="475.6279">3</tspan></text><text y="176.47505" x="533.43091"><tspan y="176.47505" x="533.43091">2</tspan></text><text y="176.47505" x="596.11682"><tspan y="176.47505" x="596.11682">1</tspan></text><text y="100.47469" x="418.16666"><tspan y="100.47469" x="418.16666">4</tspan></text><text y="100.47469" x="478.31345"><tspan y="100.47469" x="478.31345">3</tspan></text><text y="100.47469" x="536.11646"><tspan y="100.47469" x="536.11646">2</tspan></text><text y="26.474224" x="415.96939"><tspan y="26.474224" x="415.96939">4</tspan></text><text y="26.474224" x="476.11618"><tspan y="26.474224" x="476.11618">3</tspan></text><text y="-43.526081" x="416.11588"><tspan y="-43.526081" x="416.11588">4</tspan></text></g></svg>