<svg xmlns="http://www.w3.org/2000/svg" height="112.89mm" width="127mm" viewBox="0 0 449.9977 399.99999"><style>svg{font-family:sans-serif;font-size:50px;fill:#aaffee}</style><g transform="translate(465 -626.65)"><path style="fill:#455a64" d="m-457.12 626.65h434.24c4.37 0 7.88 2.8764 7.88 6.4492v387.1c0 3.5729-3.5134 6.4492-7.8777 6.4492h-434.24c-4.3665 0-7.88-2.88-7.88-6.45v-387.1c0-3.5736 3.5135-6.45 7.8777-6.45z"/><text y="690.63495" x="-367.40723"><tspan x="-367.40723" y="690.63495">5</tspan></text><text y="766.63495" x="-367.40723"><tspan x="-367.40723" y="766.63495">4</tspan></text><text y="846.63495" x="-367.40723"><tspan x="-367.40723" y="846.63495">3</tspan></text><text y="918.63501" x="-367.40723"><tspan x="-367.40723" y="918.63501">2</tspan></text><text y="998.63501" x="-367.40723"><tspan x="-367.40723" y="998.63501">1</tspan></text><text y="690.63495" x="-307.40723"><tspan y="690.63495" x="-307.40723">5</tspan></text><text y="690.63495" x="-247.40723"><tspan x="-247.40723" y="690.63495">5</tspan></text><text y="690.63495" x="-187.40724"><tspan y="690.63495" x="-187.40724">5</tspan></text><text y="690.63495" x="-127.40723"><tspan x="-127.40723" y="690.63495">5</tspan></text><text y="766.63495" x="-307.40723"><tspan x="-307.40723" y="766.63495">4</tspan></text><text y="766.63495" x="-247.40723"><tspan y="766.63495" x="-247.40723">4</tspan></text><text y="766.63495" x="-187.40724"><tspan x="-187.40724" y="766.63495">4</tspan></text><text y="846.63495" x="-307.40723"><tspan y="846.63495" x="-307.40723">3</tspan></text><text y="846.63495" x="-247.40723"><tspan x="-247.40723" y="846.63495">3</tspan></text><text y="918.63501" x="-307.40723"><tspan x="-307.40723" y="918.63501">2</tspan></text></g></svg>