<svg xmlns="http://www.w3.org/2000/svg" height="112.89mm" width="127mm" viewBox="0 0 450 400.00201"><style>svg{font-family:sans-serif;font-size:50px;fill:#aaffee}</style><g transform="translate(107.86 -618.08)"><path d="m-99.979 618.08h434.24c4.37 0 7.88 2.8764 7.88 6.4492v387.1c0 3.5729-3.5134 6.4492-7.8777 6.4492h-434.24c-4.3665 0-7.88-2.88-7.88-6.45v-387.1c0-3.5736 3.5135-6.45 7.8777-6.45z" style="fill:#455a64"/><g transform="translate(12.854 38.022)"><text y="909.04614" x="-13.262953"><tspan y="909.04614" x="-13.262953">7</tspan></text><text y="835.04565" x="-15.460218"><tspan y="835.04565" x="-15.460218">4</tspan></text><text y="765.04535" x="-15.313734"><tspan y="765.04535" x="-15.313734">2</tspan></text><text y="687.04498" x="-18.17021"><tspan y="687.04498" x="-18.17021">1</tspan></text><text y="909.04614" x="43.880943"><tspan y="909.04614" x="43.880943">8</tspan></text><text y="909.04614" x="104.02773"><tspan y="909.04614" x="104.02773">9</tspan></text><text y="909.04614" x="161.83073"><tspan y="909.04614" x="161.83073">10</tspan></text><text y="835.04565" x="41.683678"><tspan y="835.04565" x="41.683678">5</tspan></text><text y="835.04565" x="101.83047"><tspan y="835.04565" x="101.83047">6</tspan></text><text y="765.04535" x="41.830162"><tspan y="765.04535" x="41.830162">3</tspan></text></g></g></svg>