<svg xmlns="http://www.w3.org/2000/svg" height="112.89mm" width="127mm" viewBox="0 0 449.9977 399.99996"><style>svg{font-family:sans-serif;font-size:50px;fill:#aaffee}</style><g transform="translate(587.86 -912.36)"><path style="fill:#455a64" d="m-579.98 912.36h434.24c4.37 0 7.88 2.8764 7.88 6.4492v387.1c0 3.5729-3.5134 6.4492-7.8777 6.4492h-434.24c-4.3665 0-7.88-2.88-7.88-6.45v-387.1c0-3.5736 3.5135-6.45 7.8777-6.45z"/><text y="976.34924" x="-490.26437"><tspan x="-490.26437" y="976.34924">1</tspan></text><text y="1052.3492" x="-490.26437"><tspan x="-490.26437" y="1052.3492">2</tspan></text><text y="1132.3492" x="-490.26437"><tspan x="-490.26437" y="1132.3492">3</tspan></text><text y="1204.3494" x="-490.26437"><tspan x="-490.26437" y="1204.3494">4</tspan></text><text y="1284.3494" x="-490.26437"><tspan x="-490.26437" y="1284.3494">5</tspan></text><text y="976.34924" x="-430.26437"><tspan y="976.34924" x="-430.26437">1</tspan></text><text y="976.34924" x="-370.26437"><tspan x="-370.26437" y="976.34924">1</tspan></text><text y="976.34924" x="-310.26437"><tspan y="976.34924" x="-310.26437">1</tspan></text><text y="976.34924" x="-250.26437"><tspan x="-250.26437" y="976.34924">1</tspan></text><text y="1052.3492" x="-430.26437"><tspan x="-430.26437" y="1052.3492">2</tspan></text><text y="1052.3492" x="-370.26437"><tspan y="1052.3492" x="-370.26437">2</tspan></text><text y="1052.3492" x="-310.26437"><tspan x="-310.26437" y="1052.3492">2</tspan></text><text y="1132.3492" x="-430.26437"><tspan y="1132.3492" x="-430.26437">3</tspan></text><text y="1132.3492" x="-370.26437"><tspan x="-370.26437" y="1132.3492">3</tspan></text><text y="1204.3494" x="-430.26437"><tspan x="-430.26437" y="1204.3494">4</tspan></text></g></svg>