<svg xmlns="http://www.w3.org/2000/svg" height="112.89mm" width="127mm" viewBox="0 0 450 400.00199"><style>svg{font-family:sans-serif;font-size:50px;fill:#aaffee}</style><g transform="translate(-175 -195.22)"><path d="m182.88 195.22h434.24c4.37 0 7.88 2.8764 7.88 6.4492v387.1c0 3.5729-3.5134 6.4492-7.8778 6.4492h-434.24c-4.3665 0-7.88-2.88-7.88-6.45v-387.1c0-3.5736 3.5135-6.45 7.8777-6.45z" style="fill:#455a64"/><text y="554.66931" x="265.18002"><tspan y="554.66931" x="265.18002">5</tspan></text><text y="555.04773" x="325.00949"><tspan y="555.04773" x="325.00949">4</tspan></text><text y="555.04773" x="382.47073"><tspan y="555.04773" x="382.47073">3</tspan></text><text y="555.42615" x="440.27371"><tspan y="555.42615" x="440.27371">2</tspan></text><text y="555.10876" x="503.7897"><tspan y="555.10876" x="503.7897">1</tspan></text><text y="484.04773" x="325.00949"><tspan y="484.04773" x="325.00949">4</tspan></text><text y="484.04773" x="382.47073"><tspan y="484.04773" x="382.47073">3</tspan></text><text y="484.42615" x="440.27371"><tspan y="484.42615" x="440.27371">2</tspan></text><text y="255.10876" x="505.8649"><tspan y="255.10876" x="505.8649" /></text><text y="342.42615" x="440.27371"><tspan y="342.42615" x="440.27371">2</tspan></text><text y="342.10876" x="503.7897"><tspan y="342.10876" x="503.7897">1</tspan></text><text y="413.04773" x="382.47073"><tspan y="413.04773" x="382.47073">3</tspan></text><text y="413.42615" x="440.27371"><tspan y="413.42615" x="440.27371">2</tspan></text><text y="413.10876" x="503.7897"><tspan y="413.10876" x="503.7897">1</tspan></text><text y="484.10876" x="503.7897"><tspan y="484.10876" x="503.7897">1</tspan></text><text y="271.10876" x="503.7897"><tspan y="271.10876" x="503.7897">1</tspan></text></g></svg>