<svg xmlns="http://www.w3.org/2000/svg" height="112.89mm" width="127mm" viewBox="0 0 449.9977 399.99999"><style>svg{font-family:sans-serif;font-size:50px;fill:#aaffee}</style><g transform="translate(-123.57 -266.65)"><path style="fill:#455a64" d="m131.45 266.65h434.24c4.37 0 7.88 2.8764 7.88 6.4492v387.1c0 3.5729-3.5134 6.4492-7.8777 6.4492h-434.24c-4.3665 0-7.88-2.88-7.88-6.45v-387.1c0-3.5736 3.5135-6.45 7.8777-6.45z"/><text y="330.63498" x="221.16422"><tspan x="221.16422" y="330.63498">5</tspan></text><text y="406.63498" x="221.16422"><tspan x="221.16422" y="406.63498">4</tspan></text><text y="486.63498" x="221.16422"><tspan x="221.16422" y="486.63498">3</tspan></text><text y="558.63501" x="221.16422"><tspan x="221.16422" y="558.63501">2</tspan></text><text y="638.63501" x="221.16422"><tspan x="221.16422" y="638.63501">1</tspan></text><text y="330.63498" x="281.16422"><tspan y="330.63498" x="281.16422">4</tspan></text><text y="330.63498" x="341.16422"><tspan x="341.16422" y="330.63498">3</tspan></text><text y="330.63498" x="401.16418"><tspan y="330.63498" x="401.16418">2</tspan></text><text y="330.63498" x="461.16418"><tspan x="461.16418" y="330.63498">1</tspan></text><text y="406.63498" x="281.16422"><tspan x="281.16422" y="406.63498">3</tspan></text><text y="406.63498" x="341.16422"><tspan y="406.63498" x="341.16422">2</tspan></text><text y="406.63498" x="401.16418"><tspan x="401.16418" y="406.63498">1</tspan></text><text y="486.63498" x="281.16422"><tspan y="486.63498" x="281.16422">2</tspan></text><text y="486.63498" x="341.16422"><tspan x="341.16422" y="486.63498">1</tspan></text><text y="558.63501" x="281.16422"><tspan x="281.16422" y="558.63501">1</tspan></text></g></svg>