<svg xmlns="http://www.w3.org/2000/svg" height="112.89mm" width="127mm" viewBox="0 0 449.9977 399.99996"><style>svg{font-family:sans-serif;font-size:50px;fill:#aaffee}</style><g transform="translate(-186.43 -486.65)"><path style="fill:#455a64" d="m194.31 486.65h434.24c4.37 0 7.88 2.8764 7.88 6.4492v387.1c0 3.5729-3.5134 6.4492-7.8777 6.4492h-434.24c-4.3665 0-7.88-2.88-7.88-6.45v-387.1c0-3.5736 3.5135-6.45 7.8777-6.45z"/><text y="856.63495" x="286.24301"><tspan x="286.24301" y="856.63495">5</tspan></text><text y="780.63495" x="288.92856"><tspan x="288.92856" y="780.63495">4</tspan></text><text y="706.63495" x="286.73129"><tspan x="286.73129" y="706.63495">3</tspan></text><text y="636.63501" x="286.87778"><tspan x="286.87778" y="636.63501">2</tspan></text><text y="558.63501" x="284.02133"><tspan x="284.02133" y="558.63501">1</tspan></text><text y="856.63495" x="343.3866"><tspan y="856.63495" x="343.3866">5</tspan></text><text y="856.63495" x="403.53308"><tspan x="403.53308" y="856.63495">5</tspan></text><text y="856.63495" x="461.33578"><tspan y="856.63495" x="461.33578">5</tspan></text><text y="856.63495" x="524.02136"><tspan x="524.02136" y="856.63495">5</tspan></text><text y="780.63495" x="346.07214"><tspan x="346.07214" y="780.63495">4</tspan></text><text y="780.63495" x="406.21863"><tspan y="780.63495" x="406.21863">4</tspan></text><text y="780.63495" x="464.02133"><tspan x="464.02133" y="780.63495">4</tspan></text><text y="706.63495" x="343.87488"><tspan y="706.63495" x="343.87488">3</tspan></text><text y="706.63495" x="404.02136"><tspan x="404.02136" y="706.63495">3</tspan></text><text y="636.63501" x="344.02136"><tspan x="344.02136" y="636.63501">2</tspan></text></g></svg>