<svg xmlns="http://www.w3.org/2000/svg" height="112.89mm" width="127mm" viewBox="0 0 449.9977 399.99996"><style>svg{font-family:sans-serif;font-size:50px;fill:#aaffee}</style><path d="m7.878 0h434.24c4.37 0 7.88 2.8764 7.88 6.4492v387.1c0 3.5729-3.5134 6.4492-7.8777 6.4492h-434.24c-4.3665 0-7.88-2.88-7.88-6.45v-387.1c0-3.5736 3.5135-6.45 7.8777-6.45z" style="fill:#455a64"/><text y="366.85544" x="90.594383"><tspan y="366.85544" x="90.594383">1</tspan></text><text y="290.85544" x="93.27993"><tspan y="290.85544" x="93.27993">1</tspan></text><text y="216.85536" x="91.082664"><tspan y="216.85536" x="91.082664">1</tspan></text><text y="146.85542" x="91.229149"><tspan y="146.85542" x="91.229149">1</tspan></text><text y="68.855423" x="88.372704"><tspan y="68.855423" x="88.372704">1</tspan></text><text y="366.85544" x="147.73799"><tspan y="366.85544" x="147.73799">2</tspan></text><text y="366.85544" x="207.88448"><tspan y="366.85544" x="207.88448">3</tspan></text><text y="366.85544" x="265.68719"><tspan y="366.85544" x="265.68719">4</tspan></text><text y="366.85544" x="328.3728"><tspan y="366.85544" x="328.3728">5</tspan></text><text y="290.85544" x="150.42354"><tspan y="290.85544" x="150.42354">2</tspan></text><text y="290.85544" x="210.57002"><tspan y="290.85544" x="210.57002">3</tspan></text><text y="290.85544" x="268.37274"><tspan y="290.85544" x="268.37274">4</tspan></text><text y="216.85536" x="148.22627"><tspan y="216.85536" x="148.22627">2</tspan></text><text y="216.85536" x="208.37276"><tspan y="216.85536" x="208.37276">3</tspan></text><text y="146.85542" x="148.37276"><tspan y="146.85542" x="148.37276">2</tspan></text></svg>