<svg xmlns="http://www.w3.org/2000/svg" height="112.89mm" width="127mm" viewBox="0 0 450 400.00199"><style>svg{font-family:sans-serif;font-size:50px;fill:#aaffee}</style><g transform="translate(-266.43 -358.08)"><path d="m274.31 358.08h434.24c4.37 0 7.88 2.8764 7.88 6.4492v387.1c0 3.5729-3.5134 6.4492-7.8777 6.4492h-434.24c-4.3665 0-7.88-2.88-7.88-6.45v-387.1c0-3.5736 3.5135-6.45 7.8777-6.45z" style="fill:#455a64"/><text y="725.04645" x="358.33722"><tspan y="725.04645" x="358.33722">1</tspan></text><text y="649.04614" x="361.02277"><tspan y="649.04614" x="361.02277">1</tspan></text><text y="575.04565" x="358.8255"><tspan y="575.04565" x="358.8255">1</tspan></text><text y="505.04535" x="358.97198"><tspan y="505.04535" x="358.97198">1</tspan></text><text y="427.04498" x="356.11551"><tspan y="427.04498" x="356.11551">1</tspan></text><text y="725.04645" x="415.48111"><tspan y="725.04645" x="415.48111">0</tspan></text><text y="725.04645" x="475.6279"><tspan y="725.04645" x="475.6279">1</tspan></text><text y="725.04645" x="533.43091"><tspan y="725.04645" x="533.43091">0</tspan></text><text y="725.04645" x="596.11682"><tspan y="725.04645" x="596.11682">1</tspan></text><text y="649.04614" x="418.16666"><tspan y="649.04614" x="418.16666">0</tspan></text><text y="649.04614" x="478.31345"><tspan y="649.04614" x="478.31345">1</tspan></text><text y="649.04614" x="536.11646"><tspan y="649.04614" x="536.11646">0</tspan></text><text y="575.04565" x="415.96939"><tspan y="575.04565" x="415.96939">0</tspan></text><text y="575.04565" x="476.11618"><tspan y="575.04565" x="476.11618">1</tspan></text><text y="505.04535" x="416.11588"><tspan y="505.04535" x="416.11588">0</tspan></text></g></svg>