<svg xmlns="http://www.w3.org/2000/svg" height="112.89mm" width="127mm" viewBox="0 0 449.9977 399.99996"><style>svg{font-family:sans-serif;font-size:50px;fill:#aaffee}</style><g transform="translate(-303.57 -595.22)"><path style="fill:#455a64" d="m311.45 595.22h434.24c4.37 0 7.88 2.8764 7.88 6.4492v387.1c0 3.5729-3.5134 6.4492-7.8777 6.4492h-434.24c-4.3665 0-7.88-2.88-7.88-6.45v-387.1c0-3.5736 3.5135-6.45 7.8777-6.45z"/><text y="962.39557" x="395.27795"><tspan x="395.27795" y="962.39557">1</tspan></text><text y="886.39557" x="397.9635"><tspan x="397.9635" y="886.39557">2</tspan></text><text y="812.39557" x="395.76624"><tspan x="395.76624" y="812.39557">3</tspan></text><text y="742.39563" x="395.91272"><tspan x="395.91272" y="742.39563">4</tspan></text><text y="664.39563" x="393.05627"><tspan x="393.05627" y="664.39563">5</tspan></text><text y="962.39557" x="452.42154"><tspan y="962.39557" x="452.42154">1</tspan></text><text y="962.39557" x="512.56805"><tspan x="512.56805" y="962.39557">1</tspan></text><text y="962.39557" x="570.37073"><tspan y="962.39557" x="570.37073">1</tspan></text><text y="962.39557" x="633.05634"><tspan x="633.05634" y="962.39557">1</tspan></text><text y="886.39557" x="455.10709"><tspan x="455.10709" y="886.39557">2</tspan></text><text y="886.39557" x="515.2536"><tspan y="886.39557" x="515.2536">2</tspan></text><text y="886.39557" x="573.05627"><tspan x="573.05627" y="886.39557">2</tspan></text><text y="812.39557" x="452.90982"><tspan y="812.39557" x="452.90982">3</tspan></text><text y="812.39557" x="513.05634"><tspan x="513.05634" y="812.39557">3</tspan></text><text y="742.39563" x="453.0563"><tspan x="453.0563" y="742.39563">4</tspan></text></g></svg>