<svg xmlns="http://www.w3.org/2000/svg" height="112.89mm" width="127mm" viewBox="0 0 450 400.00199"><style>svg{font-family:sans-serif;font-size:50px;fill:#aaffee}</style><g transform="translate(-266.43 -323.79)"><path d="m274.31 323.79h434.24c4.37 0 7.88 2.8764 7.88 6.4492v387.1c0 3.5729-3.5134 6.4492-7.8777 6.4492h-434.24c-4.3665 0-7.88-2.88-7.88-6.45v-387.1c0-3.5736 3.5135-6.45 7.8777-6.45z" style="fill:#455a64"/><text y="690.64868" x="357.02313"><tspan y="690.64868" x="357.02313">1</tspan></text><text y="614.64832" x="359.70868"><tspan y="614.64832" x="359.70868">2</tspan></text><text y="540.64783" x="357.51141"><tspan y="540.64783" x="357.51141">3</tspan></text><text y="470.64752" x="357.6579"><tspan y="470.64752" x="357.6579">4</tspan></text><text y="392.64716" x="354.80142"><tspan y="392.64716" x="354.80142">5</tspan></text><text y="690.64868" x="414.16702"><tspan y="690.64868" x="414.16702">2</tspan></text><text y="690.64868" x="474.31381"><tspan y="690.64868" x="474.31381">3</tspan></text><text y="690.64868" x="532.11682"><tspan y="690.64868" x="532.11682">4</tspan></text><text y="690.64868" x="594.80273"><tspan y="690.64868" x="594.80273">5</tspan></text><text y="614.64832" x="416.85257"><tspan y="614.64832" x="416.85257">3</tspan></text><text y="614.64832" x="476.99936"><tspan y="614.64832" x="476.99936">4</tspan></text><text y="614.64832" x="534.80237"><tspan y="614.64832" x="534.80237">5</tspan></text><text y="540.64783" x="414.6553"><tspan y="540.64783" x="414.6553">4</tspan></text><text y="540.64783" x="474.80209"><tspan y="540.64783" x="474.80209">5</tspan></text><text y="470.64752" x="414.80179"><tspan y="470.64752" x="414.80179">5</tspan></text></g></svg>