<svg xmlns="http://www.w3.org/2000/svg" height="112.89mm" width="127mm" viewBox="0 0 450 400.00199"><style>svg{font-family:sans-serif;font-size:50px;fill:#aaffee}</style><g transform="translate(356.43 -309.5)"><path d="m-348.55 309.51h434.24c4.37 0 7.88 2.8764 7.88 6.4492v387.1c0 3.5729-3.5134 6.4492-7.8777 6.4492h-434.24c-4.3665 0-7.88-2.88-7.88-6.45v-387.1c0-3.5736 3.5135-6.45 7.8777-6.45z" style="fill:#455a64"/><text y="676.47498" x="-264.51996"><tspan y="676.47498" x="-264.51996">1</tspan></text><text y="676.40173" x="-206.76569"><tspan y="676.40173" x="-206.76569">2</tspan></text><text y="676.47498" x="-148.79175"><tspan y="676.47498" x="-148.79175">3</tspan></text><text y="676.40173" x="-90.256325"><tspan y="676.40173" x="-90.256325">4</tspan></text><text y="676.47498" x="-25.617287"><tspan y="676.47498" x="-25.617287">5</tspan></text><text y="596.40173" x="-204.69049"><tspan y="596.40173" x="-204.69049">1</tspan></text><text y="596.47498" x="-149.30444"><tspan y="596.47498" x="-149.30444">2</tspan></text><text y="596.40173" x="-88.913551"><tspan y="596.40173" x="-88.913551">3</tspan></text><text y="376.47498" x="-23.83506"><tspan y="376.47498" x="-23.83506">1</tspan></text><text y="456.40173" x="-87.351051"><tspan y="456.40173" x="-87.351051">1</tspan></text><text y="456.47498" x="-25.910255"><tspan y="456.47498" x="-25.910255">2</tspan></text><text y="526.47498" x="-147.22925"><tspan y="526.47498" x="-147.22925">1</tspan></text><text y="526.40173" x="-89.426247"><tspan y="526.40173" x="-89.426247">2</tspan></text><text y="526.47498" x="-25.39756"><tspan y="526.47498" x="-25.39756">3</tspan></text><text y="596.47498" x="-26.740334"><tspan y="596.47498" x="-26.740334">4</tspan></text></g></svg>