<svg xmlns="http://www.w3.org/2000/svg" height="112.89mm" width="127mm" viewBox="0 0 449.9977 399.99998"><style>svg{font-family:sans-serif;font-size:50px;fill:#aaffee}</style><g transform="translate(-164.11 -218.85)"><path style="fill:#455a64" d="m171.98 218.85h434.24c4.37 0 7.88 2.8764 7.88 6.4492v387.1c0 3.5729-3.5134 6.4492-7.8777 6.4492h-434.24c-4.3665 0-7.88-2.88-7.88-6.45v-387.1c0-3.5736 3.5135-6.45 7.8777-6.45z"/><g transform="translate(25.873 -15.364)"><text y="292.80167" x="208.57143"><tspan y="292.80167" x="208.57143">1</tspan></text><text y="293.11905" x="275.18973"><tspan y="293.11905" x="275.18973">2</tspan></text><text y="292.74063" x="343.73676"><tspan y="292.74063" x="343.73676">3</tspan></text><text y="292.74063" x="413.96832"><tspan y="292.74063" x="413.96832">4</tspan></text><text y="292.36221" x="482.85712"><tspan y="292.36221" x="482.85712">5</tspan></text><text y="372.80167" x="208.57143"><tspan y="372.80167" x="208.57143">1</tspan></text><text y="373.11905" x="275.18973"><tspan y="373.11905" x="275.18973">2</tspan></text><text y="372.74063" x="343.73676"><tspan y="372.74063" x="343.73676">3</tspan></text><text y="372.74063" x="413.96832"><tspan y="372.74063" x="413.96832">4</tspan></text><text y="452.80167" x="208.57143"><tspan y="452.80167" x="208.57143">1</tspan></text><text y="453.11905" x="275.18973"><tspan y="453.11905" x="275.18973">2</tspan></text><text y="452.74063" x="343.73676"><tspan y="452.74063" x="343.73676">3</tspan></text><text y="532.80164" x="208.57143"><tspan y="532.80164" x="208.57143">1</tspan></text><text y="533.11902" x="275.18973"><tspan y="533.11902" x="275.18973">2</tspan></text><text y="612.80164" x="208.57143"><tspan y="612.80164" x="208.57143">1</tspan></text></g></g></svg>