<svg xmlns="http://www.w3.org/2000/svg" height="112.89mm" width="127mm" viewBox="0 0 449.9977 399.99999"><style>svg{font-family:sans-serif;font-size:50px;fill:#aaffee}</style><g transform="translate(-77.858 -383.79)"><path style="fill:#455a64" d="m85.736 383.79h434.24c4.37 0 7.88 2.8764 7.88 6.4492v387.1c0 3.5729-3.5134 6.4492-7.8777 6.4492h-434.24c-4.3665 0-7.88-2.88-7.88-6.45v-387.1c0-3.5736 3.5135-6.45 7.8777-6.45z"/><text y="447.77783" x="175.44992"><tspan x="175.44992" y="447.77783">5</tspan></text><text y="523.77783" x="175.44992"><tspan x="175.44992" y="523.77783">5</tspan></text><text y="603.77783" x="175.44992"><tspan x="175.44992" y="603.77783">5</tspan></text><text y="675.77783" x="175.44992"><tspan x="175.44992" y="675.77783">5</tspan></text><text y="755.77783" x="175.44992"><tspan x="175.44992" y="755.77783">5</tspan></text><text y="447.77783" x="235.44992"><tspan y="447.77783" x="235.44992">4</tspan></text><text y="447.77783" x="295.44992"><tspan x="295.44992" y="447.77783">3</tspan></text><text y="447.77783" x="355.44992"><tspan y="447.77783" x="355.44992">2</tspan></text><text y="447.77783" x="415.44992"><tspan x="415.44992" y="447.77783">1</tspan></text><text y="523.77783" x="235.44992"><tspan x="235.44992" y="523.77783">4</tspan></text><text y="523.77783" x="295.44992"><tspan y="523.77783" x="295.44992">3</tspan></text><text y="523.77783" x="355.44992"><tspan x="355.44992" y="523.77783">2</tspan></text><text y="603.77783" x="235.44992"><tspan y="603.77783" x="235.44992">4</tspan></text><text y="603.77783" x="295.44992"><tspan x="295.44992" y="603.77783">3</tspan></text><text y="675.77783" x="235.44992"><tspan x="235.44992" y="675.77783">2</tspan></text></g></svg>