<svg xmlns="http://www.w3.org/2000/svg" height="112.89mm" width="127mm" viewBox="0 0 449.9977 399.99996"><style>svg{font-family:sans-serif;font-size:50px;fill:#aaffee}</style><g transform="translate(-426.43 -360.93)"><path style="fill:#455a64" d="m434.31 360.94h434.24c4.37 0 7.88 2.8764 7.88 6.4492v387.1c0 3.5729-3.5134 6.4492-7.8777 6.4492h-434.24c-4.3665 0-7.88-2.88-7.88-6.45v-387.1c0-3.5736 3.5135-6.45 7.8777-6.45z"/><text y="727.79248" x="517.02423"><tspan x="517.02423" y="727.79248">5</tspan></text><text y="651.79248" x="519.70978"><tspan x="519.70978" y="651.79248">4</tspan></text><text y="577.79248" x="517.51251"><tspan x="517.51251" y="577.79248">3</tspan></text><text y="507.79254" x="517.659"><tspan x="517.659" y="507.79254">2</tspan></text><text y="429.79254" x="514.80255"><tspan x="514.80255" y="429.79254">1</tspan></text><text y="727.79248" x="574.16785"><tspan y="727.79248" x="574.16785">4</tspan></text><text y="727.79248" x="634.31433"><tspan x="634.31433" y="727.79248">3</tspan></text><text y="727.79248" x="692.11707"><tspan y="727.79248" x="692.11707">2</tspan></text><text y="727.79248" x="754.80267"><tspan x="754.80267" y="727.79248">1</tspan></text><text y="651.79248" x="576.85339"><tspan x="576.85339" y="651.79248">3</tspan></text><text y="651.79248" x="636.99988"><tspan y="651.79248" x="636.99988">2</tspan></text><text y="651.79248" x="694.80261"><tspan x="694.80261" y="651.79248">1</tspan></text><text y="577.79248" x="574.65613"><tspan y="577.79248" x="574.65613">2</tspan></text><text y="577.79248" x="634.80261"><tspan x="634.80261" y="577.79248">1</tspan></text><text y="507.79254" x="574.80261"><tspan x="574.80261" y="507.79254">1</tspan></text></g></svg>