<svg xmlns="http://www.w3.org/2000/svg" height="112.89mm" width="127mm" viewBox="0 0 449.9977 399.99996"><style>svg{font-family:sans-serif;font-size:50px;fill:#aaffee}</style><g transform="translate(-55.001 -135.22)"><path style="fill:#455a64" d="m62.879 135.22h434.24c4.37 0 7.88 2.8764 7.88 6.4492v387.1c0 3.5729-3.5134 6.4492-7.8777 6.4492h-434.24c-4.3665 0-7.88-2.88-7.88-6.45v-387.1c0-3.5736 3.5135-6.45 7.8777-6.45z"/><text y="199.64586" x="132.37305"><tspan x="132.37305" y="199.64586">1</tspan></text><text y="199.96324" x="195.47484"><tspan x="195.47484" y="199.96324">2</tspan></text><text y="199.58482" x="260.50537"><tspan x="260.50537" y="199.58482">3</tspan></text><text y="199.58482" x="327.22046"><tspan x="327.22046" y="199.58482">4</tspan></text><text y="199.20641" x="392.59277"><tspan x="392.59277" y="199.20641">5</tspan></text><text y="277.24707" x="135.22949"><tspan x="135.22949" y="277.24707">2</tspan></text><text y="276.86865" x="199.16373"><tspan x="199.16373" y="276.86865">3</tspan></text><text y="276.86865" x="264.78256"><tspan x="264.78256" y="276.86865">4</tspan></text><text y="276.49023" x="329.05859"><tspan x="329.05859" y="276.49023">5</tspan></text><text y="354.15247" x="135.08301"><tspan x="135.08301" y="354.15247">3</tspan></text><text y="354.15247" x="199.57738"><tspan x="199.57738" y="354.15247">4</tspan></text><text y="353.77405" x="262.729"><tspan x="262.729" y="353.77405">5</tspan></text><text y="431.05786" x="137.28027"><tspan x="137.28027" y="431.05786">4</tspan></text><text y="430.67944" x="196.49901"><tspan x="196.49901" y="430.67944">5</tspan></text><text y="507.20642" x="134.59473"><tspan x="134.59473" y="507.20642">5</tspan></text></g></svg>