<svg xmlns="http://www.w3.org/2000/svg" height="112.89mm" width="127mm" viewBox="0 0 449.99781 399.99999"><style>svg{font-family:sans-serif;font-size:50px;fill:#aaffee}</style><g transform="translate(145 -400.93)"><path style="fill:#455a64" d="m-137.12 400.94h434.24c4.37 0 7.88 2.8764 7.88 6.4492v387.1c0 3.5729-3.5134 6.4492-7.8778 6.4492h-434.24c-4.3665 0-7.88-2.88-7.88-6.45v-387.1c0-3.5736 3.5135-6.45 7.8777-6.45z"/><text y="760.38452" x="-53.038849"><tspan y="760.38452" x="-53.038849">1</tspan></text><text y="760.76294" x="4.7154222"><tspan y="760.76294" x="4.7154222">2</tspan></text><text y="760.76294" x="62.689362"><tspan y="760.76294" x="62.689362">3</tspan></text><text y="761.14136" x="119.14957"><tspan y="761.14136" x="119.14957">4</tspan></text><text y="760.82397" x="183.7886"><tspan y="760.82397" x="183.7886">5</tspan></text><text y="689.76294" x="5.2281175"><tspan y="689.76294" x="5.2281175">3</tspan></text><text y="689.76294" x="61.346588"><tspan y="689.76294" x="61.346588">4</tspan></text><text y="690.14136" x="120.27261"><tspan y="690.14136" x="120.27261">5</tspan></text><text y="460.82401" x="185.8638"><tspan y="460.82401" x="185.8638" /></text><text y="548.14136" x="120.27261"><tspan y="548.14136" x="120.27261">5</tspan></text><text y="547.82397" x="183.7886"><tspan y="547.82397" x="183.7886">5</tspan></text><text y="618.76294" x="62.469635"><tspan y="618.76294" x="62.469635">5</tspan></text><text y="619.14136" x="120.27261"><tspan y="619.14136" x="120.27261">5</tspan></text><text y="618.82397" x="183.7886"><tspan y="618.82397" x="183.7886">5</tspan></text><text y="689.82397" x="183.7886"><tspan y="689.82397" x="183.7886">5</tspan></text><text y="476.82401" x="183.7886"><tspan y="476.82401" x="183.7886">5</tspan></text><text y="689.38452" x="-55.114044"><tspan y="689.38452" x="-55.114044">2</tspan></text><text y="618.76294" x="3.885344"><tspan y="618.76294" x="3.885344">4</tspan></text><text y="618.38452" x="-54.601349"><tspan y="618.38452" x="-54.601349">3</tspan></text><text y="547.76294" x="62.469635"><tspan y="547.76294" x="62.469635">5</tspan></text><text y="547.76294" x="5.0083909"><tspan y="547.76294" x="5.0083909">5</tspan></text><text y="547.38452" x="-55.944122"><tspan y="547.38452" x="-55.944122">4</tspan></text><text y="477.14139" x="120.27261"><tspan y="477.14139" x="120.27261">5</tspan></text><text y="476.76297" x="62.469635"><tspan y="476.76297" x="62.469635">5</tspan></text><text y="476.76297" x="5.0083909"><tspan y="476.76297" x="5.0083909">5</tspan></text><text y="476.38455" x="-54.821075"><tspan y="476.38455" x="-54.821075">5</tspan></text></g></svg>