<svg xmlns:rdf="http://www.w3.org/1999/02/22-rdf-syntax-ns#" xmlns="http://www.w3.org/2000/svg" height="234.56mm" width="196.91mm" version="1.1" xmlns:cc="http://creativecommons.org/ns#" xmlns:xlink="http://www.w3.org/1999/xlink" viewBox="0 0 697.71369 831.12361" xmlns:dc="http://purl.org/dc/elements/1.1/">
 <g transform="translate(246.58 176.45)">
  <g transform="translate(0 .0000056494)">
   <g transform="translate(-281.68 -533.42)">
    <text style="font-size:141.13px;font-family:&apos;AR CENA&apos;;letter-spacing:0px;line-height:125%;word-spacing:0px;font-weight:100;fill:#eabe72" transform="scale(1.1449 .87345)" xml:space="preserve" y="503.43069" x="65.844879"><tspan y="503.43069" x="65.844879">1</tspan></text>
    <path style="fill-rule:evenodd;stroke:#ffa200;fill:#ffa200" d="m87.348 438.72s-.38145 17.127-3.0516 17.888"/>
    <path style="fill-rule:evenodd;stroke:#ffa200" d="m75.291 457.02s1.4986-1.4354 9.6513-1.8542c0 0 .71934 2.5121-.23984 2.8112-.95914.29905-9.1718 2.3924-9.7712 1.9139-.59947-.47847-1.1389-2.213.35969-2.8709z"/>
    <path d="m95.163 438.34s.38147 17.127 3.0516 17.888" style="fill-rule:evenodd;stroke:#ffa200;fill:#ffa200"/>
    <path d="m107.22 456.64s-1.4986-1.4354-9.6513-1.8542c0 0-.71934 2.5121.23984 2.8112.95914.29905 9.1718 2.3924 9.7712 1.914.59944-.47847 1.139-2.213-.3597-2.8709z" style="fill-rule:evenodd;stroke:#ffa200"/>
    <path style="stroke:#ffa200;stroke-width:2;fill:none" d="m84.296 396.1c-10.108 4.0206-28.761 8.831-3.4331 16.746"/>
    <path d="m95.666 396.1c10.108 4.0206 28.761 8.831 3.4331 16.746" style="stroke:#ffa200;stroke-width:2;fill:none"/>
    <text style="font-size:141.13px;font-family:&apos;AR CENA&apos;;letter-spacing:0px;line-height:125%;word-spacing:0px;font-weight:100;fill:#ffa200" xml:space="preserve" transform="scale(1.1449 .87345)" y="503.43069" x="62.912571"><tspan x="62.912571" y="503.43069">1</tspan></text>
    <path d="m99.564 412.68s-2.098.38062-1.1444 3.0448" style="stroke:#000;stroke-width:2;fill:none"/>
    <ellipse style="stroke-linejoin:bevel;color-rendering:auto;color:#000000;shape-rendering:auto;solid-color:#000000;stroke:#f2f2f2;stroke-linecap:square;fill:#f2f2f2;fill-rule:evenodd;mix-blend-mode:normal;image-rendering:auto;isolation:auto" rx="2.2734" ry="2.3857" cy="370.49" cx="88.58"/>
    <ellipse style="stroke-linejoin:bevel;color-rendering:auto;color:#000000;shape-rendering:auto;solid-color:#000000;stroke:#f2f2f2;stroke-linecap:square;fill:#f2f2f2;fill-rule:evenodd;mix-blend-mode:normal;image-rendering:auto;isolation:auto" rx="2.2734" ry="2.3857" cy="370.49" cx="98.274"/>
    <ellipse style="color-rendering:auto;color:#000000;isolation:auto;mix-blend-mode:normal;fill-rule:evenodd;shape-rendering:auto;solid-color:#000000;image-rendering:auto;fill:#1a1a1a" rx=".96460" ry="1.0281" cy="370.67" cx="100.4"/>
    <path style="fill-rule:evenodd;stroke:#f2f2f2;fill:#f2f2f2" d="m88.621 386.37s8.4091 2.1861 11.265-3.7477c0 0-3.1105 3.6916-11.265 3.7477z"/>
    <path style="stroke:#000;stroke-width:2;fill:none" d="m80.398 412.68s2.098.38062 1.1444 3.0448"/>
    <path d="m80.533 413.05l2.8813-2.7294" style="stroke:#000;stroke-width:2;fill:none"/>
    <path style="stroke:#000;stroke-width:2;fill:none" d="m80.357 412.71l3.9639.26832"/>
    <path style="stroke:#000;stroke-width:2;fill:none" d="m99.429 413.05l-2.8813-2.7294"/>
    <path d="m99.606 412.71l-3.9639.26832" style="stroke:#000;stroke-width:2;fill:none"/>
    <ellipse style="color-rendering:auto;color:#000000;isolation:auto;mix-blend-mode:normal;fill-rule:evenodd;shape-rendering:auto;solid-color:#000000;image-rendering:auto;fill:#1a1a1a" rx=".96460" ry="1.0281" cy="370.61" cx="90.678"/>
    <path style="stroke:#000;stroke-width:.5;fill:none" d="m85.721 367.15s2.4397-2.3026 5.209-.59216"/>
    <path d="m100.88 365.3s-2.4397-2.3026-5.209-.59216" style="stroke:#000;stroke-width:.5;fill:none"/>
   </g>
   <text style="font-size:81.086px;font-weight:100;letter-spacing:0px;line-height:125%;word-spacing:0px;font-family:&apos;AR CENA&apos;;fill:#000000" y="-97.331139" x="-68.169861" xml:space="preserve"><tspan y="-97.331139" x="-68.169861">%</tspan></text>
   <g transform="translate(-100.91 -524.64)">
    <path style="fill-rule:evenodd;stroke:#ffa200;stroke-width:1px;fill:#ffa200" d="m171.5 434.32s-.32264 14.526-2.5811 15.171"/>
    <path style="fill-rule:evenodd;stroke:#ffa200;stroke-width:1px" d="m161.3 449.84s1.2676-1.2174 8.1631-1.5726c0 0 .60843 2.1306-.20286 2.3842-.81125.25364-7.7575 2.0291-8.2645 1.6233-.50702-.40581-.96332-1.8769.30423-2.4349z"/>
    <path d="m187.57 434s.32264 14.526 2.5811 15.171" style="fill-rule:evenodd;stroke:#ffa200;stroke-width:1px;fill:#ffa200"/>
    <path d="m197.76 449.51s-1.2676-1.2174-8.1631-1.5726c0 0-.60843 2.1306.20286 2.3842.81125.25364 7.7575 2.0291 8.2645 1.6233.50701-.40581.96332-1.8769-.30423-2.4349z" style="fill-rule:evenodd;stroke:#ffa200;stroke-width:1px"/>
    <path d="m200.3 400.39s29.892.44635 32.346-10.043" style="stroke:#f70;stroke-width:2;fill:none"/>
    <path d="m232.82 390.49-2.8362-3.9236" style="stroke:#000;stroke-width:2;fill:none"/>
    <path style="stroke:#000;stroke-width:2;fill:none" d="m232.51 391.11 2.039-5.0366"/>
    <path d="m232.94 390.64 4.7368-.94505" style="stroke:#000;stroke-width:2;fill:none"/>
    <path style="stroke:#f70;stroke-width:2;fill:none" d="m190.28 400.39s-29.892.44635-32.346-10.043"/>
    <text style="font-size:141.9px;font-weight:100;letter-spacing:0px;line-height:125%;word-spacing:0px;font-family:&apos;AR CENA&apos;;fill:#f5933e" xml:space="preserve" transform="scale(.99976 1.0002)" y="439.49542" x="159.77184"><tspan x="159.77184" y="439.49542">2</tspan></text>
    <text style="font-size:141.9px;font-weight:100;letter-spacing:0px;line-height:125%;word-spacing:0px;font-family:&apos;AR CENA&apos;;fill:#ff7700" transform="scale(.99976 1.0002)" xml:space="preserve" y="439.49542" x="155.67184"><tspan y="439.49542" x="155.67184">2</tspan></text>
    <path style="stroke:#000;stroke-width:2;fill:none" d="m158.18 390.27 2.288-3.4493"/>
    <path d="m158.42 390.9-1.6448-4.522" style="stroke:#000;stroke-width:2;fill:none"/>
    <path style="stroke:#000;stroke-width:2;fill:none" d="m158.08 390.41-3.8212-.8308"/>
    <path d="m207.3 376.96s7.1124 1.8541 9.528-3.1785c0 0-2.6309 3.1309-9.528 3.1785z" style="fill-rule:evenodd;stroke:#f2f2f2;stroke-width:.5;fill:#f2f2f2"/>
    <ellipse style="stroke-linejoin:bevel;color-rendering:auto;color:#000000;shape-rendering:auto;solid-color:#000000;stroke:#f2f2f2;stroke-linecap:square;stroke-width:.5;fill:#f2f2f2;fill-rule:evenodd;mix-blend-mode:normal;image-rendering:auto;isolation:auto" rx="1.9228" ry="2.0234" cy="362.26" cx="208.31"/>
    <ellipse style="stroke-linejoin:bevel;color-rendering:auto;color:#000000;shape-rendering:auto;solid-color:#000000;stroke:#f2f2f2;stroke-linecap:square;stroke-width:.5;fill:#f2f2f2;fill-rule:evenodd;mix-blend-mode:normal;image-rendering:auto;isolation:auto" rx="1.9228" ry="2.0234" cy="362.26" cx="216.51"/>
    <ellipse style="color-rendering:auto;color:#000000;isolation:auto;mix-blend-mode:normal;fill-rule:evenodd;shape-rendering:auto;solid-color:#000000;image-rendering:auto;fill:#1a1a1a" rx=".81586" ry=".87199" cy="360.62" cx="216.52"/>
    <ellipse style="color-rendering:auto;color:#000000;isolation:auto;mix-blend-mode:normal;fill-rule:evenodd;shape-rendering:auto;solid-color:#000000;image-rendering:auto;fill:#1a1a1a" rx=".81586" ry=".87199" cy="363.85" cx="208.35"/>
    <path style="stroke:#000;stroke-width:0.3;fill:none" d="m205.84 359.58s2.0635-1.9529 4.4058-.50223"/>
    <path d="m218.82 357.86s-2.0635-1.9529-4.4058-.50222" style="stroke:#000;stroke-width:0.3;fill:none"/>
   </g>
   <text style="font-size:161.9px;font-weight:100;letter-spacing:0px;line-height:125%;word-spacing:0px;font-family:&apos;AR CENA&apos;;fill:#000000" y="-86.894188" x="268.41782" xml:space="preserve"><tspan y="-86.894188" x="268.41782">=</tspan></text>
   <g id="d" transform="translate(338.32 -533.42)">
    <text style="font-size:141.13px;font-family:&apos;AR CENA&apos;;letter-spacing:0px;line-height:125%;word-spacing:0px;font-weight:100;fill:#eabe72" xml:space="preserve" transform="scale(1.1449 .87345)" y="503.43069" x="65.844879"><tspan x="65.844879" y="503.43069">1</tspan></text>
    <path d="m87.348 438.72s-.38145 17.127-3.0516 17.888" style="fill-rule:evenodd;stroke:#ffa200;fill:#ffa200"/>
    <path d="m75.291 457.02s1.4986-1.4354 9.6513-1.8542c0 0 .71934 2.5121-.23984 2.8112-.95914.29905-9.1718 2.3924-9.7712 1.9139-.59947-.47847-1.1389-2.213.35969-2.8709z" style="fill-rule:evenodd;stroke:#ffa200"/>
    <path style="fill-rule:evenodd;stroke:#ffa200;fill:#ffa200" d="m95.163 438.34s.38147 17.127 3.0516 17.888"/>
    <path style="fill-rule:evenodd;stroke:#ffa200" d="m107.22 456.64s-1.4986-1.4354-9.6513-1.8542c0 0-.71934 2.5121.23984 2.8112.95914.29905 9.1718 2.3924 9.7712 1.914.59944-.47847 1.139-2.213-.3597-2.8709z"/>
    <path d="m84.296 396.1c-10.108 4.0206-28.761 8.831-3.4331 16.746" style="stroke:#ffa200;stroke-width:2;fill:none"/>
    <path style="stroke:#ffa200;stroke-width:2;fill:none" d="m95.666 396.1c10.108 4.0206 28.761 8.831 3.4331 16.746"/>
    <text style="font-size:141.13px;font-family:&apos;AR CENA&apos;;letter-spacing:0px;line-height:125%;word-spacing:0px;font-weight:100;fill:#ffa200" transform="scale(1.1449 .87345)" xml:space="preserve" y="503.43069" x="62.912571"><tspan y="503.43069" x="62.912571">1</tspan></text>
    <path style="stroke:#000;stroke-width:2;fill:none" d="m99.564 412.68s-2.098.38062-1.1444 3.0448"/>
    <ellipse style="stroke-linejoin:bevel;color-rendering:auto;color:#000000;shape-rendering:auto;solid-color:#000000;stroke:#f2f2f2;stroke-linecap:square;fill:#f2f2f2;fill-rule:evenodd;mix-blend-mode:normal;image-rendering:auto;isolation:auto" rx="2.2734" ry="2.3857" cy="370.49" cx="88.58"/>
    <ellipse style="stroke-linejoin:bevel;color-rendering:auto;color:#000000;shape-rendering:auto;solid-color:#000000;stroke:#f2f2f2;stroke-linecap:square;fill:#f2f2f2;fill-rule:evenodd;mix-blend-mode:normal;image-rendering:auto;isolation:auto" rx="2.2734" ry="2.3857" cy="370.49" cx="98.274"/>
    <ellipse style="color-rendering:auto;color:#000000;isolation:auto;mix-blend-mode:normal;fill-rule:evenodd;shape-rendering:auto;solid-color:#000000;image-rendering:auto;fill:#1a1a1a" rx=".96460" ry="1.0281" cy="370.67" cx="100.4"/>
    <path d="m88.621 386.37s8.4091 2.1861 11.265-3.7477c0 0-3.1105 3.6916-11.265 3.7477z" style="fill-rule:evenodd;stroke:#f2f2f2;fill:#f2f2f2"/>
    <path d="m80.398 412.68s2.098.38062 1.1444 3.0448" style="stroke:#000;stroke-width:2;fill:none"/>
    <path style="stroke:#000;stroke-width:2;fill:none" d="m80.533 413.05l2.8813-2.7294"/>
    <path d="m80.357 412.71l3.9639.26832" style="stroke:#000;stroke-width:2;fill:none"/>
    <path d="m99.429 413.05l-2.8813-2.7294" style="stroke:#000;stroke-width:2;fill:none"/>
    <path style="stroke:#000;stroke-width:2;fill:none" d="m99.606 412.71l-3.9639.26832"/>
    <ellipse style="color-rendering:auto;color:#000000;isolation:auto;mix-blend-mode:normal;fill-rule:evenodd;shape-rendering:auto;solid-color:#000000;image-rendering:auto;fill:#1a1a1a" rx=".96460" ry="1.0281" cy="370.61" cx="90.678"/>
    <path d="m85.721 367.15s2.4397-2.3026 5.209-.59216" style="stroke:#000;stroke-width:.5;fill:none"/>
    <path style="stroke:#000;stroke-width:.5;fill:none" d="m100.88 365.3s-2.4397-2.3026-5.209-.59216"/>
   </g>
  </g>
  <g transform="translate(0 -1.9497)">
   <g transform="translate(-516.58 -337.68)">
    <text style="font-size:141.9px;font-weight:100;fill-opacity:.73502;letter-spacing:0px;line-height:125%;word-spacing:0px;font-family:&apos;AR CENA&apos;;fill:#ffcf00" transform="scale(.99976 1.0002)" y="425.42844" x="295.48062" xml:space="preserve"><tspan y="425.42844" x="295.48062">3</tspan></text>
    <path style="fill-rule:evenodd;stroke:#ffcf00;stroke-width:1px;fill:#ffa200" d="m321.35 424.77s-.32265 22.231-2.5811 23.219"/>
    <path style="fill-rule:evenodd;stroke:#ffcf00;stroke-width:1px" d="m311.15 448.51s1.2676-1.8633 8.1631-2.4067c0 0 .60843 3.2607-.20286 3.6489-.81124.38818-7.7575 3.1054-8.2645 2.4844-.50702-.62107-.96333-2.8725.30422-3.7265z"/>
    <path d="m337.42 422.49s.32264 22.231 2.5811 23.219" style="fill-rule:evenodd;stroke:#ffcf00;stroke-width:1px;fill:#ffa200"/>
    <path d="m347.61 446.23s-1.2675-1.8633-8.1631-2.4067c0 0-.60843 3.2607.20287 3.6489.81124.38816 7.7575 3.1054 8.2645 2.4843.50702-.62106.96332-2.8725-.30423-3.7265z" style="fill-rule:evenodd;stroke:#ffcf00;stroke-width:1px"/>
    <path d="m346.47 383.91s42.566 4.1275 12.723 21.86" style="stroke:#ffcf00;stroke-width:2;fill:none"/>
    <path style="stroke:#ffcf00;stroke-width:2;fill:none" d="m315.19 383.91s-29.892.44635-32.346-10.043"/>
    <path d="m359.37 406.35 1.3655 4.6455" style="stroke:#000;stroke-width:2;fill:none"/>
    <text style="font-size:141.9px;font-weight:100;letter-spacing:0px;line-height:125%;word-spacing:0px;font-family:&apos;AR CENA&apos;;fill:#ffcf00" xml:space="preserve" transform="scale(.99976 1.0002)" y="425.42844" x="290.7507"><tspan x="290.7507" y="425.42844">3</tspan></text>
    <path d="m348.55 365.05s7.1124 1.8541 9.528-3.1785c0 0-2.6309 3.131-9.528 3.1785z" style="fill-rule:evenodd;stroke:#f2f2f2;stroke-width:.5;fill:#f2f2f2"/>
    <path style="stroke:#000;stroke-width:2;fill:none" d="m283.09 373.8 2.288-3.4493"/>
    <path d="m283.34 374.43-1.6448-4.522" style="stroke:#000;stroke-width:2;fill:none"/>
    <path style="stroke:#000;stroke-width:2;fill:none" d="m283 373.93-3.8212-.8308"/>
    <path style="stroke:#000;stroke-width:2;fill:none" d="m360.38 406.01-4.1048 3.8936"/>
    <path d="m359.31 406.17-4.7806-.69003" style="stroke:#000;stroke-width:2;fill:none"/>
    <ellipse style="stroke-linejoin:bevel;color-rendering:auto;color:#000000;shape-rendering:auto;solid-color:#000000;stroke:#f2f2f2;stroke-linecap:square;stroke-width:.5;fill:#f2f2f2;fill-rule:evenodd;mix-blend-mode:normal;image-rendering:auto;isolation:auto" rx="1.9228" ry="2.0234" cy="351.39" cx="348.8"/>
    <ellipse style="stroke-linejoin:bevel;color-rendering:auto;color:#000000;shape-rendering:auto;solid-color:#000000;stroke:#f2f2f2;stroke-linecap:square;stroke-width:.5;fill:#f2f2f2;fill-rule:evenodd;mix-blend-mode:normal;image-rendering:auto;isolation:auto" rx="1.9228" ry="2.0234" cy="351.39" cx="357"/>
    <ellipse style="color-rendering:auto;color:#000000;isolation:auto;mix-blend-mode:normal;fill-rule:evenodd;shape-rendering:auto;solid-color:#000000;image-rendering:auto;fill:#1a1a1a" rx=".81586" ry=".87199" cy="351.88" cx="358.35"/>
    <ellipse style="color-rendering:auto;color:#000000;isolation:auto;mix-blend-mode:normal;fill-rule:evenodd;shape-rendering:auto;solid-color:#000000;image-rendering:auto;fill:#1a1a1a" rx=".81586" ry=".87199" cy="352.21" cx="349.95"/>
    <path style="stroke:#000;stroke-width:0.3;fill:none" d="m346.79 348.13s2.0635-1.9529 4.4058-.50222"/>
    <path d="m360.55 348.08s-2.0635-1.9529-4.4058-.50222" style="stroke:#000;stroke-width:0.3;fill:none"/>
   </g>
   <text style="font-size:81.086px;font-weight:100;letter-spacing:0px;line-height:125%;word-spacing:0px;font-family:&apos;AR CENA&apos;;fill:#000000" y="82.668861" x="-68.169861" xml:space="preserve"><tspan y="82.668861" x="-68.169861">%</tspan></text>
   <g transform="translate(-100.91 -344.64)">
    <path style="fill-rule:evenodd;stroke:#ffa200;stroke-width:1px;fill:#ffa200" d="m171.5 434.32s-.32264 14.526-2.5811 15.171"/>
    <path style="fill-rule:evenodd;stroke:#ffa200;stroke-width:1px" d="m161.3 449.84s1.2676-1.2174 8.1631-1.5726c0 0 .60843 2.1306-.20286 2.3842-.81125.25364-7.7575 2.0291-8.2645 1.6233-.50702-.40581-.96332-1.8769.30423-2.4349z"/>
    <path d="m187.57 434s.32264 14.526 2.5811 15.171" style="fill-rule:evenodd;stroke:#ffa200;stroke-width:1px;fill:#ffa200"/>
    <path d="m197.76 449.51s-1.2676-1.2174-8.1631-1.5726c0 0-.60843 2.1306.20286 2.3842.81125.25364 7.7575 2.0291 8.2645 1.6233.50701-.40581.96332-1.8769-.30423-2.4349z" style="fill-rule:evenodd;stroke:#ffa200;stroke-width:1px"/>
    <path d="m200.3 400.39s29.892.44635 32.346-10.043" style="stroke:#f70;stroke-width:2;fill:none"/>
    <path d="m232.82 390.49-2.8362-3.9236" style="stroke:#000;stroke-width:2;fill:none"/>
    <path style="stroke:#000;stroke-width:2;fill:none" d="m232.51 391.11 2.039-5.0366"/>
    <path d="m232.94 390.64 4.7368-.94505" style="stroke:#000;stroke-width:2;fill:none"/>
    <path style="stroke:#f70;stroke-width:2;fill:none" d="m190.28 400.39s-29.892.44635-32.346-10.043"/>
    <text style="font-size:141.9px;font-weight:100;letter-spacing:0px;line-height:125%;word-spacing:0px;font-family:&apos;AR CENA&apos;;fill:#f5933e" xml:space="preserve" transform="scale(.99976 1.0002)" y="439.49542" x="159.77184"><tspan x="159.77184" y="439.49542">2</tspan></text>
    <text style="font-size:141.9px;font-weight:100;letter-spacing:0px;line-height:125%;word-spacing:0px;font-family:&apos;AR CENA&apos;;fill:#ff7700" transform="scale(.99976 1.0002)" xml:space="preserve" y="439.49542" x="155.67184"><tspan y="439.49542" x="155.67184">2</tspan></text>
    <path style="stroke:#000;stroke-width:2;fill:none" d="m158.18 390.27 2.288-3.4493"/>
    <path d="m158.42 390.9-1.6448-4.522" style="stroke:#000;stroke-width:2;fill:none"/>
    <path style="stroke:#000;stroke-width:2;fill:none" d="m158.08 390.41-3.8212-.8308"/>
    <path d="m207.3 376.96s7.1124 1.8541 9.528-3.1785c0 0-2.6309 3.1309-9.528 3.1785z" style="fill-rule:evenodd;stroke:#f2f2f2;stroke-width:.5;fill:#f2f2f2"/>
    <ellipse style="stroke-linejoin:bevel;color-rendering:auto;color:#000000;shape-rendering:auto;solid-color:#000000;stroke:#f2f2f2;stroke-linecap:square;stroke-width:.5;fill:#f2f2f2;fill-rule:evenodd;mix-blend-mode:normal;image-rendering:auto;isolation:auto" rx="1.9228" ry="2.0234" cy="362.26" cx="208.31"/>
    <ellipse style="stroke-linejoin:bevel;color-rendering:auto;color:#000000;shape-rendering:auto;solid-color:#000000;stroke:#f2f2f2;stroke-linecap:square;stroke-width:.5;fill:#f2f2f2;fill-rule:evenodd;mix-blend-mode:normal;image-rendering:auto;isolation:auto" rx="1.9228" ry="2.0234" cy="362.26" cx="216.51"/>
    <ellipse style="color-rendering:auto;color:#000000;isolation:auto;mix-blend-mode:normal;fill-rule:evenodd;shape-rendering:auto;solid-color:#000000;image-rendering:auto;fill:#1a1a1a" rx=".81586" ry=".87199" cy="360.62" cx="216.52"/>
    <ellipse style="color-rendering:auto;color:#000000;isolation:auto;mix-blend-mode:normal;fill-rule:evenodd;shape-rendering:auto;solid-color:#000000;image-rendering:auto;fill:#1a1a1a" rx=".81586" ry=".87199" cy="363.85" cx="208.35"/>
    <path style="stroke:#000;stroke-width:0.3;fill:none" d="m205.84 359.58s2.0635-1.9529 4.4058-.50223"/>
    <path d="m218.82 357.86s-2.0635-1.9529-4.4058-.50222" style="stroke:#000;stroke-width:0.3;fill:none"/>
   </g>
   <text style="font-size:161.9px;font-weight:100;letter-spacing:0px;line-height:125%;word-spacing:0px;font-family:&apos;AR CENA&apos;;fill:#000000" xml:space="preserve" y="93.105812" x="268.41782"><tspan x="268.41782" y="93.105812">=</tspan></text>
   <use id="c" xlink:href="#d" transform="translate(0,180)" height="100%" width="100%" y="0" x="0"/>
  </g>
  <g transform="translate(0 -1.4981)">
   <g transform="translate(-793.2 -162.24)">
    <text style="font-size:141.9px;font-weight:100;letter-spacing:0px;line-height:125%;word-spacing:0px;font-family:&apos;AR CENA&apos;;fill:#ee6033" xml:space="preserve" transform="scale(.99976 1.0002)" y="434.55173" x="578.95007"><tspan x="578.95007" y="434.55173">5</tspan></text>
    <text style="font-size:141.9px;font-weight:100;letter-spacing:0px;line-height:125%;word-spacing:0px;font-family:&apos;AR CENA&apos;;fill:#ff3e00" transform="scale(.99976 1.0002)" y="434.55173" x="574.22015" xml:space="preserve"><tspan y="434.55173" x="574.22015">5</tspan></text>
    <path style="fill-rule:evenodd;stroke:#ff3e00;stroke-width:1px;fill:#ffa200" d="m602.94 424.77s-.32264 22.231-2.5811 23.219"/>
    <path style="fill-rule:evenodd;stroke:#ff3e00;stroke-width:1px" d="m592.74 448.51s1.2676-1.8633 8.1631-2.4067c0 0 .60843 3.2607-.20286 3.6489-.81125.38818-7.7575 3.1054-8.2645 2.4844-.50702-.62107-.96333-2.8725.30422-3.7265z"/>
    <path d="m610.8 424.7s.32264 22.231 2.5811 23.219" style="fill-rule:evenodd;stroke:#ff3e00;stroke-width:1px;fill:#ffa200"/>
    <path d="m621 448.44s-1.2676-1.8632-8.1631-2.4067c0 0-.60843 3.2607.20286 3.6489.81124.38816 7.7575 3.1054 8.2645 2.4844.50702-.62107.96333-2.8725-.30422-3.7265z" style="fill-rule:evenodd;stroke:#ff3e00;stroke-width:1px"/>
    <path d="m632.05 393.65s42.566-4.6357 12.723-24.551" style="stroke:#ff3e00;stroke-width:2;fill:none"/>
    <path d="m582.85 388.46s-29.892.44635-32.346-10.043" style="stroke:#ff3e00;stroke-width:2;fill:none"/>
    <path d="m550.75 378.35 2.288-3.4493" style="stroke:#000;stroke-width:2;fill:none"/>
    <path style="stroke:#000;stroke-width:2;fill:none" d="m550.99 378.98-1.6448-4.522"/>
    <ellipse style="stroke-linejoin:bevel;color-rendering:auto;color:#000000;shape-rendering:auto;solid-color:#000000;stroke:#f2f2f2;stroke-linecap:square;stroke-width:.5;fill:#f2f2f2;fill-rule:evenodd;mix-blend-mode:normal;image-rendering:auto;isolation:auto" rx="1.9228" ry="2.0234" cy="358.42" cx="589.82"/>
    <ellipse style="stroke-linejoin:bevel;color-rendering:auto;color:#000000;shape-rendering:auto;solid-color:#000000;stroke:#f2f2f2;stroke-linecap:square;stroke-width:.5;fill:#f2f2f2;fill-rule:evenodd;mix-blend-mode:normal;image-rendering:auto;isolation:auto" rx="1.9228" ry="2.0234" cy="358.13" cx="600.62"/>
    <ellipse style="color-rendering:auto;color:#000000;isolation:auto;mix-blend-mode:normal;fill-rule:evenodd;shape-rendering:auto;solid-color:#000000;image-rendering:auto;fill:#1a1a1a" rx=".81586" ry=".87199" cy="358.42" cx="600.54"/>
    <ellipse style="color-rendering:auto;color:#000000;isolation:auto;mix-blend-mode:normal;fill-rule:evenodd;shape-rendering:auto;solid-color:#000000;image-rendering:auto;fill:#1a1a1a" rx=".81586" ry=".87199" cy="358.62" cx="589.74"/>
    <path style="stroke:#000;stroke-width:0.3;fill:none" d="m597.96 355.23s2.7021-1.9529 5.7693-.50222"/>
    <path d="m593.5 355.76s-2.7021-3.2881-5.7693-.84561" style="stroke:#000;stroke-width:0.3;fill:none"/>
    <path style="fill-rule:evenodd;stroke:#f2f2f2;stroke-width:.5;fill:#f2f2f2" d="m587.22 365.66s7.7257 5.3308 10.141.29815c0 0-3.2441-.34572-10.141-.29815z"/>
    <path d="m550.65 378.48-3.8212-.8308" style="stroke:#000;stroke-width:2;fill:none"/>
    <path style="stroke:#000;stroke-width:2;fill:none" d="m645.55 369.48 1.1428-3.9787"/>
    <path d="m645.97 370-2.9303-3.816" style="stroke:#000;stroke-width:2;fill:none"/>
    <path style="stroke:#000;stroke-width:2;fill:none" d="m645.5 369.63-3.8938.35975"/>
   </g>
   <text style="font-size:81.086px;font-weight:100;letter-spacing:0px;line-height:125%;word-spacing:0px;font-family:&apos;AR CENA&apos;;fill:#000000" xml:space="preserve" y="262.66885" x="-68.169861"><tspan x="-68.169861" y="262.66885">%</tspan></text>
   <g transform="translate(-100.91 -164.64)">
    <path d="m171.5 434.32s-.32264 14.526-2.5811 15.171" style="fill-rule:evenodd;stroke:#ffa200;stroke-width:1px;fill:#ffa200"/>
    <path d="m161.3 449.84s1.2676-1.2174 8.1631-1.5726c0 0 .60843 2.1306-.20286 2.3842-.81125.25364-7.7575 2.0291-8.2645 1.6233-.50702-.40581-.96332-1.8769.30423-2.4349z" style="fill-rule:evenodd;stroke:#ffa200;stroke-width:1px"/>
    <path style="fill-rule:evenodd;stroke:#ffa200;stroke-width:1px;fill:#ffa200" d="m187.57 434s.32264 14.526 2.5811 15.171"/>
    <path style="fill-rule:evenodd;stroke:#ffa200;stroke-width:1px" d="m197.76 449.51s-1.2676-1.2174-8.1631-1.5726c0 0-.60843 2.1306.20286 2.3842.81125.25364 7.7575 2.0291 8.2645 1.6233.50701-.40581.96332-1.8769-.30423-2.4349z"/>
    <path style="stroke:#f70;stroke-width:2;fill:none" d="m200.3 400.39s29.892.44635 32.346-10.043"/>
    <path style="stroke:#000;stroke-width:2;fill:none" d="m232.82 390.49-2.8362-3.9236"/>
    <path d="m232.51 391.11 2.039-5.0366" style="stroke:#000;stroke-width:2;fill:none"/>
    <path style="stroke:#000;stroke-width:2;fill:none" d="m232.94 390.64 4.7368-.94505"/>
    <path d="m190.28 400.39s-29.892.44635-32.346-10.043" style="stroke:#f70;stroke-width:2;fill:none"/>
    <text style="font-size:141.9px;font-weight:100;letter-spacing:0px;line-height:125%;word-spacing:0px;font-family:&apos;AR CENA&apos;;fill:#f5933e" transform="scale(.99976 1.0002)" y="439.49542" x="159.77184" xml:space="preserve"><tspan y="439.49542" x="159.77184">2</tspan></text>
    <text style="font-size:141.9px;font-weight:100;letter-spacing:0px;line-height:125%;word-spacing:0px;font-family:&apos;AR CENA&apos;;fill:#ff7700" xml:space="preserve" transform="scale(.99976 1.0002)" y="439.49542" x="155.67184"><tspan x="155.67184" y="439.49542">2</tspan></text>
    <path d="m158.18 390.27 2.288-3.4493" style="stroke:#000;stroke-width:2;fill:none"/>
    <path style="stroke:#000;stroke-width:2;fill:none" d="m158.42 390.9-1.6448-4.522"/>
    <path d="m158.08 390.41-3.8212-.8308" style="stroke:#000;stroke-width:2;fill:none"/>
    <path style="fill-rule:evenodd;stroke:#f2f2f2;stroke-width:.5;fill:#f2f2f2" d="m207.3 376.96s7.1124 1.8541 9.528-3.1785c0 0-2.6309 3.1309-9.528 3.1785z"/>
    <ellipse style="stroke-linejoin:bevel;color-rendering:auto;color:#000000;shape-rendering:auto;solid-color:#000000;stroke:#f2f2f2;stroke-linecap:square;stroke-width:.5;fill:#f2f2f2;fill-rule:evenodd;mix-blend-mode:normal;image-rendering:auto;isolation:auto" rx="1.9228" ry="2.0234" cy="362.26" cx="208.31"/>
    <ellipse style="stroke-linejoin:bevel;color-rendering:auto;color:#000000;shape-rendering:auto;solid-color:#000000;stroke:#f2f2f2;stroke-linecap:square;stroke-width:.5;fill:#f2f2f2;fill-rule:evenodd;mix-blend-mode:normal;image-rendering:auto;isolation:auto" rx="1.9228" ry="2.0234" cy="362.26" cx="216.51"/>
    <ellipse style="color-rendering:auto;color:#000000;isolation:auto;mix-blend-mode:normal;fill-rule:evenodd;shape-rendering:auto;solid-color:#000000;image-rendering:auto;fill:#1a1a1a" rx=".81586" ry=".87199" cy="360.62" cx="216.52"/>
    <ellipse style="color-rendering:auto;color:#000000;isolation:auto;mix-blend-mode:normal;fill-rule:evenodd;shape-rendering:auto;solid-color:#000000;image-rendering:auto;fill:#1a1a1a" rx=".81586" ry=".87199" cy="363.85" cx="208.35"/>
    <path d="m205.84 359.58s2.0635-1.9529 4.4058-.50223" style="stroke:#000;stroke-width:0.3;fill:none"/>
    <path style="stroke:#000;stroke-width:0.3;fill:none" d="m218.82 357.86s-2.0635-1.9529-4.4058-.50222"/>
   </g>
   <text style="font-size:161.9px;font-weight:100;letter-spacing:0px;line-height:125%;word-spacing:0px;font-family:&apos;AR CENA&apos;;fill:#000000" y="273.1058" x="268.41782" xml:space="preserve"><tspan y="273.1058" x="268.41782">=</tspan></text>
   <use id="b" xlink:href="#c" transform="translate(0,180)" height="100%" width="100%" y="0" x="0"/>
  </g>
  <g transform="translate(0 -2.7938)">
   <g transform="translate(-476.03 -161.67)">
    <path d="m269.1 607.01s-.32265 22.231-2.5811 23.219" style="fill-rule:evenodd;stroke:#ff0067;stroke-width:1px;fill:#ffa200"/>
    <path d="m258.91 630.75s1.2675-1.8633 8.1631-2.4067c0 0 .60843 3.2607-.20287 3.6489-.81124.38818-7.7575 3.1054-8.2645 2.4844-.50702-.62107-.96332-2.8725.30423-3.7265z" style="fill-rule:evenodd;stroke:#ff0067;stroke-width:1px"/>
    <path style="fill-rule:evenodd;stroke:#ff0067;stroke-width:1px;fill:#ffa200" d="m285.17 605.89s.32265 22.231 2.5811 23.219"/>
    <path style="fill-rule:evenodd;stroke:#ff0067;stroke-width:1px" d="m295.37 629.63s-1.2676-1.8633-8.1631-2.4067c0 0-.60842 3.2607.20287 3.6489.81124.38816 7.7575 3.1054 8.2645 2.4844.50702-.62107.96332-2.8725-.30422-3.7265z"/>
    <path d="m288.68 570.7s29.892.44635 32.346-10.043" style="stroke:#ff0067;stroke-width:2;fill:none"/>
    <path d="m321.19 560.81-2.8362-3.9236" style="stroke:#000;stroke-width:2;fill:none"/>
    <path style="stroke:#000;stroke-width:2;fill:none" d="m320.89 561.43 2.039-5.0366"/>
    <path d="m321.31 560.96 4.7368-.94506" style="stroke:#000;stroke-width:2;fill:none"/>
    <path style="stroke:#ff0067;stroke-width:2;fill:none" d="m278.66 570.7s-29.892.44635-32.346-10.043"/>
    <path style="stroke:#000;stroke-width:2;fill:none" d="m246.55 560.59 2.288-3.4493"/>
    <path d="m246.8 561.22-1.6448-4.522" style="stroke:#000;stroke-width:2;fill:none"/>
    <path style="stroke:#000;stroke-width:2;fill:none" d="m246.46 560.72-3.8212-.83079"/>
    <text style="letter-spacing:0px;font-size:141.9px;word-spacing:0px;font-family:sans-serif;line-height:125%;fill:#dc246e" transform="scale(.99976 1.0002)" y="610.5528" x="253.23718" xml:space="preserve"><tspan y="610.5528" x="253.23718" style="font-family:&apos;AR CENA&apos;;font-weight:100;fill:#dc246e">7</tspan></text>
    <text style="letter-spacing:0px;font-size:141.9px;word-spacing:0px;font-family:sans-serif;line-height:125%;fill:#ff0067" xml:space="preserve" transform="scale(.99976 1.0002)" y="610.5528" x="248.50726"><tspan x="248.50726" style="font-family:&apos;AR CENA&apos;;font-weight:100;fill:#ff0067" y="610.5528">7</tspan></text>
    <ellipse style="stroke-linejoin:bevel;color-rendering:auto;color:#000000;shape-rendering:auto;solid-color:#000000;stroke:#f2f2f2;stroke-linecap:square;stroke-width:.5;fill:#f2f2f2;fill-rule:evenodd;mix-blend-mode:normal;image-rendering:auto;isolation:auto" rx="2.176" ry="2.291" cy="532.82" cx="295.41"/>
    <ellipse style="stroke-linejoin:bevel;color-rendering:auto;color:#000000;shape-rendering:auto;solid-color:#000000;stroke:#f2f2f2;stroke-linecap:square;stroke-width:.5;fill:#f2f2f2;fill-rule:evenodd;mix-blend-mode:normal;image-rendering:auto;isolation:auto" rx="2.176" ry="2.291" cy="532.49" cx="306.08"/>
    <ellipse style="color-rendering:auto;color:#000000;isolation:auto;mix-blend-mode:normal;fill-rule:evenodd;shape-rendering:auto;solid-color:#000000;image-rendering:auto;fill:#1a1a1a" rx=".92329" ry=".98733" cy="532.82" cx="307.63"/>
    <ellipse style="color-rendering:auto;color:#000000;isolation:auto;mix-blend-mode:normal;fill-rule:evenodd;shape-rendering:auto;solid-color:#000000;image-rendering:auto;fill:#1a1a1a" rx=".92329" ry=".98733" cy="533.05" cx="296.76"/>
    <path style="stroke:#000;stroke-width:0.3;fill:none" d="m303.08 529.21s3.0579-2.2112 6.529-.56865"/>
    <path d="m299.57 529.85s-3.0579-2.2112-6.529-.56865" style="stroke:#000;stroke-width:0.3;fill:none"/>
    <path d="m291.1 547.01s8.4091 2.1861 11.265-3.7477c0 0-3.1105 3.6916-11.265 3.7477z" style="fill-rule:evenodd;stroke:#f2f2f2;stroke-width:.5;fill:#f2f2f2"/>
   </g>
   <text style="font-size:81.086px;font-weight:100;letter-spacing:0px;line-height:125%;word-spacing:0px;font-family:&apos;AR CENA&apos;;fill:#000000" y="442.66885" x="-68.169861" xml:space="preserve"><tspan y="442.66885" x="-68.169861">%</tspan></text>
   <g transform="translate(-100.91 15.356)">
    <path style="fill-rule:evenodd;stroke:#ffa200;stroke-width:1px;fill:#ffa200" d="m171.5 434.32s-.32264 14.526-2.5811 15.171"/>
    <path style="fill-rule:evenodd;stroke:#ffa200;stroke-width:1px" d="m161.3 449.84s1.2676-1.2174 8.1631-1.5726c0 0 .60843 2.1306-.20286 2.3842-.81125.25364-7.7575 2.0291-8.2645 1.6233-.50702-.40581-.96332-1.8769.30423-2.4349z"/>
    <path d="m187.57 434s.32264 14.526 2.5811 15.171" style="fill-rule:evenodd;stroke:#ffa200;stroke-width:1px;fill:#ffa200"/>
    <path d="m197.76 449.51s-1.2676-1.2174-8.1631-1.5726c0 0-.60843 2.1306.20286 2.3842.81125.25364 7.7575 2.0291 8.2645 1.6233.50701-.40581.96332-1.8769-.30423-2.4349z" style="fill-rule:evenodd;stroke:#ffa200;stroke-width:1px"/>
    <path d="m200.3 400.39s29.892.44635 32.346-10.043" style="stroke:#f70;stroke-width:2;fill:none"/>
    <path d="m232.82 390.49-2.8362-3.9236" style="stroke:#000;stroke-width:2;fill:none"/>
    <path style="stroke:#000;stroke-width:2;fill:none" d="m232.51 391.11 2.039-5.0366"/>
    <path d="m232.94 390.64 4.7368-.94505" style="stroke:#000;stroke-width:2;fill:none"/>
    <path style="stroke:#f70;stroke-width:2;fill:none" d="m190.28 400.39s-29.892.44635-32.346-10.043"/>
    <text style="font-size:141.9px;font-weight:100;letter-spacing:0px;line-height:125%;word-spacing:0px;font-family:&apos;AR CENA&apos;;fill:#f5933e" xml:space="preserve" transform="scale(.99976 1.0002)" y="439.49542" x="159.77184"><tspan x="159.77184" y="439.49542">2</tspan></text>
    <text style="font-size:141.9px;font-weight:100;letter-spacing:0px;line-height:125%;word-spacing:0px;font-family:&apos;AR CENA&apos;;fill:#ff7700" transform="scale(.99976 1.0002)" xml:space="preserve" y="439.49542" x="155.67184"><tspan y="439.49542" x="155.67184">2</tspan></text>
    <path style="stroke:#000;stroke-width:2;fill:none" d="m158.18 390.27 2.288-3.4493"/>
    <path d="m158.42 390.9-1.6448-4.522" style="stroke:#000;stroke-width:2;fill:none"/>
    <path style="stroke:#000;stroke-width:2;fill:none" d="m158.08 390.41-3.8212-.8308"/>
    <path d="m207.3 376.96s7.1124 1.8541 9.528-3.1785c0 0-2.6309 3.1309-9.528 3.1785z" style="fill-rule:evenodd;stroke:#f2f2f2;stroke-width:.5;fill:#f2f2f2"/>
    <ellipse style="stroke-linejoin:bevel;color-rendering:auto;color:#000000;shape-rendering:auto;solid-color:#000000;stroke:#f2f2f2;stroke-linecap:square;stroke-width:.5;fill:#f2f2f2;fill-rule:evenodd;mix-blend-mode:normal;image-rendering:auto;isolation:auto" rx="1.9228" ry="2.0234" cy="362.26" cx="208.31"/>
    <ellipse style="stroke-linejoin:bevel;color-rendering:auto;color:#000000;shape-rendering:auto;solid-color:#000000;stroke:#f2f2f2;stroke-linecap:square;stroke-width:.5;fill:#f2f2f2;fill-rule:evenodd;mix-blend-mode:normal;image-rendering:auto;isolation:auto" rx="1.9228" ry="2.0234" cy="362.26" cx="216.51"/>
    <ellipse style="color-rendering:auto;color:#000000;isolation:auto;mix-blend-mode:normal;fill-rule:evenodd;shape-rendering:auto;solid-color:#000000;image-rendering:auto;fill:#1a1a1a" rx=".81586" ry=".87199" cy="360.62" cx="216.52"/>
    <ellipse style="color-rendering:auto;color:#000000;isolation:auto;mix-blend-mode:normal;fill-rule:evenodd;shape-rendering:auto;solid-color:#000000;image-rendering:auto;fill:#1a1a1a" rx=".81586" ry=".87199" cy="363.85" cx="208.35"/>
    <path style="stroke:#000;stroke-width:0.3;fill:none" d="m205.84 359.58s2.0635-1.9529 4.4058-.50223"/>
    <path d="m218.82 357.86s-2.0635-1.9529-4.4058-.50222" style="stroke:#000;stroke-width:0.3;fill:none"/>
   </g>
   <text style="font-size:161.9px;font-weight:100;letter-spacing:0px;line-height:125%;word-spacing:0px;font-family:&apos;AR CENA&apos;;fill:#000000" xml:space="preserve" y="453.1058" x="268.41782"><tspan x="268.41782" y="453.1058">=</tspan></text>
   <use id="a" xlink:href="#b" transform="translate(0,180)" height="100%" width="100%" y="0" x="0"/>
  </g>
  <g transform="translate(0 -.000011184)">
   <g transform="translate(-799.09 22.764)">
    <path d="m625.95 603.85s-.32265 22.231-2.5811 23.219" style="fill-rule:evenodd;stroke:#d750ed;stroke-width:1px;fill:#ffa200"/>
    <path d="m615.75 627.59s1.2675-1.8633 8.1631-2.4067c0 0 .60842 3.2607-.20287 3.6489-.81124.38818-7.7575 3.1054-8.2645 2.4844-.50702-.62107-.96332-2.8725.30422-3.7265z" style="fill-rule:evenodd;stroke:#d750ed;stroke-width:1px"/>
    <path style="fill-rule:evenodd;stroke:#d750ed;stroke-width:1px;fill:#ffa200" d="m635.26 603.78s.32264 22.231 2.5811 23.219"/>
    <path style="fill-rule:evenodd;stroke:#d750ed;stroke-width:1px" d="m645.46 627.52s-1.2676-1.8632-8.1631-2.4067c0 0-.60843 3.2607.20286 3.6489.81124.38816 7.7575 3.1054 8.2645 2.4844.50702-.62107.96333-2.8725-.30422-3.7265z"/>
    <text style="font-size:141.9px;font-weight:100;letter-spacing:0px;line-height:125%;word-spacing:0px;font-family:&apos;AR CENA&apos;;fill:#d38dde" transform="scale(.99976 1.0002)" y="608.25281" x="576.67041" xml:space="preserve"><tspan y="608.25281" x="576.67041">9</tspan></text>
    <text style="font-size:141.9px;font-weight:100;letter-spacing:0px;line-height:125%;word-spacing:0px;font-family:&apos;AR CENA&apos;;fill:#d750ed" xml:space="preserve" transform="scale(.99976 1.0002)" y="608.25281" x="571.94049"><tspan x="571.94049" y="608.25281">9</tspan></text>
    <path style="fill-opacity:0;stroke:#d750ed;stroke-width:2" d="m637.97 564.52s26.417-17.271 14.872-30.749"/>
    <path style="stroke:#000;stroke-width:2;fill:none" d="m652.63 533.92-4.1308-.24089"/>
    <ellipse style="stroke-linejoin:bevel;color-rendering:auto;color:#000000;shape-rendering:auto;solid-color:#000000;stroke:#f2f2f2;stroke-linecap:square;stroke-width:.5;fill:#f2f2f2;fill-rule:evenodd;mix-blend-mode:normal;image-rendering:auto;isolation:auto" rx="1.9228" ry="2.0234" cy="532.07" cx="628.69"/>
    <ellipse style="stroke-linejoin:bevel;color-rendering:auto;color:#000000;shape-rendering:auto;solid-color:#000000;stroke:#f2f2f2;stroke-linecap:square;stroke-width:.5;fill:#f2f2f2;fill-rule:evenodd;mix-blend-mode:normal;image-rendering:auto;isolation:auto" rx="1.9228" ry="2.0234" cy="531.93" cx="639.92"/>
    <ellipse style="color-rendering:auto;color:#000000;isolation:auto;mix-blend-mode:normal;fill-rule:evenodd;shape-rendering:auto;solid-color:#000000;image-rendering:auto;fill:#1a1a1a" rx=".81586" ry=".87199" cy="532.21" cx="639.84"/>
    <ellipse style="color-rendering:auto;color:#000000;isolation:auto;mix-blend-mode:normal;fill-rule:evenodd;shape-rendering:auto;solid-color:#000000;image-rendering:auto;fill:#1a1a1a" rx=".81586" ry=".87199" cy="532.27" cx="628.61"/>
    <path style="stroke:#000;stroke-width:0.3;fill:none" d="m643.42 529.98s-2.7021-4.5493-5.7693-1.17"/>
    <path d="m625.63 530.26s2.7021-4.0772 5.7693-1.0486" style="stroke:#000;stroke-width:0.3;fill:none"/>
    <path style="fill-rule:evenodd;stroke:#f2f2f2;stroke-width:.5;fill:#f2f2f2" d="m628.75 542.28s6.6821 2.969 10.289.95454c0 0-4.8808-.28221-10.289-.95454z"/>
    <path d="m652.99 534.49-2.6265-4.0314" style="stroke:#000;stroke-width:2;fill:none"/>
    <path style="stroke:#000;stroke-width:2;fill:none" d="m652.8 533.92 1.6306-3.5559"/>
    <path d="m580.75 568.05s-23.957-17.891-19.505-27.701" style="fill-opacity:0;stroke:#d750ed;stroke-width:2"/>
    <path d="m561.48 540.44 3.9162-1.3366" style="stroke:#000;stroke-width:2;fill:none"/>
    <path style="stroke:#000;stroke-width:2;fill:none" d="m561.29 541.09 1.4541-4.587"/>
    <path d="m561.33 540.49-2.5211-2.9906" style="stroke:#000;stroke-width:2;fill:none"/>
   </g>
   <text style="font-size:81.086px;font-weight:100;letter-spacing:0px;line-height:125%;word-spacing:0px;font-family:&apos;AR CENA&apos;;fill:#000000" xml:space="preserve" y="622.66888" x="-68.169861"><tspan x="-68.169861" y="622.66888">%</tspan></text>
   <g transform="translate(-100.91 195.36)">
    <path d="m171.5 434.32s-.32264 14.526-2.5811 15.171" style="fill-rule:evenodd;stroke:#ffa200;stroke-width:1px;fill:#ffa200"/>
    <path d="m161.3 449.84s1.2676-1.2174 8.1631-1.5726c0 0 .60843 2.1306-.20286 2.3842-.81125.25364-7.7575 2.0291-8.2645 1.6233-.50702-.40581-.96332-1.8769.30423-2.4349z" style="fill-rule:evenodd;stroke:#ffa200;stroke-width:1px"/>
    <path style="fill-rule:evenodd;stroke:#ffa200;stroke-width:1px;fill:#ffa200" d="m187.57 434s.32264 14.526 2.5811 15.171"/>
    <path style="fill-rule:evenodd;stroke:#ffa200;stroke-width:1px" d="m197.76 449.51s-1.2676-1.2174-8.1631-1.5726c0 0-.60843 2.1306.20286 2.3842.81125.25364 7.7575 2.0291 8.2645 1.6233.50701-.40581.96332-1.8769-.30423-2.4349z"/>
    <path style="stroke:#f70;stroke-width:2;fill:none" d="m200.3 400.39s29.892.44635 32.346-10.043"/>
    <path style="stroke:#000;stroke-width:2;fill:none" d="m232.82 390.49-2.8362-3.9236"/>
    <path d="m232.51 391.11 2.039-5.0366" style="stroke:#000;stroke-width:2;fill:none"/>
    <path style="stroke:#000;stroke-width:2;fill:none" d="m232.94 390.64 4.7368-.94505"/>
    <path d="m190.28 400.39s-29.892.44635-32.346-10.043" style="stroke:#f70;stroke-width:2;fill:none"/>
    <text style="font-size:141.9px;font-weight:100;letter-spacing:0px;line-height:125%;word-spacing:0px;font-family:&apos;AR CENA&apos;;fill:#f5933e" transform="scale(.99976 1.0002)" y="439.49542" x="159.77184" xml:space="preserve"><tspan y="439.49542" x="159.77184">2</tspan></text>
    <text style="font-size:141.9px;font-weight:100;letter-spacing:0px;line-height:125%;word-spacing:0px;font-family:&apos;AR CENA&apos;;fill:#ff7700" xml:space="preserve" transform="scale(.99976 1.0002)" y="439.49542" x="155.67184"><tspan x="155.67184" y="439.49542">2</tspan></text>
    <path d="m158.18 390.27 2.288-3.4493" style="stroke:#000;stroke-width:2;fill:none"/>
    <path style="stroke:#000;stroke-width:2;fill:none" d="m158.42 390.9-1.6448-4.522"/>
    <path d="m158.08 390.41-3.8212-.8308" style="stroke:#000;stroke-width:2;fill:none"/>
    <path style="fill-rule:evenodd;stroke:#f2f2f2;stroke-width:.5;fill:#f2f2f2" d="m207.3 376.96s7.1124 1.8541 9.528-3.1785c0 0-2.6309 3.1309-9.528 3.1785z"/>
    <ellipse style="stroke-linejoin:bevel;color-rendering:auto;color:#000000;shape-rendering:auto;solid-color:#000000;stroke:#f2f2f2;stroke-linecap:square;stroke-width:.5;fill:#f2f2f2;fill-rule:evenodd;mix-blend-mode:normal;image-rendering:auto;isolation:auto" rx="1.9228" ry="2.0234" cy="362.26" cx="208.31"/>
    <ellipse style="stroke-linejoin:bevel;color-rendering:auto;color:#000000;shape-rendering:auto;solid-color:#000000;stroke:#f2f2f2;stroke-linecap:square;stroke-width:.5;fill:#f2f2f2;fill-rule:evenodd;mix-blend-mode:normal;image-rendering:auto;isolation:auto" rx="1.9228" ry="2.0234" cy="362.26" cx="216.51"/>
    <ellipse style="color-rendering:auto;color:#000000;isolation:auto;mix-blend-mode:normal;fill-rule:evenodd;shape-rendering:auto;solid-color:#000000;image-rendering:auto;fill:#1a1a1a" rx=".81586" ry=".87199" cy="360.62" cx="216.52"/>
    <ellipse style="color-rendering:auto;color:#000000;isolation:auto;mix-blend-mode:normal;fill-rule:evenodd;shape-rendering:auto;solid-color:#000000;image-rendering:auto;fill:#1a1a1a" rx=".81586" ry=".87199" cy="363.85" cx="208.35"/>
    <path d="m205.84 359.58s2.0635-1.9529 4.4058-.50223" style="stroke:#000;stroke-width:0.3;fill:none"/>
    <path style="stroke:#000;stroke-width:0.3;fill:none" d="m218.82 357.86s-2.0635-1.9529-4.4058-.50222"/>
   </g>
   <text style="font-size:161.9px;font-weight:100;letter-spacing:0px;line-height:125%;word-spacing:0px;font-family:&apos;AR CENA&apos;;fill:#000000" y="633.10583" x="268.41782" xml:space="preserve"><tspan y="633.10583" x="268.41782">=</tspan></text>
   <use xlink:href="#a" transform="translate(0,180)" height="100%" width="100%" y="0" x="0"/>
  </g>
 </g>
</svg>
