<svg style="font-family:sans-serif;font-size:35px;" xmlns="http://www.w3.org/2000/svg" height="103.86mm" width="103.86mm" viewBox="0 0 368.00001 367.99998"><defs><linearGradient id="a" y2="933.58" gradientUnits="userSpaceOnUse" x2="1189.2" gradientTransform="translate(-.0000027236 -.28569)" y1="140.61" x1="128.73"><stop style="stop-color:#00a8de" offset="0"/><stop style="stop-color:#00a8de;stop-opacity:0" offset="1"/></linearGradient></defs><g transform="translate(-141.86 -145.36)"><rect style="stroke:url(#a);stroke-width:2;fill:#fff" height="366" width="366" y="146.36" x="142.86"/><g transform="translate(2.6429 -.14285)"><path d="m215.71 147.54v363.94" style="stroke-opacity:.95294;stroke:#00a8de;fill:none"/><path d="m287.38 147.54v363.94" style="stroke-opacity:.95294;stroke:#00a8de;fill:none"/><path d="m359.05 147.54v363.94" style="stroke-opacity:.95294;stroke:#00a8de;fill:none"/><path d="m430.71 147.54v363.94" style="stroke-opacity:.95294;stroke:#00a8de;fill:none"/></g><g transform="matrix(0 -1 1 0 -3.6479 652.58)"><path d="m215.71 147.54v363.94" style="stroke-opacity:.95294;stroke:#00a8de;fill:none"/><path d="m287.38 147.54v363.94" style="stroke-opacity:.95294;stroke:#00a8de;fill:none"/><path d="m359.05 147.54v363.94" style="stroke-opacity:.95294;stroke:#00a8de;fill:none"/><path d="m430.71 147.54v363.94" style="stroke-opacity:.95294;stroke:#00a8de;fill:none"/></g><text style="fill:#00a8de" y="199.42696" x="171.27341"><tspan x="171.27341" y="199.42696">2</tspan></text><text style="fill:#00a8de" y="199.16206" x="245.36975"><tspan x="245.36975" y="199.16206">3</tspan></text><text style="fill:#00a8de" y="198.89717" x="314.76541"><tspan x="314.76541" y="198.89717">5</tspan></text><text style="fill:#00a8de" y="199.16206" x="386.87885"><tspan x="386.87885" y="199.16206">7</tspan></text><text style="fill:#00a8de" y="199.20479" x="447.14658"><tspan x="447.14658" y="199.20479">11</tspan></text><text style="fill:#00a8de" y="271.87805" x="156.92822"><tspan x="156.92822" y="271.87805">13</tspan></text><text style="fill:#00a8de" y="271.92078" x="230.10854"><tspan x="230.10854" y="271.92078">17</tspan></text><text style="fill:#00a8de" y="271.8866" x="301.71606"><tspan x="301.71606" y="271.8866">19</tspan></text><text style="fill:#00a8de" y="271.87805" x="375.22055"><tspan x="375.22055" y="271.87805">23</tspan></text><text style="fill:#00a8de" y="271.89514" x="446.40039"><tspan x="446.40039" y="271.89514">29</tspan></text><text style="fill:#00a8de" y="345.81903" x="156.12111"><tspan x="156.12111" y="345.81903">31</tspan></text><text style="fill:#00a8de" y="345.81903" x="230.93445"><tspan x="230.93445" y="345.81903">37</tspan></text><text style="fill:#00a8de" y="345.86176" x="302.80688"><tspan x="302.80688" y="345.86176">41</tspan></text><text style="fill:#00a8de" y="345.81903" x="375.15829"><tspan x="375.15829" y="345.81903">43</tspan></text><text style="fill:#00a8de" y="345.81903" x="448.60352"><tspan x="448.60352" y="345.81903">47</tspan></text><text style="fill:#00a8de" y="413.31442" x="159.13127"><tspan x="159.13127" y="413.31442">53</tspan></text><text style="fill:#00a8de" y="413.30588" x="230.62773"><tspan x="230.62773" y="413.30588">59</tspan></text><text style="fill:#00a8de" y="413.28879" x="305.30341"><tspan x="305.30341" y="413.28879">61</tspan></text><text style="fill:#00a8de" y="413.28879" x="375.52725"><tspan x="375.52725" y="413.28879">67</tspan></text><text style="fill:#00a8de" y="413.35715" x="448.27008"><tspan x="448.27008" y="413.35715">71</tspan></text><text style="fill:#00a8de" y="490.12015" x="156.16173"><tspan x="156.16173" y="490.12015">73</tspan></text><text style="fill:#00a8de" y="490.12869" x="232.44165"><tspan x="232.44165" y="490.12869">79</tspan></text><text style="fill:#00a8de" y="490.12015" x="303.59314"><tspan x="303.59314" y="490.12015">83</tspan></text><text style="fill:#00a8de" y="490.12015" x="376.41995"><tspan x="376.41995" y="490.12015">89</tspan></text><text style="fill:#00a8de" y="490.12869" x="447.72525"><tspan x="447.72525" y="490.12869">97</tspan></text></g></svg>