<svg xmlns="http://www.w3.org/2000/svg" height="366.53mm" width="258.87mm" xmlns:xlink="http://www.w3.org/1999/xlink" viewBox="0 0 917.26015 1298.7389"><style>.pf{fill:#75d065}.ph{fill:#96dd8a}.pl{stroke:#138800;stroke-width:1px;stroke-opacity:.74118;fill:none}.pj{stroke:#138800;stroke-width:1px;stroke-opacity:.74118;fill:none}.ps{stroke:#75d065;stroke-width:3.0001}</style><defs><pattern id="e" xlink:href="#a" patternTransform="scale(10)"/><pattern id="a" width="1.25" patternUnits="userSpaceOnUse" patternTransform="translate(0) scale(10)" height="1"><rect style="fill:#474746" height="2" width="1" y="-.5" x="0"/></pattern><pattern id="d" xlink:href="#a" patternTransform="scale(10)"/><pattern id="c" xlink:href="#a" patternTransform="scale(10)"/><pattern id="b" xlink:href="#a" patternTransform="scale(10)"/><marker id="f" refY="0" refX="0" style="overflow:visible" orient="auto"><path style="stroke:#ed6363;stroke-width:1pt;fill:#ed6363;fill-rule:evenodd" d="m0 0 5-5-17.5 5 17.5 5-5-5z" transform="matrix(-.8 0 0 -.8 -10 0)"/></marker></defs><rect ry="12.469" style="fill:#e2e2e2" rx="12.469" transform="matrix(-.84671 -.53206 -.84671 .53206 0 0)" height="417.56" width="417.56" y="-266.63" x="-738.68"/><rect ry="12.469" style="fill:#f2f2f2" rx="12.469" transform="matrix(-.84671 -.53206 -.84671 .53206 0 0)" height="417.56" width="417.56" y="-274.15" x="-731.17"/><path class="pf" d="m502.65 123.29v93.109 31.17l139.83-87.865v-31.172l-27.654 17.377a210 131.96 0 0 0 -112.18 -22.63z"/><path class="pf" d="m649.5 164.18-90.176 56.664h-49.604v31.17h197.62v-31.17h-7.4277a210 131.96 0 0 0 -50.412 -56.664z"/><path class="pf" d="m492.65 123.39a210 131.96 0 0 0 -111.97 22.51l-27.807-17.336v31.172l139.78 87.836.45312-31.578-.45312-.2832v-92.32z"/><path class="pf" d="m345.75 164.15a210 131.96 0 0 0 -50.746 56.695h-7.2051v31.172h197.78v-31.172h-49.607l-90.225-56.695z"/><path class="pf" d="m502.65 262.74v93.01 31.172a210 131.96 0 0 0 139.78 -36.34v-31.172l-35.088 9.123-104.69-65.787z"/><path class="pf" d="m287.96 227.13v31.172a210 131.96 0 0 0 57.842 87.836l139.78-87.836v-31.172h-197.62z"/><path class="pf" d="m492.65 262.74-104.67 65.77-35.166-9.0742v31.172a210 131.96 0 0 0 139.83 36.416l.14453-31.467-.14453-.0371v-92.779z"/><path style="opacity:.25;fill:url(#e)" d="m492.65 262.74-104.67 65.77-35.166-9.0742v31.172a210 131.96 0 0 0 139.83 36.416l.14453-31.467-.14453-.0371v-92.779z"/><path class="ph" d="m642.48 128.53a210 131.96 0 0 0 -139.83 -36.41v124.28l139.83-87.87z"/><path style="opacity:.25;fill:url(#d)" d="m649.5 164.18-90.176 56.664h-49.604v31.17h197.62v-31.17h-7.4277a210 131.96 0 0 0 -50.412 -56.664z"/><path class="pf" d="m509.72 227.13v31.17l139.83 87.867a210 131.96 0 0 0 57.949 -87.867v-31.17h-197.78z"/><path class="ph" d="m649.5 133.01-139.78 87.835 197.62-.00001a210 131.96 0 0 0 -57.84 -87.84z"/><path class="ph" d="m707.5 227.13h-197.78l139.83 87.867a210 131.96 0 0 0 57.95 -87.867z"/><path class="ph" d="m492.65 92.227a210 131.96 0 0 0 -139.78 36.34l139.78 87.836v-124.18z"/><path class="ph" d="m345.75 132.98a210 131.96 0 0 0 -57.951 87.868l197.78-.00001-139.83-87.868z"/><path class="ph" d="m502.65 231.57v124.18a210 131.96 0 0 0 139.78 -36.35l-139.78-87.83z"/><path class="ph" d="m485.58 227.13h-197.62a210 131.96 0 0 0 57.842 87.836l139.78-87.836z"/><path class="ph" d="m492.65 231.57-139.83 87.868a210 131.96 0 0 0 139.83 36.415v-124.28z"/><path style="opacity:.25;fill:url(#c)" d="m649.5 133.01-139.78 87.835 197.62-.00001a210 131.96 0 0 0 -57.84 -87.84z"/><path style="opacity:.25;fill:url(#b)" d="m492.65 231.57-139.83 87.868a210 131.96 0 0 0 139.83 36.415v-124.28z"/><text y="18.237305" x="282.31198"><tspan y="18.237305" x="282.31198">Team 1</tspan></text><text y="116.32796" x="82.601341"><tspan y="116.32796" x="82.601341">Team 2</tspan></text><text y="339.56946" x="823.98126"><tspan y="339.56946" x="823.98126">Team 3</tspan></text><text y="338.48029" x="80.206627"><tspan y="338.48029" x="80.206627">Team 1</tspan></text><text y="20.061035" x="618.69342"><tspan y="20.061035" x="618.69342">Team 2</tspan></text><path class="pj" d="m355.6 260.64h-230v50"/><path class="pj" d="m355.6 180.64h-230v-50"/><path class="pj" d="m625.1 260.64h246.13v50"/><path class="pj" d="m445.6 150.64v-140l-61.401-.0459"/><path class="pj" d="m545.6 150.64v-140h60"/><text y="476.3454" x="621.27142"><tspan y="476.3454" x="621.27142">Team 3</tspan></text><path style="stroke:#148800;stroke-width:.99999px;stroke-opacity:.83922;fill:none" d="m83.738 480.16h49.999"/><text y="487.15027" x="147.28456"><tspan y="487.15027" x="147.28456">Unallocated Memory</tspan></text><path class="pj" d="m550.2 299.57v170h62.857"/><rect ry="12.469" style="fill:#e2e2e2" rx="12.469" transform="matrix(-.84671 -.53206 -.84671 .53206 0 0)" height="417.56" width="417.56" y="503.49" x="-1513.6"/><rect ry="12.469" style="fill:#f2f2f2" rx="12.469" transform="matrix(-.84671 -.53206 -.84671 .53206 0 0)" height="417.56" width="417.56" y="495.98" x="-1506.1"/><path class="pf" d="m506.68 945.31v93.109 31.17l139.83-87.865v-31.172l-27.654 17.377a210 131.96 0 0 0 -112.18 -22.63z"/><path class="pf" d="m653.48 986.2-90.176 56.664h-49.604v31.17h197.62v-31.17h-7.4276a210 131.96 0 0 0 -50.412 -56.664z"/><path class="pf" d="m496.68 945.41a210 131.96 0 0 0 -111.97 22.51l-27.807-17.336v31.172l139.78 87.836.4531-31.578-.4531-.2832v-92.32z"/><path class="pf" d="m349.78 986.17a210 131.96 0 0 0 -50.746 56.695h-7.2051v31.172h197.78v-31.172h-49.607l-90.225-56.695z"/><path class="pf" d="m506.68 1084.8v93.01 31.172a210 131.96 0 0 0 139.78 -36.34v-31.172l-35.088 9.123-104.69-65.787z"/><path class="pf" d="m291.98 1049.1v31.172a210 131.96 0 0 0 57.842 87.836l139.78-87.836v-31.172h-197.62z"/><path class="pf" d="m496.68 1084.8-104.67 65.77-35.166-9.0742v31.172a210 131.96 0 0 0 139.83 36.416l.1445-31.467-.1445-.037v-92.779z"/><path class="ph" d="m646.48 950.55a210 131.96 0 0 0 -139.83 -36.41v124.28l139.83-87.87z"/><path class="pf" d="m513.68 1049.1v31.17l139.83 87.867a210 131.96 0 0 0 57.949 -87.867v-31.17h-197.78z"/><path class="ph" d="m653.48 955.03-139.78 87.835h197.62a210 131.96 0 0 0 -57.84 -87.88z"/><path class="ph" d="m711.48 1049.1h-197.78l139.83 87.867a210 131.96 0 0 0 57.95 -87.867z"/><path class="ph" d="m496.68 914.24a210 131.96 0 0 0 -139.78 36.34l139.78 87.836v-124.18z"/><path class="ph" d="m349.78 955a210 131.96 0 0 0 -57.951 87.868h197.78l-139.83-87.9z"/><path class="ph" d="m506.68 1053.6v124.18a210 131.96 0 0 0 139.78 -36.35l-139.78-87.8z"/><path class="ph" d="m489.58 1049.1h-197.62a210 131.96 0 0 0 57.842 87.836l139.78-87.836z"/><path class="ph" d="m496.68 1053.6-139.83 87.868a210 131.96 0 0 0 139.83 36.415v-124.28z"/><text y="840.25214" x="286.31396"><tspan y="840.25214" x="286.31396">Team 3</tspan></text><text y="938.3429" x="86.603394"><tspan y="938.3429" x="86.603394">Team 2</tspan></text><text y="1161.5845" x="827.98322"><tspan y="1161.5845" x="827.98322">Team 1</tspan></text><text y="1160.4952" x="84.208679"><tspan y="1160.4952" x="84.208679">Team 1</tspan></text><text y="842.07587" x="622.6955"><tspan y="842.07587" x="622.6955">Team 2</tspan></text><path class="pl" d="m359.58 1082.7h-230v50"/><path class="pl" d="m359.58 1002.7h-230v-50"/><path class="pl" d="m629.08 1082.7h246.13v50"/><path class="pl" d="m449.58 972.66v-140l-61.401-.0459"/><path class="pl" d="m549.58 972.66v-140h60"/><text y="1298.3605" x="625.27344"><tspan y="1298.3605" x="625.27344">Team 3</tspan></text><path class="pl" d="m554.18 1121.6v170h62.857"/><path style="stroke-dasharray:2.00003952, 24.00047422;stroke:#ed6363;stroke-width:2;marker-end:url(#f);fill:none" d="m500.52 555.42v160"/><path class="pl" d="m423.98 1120.2v140h-100"/><text y="1267.4109" x="227.17599"><tspan y="1267.4109" x="227.17599">Team 2</tspan></text><path class="pl" d="m626.88 1013.8h248.37v-50"/><text y="936.9577" x="827.46448"><tspan y="936.9577" x="827.46448">Team 3</tspan></text><rect style="fill:#82b879" height="35.953" width="55.183" y="460.82" x="4.2461"/><path class="ps" d="m11.836 460.87v35.854"/><path class="ps" d="m31.836 460.87v35.854"/><path class="ps" d="m51.836 460.87v35.854"/></svg>