<svg xmlns="http://www.w3.org/2000/svg" height="387.36mm" width="249.2mm" xmlns:xlink="http://www.w3.org/1999/xlink" viewBox="0 0 882.97439 1372.5222"><style>svg{font-size:25px;font-family:sans-serif;fill:#000;}.ps{opacity:0.688;stroke:#a6e29c;stroke-width:3}.pa{stroke:#148800;stroke-width:1px;fill:none}.pb{fill:#96dd8a}.pg{fill:#75d065}</style><defs><linearGradient id="l" x1="447.01" gradientUnits="userSpaceOnUse" y1="223.69" gradientTransform="matrix(.99999 0 0 .99999 .0062950 .0018977)" x2="655.89" y2="223.69"><stop style="stop-color:#75d065" offset="0"/></linearGradient><pattern id="n" xlink:href="#a" patternTransform="matrix(9.9999 0 0 9.9999 59.517 -94.348)"/><pattern id="a" width="1.25" patternUnits="userSpaceOnUse" patternTransform="translate(0) scale(10)" height="1"><rect style="fill:#474746" height="2" width="1" y="-.5" x="0"/></pattern><linearGradient id="c" x1="447.01" gradientUnits="userSpaceOnUse" y1="223.69" gradientTransform="matrix(.99999 0 0 .99999 -.034155 .0018967)" x2="655.89" y2="223.69"><stop style="stop-color:#75d065" offset="0"/></linearGradient><pattern id="m" xlink:href="#b" patternTransform="matrix(9.9999 0 0 9.9999 59.476 -94.348)"/><pattern id="b" width="1.25" patternUnits="userSpaceOnUse" patternTransform="translate(0) scale(10)" height="1"><rect style="fill:#474746" height="2" width="1" y="-.5" x="0"/></pattern><marker id="o" refY="0" refX="0" style="overflow:visible" orient="auto"><path style="stroke:#ed6363;stroke-width:1pt;fill:#ed6363;" transform="matrix(-.8 0 0 -.8 -10 0)" d="m0 0 5-5-17.5 5 17.5 5-5-5z"/></marker></defs><rect ry="13.592" style="fill:#e2e2e2" rx="13.592" transform="matrix(.86196 .50698 -.86196 .50698 0 0)" height="508.62" width="508.62" y="-202.59" x="321.13"/><rect ry="13.592" style="fill:#f2f2f2" rx="13.592" transform="matrix(.86196 .50698 -.86196 .50698 0 0)" height="508.62" width="508.62" y="-208.51" x="315.21"/><text y="310.78409" x="289.86093"><tspan y="310.78409" x="289.86093"/></text><text y="133.42209" x="98.596352"><tspan y="133.42209" x="98.596352">Team 1</tspan></text><text y="574.93457" x="230.55873"><tspan y="574.93457" x="230.55873">Team 2</tspan></text><text y="573.21307" x="649.59796"><tspan y="573.21307" x="649.59796">Team 3</tspan></text><path class="pg" d="m401.15 143.43v40l54.409 119.44 148.75-87.487v-40l-203.16-31.951z"/><path style="fill:url(#l)" d="m615.54 222.08-81.427 47.893-67.237-.45313v40l203.22 32.027a224.5 132.04 0 0 0 5.2616 -23.57l.17773.008.006-1.4414a224.5 132.04 0 0 0 .0195 -4.1875l.19141-41.43-11.504-.0781a224.5 132.04 0 0 0 -48.705 -48.768z"/><path class="pg" d="m385.65 185.78a224.5 132.04 0 0 0 -92.981 32.809 224.5 132.04 0 0 0 -26.518 18.992l-29.29-4.66-.99999 39.875 1.25.19922a224.5 132.04 0 0 0 -.17773 .29686l203.17 32.02v-40l-19.648-3.1309-34.801-76.392z"/><path class="pg" d="m447.28 321.04-95.157 55.968-53.589-8.4784v40a224.5 132.04 0 0 0 203.16 31.947l.66999-39.7-20.21-3.2-34.87-76.539z"/><path style="opacity:.25;fill:url(#n)" d="m401.15 143.42v40l54.409 119.44 148.75-87.487v-40l-203.16-31.951z"/><path class="pb" d="m604.31 175.37a224.5 132.04 0 0 0 -203.16 -31.95l54.41 119.44 148.75-87.487z"/><path style="opacity:.25;fill:url(#n)" d="m615.54 222.08-81.427 47.893-67.237-.45313v40l203.22 32.027a224.5 132.04 0 0 0 5.2616 -23.57l.17773.008.006-1.4414a224.5 132.04 0 0 0 .0195 -4.1875l.19141-41.43-11.504-.0781a224.5 132.04 0 0 0 -48.705 -48.768z"/><path class="pg" d="m462.73 278.61v40l54.45 119.52a224.5 132.04 0 0 0 92.978 -32.809 224.5 132.04 0 0 0 55.741 -54.694v-40l-203.17-32.018z"/><path class="pb" d="m615.54 182.08-148.67 87.439 203.22 32.02a224.5 132.04 0 0 0 -54.549 -119.46z"/><path style="opacity:.25;fill:url(#n)" d="m385.65 185.77a224.5 132.04 0 0 0 -92.981 32.809 224.5 132.04 0 0 0 -26.518 18.992l-29.295-4.668-.99999 39.875 1.25.19922a224.5 132.04 0 0 0 -.17773 .29686l203.17 32.02v-40l-19.648-3.1309-34.801-76.392z"/><path class="pg" d="m227.11 274.05-.0117 35.99.11523.002a224.5 132.04 0 0 0 60.081 91.782l148.06-87.083.63671.0137-.0293-40.371-208.85-.33397z"/><path class="pb" d="m385.65 145.77a224.5 132.04 0 0 0 -92.981 32.809 224.5 132.04 0 0 0 -55.74 54.694l203.17 32.02-54.449-119.52z"/><path class="pb" d="m665.9 310.63-203.17-32.02 54.45 119.52a224.5 132.04 0 0 0 92.978 -32.809 224.5 132.04 0 0 0 55.74 -54.694z"/><path class="pb" d="m447.28 281.04-148.75 87.488a224.5 132.04 0 0 0 203.16 31.949l-54.409-119.44z"/><path style="opacity:.25;fill:url(#n)" d="m604.31 175.37a224.5 132.04 0 0 0 -203.16 -31.95l54.41 119.44 148.75-87.487z"/><path class="pb" d="m435.96 274.39-203.22-32.03a224.5 132.04 0 0 0 54.559 119.47l148.66-87.439z"/><path style="opacity:.25;fill:url(#n)" d="m615.54 182.08-148.67 87.439 203.22 32.02a224.5 132.04 0 0 0 -54.549 -119.46z"/><path style="opacity:.25;fill:url(#n)" d="m385.65 145.77a224.5 132.04 0 0 0 -92.981 32.809 224.5 132.04 0 0 0 -55.74 54.694l203.17 32.02-54.449-119.52z"/><path class="pa" d="m279.86 305.78v-180h-79.999"/><path class="pa" d="m419.86 325.78v240h-79.999"/><path class="pa" d="m559.86 325.78v240h79.999"/><path style="stroke:#148800;stroke-width:1px;stroke-opacity:.83922;fill:none" d="m337.16 20.447h50"/><text y="27.425291" x="400.70593"><tspan y="27.425291" x="400.70593">Unallocated Memory</tspan></text><rect ry="13.592" style="fill:#e2e2e2" rx="13.592" transform="matrix(.86196 .50698 -.86196 .50698 0 0)" height="508.62" width="508.62" y="595.17" x="1095.8"/><rect ry="13.592" style="fill:#f2f2f2" rx="13.592" transform="matrix(.86196 .50698 -.86196 .50698 0 0)" height="508.62" width="508.62" y="589.25" x="1089.9"/><text y="310.78409" x="1409.8121"><tspan y="310.78409" x="1409.8121"/></text><text y="930.63141" x="78.735725"><tspan y="930.63141" x="78.735725">Team 1</tspan></text><text y="1372.1438" x="210.69812"><tspan y="1372.1438" x="210.69812">Team 2</tspan></text><text y="1370.4222" x="629.73743"><tspan y="1370.4222" x="629.73743">Team 3</tspan></text><path class="pg" d="m381.29 940.64v40l54.409 119.44 148.75-87.487v-40l-203.16-31.951z"/><path style="fill:url(#c)" d="m595.68 1019.3-81.427 47.892-67.237-.4531v40l203.22 32.027a224.5 132.04 0 0 0 5.2616 -23.57l.1778.01.01-1.4414a224.5 132.04 0 0 0 .019 -4.1875l.1914-41.43-11.504-.078a224.5 132.04 0 0 0 -48.708 -48.768z"/><path class="pg" d="m427.42 1118.3-95.157 55.968-53.59-8.4784v40a224.5 132.04 0 0 0 203.16 31.947l.67-39.7-20.21-3.2-34.87-76.539z"/><path style="opacity:.25;fill:url(#m)" d="m381.29 940.63v40l54.409 119.44 148.75-87.487v-40l-203.16-31.951z"/><path class="pb" d="m584.45 972.58a224.5 132.04 0 0 0 -203.16 -31.95l54.41 119.44 148.75-87.487z"/><path style="opacity:.25;fill:url(#m)" d="m595.68 1019.3-81.427 47.892-67.237-.4531v40l203.22 32.027a224.5 132.04 0 0 0 5.2616 -23.57l.1778.01.01-1.4414a224.5 132.04 0 0 0 .019 -4.1875l.1914-41.43-11.504-.078a224.5 132.04 0 0 0 -48.704 -48.768z"/><path class="pg" d="m442.87 1075.8v40l54.45 119.52a224.5 132.04 0 0 0 92.978 -32.809 224.5 132.04 0 0 0 55.741 -54.694v-40l-203.17-32.018z"/><path class="pb" d="m595.68 979.29-148.67 87.439 203.22 32.02a224.5 132.04 0 0 0 -54.55 -119.46z"/><path class="pg" d="m207.25 1071.3-.012 35.99h.1153a224.5 132.04 0 0 0 60.081 91.782l148.06-87.083.6367.014-.029-40.371-208.85-.3339z"/><path class="pg" d="m365.79 982.98a224.5 132.04 0 0 0 -92.981 32.809 224.5 132.04 0 0 0 -26.518 18.992l-29.29-4.6599-1 39.875 1.25.1992a224.5 132.04 0 0 0 -.1777 .2968l203.17 32.02v-40l-19.648-3.1308-34.801-76.392z"/><path class="pb" d="m365.79 942.98a224.5 132.04 0 0 0 -92.981 32.809 224.5 132.04 0 0 0 -55.74 54.694l203.17 32.02-54.45-119.52z"/><path class="pb" d="m646.04 1107.8-203.17-32.02 54.449 119.52a224.5 132.04 0 0 0 92.978 -32.809 224.5 132.04 0 0 0 55.74 -54.694z"/><path class="pb" d="m427.42 1078.3-148.75 87.488a224.5 132.04 0 0 0 203.16 31.949l-54.41-119.44z"/><path style="opacity:.25;fill:url(#m)" d="m584.45 972.58a224.5 132.04 0 0 0 -203.16 -31.95l54.41 119.44 148.75-87.487z"/><path class="pb" d="m416.1 1071.6-203.22-32.03a224.5 132.04 0 0 0 54.559 119.47l148.66-87.439z"/><path style="opacity:.25;fill:url(#m)" d="m595.68 979.29-148.67 87.439 203.22 32.02a224.5 132.04 0 0 0 -54.55 -119.46z"/><path class="pa" d="m260 1103v-180h-79.999"/><path class="pa" d="m400 1123v240h-79.999"/><path class="pa" d="m540 1123v240h79.999"/><path class="pa" d="m320.06 1022.9v-99.839h-60.806"/><path d="m434.23 620.39v160" style="stroke-dasharray:2.00000436, 24.00005229;stroke:#ed6363;stroke-width:2;marker-end:url(#o);fill:none"/><rect style="fill:#82b879" height="35.952" width="55.181" y="0" x="264.18"/><path class="ps" d="m271.77.050076v35.853"/><path class="ps" d="m291.77.050076v35.853"/><path class="ps" d="m311.76.050076v35.853"/></svg>