<svg xmlns="http://www.w3.org/2000/svg" height="112.89mm" width="127mm" viewBox="0 0 450 399.99999"><style>path{fill:#fff}</style><path style="fill:#455A64" d="m7.8777.0000097656h434.24c4.37 0 7.88 2.8764 7.88 6.4492v387.1c0 3.5729-3.5134 6.4492-7.8777 6.4492h-434.24c-4.3665 0-7.88-2.88-7.88-6.45v-387.1c0-3.5736 3.5135-6.45 7.8777-6.45z"/><path d="m238.87 85.276-1.6406 2.8198-9.2798-5.4602.15381 9.2285h-3.3069l.12818-9.2285-9.2542 5.4858-1.6663-2.8198 9.7668-5.3064-9.7668-5.3064 1.6663-2.8198 9.2798 5.4602-.15381-9.2029h3.3069l-.17945 9.2029 9.3054-5.4346 1.6406 2.8198-9.7412 5.2551 9.7412 5.3064z" /><path d="m272.29 85.276-1.6406 2.8198-9.2798-5.4602.15381 9.2285h-3.3069l.12817-9.2285-9.2542 5.4858-1.6663-2.8198 9.7668-5.3064-9.7668-5.3064 1.6663-2.8198 9.2798 5.4602-.1538-9.2029h3.3069l-.17944 9.2029 9.3054-5.4346 1.6406 2.8198-9.7412 5.2551 9.7412 5.3064z" /><path d="m305.72 85.276-1.6406 2.8198-9.2798-5.4602.15381 9.2285h-3.3069l.12817-9.2285-9.2542 5.4858-1.6663-2.8198 9.7668-5.3064-9.7668-5.3064 1.6663-2.8198 9.2798 5.4602-.15381-9.2029h3.3069l-.17945 9.2029 9.3054-5.4346 1.6406 2.8198-9.7412 5.2551 9.7412 5.3064z" /><path d="m339.15 85.276-1.6406 2.8198-9.2798-5.4602.15381 9.2285h-3.3069l.12818-9.2285-9.2542 5.4858-1.6663-2.8198 9.7668-5.3064-9.7668-5.3064 1.6663-2.8198 9.2798 5.4602-.15381-9.2029h3.3069l-.17944 9.2029 9.3054-5.4346 1.6406 2.8198-9.7412 5.2551 9.7412 5.3064z" /><path d="m372.58 85.276-1.6406 2.8198-9.2798-5.4602.1538 9.2285h-3.3069l.12817-9.2285-9.2542 5.4858-1.6663-2.8198 9.7668-5.3064-9.7668-5.3064 1.6663-2.8198 9.2798 5.4602-.15381-9.2029h3.3069l-.17944 9.2029 9.3054-5.4346 1.6406 2.8198-9.7412 5.2551 9.7412 5.3064z" /><path d="m204.29 145.28-1.6406 2.8198-9.2798-5.4602.15381 9.2285h-3.3069l.12817-9.2285-9.2542 5.4858-1.6663-2.8198 9.7668-5.3064-9.7668-5.3064 1.6663-2.8198 9.2798 5.4602-.15381-9.2029h3.3069l-.17944 9.2029 9.3054-5.4346 1.6406 2.8198-9.7412 5.2551 9.7412 5.3064z" /><path d="m237.72 145.28-1.6406 2.8198-9.2798-5.4602.15381 9.2285h-3.3069l.12817-9.2285-9.2542 5.4858-1.6663-2.8198 9.7668-5.3064-9.7668-5.3064 1.6663-2.8198 9.2798 5.4602-.15381-9.2029h3.3069l-.17945 9.2029 9.3054-5.4346 1.6406 2.8198-9.7412 5.2551 9.7412 5.3064z" /><path d="m271.14 145.28-1.6406 2.8198-9.2798-5.4602.15381 9.2285h-3.3069l.12817-9.2285-9.2542 5.4858-1.6663-2.8198 9.7668-5.3064-9.7668-5.3064 1.6663-2.8198 9.2798 5.4602-.1538-9.2029h3.3069l-.17944 9.2029 9.3054-5.4346 1.6406 2.8198-9.7412 5.2551 9.7412 5.3064z" /><path d="m304.57 145.28-1.6406 2.8198-9.2798-5.4602.1538 9.2285h-3.3069l.12817-9.2285-9.2542 5.4858-1.6663-2.8198 9.7668-5.3064-9.7668-5.3064 1.6663-2.8198 9.2798 5.4602-.15381-9.2029h3.3069l-.17944 9.2029 9.3054-5.4346 1.6406 2.8198-9.7412 5.2551 9.7412 5.3064z" /><path d="m338 145.28-1.6406 2.8198-9.2798-5.4602.15381 9.2285h-3.3069l.12818-9.2285-9.2542 5.4858-1.6663-2.8198 9.7668-5.3064-9.7668-5.3064 1.6663-2.8198 9.2798 5.4602-.15381-9.2029h3.3069l-.17944 9.2029 9.3054-5.4346 1.6406 2.8198-9.7412 5.2551 9.7412 5.3064z" /><path d="m172.29 205.28-1.6406 2.8198-9.2798-5.4602.15381 9.2285h-3.3069l.12817-9.2285-9.2542 5.4858-1.6663-2.8198 9.7668-5.3064-9.7668-5.3064 1.6663-2.8198 9.2798 5.4602-.15381-9.2029h3.3069l-.17944 9.2029 9.3054-5.4346 1.6406 2.8198-9.7412 5.2551 9.7412 5.3064z" /><path d="m205.72 205.28-1.6406 2.8198-9.2798-5.4602.15381 9.2285h-3.3069l.12817-9.2285-9.2542 5.4858-1.6663-2.8198 9.7668-5.3064-9.7668-5.3064 1.6663-2.8198 9.2798 5.4602-.15381-9.2029h3.3069l-.17945 9.2029 9.3054-5.4346 1.6406 2.8198-9.7412 5.2551 9.7412 5.3064z" /><path d="m239.14 205.28-1.6406 2.8198-9.2798-5.4602.15381 9.2285h-3.3069l.12817-9.2285-9.2542 5.4858-1.6663-2.8198 9.7668-5.3064-9.7668-5.3064 1.6663-2.8198 9.2798 5.4602-.1538-9.2029h3.3069l-.17944 9.2029 9.3054-5.4346 1.6406 2.8198-9.7412 5.2551 9.7412 5.3064z" /><path d="m272.57 205.28-1.6406 2.8198-9.2798-5.4602.1538 9.2285h-3.3069l.12817-9.2285-9.2542 5.4858-1.6663-2.8198 9.7668-5.3064-9.7668-5.3064 1.6663-2.8198 9.2798 5.4602-.15381-9.2029h3.3069l-.17944 9.2029 9.3054-5.4346 1.6406 2.8198-9.7412 5.2551 9.7412 5.3064z" /><path d="m306 205.28-1.6406 2.8198-9.2798-5.4602.15381 9.2285h-3.3069l.12818-9.2285-9.2542 5.4858-1.6663-2.8198 9.7668-5.3064-9.7668-5.3064 1.6663-2.8198 9.2798 5.4602-.15381-9.2029h3.3069l-.17944 9.2029 9.3054-5.4346 1.6406 2.8198-9.7412 5.2551 9.7412 5.3064z" /><path d="m136.29 265.28-1.6406 2.8198-9.2798-5.4602.15381 9.2285h-3.3069l.12818-9.2285-9.2542 5.4858-1.6662-2.8198 9.7668-5.3064-9.7668-5.3064 1.6662-2.8198 9.2798 5.4602-.15381-9.2029h3.3069l-.17945 9.2029 9.3054-5.4346 1.6406 2.8198-9.7412 5.2551 9.7412 5.3064z" /><path d="m169.72 265.28-1.6406 2.8198-9.2798-5.4602.15381 9.2285h-3.3069l.12817-9.2285-9.2542 5.4858-1.6663-2.8198 9.7668-5.3064-9.7668-5.3064 1.6663-2.8198 9.2798 5.4602-.1538-9.2029h3.3069l-.17944 9.2029 9.3054-5.4346 1.6406 2.8198-9.7412 5.2551 9.7412 5.3064z" /><path d="m203.14 265.28-1.6406 2.8198-9.2798-5.4602.1538 9.2285h-3.3069l.12817-9.2285-9.2542 5.4858-1.6663-2.8198 9.7668-5.3064-9.7668-5.3064 1.6663-2.8198 9.2798 5.4602-.15381-9.2029h3.3069l-.17944 9.2029 9.3054-5.4346 1.6406 2.8198-9.7412 5.2551 9.7412 5.3064z" /><path d="m236.57 265.28-1.6406 2.8198-9.2798-5.4602.15381 9.2285h-3.3069l.12818-9.2285-9.2542 5.4858-1.6663-2.8198 9.7668-5.3064-9.7668-5.3064 1.6663-2.8198 9.2798 5.4602-.15381-9.2029h3.3069l-.17944 9.2029 9.3054-5.4346 1.6406 2.8198-9.7412 5.2551 9.7412 5.3064z" /><path d="m270 265.28-1.6406 2.8198-9.2798-5.4602.1538 9.2285h-3.3069l.12817-9.2285-9.2542 5.4858-1.6663-2.8198 9.7668-5.3064-9.7668-5.3064 1.6663-2.8198 9.2798 5.4602-.15381-9.2029h3.3069l-.17944 9.2029 9.3054-5.4346 1.6406 2.8198-9.7412 5.2551 9.7412 5.3064z" /><path d="m102.29 325.28-1.6406 2.8198-9.2798-5.4602.15381 9.2285h-3.3069l.12817-9.2285-9.2542 5.4858-1.6663-2.8198 9.7668-5.3064-9.7668-5.3064 1.6663-2.8198 9.2798 5.4602-.15381-9.2029h3.3069l-.17944 9.2029 9.3054-5.4346 1.6406 2.8198-9.7412 5.2551 9.7412 5.3064z" /><path d="m135.72 325.28-1.6406 2.8198-9.2798-5.4602.15381 9.2285h-3.3069l.12817-9.2285-9.2542 5.4858-1.6663-2.8198 9.7668-5.3064-9.7668-5.3064 1.6663-2.8198 9.2798 5.4602-.1538-9.2029h3.3069l-.17944 9.2029 9.3054-5.4346 1.6406 2.8198-9.7412 5.2551 9.7412 5.3064z" /><path d="m169.14 325.28-1.6406 2.8198-9.2798-5.4602.1538 9.2285h-3.3069l.12817-9.2285-9.2542 5.4858-1.6663-2.8198 9.7668-5.3064-9.7668-5.3064 1.6663-2.8198 9.2798 5.4602-.15381-9.2029h3.3069l-.17944 9.2029 9.3054-5.4346 1.6406 2.8198-9.7412 5.2551 9.7412 5.3064z" /><path d="m202.57 325.28-1.6406 2.8198-9.2798-5.4602.15381 9.2285h-3.3069l.12818-9.2285-9.2542 5.4858-1.6663-2.8198 9.7668-5.3064-9.7668-5.3064 1.6663-2.8198 9.2798 5.4602-.15381-9.2029h3.3069l-.17944 9.2029 9.3054-5.4346 1.6406 2.8198-9.7412 5.2551 9.7412 5.3064z" /><path d="m236 325.28-1.6406 2.8198-9.2798-5.4602.1538 9.2285h-3.3069l.12817-9.2285-9.2542 5.4858-1.6663-2.8198 9.7668-5.3064-9.7668-5.3064 1.6663-2.8198 9.2798 5.4602-.15381-9.2029h3.3069l-.17944 9.2029 9.3054-5.4346 1.6406 2.8198-9.7412 5.2551 9.7412 5.3064z" /></svg>