<svg xmlns="http://www.w3.org/2000/svg" height="112.89mm" width="127mm" viewBox="0 0 450 399.99999"><path style="fill:#455A64" d="m7.8777-.000013428h434.24c4.37 0 7.88 2.8763 7.88 6.4492v387.1c0 3.5728-3.5134 6.4492-7.8777 6.4492h-434.24c-4.3665 0-7.88-2.88-7.88-6.45v-387.1c9.1553e-7-3.5737 3.5135-6.45 7.8777-6.45z"/><g style="fill:#fff" transform="scale(-1,1)"><path  d="m-149.48 86.17-1.5625 2.6855-8.8379-5.2002.14649 8.7891h-3.1494l.12207-8.7891-8.8135 5.2246-1.5869-2.6855 9.3018-5.0537-9.3018-5.0537 1.5869-2.6855 8.8379 5.2002-.14649-8.7646h3.1494l-.1709 8.7646 8.8623-5.1758 1.5625 2.6855-9.2773 5.0049 9.2773 5.0537z"/><path  d="m-181.32 144.25-1.5625 2.6856-8.8379-5.2002.14648 8.7891h-3.1494l.12207-8.7891-8.8135 5.2246-1.5869-2.6855 9.3018-5.0537-9.3018-5.0537 1.5869-2.6856 8.8379 5.2002-.14648-8.7646h3.1494l-.1709 8.7646 8.8623-5.1758 1.5625 2.6856-9.2774 5.0049 9.2774 5.0537z"/><path  d="m-149.48 144.25-1.5625 2.6856-8.8379-5.2002.14649 8.7891h-3.1494l.12207-8.7891-8.8135 5.2246-1.5869-2.6855 9.3018-5.0537-9.3018-5.0537 1.5869-2.6856 8.8379 5.2002-.14649-8.7646h3.1494l-.1709 8.7646 8.8623-5.1758 1.5625 2.6856-9.2773 5.0049 9.2773 5.0537z"/><path  d="m-213.15 204.25-1.5625 2.6856-8.8379-5.2002.14648 8.7891h-3.1494l.12207-8.7891-8.8135 5.2246-1.5869-2.6855 9.3018-5.0537-9.3018-5.0537 1.5869-2.6856 8.8379 5.2002-.14648-8.7646h3.1494l-.1709 8.7646 8.8623-5.1758 1.5625 2.6856-9.2773 5.0049 9.2773 5.0537z"/><path  d="m-181.32 204.25-1.5625 2.6856-8.8379-5.2002.14648 8.7891h-3.1494l.12207-8.7891-8.8135 5.2246-1.5869-2.6855 9.3018-5.0537-9.3018-5.0537 1.5869-2.6856 8.8379 5.2002-.14648-8.7646h3.1494l-.1709 8.7646 8.8623-5.1758 1.5625 2.6856-9.2774 5.0049 9.2774 5.0537z"/><path  d="m-149.48 204.25-1.5625 2.6856-8.8379-5.2002.14649 8.7891h-3.1494l.12207-8.7891-8.8135 5.2246-1.5869-2.6855 9.3018-5.0537-9.3018-5.0537 1.5869-2.6856 8.8379 5.2002-.14649-8.7646h3.1494l-.1709 8.7646 8.8623-5.1758 1.5625 2.6856-9.2773 5.0049 9.2773 5.0537z"/><path  d="m-244.99 264.25-1.5625 2.6855-8.8379-5.2002.14649 8.7891h-3.1494l.12207-8.7891-8.8135 5.2246-1.5869-2.6856 9.3018-5.0537-9.3018-5.0537 1.5869-2.6856 8.8379 5.2002-.14649-8.7646h3.1494l-.1709 8.7646 8.8623-5.1758 1.5625 2.6855-9.2773 5.0049 9.2773 5.0537z"/><path  d="m-213.15 264.25-1.5625 2.6855-8.8379-5.2002.14648 8.7891h-3.1494l.12207-8.7891-8.8135 5.2246-1.5869-2.6856 9.3018-5.0537-9.3018-5.0537 1.5869-2.6856 8.8379 5.2002-.14648-8.7646h3.1494l-.1709 8.7646 8.8623-5.1758 1.5625 2.6855-9.2773 5.0049 9.2773 5.0537z"/><path  d="m-181.32 264.25-1.5625 2.6855-8.8379-5.2002.14648 8.7891h-3.1494l.12207-8.7891-8.8135 5.2246-1.5869-2.6856 9.3018-5.0537-9.3018-5.0537 1.5869-2.6856 8.8379 5.2002-.14648-8.7646h3.1494l-.1709 8.7646 8.8623-5.1758 1.5625 2.6855-9.2774 5.0049 9.2774 5.0537z"/><path  d="m-149.48 264.25-1.5625 2.6855-8.8379-5.2002.14649 8.7891h-3.1494l.12207-8.7891-8.8135 5.2246-1.5869-2.6856 9.3018-5.0537-9.3018-5.0537 1.5869-2.6856 8.8379 5.2002-.14649-8.7646h3.1494l-.1709 8.7646 8.8623-5.1758 1.5625 2.6855-9.2773 5.0049 9.2773 5.0537z"/><path  d="m-276.83 323.89-1.5625 2.6856-8.8379-5.2002.14649 8.7891h-3.1494l.12207-8.7891-8.8135 5.2246-1.5869-2.6855 9.3018-5.0537-9.3018-5.0537 1.5869-2.6855 8.8379 5.2002-.14649-8.7646h3.1494l-.1709 8.7646 8.8623-5.1758 1.5625 2.6856-9.2773 5.0049 9.2773 5.0537z"/><path  d="m-244.99 323.89-1.5625 2.6856-8.8379-5.2002.14649 8.7891h-3.1494l.12207-8.7891-8.8135 5.2246-1.5869-2.6855 9.3018-5.0537-9.3018-5.0537 1.5869-2.6855 8.8379 5.2002-.14649-8.7646h3.1494l-.1709 8.7646 8.8623-5.1758 1.5625 2.6856-9.2773 5.0049 9.2773 5.0537z"/><path  d="m-213.15 323.89-1.5625 2.6856-8.8379-5.2002.14648 8.7891h-3.1494l.12207-8.7891-8.8135 5.2246-1.5869-2.6855 9.3018-5.0537-9.3018-5.0537 1.5869-2.6855 8.8379 5.2002-.14648-8.7646h3.1494l-.1709 8.7646 8.8623-5.1758 1.5625 2.6856-9.2773 5.0049 9.2773 5.0537z"/><path  d="m-181.32 323.89-1.5625 2.6856-8.8379-5.2002.14648 8.7891h-3.1494l.12207-8.7891-8.8135 5.2246-1.5869-2.6855 9.3018-5.0537-9.3018-5.0537 1.5869-2.6855 8.8379 5.2002-.14648-8.7646h3.1494l-.1709 8.7646 8.8623-5.1758 1.5625 2.6856-9.2774 5.0049 9.2774 5.0537z"/><path  d="m-149.48 323.89-1.5625 2.6856-8.8379-5.2002.14649 8.7891h-3.1494l.12207-8.7891-8.8135 5.2246-1.5869-2.6855 9.3018-5.0537-9.3018-5.0537 1.5869-2.6855 8.8379 5.2002-.14649-8.7646h3.1494l-.1709 8.7646 8.8623-5.1758 1.5625 2.6856-9.2773 5.0049 9.2773 5.0537z"/></g></svg>