<svg xmlns="http://www.w3.org/2000/svg" height="39.438mm" width="8.7053mm" viewBox="0 0 30.845405 139.74149"><style>.w{fill:#fff}.sfw{stroke:#5f5f5f;stroke-width:1.2;fill:none}.gp{stroke:#5f5f5f;stroke-width:6.9441;}</style><g transform="translate(540.72 -198.63)"><g class="w" transform="matrix(.045466 0 0 .045466 -539.09 233.23)"><path class="w" d="m297.3 550.87c-13.78-15.44-48.17-45.53-76.44-66.88-83.74-63.24-95.14-72.39-129.14-103.7-62.685-57.72-89.306-115.71-89.215-194.34.0444-38.38 2.6606-53.17 13.41-75.8 18.236-38.382 45.1-66.905 79.445-84.351 24.33-12.355 36.32-17.845 76.94-18.069 42.493-.23483 51.439 4.7197 76.435 18.452 30.425 16.714 61.74 52.436 68.213 77.811l3.9981 15.672 9.8596-21.585c55.716-121.97 233.6-120.15 295.5 3.0316 19.638 39.076 21.794 122.51 4.3801 169.51-22.715 61.309-65.38 108.05-164.01 179.68-64.681 46.974-137.88 118.05-142.98 128.03-5.9155 11.588-.28216 1.8159-26.408-27.461z"/></g><path class="sfw" d="m-523.48 254.24v-6.9146h1.8659l.27941-2.6947h-2.1454v-1.7204c0-.78019.17418-1.3119 1.0736-1.3119l1.1472-.00083v-2.4102c-.19841-.0328-.87942-.10623-1.6717-.10623-1.6541 0-2.7865 1.2558-2.7865 3.562v1.9873h-1.8707v2.6947h1.8707v6.9146h2.2373z"/><g class="w" transform="matrix(.045466 0 0 .045466 -540.83 198.29)"><path class="w" d="m297.3 550.87c-13.78-15.44-48.17-45.53-76.44-66.88-83.74-63.24-95.14-72.39-129.14-103.7-62.685-57.72-89.306-115.71-89.215-194.34.0444-38.38 2.6606-53.17 13.41-75.8 18.236-38.382 45.1-66.905 79.445-84.351 24.33-12.355 36.32-17.845 76.94-18.069 42.493-.23483 51.439 4.7197 76.435 18.452 30.425 16.714 61.74 52.436 68.213 77.811l3.9981 15.672 9.8596-21.585c55.716-121.97 233.6-120.15 295.5 3.0316 19.638 39.076 21.794 122.51 4.3801 169.51-22.715 61.309-65.38 108.05-164.01 179.68-64.681 46.974-137.88 118.05-142.98 128.03-5.9155 11.588-.28216 1.8159-26.408-27.461z"/></g><path class="sfw" d="m-520.39 206.92c-.43624.20707-.90436.3467-1.3961.41017.50218-.3221.88733-.83222 1.0688-1.4407-.46955.2983-.99022.51489-1.5442.63149-.44368-.50613-1.0754-.82188-1.7746-.82188-1.3428 0-2.4316 1.1654-2.4316 2.6037 0 .20388.0218.40303.063.59342-2.0205-.10877-3.8121-1.1456-5.0113-2.7204-.20962.38477-.32884.83141-.32884 1.309 0 .90361.42957 1.7001 1.0813 2.1674-.39848-.0142-.7732-.13082-1.1014-.32527v.0324c0 1.2614.83845 2.3142 1.9502 2.553-.2037.0596-.41847.0913-.64072.0913-.1563 0-.30885-.0161-.45772-.0469.30963 1.0345 1.2073 1.7874 2.2709 1.808-.8318.69814-1.8806 1.1146-3.0197 1.1146-.19625 0-.38961-.0128-.57994-.0365 1.0762.7386 2.3538 1.1702 3.7255 1.1702 4.4736 0 6.917-3.9667 6.917-7.4082 0-.11261-.007-.22529-.007-.33715.47473-.36732.88727-.82586 1.2132-1.3479"/><g class="w" transform="matrix(.045466 0 0 .045466 -539.09 273.42)"><path class="w" d="m297.3 550.87c-13.78-15.44-48.17-45.53-76.44-66.88-83.74-63.24-95.14-72.39-129.14-103.7-62.685-57.72-89.306-115.71-89.215-194.34.0444-38.38 2.6606-53.17 13.41-75.8 18.236-38.382 45.1-66.905 79.445-84.351 24.33-12.355 36.32-17.845 76.94-18.069 42.493-.23483 51.439 4.7197 76.435 18.452 30.425 16.714 61.74 52.436 68.213 77.811l3.9981 15.672 9.8596-21.585c55.716-121.97 233.6-120.15 295.5 3.0316 19.638 39.076 21.794 122.51 4.3801 169.51-22.715 61.309-65.38 108.05-164.01 179.68-64.681 46.974-137.88 118.05-142.98 128.03-5.9155 11.588-.28216 1.8159-26.408-27.461z"/></g><g class="gp" transform="matrix(.13647 0 0 .15196 -531.99 276.85)"><path class="gp" d="m70.479 71.845-3.983-3.093c-1.213-1.006-2.872-2.334-2.872-4.765 0-2.441 1.659-3.993 3.099-5.43 4.64-3.652 9.276-7.539 9.276-15.73 0-8.423-5.3-12.854-7.84-14.956h6.849l7.189-4.517h-21.779c-5.976 0-14.588 1.414-20.893 6.619-4.752 4.1-7.07 9.753-7.07 14.842 0 8.639 6.633 17.396 18.346 17.396 1.106 0 2.316-.109 3.534-.222-.547 1.331-1.1 2.439-1.1 4.32 0 3.431 1.763 5.535 3.317 7.528-4.977.342-14.268.893-21.117 5.103-6.523 3.879-8.508 9.525-8.508 13.51 0 8.202 7.731 15.842 23.762 15.842 19.01 0 29.074-10.519 29.074-20.932.0010-7.651-4.419-11.417-9.284-15.515zm-14.479-12.738c-9.51 0-13.818-12.294-13.818-19.712 0-2.888.547-5.87 2.428-8.199 1.773-2.218 4.861-3.657 7.744-3.657 9.168 0 13.923 12.404 13.923 20.382 0 1.996-.22 5.533-2.762 8.09-1.778 1.774-4.753 3.096-7.515 3.096zm.109 44.543c-11.826 0-19.452-5.657-19.452-13.523 0-7.864 7.071-10.524 9.504-11.405 4.64-1.561 10.611-1.779 11.607-1.779 1.105 0 1.658 0 2.538.111 8.407 5.983 12.056 8.965 12.056 14.629 0 6.859-5.639 11.967-16.253 11.967z"/><polygon class="gp" points="92.923 58.938 81.866 58.938 81.866 64.469 92.923 64.469 92.923 75.612 98.393 75.612 98.393 64.469 109.51 64.469 109.51 58.938 98.393 58.938 98.393 47.863 92.923 47.863"/></g><g class="w" transform="matrix(.045466 0 0 .045466 -539.09 311.86)"><path class="w" d="m297.3 550.87c-13.78-15.44-48.17-45.53-76.44-66.88-83.74-63.24-95.14-72.39-129.14-103.7-62.685-57.72-89.306-115.71-89.215-194.34.0444-38.38 2.6606-53.17 13.41-75.8 18.236-38.382 45.1-66.905 79.445-84.351 24.33-12.355 36.32-17.845 76.94-18.069 42.493-.23483 51.439 4.7197 76.435 18.452 30.425 16.714 61.74 52.436 68.213 77.811l3.9981 15.672 9.8596-21.585c55.716-121.97 233.6-120.15 295.5 3.0316 19.638 39.076 21.794 122.51 4.3801 169.51-22.715 61.309-65.38 108.05-164.01 179.68-64.681 46.974-137.88 118.05-142.98 128.03-5.9155 11.588-.28216 1.8159-26.408-27.461z"/></g><path style="color-rendering:auto;text-decoration-color:#000000;color:#000000;shape-rendering:auto;solid-color:#000000;text-decoration-line:none;fill:#5f5f5f;mix-blend-mode:normal;block-progression:tb;text-indent:0;image-rendering:auto;white-space:normal;text-decoration-style:solid;isolation:auto;text-transform:none" d="m-528.55 318.18c-.41731 0-.81854.16838-1.1145.46438-.29711.29712-.46615.70295-.46615 1.1233 0 .4173.1689.81993.46263 1.1198h.003l.003.003c.29602.29601.69724.46614 1.1145.46614.42036 0 .82619-.16903 1.1233-.46614l.003-.003h.003c.29374-.29986.4609-.70249.4609-1.1198 0-.42036-.16729-.82619-.46439-1.1233-.29711-.2971-.70296-.46438-1.1233-.46438zm0 .89723c.20925 0 .34161.0542.48893.20154.14729.14731.20152.27967.20152.48892 0 .20216-.0542.33593-.20328.48893-.14654.14587-.27884.20153-.48717.20153-.20215 0-.33082-.0546-.47843-.20153-.14919-.153-.20501-.28677-.20501-.48893 0-.20925.056-.34161.20328-.48892.1484-.14842.27712-.20154.48016-.20154zm6.9939 2.2414c-.61596 0-1.1702.24456-1.6841.59232v-.46089h-.44863-2.5112v7.4531h2.9598v-4.4862c.39439-.56043.74278-.81837.98837-.81837.24411 0 .33066.05.41181.1542.0811.10432.16123.32866.16123.70798v4.4424h2.9598v-4.6159c0-.89379-.26748-1.6597-.8254-2.1905-.53454-.51273-1.2356-.77807-2.0118-.77807zm-8.4624.13143v7.4531h2.9598v-7.4531h-.44862-2.5112zm8.4624.7658c.58488 0 1.0169.1699 1.3897.52748l.003.003c.3575.33945.54851.8166.54851 1.5421v3.7186h-1.1654v-3.5452c0-.49563-.0914-.92509-.35048-1.2582-.25912-.33315-.6834-.50118-1.1198-.50118-.70826 0-1.3012.50507-1.812 1.2863l-.0736.11047v3.9079h-1.1654v-5.6586h1.1654v1.7086l.79034-.92878c.54221-.6374 1.107-.91127 1.791-.91127zm-7.5652.13143h1.1654v5.6586h-1.1654v-5.6586z"/></g></svg>