<svg xmlns="http://www.w3.org/2000/svg" height="112.89mm" width="127mm" viewBox="0 0 450 399.99995"><g transform="translate(-232.86 -169.51)"><path style="fill:#455A64" d="m240.74 169.51h434.24c4.3642 0 7.8777 2.8764 7.8777 6.4492v387.1c0 3.5729-3.5134 6.4492-7.8777 6.4492h-434.24c-4.3642 0-7.8777-2.8763-7.8777-6.4492v-387.1c0-3.5728 3.5134-6.4492 7.8777-6.4492z"/><g style="fill:#fff"><path  d="m403.44 264.79-1.6406 2.8198-9.2798-5.4602.15381 9.2285h-3.3069l.12818-9.2285-9.2542 5.4858-1.6663-2.8198 9.7668-5.3064-9.7668-5.3064 1.6663-2.8198 9.2798 5.4602-.15381-9.2029h3.3069l-.17945 9.2029 9.3054-5.4346 1.6406 2.8198-9.7412 5.2551 9.7412 5.3064z"/><path  d="m436.87 264.79-1.6406 2.8198-9.2798-5.4602.15381 9.2285h-3.3069l.12817-9.2285-9.2542 5.4858-1.6663-2.8198 9.7668-5.3064-9.7668-5.3064 1.6663-2.8198 9.2798 5.4602-.15381-9.2029h3.3069l-.17944 9.2029 9.3054-5.4346 1.6406 2.8198-9.7412 5.2551 9.7412 5.3064z"/><path  d="m470.29 264.79-1.6406 2.8198-9.2798-5.4602.15381 9.2285h-3.3069l.12817-9.2285-9.2542 5.4858-1.6663-2.8198 9.7668-5.3064-9.7668-5.3064 1.6663-2.8198 9.2798 5.4602-.15381-9.2029h3.3069l-.17945 9.2029 9.3054-5.4346 1.6406 2.8198-9.7412 5.2551 9.7412 5.3064z"/><path  d="m503.72 264.79-1.6406 2.8198-9.2798-5.4602.15381 9.2285h-3.3069l.12817-9.2285-9.2542 5.4858-1.6663-2.8198 9.7668-5.3064-9.7668-5.3064 1.6663-2.8198 9.2798 5.4602-.1538-9.2029h3.3069l-.17944 9.2029 9.3054-5.4346 1.6406 2.8198-9.7412 5.2551 9.7412 5.3064z"/><path  d="m537.15 264.79-1.6406 2.8198-9.2798-5.4602.1538 9.2285h-3.3069l.12817-9.2285-9.2542 5.4858-1.6663-2.8198 9.7668-5.3064-9.7668-5.3064 1.6663-2.8198 9.2798 5.4602-.15381-9.2029h3.3069l-.17944 9.2029 9.3054-5.4346 1.6406 2.8198-9.7412 5.2551 9.7412 5.3064z"/><path  d="m403.44 319.79-1.6406 2.8198-9.2798-5.4602.15381 9.2285h-3.3069l.12818-9.2285-9.2542 5.4858-1.6663-2.8198 9.7668-5.3064-9.7668-5.3064 1.6663-2.8198 9.2798 5.4602-.15381-9.2029h3.3069l-.17945 9.2029 9.3054-5.4346 1.6406 2.8198-9.7412 5.2551 9.7412 5.3064z"/><path  d="m436.87 319.79-1.6406 2.8198-9.2798-5.4602.15381 9.2285h-3.3069l.12817-9.2285-9.2542 5.4858-1.6663-2.8198 9.7668-5.3064-9.7668-5.3064 1.6663-2.8198 9.2798 5.4602-.15381-9.2029h3.3069l-.17944 9.2029 9.3054-5.4346 1.6406 2.8198-9.7412 5.2551 9.7412 5.3064z"/><path  d="m470.29 319.79-1.6406 2.8198-9.2798-5.4602.15381 9.2285h-3.3069l.12817-9.2285-9.2542 5.4858-1.6663-2.8198 9.7668-5.3064-9.7668-5.3064 1.6663-2.8198 9.2798 5.4602-.15381-9.2029h3.3069l-.17945 9.2029 9.3054-5.4346 1.6406 2.8198-9.7412 5.2551 9.7412 5.3064z"/><path  d="m503.72 319.79-1.6406 2.8198-9.2798-5.4602.15381 9.2285h-3.3069l.12817-9.2285-9.2542 5.4858-1.6663-2.8198 9.7668-5.3064-9.7668-5.3064 1.6663-2.8198 9.2798 5.4602-.1538-9.2029h3.3069l-.17944 9.2029 9.3054-5.4346 1.6406 2.8198-9.7412 5.2551 9.7412 5.3064z"/><path  d="m537.15 319.79-1.6406 2.8198-9.2798-5.4602.1538 9.2285h-3.3069l.12817-9.2285-9.2542 5.4858-1.6663-2.8198 9.7668-5.3064-9.7668-5.3064 1.6663-2.8198 9.2798 5.4602-.15381-9.2029h3.3069l-.17944 9.2029 9.3054-5.4346 1.6406 2.8198-9.7412 5.2551 9.7412 5.3064z"/><path  d="m403.44 374.79-1.6406 2.8198-9.2798-5.4602.15381 9.2285h-3.3069l.12818-9.2285-9.2542 5.4858-1.6663-2.8198 9.7668-5.3064-9.7668-5.3064 1.6663-2.8198 9.2798 5.4602-.15381-9.2029h3.3069l-.17945 9.2029 9.3054-5.4346 1.6406 2.8198-9.7412 5.2551 9.7412 5.3064z"/><path  d="m436.87 374.79-1.6406 2.8198-9.2798-5.4602.15381 9.2285h-3.3069l.12817-9.2285-9.2542 5.4858-1.6663-2.8198 9.7668-5.3064-9.7668-5.3064 1.6663-2.8198 9.2798 5.4602-.15381-9.2029h3.3069l-.17944 9.2029 9.3054-5.4346 1.6406 2.8198-9.7412 5.2551 9.7412 5.3064z"/><path  d="m470.29 374.79-1.6406 2.8198-9.2798-5.4602.15381 9.2285h-3.3069l.12817-9.2285-9.2542 5.4858-1.6663-2.8198 9.7668-5.3064-9.7668-5.3064 1.6663-2.8198 9.2798 5.4602-.15381-9.2029h3.3069l-.17945 9.2029 9.3054-5.4346 1.6406 2.8198-9.7412 5.2551 9.7412 5.3064z"/><path  d="m503.72 374.79-1.6406 2.8198-9.2798-5.4602.15381 9.2285h-3.3069l.12817-9.2285-9.2542 5.4858-1.6663-2.8198 9.7668-5.3064-9.7668-5.3064 1.6663-2.8198 9.2798 5.4602-.1538-9.2029h3.3069l-.17944 9.2029 9.3054-5.4346 1.6406 2.8198-9.7412 5.2551 9.7412 5.3064z"/><path  d="m537.15 374.79-1.6406 2.8198-9.2798-5.4602.1538 9.2285h-3.3069l.12817-9.2285-9.2542 5.4858-1.6663-2.8198 9.7668-5.3064-9.7668-5.3064 1.6663-2.8198 9.2798 5.4602-.15381-9.2029h3.3069l-.17944 9.2029 9.3054-5.4346 1.6406 2.8198-9.7412 5.2551 9.7412 5.3064z"/><path  d="m403.44 429.79-1.6406 2.8198-9.2798-5.4602.15381 9.2285h-3.3069l.12818-9.2285-9.2542 5.4858-1.6663-2.8198 9.7668-5.3064-9.7668-5.3064 1.6663-2.8198 9.2798 5.4602-.15381-9.2029h3.3069l-.17945 9.2029 9.3054-5.4346 1.6406 2.8198-9.7412 5.2551 9.7412 5.3064z"/><path  d="m436.87 429.79-1.6406 2.8198-9.2798-5.4602.15381 9.2285h-3.3069l.12817-9.2285-9.2542 5.4858-1.6663-2.8198 9.7668-5.3064-9.7668-5.3064 1.6663-2.8198 9.2798 5.4602-.15381-9.2029h3.3069l-.17944 9.2029 9.3054-5.4346 1.6406 2.8198-9.7412 5.2551 9.7412 5.3064z"/><path  d="m470.29 429.79-1.6406 2.8198-9.2798-5.4602.15381 9.2285h-3.3069l.12817-9.2285-9.2542 5.4858-1.6663-2.8198 9.7668-5.3064-9.7668-5.3064 1.6663-2.8198 9.2798 5.4602-.15381-9.2029h3.3069l-.17945 9.2029 9.3054-5.4346 1.6406 2.8198-9.7412 5.2551 9.7412 5.3064z"/><path  d="m503.72 429.79-1.6406 2.8198-9.2798-5.4602.15381 9.2285h-3.3069l.12817-9.2285-9.2542 5.4858-1.6663-2.8198 9.7668-5.3064-9.7668-5.3064 1.6663-2.8198 9.2798 5.4602-.1538-9.2029h3.3069l-.17944 9.2029 9.3054-5.4346 1.6406 2.8198-9.7412 5.2551 9.7412 5.3064z"/><path  d="m537.15 429.79-1.6406 2.8198-9.2798-5.4602.1538 9.2285h-3.3069l.12817-9.2285-9.2542 5.4858-1.6663-2.8198 9.7668-5.3064-9.7668-5.3064 1.6663-2.8198 9.2798 5.4602-.15381-9.2029h3.3069l-.17944 9.2029 9.3054-5.4346 1.6406 2.8198-9.7412 5.2551 9.7412 5.3064z"/><path  d="m403.44 484.79-1.6406 2.8198-9.2798-5.4602.15381 9.2285h-3.3069l.12818-9.2285-9.2542 5.4858-1.6663-2.8198 9.7668-5.3064-9.7668-5.3064 1.6663-2.8198 9.2798 5.4602-.15381-9.2029h3.3069l-.17945 9.2029 9.3054-5.4346 1.6406 2.8198-9.7412 5.2551 9.7412 5.3064z"/><path  d="m436.87 484.79-1.6406 2.8198-9.2798-5.4602.15381 9.2285h-3.3069l.12817-9.2285-9.2542 5.4858-1.6663-2.8198 9.7668-5.3064-9.7668-5.3064 1.6663-2.8198 9.2798 5.4602-.15381-9.2029h3.3069l-.17944 9.2029 9.3054-5.4346 1.6406 2.8198-9.7412 5.2551 9.7412 5.3064z"/><path  d="m470.29 484.79-1.6406 2.8198-9.2798-5.4602.15381 9.2285h-3.3069l.12817-9.2285-9.2542 5.4858-1.6663-2.8198 9.7668-5.3064-9.7668-5.3064 1.6663-2.8198 9.2798 5.4602-.15381-9.2029h3.3069l-.17945 9.2029 9.3054-5.4346 1.6406 2.8198-9.7412 5.2551 9.7412 5.3064z"/><path  d="m503.72 484.79-1.6406 2.8198-9.2798-5.4602.15381 9.2285h-3.3069l.12817-9.2285-9.2542 5.4858-1.6663-2.8198 9.7668-5.3064-9.7668-5.3064 1.6663-2.8198 9.2798 5.4602-.1538-9.2029h3.3069l-.17944 9.2029 9.3054-5.4346 1.6406 2.8198-9.7412 5.2551 9.7412 5.3064z"/><path  d="m537.15 484.79-1.6406 2.8198-9.2798-5.4602.1538 9.2285h-3.3069l.12817-9.2285-9.2542 5.4858-1.6663-2.8198 9.7668-5.3064-9.7668-5.3064 1.6663-2.8198 9.2798 5.4602-.15381-9.2029h3.3069l-.17944 9.2029 9.3054-5.4346 1.6406 2.8198-9.7412 5.2551 9.7412 5.3064z"/></g></g></svg>