<svg style="font-family:sans-serif" xmlns="http://www.w3.org/2000/svg" height="155.41mm" width="217.91mm" viewBox="0 0 772.12673 550.65277"><g transform="translate(4.5948 -48.177)"><text style="font-size:37.5px;fill:#ffaa00" y="439.36945" x="254.02426"><tspan y="439.36945" x="254.02426" style="font-size:37.5px;fill:#ffaa00">strcat(str1, str2)</tspan></text><rect style="opacity:.86694" height="50.017" width="353.52" y="48.258" x="231.74"/><path style="stroke:#ecca5b;stroke-width:1px;stroke-opacity:0.751;fill:none" d="m539.6 97.323 43.44-48.737"/><path style="stroke:#bc8b00;stroke-width:1.5;fill:none" d="m274.94 48.333v50"/><path style="stroke:#bc8b00;stroke-width:1.5;fill:none" d="m319.17 48.333v50"/><path style="stroke:#bc8b00;stroke-width:1.5;fill:none" d="m363.4 48.333v50"/><path style="stroke:#bc8b00;stroke-width:1.5;fill:none" d="m407.63 48.333v50"/><path style="stroke:#bc8b00;stroke-width:1.5;fill:none" d="m540.33 48.333v50"/><path style="stroke:#ecca5b;stroke-width:1px;stroke-opacity:0.751;fill:none" d="m550.21 97.362 32.92-36.937"/><text style="font-size:35px;fill:#ecca5b" y="86.046806" x="240.98306"><tspan y="86.046806" x="240.98306">H</tspan></text><text style="font-size:20px;fill:#ff522e" y="124.34759" x="223.98062"><tspan y="124.34759" x="223.98062">0</tspan></text><text style="font-size:35px;fill:#ecca5b" y="85.60247" x="286.32217"><tspan y="85.60247" x="286.32217">o</tspan></text><text style="font-size:20px;fill:#ff522e" y="124.65032" x="267.21036"><tspan y="124.65032" x="267.21036">1</tspan></text><text style="font-size:35px;fill:#ecca5b" y="86.046806" x="326.1384"><tspan y="86.046806" x="326.1384">w</tspan></text><text style="font-size:20px;fill:#ff522e" y="124.65032" x="312.22214"><tspan y="124.65032" x="312.22214">2</tspan></text><text style="font-size:35px;fill:#ecca5b" y="86.046806" x="374.82864"><tspan y="86.046806" x="374.82864"/></text><text style="font-size:20px;fill:#ff522e" y="124.34759" x="356.86032"><tspan y="124.34759" x="356.86032">3</tspan></text><text style="font-size:35px;fill:#ecca5b" y="85.517021" x="418.09598"><tspan y="85.517021" x="418.09598">a</tspan></text><text style="font-size:20px;fill:#ff522e" y="124.65032" x="401.38211"><tspan y="124.65032" x="401.38211">4</tspan></text><text style="font-size:20px;fill:#ff522e" y="124.34759" x="443.97586"><tspan y="124.34759" x="443.97586">5</tspan></text><text style="font-size:20px;fill:#ff522e" y="124.34759" x="488.67834"><tspan y="124.34759" x="488.67834">6</tspan></text><text style="font-size:27.5px;fill:#ecca5b" y="81.964775" x="545.92615"><tspan y="81.964775" x="545.92615">\0</tspan></text><text style="font-size:20px;fill:#bc8b00" y="78.525444" x="137.69492"><tspan y="78.525444" x="137.69492">Memory</tspan></text><text style="font-size:20px;fill-opacity:.94902;fill:#ff522e" y="120.50872" x="138.31015"><tspan y="120.50872" x="138.31015">Index</tspan></text><path style="stroke:#bc8b00;stroke-width:1.5;fill:none" d="m230.7 48.333v50"/><path style="stroke:#ecca5b;stroke-width:1px;stroke-opacity:0.751;fill:none" d="m560.52 97.318 22.44-25.179"/><path style="stroke:#ecca5b;stroke-width:1px;stroke-opacity:0.751;fill:none" d="m572.45 97.93 10.67-11.098"/><path style="stroke:#bc8b00;stroke-width:1.5;fill:none" d="m584.57 48.296v50"/><path style="stroke:#ff522e;stroke-width:1px;stroke-opacity:.97647;fill:none" d="m225.74 138.33v20h318.7v-20"/><path style="stroke:#ecca5b;stroke-width:1px;stroke-opacity:0.751;fill:none" d="m540.27 84.194 32.22-35.573"/><path style="stroke:#ecca5b;stroke-width:1px;stroke-opacity:0.751;fill:none" d="m539.98 72.386 21.62-23.868"/><path style="stroke:#ecca5b;stroke-width:1px;stroke-opacity:0.751;fill:none" d="m540.81 59.405 9.869-10.892"/><text style="font-size:20px;fill:#de6a26" y="84.049614" x="-6.4747581"><tspan y="84.049614" x="-6.4747581" style="font-size:35px">str1 =</tspan></text><text style="font-size:20px;fill:#de6a26" y="298.20197" x="-4.4747581"><tspan y="298.20197" x="-4.4747581" style="font-size:35px">str2 =</tspan></text><rect style="opacity:.86694" height="50.017" width="168.93" y="260.26" x="321.31"/><path style="stroke:#ecca5b;stroke-width:1px;stroke-opacity:0.751;fill:none" d="m447.6 309.32 43.436-48.737"/><path style="stroke:#bc8b00;stroke-width:1.5;fill:none" d="m321.32 260.33v50"/><path style="stroke:#bc8b00;stroke-width:1.5;fill:none" d="m363.63 260.33v50"/><path style="stroke:#bc8b00;stroke-width:1.5;fill:none" d="m405.95 260.33v50"/><path style="stroke:#bc8b00;stroke-width:1.5;fill:none" d="m448.26 260.33v50"/><path style="stroke:#ecca5b;stroke-width:1px;stroke-opacity:0.751;fill:none" d="m458.21 309.36 32.918-36.937"/><text style="font-size:20px;fill:#ff522e" y="336.32806" x="313.98062"><tspan y="336.32806" x="313.98062">0</tspan></text><text style="font-size:20px;fill:#ff522e" y="336.35736" x="355.21036"><tspan y="336.35736" x="355.21036">1</tspan></text><text style="font-size:35px;fill:#ecca5b" y="293.51703" x="332.1384"><tspan y="293.51703" x="332.1384">y</tspan></text><text style="font-size:20px;fill:#ff522e" y="336.48431" x="398.22214"><tspan y="336.48431" x="398.22214">2</tspan></text><text style="font-size:35px;fill:#ecca5b" y="294.04681" x="374.82864"><tspan y="294.04681" x="374.82864">o</tspan></text><text style="font-size:20px;fill:#ff522e" y="336.33295" x="440.86032"><tspan y="336.33295" x="440.86032">3</tspan></text><text style="font-size:35px;fill:#ecca5b" y="293.51703" x="416.09598"><tspan y="293.51703" x="416.09598">u</tspan></text><text style="font-size:20px;fill:#ff522e" y="336.33295" x="483.38208"><tspan y="336.33295" x="483.38208">4</tspan></text><text style="font-size:27.5px;fill:#ecca5b" y="293.96478" x="453.92615"><tspan y="293.96478" x="453.92615">\0</tspan></text><text style="font-size:20px;fill:#bc8b00" y="290.52533" x="137.69492"><tspan y="290.52533" x="137.69492">Memory</tspan></text><text style="font-size:20px;fill-opacity:.94902;fill:#ff522e" y="332.50873" x="138.31015"><tspan y="332.50873" x="138.31015">Index</tspan></text><path style="stroke:#ecca5b;stroke-width:1px;stroke-opacity:0.751;fill:none" d="m468.52 309.32 22.437-25.179"/><path style="stroke:#ecca5b;stroke-width:1px;stroke-opacity:0.751;fill:none" d="m480.45 309.93 10.668-11.098"/><path style="stroke:#bc8b00;stroke-width:1.5;fill:none" d="m490.57 260.3v50"/><path style="stroke:#ff522e;stroke-width:1px;stroke-opacity:.97647;fill:none" d="m316.89 350.33v20h137.11v-20"/><path style="stroke:#ecca5b;stroke-width:1px;stroke-opacity:0.751;fill:none" d="m448.27 296.19 32.218-35.573"/><path style="stroke:#ecca5b;stroke-width:1px;stroke-opacity:0.751;fill:none" d="m447.98 284.39 21.62-23.87"/><path style="stroke:#ecca5b;stroke-width:1px;stroke-opacity:0.751;fill:none" d="m448.81 271.4 9.869-10.892"/><text style="font-size:35px;fill:#ecca5b" y="85.517029" x="466.09595"><tspan y="85.517029" x="466.09595">r</tspan></text><text style="font-size:35px;fill:#ecca5b" y="85.517029" x="508.09595"><tspan y="85.517029" x="508.09595">e</tspan></text><path style="stroke:#bc8b00;stroke-width:1.5;fill:none" d="m451.87 48.333v50"/><path style="stroke:#bc8b00;stroke-width:1.5;fill:none" d="m496.1 48.333v50"/><text style="font-size:20px;fill:#000000" y="118.98125" x="533.96973"><tspan y="118.98125" x="533.96973"/></text><text style="font-size:20px;fill:#ff522e" y="124.65032" x="531.97583"><tspan y="124.65032" x="531.97583">7</tspan></text><text style="font-size:20px;fill:#ff522e" y="124.31829" x="576.67834"><tspan y="124.31829" x="576.67834">8</tspan></text><rect style="opacity:.86694" height="50.017" width="525.68" y="488.26" x="231.74"/><path style="stroke:#bc8b00;stroke-width:1.5;fill:none" d="m274.94 488.33v50"/><path style="stroke:#bc8b00;stroke-width:1.5;fill:none" d="m319.17 488.33v50"/><path style="stroke:#bc8b00;stroke-width:1.5;fill:none" d="m363.4 488.33v50"/><path style="stroke:#bc8b00;stroke-width:1.5;fill:none" d="m407.63 488.33v50"/><text style="font-size:35px;fill:#ecca5b" y="526.04688" x="240.98306"><tspan y="526.04688" x="240.98306">H</tspan></text><text style="font-size:20px;fill:#ff522e" y="564.34766" x="223.98062"><tspan y="564.34766" x="223.98062">0</tspan></text><text style="font-size:35px;fill:#ecca5b" y="525.60254" x="286.32217"><tspan y="525.60254" x="286.32217">o</tspan></text><text style="font-size:20px;fill:#ff522e" y="564.65039" x="267.21036"><tspan y="564.65039" x="267.21036">1</tspan></text><text style="font-size:35px;fill:#ecca5b" y="526.04688" x="326.1384"><tspan y="526.04688" x="326.1384">w</tspan></text><text style="font-size:20px;fill:#ff522e" y="564.65039" x="312.22214"><tspan y="564.65039" x="312.22214">2</tspan></text><text style="font-size:20px;fill:#ff522e" y="564.34766" x="356.86032"><tspan y="564.34766" x="356.86032">3</tspan></text><text style="font-size:35px;fill:#ecca5b" y="525.51709" x="418.09598"><tspan y="525.51709" x="418.09598">a</tspan></text><text style="font-size:20px;fill:#ff522e" y="564.65039" x="401.38211"><tspan y="564.65039" x="401.38211">4</tspan></text><text style="font-size:20px;fill:#ff522e" y="564.34766" x="443.97586"><tspan y="564.34766" x="443.97586">5</tspan></text><text style="font-size:20px;fill:#ff522e" y="564.34766" x="488.67834"><tspan y="564.34766" x="488.67834">6</tspan></text><text style="font-size:20px;fill:#bc8b00" y="518.52551" x="137.69492"><tspan y="518.52551" x="137.69492">Memory</tspan></text><text style="font-size:20px;fill-opacity:.94902;fill:#ff522e" y="560.50879" x="138.31015"><tspan y="560.50879" x="138.31015">Index</tspan></text><path style="stroke:#bc8b00;stroke-width:1.5;fill:none" d="m230.7 488.33v50"/><path style="stroke:#ff522e;stroke-width:1px;stroke-opacity:.97647;fill:none" d="m225.82 578.33v20h494.81v-20"/><text style="font-size:20px;fill:#de6a26" y="524.04968" x="-6.4747581"><tspan y="524.04968" x="-6.4747581" style="font-size:35px">str1 =</tspan></text><text style="font-size:35px;fill:#ecca5b" y="525.51709" x="466.09595"><tspan y="525.51709" x="466.09595">r</tspan></text><text style="font-size:35px;fill:#ecca5b" y="525.51709" x="508.09595"><tspan y="525.51709" x="508.09595">e</tspan></text><path style="stroke:#bc8b00;stroke-width:1.5;fill:none" d="m451.87 488.33v50"/><path style="stroke:#bc8b00;stroke-width:1.5;fill:none" d="m496.1 488.33v50"/><text style="font-size:20px;fill:#ff522e" y="564.65039" x="531.97583"><tspan y="564.65039" x="531.97583">7</tspan></text><text style="font-size:20px;fill:#ff522e" y="564.31836" x="576.67834"><tspan y="564.31836" x="576.67834">8</tspan></text><path style="stroke:#ecca5b;stroke-width:1px;stroke-opacity:0.751;fill:none" d="m713.6 537.32 43.436-48.737"/><path style="stroke:#bc8b00;stroke-width:1.5;fill:none" d="m543.32 488.33v50"/><path style="stroke:#bc8b00;stroke-width:1.5;fill:none" d="m629.63 488.33v50"/><path style="stroke:#bc8b00;stroke-width:1.5;fill:none" d="m671.95 488.33v50"/><path style="stroke:#bc8b00;stroke-width:1.5;fill:none" d="m714.26 488.33v50"/><path style="stroke:#ecca5b;stroke-width:1px;stroke-opacity:0.751;fill:none" d="m724.21 537.36 32.918-36.937"/><text style="font-size:35px;fill:#ecca5b" y="521.51703" x="596.13843"><tspan y="521.51703" x="596.13843">y</tspan></text><text style="font-size:20px;fill:#ff522e" y="564.48431" x="624.22217"><tspan y="564.48431" x="624.22217">9</tspan></text><text style="font-size:35px;fill:#ecca5b" y="522.04681" x="640.82861"><tspan y="522.04681" x="640.82861">o</tspan></text><text style="font-size:20px;fill:#ff522e" y="564.33295" x="658.86035"><tspan y="564.33295" x="658.86035">10</tspan></text><text style="font-size:35px;fill:#ecca5b" y="521.51703" x="682.09595"><tspan y="521.51703" x="682.09595">u</tspan></text><text style="font-size:20px;fill:#ff522e" y="564.33295" x="701.38208"><tspan y="564.33295" x="701.38208">11</tspan></text><text style="font-size:27.5px;fill:#ecca5b" y="521.96478" x="717.92615"><tspan y="521.96478" x="717.92615">\0</tspan></text><path style="stroke:#ecca5b;stroke-width:1px;stroke-opacity:0.751;fill:none" d="m734.52 537.32 22.437-25.179"/><path style="stroke:#ecca5b;stroke-width:1px;stroke-opacity:0.751;fill:none" d="m746.45 537.93 10.668-11.098"/><path style="stroke:#bc8b00;stroke-width:1.5;fill:none" d="m756.57 488.3v50"/><path style="stroke:#ecca5b;stroke-width:1px;stroke-opacity:0.751;fill:none" d="m714.27 524.19 32.218-35.573"/><path style="stroke:#ecca5b;stroke-width:1px;stroke-opacity:0.751;fill:none" d="m713.98 512.39 21.62-23.87"/><path style="stroke:#ecca5b;stroke-width:1px;stroke-opacity:0.751;fill:none" d="m714.81 499.4 9.869-10.892"/><path style="stroke:#bc8b00;stroke-width:1.5;fill:none" d="m583.32 488.33v50"/><text style="font-size:20px;fill:#ff522e" y="564.33295" x="743.38208"><tspan y="564.33295" x="743.38208">12</tspan></text></g></svg>