<svg style="font-family:sans-serif;" xmlns="http://www.w3.org/2000/svg" height="157.89mm" width="193.85mm" viewBox="0 0 686.86097 559.4593"><defs><marker id="a" refY="0" refX="0" style="overflow:visible" orient="auto"><path style="stroke:#1dd341;stroke-width:1pt;fill:#1dd341" transform="matrix(-.8 0 0 -.8 -10 0)" d="m0 0 5-5-17.5 5 17.5 5-5-5z"/></marker><marker id="b" refY="0" refX="0" style="overflow:visible" orient="auto"><path style="stroke:#eaa232;stroke-width:1pt;fill:#eaa232" transform="matrix(-.8 0 0 -.8 -10 0)" d="m0 0 5-5-17.5 5 17.5 5-5-5z"/></marker><marker id="c" refY="0" refX="0" style="overflow:visible" orient="auto"><path style="stroke:#2e72bc;stroke-width:1pt;fill:#2e72bc" transform="matrix(-.8 0 0 -.8 -10 0)" d="m0 0 5-5-17.5 5 17.5 5-5-5z"/></marker><marker id="f" refY="0" refX="0" style="overflow:visible" orient="auto"><path style="stroke:#f00;stroke-width:1pt;fill:#ecca5b" transform="matrix(-.8 0 0 -.8 -10 0)" d="m0 0 5-5-17.5 5 17.5 5-5-5z"/></marker><marker id="g" refY="0" refX="0" style="overflow:visible" orient="auto"><path style="stroke:#f00;stroke-width:1pt;fill:#ecca5b" transform="matrix(-.8 0 0 -.8 -10 0)" d="m0 0 5-5-17.5 5 17.5 5-5-5z"/></marker><marker id="h" refY="0" refX="0" style="overflow:visible" orient="auto"><path style="stroke:#f00;stroke-width:1pt;fill:#ecca5b" transform="matrix(-.8 0 0 -.8 -10 0)" d="m0 0 5-5-17.5 5 17.5 5-5-5z"/></marker><marker id="d" refY="0" refX="0" style="overflow:visible" orient="auto"><path d="m0 0 5-5-17.5 5 17.5 5-5-5z" style="stroke:#36d649;stroke-width:1pt;fill:#36d649" transform="matrix(-.8 0 0 -.8 -10 0)"/></marker><marker id="e" refY="0" refX="0" style="overflow:visible" orient="auto"><path d="m0 0 5-5-17.5 5 17.5 5-5-5z" style="stroke:#cb4351;stroke-width:1pt;fill:#cb4351" transform="matrix(-.8 0 0 -.8 -10 0)"/></marker></defs><g transform="translate(-86.957 -67.76)"><rect style="opacity:.86694" transform="rotate(90)" height="50.017" width="336.78" y="-145.97" x="255.79"/><path style="stroke:#ecca5b;stroke-width:1px;stroke-opacity:0.751;fill:none" d="m96.909 549.65 48.737 43.436"/><path style="stroke:#bc8b00;stroke-width:1.5;fill:none" d="m145.9 297.07h-50"/><path style="stroke:#bc8b00;stroke-width:1.5;fill:none" d="m145.9 339.37h-50"/><path style="stroke:#bc8b00;stroke-width:1.5;fill:none" d="m145.9 381.68h-50"/><path style="stroke:#bc8b00;stroke-width:1.5;fill:none" d="m145.9 423.99h-50"/><path style="stroke:#bc8b00;stroke-width:1.5;fill:none" d="m145.9 550.3h-50"/><path style="stroke:#ecca5b;stroke-width:1px;stroke-opacity:0.751;fill:none" d="m96.869 560.26 36.937 32.918"/><path style="stroke:#bc8b00;stroke-width:1.5;fill:none" d="m145.9 254.76h-50"/><path style="stroke:#ecca5b;stroke-width:1px;stroke-opacity:0.751;fill:none" d="m96.909 570.57 25.181 22.441"/><path style="stroke:#ecca5b;stroke-width:1px;stroke-opacity:0.751;fill:none" d="m96.299 582.5 11.098 10.668"/><path style="stroke:#bc8b00;stroke-width:1.5;fill:none" d="m145.93 592.61h-50"/><path style="stroke:#ecca5b;stroke-width:1px;stroke-opacity:0.751;fill:none" d="m110.03 550.32 35.573 32.218"/><path style="stroke:#ecca5b;stroke-width:1px;stroke-opacity:0.751;fill:none" d="m121.84 550.02 23.871 21.621"/><path style="stroke:#ecca5b;stroke-width:1px;stroke-opacity:0.751;fill:none" d="m134.82 550.85 10.892 9.869"/><text style="font-size:20px;fill:#de6a26" y="224.15712" x="85.076721"><tspan y="224.15712" x="85.076721" style="font-size:35px">str1</tspan></text><text style="font-size:35px;fill:#ecca5b" y="289.50507" x="108.832"><tspan x="108.832" y="289.50507">2</tspan></text><text style="font-size:35px;fill:#ecca5b" y="330.93362" x="108.63547"><tspan x="108.63547" y="330.93362">b</tspan></text><text style="font-size:35px;fill:#ecca5b" y="370.21936" x="111.07932"><tspan x="111.07932" y="370.21936">r</tspan></text><text style="font-size:35px;fill:#ecca5b" y="411.64792" x="110.31027"><tspan x="110.31027" y="411.64792">a</tspan></text><text style="font-size:35px;fill:#ecca5b" y="455.21936" x="110.66061"><tspan x="110.66061" y="455.21936">c</tspan></text><text style="font-size:35px;fill:#ecca5b" y="496.07651" x="109.72067"><tspan x="109.72067" y="496.07651">e</tspan></text><text style="font-size:35px;fill:#ecca5b" y="539.50507" x="110.85715"><tspan x="110.85715" y="539.50507">s</tspan></text><path style="stroke:#bc8b00;stroke-width:1.5;fill:none" d="m145.9 464.3h-50"/><path style="stroke:#bc8b00;stroke-width:1.5;fill:none" d="m145.93 506.61h-50"/><rect style="opacity:.86694" transform="rotate(90)" height="50.017" width="293.59" y="-325.97" x="255.79"/><path style="stroke:#ecca5b;stroke-width:1px;stroke-opacity:0.751;fill:none" d="m276.91 505.65 48.737 43.436"/><path style="stroke:#bc8b00;stroke-width:1.5;fill:none" d="m325.9 297.07h-50"/><path style="stroke:#bc8b00;stroke-width:1.5;fill:none" d="m325.9 339.37h-50"/><path style="stroke:#bc8b00;stroke-width:1.5;fill:none" d="m325.9 381.68h-50"/><path style="stroke:#bc8b00;stroke-width:1.5;fill:none" d="m325.9 423.99h-50"/><path style="stroke:#bc8b00;stroke-width:1.5;fill:none" d="m325.9 506.3h-50"/><path style="stroke:#ecca5b;stroke-width:1px;stroke-opacity:0.751;fill:none" d="m276.87 516.26 36.937 32.918"/><path style="stroke:#bc8b00;stroke-width:1.5;fill:none" d="m325.9 254.76h-50"/><path style="stroke:#ecca5b;stroke-width:1px;stroke-opacity:0.751;fill:none" d="m276.91 526.57 25.181 22.441"/><path style="stroke:#ecca5b;stroke-width:1px;stroke-opacity:0.751;fill:none" d="m276.3 538.5 11.098 10.668"/><path style="stroke:#bc8b00;stroke-width:1.5;fill:none" d="m325.93 548.61h-50"/><path style="stroke:#ecca5b;stroke-width:1px;stroke-opacity:0.751;fill:none" d="m290.03 506.32 35.573 32.218"/><path style="stroke:#ecca5b;stroke-width:1px;stroke-opacity:0.751;fill:none" d="m301.84 506.02 23.871 21.621"/><path style="stroke:#ecca5b;stroke-width:1px;stroke-opacity:0.751;fill:none" d="m314.82 506.85 10.892 9.869"/><text style="font-size:20px;fill:#de6a26" y="224.15712" x="265.07672"><tspan y="224.15712" x="265.07672" style="font-size:35px">str2</tspan></text><text style="font-size:35px;fill:#ecca5b" y="289.50507" x="295.98508"><tspan x="295.98508" y="289.50507">l</tspan></text><text style="font-size:35px;fill:#ecca5b" y="326.93362" x="290.90085"><tspan x="290.90085" y="326.93362">a</tspan></text><text style="font-size:35px;fill:#ecca5b" y="372.21936" x="293.72067"><tspan x="293.72067" y="372.21936">t</tspan></text><text style="font-size:35px;fill:#ecca5b" y="413.64792" x="290.31125"><tspan x="290.31125" y="413.64792">e</tspan></text><text style="font-size:35px;fill:#ecca5b" y="453.21936" x="291.44772"><tspan x="291.44772" y="453.21936">s</tspan></text><text style="font-size:35px;fill:#ecca5b" y="498.07651" x="293.72067"><tspan x="293.72067" y="498.07651">t</tspan></text><path style="stroke:#bc8b00;stroke-width:1.5;fill:none" d="m325.9 464.3h-50"/><text style="font-size:35px;fill:#ecca5b" y="583.50507" x="100.85715"><tspan x="100.85715" y="583.50507">\0</tspan></text><text style="font-size:35px;fill:#ecca5b" y="537.50507" x="280.85715"><tspan x="280.85715" y="537.50507">\0</tspan></text><path style="marker-end:url(#g);stroke:#f00;stroke-width:1px;fill:#ecca5b" d="m390 254.36v339.6"/><path style="marker-end:url(#h);stroke:#f00;stroke-width:1px;fill:#ecca5b" d="m470 254.36v339.6"/><path style="marker-end:url(#f);stroke:#f00;stroke-width:1px;fill:#ecca5b" d="m550 254.36v339.6"/><path style="marker-end:url(#d);stroke:#36d649;stroke-width:1px;fill:none" d="m630 254.36v75.345"/><text style="font-size:50px;fill:#000000" y="622.36218" x="380"><tspan x="380" y="622.36218"/></text><text style="font-size:35px;fill:#ff0000" y="627.21936" x="379.5463"><tspan x="379.5463" y="627.21936">2</tspan></text><text style="font-size:35px;fill:#ff0000" y="626.68958" x="457.49261"><tspan x="457.49261" y="626.68958">b</tspan></text><text style="font-size:35px;fill:#ff0000" y="627.21936" x="539.79358"><tspan x="539.79358" y="627.21936">r</tspan></text><text style="font-size:35px;fill-opacity:.99608;fill:#36d648" y="358.36218" x="619.47229"><tspan x="619.47229" y="358.36218">a</tspan></text><path style="marker-end:url(#b);stroke:#eaa232;stroke-width:1px;fill:none" d="m145.46 253.45c6.5428-26.208 21.787-50.166 42.756-67.195s47.544-27.034 74.537-28.061c28.406-1.0805 57.094 7.821 79.899 24.792s39.57 41.894 46.693 69.413"/><path style="marker-end:url(#c);stroke:#2e72bc;stroke-width:1px;fill:none" d="m143.44 325.05c24.003-26.91 53.367-49.02 85.863-64.65 52.588-25.294 112.91-33.224 170.72-25.254 23.426 3.2298 46.501 8.9985 68.69 17.173"/><path style="marker-end:url(#e);stroke:#cb4351;stroke-width:1px;fill:none" d="m143.44 365.05c16.727-29.538 38.821-56.026 64.878-77.782 44.794-37.399 101.14-60.372 159.15-66.67 61.769-6.706 125.46 5.4161 180.44 34.345"/><path style="marker-end:url(#a);stroke:#1dd341;stroke-width:1px;fill:none" d="m143.44 425.05c13.848-33.841 33.861-65.148 58.762-91.924 39.961-42.969 92.115-73.776 147.92-91.924 89.887-29.233 190.07-25.587 277.6 10.102"/><text style="font-size:50px;fill:#000000" y="338.31573" x="713.25116"><tspan x="713.25116" style="font-size:35px;fill:#ffaa00" y="338.31573">= 3</tspan></text><text style="font-size:37.5px;fill:#ffaa00" y="96.251205" x="155.34283"><tspan y="96.251205" x="155.34283" style="font-size:37.5px;fill:#ffaa00">strcspn(str1, str2)</tspan></text></g></svg>