<svg xmlns:rdf="http://www.w3.org/1999/02/22-rdf-syntax-ns#" style="stroke-width:1px;font-family:sans-serif" xmlns="http://www.w3.org/2000/svg" height="166.69mm" width="292.63mm" version="1.1" xmlns:cc="http://creativecommons.org/ns#" xmlns:dc="http://purl.org/dc/elements/1.1/" viewBox="0 0 1036.8664 590.62992">
 <g transform="translate(193.43 -237.05)" groupmode="layer" label="Layer 1">
  <rect style="opacity:.86694;stroke-width:2;stroke-opacity:.86667" height="50.017" width="331.35" y="237.1" x="68.93"/>
  <path style="stroke:#ecca5b;stroke-width:1px;stroke-opacity:0.751;fill:none" connector-curvature="0" d="m357.57 286.69 42.669-49.241"/>
  <path style="stroke:#bc8b00;stroke-width:1.5;fill:none" connector-curvature="0" d="m109.34 237.18v50"/>
  <path style="stroke:#bc8b00;stroke-width:1.5;fill:none" connector-curvature="0" d="m150.78 237.18v50"/>
  <path style="stroke:#bc8b00;stroke-width:1.5;fill:none" connector-curvature="0" d="m192.22 237.18v50"/>
  <path style="stroke:#bc8b00;stroke-width:1.5;fill:none" connector-curvature="0" d="m233.67 237.18v50"/>
  <path style="stroke:#bc8b00;stroke-width:1.5;fill:none" connector-curvature="0" d="m275.11 237.18v50"/>
  <path style="stroke:#bc8b00;stroke-width:1.5;fill:none" connector-curvature="0" d="m316.55 237.18v50"/>
  <path style="stroke:#ecca5b;stroke-width:1px;stroke-opacity:0.751;fill:none" connector-curvature="0" d="m367.99 286.73 32.337-37.319"/>
  <text y="269.85001" x="78.177917" style="font-size:35px;line-height:125%;fill:#ecca5b">
   <tspan y="269.85001" x="78.177917" role="line">y</tspan>
  </text>
  <text y="313.17221" x="61.175476" style="font-size:20px;line-height:125%;fill:#ff522e">
   <tspan y="313.17221" x="61.175476" role="line">0</tspan>
  </text>
  <text y="273.37051" x="119.49435" style="font-size:35px;line-height:125%;fill:#ecca5b">
   <tspan y="273.37051" x="119.49435" role="line">o</tspan>
  </text>
  <text y="313.20151" x="104.40524" style="font-size:20px;line-height:125%;fill:#ff522e">
   <tspan y="313.20151" x="104.40524" role="line">1</tspan>
  </text>
  <text y="273.10562" x="162.7937" style="font-size:35px;line-height:125%;fill:#ecca5b">
   <tspan y="273.10562" x="162.7937" role="line">u</tspan>
  </text>
  <text y="313.32846" x="145.41699" style="font-size:20px;line-height:125%;fill:#ff522e">
   <tspan y="313.32846" x="145.41699" role="line">2</tspan>
  </text>
  <text y="274.36124" x="202.58963" style="font-size:35px;line-height:125%;fill:#ecca5b">
   <tspan y="274.36124" x="202.58963" role="line"/>
  </text>
  <text y="313.17709" x="186.05521" style="font-size:20px;line-height:125%;fill:#ff522e">
   <tspan y="313.17709" x="186.05521" role="line">3</tspan>
  </text>
  <text y="273.33633" x="245.29083" style="font-size:35px;line-height:125%;fill:#ecca5b">
   <tspan y="273.33633" x="245.29083" role="line">a</tspan>
  </text>
  <text y="313.17709" x="228.57697" style="font-size:20px;line-height:125%;fill:#ff522e">
   <tspan y="313.17709" x="228.57697" role="line">4</tspan>
  </text>
  <text y="273.37051" x="287.25717" style="font-size:35px;line-height:125%;fill:#ecca5b">
   <tspan y="273.37051" x="287.25717" role="line">r</tspan>
  </text>
  <text y="313.02573" x="271.17075" style="font-size:20px;line-height:125%;fill:#ff522e">
   <tspan y="313.02573" x="271.17075" role="line">5</tspan>
  </text>
  <text y="273.41324" x="327.01791" style="font-size:35px;line-height:125%;fill:#ecca5b">
   <tspan y="273.41324" x="327.01791" role="line">e</tspan>
  </text>
  <text y="313.16245" x="313.87314" style="font-size:20px;line-height:125%;fill:#ff522e">
   <tspan y="313.16245" x="313.87314" role="line">6</tspan>
  </text>
  <text y="272.2316" x="363.121" style="font-size:27.5px;line-height:125%;fill:#ecca5b">
   <tspan y="272.2316" x="368.121" role="line">\0</tspan>
  </text>
  <text y="313.17709" x="357.17545" style="font-size:20px;line-height:125%;fill:#ff522e">
   <tspan y="313.17709" x="357.17545" role="line">7</tspan>
  </text>
  <text y="267.36954" x="-25.110229" style="font-size:20px;line-height:125%;fill:#bc8b00">
   <tspan y="267.36954" x="-25.110229" role="line">Memory</tspan>
  </text>
  <text y="309.35287" x="-24.494995" style="font-size:20px;fill:#ff522e;line-height:125%;fill-opacity:.94902">
   <tspan y="309.35287" x="-24.494995" role="line">Index</tspan>
  </text>
  <path style="stroke:#bc8b00;stroke-width:1.5;fill:none" connector-curvature="0" d="m67.898 237.18v50"/>
  <path style="stroke:#ecca5b;stroke-opacity:0.751;fill:none" connector-curvature="0" d="m378.11 286.69 22.041-25.439"/>
  <path style="stroke:#ecca5b;stroke-width:1px;stroke-opacity:0.751;fill:none" connector-curvature="0" d="m390.7 286.77 9.6123-11.098"/>
  <path style="stroke:#bc8b00;stroke-width:1.5;fill:none" connector-curvature="0" d="m399.76 237.14v50"/>
  <path style="stroke:#ff522e;stroke-width:1px;stroke-opacity:.97647;fill:none" connector-curvature="0" d="m64.179 327.18v20h300.75v-20"/>
  <text y="313.17709" x="403.17545" style="font-size:20px;line-height:125%;fill:#ff522e">
   <tspan y="313.17709" x="403.17545" role="line">8</tspan>
  </text>
  <path style="stroke:#ecca5b;stroke-width:1px;stroke-opacity:0.751;fill:none" connector-curvature="0" d="m358.22 273.43 31.649-35.941"/>
  <path style="stroke:#ecca5b;stroke-opacity:0.751;fill:none" connector-curvature="0" d="m357.93 261.5 21.238-24.114"/>
  <path style="stroke:#ecca5b;stroke-width:1px;stroke-opacity:0.751;fill:none" connector-curvature="0" d="m358.75 248.38 9.6947-11.004"/>
  <path style="stroke:#bc8b00;stroke-width:1.5;fill:none" connector-curvature="0" d="m357.99 237.18v50"/>
  <rect style="opacity:.86694;stroke-width:2;stroke-opacity:.86667" height="50.017" width="764.2" y="457.1" x="68.93"/>
  <path style="stroke:#bc8b00;stroke-width:1.5;fill:none" connector-curvature="0" d="m110.34 457.18v50"/>
  <path style="stroke:#bc8b00;stroke-width:1.5;fill:none" connector-curvature="0" d="m152.77 457.18v50"/>
  <path style="stroke:#bc8b00;stroke-width:1.5;fill:none" connector-curvature="0" d="m195.21 457.18v50"/>
  <path style="stroke:#bc8b00;stroke-width:1.5;fill:none" connector-curvature="0" d="m237.65 457.18v50"/>
  <path style="stroke:#bc8b00;stroke-width:1.5;fill:none" connector-curvature="0" d="m280.08 457.18v50"/>
  <path style="stroke:#bc8b00;stroke-width:1.5;fill:none" connector-curvature="0" d="m322.52 457.18v50"/>
  <text y="494.01944" x="80.177917" style="font-size:35px;line-height:125%;fill:#ecca5b">
   <tspan y="494.01944" x="80.177917" role="line">c</tspan>
  </text>
  <text y="533.17706" x="61.175476" style="font-size:20px;line-height:125%;fill:#ff522e">
   <tspan y="533.17706" x="61.175476" role="line">0</tspan>
  </text>
  <text y="493.9169" x="121.49435" style="font-size:35px;line-height:125%;fill:#ecca5b">
   <tspan y="493.9169" x="121.49435" role="line">u</tspan>
  </text>
  <text y="533.4798" x="104.40524" style="font-size:20px;line-height:125%;fill:#ff522e">
   <tspan y="533.4798" x="104.40524" role="line">1</tspan>
  </text>
  <text y="494.07071" x="166.7937" style="font-size:35px;line-height:125%;fill:#ecca5b">
   <tspan y="494.07071" x="166.7937" role="line">t</tspan>
  </text>
  <text y="533.4798" x="145.41699" style="font-size:20px;line-height:125%;fill:#ff522e">
   <tspan y="533.4798" x="145.41699" role="line">2</tspan>
  </text>
  <text y="533.17706" x="186.05521" style="font-size:20px;line-height:125%;fill:#ff522e">
   <tspan y="533.17706" x="186.05521" role="line">3</tspan>
  </text>
  <text y="492.46378" x="245.29083" style="font-size:35px;line-height:125%;fill:#ecca5b">
   <tspan y="492.46378" x="245.29083" role="line"/>
  </text>
  <text y="533.4798" x="228.57697" style="font-size:20px;line-height:125%;fill:#ff522e">
   <tspan y="533.4798" x="228.57697" role="line">4</tspan>
  </text>
  <text y="494.44669" x="297.25717" style="font-size:35px;line-height:125%;fill:#ecca5b">
   <tspan y="494.44669" x="297.25717" role="line">i</tspan>
  </text>
  <text y="533.17706" x="271.17075" style="font-size:20px;line-height:125%;fill:#ff522e">
   <tspan y="533.17706" x="271.17075" role="line">5</tspan>
  </text>
  <text y="494.44669" x="333.01791" style="font-size:35px;line-height:125%;fill:#ecca5b">
   <tspan y="494.44669" x="333.01791" role="line">n</tspan>
  </text>
  <text y="533.17706" x="313.87314" style="font-size:20px;line-height:125%;fill:#ff522e">
   <tspan y="533.17706" x="313.87314" role="line">6</tspan>
  </text>
  <text y="533.4798" x="357.17545" style="font-size:20px;line-height:125%;fill:#ff522e">
   <tspan y="533.4798" x="357.17545" role="line">7</tspan>
  </text>
  <text y="487.36954" x="-25.110229" style="font-size:20px;line-height:125%;fill:#bc8b00">
   <tspan y="487.36954" x="-25.110229" role="line">Memory</tspan>
  </text>
  <text y="529.35291" x="-24.494995" style="font-size:20px;fill:#ff522e;line-height:125%;fill-opacity:.94902">
   <tspan y="529.35291" x="-24.494995" role="line">Index</tspan>
  </text>
  <path style="stroke:#bc8b00;stroke-width:1.5;fill:none" connector-curvature="0" d="m67.898 457.18v50"/>
  <path style="stroke:#ff522e;stroke-opacity:.97647;fill:none" connector-curvature="0" d="m64.385 547.18v20h723.9v-20"/>
  <text y="533.14777" x="403.17545" style="font-size:20px;line-height:125%;fill:#ff522e">
   <tspan y="533.14777" x="403.17545" role="line">8</tspan>
  </text>
  <path style="stroke:#bc8b00;stroke-width:1.5;fill:none" connector-curvature="0" d="m364.96 457.18v50"/>
  <path style="stroke:#bc8b00;stroke-width:1.5;fill:none" connector-curvature="0" d="m407.39 457.18v50"/>
  <path style="stroke:#bc8b00;stroke-width:1.5;fill:none" connector-curvature="0" d="m449.83 457.18v50"/>
  <path style="stroke:#bc8b00;stroke-width:1.5;fill:none" connector-curvature="0" d="m492.27 457.18v50"/>
  <path style="stroke:#bc8b00;stroke-width:1.5;fill:none" connector-curvature="0" d="m534.7 457.18v50"/>
  <path style="stroke:#bc8b00;stroke-width:1.5;fill:none" connector-curvature="0" d="m577.14 457.18v50"/>
  <path style="stroke:#bc8b00;stroke-width:1.5;fill:none" connector-curvature="0" d="m619.58 457.18v50"/>
  <path style="stroke:#bc8b00;stroke-width:1.5;fill:none" connector-curvature="0" d="m662.01 457.18v50"/>
  <text y="494.00235" x="206.60867" style="font-size:35px;line-height:125%;fill:#ecca5b">
   <tspan y="494.00235" x="206.60867" role="line">e</tspan>
  </text>
  <text y="494.07071" x="422.17789" style="font-size:35px;line-height:125%;fill:#ecca5b">
   <tspan y="494.07071" x="422.17789" role="line">t</tspan>
  </text>
  <text y="494.44669" x="459.49435" style="font-size:35px;line-height:125%;fill:#ecca5b">
   <tspan y="494.44669" x="459.49435" role="line">h</tspan>
  </text>
  <text y="494.00235" x="502.79373" style="font-size:35px;line-height:125%;fill:#ecca5b">
   <tspan y="494.00235" x="502.79373" role="line">e</tspan>
  </text>
  <text y="493.9169" x="631.25714" style="font-size:35px;line-height:125%;fill:#ecca5b">
   <tspan y="493.9169" x="631.25714" role="line">o</tspan>
  </text>
  <text y="494.44669" x="675.01788" style="font-size:35px;line-height:125%;fill:#ecca5b">
   <tspan y="494.44669" x="675.01788" role="line">r</tspan>
  </text>
  <text y="494.08469" x="540.60864" style="font-size:35px;line-height:125%;fill:#ecca5b">
   <tspan y="494.08469" x="540.60864" role="line"/>
  </text>
  <text y="494.44669" x="583.25714" style="font-size:35px;line-height:125%;fill:#ecca5b">
   <tspan y="494.44669" x="583.25714" role="line">w</tspan>
  </text>
  <path style="stroke:#bc8b00;stroke-width:1.5;fill:none" connector-curvature="0" d="m704.45 457.18v50"/>
  <path style="stroke:#bc8b00;stroke-width:1.5;fill:none" connector-curvature="0" d="m746.89 457.18v50"/>
  <text y="493.9169" x="757.2572" style="font-size:35px;line-height:125%;fill:#ecca5b">
   <tspan y="493.9169" x="757.2572" role="line">d</tspan>
  </text>
  <text y="494.44669" x="721.25714" style="font-size:35px;line-height:125%;fill:#ecca5b">
   <tspan y="494.44669" x="721.25714" role="line">l</tspan>
  </text>
  <path style="stroke:#ecca5b;stroke-width:1px;stroke-opacity:0.751;fill:none" connector-curvature="0" d="m790.9 506.91 42.67-49.24"/>
  <path style="stroke:#ecca5b;stroke-width:1px;stroke-opacity:0.751;fill:none" connector-curvature="0" d="m801.32 506.94 32.34-37.31"/>
  <text y="492.44485" x="796.45605" style="font-size:27.5px;line-height:125%;fill:#ecca5b">
   <tspan y="492.44485" x="802.45605" role="line">\0</tspan>
  </text>
  <path style="stroke:#ecca5b;stroke-opacity:0.751;fill:none" connector-curvature="0" d="m811.45 506.9 22.04-25.44"/>
  <path style="stroke:#ecca5b;stroke-width:1px;stroke-opacity:0.751;fill:none" connector-curvature="0" d="m824.04 506.99 9.6123-11.098"/>
  <path style="stroke:#bc8b00;stroke-width:1.5;fill:none" connector-curvature="0" d="m833.1 457.35v50"/>
  <path style="stroke:#ecca5b;stroke-width:1px;stroke-opacity:0.751;fill:none" connector-curvature="0" d="m791.56 493.64 31.65-35.94"/>
  <path style="stroke:#ecca5b;stroke-opacity:0.751;fill:none" connector-curvature="0" d="m791.27 481.71 21.238-24.114"/>
  <path style="stroke:#ecca5b;stroke-width:1px;stroke-opacity:0.751;fill:none" connector-curvature="0" d="m792.08 468.6 9.6948-11.004"/>
  <path style="stroke:#bc8b00;stroke-width:1.5;fill:none" connector-curvature="0" d="m791.33 457.39v50"/>
  <rect style="opacity:.86694;stroke-width:2;stroke-opacity:.86667" height="50.017" width="550.57" y="717.1" x="68.93"/>
  <path style="stroke:#ecca5b;stroke-width:1px;stroke-opacity:0.751;fill:none" connector-curvature="0" d="m577.57 766.69 42.669-49.24"/>
  <path style="stroke:#bc8b00;stroke-width:1.5;fill:none" connector-curvature="0" d="m110.54 717.18v50"/>
  <path style="stroke:#bc8b00;stroke-width:1.5;fill:none" connector-curvature="0" d="m153.19 717.18v50"/>
  <path style="stroke:#bc8b00;stroke-width:1.5;fill:none" connector-curvature="0" d="m195.84 717.18v50"/>
  <path style="stroke:#bc8b00;stroke-width:1.5;fill:none" connector-curvature="0" d="m238.48 717.18v50"/>
  <path style="stroke:#bc8b00;stroke-width:1.5;fill:none" connector-curvature="0" d="m281.13 717.18v50"/>
  <path style="stroke:#bc8b00;stroke-width:1.5;fill:none" connector-curvature="0" d="m323.77 717.18v50"/>
  <path style="stroke:#ecca5b;stroke-width:1px;stroke-opacity:0.751;fill:none" connector-curvature="0" d="m587.99 766.73 32.337-37.319"/>
  <text y="749.84991" x="80.177917" style="font-size:35px;line-height:125%;fill:#ecca5b">
   <tspan y="749.84991" x="80.177917" role="line">y</tspan>
  </text>
  <text y="793.1723" x="61.175476" style="font-size:20px;line-height:125%;fill:#ff522e">
   <tspan y="793.1723" x="61.175476" role="line">0</tspan>
  </text>
  <text y="753.37067" x="121.49435" style="font-size:35px;line-height:125%;fill:#ecca5b">
   <tspan y="753.37067" x="121.49435" role="line">o</tspan>
  </text>
  <text y="793.2016" x="104.40524" style="font-size:20px;line-height:125%;fill:#ff522e">
   <tspan y="793.2016" x="104.40524" role="line">1</tspan>
  </text>
  <text y="753.10577" x="162.7937" style="font-size:35px;line-height:125%;fill:#ecca5b">
   <tspan y="753.10577" x="162.7937" role="line">u</tspan>
  </text>
  <text y="793.32843" x="145.41699" style="font-size:20px;line-height:125%;fill:#ff522e">
   <tspan y="793.32843" x="145.41699" role="line">2</tspan>
  </text>
  <text y="793.17706" x="186.05521" style="font-size:20px;line-height:125%;fill:#ff522e">
   <tspan y="793.17706" x="186.05521" role="line">3</tspan>
  </text>
  <text y="753.33636" x="251.29083" style="font-size:35px;line-height:125%;fill:#ecca5b">
   <tspan y="753.33636" x="251.29083" role="line">a</tspan>
  </text>
  <text y="793.17706" x="228.57697" style="font-size:20px;line-height:125%;fill:#ff522e">
   <tspan y="793.17706" x="228.57697" role="line">4</tspan>
  </text>
  <text y="753.37067" x="293.25717" style="font-size:35px;line-height:125%;fill:#ecca5b">
   <tspan y="753.37067" x="293.25717" role="line">r</tspan>
  </text>
  <text y="793.0257" x="271.17075" style="font-size:20px;line-height:125%;fill:#ff522e">
   <tspan y="793.0257" x="271.17075" role="line">5</tspan>
  </text>
  <text y="753.41327" x="333.01791" style="font-size:35px;line-height:125%;fill:#ecca5b">
   <tspan y="753.41327" x="333.01791" role="line">e</tspan>
  </text>
  <text y="793.16241" x="313.87314" style="font-size:20px;line-height:125%;fill:#ff522e">
   <tspan y="793.16241" x="313.87314" role="line">6</tspan>
  </text>
  <text y="752.23151" x="583.12097" style="font-size:27.5px;line-height:125%;fill:#ecca5b">
   <tspan y="752.23151" x="589.12097" role="line">\0</tspan>
  </text>
  <text y="793.17706" x="357.17545" style="font-size:20px;line-height:125%;fill:#ff522e">
   <tspan y="793.17706" x="357.17545" role="line">7</tspan>
  </text>
  <text y="747.36957" x="-25.110229" style="font-size:20px;line-height:125%;fill:#bc8b00">
   <tspan y="747.36957" x="-25.110229" role="line">Memory</tspan>
  </text>
  <text y="789.35284" x="-24.494995" style="font-size:20px;fill:#ff522e;line-height:125%;fill-opacity:.94902">
   <tspan y="789.35284" x="-24.494995" role="line">Index</tspan>
  </text>
  <path style="stroke:#bc8b00;stroke-width:1.5;fill:none" connector-curvature="0" d="m67.898 717.18v50"/>
  <path style="stroke:#ecca5b;stroke-opacity:0.751;fill:none" connector-curvature="0" d="m598.11 766.69 22.041-25.439"/>
  <path style="stroke:#ecca5b;stroke-width:1px;stroke-opacity:0.751;fill:none" connector-curvature="0" d="m610.7 766.77 9.6123-11.098"/>
  <path style="stroke:#bc8b00;stroke-width:1.5;fill:none" connector-curvature="0" d="m619.76 717.14v50"/>
  <path style="stroke:#ff522e;stroke-width:1px;stroke-opacity:.97647;fill:none" connector-curvature="0" d="m64.284 807.18v20h515.7v-20"/>
  <text y="793.17706" x="403.17545" style="font-size:20px;line-height:125%;fill:#ff522e">
   <tspan y="793.17706" x="403.17545" role="line">8</tspan>
  </text>
  <path style="stroke:#ecca5b;stroke-width:1px;stroke-opacity:0.751;fill:none" connector-curvature="0" d="m578.22 753.43 31.649-35.941"/>
  <path style="stroke:#ecca5b;stroke-opacity:0.751;fill:none" connector-curvature="0" d="m577.93 741.5 21.238-24.114"/>
  <path style="stroke:#ecca5b;stroke-width:1px;stroke-opacity:0.751;fill:none" connector-curvature="0" d="m578.75 728.38 9.6947-11.004"/>
  <path style="stroke:#bc8b00;stroke-width:1.5;fill:none" connector-curvature="0" d="m577.99 717.18v50"/>
  <path style="stroke:#bc8b00;stroke-width:1.5;fill:none" connector-curvature="0" d="m451.71 717.18v50"/>
  <path style="stroke:#bc8b00;stroke-width:1.5;fill:none" connector-curvature="0" d="m494.35 717.18v50"/>
  <path style="stroke:#bc8b00;stroke-width:1.5;fill:none" connector-curvature="0" d="m537 717.18v50"/>
  <text y="754.01947" x="420.17789" style="font-size:35px;line-height:125%;fill:#ecca5b">
   <tspan y="754.01947" x="420.17789" role="line">c</tspan>
  </text>
  <text y="753.91681" x="461.49435" style="font-size:35px;line-height:125%;fill:#ecca5b">
   <tspan y="753.91681" x="461.49435" role="line">u</tspan>
  </text>
  <text y="754.07086" x="506.79373" style="font-size:35px;line-height:125%;fill:#ecca5b">
   <tspan y="754.07086" x="506.79373" role="line">t</tspan>
  </text>
  <path style="stroke:#bc8b00;stroke-width:1.5;fill:none" connector-curvature="0" d="m409.06 717.18v50"/>
  <text y="754.00238" x="546.60864" style="font-size:35px;line-height:125%;fill:#ecca5b">
   <tspan y="754.00238" x="546.60864" role="line">e</tspan>
  </text>
  <path style="stroke:#bc8b00;stroke-width:1.5;fill:none" connector-curvature="0" d="m366.42 717.18v50"/>
  <text y="793.0257" x="445.17075" style="font-size:20px;line-height:125%;fill:#ff522e">
   <tspan y="793.0257" x="445.17075" role="line">9</tspan>
  </text>
  <text y="793.16241" x="479.87314" style="font-size:20px;line-height:125%;fill:#ff522e">
   <tspan y="793.16241" x="479.87314" role="line">10</tspan>
  </text>
  <text y="793.17706" x="523.17542" style="font-size:20px;line-height:125%;fill:#ff522e">
   <tspan y="793.17706" x="523.17542" role="line">11</tspan>
  </text>
  <text y="793.17706" x="565.17542" style="font-size:20px;line-height:125%;fill:#ff522e">
   <tspan y="793.17706" x="565.17542" role="line">12</tspan>
  </text>
  <text y="793.17706" x="605.17542" style="font-size:20px;line-height:125%;fill:#ff522e">
   <tspan y="793.17706" x="605.17542" role="line">13</tspan>
  </text>
  <text y="533.19659" x="443.17075" style="font-size:20px;line-height:125%;fill:#ff522e">
   <tspan y="533.19659" x="443.17075" role="line">9</tspan>
  </text>
  <text y="533.17706" x="477.87314" style="font-size:20px;line-height:125%;fill:#ff522e">
   <tspan y="533.17706" x="477.87314" role="line">10</tspan>
  </text>
  <text y="533.4798" x="521.17542" style="font-size:20px;line-height:125%;fill:#ff522e">
   <tspan y="533.4798" x="521.17542" role="line">11</tspan>
  </text>
  <text y="533.4798" x="563.17542" style="font-size:20px;line-height:125%;fill:#ff522e">
   <tspan y="533.4798" x="563.17542" role="line">12</tspan>
  </text>
  <text y="533.17706" x="605.17542" style="font-size:20px;line-height:125%;fill:#ff522e">
   <tspan y="533.17706" x="605.17542" role="line">13</tspan>
  </text>
  <text y="533.14777" x="647.17542" style="font-size:20px;line-height:125%;fill:#ff522e">
   <tspan y="533.14777" x="647.17542" role="line">14</tspan>
  </text>
  <text y="533.19659" x="689.17072" style="font-size:20px;line-height:125%;fill:#ff522e">
   <tspan y="533.19659" x="689.17072" role="line">15</tspan>
  </text>
  <text y="533.17706" x="731.87311" style="font-size:20px;line-height:125%;fill:#ff522e">
   <tspan y="533.17706" x="731.87311" role="line">16</tspan>
  </text>
  <text y="533.4798" x="777.17542" style="font-size:20px;line-height:125%;fill:#ff522e">
   <tspan y="533.4798" x="777.17542" role="line">17</tspan>
  </text>
  <text y="533.4798" x="819.17535" style="font-size:20px;line-height:125%;fill:#ff522e">
   <tspan y="533.4798" x="819.17535" role="line">18</tspan>
  </text>
  <text y="664.6416" x="175.03586" style="font-size:35px;line-height:125%;fill:#de6a26">
   <tspan y="664.6416" x="-195.31308" role="line">n = 4</tspan>
  </text>
  <text y="283.47134" x="-195.31308" style="font-size:20px;line-height:125%;fill:#de6a26">
   <tspan y="283.47134" x="-195.31308" style="font-size:35px" role="line">str1 =</tspan>
  </text>
  <text y="505.62369" x="-193.31308" style="font-size:20px;line-height:125%;fill:#de6a26">
   <tspan y="505.62369" x="-193.31308" style="font-size:35px" role="line">str2 =</tspan>
  </text>
  <text y="769.47137" x="-195.31308" style="font-size:20px;line-height:125%;fill:#de6a26">
   <tspan y="769.47137" x="-195.31308" style="font-size:35px" role="line">str1 =</tspan>
  </text>
 </g>
</svg>
