<svg style="font-family:sans-serif" xmlns="http://www.w3.org/2000/svg" height="161.67mm" width="268.84mm" viewBox="0 0 952.57001 572.83922"><style>.tr text{filter:url(#bg);font-size:20px;fill:#6d6d6d}.rc rect{filter:url(#bg);stroke:#8c8c8c;fill:none}</style><defs><filter id="bh" style="color-interpolation-filters:sRGB" label="Drop Shadow"><feFlood result="flood" flood-color="rgb(76,76,76)"/><feComposite operator="in" result="composite1" in2="SourceGraphic" in="flood"/><feGaussianBlur stdDeviation="1.3" result="blur" in="composite1"/><feOffset result="offset" dx="2.1" dy="1.82292"/><feComposite operator="over" result="fbSourceGraphic" in2="offset" in="SourceGraphic"/><feColorMatrix values="0 0 0 -1 0 0 0 0 -1 0 0 0 0 -1 0 0 0 0 1 0" result="fbSourceGraphicAlpha" in="fbSourceGraphic"/><feFlood in="fbSourceGraphic" result="flood" flood-color="rgb(76,76,76)"/><feComposite operator="in" result="composite1" in2="fbSourceGraphic" in="flood"/><feGaussianBlur stdDeviation="1.3" result="blur" in="composite1"/><feOffset result="offset" dx="1" dy="-2.86458"/><feComposite operator="over" result="composite2" in2="offset" in="fbSourceGraphic"/></filter><filter id="bg" style="color-interpolation-filters:sRGB" label="Drop Shadow"><feFlood result="flood" flood-color="rgb(76,76,76)"/><feComposite operator="in" result="composite1" in2="SourceGraphic" in="flood"/><feGaussianBlur stdDeviation="1.3" result="blur" in="composite1"/><feOffset result="offset" dx="2.1" dy="1.82292"/><feComposite operator="over" result="composite2" in2="offset" in="SourceGraphic"/></filter><filter id="bn" style="color-interpolation-filters:sRGB" label="Drop Shadow"><feFlood result="flood" flood-color="rgb(76,76,76)"/><feComposite operator="in" result="composite1" in2="SourceGraphic" in="flood"/><feGaussianBlur stdDeviation="1.3" result="blur" in="composite1"/><feOffset result="offset" dx="0" dy="2.6"/><feComposite operator="over" result="composite2" in2="offset" in="SourceGraphic"/></filter></defs><rect style="fill:#464c50" rx="9.2857" ry="5.4291" height="572.84" width="952.57" y="-.00042724" x="0"/><rect style="filter:url(#bn);stroke:#e7e2cc;stroke-width:1.8;fill:#fcff8d" rx="9.2857" ry="9.2857" height="369.45" width="383.86" y="101.69" x="284.36"/><rect style="stroke:#8c8c8c;fill:#494949" rx="4.2857" ry="5.7143" height="36.855" width="313.19" y="139.83" x="320.13"/><text y="170.40683" x="326.37985" style="font-size:33.75px;font-weight:100;fill:#ffffff;font-family:DigifaceWide;fill-opacity:.072555"><tspan y="170.40683" x="326.37985">888888888888</tspan></text><g class="tr"><text y="365.86142" x="339.82739"><tspan y="365.86142" x="339.82739">1</tspan></text><text y="245.83701" x="339.99829"><tspan y="245.83701" x="339.99829">7</tspan></text><text y="245.83701" x="426.65997"><tspan y="245.83701" x="426.65997">8</tspan></text><text y="245.84189" x="513.30707"><tspan y="245.84189" x="513.30707">9</tspan></text><text y="305.83701" x="340.22778"><tspan y="305.83701" x="340.22778">4</tspan></text><text y="305.68564" x="426.4549"><tspan y="305.68564" x="426.4549">5</tspan></text><text y="305.82236" x="513.07269"><tspan y="305.82236" x="513.07269">6</tspan></text><text y="365.98837" x="426.52325"><tspan y="365.98837" x="426.52325">2</tspan></text><text y="365.83701" x="513.13617"><tspan y="365.83701" x="513.13617">3</tspan></text><text y="244.67978" x="602.04395"><tspan y="244.67978" x="602.04395">/</tspan></text><text y="309.24033" x="599.72949"><tspan y="309.24033" x="599.72949">*</tspan></text><text y="364.93369" x="597.91309"><tspan y="364.93369" x="597.91309">+</tspan></text><text y="424.9288" x="601.55566"><tspan y="424.9288" x="601.55566">-</tspan></text><text y="425.83212" x="340.1106"><tspan y="425.83212" x="340.1106">0</tspan></text><text y="419.9581" x="429.3797"><tspan y="419.9581" x="429.3797">.</tspan></text><text y="424.93369" x="511.37344"><tspan y="424.93369" x="511.37344">=</tspan></text></g><g class="rc"><rect rx="2.8571" ry="2.8571" height="27.143" width="53.571" y="225" x="319.69"/><rect rx="2.8571" ry="2.8571" height="27.143" width="53.571" y="225" x="406.23"/><rect rx="2.8571" ry="2.8571" height="27.143" width="53.571" y="225" x="492.77"/><rect rx="2.8571" ry="2.8571" height="27.143" width="53.571" y="225" x="579.31"/><rect rx="2.8571" ry="2.8571" height="27.143" width="53.571" y="285" x="319.69"/><rect rx="2.8571" ry="2.8571" height="27.143" width="53.571" y="285" x="406.23"/><rect rx="2.8571" ry="2.8571" height="27.143" width="53.571" y="285" x="492.77"/><rect rx="2.8571" ry="2.8571" height="27.143" width="53.571" y="285" x="579.31"/><rect rx="2.8571" ry="2.8571" height="27.143" width="53.571" y="345" x="319.69"/><rect rx="2.8571" ry="2.8571" height="27.143" width="53.571" y="345" x="406.23"/><rect rx="2.8571" ry="2.8571" height="27.143" width="53.571" y="345" x="492.77"/><rect rx="2.8571" ry="2.8571" height="27.143" width="53.571" y="345" x="579.31"/><rect rx="2.8571" ry="2.8571" height="27.143" width="53.571" y="405" x="319.69"/><rect rx="2.8571" ry="2.8571" height="27.143" width="53.571" y="405" x="406.23"/><rect rx="2.8571" ry="2.8571" height="27.143" width="53.571" y="405" x="492.77"/><rect rx="2.8571" ry="2.8571" height="27.143" width="53.571" y="405" x="579.31"/></g><text y="170.58542" x="503.34409" style="font-size:33.75px;font-weight:100;fill:#ffffff;font-family:DigifaceWide"><tspan y="170.58542" x="503.34409" style="fill:#ffffff">25+47</tspan></text><text y="130.358" x="318.64246" style="font-size:12.5px;fill:#c9cd5b"><tspan y="130.358" x="318.64246">2braces</tspan></text></svg>