<svg xmlns:rdf="http://www.w3.org/1999/02/22-rdf-syntax-ns#" xmlns="http://www.w3.org/2000/svg" height="98.783mm" width="317.69mm" version="1.1" xmlns:cc="http://creativecommons.org/ns#" xmlns:dc="http://purl.org/dc/elements/1.1/" viewBox="0 0 1125.6651 350.01687">
 <g transform="translate(366.22 -351.77)">
  <g transform="translate(6.4555 11.592)">
   <rect style="opacity:.75;stroke:#000;fill:#faa" height="349.02" width="499.3" y="340.68" x="-372.18"/>
   <path d="m-125.17 466.97s1.3298-34.465 34.354-39.119c0 0 .77015 7.7433-2.2091 15.726-4.5388 12.161-16.289 26.27-32.145 23.394z" style="fill:#85a335;fill-rule:evenodd"/>
   <path style="stroke:#9aba46;stroke-width:0.4;fill:none" d="m-124.84 466.57c6.5085-5.1926 12.573-10.942 18.105-17.164 5.8804-6.6139 11.159-13.762 15.75-21.328"/>
   <path d="m-116.06 460.64s-5.0151-8.7765-3.1345-11.911" style="opacity:0.451;stroke:#9aba46;stroke-width:0.3;fill:none"/>
   <path d="m-98.954 439.75s2.299 3.2375 2.1774 5.0276" style="opacity:0.451;stroke:#9aba46;stroke-width:0.3;fill:none"/>
   <path d="m-105.94 448.7s4.733 4.2355 4.3998 6.6883" style="opacity:0.451;stroke:#9aba46;stroke-width:0.3;fill:none"/>
   <path d="m-105.7 447.89s-2.4272-4.0925-1.517-5.5541" style="opacity:0.451;stroke:#9aba46;stroke-width:0.3;fill:none"/>
   <path d="m-95.486 439.12s-3.2622-5.2119-2.0389-7.0733" style="opacity:0.451;stroke:#9aba46;stroke-width:0.3;fill:none"/>
   <path d="m-101.52 442.62s1.5986 4.0788 1.2654 6.5316" style="opacity:0.451;stroke:#9aba46;stroke-width:0.3;fill:none"/>
   <path d="m-101.74 443.66s-2.4272-4.0925-1.517-5.5541" style="opacity:0.451;stroke:#9aba46;stroke-width:0.3;fill:none"/>
   <path d="m-111.03 454.1s-3.7229-6.9182-2.3268-9.3889" style="opacity:0.451;stroke:#9aba46;stroke-width:0.3;fill:none"/>
   <path d="m-117.19 459.03s4.3756 4.8495 2.7348 6.5814" style="opacity:0.451;stroke:#9aba46;stroke-width:0.3;fill:none"/>
   <path d="m-111.22 453.71s3.2482 3.8226 2.0301 5.1879" style="opacity:0.451;stroke:#9aba46;stroke-width:0.3;fill:none"/>
   <path d="m-115.67 577.47s.42825 0 .33308-.96262c-.0952-.96261-.0952-.96261-.0952-.96261l-.38067.48132" style="fill:#fb6d64;fill-rule:evenodd"/>
   <path d="m-170.37 583.2s.42826 0 .33308-.96262c-.0952-.96261-.0952-.96261-.0952-.96261l-.38067.48132" style="fill:#fb6d64;fill-rule:evenodd"/>
   <path d="m-64.42 571.74s.42826 0 .33308-.96261c-.0952-.96261-.0952-.96261-.0952-.96261l-.38067.48132" style="fill:#fb6d64;fill-rule:evenodd"/>
   <path d="m-136.15 541.76s.42825 0 .33308-.96261c-.0952-.96261-.0952-.96261-.0952-.96261l-.38067.48132" style="fill:#fb6d64;fill-rule:evenodd"/>
   <path d="m-95.193 509.19s.42826 0 .33308-.96262c-.0952-.96261-.0952-.96261-.0952-.96261l-.38067.48132" style="fill:#fb6d64;fill-rule:evenodd"/>
   <path d="m-102.01 586.06s.42825 0 .33308-.96261c-.0952-.96261-.0952-.96261-.0952-.96261l-.38067.48131" style="fill:#fb6d64;fill-rule:evenodd"/>
   <path d="m-163.55 565.74s.42825 0 .33308-.96262c-.0952-.96261-.0952-.96261-.0952-.96261l-.38067.48132" style="fill:#fb6d64;fill-rule:evenodd"/>
   <path d="m-125.93 560.01s.42826 0 .33309-.96261c-.0952-.96261-.0952-.96261-.0952-.96261l-.38067.48132" style="fill:#fb6d64;fill-rule:evenodd"/>
   <path d="m-88.379 574.6s.42826 0 .33308-.96261c-.0952-.96261-.0952-.96261-.0952-.96261l-.38067.48132" style="fill:#fb6d64;fill-rule:evenodd"/>
   <path d="m-142.96 580.33s.42826 0 .33308-.96261c-.0952-.96261-.0952-.96261-.0952-.96261l-.38067.48132" style="fill:#fb6d64;fill-rule:evenodd"/>
   <path d="m-108.86 538.9s.42826 0 .33309-.96261c-.0952-.96262-.0952-.96262-.0952-.96262l-.38067.48132" style="fill:#fb6d64;fill-rule:evenodd"/>
   <path d="m-74.715 512.06s.42826 0 .33308-.96261c-.0952-.96261-.0952-.96261-.0952-.96261l-.38067.48131" style="fill:#fb6d64;fill-rule:evenodd"/>
   <path d="m-81.566 588.93s.42826 0 .33308-.96261c-.0952-.96261-.0952-.96261-.0952-.96261l-.38067.48132" style="fill:#fb6d64;fill-rule:evenodd"/>
   <path d="m-132.74 562.88s.42826 0 .33309-.96261c-.0952-.96261-.0952-.96261-.0952-.96261l-.38067.48132" style="fill:#fb6d64;fill-rule:evenodd"/>
   <path d="m-98.6 544.63s.42826 0 .33308-.96261c-.0952-.96262-.0952-.96262-.0952-.96262l-.38067.48132" style="fill:#fb6d64;fill-rule:evenodd"/>
   <path d="m-71.297 568.87s.46042 0 .35809-1.0947l-.10240-1.0947-.40926.54737" style="fill:#fb6d64;fill-rule:evenodd"/>
   <path d="m-153.29 529.78s.46042 0 .3581-1.0947l-.1024-1.0947-.40926.54738" style="fill:#fb6d64;fill-rule:evenodd"/>
   <path d="m-105.44 536.03s.46041 0 .35809-1.0947l-.1024-1.0947-.40925.54737" style="fill:#fb6d64;fill-rule:evenodd"/>
   <path d="m-177.24 554.02s.46041 0 .35809-1.0947l-.1024-1.0947-.40925.54738" style="fill:#fb6d64;fill-rule:evenodd"/>
   <path d="m-180.69 547.76s.46042 0 .3581-1.0947l-.10228-1.0947-.40926.54737" style="fill:#fb6d64;fill-rule:evenodd"/>
   <path d="m-119.1 526.65s.46041 0 .3581-1.0947l-.1024-1.0947-.40926.54737" style="fill:#fb6d64;fill-rule:evenodd"/>
   <path d="m-78.148 532.9s.46042 0 .35809-1.0947l-.10240-1.0947-.40926.54737" style="fill:#fb6d64;fill-rule:evenodd"/>
   <path d="m-149.84 557.15s.46041 0 .35809-1.0947l-.1024-1.0947-.40925.54737" style="fill:#fb6d64;fill-rule:evenodd"/>
   <path d="m-156.73 550.89s.46042 0 .35809-1.0947l-.1024-1.0947-.40925.54738" style="fill:#fb6d64;fill-rule:evenodd"/>
   <path d="m-112.27 517.79s.42826 0 .33309-.96261c-.0952-.96261-.0952-.96261-.0952-.96261l-.38067.48132" style="fill:#fb6d64;fill-rule:evenodd"/>
   <path d="m-166.96 523.52s.42826 0 .33308-.96261c-.0952-.96261-.0952-.96261-.0952-.96261l-.38067.48132" style="fill:#fb6d64;fill-rule:evenodd"/>
   <path d="m-61.013 506.33s.42826 0 .33308-.96261c-.0952-.96261-.0952-.96261-.0952-.96261l-.38067.48132" style="fill:#fb6d64;fill-rule:evenodd"/>
   <path d="m-160.15 500.33s.42826 0 .33308-.96261c-.0952-.96261-.0952-.96261-.0952-.96261l-.38067.48132" style="fill:#fb6d64;fill-rule:evenodd"/>
   <path d="m-122.52 494.6s.42826 0 .33308-.96261c-.0952-.96261-.0952-.96261-.0952-.96261l-.38067.48132" style="fill:#fb6d64;fill-rule:evenodd"/>
   <path d="m-84.973 514.92s.42826 0 .33308-.96261c-.0952-.96261-.0952-.96261-.0952-.96261l-.38067.48132" style="fill:#fb6d64;fill-rule:evenodd"/>
   <path d="m-139.56 520.65s.42825 0 .33308-.96261c-.0952-.96262-.0952-.96262-.0952-.96262l-.38067.48132" style="fill:#fb6d64;fill-rule:evenodd"/>
   <path d="m-129.34 497.47s.42825 0 .33308-.96261c-.0952-.96262-.0952-.96262-.0952-.96262l-.38067.48132" style="fill:#fb6d64;fill-rule:evenodd"/>
   <path d="m-91.786 491.74s.42826 0 .33308-.96261c-.0952-.96261-.0952-.96261-.0952-.96261l-.38067.48132" style="fill:#fb6d64;fill-rule:evenodd"/>
   <path d="m-67.853 503.46s.46042 0 .35809-1.0947l-.10240-1.0947-.40925.54737" style="fill:#fb6d64;fill-rule:evenodd"/>
   <path d="m-173.8 488.87s.46042 0 .35809-1.0947l-.10239-1.0947-.40926.54737" style="fill:#fb6d64;fill-rule:evenodd"/>
   <path d="m-146.4 485.74s.46041 0 .35809-1.0947l-.1024-1.0947-.40925.54738" style="fill:#fb6d64;fill-rule:evenodd"/>
   <g style="fill:#a00" transform="matrix(1.2412 0 0 1.2412 -604.91 -144.36)">
    <path style="fill:#a00;fill-rule:evenodd" d="m386.8 501.28c-51.644-23.36-56.318 33.497-56.318 33.497s-1.0225 15.56 4.2738 30.899c5.2096 15.088 16.648 29.913 27.5 35.37 9.5674 1.7432 18.388-2.8964 27.22-3.1966 5.6772.31335 10.607 1.3177 16.091 3.1543 4.059 1.3594 7.7571.63547 12.257-.39242"/>
    <path style="fill:#a00;fill-rule:evenodd" d="m386.4 501.32c29.158-12.159 45.706-3.9765 53.502 8.0358 7.1804 11.065 6.718 25.595 6.718 25.595s5.1288 44.989-29.068 65.765"/>
   </g>
   <rect style="opacity:.75;stroke:#000;fill:#96d2fc" height="349.02" width="499.3" y="340.68" x="253.18"/>
   <path style="fill:#33d1b2" d="m368.28 533.35h268.37l-5.75 47.61-23.375-.49922-1.6888-8.1863-12.849-19.452-35.031.71413-12.374 26.974-81.531-.22454-11.619-25.616-31.415-2.1989-10.016 4.2664-10.169 23.546-26.544 1.0462z"/>
   <rect style="opacity:.75;stroke:#000;stroke-width:3;fill:#75787b" rx="9.5816" ry="5.8182" height="43.5" width="18" y="494.73" x="637.98"/>
   <path style="color-rendering:auto;text-decoration-color:#000000;color:#000000;shape-rendering:auto;solid-color:#000000;text-decoration-line:none;fill:#62e4cb;mix-blend-mode:normal;block-progression:tb;opacity:.75;text-indent:0;image-rendering:auto;white-space:normal;text-decoration-style:solid;isolation:auto;text-transform:none" d="m365.34 519.31v1l9.25 61.25c32.09 3.2684 64.207.87673 96.346.91156 53.005.0574 106.07.63377 159.15-.78656l7.2038-47.74.29624-14.76zm49.5 34.5 33.071-1.0564 9.5177 9.5306 5.2285 19.188 83.433.0879 7.75-22 7.5683-6.7546 30.579.466 11.297 11.186 3.9767 16.145c-43.913 1.0957-144.95.9834-205.52.70741l5.7913-16.57z"/>
   <circle r="22.5" style="opacity:.75;stroke:#000;stroke-width:4;fill:#75787b" cx="432.84" cy="581.31"/>
   <path style="stroke:#000;stroke-dasharray:16, 4, 2, 4;stroke-width:2;fill:none" d="m292.01 607.31h421.66"/>
   <path style="fill-rule:evenodd;stroke:#000;stroke-width:3;fill:#e9e8d8" d="m365.67 518.85h272.29l-.054-14.108-26.267-45.186-205.43-.52826-40.606 48.929-.0938 11.146"/>
   <path style="stroke:#000;stroke-width:3;fill:none" d="m458.62 459.03.038-8.5523s-.5682-1.6415 4.7982-1.6415c5.3665 0 86.86.10449 86.86.10449s1.1607 0 1.3393 1.4286.3571 9.1072.3571 9.1072"/>
   <path style="fill-rule:evenodd;stroke:#000;stroke-width:3;fill:#e5da9a" d="m564.25 438.94s8.8393-15.982 19.464-15.357c0 0-5.1786 15.982-2.7679 17.232"/>
   <path style="stroke:#000;stroke-width:3;fill:none" d="m423.18 442.96s88.479-12.328 170.8-.18471"/>
   <path style="stroke:#000;stroke-width:3;fill:none" d="m469.69 448.85.3572-9.8214"/>
   <path style="stroke:#000;stroke-width:3;fill:none" d="m469.69 448.85.3572-9.8214"/>
   <path style="stroke:#000;stroke-width:3;fill:none" d="m540.41 448.86.3572-10.91"/>
   <path style="fill-opacity:0;stroke:#000;stroke-width:3" d="m631.98 567.29 5.8336-33.764.0884-14.54m-91.938 63.831s4.625-28.625 17.125-29.75 25.25-.25 25.25-.25 15.75.75 18 28.75l33.596.21921s4.2427.50818 3.8891-14.319l-11.844-.17679-2.2981 14.496m-264.09-62.932 8.5 62.838 28.75-.125s.5557-3.4771 1.8368-8.0037c2.3136-8.1746 6.9931-19.772 15.038-20.496 12.5-1.125 24.625-.25 24.625-.25s15.75.75 18 28.75l84.965.21921"/>
   <circle r="22.5" style="opacity:.75;stroke:#000;stroke-width:4;fill:#75787b" cx="576.84" cy="581.31"/>
   <path style="fill-rule:evenodd;stroke:#000;stroke-width:3;fill:#75787b" d="m357.53 567.38 14.054-.17677 1.9446 14.849-9.1924.0884s-6.4524-2.2981-6.6291-6.0104c-.17678-3.7123-.17678-8.7504-.17678-8.7504z"/>
   <path style="fill-rule:evenodd;stroke:#000;stroke-width:3;fill:#e2d696" d="m365.96 530.75-.1875-11.901h-6.375s-1.9375-.53671-1.875 2.5883.25 8.1875.25 8.1875-.125 1.125 2.6875 1.125h5.5z"/>
   <path style="opacity:.75;fill:#75787b" d="m646.94 516.95c4.276 0 7.4958-.68331 7.5426 2.525l.17578 12.044c.0469 3.2083-3.4424 5.2173-7.7184 5.2173s-7.7652-2.009-7.7184-5.2173l.17578-12.044c.0469-3.2083 3.2666-2.525 7.5426-2.525z"/>
   <path style="fill-rule:evenodd;stroke:#000;stroke-width:3;fill:#9acff3" d="m415.71 470.81 38.75-.125s2.75-.125 2.875 3 .25 25.25.25 25.25-.5 1.875-3.625 1.875-60 .125-60 .125-3.625-2.125-1.875-4.25 19.125-23.5 19.125-23.5 2.125-2.375 4.5-2.375z"/>
   <rect style="opacity:.75;stroke:#000;stroke-width:3;fill:#9acff3" rx="7.0815" ry="2.3182" height="32" width="68" y="469.81" x="470.09"/>
   <path style="fill-rule:evenodd;stroke:#000;stroke-width:3;fill:#9acff3" d="m597.94 470.81-45.073-.125s-2.7729-.125-2.899 3c-.126 3.125-.2521 25.25-.2521 25.25s.5042 1.875 3.6553 1.875c3.151 0 60.5.125 60.5.125 8.2892-.16572 2.882-6.1022-3.7577-18.268-3.6834-6.7487-8.4574-11.768-12.174-11.857z"/>
   <path style="opacity:.75;stroke:#000;stroke-width:3;fill:#75787b" d="m507.9 501.57v-9.9132c0-3.762 2.6566-6.7907 5.9565-6.7907s5.9565 3.0287 5.9565 6.7907v9.9132"/>
   <path style="opacity:.75;stroke:#000;stroke-width:3;fill:#75787b" d="m576.63 501.57v-9.9132c0-3.762 2.6566-6.7907 5.9565-6.7907 3.2998 0 5.9564 3.0287 5.9564 6.7907v9.9132"/>
   <path style="opacity:.75;stroke:#000;stroke-width:3;fill:#75787b" d="m439.16 501.57v-9.9132c0-3.762 2.6566-6.7907 5.9565-6.7907s5.9565 3.0287 5.9565 6.7907v9.9132"/>
   <path style="opacity:0.929;stroke:#000;stroke-width:3;fill:#75787b" d="m411.75 505.43h-3.9132c-3.7621 0-6.7907-2.6566-6.7907-5.9565-.00001-3.2999 3.0286-5.9565 6.7907-5.9565l3.9132.000010z"/>
   <circle r="8" style="opacity:.75;stroke:#000;stroke-width:4;fill:#d3d3d3" cx="576.84" cy="581.31"/>
   <circle r="8" style="opacity:.75;stroke:#000;stroke-width:4;fill:#d3d3d3" cx="432.84" cy="581.31"/>
   <path style="fill-opacity:0;stroke:#ddd;stroke-width:4" d="m427.14 575.51a8 8 0 0 1 11.314 0 8 8 0 0 1 0 11.314"/>
   <path style="fill-opacity:0;stroke:#ddd;stroke-width:4" d="m582.54 575.64a8 8 0 0 1 0 11.314 8 8 0 0 1 -11.314 0"/>
  </g>
  <text style="font-size:60px;letter-spacing:0px;line-height:125%;word-spacing:0px;font-family:sans-serif;fill:#de301a" y="548.19653" x="161.32193" xml:space="preserve"><tspan y="548.19653" x="161.32193">Vs</tspan></text>
 </g>
</svg>
